<svg viewBox="0 0 24 24" xmlns="http://www.w3.org/2000/svg">
  <path
    d="M11.406.01l-.389.03C8.92.195 6.793.972 5.048 2.218c-.576.411-1.031.797-1.54 1.305C.59 6.443-.612 10.623.3 14.683a12.048 12.048 0 002.228 4.69c1.66 2.117 3.934 3.61 6.486 4.256 1.038.264 1.9.371 2.99.371a11.15 11.15 0 002.889-.346c1.47-.361 2.763-.955 4.056-1.86a12.211 12.211 0 003.217-3.396c1.066-1.696 1.672-3.567 1.82-5.622.032-.432.014-1.502-.033-1.943-.092-.875-.327-2.029-.463-2.27a.724.724 0 00-.321-.256.826.826 0 00-.2-.023.583.583 0 00-.579.57c0 .074.034.25.082.441a11.02 11.02 0 01.094 5.011 10.683 10.683 0 01-2.99 5.405 10.602 10.602 0 01-2.285 1.723c-2.07 1.185-4.645 1.634-7.06 1.232-1.834-.305-3.427-1.01-4.94-2.187-.711-.554-1.578-1.467-2.115-2.23a10.718 10.718 0 01-1.813-4.32 11.57 11.57 0 01-.134-2.802 10.54 10.54 0 011.02-3.783c.264-.552.428-.84.745-1.316A11.027 11.027 0 015.442 3.41a10.71 10.71 0 015.785-2.187 10.72 10.72 0 017.302 2.164c.156.117.32.245.363.285l.08.07-.031.087c-.162.454-.042 1.018.297 1.412.175.202.49.39.756.454.182.044.5.044.684 0 .468-.111.904-.512 1.043-.957a1.46 1.46 0 00-.254-1.387 1.48 1.48 0 00-1.52-.491l-.121.031-.172-.142a11.951 11.951 0 00-2.434-1.557C15.776.493 14.327.118 12.675.017a15.237 15.237 0 00-1.27-.006z"
    fill="#000"
  ></path>
  <path
    d="M10.164 6.914c-.223.575-.706 1.834-1.077 2.797l-1.693 4.396a602.066 602.066 0 01-1.026 2.658c-.007.01.583.017 1.307.017h1.32l.077-.216.345-.923.264-.708h1.98c1.579 0 1.981-.006 1.975-.027l-.516-1.473-.185-.524-1.311-.01-1.31-.011.852-2.348c.512-1.41.859-2.334.865-2.313l.757 2.15 1.5 4.252.754 2.14 1.313.007c.722.002 1.314 0 1.314-.004 0-.005-.17-.452-.38-.99l-.999-2.59c-.34-.883-.721-1.874-.85-2.203-.125-.33-.346-.9-.488-1.27-.143-.369-.514-1.336-.83-2.15l-.612-1.59-.04-.11h-2.906l-.4 1.043z"
    fill="#000"
  ></path>
</svg>
