<svg viewBox="0 0 24 24" xmlns="http://www.w3.org/2000/svg">
  <path
    d="M4.385 8.29c-.281.337-.731.603-1.181.565-.056-.456.164-.942.422-1.241.281-.348.773-.595 1.172-.614.047.476-.136.942-.413 1.29zm.408.656c-.652-.038-1.21.376-1.519.376-.314 0-.787-.357-1.303-.348-.67.01-1.294.395-1.636 1.009-.703 1.227-.183 3.045.497 4.044.333.494.731 1.037 1.256 1.018.497-.02.694-.329 1.294-.329.605 0 .778.329 1.303.32.544-.01.886-.496 1.22-.99.379-.562.534-1.109.543-1.137-.01-.01-1.05-.414-1.06-1.632-.009-1.018.82-1.503.858-1.532-.468-.704-1.2-.78-1.453-.8zm3.765-1.38v7.417h1.134v-2.536h1.57c1.435 0 2.443-.999 2.443-2.445 0-1.446-.99-2.436-2.405-2.436H8.558zm1.134.97H11c.985 0 1.547.533 1.547 1.47 0 .938-.562 1.475-1.552 1.475H9.692V8.537zm6.085 6.504c.713 0 1.374-.366 1.674-.947h.023v.89h1.05V11.29c0-1.07-.844-1.76-2.142-1.76-1.205 0-2.096.7-2.128 1.66h1.022c.084-.457.501-.756 1.073-.756.694 0 1.083.328 1.083.932v.41l-1.416.085c-1.317.08-2.03.628-2.03 1.58 0 .96.736 1.598 1.791 1.598zm.305-.88c-.605 0-.99-.295-.99-.747 0-.466.371-.738 1.079-.78l1.261-.081v.418c0 .695-.581 1.19-1.35 1.19zM19.926 17c1.107 0 1.627-.428 2.082-1.727L24 9.603h-1.153l-1.336 4.38h-.024l-1.336-4.38h-1.186l1.922 5.399-.103.328c-.174.557-.455.77-.956.77-.09 0-.263-.009-.333-.018v.89c.065.018.347.028.431.028z"
    fill="#000"
  ></path>
</svg>
