<svg viewBox="0 0 24 24" xmlns="http://www.w3.org/2000/svg">
  <path d="M0 0h24v24H0V0z" fill="url(#paint0_linear)"></path>
  <path
    d="M7.805 17.473h.002l-.81 1.403a1.07 1.07 0 01-1.854-1.07l.597-1.034.057-.099c.102-.147.355-.4.86-.353 0 0 1.187.13 1.273.746 0 0 .011.204-.125.407zm11.484-3.582h-2.525c-.172-.012-.247-.073-.276-.109l-.002-.003-2.703-4.682-.004.003-.162-.233c-.266-.406-.687.633-.687.633-.504 1.158.071 2.474.272 2.872l3.754 6.502a1.07 1.07 0 101.854-1.07l-.94-1.626c-.017-.04-.049-.146.144-.147h1.275a1.07 1.07 0 000-2.14zm-4.904 1.455s.135.685-.387.685H4.664a1.07 1.07 0 110-2.14h2.4c.387-.023.479-.246.479-.246h.002l3.133-5.425h-.002a.239.239 0 00.002-.22L9.643 6.21a1.07 1.07 0 111.854-1.07l.48.83.479-.83A1.07 1.07 0 1114.31 6.21l-4.36 7.55c-.018.046-.024.118.118.13h2.605v.026s1.507.024 1.712 1.43z"
    fill="#fff"
  ></path>
  <defs>
    <linearGradient
      id="paint0_linear"
      x1="12"
      y1="24"
      x2="12"
      y2="0"
      gradientUnits="userSpaceOnUse"
    >
      <stop stop-color="#1D76F2"></stop>
      <stop offset="1" stop-color="#1AC2FB"></stop>
    </linearGradient>
  </defs>
</svg>
