<svg viewBox="0 0 24 24" xmlns="http://www.w3.org/2000/svg">
  <path
    d="M12.008 17.919L24 10.363v2.049L12.008 20 0 12.412v-2.05l12.008 7.557zm0-9.477c2.693 0 5.085 1.425 6.48 3.49l-1.76 1.136c-2.645-3.57-7.508-4.21-10.882-1.376a2.06 2.06 0 00-.286.256 7.612 7.612 0 016.448-3.506zm0 3.506a4.378 4.378 0 00-3.549 1.84 3.571 3.571 0 012.139-.704c1.299 0 2.455.673 3.232 1.81l1.679-1.057c-.729-1.169-2.028-1.89-3.501-1.89zM3.897 8.874c4.943-3.938 11.929-2.865 15.652 2.37l.031.031 1.822-1.136C19.406 7.049 15.937 5 12.008 5 8.11 5 4.642 7.017 2.614 10.139c.364-.416.824-.913 1.283-1.265z"
    fill="#F8991C"
  ></path>
</svg>
