<svg viewBox="0 0 24 24" xmlns="http://www.w3.org/2000/svg">
  <path
    d="M6.763 10.085c0 .288.032.521.088.692.064.172.144.359.256.561.04.062.056.125.056.18 0 .077-.048.155-.152.233l-.503.327a.39.39 0 01-.208.07c-.08 0-.16-.039-.239-.11a2.415 2.415 0 01-.287-.365c-.08-.132-.16-.28-.248-.46-.622.717-1.405 1.075-2.347 1.075-.67 0-1.205-.187-1.596-.56-.391-.374-.59-.873-.59-1.495 0-.662.239-1.2.726-1.605.487-.404 1.133-.607 1.955-.607.272 0 .551.023.846.062.296.04.6.102.918.172v-.569c0-.591-.127-1.004-.375-1.246-.255-.24-.686-.358-1.3-.358-.28 0-.568.031-.863.102-.295.07-.583.155-.862.264a2.328 2.328 0 01-.28.101.5.5 0 01-.127.024c-.112 0-.168-.078-.168-.242V5.95c0-.125.016-.218.056-.273a.596.596 0 01.224-.163c.28-.14.614-.257 1.005-.35a4.954 4.954 0 011.246-.148c.95 0 1.644.21 2.091.63.439.42.662 1.06.662 1.916v2.522h.016zm-3.24 1.183c.263 0 .535-.047.822-.14.287-.094.543-.265.758-.498.128-.148.224-.312.272-.499a2.73 2.73 0 00.08-.677v-.327a6.817 6.817 0 00-.735-.133 6.163 6.163 0 00-.75-.046c-.535 0-.926.1-1.19.311-.263.21-.39.506-.39.896 0 .366.095.638.295.825.191.195.47.288.838.288zm6.41.841c-.144 0-.24-.023-.304-.078-.064-.047-.12-.156-.168-.304L7.586 5.71a1.335 1.335 0 01-.072-.312c0-.124.064-.195.191-.195h.783c.151 0 .255.024.31.078.065.047.113.156.16.304l1.341 5.155 1.246-5.155c.04-.156.088-.257.151-.304a.56.56 0 01.32-.078h.638c.152 0 .256.024.32.078.063.047.12.156.151.304l1.261 5.217 1.381-5.217c.048-.156.104-.257.16-.304a.53.53 0 01.311-.078h.743c.127 0 .2.063.2.195 0 .039-.009.078-.017.125a1.091 1.091 0 01-.056.194l-1.923 6.02c-.048.155-.104.256-.168.303a.52.52 0 01-.303.078h-.687c-.151 0-.255-.024-.32-.078-.063-.055-.119-.156-.15-.312l-1.238-5.022-1.23 5.015c-.04.155-.087.257-.15.311-.065.055-.177.078-.32.078h-.687zm10.256.21c-.415 0-.83-.046-1.229-.14-.399-.093-.71-.195-.918-.311-.128-.07-.215-.148-.247-.218a.537.537 0 01-.048-.218v-.398c0-.163.064-.24.183-.24.048 0 .096.007.144.022.048.016.12.047.2.078.271.117.566.21.878.273.319.062.63.093.95.093.503 0 .894-.085 1.165-.257a.834.834 0 00.415-.74.748.748 0 00-.215-.544c-.144-.148-.415-.28-.807-.405l-1.157-.35c-.583-.18-1.014-.445-1.277-.795a1.826 1.826 0 01-.4-1.129c0-.327.072-.615.216-.864a2.02 2.02 0 01.575-.639c.24-.179.51-.311.83-.405A3.56 3.56 0 0120.453 5c.175 0 .359.008.535.031.183.024.35.055.518.086.16.039.312.078.455.124.144.047.256.094.336.14a.685.685 0 01.24.195.412.412 0 01.071.257V6.2c0 .164-.064.25-.184.25a.845.845 0 01-.303-.094 3.73 3.73 0 00-1.532-.304c-.455 0-.815.07-1.062.218-.248.148-.375.374-.375.693 0 .218.08.405.24.553.159.148.454.296.877.428l1.134.35c.574.18.99.429 1.237.748.247.32.367.685.367 1.09 0 .335-.072.639-.207.903a2.108 2.108 0 01-.583.686 2.597 2.597 0 01-.886.436c-.36.109-.735.163-1.142.163z"
    fill="#252F3E"
  ></path>
  <path
    fill-rule="evenodd"
    clip-rule="evenodd"
    d="M19.718 14.788c.855-.102 2.738-.32 3.074.1.335.414-.376 2.15-.695 2.92-.096.234.112.328.327.149 1.405-1.153 1.772-3.559 1.485-3.91-.287-.342-2.754-.638-4.254.39-.232.164-.192.382.063.35zM11.976 19c3.28 0 7.096-1.004 9.722-2.896.431-.312.056-.787-.383-.592a24.217 24.217 0 01-9.06 1.806c-4.318 0-8.493-1.16-11.877-3.076-.296-.17-.52.125-.272.343C3.236 17.341 7.378 19 11.976 19z"
    fill="#F90"
  ></path>
</svg>
