<svg viewBox="0 0 24 24" xmlns="http://www.w3.org/2000/svg">
  <path
    d="M22 10.594l-4.856.2-3.147-.2 5.206-.496 2.797.496z"
    fill="#634B1E"
  ></path>
  <path
    d="M19.192 10.315l2.808.28V4.97l-2.808-1.396-.216.231v6.27l.216.24z"
    fill="#D9A740"
  ></path>
  <path
    d="M13.997 4.967l5.195-1.397v6.745l-5.195.28V4.966z"
    fill="#886A2A"
  ></path>
  <path
    d="M2 10.594l4.856.2 3.147-.2-5.191-.552L2 10.594z"
    fill="#634B1E"
  ></path>
  <path
    d="M4.808 10.315L2 10.585v-5.64l2.808-1.393.13.24v6.312l-.13.211z"
    fill="#886A2A"
  ></path>
  <path
    d="M10.003 4.967L4.808 3.57v6.745l5.195.28V4.966z"
    fill="#D9A740"
  ></path>
  <path
    d="M22 13.502l-4.856-.2-3.147.2 5.183.52 2.82-.52z"
    fill="#FAD791"
  ></path>
  <path
    d="M19.192 13.78L22 13.502v5.623l-2.808 1.396-.148-.32v-6.134l.148-.287z"
    fill="#D9A740"
  ></path>
  <path
    d="M13.997 19.128l5.195 1.398V13.78l-5.195-.28v5.627z"
    fill="#886A2A"
  ></path>
  <path
    d="M2 13.502l4.856-.2 3.147.2-5.229.566L2 13.502z"
    fill="#FAD791"
  ></path>
  <path
    d="M4.808 13.78L2 13.502v5.623l2.808 1.396.17-.252v-6.202l-.17-.287z"
    fill="#886A2A"
  ></path>
  <path
    d="M10.003 19.128l-5.195 1.398V13.78l5.195-.28v5.627z"
    fill="#D9A740"
  ></path>
  <path
    d="M9.465 8.232l2.575-.449 5.142.724.443.253-2.497.272-5.663-.8z"
    fill="#634B1E"
  ></path>
  <path
    d="M14.535 8.232l-2.576-.449-5.363.827-.221.15 2.497.272 5.663-.8z"
    fill="#634B1E"
  ></path>
  <path
    d="M9.465 15.864l2.575.45 5.13-.714.455-.264-2.497-.272-5.663.8z"
    fill="#FAD791"
  ></path>
  <path
    d="M14.535 15.864l-2.576.45-5.402-.766-.182-.212 2.497-.272 5.663.8z"
    fill="#FAD791"
  ></path>
  <path
    d="M17.625 8.76V5.98l-2.634-.856V1.487L12 0l-.125.198-.023 23.5L12 24l2.991-1.487v-3.541l2.634-.857v-2.779l-2.634.461V8.299l2.634.461z"
    fill="#D9A740"
  ></path>
  <path
    d="M9.009 1.487v3.637l-2.634.857V8.76l2.634-.46v7.497l-2.634-.461v2.78l2.634.856v3.541L12 24V0L9.009 1.487z"
    fill="#886A2A"
  ></path>
</svg>
