<svg viewBox="0 0 24 24" xmlns="http://www.w3.org/2000/svg">
  <path
    d="M14.97 9.944l4.625-.493 2.396.497.009.006-4.419.263-2.616-.269.005-.004z"
    fill="#5E1F18"
  ></path>
  <path
    d="M14.966 9.948l4.625-.36.032-.047V3.843l-.032-.065-4.626 1.2v4.97z"
    fill="#8C3123"
  ></path>
  <path d="M22 9.954l-2.41-.366v-5.81L22 4.98v4.973z" fill="#E05243"></path>
  <path
    d="M14.966 14.052l.067.047 4.559.309 2.326-.31.082-.044-4.419-.271-2.615.269z"
    fill="#F2B0A9"
  ></path>
  <path
    d="M14.966 14.052l4.626.343.014.02-.004 5.768-.011.03-4.626-1.192v-4.97z"
    fill="#8C3123"
  ></path>
  <path
    d="M22 14.054l-2.408.341-.001 5.818L22 19.019v-4.965z"
    fill="#E05243"
  ></path>
  <path
    d="M8.962 9.94L4.39 9.548l-2.375.394L2 9.954l4.419.263 2.568-.263-.025-.014z"
    fill="#5E1F18"
  ></path>
  <path
    d="M2 9.954l2.387-.35.07-.049v-5.71l-.07-.067L2 4.982v4.972z"
    fill="#8C3123"
  ></path>
  <path d="M8.987 9.954l-4.6-.35V3.779l4.6 1.2v4.976z" fill="#E05243"></path>
  <path
    d="M8.987 14.054l-.106.076-4.494.337-2.31-.337L2 14.054l4.419-.271 2.568.27z"
    fill="#F2B0A9"
  ></path>
  <path
    d="M2 14.054l2.387.338.061.075.007 5.642-.068.104L2 19.019v-4.965z"
    fill="#8C3123"
  ></path>
  <path
    d="M8.987 14.054l-4.6.338v5.821l4.6-1.192v-4.967z"
    fill="#E05243"
  ></path>
  <path
    d="M16.774 14.796L12 14.326l-4.821.47.068.058 4.73.75 4.729-.75.068-.058z"
    fill="#F2B0A9"
  ></path>
  <path
    d="M7.179 14.796l4.798.702.048.065.006 8.344-.054.093-4.798-2.395v-6.809z"
    fill="#8C3123"
  ></path>
  <path
    d="M16.774 14.796l-4.797.702V24l4.797-2.395v-6.809z"
    fill="#E05243"
  ></path>
  <path
    d="M12 9.669l-4.82-.465.012-.007 4.785-.742 4.783.743.015.006L12 9.669z"
    fill="#5E1F18"
  ></path>
  <path
    d="M7.179 9.204l4.798-.698.022-.021-.01-8.472L11.977 0 7.179 2.396v6.808z"
    fill="#8C3123"
  ></path>
  <path
    d="M16.774 9.204l-4.797-.698V0l4.797 2.396v6.808z"
    fill="#E05243"
  ></path>
</svg>
