<svg viewBox="0 0 24 24" xmlns="http://www.w3.org/2000/svg">
  <path
    d="M3.288 16.598l.17.19 8.587 2.4.04-1.487-6.015-1.488-.294-.105-2.488.49z"
    fill="#B7CA9D"
  ></path>
  <path
    d="M20.711 16.598l-8.77 2.886-.026-1.783 6.014-1.488.263-.29 2.52.675z"
    fill="#B7CA9D"
  ></path>
  <path
    d="M11.915 6.405l6.014 1.381 2.645-.123.137-.262-8.379-2.973-.417 1.977z"
    fill="#3C4929"
  ></path>
  <path
    d="M6.07 16.213l-2.782.385-.077-.284V7.7l.077-.3 2.514.185.268.2v8.427z"
    fill="#759C3E"
  ></path>
  <path
    d="M12.084 6.405L6.07 7.786l-2.782-.385.105-.162 8.652-2.427.04 1.593z"
    fill="#3C4929"
  ></path>
  <path
    d="M11.988 0L2 4.97l.005 14.063L11.988 24l.149-.223V.29L11.988 0zm-2.92 18.308l-5.78-1.71V7.401l5.78-1.709v12.616zm8.861-2.095l2.782.385.156-.271V7.662l-.156-.262-2.782.386v8.426z"
    fill="#4B612C"
  ></path>
  <path
    d="M11.988 24l10.007-4.967L22 4.97 11.988 0v24zm2.944-18.308l5.78 1.71v9.196l-5.78 1.71V5.692z"
    fill="#759C3E"
  ></path>
</svg>
