<svg viewBox="0 0 24 24" xmlns="http://www.w3.org/2000/svg">
  <path
    d="M18.309 4.667l2.013-.534.015.023.051 12.507-.066.068-.415.018-1.575-.252-.023-.064V4.667zM6.664 17.6h.008l5.314 1.59.014.01.023.019-.007 4.76L12 24l-5.336-2.667V17.6z"
    fill="#7A3E65"
  ></path>
  <path
    d="M18.309 16.433l-6.3 1.552-3.163-.785-2.182.4L12 19.2l8.235-2.294.087-.175-2.013-.298z"
    fill="#CFB2C1"
  ></path>
  <path
    d="M17.335 6.4l-.05-.06-5.228-1.563L12 4.8l-.053-.028-8.224 2.44-.045.057.066.037 1.88.284.067-.023 6.3-1.552 3.163.785 2.181-.4z"
    fill="#512843"
  ></path>
  <path
    d="M5.691 19.333l-2.013.5-.004-.012-.079-12.46.083-.092 2.013.298v11.766z"
    fill="#C17B9E"
  ></path>
  <path
    d="M8.41 14.5l3.59.433.027-.041.015-5.778L12 9.067 8.41 9.5v5z"
    fill="#7A3E65"
  ></path>
  <path
    d="M15.59 14.5l-3.59.433V9.067l3.59.433v5zm1.745-8.1L12 4.8V0l5.335 2.667V6.4z"
    fill="#C17B9E"
  ></path>
  <path d="M12 0L2 4.967v14.067l1.678.8V7.269L12 4.8V0z" fill="#7A3E65"></path>
  <path
    d="M20.322 4.133v12.598L12 19.2V24l10-4.967V4.967l-1.678-.834z"
    fill="#C17B9E"
  ></path>
</svg>
