<svg viewBox="0 0 24 24" xmlns="http://www.w3.org/2000/svg">
  <path
    d="M23 16.515l-10.996-1.558L1 16.517l11 3.93 11-3.932z"
    fill="#B7CA9D"
  ></path>
  <path
    d="M3.202 16.333l1.859.56.169-.185V4.167l-.17-.215-1.858.686v11.695z"
    fill="#4B612C"
  ></path>
  <path
    d="M11.642 15.779L5.06 16.893V3.954l6.58 1.427V15.78z"
    fill="#759C3E"
  ></path>
  <path
    d="M8.707 17.972l-2.565-.762V1.237L8.707 0l.225.236v17.472l-.225.264z"
    fill="#4B612C"
  ></path>
  <path
    d="M17.497 15.984l-8.79 1.988V0l8.79 3.303v12.68z"
    fill="#759C3E"
  ></path>
  <path
    d="M11.997 20.278L1 16.517v2.181L11.997 24v-3.722z"
    fill="#4B612C"
  ></path>
  <path d="M23 18.696L11.997 24v-3.722L23 16.515v2.18z" fill="#759C3E"></path>
  <path
    d="M19.91 12.901h-2.667l-7.6.5 2.357.418 7.91-.918z"
    fill="#B7CA9D"
  ></path>
  <path
    d="M9.643 18.222l2.356.682.068-.07-.002-5.126-.068-.063-2.354-.245v4.822z"
    fill="#4B612C"
  ></path>
  <path
    d="M19.91 12.901l-7.913.744.002 5.259 7.91-2.297v-3.706z"
    fill="#759C3E"
  ></path>
</svg>
