<svg viewBox="0 0 24 24" xmlns="http://www.w3.org/2000/svg">
  <path
    d="M15.199 24h.301l4.92-2.382.082-.112V2.493l-.082-.113L15.5 0h-.305l.004 24z"
    fill="#5294CF"
  ></path>
  <path
    d="M8.797 24H8.49l-4.916-2.382-.1-.166-.05-18.863.15-.209L8.491 0h.31l-.004 24z"
    fill="#1F5B98"
  ></path>
  <path d="M8.5 0h6.996v24H8.5V0z" fill="#2D72B8"></path>
  <path
    d="M22.995 11.46l-.166-.035-2.374-.214-.035.017-4.924-.19H8.499l-4.924.19V7.592l-.005.003.005-.01L8.5 6.478h6.997l4.924 1.105 1.81.932v-.6l.765-.08-.079-.15-2.422-1.677-.074.023-4.924-1.477H8.499L3.575 6.032V2.38L1 5.301v2.551l.02-.014.745.079v.611L1 8.924v2.539l.02-.002.745.01v1.066l-.643.01L1 12.534v2.54l.765.398v.618l-.733.078L1 16.146v2.55l2.575 2.922v-3.652L8.5 19.443h6.997l4.939-1.481.065.027 2.39-1.652.105-.165-.765-.081v-.606l-.1-.039-1.636.854-.06.12-4.938 1.098v.002H8.499v-.002l-4.924-1.103v-3.649l4.924.19v.005h6.997l4.924-.195.112.05 2.301-.192.162-.077-.765-.01V11.47l.765-.01z"
    fill="#1A476F"
  ></path>
  <path
    d="M20.42 17.966v3.652l2.575-2.921v-2.534l-2.56 1.799-.015.004zm0-1.543l.015-.003 2.56-1.334v-2.55l-2.575.23v3.657zm.015-8.836l-.015-.003v3.644l2.575.233V8.912l-2.56-1.325zm0-1.54l2.56 1.789V5.302L20.42 2.38v3.652l.015.005v.01z"
    fill="#2D72B8"
  ></path>
</svg>
