<svg viewBox="0 0 24 24" xmlns="http://www.w3.org/2000/svg">
  <path d="M5.34 18.984l-2.337.53V4.47L5.34 5v13.984z" fill="#F68536"></path>
  <path
    d="M8.256 19.872l-2.916.824V3.309l2.916.822v15.741zm3.741.912l-3.74 1.361V1.859l3.74 1.36v17.565zM22 19.03L11.997 24V0L22 4.97v14.06z"
    fill="#F68536"
  ></path>
  <path
    d="M10.003.991L11.997 0v24l-1.994-.99V.99zm-3.29 1.635l1.543-.767v20.282l-1.543-.767V2.626zM4.11 3.919l1.23-.61v17.383l-1.23-.612V3.92zm-1.108.55L2 4.969v14.064l1.003.498V4.47z"
    fill="#9D5025"
  ></path>
</svg>
