<svg viewBox="0 0 24 24" xmlns="http://www.w3.org/2000/svg">
  <path
    fill-rule="evenodd"
    clip-rule="evenodd"
    d="M6.538 21l-2.984-1.023v-4.178l2.984.971V21zm.548 0l2.984-1.023V15.8l-2.984.971V21zM3.86 15.486l3.021-.812 2.801.863-2.801.908-3.02-.959zm-.875-.323L0 14.14V9.962l2.985.971v4.23zm.547 0l2.985-1.023V9.962l-2.985.971v4.23zM.307 9.649l3.02-.812L6.13 9.7l-2.801.908-3.021-.959zm9.642 5.514L6.964 14.14V9.962l2.985.971v4.23zm.548 0l2.985-1.023V9.962l-2.985.971v4.23zM7.272 9.649l3.02-.812 2.801.863-2.8.908-3.021-.959zm6.23-.324l-2.984-1.022V4.125l2.985.97v4.23zm.548 0l2.985-1.022V4.125l-2.985.97v4.23zm-3.225-5.513L13.845 3l2.802.862-2.801.909-3.021-.959zm9.643 5.513l-2.985-1.022V4.125l2.985.97v4.23zm.547 0L24 8.303V4.125l-2.985.97v4.23zM17.79 3.812L20.81 3l2.801.862-2.8.909-3.021-.959"
    fill="#F90"
  ></path>
</svg>
