<svg viewBox="0 0 24 24" xmlns="http://www.w3.org/2000/svg">
  <path
    d="M6.984 8.118L6 8.454l1.02.123-.036-.46zm-.049 2.01l5.065.339 5.065-.338L12 9.097 6.935 10.13zm10.057-1.551L18 8.454l-1.008-.281v.404z"
    fill="#3C4929"
  ></path>
  <path d="M13.377 17.285l2.654.656-2.66.839.006-1.495z" fill="#B7CA9D"></path>
  <path
    d="M6.935 4.517V2.646L12 0l.023.02-.012 2.375L12 2.4l-.019.055-2.77 1.168-.026 4.116 1.475-.26L12 7.2V24l-1.517-.792v-2.242l-1.33-.555V9.897l-2.218.232V8.258L6 8.454V4.907l.935-.39z"
    fill="#4B612C"
  ></path>
  <path
    d="M10.66 7.48l-1.506.315V3.589l1.506.49V7.48zm3.961-6.11l2.443 1.276v1.87l.936.391v3.546l-.936-.195v1.87l-1.193-.124-1.025-.107V12h2.219v1.924l-1.032.096v1.94l-2.516.523v2.242l2.51-.779.006 1.978-2.516 1.042v2.242L12 24V7.2l1.34.28 1.433.197V3.623L12.038 2.52 12 2.4V0l2.621 1.37z"
    fill="#759C3E"
  ></path>
  <path
    d="M13.517 3.034L12 2.4 9.154 3.59l1.506.49 2.857-1.045z"
    fill="#3C4929"
  ></path>
  <path
    d="M9.154 3.589L12 2.4l.599.25.918.384 1.329.556-.071.075-1.354.44-.081-.025L12 3.589l-1.34.49-1.506-.49z"
    fill="#3C4929"
  ></path>
  <path d="M13.34 4.08l1.506-.49v4.205l-1.506-.316v-3.4z" fill="#4B612C"></path>
</svg>
