<svg viewBox="0 0 24 24" xmlns="http://www.w3.org/2000/svg">
  <path
    d="M2 19.033l1.275.634.209-.37V4.605l-.21-.27L2 4.966v14.066z"
    fill="#9D5025"
  ></path>
  <path d="M5.724 4.933l-2.45-.6v15.334l2.45-.567V4.933z" fill="#F68536"></path>
  <path
    d="M13.239 6.1l1.744-.9 5.805 2.233-1.544.2L13.24 6.1z"
    fill="#6B3A19"
  ></path>
  <path
    d="M13.306 17.9l1.711.9 5.804-2.233-1.543-.2-5.972 1.533z"
    fill="#FBBF93"
  ></path>
  <path
    d="M13.742 15.433l3.053.4.175-.312V8.536l-.175-.37-3.053.4v6.867zM4.785 3.567l1.878-.934.206.394v17.926l-.206.414-1.878-.934V3.567z"
    fill="#9D5025"
  ></path>
  <path
    d="M10.488 20.1l-3.825 1.233v-18.7l3.825 1.234V20.1z"
    fill="#F68536"
  ></path>
  <path
    d="M9.012 22.5l2.986 1.5.312-.357V.44L11.998 0 9.012 1.5v21zM19.177 7.633l1.544-.2.132.192v8.75l-.133.225-1.543-.2V7.633z"
    fill="#9D5025"
  ></path>
  <path d="M16.795 8.167v7.7L19.982 12l-3.187-3.833z" fill="#F68536"></path>
  <path
    d="M20.72 4.333L11.998 0v24l9.997-4.967V4.967l-1.275-.634zm0 12.279l-5.736 1.702V5.686l5.736 1.702v9.224z"
    fill="#F68536"
  ></path>
</svg>
