<svg viewBox="0 0 24 24" xmlns="http://www.w3.org/2000/svg">
  <path
    d="M7.772 21.836l4.226 2.094.412-.305L12.236.28 11.997 0 7.773 2.094v19.742z"
    fill="#9D5025"
  ></path>
  <path
    d="M16.223 21.836l-4.225 2.094V0l4.225 2.094v19.742z"
    fill="#F68536"
  ></path>
  <path
    d="M10.404 8.71l-1.482.215-6.92-.773.03-.076 1.122-.334.12.067.027-.067 7.059.818.044.15z"
    fill="#6B3A19"
  ></path>
  <path
    d="M2.002 4.954l1.272-.63v3.485l-1.272.343V4.954z"
    fill="#9D5025"
  ></path>
  <path
    d="M21.998 10.147l-7.082.377-1.325-.09.25-.103 6.902-.392 1.255.208z"
    fill="#6B3A19"
  ></path>
  <path
    d="M10.404 8.71l-7.13-.901V4.323l7.13 1.658v2.73z"
    fill="#F68536"
  ></path>
  <path
    d="M20.721 6.366l-7.13 1.215v2.853l7.13-.425.042-.08-.015-3.498-.027-.065z"
    fill="#9D5025"
  ></path>
  <path
    d="M21.998 10.147l-1.277-.165V6.366l1.277.463v3.318z"
    fill="#F68536"
  ></path>
</svg>
