<svg viewBox="0 0 24 24" xmlns="http://www.w3.org/2000/svg">
  <path
    d="M12 2C5.54 2 .48 10.22 0 17.161c2.027 3.519 6.916 4.841 12 4.841 5.085 0 9.974-1.322 12-4.84C23.521 10.218 18.46 2 12 2z"
    fill="#B6DEFF"
  ></path>
  <path
    d="M22.312 15.508s-1.427-3.085-2.877-4.885c-1.451-1.8-3.224-3.76-4.272-3.76-1.047 0-3.975 5.183-5.318 5.183-1.343 0-2.042-2.35-3.693-2.35-1.653 0-4.278 5.667-4.278 5.667l-.178.96s.912 4.044 10.454 4.044c9.541 0 10.304-3.977 10.304-3.977l-.142-.882z"
    fill="#6C6"
  ></path>
  <path
    d="M9.994 14.258c-1.481 0-2.24-1.462-2.653-2.364-.37-.813-.434-2.097-1.485-2.133a.816.816 0 01.296-.065c1.651 0 2.35 2.35 3.693 2.35s4.271-5.184 5.318-5.184c.198 0 .42.07.661.194-.178-.024-.407-.007-.583.17-.339.338-3.412 7.032-5.247 7.032z"
    fill="#17AD49"
  ></path>
</svg>
