<svg viewBox="0 0 24 24" xmlns="http://www.w3.org/2000/svg">
  <path
    d="M7.108 4c.72 0 1.375.067 1.967.202.593.134 1.1.355 1.524.66.423.307.75.714.983 1.222.233.508.35 1.136.35 1.882 0 .807-.173 1.48-.519 2.017-.346.538-.857.979-1.534 1.322.931.284 1.626.781 2.084 1.49.458.71.688 1.566.688 2.566 0 .807-.148 1.506-.444 2.096a4.015 4.015 0 01-1.196 1.445 5.16 5.16 0 01-1.713.83A7.32 7.32 0 017.32 20H0V4h7.108zm-.423 6.476c.592 0 1.079-.149 1.46-.448.38-.299.57-.784.57-1.456 0-.374-.063-.68-.19-.92a1.457 1.457 0 00-.507-.56 2.07 2.07 0 00-.73-.28 4.59 4.59 0 00-.857-.078h-3.11v3.742h3.364zm.19 6.79c.325 0 .635-.034.931-.1.296-.068.557-.18.783-.337.225-.157.405-.37.54-.639.133-.269.2-.612.2-1.03 0-.822-.219-1.408-.656-1.76-.437-.35-1.015-.526-1.734-.526H3.32v4.392h3.554zm9.956-.336c.45.463 1.1.695 1.946.695.606 0 1.128-.16 1.565-.482.438-.32.706-.661.804-1.02h2.645c-.423 1.39-1.073 2.383-1.947 2.98-.874.598-1.932.897-3.173.897-.86 0-1.636-.146-2.327-.437a4.824 4.824 0 01-1.756-1.244 5.658 5.658 0 01-1.11-1.927c-.262-.746-.392-1.568-.392-2.465 0-.866.134-1.673.402-2.42a5.733 5.733 0 011.143-1.938 5.38 5.38 0 011.766-1.289c.684-.313 1.442-.47 2.274-.47.93 0 1.742.19 2.433.571a4.95 4.95 0 011.703 1.535 6.5 6.5 0 01.963 2.196 8.66 8.66 0 01.211 2.577h-7.89c.042 1.03.288 1.778.74 2.241zm3.395-6.095c-.36-.418-.906-.628-1.64-.628-.479 0-.877.086-1.195.258a2.307 2.307 0 00-1.163 1.445 3.848 3.848 0 00-.138.762h4.887c-.141-.806-.391-1.419-.751-1.837zm-4.649-6.023h6.106v1.794h-6.106V4.812z"
    fill="#1769FF"
  ></path>
</svg>
