<svg viewBox="0 0 24 24" xmlns="http://www.w3.org/2000/svg">
  <path
    fill-rule="evenodd"
    clip-rule="evenodd"
    d="M23.64 14.903c-1.602 6.428-8.114 10.34-14.544 8.737C2.669 22.038-1.244 15.526.359 9.098 1.961 2.67 8.473-1.244 14.901.36c6.43 1.603 10.343 8.115 8.74 14.544z"
    fill="#F7931A"
  ></path>
  <path
    fill-rule="evenodd"
    clip-rule="evenodd"
    d="M17.291 10.29c.239-1.596-.977-2.455-2.64-3.027l.54-2.163-1.317-.328-.525 2.106a54.427 54.427 0 00-1.055-.249l.529-2.12-1.316-.328-.54 2.163c-.286-.066-.568-.13-.84-.198v-.007l-1.815-.453-.35 1.406s.977.224.956.238c.533.133.63.486.614.766l-.615 2.464c.037.009.085.022.137.043l-.139-.034-.861 3.452c-.065.162-.23.405-.603.313.013.019-.958-.24-.958-.24l-.653 1.508 1.714.427c.318.08.63.164.938.242l-.545 2.189 1.315.328.54-2.165c.36.098.708.188 1.05.272l-.539 2.155 1.317.328.545-2.184c2.246.425 3.934.254 4.644-1.776.573-1.635-.028-2.578-1.21-3.194.861-.199 1.51-.765 1.682-1.934zm-3.008 4.219c-.408 1.635-3.16.751-4.053.53l.723-2.9c.892.224 3.754.665 3.33 2.37zm.407-4.242c-.372 1.487-2.663.731-3.407.546l.656-2.629c.743.186 3.137.531 2.75 2.083z"
    fill="#fff"
  ></path>
</svg>
