<svg viewBox="0 0 24 24" xmlns="http://www.w3.org/2000/svg">
  <path
    d="M0 20.905A3.094 3.094 0 003.095 24h17.81A3.094 3.094 0 0024 20.905V3.095A3.095 3.095 0 0020.905 0H3.095A3.095 3.095 0 000 3.095v17.81z"
    fill="#563D7C"
  ></path>
  <path
    d="M9.952 10.616V7.217h2.992c.285 0 .56.024.824.072.265.047.499.132.702.254.204.122.367.292.489.509.122.217.183.495.183.834 0 .61-.183 1.052-.55 1.323-.366.271-.834.407-1.404.407H9.952zM6.757 4.734v14.532h7.042c.651 0 1.285-.082 1.903-.245a5.088 5.088 0 001.648-.753 3.71 3.71 0 001.15-1.312c.285-.536.427-1.17.427-1.903 0-.91-.22-1.686-.66-2.33-.442-.645-1.11-1.096-2.006-1.354.652-.312 1.143-.712 1.476-1.2.332-.49.498-1.1.498-1.832 0-.679-.111-1.249-.335-1.71a2.793 2.793 0 00-.947-1.11c-.407-.277-.895-.477-1.465-.6a9.047 9.047 0 00-1.893-.183H6.757zm3.195 12.049v-3.99h3.48c.692 0 1.249.16 1.67.479.42.319.63.851.63 1.598 0 .38-.064.692-.193.936a1.536 1.536 0 01-.52.58 2.2 2.2 0 01-.752.305c-.285.061-.583.092-.896.092H9.952z"
    fill="#fff"
  ></path>
</svg>
