<svg viewBox="0 0 24 24" xmlns="http://www.w3.org/2000/svg">
  <path
    d="M23.541 11.746c-1.234-1.237-7.407-2.01-9.354-2.234a6.15 6.15 0 00.24-.72c.277-.126.56-.236.849-.328.036.11.206.536.303.738 3.917.113 4.118-3.034 4.277-3.897.156-.843.148-1.657 1.491-3.147-2.001-.608-4.88.943-5.843 3.25a5.813 5.813 0 00-1.085-.31C14.162 4.016 12.822 1 9.305 1 4.853 1 0 4.83 0 11.314c0 5.45 3.568 10.226 5.585 10.226.88 0 1.638-.688 1.815-1.304.15.423.607 1.736.757 2.07.222.495 1.249.923 1.698.41.578.335 1.638.536 2.216-.356 1.113.245 2.097-.447 2.118-1.272.546-.03.814-.83.695-1.467-.088-.468-1.027-2.15-1.393-2.73.725.614 2.561.788 2.784 0 1.169.956 2.99.454 3.135-.324 1.42.385 3.05-.46 2.782-1.484 2.282-.164 1.99-2.696 1.35-3.337z"
    fill="#543729"
  ></path>
  <path
    d="M17.188 6.347c.492-1.017 1.11-2.127 1.89-2.814-.86.361-1.707 1.44-2.208 2.592a7.642 7.642 0 00-.776-.452c.699-1.556 2.323-2.855 4.113-2.957-1.199 1.134-.773 3.49-1.759 4.739-.282-.296-.93-.866-1.26-1.108zm-.775 1.656c0-.04.015-.34.04-.476-.068-.017-.495-.104-.718-.099-.016.292.117.788.25 1.087.91-.02 1.569-.304 1.956-.566-.33-.16-.892-.302-1.32-.388-.048.103-.165.366-.208.442z"
    fill="#00ACEE"
  ></path>
  <path
    d="M13.028 16.046l.001.005c-.115-.26-.238-.574-.384-.985.57.865 2.357.419 2.263-.357.875.687 2.675-.114 2.266-1.076.876.425 1.876-.431 1.652-.804 1.494.3 2.925.6 3.374.72-.298.507-.978.865-2.003.616.554.787-.521 1.73-2.019 1.21.33.773-1.004 1.468-2.519.663.02.773-1.88.862-2.63.008zm2.963-3.904c1.734.138 4.601.408 6.376.667-.112-.602-.419-.774-1.382-1.044-1.036.115-3.665.384-4.994.377z"
    fill="#2BAF2B"
  ></path>
  <path
    d="M14.908 14.71c.875.685 2.675-.115 2.266-1.077.876.425 1.876-.431 1.652-.804-1.766-.355-3.62-.712-4.04-.774.255.014.678.044 1.205.087 1.329.007 3.958-.262 4.994-.377-1.678-.444-5.103-1.091-7.47-1.25-.109.166-.31.45-.662.75-1.035 2.284-2.91 3.802-4.985 3.802-.605 0-1.281-.106-2.04-.359-.473.528-2.489.929-4.125.091C3 17.968 6.01 20.083 9.342 20.083c2.805 0 4.05-2.987 3.777-3.778-.066-.192-.328-.828-.474-1.24.57.866 2.357.42 2.263-.356z"
    fill="#FFCC2F"
  ></path>
  <path
    d="M13.208 8.697c.248-.14 1.104-.682 1.92-.885a3.933 3.933 0 01-.03-.285c-.534.134-1.543.585-2.122-.037 1.22.384 1.83-.342 2.726-.342.534 0 1.297.156 1.897.402-.483-.466-2.068-1.87-4.03-1.876-.439.554-.912 1.754-.361 3.023z"
    fill="#CECECE"
  ></path>
  <path
    d="M5.828 14.708c.759.253 1.435.36 2.04.36 2.075 0 3.95-1.519 4.985-3.802-.765.666-2.096 1.236-4.173 1.236 1.85-.437 3.444-1.399 4.254-2.805-.57-.945-1.188-3.037.377-4.69C13.071 4.2 11.9 2.07 9.305 2.07c-4.526 0-8.278 3.95-8.278 9.243 0 1.253.243 2.428.676 3.485 1.636.838 3.652.438 4.125-.09z"
    fill="#EF5734"
  ></path>
  <path
    d="M7.186 6.649c0 1.204.936 2.18 2.091 2.18 1.155 0 2.09-.976 2.09-2.18 0-1.204-.935-2.18-2.09-2.18-1.155 0-2.09.976-2.09 2.18z"
    fill="#FFCC2F"
  ></path>
  <path
    d="M8.025 6.65c0 .72.56 1.304 1.252 1.304.691 0 1.252-.584 1.252-1.305 0-.72-.56-1.305-1.252-1.305-.691 0-1.252.584-1.252 1.305z"
    fill="#543729"
  ></path>
  <path
    d="M9.277 6.543c.403 0 .73-.212.73-.473s-.327-.473-.73-.473c-.403 0-.73.212-.73.473s.327.473.73.473z"
    fill="#fff"
  ></path>
</svg>
