<svg viewBox="0 0 24 24" xmlns="http://www.w3.org/2000/svg">
  <path
    d="M12.013 24C18.633 24 24 18.633 24 12.013S18.633.026 12.013.026.026 5.393.026 12.013 5.393 24 12.013 24z"
    fill="#F5BB60"
  ></path>
  <path
    d="M10.79 21.582c5.96 0 10.792-4.832 10.792-10.791C21.582 4.83 16.75 0 10.79 0 4.83 0 0 4.831 0 10.79c0 5.96 4.831 10.792 10.79 10.792z"
    fill="#E86F32"
  ></path>
  <path
    d="M12.221 18.722a9.36 9.36 0 100-18.722 9.36 9.36 0 000 18.722z"
    fill="#E53D42"
  ></path>
  <path
    d="M12.975 18.722a8.607 8.607 0 100-17.214 8.607 8.607 0 000 17.214z"
    fill="#BFD141"
  ></path>
  <path
    d="M12.351 18.722a7.983 7.983 0 100-15.966 7.983 7.983 0 000 15.966z"
    fill="#6DB64C"
  ></path>
  <path
    d="M11.077 16.2a6.709 6.709 0 100-13.418 6.709 6.709 0 000 13.417z"
    fill="#AFDBE7"
  ></path>
  <path
    d="M12.169 13.99a5.617 5.617 0 100-11.234 5.617 5.617 0 000 11.233z"
    fill="#57BADF"
  ></path>
  <path
    d="M12.871 14.015a4.94 4.94 0 100-9.88 4.94 4.94 0 000 9.88z"
    fill="#02B2D6"
  ></path>
  <path
    d="M12.143 13.99a4.212 4.212 0 100-8.426 4.212 4.212 0 000 8.425z"
    fill="url(#paint0_radial)"
  ></path>
  <path
    d="M12.143 13.99a4.212 4.212 0 100-8.426 4.212 4.212 0 000 8.425z"
    fill="#231F20"
  ></path>
  <path
    d="M13.25 9.225c.417.187.993-.19 1.286-.842.293-.653.191-1.334-.226-1.521-.418-.188-.994.19-1.287.842-.293.653-.191 1.333.226 1.52z"
    fill="#fff"
  ></path>
  <defs>
    <radialGradient
      id="paint0_radial"
      cx="0"
      cy="0"
      r="1"
      gradientUnits="userSpaceOnUse"
      gradientTransform="translate(12.155 9.777) scale(4.22236)"
    >
      <stop stop-color="#797979"></stop>
      <stop offset="1" stop-color="#4C4C4C"></stop>
    </radialGradient>
  </defs>
</svg>
