<svg viewBox="0 0 24 24" xmlns="http://www.w3.org/2000/svg">
  <path
    fill-rule="evenodd"
    clip-rule="evenodd"
    d="M18.232 9.674c-.255-.004-.413-.294-.277-.684a.991.991 0 01.136-.175c.006.005-.101.223-.05.216.004 0 .072-.184.113-.237.034-.043.252-.433.217-.46-.012-.009-.012.225-.01.224.03-.02.17-.318.16-.387-.004-.03 0-.105.011-.12.003-.003-.009-.05-.007-.051.01-.001.014.204.015.207.02.156.012.392-.085.456-.04.027-.087.147-.09.117-.004-.026.06-.002.076-.023a1.81 1.81 0 01.116-.12c.014-.002-.01.027-.008.04.012.092-.232.35-.223.409.001.011.197-.106.197-.104.008.053-.062.156-.093.195-.017.022-.04.098-.043.071 0-.003.074-.005.078-.01.006-.007.08-.078.097-.065.038.028.001.18-.024.212-.015.02-.051.02-.062.035-.004.004-.01.02-.011.014-.004-.027.226-.05.151.046-.075.098-.246.147-.384.194z"
    fill="#5A8CE6"
  ></path>
  <path
    fill-rule="evenodd"
    clip-rule="evenodd"
    d="M18.145 9.588c-.012-.002-.04.005-.037-.007.002-.013.047.015.037.007-.008-.008-.048-.008-.056-.015-.017-.014-.03-.036-.05-.053-.01-.008.003-.043-.003-.055-.037-.062-.117-.24-.056-.309.014-.015.002-.083.014-.083.009 0 .035.083.043.09l.027-.002c.012-.013.01-.06.024-.075.046-.052.07-.137.12-.19.056-.064.056-.141.1-.19.004-.005-.008-.018-.001-.019a.469.469 0 01-.024.075c-.02.045-.073.181-.072.207.001.01-.009.026-.007.028.02.017.094-.107.114-.108.002 0-.038.067-.042.076-.01.022-.113.274-.085.299.005.004.133-.12.134-.109 0 .02-.095.22-.07.243.009.008.175-.107.19-.094.01.01-.11.12-.095.134.021.019.078-.01.103.013.057.05-.167.147-.214.15-.016 0-.08-.011-.094-.013z"
    fill="#C8DCEB"
  ></path>
  <path
    fill-rule="evenodd"
    clip-rule="evenodd"
    d="M5.09 10.104a.462.462 0 00-.198.04c-.123.061-.287.032-.409.092-.118.058-.178.138-.273.202l.033-.099c-.012.015-.024.03-.038.044-.014.013-.02.035-.022.062a.637.637 0 000 .086c.002.03.004.062.003.087a.097.097 0 01-.014.044c.207-.097.482-.202.571-.114.074.073.108.162.186.239.012.012.04.018.067.025.016 0 .03-.003.041-.008.007-.003.023 0 .028-.004.017-.017.023-.032.042-.05a.132.132 0 00.028-.074.154.154 0 00-.033-.083c-.006-.005-.041-.03-.041-.036 0-.028.094.039.097.04.006.007-.002.026.005.033.009.008-.002.024.005.037.021.042-.017.112-.038.133-.026.025.032.01.042 0 .01-.01.019-.029.028-.038v-.013c.008 0 .008.07 0 .078a.174.174 0 01-.09.056c.095.07.231.128.301.197.02.02.136-.006.149-.018.088-.087.152-.242.26-.349.034-.033-.027-.192-.037-.202-.041-.04-.033-.143-.093-.202-.107-.106-.379-.207-.6-.205z"
    fill="#E6B35A"
  ></path>
  <path
    fill-rule="evenodd"
    clip-rule="evenodd"
    d="M4.29 9.934a.029.029 0 00-.014.008c-.002.002-.011-.002-.014 0-.014.014-.038.02-.056.036-.047.047-.088.095-.136.143-.229.082-.442.151-.7.181a.78.78 0 01.06.008c-.042.004-.108.002-.129.012a.325.325 0 01-.043.013l.052.001c.033 0 .067.01.098.01l.153-.003a.73.73 0 01.224.116c.032.026-.007.208-.014.24-.035.151.093.583.012.68-.035.043.02.166.033.251.042.031.08.134.09.157.012.022.04.048.04.072 0 .003-.053-.053-.059-.059-.008-.008-.049-.06-.078-.088a.633.633 0 00-.006.081c.017.018.036.036.045.053a.35.35 0 00.059.09c.02.02-.041-.013-.053-.019-.007-.003-.028-.02-.051-.037.001.187.02.45.028.528.016.162-.007.317-.007.314 0-.005-.08.095-.133.16-.08.095-.174.245-.272.367a.571.571 0 01.148-.115c.12-.053.414-.28.589-.4.038.027.12-.095.24.024a.531.531 0 01.056.165c-.085 0-.1.083-.055.129.023.023.046.012.064-.013.019-.052.037-.123.004-.155-.005-.006.005-.027 0-.033-.03-.029-.017-.088-.053-.123-.012-.012-.064-.04-.077-.068l-.004-.003c-.01-.01-.03-.008-.045-.012-.01-.015-.033-.042-.012-.096a.989.989 0 00.037-.372c-.004-.035 0-.108.009-.192a.768.768 0 01.051-.14c.014-.027-.002-.088.02-.109.01-.01.01-.035.008-.058l-.16.04.01-.008c.007-.008.032-.013.045-.02.044-.022.084-.045.11-.057a.023.023 0 01.004-.007c.04-.039.005-.158-.035-.242a.287.287 0 01.002-.062c.018-.121.017-.246.014-.37l-.022-.001c-.004 0-.082-.004-.101-.002l.035-.018a.544.544 0 01.087-.014l-.002-.066c-.061.005-.154.012-.144.002.015-.015.102-.014.125-.026a.221.221 0 01.018-.007 2.18 2.18 0 01.007-.221l.025-.015a.096.096 0 00.01-.044c-.002-.026-.006-.056-.011-.086a.648.648 0 01-.01-.087c0-.027.004-.049.016-.063.013-.015.023-.031.034-.047l.011-.05c.014-.06-.022-.146 0-.203.003-.009.032-.05.03-.058 0-.003-.003-.004-.007-.003-.024.003-.097.045-.146.073.011-.038-.025-.09-.055-.082zm-.052 1.785c-.005.005-.01.008-.01.004l.01-.004z"
    fill="#E6B35A"
  ></path>
  <path
    fill-rule="evenodd"
    clip-rule="evenodd"
    d="M2.151 8.028a.543.543 0 00-.104.02c-.225.075-.433.168-.65.24-.082.026-.178.115-.241.146-.262.13-.496.269-.74.403-.034.008-.065.012-.077 0-.198-.195.19-.304.13-.422-.093-.182-.387.051-.428.092-.039.038-.037.125-.037.202 0 .014-.01.082 0 .091.043.043.041.115.093.166.09.089.256.082.37.038l.003.006c.05-.023.087-.04.091-.044.211-.172.401-.244.65-.368.066-.032.343-.205.41-.238.087-.043.22-.067.352-.092a.183.183 0 01.094-.047c.028-.065.055-.129.084-.193zm.354 1.975c-.128.133-.266.223-.365.247l.008.004c-.087.02-.168.044-.213.088-.008.008-.043-.006-.055 0-.228.113-.547.081-.705.238-.098.097.642-.091.65-.091a.818.818 0 00.259-.056c.027-.013.099 0 .13 0 .208 0 .325.07.52.166.06.03.077.094.112.128.068.067.15.131.204.238.016.032-.008.158.019.184.168.166-.15.954-.26 1.064-.13.128-.276.254-.39.367-.05.05-.132.057-.186.11-.027.027-.105.015-.149.037-.148.073-.293.071-.446.147a.669.669 0 01-.22.031l-.198-.042c-.06.038.047-.031-.022.01-.02.012-.045.042-.074.042-.013 0-.089-.033-.098-.024-.01.009-.036.013-.047.024l-.042.04c-.038.038.015.12.07.12.026 0 .03-.049.042-.06a.197.197 0 01.12-.041c.002 0-.004.007-.004.009v.046a.457.457 0 01-.01.1c-.006.013-.002.03-.008.042-.003.004-.01.014-.005.014.017 0 .014-.133.088-.133.048 0 .072.035.111.055.02.01.046.009.066.018.012.006.025.008.037.014l.023.014c0-.014-.08-.05-.105-.1.149-.032.312-.003.463-.032.248-.05.478-.102.711-.215.001.009.004.016.008.02.006.007.054-.019.06-.022a.418.418 0 01.247 0s.025 0 .048.002a.187.187 0 01-.034-.016c-.007-.006-.087-.02-.112-.046a.072.072 0 01-.016-.038c.455-.445.886-.765.74-1.484-.039-.193-.075-.403-.186-.568-.184-.273-.552-.218-.678-.323-.025-.005-.051-.009-.061-.022h-.004l.002-.003a.022.022 0 01-.002-.01c0-.086.248-.136-.043-.293zm.394 2.803c.02.007.043.013.05.007.004-.004-.023-.006-.05-.007z"
    fill="#E6B35A"
  ></path>
  <path
    fill-rule="evenodd"
    clip-rule="evenodd"
    d="M2.156 8.112c-.03-.002-.105.043-.134.043-.102 0-.741.318-.8.376-.033.032-.046.162-.066.182-.058.056-.09.203-.128.34-.025.062-.042.132-.07.16-.009.009-.004.037-.012.045-.025.024-.068.04-.086.058-.006.006-.056.011-.072.02a.442.442 0 01-.042.017.228.228 0 01.049.008c.01.006.03.005.039.013.012.012.03.052.046.052.125 0-.043-.07.066-.077.042.043.172.305.203.433v.004c.003.014.004.03.006.046 0 .029.003.056.006.08.015.321-.037.858-.037 1.046 0 .126-.018.55.02.623.016.034-.007.086-.02.11-.065.13.056.7-.03.818.016.023.029.05.049.07.008.008.076.258.113.393.16-.002.323.001.412-.043.094-.046.205-.075.289-.117a1.51 1.51 0 01.142-.061c-.06-.01-.198-.056-.208-.056a.28.28 0 01-.09-.018l.01-.002a.434.434 0 01-.167-.406c-.054-.299-.015-.766-.015-1.03 0-.281.033-.575.037-.871-.023.006-.045.011-.05.005-.014-.013-.02-.125-.029-.193-.01-.022-.016-.038-.018-.04a.352.352 0 01-.059-.091c-.001-.003-.025-.039-.02-.039.013 0 .056.061.066.071a.02.02 0 00.008.005h.001c.013.002.023.003.024.002.018-.018-.013-.06-.013-.065 0-.015.002-.035.004-.057.02.016.037.023.048.012.05-.049-.04-.266-.065-.292-.004-.004 0-.033 0-.04 0-.019-.005-.04-.01-.062 0-.039.003-.076.008-.107.01.011.021.024.028.027.03.015.044-.048.053-.065.023-.047-.013-.142-.06-.232a9.812 9.812 0 00-.037-.534c.006-.03.013-.06.03-.077.02-.018.053 0 .08 0-.047.03.035.133.105.065.11-.11.183-.298.289-.402.01-.011.13-.132.118-.143a.016.016 0 00-.01-.004zM2.1 12.75c.016.002.028.002.028-.004 0-.005-.011-.002-.028.004zM.746 9.353c-.002 0-.004 0-.004.002l.004-.002z"
    fill="#E6B35A"
  ></path>
  <path
    fill-rule="evenodd"
    clip-rule="evenodd"
    d="M.614 11.728c-.01.002-.036.024-.043.027-.034.017-.08.027-.105.052-.028.028-.066.04-.098.071-.022.022-.037.05-.06.072-.008.008.027.077.033.09.014.026.013.058.027.085.012.024.018.115.033.13.013.013.006 0 .013-.007.003-.003.012.014.02.006.016-.016.053-.006.078-.019.045-.022.149.005.197-.02a.316.316 0 01.087-.024l.006.006v.002l.013.01a1.39 1.39 0 01.118.105c.046.045.119.365.13.376.047.046.05.197.093.238.024.024.035.054.055.074.026.025.071.034.093.055.028.027.174-.144.196-.165.009-.01.022-.042.027-.046.015-.008.039-.004.046-.018.002-.004-.001-.006-.007-.008l-.234-.24c-.044 0-.088-.198-.13-.239-.125-.123-.214-.226-.32-.334-.02-.034-.035-.07-.068-.103-.03-.03-.076-.06-.098-.104-.005-.01-.063-.07-.082-.066-.002 0-.003 0-.004.002l-.003.004a.14.14 0 00-.01-.011H.614z"
    fill="#E6B35A"
  ></path>
  <path
    fill-rule="evenodd"
    clip-rule="evenodd"
    d="M2.676 9.75c-.005.006-.019.022-.02.027l-.011.017.015-.017c.005-.005.012-.02.016-.027zm-.031.044c-.048.057-.075.136-.124.184-.038.038-.068.089-.046.11l.032-.022c-.009-.016.005-.035.014-.051.005-.01.018-.039.018-.028 0 .018.06.038.084.014.032-.031-.033-.073-.01-.119a.12.12 0 00.014-.045c0-.014.009-.029.018-.043zm-.296.378a.904.904 0 00-.194.059.736.736 0 00-.174.03c-.225.078-.433.175-.65.25-.082.029-.178.122-.241.155-.128.067-.25.136-.37.206a.109.109 0 00.002.098.15.15 0 00.052.062c.115-.066.234-.121.372-.192.065-.034.343-.218.409-.252.087-.045.221-.07.352-.096.04-.04.097-.057.162-.056.02 0 .041.002.063.005.016-.004.03-.006.035 0l.009.008a.83.83 0 01.089.024c.067.006.146.003.19.05.077.079.25.137.342.232.058.06.055.183.092.26a1.752 1.752 0 01.063.303c-.012-.025-.034-.088-.046-.101l-.042-.043c-.008-.008-.022-.005-.032-.008a.01.01 0 00-.002-.005c-.015-.016-.033-.008-.05-.017-.006-.003-.016 0-.022-.003-.067-.034-.128.073-.128.133 0 .035.056.106.1.117.01-.01.047-.007.06-.013.017-.008.04-.028.052-.028.002 0-.025.02-.042.037-.008.008-.025.018-.04.03.002.01.005.02.01.026.003.002-.001.012 0 .014.012.012.016.03.017.05.023-.002.049-.006.064-.006.024 0 .05-.014.05-.009 0 .007-.06.016-.07.019l-.045.014-.006.056h-.002c-.004.06-.014.119-.028.176v.021l-.026.064c-.13.39-.461.69-.65.737l.008.004c-.086.022-.168.046-.212.092-.009.01-.044-.006-.055 0-.229.12-.548.087-.706.252-.098.101.642-.097.65-.097a.786.786 0 00.26-.058c.027-.015.098 0 .13 0a.73.73 0 01.331.078.136.136 0 01.055-.025c.018 0 .17-.043.233-.052-.02-.007-.043-.022-.046-.04-.079-.018-.145-.038-.183-.077l-.002-.003a.088.088 0 01-.016-.013c-.002-.002-.039.002-.039 0 0-.01.193-.16.223-.191.048-.05.096-.059.145-.11.082-.085.207-.201.289-.287.002.003.172-.137.183-.15.033-.033.067-.058.1-.083h.001a.407.407 0 01.07-.122.164.164 0 00.028-.046l-.002-.022c0-.113.004-.22.008-.326a1.92 1.92 0 00.006-.313c.002-.065.013-.358 0-.372-.02-.02-.046-.034-.066-.054-.007-.007-.018-.01-.031-.011-.023.006-.045.012-.048.015-.017.017-.045.025-.066.045-.015.015-.03.044-.052.065-.02.02-.033.04-.053.059 0 0-.02.033-.02.025 0-.002.018-.023.02-.025.015-.015.013-.052.027-.065.04-.04.1-.081.123-.145a.365.365 0 00-.108-.068c0 .007 0 .014-.002.018a.893.893 0 01-.079.13.088.088 0 00-.012.029l-.001.01c0 .002-.003.006-.006.009-.002.006-.004.01-.007.01-.005 0 .002-.005.007-.01a.246.246 0 00.007-.019c0-.018.004-.048.019-.062.004-.004-.003-.02 0-.025.009-.019.033-.09.026-.104l-.003-.008v-.001c-.153-.063-.367-.123-.463-.173-.041-.021-.093-.015-.119-.041-.051-.054-.213.031-.277-.05z"
    fill="#E6B35A"
  ></path>
  <path
    fill-rule="evenodd"
    clip-rule="evenodd"
    d="M6.27 10.147c.048.08.222.137.215.194-.126.092-.304.14-.365.302a1.853 1.853 0 00-.143.231.653.653 0 01-.044.05c-.012.011-.025.039-.032.054a.237.237 0 01-.037.046c-.023.023-.046.087-.07.11l-.003.006-.071.031c-.023.011-.048.003-.07.014h-.008c.01.005.102.027.11.027a.237.237 0 01.097.029l.029.014a2.005 2.005 0 01-.076-.015l-.003.014c.015.015.037.028.05.041.002.001.02.002.02.004 0 .006-.013 0-.02 0a.69.69 0 01-.056-.005.517.517 0 000 .114l-.005.354c-.006.023-.003.05 0 .076V11.89a.08.08 0 01-.008.02c-.004.01.004.024 0 .032l-.051.106c-.006.012-.036.075-.019.092.008.008.017.025.024.032.005.005.024.005.032.005.01 0 .02-.003.03-.006.003.057.007.113.013.17.073.139.213.233.325.338.133.122.299.199.431.32.083.096.18.333.322.18.203-.149.432-.264.603-.457.098-.013.174-.13.262-.188.061-.085-.03-.205.031-.295.035-.101.003-.217.012-.324-.005-.308-.008-.617-.022-.925.085.03.088.06.062.14.005.174.222.182.235.004.02-.143-.107-.21-.188-.294a1.782 1.782 0 00-.356-.193c-.102-.043-.221-.057-.304-.141a2.495 2.495 0 00-.349-.123 1.367 1.367 0 00-.314-.146c-.093-.04-.192-.061-.288-.089zm.558.406c.09.037.175.102.264.145.09.077.25.08.278.216a.91.91 0 01.025.08.628.628 0 01-.008.008c-.017.018.026.065.026.091 0 .027-.026.032-.04.046-.017.018-.005.232-.025.272-.01.019-.001.085-.014.098-.036.036-.016.298-.052.37-.019.036.006.112.006.148v.065c0 .008-.007.019-.006.02.011.01.048.002.059.013.034.033-.057.073-.053.078.002 0 .06.035.06.039 0 .003-.061.014-.066.019-.01.01-.025.312-.013.324a.09.09 0 00.061.023c-.135.082-.265.18-.41.24-.001 0-.002 0-.003.002-.028.018-.068.029-.092.04-.014.008-.053.038-.061.038-.002 0 .022-.012.033-.023.006-.006.04-.032.064-.058a1.072 1.072 0 01-.01-.057c-.035.003-.082.022-.082.014 0-.008.048-.039.074-.057a.468.468 0 00-.035-.123c-.013.006-.027.012-.04.024a.355.355 0 01.029-.032l.005-.005a.175.175 0 00-.078-.074 1.134 1.134 0 00-.39-.154c-.163.018-.217-.148-.188-.29.024-.192.03-.385.024-.578.006-.07-.006-.144-.004-.215.005.003.018.005.023.009l.009.014s.041-.069.046-.074c.064-.063.078-.159.14-.22.011-.01.012-.03.023-.041.018-.018.07-.06.07-.078 0-.015-.03-.057-.049-.079l.014-.022h.002c.021 0 .038 0 .056.009.007.003.076-.11.092-.133l.047-.064c.055-.023.113-.04.165-.063l.024-.005zm-1.214.624c-.004 0-.008 0-.01.003-.005.005.026.002.036.005-.008-.002-.018-.008-.026-.008zm1.154 1.472c-.002.002-.01.017-.013.017l.013-.018z"
    fill="#E6B35A"
  ></path>
  <path
    fill-rule="evenodd"
    clip-rule="evenodd"
    d="M8.236 9.909a.08.08 0 01-.011.012c.003.004.006.009.009.011.006.006.026.02.026.033 0 .007.061.099.072.11.056.055.101.18.106.288a.624.624 0 00-.03-.024l-.003-.005c-.084-.083-.171-.188-.256-.272-.015-.015-.04-.027-.06-.045a.833.833 0 00-.078-.059c-.016.015.04.03.04.052 0 .01.127.185.124.188-.008.008-.019-.005-.02-.006 0-.001-.012-.002-.029-.002h-.024c-.009-.002-.017-.005-.026-.005-.027 0-.054.005-.083.008l-.025.001.01.002a.432.432 0 01-.046.002l-.01.001h.003l.009-.003c-.018 0-.034.002-.035.002-.002.002-.003.004-.006.005a.195.195 0 00-.057.015.099.099 0 00-.022.006l-.04.02c0-.002.033-.01.07-.02a.443.443 0 00.12-.013c.039-.019.103.04.145.013a.044.044 0 00.01-.009.577.577 0 01.02.005.027.027 0 00-.004.01c0 .011.022 0 .033 0 .008 0 .025.01.032.008a.416.416 0 01.088.044l-.006.002h-.003a.671.671 0 00-.16.117c-.021.022-.019.074-.036.091-.031.031 0 .141 0 .162.007-.016.043-.08.047-.088.017-.034.072-.064.132-.078-.003.157.01.318-.003.472-.02.227-.019.467.01.691.006.053-.013.654.01.68a.832.832 0 01.082.117c.114.195.27.352.363.563l.074.17c.003.006.026.05.029.061.007-.012.05-.059.064-.104.035-.122.11-.206.176-.308.091-.139.224-.276.307-.371.018-.02.022-.047.028-.073.094.11.192.22.284.336v.001c.01.016.025.034.04.052l.002.002c.028.038.056.077.082.117.032.049.05.12.084.16.014.015.05.138.064.138.002 0 .109-.233.159-.31.065-.099.153-.182.213-.285.052-.09.09-.19.128-.256.03.014.068.01.094-.015.017-.017.018-.095.006-.117-.011-.024.006-.053-.006-.078-.023-.045.01-.11-.013-.155-.015-.029.013-.123-.007-.143-.025-.025-.009-.177-.028-.24l-.002-.058-.001-.007a2.492 2.492 0 00-.031-.291c-.011-.063.003-.13-.01-.191-.01-.042-.02-.571-.01-.606a.508.508 0 00.007-.028c.084-.072.192-.146.254-.177.014-.006.074-.027.074-.036 0-.01-.094.028-.167.028a7.358 7.358 0 00-.678.074c-.003.005.037.245.037.277 0 .087.042.309.074.382.028.064.025.19.047.266.002.008 0 .023-.002.038a.333.333 0 01-.07.115c-.002.002.025.024.027.026.018.018.018.075.033.104.013.025-.005.08.013.097.01.01.003.126.02.143.02.02-.02.221 0 .259.007.016.041.004.052.026.007.014-.015.024-.007.032h-.02c-.001.002-.032.014-.026.02.013.012.132.07.132.078 0 .009-.113.002-.125.026a.284.284 0 00.02.084c.01.01.035.01.064.016-.009.017-.006.078-.012.094a.953.953 0 00-.02.067c-.023.015-.047.03-.07.038-.052.014-.125.022-.158.06-.005.005-.09-.052-.105-.06-.102-.058-.216-.092-.314-.147l-.005-.003a4.52 4.52 0 01-.041-.351c.006-.038.012-.075.02-.112a.441.441 0 01-.023.001l-.053-.005c-.002.002-.003.002-.003 0h.003c.002 0 .004-.003.006-.004.015-.007.035-.006.05-.013.007-.003.017-.002.025-.003l.004-.02c.007-.032.007-.066.008-.099a.153.153 0 01-.007-.03.416.416 0 00-.052.014c-.006.002-.015 0-.023 0-.006.004-.014.01-.014.005 0-.006.006-.007.014-.006l.004-.004a.169.169 0 01.068-.025.852.852 0 01.015-.19h-.008l.009-.007.007-.05c-.028.003-.063.002-.086.002l-.005-.002a.042.042 0 01.005-.003c.012-.006.03-.003.042-.009a.252.252 0 01.047-.011.55.55 0 00.004-.051c-.024.002-.05.006-.073.01-.02.008-.041.013-.039.01a.126.126 0 01.039-.01l.008-.003c.02-.01.051-.017.07-.03.006-.012.012-.024.005-.039-.043-.083.032-.22-.01-.302a2.038 2.038 0 01-.046-.359c0-.054-.042-.234-.037-.238.016-.016.186-.13.269-.182.007-.016.012-.032.009-.035-.003-.004-.007-.005-.013-.004-.017 0-.042.015-.052.015-.112 0-.228.01-.344.01-.013 0-.075-.01-.083 0l.001.015c-.128-.03-.2-.001-.215.035-.01.022.037.306.047.34.014.048-.014.112 0 .16.011.04.002.112.018.149.048.11-.03.32 0 .459.02.09-.006.167.019.252l.002.009c.006.068.011.167.011.198v.052c0 .007-.011.008-.007.013.015.015.039.02.056.032l.008.028c-.015.02-.054.04-.05.044.012.012.037.013.057.017l.002.016c-.025.008-.066.02-.066.032 0 .018.018.164.013.168a.489.489 0 00-.02.091c0 .018.035 0 .053 0l.032.002a.241.241 0 00-.038.032c-.079.09-.184.15-.282.226-.01.008-.05.047-.053.044a.538.538 0 00-.144-.112c-.019-.01-.028-.042-.046-.052-.078-.045-.141-.123-.213-.18a.139.139 0 01-.009-.018l.02-.005a.829.829 0 00.168-.027c.021-.021-.009-.1.007-.13.01-.021-.01-.057 0-.078.003-.006.008-.039 0-.039a.242.242 0 01-.072-.02c-.003-.002.08-.038.072-.038-.005 0-.009-.14.006-.156.013-.012-.015-.074-.02-.078-.016-.016.03-.054.034-.058.006-.007-.014-.084.006-.104.008-.008-.006-.078-.006-.097 0-.125-.02-.25-.02-.364V11c-.008-.025.006-.072.006-.088 0-.025-.003-.075.007-.085.003-.003.01-.004.016-.005.017.04.043.077.056.09.005.005.059.059.086.032.015-.015.032-.026.046-.039.01-.01.015-.047.026-.058.004-.004 0-.033 0-.04 0-.108-.012-.25-.079-.317 0 0-.002 0-.002-.002l-.001-.001c-.033-.054-.085-.098-.113-.144a.082.082 0 00-.008-.011c-.001.006-.003.013 0 .015.054.054.135.257.091.344-.027.054-.002.065-.066.065-.007 0-.016.01-.026 0-.039-.038-.056-.097-.081-.153l.002-.003c.015-.014.011-.095 0-.116-.023-.047.012-.095-.013-.143-.05-.098-.088-.23-.17-.311-.038-.038-.082-.086-.132-.11a.674.674 0 00-.024-.011zm-.302.287l.032-.002h-.014a.067.067 0 00-.018.002zM9.44 11.44h.002c-.002.002-.003.004-.003.002v-.002zm-.614 1.803v0z"
    fill="#E6B35A"
  ></path>
  <path
    fill-rule="evenodd"
    clip-rule="evenodd"
    d="M11.635 10.154c-.205.061-.68.654-.824 1.075-.017.05-.117.27-.043.327.063.047.131.15.205.205.06.044.14.055.23.047-.005-.048-.011-.105 0-.105.006 0 .022.053.039.1.01 0 .021-.002.032-.004-.01-.027-.017-.053-.006-.063.003-.004.022.025.04.055.088-.017.177-.044.263-.07-.002-.038-.005-.076.012-.076.01 0 .014.047.018.068l.036-.01.012-.078c.004 0-.002.01 0 .013.007.014.01.036.012.058.132-.037.245-.057.305-.012.055.04.09.152.115.188.12.172-.153.942-.237 1.052-.025.033-.169.276-.203.33.024-.012.075-.008.099-.024.11-.075.23-.199.31-.304.211-.275.344-.598.46-.938.033-.093.015-.204.047-.298.018-.052-.024-.173-.032-.229-.085-.608-.857-.051-1.028-.18-.242-.18-.101-.59-.025-.813.04-.115.065-.152.163-.314zm.006 3.1c-.01.004-.015.01-.014.02l.014-.02z"
    fill="#E6B35A"
  ></path>
  <path
    fill-rule="evenodd"
    clip-rule="evenodd"
    d="M11.073 12.376l-.006.002c-.075.036-.136.13-.21.165-.03.015.08.006.104.014.035.012.205.103.224.141.016.034.07.061.088.095l.07.142c.02.04.071.15.08.212.003.023.001.052.009.067a.014.014 0 00.006.006c-.034.069-.078.178.074.158.182-.025.258-.182.344-.295.011-.014-.012-.027-.014-.029a.06.06 0 01-.012-.014c.034-.013.077-.032.065-.057-.034-.068-.133-.147-.191-.205-.06-.06-.475-.438-.575-.39-.013.006-.04-.012-.056-.012z"
    fill="#E6B35A"
  ></path>
  <path
    fill-rule="evenodd"
    clip-rule="evenodd"
    d="M11.055 12.333c-.005 0-.01.002-.012.006-.043.055-.199.116-.302.175l-.004.003c-.09.041-.186.126-.195.26-.002.027.033.05.037.061.023.054.063.083.114.087.2.014.237-.289.107-.376.038-.013.076-.019.095-.004.002.001.03.031.043.015.028-.037.266-.084.279-.1.008-.011-.104-.112-.12-.118-.004 0-.026-.01-.042-.009z"
    fill="#E6B35A"
  ></path>
  <path
    fill-rule="evenodd"
    clip-rule="evenodd"
    d="M11.632 10.175c-.05-.004-.197.21-.224.254l-.018.132c-.045.024-.084.013-.125.013-.005 0 .066.053.074.06a.311.311 0 00.076.05.104.104 0 01.03-.051c.007-.007.009-.04.02-.04.004 0-.033.059-.03.099.015.007.03.014.047.02.02-.02.04-.06.062-.06.008 0-.018.045-.02.078.027.01.053.02.076.032h.002a.022.022 0 00.003.005c.025.024.082.01.104.03.007.008.026.007.043.008a.1.1 0 01.008-.03c.01-.018.02-.04.02-.058l.002-.005c0-.004 0-.008.005-.008l-.005.008c.001.01.009.029.005.037a.16.16 0 00-.01.058.026.026 0 01.01.006c.007.007.027.003.035.01.006.006.014.01.025.012.013-.044.031-.105.045-.105.009 0-.007.056-.015.109.055.002.138-.013.215-.024.053.013.114.005.159.028.014.007.037-.007.05 0a.15.15 0 00.038.01c.076.04.144.082.202.138.004.005.057.082.066.077.037-.018.01-.106.01-.138 0-.03.005-.063-.014-.082a.129.129 0 00-.033-.021c.001-.014.002-.026.006-.034.008-.017.038-.117.037-.118-.006-.006-.02-.005-.025-.01-.033-.033-.09-.051-.14-.077-.035-.017-.106-.005-.13-.03-.005-.005-.022-.006-.041-.006a.23.23 0 00-.067-.02.465.465 0 01-.15-.046c-.014-.014-.083-.02-.088-.025-.005-.005-.008-.013-.012-.02a1 1 0 01-.266-.17c-.023-.022-.032-.072-.053-.091a.015.015 0 00-.009-.005z"
    fill="#E6B35A"
  ></path>
  <path
    fill-rule="evenodd"
    clip-rule="evenodd"
    d="M12.393 10.707c-.001.015-.019.045-.003.046.015 0-.001-.06.003-.046.013.049.004.072.011.101.005.019.039.03.044.049.003.011.038.016.044.026.02.03.096.075.104.107.002.008.01.026.013.02.012-.021.04-.248.043-.295.005-.08.104-.32.093-.36-.005-.019-.024-.036-.038-.058-.051-.077-.289-.092-.257.03.013.048 0 .116.04.176.031.048.13.017.115.007-.01-.005-.01.021-.007.032s-.035.06-.042.07c-.027.047-.044.105-.053.111-.012.008-.033.029-.021.035l-.09-.051z"
    fill="#E6B35A"
  ></path>
  <path
    fill-rule="evenodd"
    clip-rule="evenodd"
    d="M13.782 10.24c-.014 0-.07.06-.091.081-.1.098-.21.18-.31.276a.389.389 0 00-.153.065c-.027.026-.055.058-.084.087-.02.02-.04.136-.051.147-.018.018-.038.06-.06.082l-.042.04-.01.004c-.04.013-.087.039-.128.039l-.075.006c0 .003.031.005.036.007.014.007.07.002.11.009l-.137.134a.137.137 0 00-.017.036.171.171 0 01-.041.015s-.112.034-.115.036l-.007.001c-.015.006-.026.012-.04.019-.003.002-.012-.002-.012.003 0 .004.058.003.065.003.023 0 .05 0 .07.01a.475.475 0 00.055-.008.113.113 0 000 .05c.01.018.022.024.037.024a.085.085 0 00-.007.01v.005c.005.003.027 0 .032 0h.027c.002 0 .006-.002.006 0s-.008.002-.01.003c-.012.013-.03.025-.047.038.018.092-.007.194.011.286.038.188.062.497 0 .682-.008.023-.004.105-.021.122 0 0-.03.032-.021.04.018-.02.096-.058.12-.05-.015.01-.024.024-.015.04 0 .002-.002.008 0 .01.014.014.022.03.046.042.013.007.08.018.088.026.016.016.04.022.06.042.003.004.008.016.012.02.012.011.038.018.046.035.008.015.023.034.033.055.015.03.028.115.05.136.027.028.05.066.072.088.011.011.035.015.046.026.008.009.056.007.094.008.018.016.052.032.07.044.02.013.035.03.056.043.024.016.054.079.067.104l.062.078c.015.007.03.018.042.03.01.01.056.044.076.034.008-.004.024-.005.028-.01a.35.35 0 00.047-.063c.027-.024.074-.053.106-.074.103-.068.192-.163.289-.235.088-.065.187-.113.278-.173.078-.051.156-.149.227-.184l.017-.007a.138.138 0 01.016.017.75.75 0 01.035.226c0 .011.003.033-.003.039-.007.006.002.026-.004.032-.005.005.002.021-.003.026-.004.004 0 .062-.007.068-.008.008-.045-.088-.098-.035-.04.04-.043.126 0 .168.014.014.026.007.043.007.046 0 .068-.052.088-.072.006-.006-.002-.026.003-.032.007-.007-.006-.033 0-.039.012-.011.014-.052.014-.071 0-.025.006-.11.016-.13.003-.007.003-.014.003-.023.002 0 .01-.048.01-.055 0-.052.006-.108.007-.163.017-.032.008-.23.008-.251 0-.077.04-.236.01-.265-.066-.065-.657.006-.808.01l.012.01h.074l.028.004h.001c.044.033.193.095.218.12.04.04.07.082.105.117a.03.03 0 01.007.01l-.002.002a.699.699 0 00-.117.028c-.047.024-.124.034-.185.064-.04.02-.085.068-.124.103.028.073.09.182.093.182l-.066-.065c-.017-.017-.039-.062-.059-.071a.154.154 0 00-.022-.008.516.516 0 00-.051.033.376.376 0 01.008.014c.024.047.066.079.092.13.047.092.06.115-.013.006-.014-.02-.02-.033-.04-.052-.016-.016-.029-.035-.046-.052l-.028-.027a.455.455 0 00-.12.12.393.393 0 01-.061.091.396.396 0 00-.083.106.062.062 0 00-.006.028l-.011.011-.035-.026c-.001-.003-.002-.006 0-.011.012-.022-.004-.072-.018-.085-.002-.002-.01-.007-.011-.012-.014-.026-.06-.034-.077-.052-.003-.003.014-.022.016-.025a.07.07 0 01.007-.013c-.004 0-.028-.011-.03-.013-.004-.001-.01 0-.014-.002-.013-.004-.019-.015-.03-.021l-.056-.025a.664.664 0 01-.163-.106c-.006-.006-.022-.008-.027-.013a.145.145 0 00-.04-.016 1.348 1.348 0 01-.11-.095l.006-.016c.022-.044.064-.071.084-.11.009-.018-.04-.066-.056-.096-.006-.011 0-.042 0-.055 0-.03.014-.248.021-.29-.013-.001-.032-.023-.04-.031-.016-.015-.038-.023-.056-.041-.01-.01-.014-.033-.023-.05-.06-.118-.056-.274.01-.33l.006-.011c.016-.032.06-.047.082-.068.004-.005.018-.005.023-.01.009-.01.047-.003.046-.003-.035 0-.072-.049-.072-.085 0-.037.01-.058.032-.08.018 0 .035.002.04.008.002.001.024.023.028.019.006-.006.003-.026.01-.033.017-.017.037-.055.055-.072l.232-.23c.025-.024.18-.036.191-.046.021-.021-.034-.127.004-.165.042-.041.128-.081.186-.138l.004-.003a.353.353 0 01.051.04c.111.11.37.181.495.305.022.021.078.016.103.041.011.011-.05.1-.062.123a2.384 2.384 0 00-.008.209H14.5c-.007.03-.014.063-.008.074.014.029.013.064.013.098-.007-.01-.014-.022-.014-.033a.383.383 0 00-.03-.136c-.016 0-.031 0-.04-.002a.403.403 0 00-.062-.009c-.005.014-.002.132-.01.202.002.013.003.026-.002.036 0 0-.014.022-.006.006a.151.151 0 00.009-.043c-.003-.02-.01-.041-.01-.054a.424.424 0 00-.035-.15 1.081 1.081 0 00-.242.003c-.044.021-.071.062-.112.082-.017.009-.073-.009-.096-.009-.057 0-.266.033-.336.07-.056-.01-.118.03-.162.04a.283.283 0 00-.101-.025.111.111 0 00-.045.01c-.026.001-.049.005-.059.015l-.03.022a.039.039 0 00-.006.013l.002.002a.157.157 0 00-.048.064.282.282 0 00-.01.092c0 .056.046.095.075.138a.257.257 0 00.102.095c.03.016.097-.006.12-.018.029-.014.061-.025.093-.04.042-.022.055-.067.067-.108.015-.022.024-.07.027-.072l.02-.026c.042-.005.077-.007.09-.008-.015.047-.04.095-.037.098.006.006.06-.036.065-.04.02-.02.093-.035.13-.055a.062.062 0 00.016-.005c.012-.005.03-.003.043-.003h.023l.072.019c.02.008.039.02.064.032.12-.011.237-.024.33-.024.134 0 .257-.031.393-.031h.175c.011 0 .031.021.031.01v-.347c-.01-.01-.02-.02-.024-.022-.014-.007-.01-.004-.01-.023 0-.037.015-.06.034-.08v-.015a.048.048 0 01.009-.005c.008-.005.024-.005.03-.01.002-.003-.017-.021-.017-.026 0-.008-.01-.02-.013-.023a1.877 1.877 0 01-.02-.104c.015-.029.02-.117.04-.136.01-.011.015-.038.026-.049.015-.015.027-.033.042-.048l.013-.01c0-.006-.05.026-.056.03a.248.248 0 00-.075.06.095.095 0 00-.025.015c-.001.001-.03.039-.032.037-.003-.002.01-.062 0-.073-.04-.04-.096-.037-.159-.037-.004 0 .007-.03.01-.067l-.031-.014c-.142-.07-.28-.146-.433-.184-.093-.023-.191-.101-.269-.152-.066-.044-.164-.04-.216-.092h-.001zm-.197 2.554h0zm.92-1.335a.14.14 0 01.006.01v.006c.004.008.006.014 0 .014v-.014a.07.07 0 01-.005-.016zm-1.197.066c.084-.003.122.162.077.206-.014.014-.079.071-.102.06-.015-.008-.037-.011-.05-.024-.037-.036-.087-.099-.056-.16.03-.06.063-.07.092-.068a.083.083 0 01.039-.014z"
    fill="#E6B35A"
  ></path>
  <path
    fill-rule="evenodd"
    clip-rule="evenodd"
    d="M16.05 9.914a.986.986 0 00-.185.073c-.114.113-.533.255-.796.299h-.003c-.015-.015-.073.014-.102 0-.014-.008-.029-.003-.042-.01-.045-.021-.105-.034-.14-.068-.01-.01-.033-.006-.046-.019-.019-.018-.008-.053-.023-.068-.018-.017-.04-.032-.06-.05-.01-.01-.042-.024-.052-.005-.02.04.045.08.07.105.027.027.064.05.103.07.022.01.047.029.06.04a.029.029 0 00.012.007c.039.042.48.066.498.085.008.008 0 .062 0 .073 0 .05-.035.365-.055.404-.064.127.044 1.284.074 1.431.022.108.024.23.004.347v.001a.47.47 0 01-.2.248c-.038.02-.067.058-.079.07.025-.006.126-.011.139-.011h.02a.476.476 0 01-.051.06.952.952 0 00-.106.128l-.029.029c-.015.015-.016.034-.028.045-.002.002.001.01 0 .013v.001a1.106 1.106 0 00-.023.041.146.146 0 00.013-.014c-.01.026-.016.055-.03.083-.01.018-.004.045-.01.064-.017.05-.015.103-.015.157 0 .009.005.035.01.04l.003.003c-.007-.016.006-.121.006-.14 0-.023.03-.112.046-.129.013-.012.004-.044.02-.059.012-.013.012-.035.027-.05.044-.043.078-.107.16-.118a1.31 1.31 0 01.235-.15l.113.002c.072 0 .16-.014.23 0a.711.711 0 00.131.013c.014 0 .194.01.255.016a.369.369 0 01-.032-.01.653.653 0 00-.157-.051 2.098 2.098 0 01-.244-.07.207.207 0 00.057-.004.397.397 0 00-.095-.01.794.794 0 01-.066-.027l-.032-.018a.4.4 0 00.025-.023c.127-.125.1-.667.297-.862.042-.04-.048-.159-.055-.165-.003-.003-.005-.01-.005-.02-.052-.05-.204-.16-.204-.164 0-.003.027.02.053.033.051.025.112.053.144.084l.008.001.004-.045c0-.073-.002-.161 0-.252l-.097.004c-.033 0-.066.007-.066.007 0-.01.04-.01.046-.013a.459.459 0 01.12-.043v-.04l-.002-.002c-.023-.01-.037-.019-.065-.019-.038 0 .02-.018.07-.032.007-.104.022-.206.05-.288.018-.055-.015-.127 0-.184.043-.173 0-.356.036-.531.014-.07.038-.151.038-.221 0-.031.04-.07.018-.092zm.154 3.057l.021.004c0-.001-.01-.003-.021-.004zm-1.117-.024l-.005.002.005-.002zm-.105.64v.001c.002 0 0 0 0-.001z"
    fill="#E6B35A"
  ></path>
  <path
    fill-rule="evenodd"
    clip-rule="evenodd"
    d="M16.533 10.1c-.276.005-.554.084-.659.24v.016l.083.017c-.027-.005-.061.002-.084-.011-.004.11-.02.256-.008.268.02.02.041-.018.056-.018.049 0 .134-.039.185-.055.085-.028.428-.02.497.033a.157.157 0 01.06-.07c.01-.004.028-.018.041-.022l.01-.005c.003 0 0 .004-.004.004l-.006.001c-.024.02-.071.084-.064.091.003.002.04-.01.051-.01l.012.001c.01-.002.018-.003.021 0h.018c.02 0 .035.002.046.012v.001h.01c.006 0 .015.003.025.007.01 0 .02.001.026.007.004.004.01.005.014.009l-.003.005c.002.002.011.018.008.018-.006 0-.018-.008-.02-.01-.017-.017-.105.014-.11.02a.09.09 0 00-.007.007c.004.008.004.022.011.029l.003.002c-.023.007-.041.02-.049.035-.006.012-.01.077 0 .087l.085.018c-.002.006-.003.011-.006.014-.003.003-.02.036-.014.042.015.014.023.032.042.05.026.025.098.023.143.022 0 .02-.117.01-.12.01-.006 0-.055-.012-.051-.005.015.03.04.049.07.066.026 0 .05-.002.06.007.023.024.063.019.111.019.199 0 .274-.12.353-.276.035-.07-.015-.176-.037-.22-.059-.116-.099-.207-.186-.293-.114-.112-.362-.168-.613-.163zm-.66.262v-.006l-.008-.001.008.007zm-.008-.007l.01-.015c.001-.07-.005-.12-.03-.096-.013.014.02.019.02.038 0 .024-.018.055 0 .073z"
    fill="#E6B35A"
  ></path>
  <path
    fill-rule="evenodd"
    clip-rule="evenodd"
    d="M18.224 9.802a.612.612 0 00-.16.103c-.044.056-.156.109-.186.194-.17.487-.288.802-.74 1.105-.07.046-.176.01-.247.044.067.008.314.035.356-.02.03-.038.17-.128.281-.198a.172.172 0 00.046.169c.004.004.023-.005.027 0a.04.04 0 00.023.011c-.01.05-.018.095-.023.113-.14.422.165.09.101.271-.017.05.012.112-.005.159-.067.211-.011.442-.006.682-.038.049-.05.413-.08.452-.014.018-.041.038-.058.06a.426.426 0 01-.144.11c-.042.02-.302.344-.356.413-.012.015-.074.094-.066.1.012.01.125-.113.153-.137.051-.044.153-.099.242-.155a.14.14 0 00.06-.03c.007-.01.036-.004.044-.014.017-.023.062-.028.078-.048a.302.302 0 00.061-.12l.022-.012c.023-.037.074-.08.084-.093.013-.017.065-.022.078-.038.025-.032.095-.047.122-.08.001-.003.065-.024.146-.047.024.004.051-.004.082-.023l.059-.016c.019.002.037.006.047.005.01-.001.154.023.154.027 0 .003-.03-.03-.032-.034-.025-.037-.062-.075-.09-.117-.018-.026-.04-.05-.058-.076-.008-.012-.01-.028-.014-.043l.02-.167.004-.04c-.082 0-.22.002-.22-.012 0-.006.012 0 .018 0 .026 0 .127-.004.204-.011.008-.08.008-.136.007-.186-.096 0-.239 0-.239-.015 0-.008.14-.005.24-.005l-.002-.074a6.408 6.408 0 00-.173-.003c-.065 0 .073-.03.176-.05 0-.015.003-.03.005-.049.005-.047-.01-.096-.006-.143.006-.097.034-.196.04-.293.01-.14-.002-.28.006-.422a.133.133 0 00.042 0c.011-.002.03.014.037.005.02-.026.046-.048.066-.074a1.492 1.492 0 00-.01-.22c-.032-.025-.082-.17-.06-.233.017-.047.036-.362.028-.42-.005-.037-.002-.134-.03-.154-.002-.003-.005-.004-.008-.005v-.001a.598.598 0 01-.002-.046.08.08 0 00-.017-.018c-.038-.029-.06-.06-.113-.078a.085.085 0 00-.014-.003z"
    fill="#E6B35A"
  ></path>
  <path
    fill-rule="evenodd"
    clip-rule="evenodd"
    d="M20.239 8.08a1.027 1.027 0 00-.284.057h-.002c-.163.02-.345.061-.465.136a.526.526 0 00-.192.11l-.005.004c-.015.01-.035.027-.065.047-.015.01-.02.03-.033.039-.158.104-.214.293-.256.46-.008.03.003.069-.007.098a.27.27 0 000 .136l.033.09c.014.043.022.076.04.11.002.006.032.04.026.04-.006 0 .025-.004.033 0 .007.004.02.006.026 0 .018-.018.002-.054-.007-.072-.01-.02-.051.008-.059 0-.005-.005-.085-.272-.052-.304.016-.017-.004-.069.013-.085.027-.027.043-.178.079-.214.04-.04.06-.086.098-.123.023-.023.045-.039.065-.054.004.018.005.039.02.054.042.04.149-.002.213-.033h.01a.217.217 0 01-.032.046c-.012.012-.017.068-.033.084-.007.007-.018.096-.04.117-.002.002-.006.023-.012.044a.84.84 0 00.083.066c.011 0 .022 0 .022.007 0 .005-.01.001-.022-.007-.01 0-.02.003-.024 0-.01-.004-.07-.023-.08-.013v.002c-.004.01-.015.06-.024.094a.477.477 0 00.07.054l.03.015c.013.003.023.007.023.01a.094.094 0 01-.023-.01c-.034-.009-.095-.02-.131-.052L19.208 9a.557.557 0 00-.01.23c.036.177-.03.378.027.546.029.086.043.182.065.272.038.15.111.29.158.428a.955.955 0 01.031.319.524.524 0 00-.105.137c-.003.005-.004.011-.006.017-.14 0-.281-.005-.421-.017l-.037.045c-.004 0-.007-.002-.01 0-.023.024-.021.153 0 .175.024.023.179-.01.214-.01.084 0 .183.003.27-.012a.313.313 0 00.092.131.39.39 0 01-.015.15c-.044.13-.021.283-.066.414-.035.104-.081.203-.118.312-.034.103-.067.242-.131.337-.072.107-.163.219-.223.337-.042.083-.133.144-.184.22-.08.118-.132.209-.223.3-.052.05-.206.25-.237.31-.022.044-.062.08-.065.125.036-.034.133-.102.157-.137.103-.153.23-.228.355-.35.042-.043.127-.061.17-.104.088-.087.197-.2.342-.247.082-.027.172-.04.25-.078.043-.022.223-.013.249-.039.01-.01-.037-.054-.088-.11a.16.16 0 00-.056.013.769.769 0 01-.119.039c-.015-.015.088-.06.144-.086a.38.38 0 01-.077-.118.649.649 0 00-.126.061c-.013.014-.033.024-.05.036-.01.011-.02.023-.029.023-.003 0 .005-.005.007-.007.006-.006.014-.011.021-.016l.012-.016c.035-.035.083-.05.118-.085l.042-.041a.06.06 0 01.017-.03c.042-.042.009-.177.053-.22.044-.045.047-.139.091-.182.122-.12.159-.313.25-.493.026-.051 0-.13.026-.182.017-.032.014-.074.014-.112.025-.012.058-.026.074-.042a.235.235 0 00.072-.165c.14-.01.329.01.43.01.022 0 .07-.005.123-.012.002.07.01.132.023.172.014.041.02.093.02.136 0 .022.01.046.013.058l.013-.077c0-.064.02-.144.02-.214 0-.028 0-.058.002-.088l-.01-.016c-.01-.02-.034-.03-.053-.04a.186.186 0 00.034-.005c.009-.009.022-.007.04-.007.007 0 .018-.008.02-.006.013.013.017.063.025.07.01.01.096-.03.112-.038.033-.016.168-.01.184-.026.01-.01-.031-.005-.033-.006-.016-.017-.06-.014-.085-.026a1.36 1.36 0 00-.145-.059c-.021 0-.05.043-.059.052-.001.002-.037-.007-.067-.013l.021-.02.026-.021h-.005a.586.586 0 00-.06-.31 1.75 1.75 0 00-.035.312c-.194.001-.392.01-.59.02a.472.472 0 00-.098-.134 2.254 2.254 0 00-.157-.482c-.027-.055-.025-.127-.053-.182-.145-.288-.374-.596-.197-.947.025-.048.017-.133.053-.169.075-.073.127-.173.25-.233.08-.04.165-.13.249-.13.05 0 .15-.042.21-.013.121.06.241.122.315.195.027.026.033.102.053.142.043.085-.026.364.026.467a.13.13 0 01.012.045l-.022.001a.426.426 0 01.056.045c.002.002.008 0 .013 0l-.006.005c-.018.004-.032.01-.033.015-.029-.029-.055-.04-.079-.04-.04 0-.077.031-.112.065-.047.048-.078.176-.078.253 0 .022 0 .163-.007.17-.01.01-.018.134-.033.148a.51.51 0 00-.04.085c0 .006.031-.045.073-.065a.337.337 0 00.081-.063c.022-.018.04-.037.044-.041.074-.073.198-.157.276-.234.048-.048.042-.11.072-.168.006-.012-.006-.034 0-.046.034-.067-.011-.095-.065-.1.05-.1.062-.249.084-.36a1.19 1.19 0 00-.052-.39c-.056-.167-.064-.392-.236-.505-.197-.13-.321-.18-.458-.179zm.504 3.363zm-2.528 2.324c-.008.008-.014.015-.014.018 0 .009.014-.004.014-.013v-.005zm1.526-2.981h.005a.77.77 0 00.112.069.42.42 0 01.084.068V11.066c0 .012.015.067.004.078a.714.714 0 01-.135.086c-.01.005-.113.068-.12.06a1.814 1.814 0 01-.088-.091c-.016-.017-.074-.068-.084-.078a1.349 1.349 0 01.005-.207c.04-.05.098-.06.134-.087a.403.403 0 01.083-.041z"
    fill="#E6B35A"
  ></path>
  <path
    fill-rule="evenodd"
    clip-rule="evenodd"
    d="M18.93 10.692c-.103.04-.163.14-.186.255a.158.158 0 00-.057.01c-.005.037-.01.06 0 .079.002.002.021 0 .046-.003 0 .021 0 .043.002.064a.167.167 0 00-.06.017c0 .027.003.068.019.068l.05-.015a.398.398 0 00.071.17c.019.024.077.105.11.08-.038-.06-.073-.104-.098-.176a.374.374 0 01-.01-.096l.041-.012c.017-.012.125.017.125-.01 0-.016.006-.06.006-.068 0-.013-.017.01-.026.01-.011 0-.065-.01-.072 0-.014.02-.045.027-.075.028 0-.024.003-.049.005-.073.05-.009.097-.018.11-.018.009 0 .052.01.058 0 .01-.015-.012-.001-.006-.021.003-.012.013-.02.013-.034 0-.011-.013.01-.02.01h-.098c-.016 0-.034-.004-.049-.007a.228.228 0 01.025-.078c.006-.01-.002-.03.005-.039.033-.049.045-.092.07-.141z"
    fill="#E6B35A"
  ></path>
  <path
    fill-rule="evenodd"
    clip-rule="evenodd"
    d="M19.573 11.025c.005-.025.051-.133.063-.131.013.002.035 0 .05-.002.028-.005.052-.019.082-.014.002 0 .101.136.102.137l-.035.07a.287.287 0 00-.023.085c0 .003-.04-.006-.045-.007-.041-.006-.075.018-.112.012-.001 0-.057-.116-.082-.15z"
    fill="#E6B35A"
  ></path>
  <path
    fill-rule="evenodd"
    clip-rule="evenodd"
    d="M21.344 8.997v.018c.002-.01.003-.018 0-.018zm0 .018l-.012.058a.072.072 0 01.012-.021c.002-.002 0-.021 0-.037zm-.012.058a.475.475 0 00-.026.144c0 .072-.128.495-.174.548l-.002-.016c-.009 0-.006.014-.006.025-.03.032-.064.078-.09.116-.05.048-.104.094-.163.152-.01.01-.042.014-.056.028-.013.013.058.187.065.193h.002c.076-.037.183-.102.183-.101.004.004-.041.05-.046.055-.028.028-.038.092-.066.119a.436.436 0 00.002.093c.073.167.177.37.262.523a.83.83 0 00.15.019.495.495 0 00-.033.026c-.006.006-.04.002-.046.009a.322.322 0 01-.03.022c.051.089.089.15.099.154.206.107-.206.363-.102.416.09.047.59.143.619.232.023.074-.79 1.1-.906 1.319-.048.09-.484.805-.462.874.001.004.138-.177.168-.206.182-.173.341-.257.525-.432.108-.103.272-.183.349-.218a.487.487 0 00-.172.163c-.057.108-.207.198-.299.285-.274.262-.448.624-.603.918-.018.035-.195.338-.066.405.332.171.6-.02.76-.428-.053.1-.15.114-.18.171-.057.108-.447.158-.424.016.083-.509 1.025-1.364 1.55-1.865.055-.053.363-.239.38-.272.008-.014.003-.036.002-.054a1.634 1.634 0 01-.285.143c-.072.022-.702.362-.71.335-.014-.042.05-.072.083-.103.218-.208.405-.637.686-.905.363-.346.66-1.078.932-1.552-.049-.012-.1-.02-.09-.031.008-.008.064-.01.12-.02l.041-.066-.042.002h-.058l.052-.013.057-.004c.024-.037.048-.072.071-.104-.046-.032-.112.01-.174.01h-.005c-.006.002-.009.003-.009 0s.005-.002.009 0c.016-.008.053-.032.09-.032.021 0 .078-.01.123-.021l.007-.008c.07-.036.199-.102.205-.107a1.06 1.06 0 00.111-.176c.01-.028.049-.052.066-.077.033-.05.073-.098.099-.15.021-.042.067-.21.085-.227a.443.443 0 00.04-.11c-.02-.02-.287-.046-.329-.026a.98.98 0 01-.138.046.248.248 0 00-.072.038c0 .004.032-.012.033-.013.013-.012.048-.002.059-.013.024-.023.2-.009.216.007.007.006.02.006.027.013.025.025-.012.08-.041.116-.038.002-.074.004-.1.012-.282.087-.662.075-.793.323-.163.308-.129.86-.219 1.029-.066.126-.213.05-.256.02.008.052-.072.263-.078.276-.039.072-.178.478-.197.484-.07.021-.514-.786-.641-.917-.045-.045-.01-.298-.064-.325-.088-.046.032-.434-.052-.407-.043.013-.11.027-.18.044a.337.337 0 00-.017-.046 1.066 1.066 0 01-.016-.106.21.21 0 01.026-.04c.004-.005.01-.008.015-.012 0 .004 0 .008.003.011.008.008.02.011.028.019.04.04.168-.048.176-.055.026-.026-.04-.104-.046-.11-.006-.007.006-.031 0-.037-.055-.055-.028-.182-.028-.275 0-.08.01-.147.01-.212 0-.02.002-.041.006-.061zm1.055 1.768c-.002-.01-.007-.014-.014-.012-.002 0 .005.006.014.012zm.109 1.665c.037-.024.05-.039.012-.027-.011.004-.013.014-.012.027zm-1.328 2.004c.023-.044-.158.036-.132.079.027.043.088-.053.132-.079zm1.992-4.203l.012.002h-.013c0-.002 0-.002.002-.002zm-1.79.662h.002c0 .001-.001.002-.003.002l.001-.002z"
    fill="#E6B35A"
  ></path>
</svg>
