<svg viewBox="0 0 24 24" xmlns="http://www.w3.org/2000/svg">
  <path
    d="M12.791.139c3.567 1.619 7.191 3.291 10.753 4.92.19.087.439.146.44.41 0 .263-.25.322-.44.41a7324.183 7324.183 0 01-10.73 4.902 1.92 1.92 0 01-1.65-.003A9971.316 9971.316 0 01.413 5.864c-.185-.084-.417-.148-.41-.405.007-.24.23-.303.407-.384C4.008 3.43 7.642 1.76 11.244.123c.381-.172 1.15-.16 1.547.016zM11.99 24c-.26 0-.454-.096-.825-.232-3.58-1.625-7.155-3.26-10.73-4.895-.19-.087-.436-.148-.434-.413.002-.264.249-.322.439-.41.593-.277 1.189-.546 1.785-.817a2.052 2.052 0 011.783.008c2.37 1.087 4.743 2.17 7.114 3.254.588.27 1.172.264 1.76-.006 2.377-1.09 4.756-2.177 7.135-3.264a1.985 1.985 0 011.695-.013c.635.281 1.265.573 1.895.863.094.043.189.091.267.156.168.139.17.327-.001.462-.105.082-.23.142-.352.198-3.547 1.622-7.093 3.244-10.644 4.856-.276.125-.628.253-.887.253zm-.013-6.498c-.118 0-.58-.124-.842-.243C7.57 15.64 4.01 14.01.448 12.38c-.19-.088-.44-.144-.445-.405-.005-.277.256-.332.452-.424.6-.28 1.201-.556 1.805-.827a1.992 1.992 0 011.717.01c2.394 1.095 4.788 2.19 7.184 3.28a1.94 1.94 0 001.672-.002c2.403-1.095 4.804-2.193 7.206-3.29a1.953 1.953 0 011.672-.004c.634.283 1.263.574 1.893.864.087.04.175.082.25.14.19.148.189.344-.004.493-.075.057-.163.1-.25.14-3.597 1.645-7.193 3.292-10.795 4.929-.248.112-.71.218-.829.218z"
    fill="#000"
  ></path>
</svg>
