<svg viewBox="0 0 24 24" xmlns="http://www.w3.org/2000/svg">
  <path
    d="M18.971 11.266l-.498-.183c-2.34 4.85-11.65 1.901-12.21 3.344-.093.975 5.084.186 8.786.35 1.128.051 1.694.836 1.215 2.115l.944.003c1.089-3.127 4.564-1.531 4.71-2.563-.24-.679-3.995 0-2.947-3.066z"
    fill="#fff"
  ></path>
  <path
    d="M16.531 16.358c.15-.459.1-.918-.15-1.193-.248-.275-.597-.459-1.045-.504l-8.664-.092c-.05 0-.1-.046-.15-.046-.049-.046-.049-.092 0-.138.05-.091.1-.137.2-.137l8.714-.092c1.045-.046 2.14-.826 2.54-1.743l.497-1.193c0-.046.05-.092 0-.137C17.925 8.743 15.635 7 12.946 7c-2.49 0-4.63 1.468-5.378 3.532a2.889 2.889 0 00-1.792-.459c-1.195.092-2.141 1.01-2.29 2.11-.05.276 0 .551.05.826C1.592 13.055 0 14.523 0 16.358c0 .183 0 .32.05.504 0 .092.1.138.15.138h15.983c.1 0 .199-.046.199-.138l.15-.504z"
    fill="#F4811F"
  ></path>
  <path
    d="M19.27 11.22h-.25c-.049 0-.099.046-.149.092l-.348 1.1c-.15.46-.1.918.15 1.193.248.276.597.46 1.045.505l1.842.092c.05 0 .1.046.15.046.05.046.05.091 0 .137-.05.092-.1.138-.2.138l-1.892.092c-1.045.046-2.14.825-2.54 1.743l-.099.413c-.05.046 0 .137.1.137h6.572c.1 0 .15-.046.15-.137.1-.367.199-.78.199-1.193 0-2.385-2.141-4.358-4.73-4.358z"
    fill="#FAAD3F"
  ></path>
</svg>
