<svg viewBox="0 0 24 24" xmlns="http://www.w3.org/2000/svg">
  <path
    d="M14.65 6.877c-.868.2-1.756.301-2.646.3-.89 0-1.778-.1-2.646-.3a11.743 11.743 0 012.646-2.932 11.803 11.803 0 012.645 2.932zm7.973-6.45A13.04 13.04 0 0019.3 0a13.161 13.161 0 00-7.296 2.197A13.146 13.146 0 004.708 0 13.04 13.04 0 001.36.428a12.27 12.27 0 00-1.349.42.052.052 0 000 .067c.188.403.397.796.626 1.177a.053.053 0 00.06 0 12.4 12.4 0 011.364-.405 11.846 11.846 0 018.736 1.41 13.156 13.156 0 00-2.85 3.36c-.15.24-.278.487-.414.75-.135.262-.166.337-.248.517a13.032 13.032 0 00-.824 8.303 13.078 13.078 0 004.336 7.079c.21.18.332.277.505.405.173.127.444.33.67.48a.053.053 0 00.06 0c.227-.158.453-.315.672-.48.218-.165.339-.263.505-.405a13.086 13.086 0 003.61-4.863 13.03 13.03 0 001.055-5.141 12.984 12.984 0 00-1.16-5.385c-.121-.27-.166-.353-.25-.518a13.225 13.225 0 00-3.263-4.11 11.846 11.846 0 018.743-1.38 12.203 12.203 0 011.395.415c.01 0 .02-.003.03-.01.22-.38.427-.77.618-1.169a.053.053 0 000-.068 12.779 12.779 0 00-1.365-.45z"
    fill="#151F34"
  ></path>
  <path
    d="M16.458 13.101a11.6 11.6 0 01-3.203 8.017 11.689 11.689 0 01-.543-3.51 11.593 11.593 0 013.204-8.016c.359 1.135.542 2.319.542 3.51z"
    fill="#348540"
  ></path>
  <path
    d="M11.318 17.609c0 1.19-.183 2.374-.543 3.51a11.636 11.636 0 01-2.909-5.403 11.598 11.598 0 01.249-6.124 11.593 11.593 0 013.203 8.017z"
    fill="#7DBC42"
  ></path>
</svg>
