<svg viewBox="0 0 24 24" xmlns="http://www.w3.org/2000/svg">
  <path
    d="M.973 12.446a1.639 1.639 0 01-.064-.514c0-.22.021-.385.064-.515.121-.372.441-.575.86-.575a.91.91 0 01.722.324c.013.018.017.044-.004.06l-.272.239c-.022.017-.044.013-.061-.009a.472.472 0 00-.385-.181c-.185 0-.328.09-.389.272a1.234 1.234 0 00-.043.385c0 .16.009.285.043.389.061.177.204.268.39.268.172 0 .28-.065.384-.182.017-.021.039-.021.06-.004l.273.238c.021.017.017.039.004.06a.918.918 0 01-.722.32c-.419 0-.739-.203-.86-.575z"
    fill="#204156"
  ></path>
  <path
    d="M10.415 12.446a1.637 1.637 0 01-.065-.514c0-.22.022-.385.065-.515.121-.372.44-.575.86-.575.311 0 .557.126.722.324.012.018.017.044-.005.06l-.272.239c-.022.017-.043.013-.06-.009a.472.472 0 00-.385-.181c-.186 0-.329.09-.389.272a1.223 1.223 0 00-.043.385c0 .16.008.285.043.389.06.177.203.268.389.268a.472.472 0 00.384-.182c.018-.021.04-.021.06-.004l.273.238c.022.017.017.039.005.06a.917.917 0 01-.722.32c-.42 0-.739-.203-.86-.575z"
    fill="#204156"
  ></path>
  <path
    d="M21.328 12.974a.042.042 0 01-.044-.044v-1.2c0-.268-.134-.454-.393-.454-.25 0-.398.185-.398.454v1.201c0 .026-.017.044-.043.044h-.397a.042.042 0 01-.044-.044V11.73c0-.268-.134-.454-.393-.454-.25 0-.397.185-.397.454v1.201a.042.042 0 01-.044.044h-.397c-.026 0-.043-.018-.043-.044v-1.997c0-.026.017-.043.043-.043h.397c.026 0 .044.017.044.043v.151h.004c.09-.13.272-.242.549-.242.246 0 .445.1.57.277h.004a.85.85 0 01.666-.277c.484 0 .756.329.756.774v1.314c0 .026-.017.044-.043.044h-.398z"
    fill="#204156"
  ></path>
  <path
    d="M22.369 13.752c-.026 0-.043-.018-.043-.044v-.345c0-.026.017-.044.043-.044h.078c.164 0 .246-.073.31-.246l.061-.177-.76-1.963c-.01-.026.008-.043.034-.043h.428c.026 0 .043.017.052.043l.47 1.362h.01l.449-1.362c.009-.026.026-.043.052-.043h.41c.026 0 .043.017.035.043l-.795 2.17c-.182.493-.355.649-.7.649h-.134z"
    fill="#204156"
  ></path>
  <path
    d="M2.953 12.446a1.542 1.542 0 01-.07-.514c0-.23.022-.367.07-.514.116-.363.436-.575.86-.575.418 0 .738.212.854.575.048.147.07.285.07.514 0 .229-.022.367-.07.514-.116.363-.436.575-.855.575-.423 0-.743-.212-.86-.575zm1.248-.13c.035-.107.043-.207.043-.384 0-.177-.008-.272-.043-.385a.385.385 0 00-.389-.272.39.39 0 00-.393.272 1.196 1.196 0 00-.043.385c0 .177.009.277.043.385a.39.39 0 00.393.272c.195 0 .329-.1.389-.272z"
    fill="#204156"
  ></path>
  <path
    d="M13.155 10.842c-.342 0-.57.082-.74.203-.017.014-.021.035-.008.056l.16.286c.013.022.038.026.06.009.1-.078.242-.143.476-.143.34 0 .456.102.462.327v.694c0 .237-.164.354-.462.354-.234 0-.359-.087-.359-.26 0-.194.138-.28.45-.28h.094c.026 0 .043-.018.043-.044v-.277c0-.026-.017-.043-.043-.043h-.172c-.514 0-.835.208-.835.662 0 .436.32.635.7.635.294 0 .489-.1.588-.242h.004v.151c0 .026.018.044.044.044h.362c.027 0 .044-.018.044-.044v-1.36c0-.51-.233-.727-.868-.727z"
    fill="#204156"
  ></path>
  <path
    d="M7.992 11.724c-.011 0-.019.007-.019.018v.326c0 .012.008.02.019.02h1.07c.03 0 .048-.018.048-.044 0-.337-.022-.48-.07-.627-.116-.354-.427-.575-.855-.575-.415 0-.735.212-.852.575a1.672 1.672 0 00-.069.515c0 .216.03.376.074.51.117.363.428.579.868.579.385 0 .679-.147.856-.355.017-.021.017-.043-.004-.06l-.255-.225c-.022-.017-.044-.013-.065.009a.627.627 0 01-.488.199c-.233 0-.398-.113-.467-.316a.504.504 0 01-.025-.09 1.59 1.59 0 01-.025-.3 1.81 1.81 0 01.028-.29v-.007a.485.485 0 01.018-.065c.056-.169.211-.268.41-.268.195 0 .35.1.406.268a.528.528 0 01.026.177c0 .018-.008.026-.026.026h-.603z"
    fill="#204156"
  ></path>
  <path
    d="M6.863 10.034h-.397c-.026 0-.043.017-.043.043v1.97H6.42a.987.987 0 01-.04.27c-.056.173-.19.268-.389.268-.194 0-.328-.095-.384-.268a1.231 1.231 0 01-.043-.388c0-.19.013-.294.043-.388.055-.17.185-.265.373-.269h.169a.017.017 0 00.014-.018l.002-.394a.017.017 0 00-.016-.018h-.295c-.347.003-.602.17-.708.5-.052.16-.074.306-.074.587 0 .28.022.427.074.587.107.332.366.5.72.5.28 0 .453-.103.552-.245h.004v.155c0 .026.018.043.044.043h.397c.026 0 .043-.017.043-.043v-2.85c0-.025-.017-.042-.043-.042z"
    fill="#204156"
  ></path>
  <path
    d="M17.267 11.724a.017.017 0 00-.018.018v.326c0 .012.007.02.018.02h1.07c.03 0 .048-.018.048-.044 0-.337-.022-.48-.069-.627-.117-.354-.428-.575-.856-.575-.415 0-.734.212-.851.575-.043.134-.07.299-.07.515 0 .216.031.376.075.51.116.363.427.579.868.579.384 0 .678-.147.855-.355.018-.021.018-.043-.004-.06l-.255-.225c-.021-.017-.043-.013-.065.009a.627.627 0 01-.488.199c-.233 0-.397-.113-.466-.316a.493.493 0 01-.025-.09 1.583 1.583 0 01-.025-.3 1.78 1.78 0 01.028-.294v-.003a.51.51 0 01.017-.065c.056-.169.212-.268.41-.268.195 0 .35.1.407.268a.528.528 0 01.026.177c0 .018-.009.026-.026.026h-.604z"
    fill="#204156"
  ></path>
  <path
    d="M15.761 10.034c-.026 0-.043.017-.043.043v1.973c-.007.119-.02.197-.043.27-.056.174-.19.269-.389.269-.194 0-.328-.095-.385-.268a1.235 1.235 0 01-.043-.39c0-.19.013-.293.043-.388.056-.17.185-.265.373-.268h.17a.04.04 0 00.043-.043v-.347a.04.04 0 00-.043-.043h-.295c-.348.004-.603.172-.71.501-.052.16-.073.308-.073.588 0 .281.021.429.073.588.108.333.368.502.722.502.28 0 .454-.104.553-.247l.004.156c0 .026.017.043.043.043h.398c.026 0 .043-.017.043-.043v-2.853c0-.026-.017-.043-.043-.043h-.398z"
    fill="#204156"
  ></path>
  <path
    d="M10.383 13.563v.394c0 .026.017.043.043.043h1.473c.027 0 .044-.017.044-.043v-.394c0-.026-.017-.043-.044-.043h-1.473c-.026 0-.043.017-.043.043z"
    fill="#204156"
  ></path>
  <path
    d="M10.008 9.014l-.001-.002A.044.044 0 009.976 9H.034l-.003.001-.005.002a.041.041 0 00-.026.04v4.913c0 .015.006.027.016.035l.002.002A.047.047 0 00.043 14h9.932a.043.043 0 00.034-.016.043.043 0 00.01-.027V9.043a.043.043 0 00-.01-.03zM.528 13.52a.06.06 0 01-.01 0l-.002-.002-.006-.001a.041.041 0 01-.026-.04V9.522c0-.018.01-.033.025-.039l.01-.003H9.5l.002.001.006.002c.016.006.025.02.025.04v3.955c0 .018-.009.033-.024.039h-.001l-.006.002H9.5a.05.05 0 01-.01.001H.528z"
    fill="#204156"
  ></path>
</svg>
