<svg viewBox="0 0 24 24" xmlns="http://www.w3.org/2000/svg">
  <path
    d="M21.818 23h-3.886l.273-3.143h-1.91L16.023 23H7.977l-.273-3.143H5.796L6.068 23H2.182L0 9.38 5.455 1h13.09L24 9.38 21.818 23zM17.455 5.19h-3.507l.234 1.572H9.818l.234-1.572H6.545L4.364 9.38l1.09 8.382h13.091l1.091-8.381-2.181-4.19zm-1.91 9.79c-.3 0-.545-.872-.545-1.948s.244-1.949.545-1.949c.302 0 .546.873.546 1.949s-.244 1.948-.546 1.948zm-6.886.163c-.301 0-.545-.873-.545-1.949s.244-1.948.545-1.948c.301 0 .546.872.546 1.948s-.245 1.949-.546 1.949z"
    fill="#444"
  ></path>
</svg>
