<svg viewBox="0 0 24 24" xmlns="http://www.w3.org/2000/svg">
  <path
    d="M19.5 14.667c0 1.01-.524 1.505-1.5 1.523H6c-.976-.018-1.5-.513-1.5-1.523 0-1.01.524-1.506 1.5-1.523v-.001h12c.976.018 1.5.513 1.5 1.524zM18 16.953H6c-.976.018-1.5.513-1.5 1.523 0 1.01.524 1.506 1.5 1.523V20h12c.976-.018 1.5-.513 1.5-1.524 0-1.01-.524-1.505-1.5-1.523zm3.75-8.38c-.976.017-1.5.512-1.5 1.522v8.381c0 1.01.524 1.506 1.5 1.523v-.001c1.464-.053 2.25-1.538 2.25-4.57V11.62c0-2.02-.786-3.01-2.25-3.046zm-19.5 0C.786 8.608 0 9.598 0 11.62v3.81c0 3.03.786 4.516 2.25 4.569v.001c.976-.017 1.5-.512 1.5-1.523v-8.38c0-1.011-.524-1.506-1.5-1.524zm19.5-.763c0-2.526-1.31-3.764-3.75-3.808V4H6v.002c-2.44.044-3.75 1.282-3.75 3.808 1.464.027 2.25.77 2.25 2.285 0 1.516.786 2.259 2.25 2.285h10.5c1.464-.026 2.25-.77 2.25-2.285 0-1.515.786-2.258 2.25-2.284V7.81z"
    fill="#E42528"
  ></path>
</svg>
