<svg viewBox="0 0 24 24" xmlns="http://www.w3.org/2000/svg">
  <path
    d="M11.986 24l-8.984-2.4L1 0h22l-2.004 21.598L11.986 24z"
    fill="#264DE4"
  ></path>
  <path
    d="M19.28 20.222l1.713-18.456H12v20.398l7.28-1.942z"
    fill="#2965F1"
  ></path>
  <path d="M5.59 9.778l.247 2.649H12v-2.65H5.59z" fill="#EBEBEB"></path>
  <path d="M5.094 4.415l.25 2.65H12v-2.65H5.094z" fill="#EBEBEB"></path>
  <path
    d="M12 16.658l-.012.003-3.067-.797-.196-2.112H5.96l.386 4.16 5.641 1.506.013-.004v-2.756z"
    fill="#EBEBEB"
  ></path>
  <path
    d="M18.392 9.778l.498-5.363h-6.9v2.65h3.881l-.25 2.713h-3.63v2.649h3.39l-.319 3.436-3.071.797v2.756l5.646-1.505.041-.447.647-6.975.067-.711z"
    fill="#fff"
  ></path>
</svg>
