<svg viewBox="0 0 24 24" xmlns="http://www.w3.org/2000/svg">
  <mask
    id="a"
    mask-type="alpha"
    maskUnits="userSpaceOnUse"
    x="0"
    y="0"
    width="24"
    height="24"
  >
    <path
      d="M12 24c6.627 0 12-5.373 12-12S18.627 0 12 0 0 5.373 0 12s5.373 12 12 12z"
      fill="#fff"
    ></path>
  </mask>
  <g mask="url(#a)">
    <path
      d="M12 24c6.627 0 12-5.373 12-12S18.627 0 12 0 0 5.373 0 12s5.373 12 12 12z"
      fill="#B3BBC6"
    ></path>
    <path
      d="M3.63 16.568l10.063 7.485 24.75 1.557L19.477 8.055v4.002l-1.77-1.267-3.292-2.735-1.96 3.196-2.756-2.3-4.846-.308-1.223 7.925z"
      fill="#666C76"
    ></path>
  </g>
  <path
    d="M11.141 12.296c0-2.543-1.563-4.268-4.541-4.268H3.66v8.561h3.002c2.89 0 4.479-1.75 4.479-4.293zm-2.134.013c0 1.836-.943 2.63-2.457 2.63h-.77v-5.26h.77c1.452 0 2.457.83 2.457 2.63zm10.584 4.28V8.028h-1.973v4.79l-3.152-4.79h-2.06v8.561h1.973v-5.124l3.375 5.124h1.837z"
    fill="#fff"
  ></path>
</svg>
