<svg viewBox="0 0 24 24" xmlns="http://www.w3.org/2000/svg">
  <path
    d="M12 0C5.372 0 0 5.373 0 12s5.372 12 12 12c6.627 0 12-5.372 12-12 0-6.626-5.373-12-12-12z"
    fill="#3B8AF0"
  ></path>
  <path
    d="M19.645 8.796a.509.509 0 00-.502-.003l-6.51 3.793a.515.515 0 00-.254.444v2a.52.52 0 00.253.443c.156.09.347.09.504.002l.004-.002 2.14-1.248v.004l.004-.002v4.636c0 .09.024.18.068.256a.531.531 0 00.183.184.523.523 0 00.254.067.528.528 0 00.255-.067l1.279-.746a.515.515 0 00.254-.445v-5.226l2.067-1.204a.515.515 0 00.255-.446V9.24a.512.512 0 00-.254-.444zm-7.266-1.66c0 .183.097.353.255.445l1.968 1.147.023.018.057.033c.011.006.017.018.017.03v.068c.001.009.004.017.004.026v1.388c0 .136.127.229.25.198a.224.224 0 00.049-.02c.797-.464 2.94-1.71 3.73-2.168a.2.2 0 00-.002-.347L13.14 4.7a.502.502 0 00-.508 0 .517.517 0 00-.253.438v1.999zm-.9-2.437a.503.503 0 00-.509 0L5.38 7.957a.197.197 0 00-.004.341l3.739 2.174a.198.198 0 00.297-.174V8.902 8.79l.083-.048c.006-.004.01-.01.016-.012l1.87-1.09a.717.717 0 00.354-.614V5.143a.513.513 0 00-.254-.444zm-.109 7.887l-3.943-2.298-2.562-1.492a.502.502 0 00-.509 0 .512.512 0 00-.254.444v1.996c0 .184.097.354.254.446l2.068 1.204v5.226c0 .184.097.353.254.445l1.28.746a.525.525 0 00.254.067.527.527 0 00.254-.067.52.52 0 00.253-.44v-4.637l.002.002v-.003l2.14 1.248a.508.508 0 00.764-.445V13.03a.517.517 0 00-.255-.444z"
    fill="#fff"
  ></path>
</svg>
