<svg viewBox="0 0 24 24" xmlns="http://www.w3.org/2000/svg">
  <path
    d="M12 24c-1.35 0-2.625-.292-3.825-.73-1.2-.51-2.25-1.167-3.075-2.115a8.483 8.483 0 01-2.025-3.064c-.15-.438-.3-.875-.45-1.386H2.55l-.075-.73c-.9-.364-1.575-1.24-1.8-2.042-.3-1.021-.6-2.553-.675-3.94C0 8.9.6 7.879 1.65 7.442c.675-.292 1.65-.584 2.775-.73C5.175 5.18 6 3.793 6.9 2.772 8.475.948 10.2 0 12 0c1.8 0 3.525.948 5.1 2.772.9 1.021 1.725 2.334 2.4 3.94 1.125.218 2.1.437 2.85.729C23.4 7.878 24 8.9 24 9.994c-.075 1.605-.45 3.356-.675 4.012-.225.876-.9 1.75-1.8 2.043l-.075.73h-.075a4.985 4.985 0 01-.45 1.385 8.484 8.484 0 01-2.025 3.064c-.9.875-1.95 1.605-3.075 2.115-1.2.438-2.475.657-3.825.657z"
    fill="#fff"
  ></path>
  <path
    d="M11.899 1.76c4.262 0 7.701 8.9 7.701 13.058 0 4.158-3.44 7.514-7.701 7.514-4.262 0-7.702-3.356-7.702-7.514S7.637 1.76 11.9 1.76z"
    fill="#FCFBFA"
  ></path>
  <path
    d="M21.694 8.91l-3.14 1.094s.448 1.459.523 1.459l3.14-.365-.523-2.189z"
    fill="#252526"
  ></path>
  <path
    d="M2.178 8.91l3.14 1.094s-.448 1.459-.523 1.459l-3.14-.365.523-2.189z"
    fill="#252526"
  ></path>
  <path
    d="M8.684 8.69c.822 0 .972.657.972.803.074.438.15 1.021.224 1.605 0 .146 0 .292-.075.438-.075-.365-.075-.73-.15-1.095 0-.146-.224-.802-.971-.802-.45 0-2.02.073-3.515.292.075-.365.225-.657.374-1.022 1.346-.218 2.692-.291 3.14-.218z"
    fill="#E0E0E0"
  ></path>
  <path
    d="M19.6 14.454c-2.766-.146-5.16-1.022-5.683-1.314-.448-.219-.972-.583-1.121-1.604-.075 1.167.15 2.188 1.196 2.699.075.073 2.169 1.02 5.533 1.24v-.657c.075-.146.075-.292.075-.364z"
    fill="#E0E0E0"
  ></path>
  <path
    d="M4.272 14.454c2.766-.146 5.16-1.022 5.683-1.314.448-.219.972-.583 1.121-1.604.075 1.167-.15 2.188-1.196 2.699-.075.073-2.169 1.02-5.533 1.24v-.657c-.075-.146-.075-.292-.075-.364z"
    fill="#E0E0E0"
  ></path>
  <path
    d="M15.114 8.69c-.823 0-.972.657-.972.803-.075.438-.15 1.021-.224 1.605 0 .146 0 .292.074.438.075-.365.075-.73.15-1.095 0-.146.224-.802.972-.802.448 0 2.019.073 3.514.292-.075-.365-.224-.657-.374-1.022-1.346-.218-2.692-.291-3.14-.218z"
    fill="#E0E0E0"
  ></path>
  <path
    d="M5.17 7.815c.747-1.75 1.644-3.355 2.616-4.45 1.271-1.532 2.692-2.334 4.113-2.334 1.42 0 2.766.802 4.112 2.334.972 1.167 1.87 2.7 2.617 4.45v.073h-.075c-.299 0-.448-.073-.747-.073-.823-1.97-2.318-4.45-4.188-5.544-.598-.292-1.121-.51-1.72-.51-.598 0-1.12.145-1.72.51C8.31 3.292 6.89 5.846 5.993 7.815c-.3 0-.449.073-.748.073H5.17v-.073z"
    fill="#56555C"
  ></path>
  <path
    d="M19.675 13.505h-.673v-.073c-.15-1.459-.598-3.064-1.196-4.669l-.075-.145h.15c.224 0 .448.073.672.073h.075v.072c.523 1.605.972 3.283 1.122 4.67v.072h-.075z"
    fill="#56555C"
  ></path>
  <path
    d="M19.002 9.93c-.15-.364-.224-.729-.374-1.094v-.072h-.075c-.224-.073-.448-.073-.673-.073h-.15l.076.145c.15.365.224.73.373 1.095.374-.073.599-.073.823 0z"
    fill="#252526"
  ></path>
  <path
    d="M4.122 13.36c.15-1.387.599-3.065 1.122-4.67v-.072h.075c.224 0 .448-.073.673-.073h.15l-.076.146c-.598 1.604-.972 3.282-1.196 4.668v.073h-.748v-.073z"
    fill="#56555C"
  ></path>
  <path
    d="M5.319 8.69c-.225.438-.3.803-.449 1.168.374-.073.524-.073.823-.073.15-.365.224-.73.373-1.094l.075-.146h-.15c-.224.073-.448.146-.672.146z"
    fill="#252526"
  ></path>
  <path
    d="M11.899 22.988a8.535 8.535 0 01-3.29-.656c-1.047-.438-1.944-1.021-2.692-1.824a9.527 9.527 0 01-1.795-2.699c-.448-1.021-.598-2.188-.598-3.356v-.072h.823v.072c-.075 1.095.15 2.043.523 3.064a7.824 7.824 0 001.57 2.48c.673.73 1.57 1.314 2.468 1.678.972.438 1.944.584 2.99.584a8.077 8.077 0 002.992-.584c.897-.364 1.794-.948 2.467-1.678.673-.729 1.271-1.531 1.57-2.48.374-.948.524-1.97.524-3.063v-.074h.822v.073c.075 1.168-.15 2.262-.598 3.356-.374 1.021-.972 1.897-1.795 2.7-.747.802-1.72 1.385-2.691 1.823-.972.365-2.094.656-3.29.656z"
    fill="#56555C"
  ></path>
  <path d="M4.347 15.402V14.38h-.823v1.022h.823z" fill="#252526"></path>
  <path d="M20.273 14.38h-.748v1.022h.748V14.38z" fill="#252526"></path>
  <path
    d="M20.722 15.037c-1.72 0-3.29-.438-4.786-.802-.747-.22-1.42-.584-1.944-.803v-.073c-1.27-.583-1.346-1.896-1.27-2.99 0-.292-.076-.657-.375-.876-.15-.073-.299-.146-.448-.146-.15 0-.374.073-.449.146-.3.219-.374.584-.374.875.15 1.095.075 2.335-1.271 2.918-.523.22-1.196.73-1.944.949-1.495.364-3.066.802-4.785.802-.673 0-1.272-.657-1.421-1.313-.224-.948-.598-2.48-.598-3.793 0-.511.299-1.095.822-1.313 1.795-.803 5.459-1.095 7.029-1.095.598 0 1.047.22 1.42.584.524-.219 1.047-.365 1.57-.365.524 0 1.047.146 1.57.365.3-.292.749-.584 1.421-.584.898 0 4.935.146 7.03 1.022.523.219.822.73.822 1.24-.075 1.313-.374 2.99-.599 3.939-.15.656-.747 1.313-1.42 1.313zm-5.608-6.346c-.748 0-.897.656-.972.729-.075.365-.15.948-.224 1.605 0 .583.224 1.021.672 1.24 1.645.73 3.59 1.094 5.833 1.094.15 0 .299-.146.374-.292.224-.802.523-2.042.523-3.21 0-.072-.075-.218-.15-.218-1.42-.73-4.785-.948-6.056-.948zm-12.562.948c-.075.073-.15.146-.15.219 0 1.167.3 2.407.524 3.21.075.145.224.291.374.291 2.318 0 4.187-.364 5.832-1.094.449-.219.673-.657.673-1.24 0-.51-.075-1.021-.224-1.605 0-.146-.15-.73-.972-.73-.598 0-4.262.146-6.057.949z"
    fill="#252526"
  ></path>
</svg>
