<svg viewBox="0 0 24 24" xmlns="http://www.w3.org/2000/svg">
  <path
    d="M23.992 13.892c-.058-.577-.474-.834-.864-.834-.179 0-.321.052-.376.074l-.076.033-.066.047c-.091.07-.252.166-.394.217a2.05 2.05 0 01.014-.393l.004-.022c.106-1.014-.106-1.605-.627-1.756a.957.957 0 00-.27-.037c-.318 0-.598.155-.78.287-.154-.195-.41-.305-.73-.305-.478 0-.861.224-1 .584a2.157 2.157 0 00-.055.165c-.28-.624-.853-.863-1.386-.863-.503 0-.992.198-1.174.338-.008.007-.019.01-.03.022a3.53 3.53 0 00-1.112 1.29c-.128-.449-.409-.868-.912-1.184l-.007-.007c-.015-.007-.026-.015-.04-.022.492-.882.93-2.05.667-3.163C14.501 7.176 13.808 7 13.418 7c-.161 0-.325.03-.493.088l-.011.004-.011.004c-.733.29-1.054.727-1.123.83-.073.11-.876 1.337-1.07 3.133l-.065.61c-.113-.161-.3-.308-.595-.4a.911.911 0 00-.28-.04c-.405 0-.734.25-.909.415l-.003-.004a.84.84 0 00-.668-.375h-.066c-.43 0-.773.191-1.025.408a.907.907 0 00-.802-.46c-.03 0-.055 0-.08.005h-.059c-.478 0-.853.227-1.007.606-.01.029-.025.066-.04.114-.375-.47-.853-.691-1.495-.691h-.062c-.402.007-1.401.176-2.014 1.565-.095.213-.168.43-.222.643a.83.83 0 00-1.03.279c-.094.14-.397.636-.247 1.12.08.261.266.46.529.563.23.091.521.18.74.242.135.309.376.665.803.992.303.231.69.349 1.145.349.766 0 1.507-.334 1.587-.371l.03-.015.006-.007c.146.154.34.264.584.312.073.015.168.026.277.026.416 0 .704-.213.97-.614.22.346.617.54 1.088.54h.003c.026 0 .051.019.08.019.249 0 .559-.088.818-.507.215.39.609.613 1.076.613.416 0 .777-.172.843-.205l.014-.008c.139-.073.255-.14.347-.19a2.895 2.895 0 001.652.334l.026-.004.025-.004c1.222-.242 2.017-.536 2.492-.76.332.374.86.735 1.616.79a3.115 3.115 0 001.736-.36c.117.124.263.238.452.316a.89.89 0 00.35.07c.76 0 1.113-.912 1.212-1.22l.182-.493c.16.173.365.313.624.386.142.04.295.063.452.063.835 0 1.638-.596 1.766-.695.23-.19.481-.584.426-1.124z"
    fill="#fff"
  ></path>
  <path
    d="M16.34 14.14s-.106-.374.288-1.098c.39-.72.697-.326.697-.326s.335.367-.048.914c-.383.551-.937.51-.937.51zm-3.01.523c-.448 1.183-1.54.701-1.54.701s-.123-.422.23-1.609c.354-1.183 1.186-.72 1.186-.72s.573.445.124 1.628zm-.813-4.956s.678-1.782.842-.915c.165.867-1.422 3.446-1.422 3.446.014-.58.58-2.531.58-2.531zM2.814 14.14c.029-1.146.773-1.646 1.032-1.396s.164.79-.325 1.128c-.485.338-.707.268-.707.268zm20.559-.187c-.037-.386-.383-.243-.383-.243s-.555.434-1.044.386c-.485-.052-.332-1.146-.332-1.146s.106-1.007-.182-1.091c-.288-.085-.642.26-.642.26s-.441.493-.65 1.117l-.058.019s.066-1.099-.01-1.349c-.059-.125-.584-.114-.668.107-.088.22-.507 1.76-.536 2.406 0 0-.821.702-1.54.82-.718.113-.89-.339-.89-.339s1.952-.547 1.882-2.116c-.065-1.568-1.572-.988-1.743-.86-.164.126-1.044.658-1.303 2.139-.007.051-.025.272-.025.272s-.755.51-1.175.646c0 0 1.175-1.99-.259-2.898-.649-.393-1.167.433-1.167.433s1.94-2.175 1.51-4.015c-.204-.875-.638-.97-1.04-.827-.605.243-.835.595-.835.595s-.784 1.146-.966 2.851a203.843 203.843 0 01-.45 3.762s-.371.367-.714.386c-.343.018-.19-1.029-.19-1.029s.267-1.598.248-1.866c-.018-.268-.036-.415-.354-.51-.313-.096-.66.308-.66.308s-.908 1.385-.985 1.598l-.047.088-.048-.059s.642-1.888.03-1.914c-.613-.03-1.014.672-1.014.672s-.697 1.176-.726 1.308l-.048-.058s.288-1.367.23-1.705c-.058-.338-.372-.268-.372-.268s-.401-.048-.507.213c-.106.26-.489 1.984-.536 2.531 0 0-1.003.724-1.664.731-.66.011-.59-.422-.59-.422s2.418-.834 1.758-2.48c-.296-.423-.642-.555-1.128-.547-.488.01-1.061.308-1.455 1.194a2.893 2.893 0 00-.263 1.127s-.452.089-.682-.106c-.23-.191-.361 0-.361 0s-.401.577-.011.73c.39.155.996.299.996.299.055.25.219.657.697 1.02.715.548 2.093-.084 2.093-.084l.566-.338s.018.51.43.588c.413.077.584-.007 1.299-1.756.42-.896.449-.849.449-.849l.047-.01s-.325 1.711-.2 2.174c.123.463.667.415.667.415s.295.107.536-.742c.241-.848.697-1.734.697-1.734h.058s-.2 1.705.106 2.263c.307.559 1.098.166 1.098.166s.555-.294.642-.382c0 0 .657.558 1.587.455 2.075-.411 2.812-.97 2.812-.97s.358.908 1.46.992c1.262.096 1.951-.705 1.951-.705s-.01.518.43.701c.442.184.737-.786.737-.786l.737-1.987h.066s.036 1.27.766 1.484c.733.21 1.678-.525 1.678-.525s.23-.155.19-.54z"
    fill="#E24B31"
  ></path>
</svg>
