<svg viewBox="0 0 24 24" xmlns="http://www.w3.org/2000/svg">
  <path
    d="M14.819 8.669l-2.494 2.235-2.314-4.496 1.196-2.586c.302-.515.796-.522 1.098 0L14.82 8.67z"
    fill="#FFA000"
  ></path>
  <path
    d="M12.326 10.903L3 19.253l7.012-12.845 2.314 4.495z"
    fill="#F57F17"
  ></path>
  <path
    d="M17.553 5.25c.446-.409.906-.27 1.022.311L21 19.141l-8.042 4.648c-.282.152-1.03.211-1.03.211s-.68-.08-.94-.218L3 19.254 17.553 5.25z"
    fill="#FFCA28"
  ></path>
  <path
    d="M10.012 6.408L3 19.254 6.125.477c.117-.582.46-.641.77-.125l3.117 6.056z"
    fill="#FFA000"
  ></path>
</svg>
