<svg viewBox="0 0 24 24" xmlns="http://www.w3.org/2000/svg">
  <path
    d="M19.388 2.234c-.6.68-.881 2.206-.272 3.76.61 1.552 1.548 1.216 2.13 2.796.769 2.089.412 4.894.412 4.894s.929 2.598 1.576-.163c1.435-5.185-3.846-10.007-3.846-11.287z"
    fill="url(#paint0_radial)"
  ></path>
  <path
    d="M12.034 23.764c6.182 0 11.181-4.867 11.181-10.879 0-6.011-5.009-10.87-11.18-10.87C5.861 2.016.862 6.884.862 12.886c-.01 6.012 5 10.879 11.171 10.879z"
    fill="url(#paint1_radial)"
  ></path>
  <path
    d="M20.41 19.596a7.824 7.824 0 01-.76.445c.348-.5.676-1.008.967-1.535.234-.254.46-.5.638-.772.084-.136.187-.29.29-.48.629-1.1 1.323-2.87 1.342-4.687v-.136a6.65 6.65 0 00-.14-1.362c.009.037.009.073.018.11-.01-.028-.01-.055-.019-.082.01.045.019.1.028.145.132 1.053.038 2.08-.422 2.842-.01.01-.019.018-.019.036.235-1.153.32-2.424.057-3.695 0 0-.104-.618-.891-2.498-.45-1.08-1.257-1.97-1.96-2.615-.62-.744-1.192-1.244-1.502-1.562-.647-.663-.919-1.162-1.031-1.48-.094-.045-1.342-1.217-1.436-1.262-.544.817-2.241 3.36-1.435 5.73.366 1.08 1.295 2.197 2.27 2.824.047.045.582.608.835 1.88.263 1.316.122 2.333-.413 3.85-.638 1.325-2.27 2.642-3.799 2.778-3.264.291-4.464-1.589-4.464-1.589 1.163.454 2.457.354 3.245-.109.788-.472 1.266-.826 1.66-.69.385.136.685-.263.413-.68-.431-.646-1.22-.973-1.998-.845-.788.127-1.52.735-2.551.145a2.397 2.397 0 01-.197-.127c-.066-.046.225.063.15.018-.197-.109-.563-.336-.647-.418-.02-.018.16.055.14.037-.966-.772-.844-1.299-.816-1.626.028-.263.197-.6.497-.735.141.072.235.136.235.136s-.066-.118-.094-.182c.01-.009.019 0 .038-.009.122.055.375.2.516.282.178.118.234.227.234.227s.047-.028.01-.127c-.01-.046-.066-.182-.244-.318h.009c.103.054.206.127.3.2.047-.173.14-.355.122-.682-.01-.227-.01-.29-.047-.381-.037-.073.019-.109.085-.027a.588.588 0 00-.057-.182v-.009c.085-.272 1.717-.99 1.839-1.071.197-.137.356-.31.478-.509.094-.136.16-.336.178-.636.01-.217-.093-.363-1.754-.526-.45-.046-.722-.363-.872-.654-.028-.064-.056-.118-.084-.182a1.37 1.37 0 01-.066-.208c.272-.754.722-1.39 1.398-1.871.037-.036-.15.009-.113-.027.047-.037.319-.146.375-.173.066-.027-.272-.172-.572-.136-.3.036-.366.073-.535.136.066-.063.282-.154.235-.145-.329.045-.732.236-1.079.445 0-.037.01-.073.019-.11-.16.064-.563.337-.676.564.01-.046.01-.091.01-.136a1.83 1.83 0 00-.328.336l-.057.018c-.938-.363-1.773-.39-2.467-.227-.15-.146-.225-.037-.581-.781-.028-.046.019.045 0 0-.056-.145.037.19 0 0-.582.454-1.35.962-1.726 1.317 0 .018.431-.119 0 0-.15.045-.14.127-.16.917-.009.063 0 .127-.009.181-.3.363-.497.672-.572.836-.385.635-.807 1.634-1.21 3.205a7.72 7.72 0 01.647-1.226c-.338.836-.666 2.152-.732 4.168.085-.418.188-.826.32-1.235-.085 1.68.215 3.351.872 4.904.234.554.619 1.398 1.285 2.324a11.544 11.544 0 008.254 3.433c3.386 0 6.435-1.435 8.526-3.714z"
    fill="url(#paint2_linear)"
  ></path>
  <path
    d="M17.897 21.13c4.099-.463 5.919-4.549 3.583-4.63-2.101-.064-5.525 4.849-3.583 4.63z"
    fill="url(#paint3_radial)"
  ></path>
  <path
    d="M21.78 15.664c2.823-1.59 2.082-5.021 2.082-5.021s-1.088 1.225-1.829 3.178c-.722 1.934-1.95 2.806-.253 1.843z"
    fill="url(#paint4_radial)"
  ></path>
  <path
    d="M12.822 23.165c3.94 1.216 7.317-1.79 5.234-2.788-1.894-.9-7.1 2.216-5.234 2.788z"
    fill="url(#paint5_radial)"
  ></path>
  <path
    d="M22.08 17.126c.094-.127.226-.545.338-.736.694-1.09.704-1.952.704-1.97.422-2.025.384-2.86.122-4.386-.207-1.235-1.117-3.006-1.905-3.85-.806-.88-.243-.59-1.022-1.235-.685-.736-1.36-1.471-1.716-1.762C15.974 1.062 16.03.608 16.087.536l-.038.036c-.028-.118-.056-.218-.056-.218s-1.445 1.38-1.745 3.696c-.197 1.507.385 3.087 1.238 4.095.441.527.938 1 1.482 1.417.638.89.995 1.989.995 3.169 0 2.96-2.477 5.348-5.535 5.348-.412 0-.834-.045-1.238-.136-1.444-.263-2.27-.971-2.692-1.453-.234-.272-.337-.472-.337-.472 1.294.445 2.72.354 3.592-.109.872-.472 1.407-.817 1.839-.68.422.135.76-.264.46-.673-.301-.408-1.07-.999-2.214-.835-.873.127-1.68.726-2.824.145-.075-.036-.15-.082-.216-.118-.075-.045.244.064.17.018a6.138 6.138 0 01-.723-.418c-.019-.018.169.055.16.037-1.07-.763-.939-1.28-.91-1.607a.936.936 0 01.553-.727c.16.073.253.136.253.136s-.065-.118-.103-.181c.01-.01.028 0 .038-.01.13.055.422.191.572.282a.785.785 0 01.262.227s.057-.027.01-.127a.698.698 0 00-.272-.318h.01c.112.055.224.127.327.2.057-.173.15-.354.132-.681-.01-.227-.01-.29-.056-.372-.038-.073.018-.11.093-.028-.01-.063-.037-.118-.065-.181v-.01c.093-.272 1.904-.98 2.035-1.062.216-.127.394-.3.535-.5.103-.135.178-.335.197-.635.01-.136-.038-.236-.516-.345-.291-.063-.732-.118-1.426-.182-.497-.045-.797-.354-.966-.644-.028-.064-.066-.118-.094-.173a1.73 1.73 0 01-.075-.2 3.88 3.88 0 011.548-1.852c.037-.036-.16.01-.122-.027.047-.037.356-.146.413-.173.075-.027-.3-.163-.638-.136-.338.036-.404.064-.591.136.075-.063.31-.145.253-.145-.338.036-.788.218-1.172.427 0-.037.009-.073.018-.11-.178.064-.619.337-.75.564a.588.588 0 00.01-.127 2.11 2.11 0 00-.367.336l-.009.009c-1.041-.364-1.96-.39-2.73-.227-.168-.146-.44-.373-.825-1.108-.028-.046-.037.09-.056.045-.15-.336-.244-.89-.225-1.271 0 0-.31.136-.563.708-.047.1-.075.164-.113.218-.018.018.028-.19.028-.172-.046.072-.159.172-.206.308-.037.1-.084.155-.112.273l-.01.009c0-.036.01-.145 0-.127a5.466 5.466 0 00-.31.726 6.54 6.54 0 00-.328 1.816c-.009.055 0 .127-.009.182-.328.363-.553.672-.638.826-.422.636-.891 1.617-1.341 3.178.197-.426.44-.835.722-1.216-.375.826-.741 2.134-.816 4.131.094-.417.206-.826.347-1.226-.066 1.335.094 2.997.966 4.868.516 1.098 1.707 3.332 4.625 5.076 0 0 .994.717 2.692 1.253.121.045.253.09.384.127a.656.656 0 00-.122-.045c1.135.326 2.308.499 3.499.499 4.408 0 5.712-1.716 5.712-1.716l-.01.009c.067-.055.123-.118.18-.173-.695.636-2.29.681-2.88.636 1.012-.29 1.678-.536 2.973-1.008.15-.055.31-.118.469-.19l.047-.028c.028-.018.066-.027.094-.045a8.965 8.965 0 001.773-1.072c1.303-1.008 1.585-1.989 1.735-2.633a2.395 2.395 0 01-.132.3c-.337.69-1.078 1.125-1.885 1.489.385-.49.741-1 1.07-1.526.262-.254.337-.654.543-.917z"
    fill="url(#paint6_radial)"
  ></path>
  <path
    d="M20.495 19.532a8.036 8.036 0 001.37-1.952c.928-1.889 2.363-5.04 1.238-8.318-.891-2.597-2.12-4.013-3.677-5.403C16.893 1.607 16.19.6 16.19 0c0 0-2.927 3.151-1.66 6.447 1.266 3.296 3.864 3.17 5.58 6.602 2.027 4.04-1.631 8.454-4.661 9.689.187-.037 6.725-1.471 7.072-5.094-.018.063-.169 1.071-2.026 1.888z"
    fill="url(#paint7_radial)"
  ></path>
  <path
    d="M12.015 7.791c.01-.218-.103-.354-1.932-.527-.75-.063-1.04-.735-1.125-1.026-.263.672-.375 1.38-.32 2.234.038.563.432 1.163.61 1.508 0 0 .038-.055.057-.073.347-.354 1.81-.89 1.95-.963.16-.09.741-.5.76-1.153z"
    fill="url(#paint8_linear)"
  ></path>
  <path
    d="M3.976 3.814c-.028-.046-.037.09-.056.045a3.033 3.033 0 01-.216-1.271s-.31.136-.563.708c-.046.1-.075.164-.112.218-.019.018.028-.19.028-.172-.047.072-.16.172-.206.3-.038.1-.085.163-.113.29-.01.036.01-.154 0-.127-.6 1.117-.712 2.806-.647 2.733 1.276-1.317 2.73-1.625 2.73-1.625-.18-.11-.517-.436-.845-1.1z"
    fill="url(#paint9_linear)"
  ></path>
  <path
    d="M8.798 17.562c-1.754-.727-3.752-1.753-3.677-4.077.104-3.06 2.955-2.461 2.955-2.461-.103.027-.394.227-.497.436-.103.263-.3.862.29 1.489.939.98-1.922 2.325 2.486 4.867.113.055-1.031-.036-1.557-.254z"
    fill="url(#paint10_linear)"
  ></path>
  <path
    d="M8.18 16.036c1.247.418 2.691.345 3.564-.118.581-.318 1.332-.817 1.782-.69-.394-.154-.694-.227-1.06-.236-.066 0-.131 0-.197-.009a5.77 5.77 0 00-.394.018c-.225.018-.469.155-.694.136-.01 0 .216-.09.197-.09-.122.027-.253.027-.385.045l-.253.027c-2.598.209-4.784-1.362-4.784-1.362-.187.6.835 1.807 2.223 2.28z"
    fill="url(#paint11_linear)"
  ></path>
  <path
    d="M20.486 19.55c2.626-2.497 3.949-5.52 3.386-8.926 0 0 .225 1.744-.628 3.524.412-1.744.46-3.905-.629-6.148-1.444-2.988-3.827-4.568-4.737-5.221-1.379-1-1.95-2.007-1.96-2.216-.413.817-1.66 3.614-.131 6.02 1.425 2.261 3.676 2.924 5.243 4.995 2.908 3.823-.544 7.973-.544 7.973z"
    fill="url(#paint12_linear)"
  ></path>
  <path
    d="M20.11 13.058c-.919-1.834-2.063-2.633-3.142-3.496.122.172.16.227.226.345.956.98 2.354 3.378 1.34 6.393-1.922 5.666-9.595 2.996-10.402 2.252.329 3.278 5.994 4.849 9.69 2.724 2.092-1.943 3.79-5.212 2.289-8.218z"
    fill="url(#paint13_linear)"
  ></path>
  <defs>
    <radialGradient
      id="paint0_radial"
      cx="0"
      cy="0"
      r="1"
      gradientUnits="userSpaceOnUse"
      gradientTransform="matrix(8.63123 .11965 -.11599 8.36718 23.263 3.386)"
    >
      <stop offset=".1" stop-color="#FFEA00"></stop>
      <stop offset=".17" stop-color="#FFDE00"></stop>
      <stop offset=".28" stop-color="#FFBF00"></stop>
      <stop offset=".43" stop-color="#FF8E00"></stop>
      <stop offset=".77" stop-color="#FF272D"></stop>
      <stop offset=".87" stop-color="#E0255A"></stop>
      <stop offset=".95" stop-color="#CC2477"></stop>
      <stop offset="1" stop-color="#C42482"></stop>
    </radialGradient>
    <radialGradient
      id="paint1_radial"
      cx="0"
      cy="0"
      r="1"
      gradientUnits="userSpaceOnUse"
      gradientTransform="matrix(24.5134 0 0 23.731 15.712 3.694)"
    >
      <stop stop-color="#00CCDA"></stop>
      <stop offset=".22" stop-color="#0083FF"></stop>
      <stop offset=".26" stop-color="#007AF9"></stop>
      <stop offset=".33" stop-color="#005FE7"></stop>
      <stop offset=".44" stop-color="#2639AD"></stop>
      <stop offset=".52" stop-color="#401E84"></stop>
      <stop offset=".57" stop-color="#4A1475"></stop>
    </radialGradient>
    <radialGradient
      id="paint3_radial"
      cx="0"
      cy="0"
      r="1"
      gradientUnits="userSpaceOnUse"
      gradientTransform="matrix(8.20093 .84568 -.81792 7.93166 21.005 17.994)"
    >
      <stop stop-color="#FFEA00"></stop>
      <stop offset=".5" stop-color="#FF272D"></stop>
      <stop offset="1" stop-color="#C42482"></stop>
    </radialGradient>
    <radialGradient
      id="paint4_radial"
      cx="0"
      cy="0"
      r="1"
      gradientUnits="userSpaceOnUse"
      gradientTransform="matrix(13.69133 .70551 -.68795 13.35049 23.332 5.315)"
    >
      <stop stop-color="#FFE900"></stop>
      <stop offset=".16" stop-color="#FFAF0E"></stop>
      <stop offset=".32" stop-color="#FF7A1B"></stop>
      <stop offset=".47" stop-color="#FF4E26"></stop>
      <stop offset=".62" stop-color="#FF2C2E"></stop>
      <stop offset=".76" stop-color="#FF1434"></stop>
      <stop offset=".89" stop-color="#FF0538"></stop>
      <stop offset="1" stop-color="#FF0039"></stop>
    </radialGradient>
    <radialGradient
      id="paint5_radial"
      cx="0"
      cy="0"
      r="1"
      gradientUnits="userSpaceOnUse"
      gradientTransform="matrix(12.56642 2.24397 -2.12559 11.9035 13.642 22.735)"
    >
      <stop stop-color="#FF272D"></stop>
      <stop offset=".5" stop-color="#C42482"></stop>
      <stop offset=".99" stop-color="#620700"></stop>
    </radialGradient>
    <radialGradient
      id="paint6_radial"
      cx="0"
      cy="0"
      r="1"
      gradientUnits="userSpaceOnUse"
      gradientTransform="matrix(19.7013 0 0 19.0725 18.005 9.244)"
    >
      <stop offset=".16" stop-color="#FFEA00"></stop>
      <stop offset=".23" stop-color="#FFDE00"></stop>
      <stop offset=".37" stop-color="#FFBF00"></stop>
      <stop offset=".54" stop-color="#FF8E00"></stop>
      <stop offset=".76" stop-color="#FF272D"></stop>
      <stop offset=".8" stop-color="#F92433"></stop>
      <stop offset=".84" stop-color="#E91C45"></stop>
      <stop offset=".89" stop-color="#CF0E62"></stop>
      <stop offset=".94" stop-color="#B5007F"></stop>
    </radialGradient>
    <radialGradient
      id="paint7_radial"
      cx="0"
      cy="0"
      r="1"
      gradientUnits="userSpaceOnUse"
      gradientTransform="matrix(22.4536 0 0 21.7369 16.875 .333)"
    >
      <stop offset=".28" stop-color="#FFEA00"></stop>
      <stop offset=".4" stop-color="#FD0"></stop>
      <stop offset=".63" stop-color="#FFBA00"></stop>
      <stop offset=".86" stop-color="#FF9100"></stop>
      <stop offset=".93" stop-color="#FF6711"></stop>
      <stop offset=".99" stop-color="#FF4A1D"></stop>
    </radialGradient>
    <linearGradient
      id="paint2_linear"
      x1="13.614"
      y1="17.779"
      x2="8.562"
      y2="2.585"
      gradientUnits="userSpaceOnUse"
    >
      <stop stop-color="#000F43" stop-opacity=".4"></stop>
      <stop offset=".48" stop-color="#001962" stop-opacity=".17"></stop>
      <stop offset="1" stop-color="#002079" stop-opacity="0"></stop>
    </linearGradient>
    <linearGradient
      id="paint8_linear"
      x1="3.734"
      y1="8.903"
      x2="13.433"
      y2="7.725"
      gradientUnits="userSpaceOnUse"
    >
      <stop stop-color="#C42482" stop-opacity=".5"></stop>
      <stop offset=".47" stop-color="#FF272D" stop-opacity=".5"></stop>
      <stop offset=".49" stop-color="#FF2C2C" stop-opacity=".51"></stop>
      <stop offset=".68" stop-color="#FF7A1A" stop-opacity=".72"></stop>
      <stop offset=".83" stop-color="#FFB20D" stop-opacity=".87"></stop>
      <stop offset=".94" stop-color="#FFD605" stop-opacity=".96"></stop>
      <stop offset="1" stop-color="#FFE302"></stop>
    </linearGradient>
    <linearGradient
      id="paint9_linear"
      x1="3.659"
      y1="6.448"
      x2="1.853"
      y2="3.414"
      gradientUnits="userSpaceOnUse"
    >
      <stop stop-color="#891551" stop-opacity=".6"></stop>
      <stop offset="1" stop-color="#C42482" stop-opacity="0"></stop>
    </linearGradient>
    <linearGradient
      id="paint10_linear"
      x1="5.501"
      y1="11.379"
      x2="8.146"
      y2="13.471"
      gradientUnits="userSpaceOnUse"
    >
      <stop offset=".01" stop-color="#891551" stop-opacity=".5"></stop>
      <stop offset=".48" stop-color="#FF272D" stop-opacity=".5"></stop>
      <stop offset="1" stop-color="#FF272D" stop-opacity="0"></stop>
    </linearGradient>
    <linearGradient
      id="paint11_linear"
      x1="9.549"
      y1="16.27"
      x2="9.571"
      y2="14.463"
      gradientUnits="userSpaceOnUse"
    >
      <stop stop-color="#C42482"></stop>
      <stop offset=".08" stop-color="#C42482" stop-opacity=".81"></stop>
      <stop offset=".21" stop-color="#C42482" stop-opacity=".57"></stop>
      <stop offset=".33" stop-color="#C42482" stop-opacity=".36"></stop>
      <stop offset=".45" stop-color="#C42482" stop-opacity=".2"></stop>
      <stop offset=".56" stop-color="#C42482" stop-opacity=".09"></stop>
      <stop offset=".67" stop-color="#C42482" stop-opacity=".02"></stop>
      <stop offset=".77" stop-color="#C42482" stop-opacity="0"></stop>
    </linearGradient>
    <linearGradient
      id="paint12_linear"
      x1="15.617"
      y1=".882"
      x2="28.38"
      y2="7.026"
      gradientUnits="userSpaceOnUse"
    >
      <stop stop-color="#FFF14F"></stop>
      <stop offset=".27" stop-color="#FFEE4C"></stop>
      <stop offset=".45" stop-color="#FFE643"></stop>
      <stop offset=".61" stop-color="#FFD834"></stop>
      <stop offset=".76" stop-color="#FFC41E"></stop>
      <stop offset=".89" stop-color="#FFAB02"></stop>
      <stop offset=".9" stop-color="#FFA900"></stop>
      <stop offset=".95" stop-color="#FFA000"></stop>
      <stop offset="1" stop-color="#FF9100"></stop>
    </linearGradient>
    <linearGradient
      id="paint13_linear"
      x1="17.145"
      y1="10.467"
      x2="13.431"
      y2="19.92"
      gradientUnits="userSpaceOnUse"
    >
      <stop stop-color="#FF8E00"></stop>
      <stop offset=".04" stop-color="#FF8E00" stop-opacity=".86"></stop>
      <stop offset=".08" stop-color="#FF8E00" stop-opacity=".73"></stop>
      <stop offset=".13" stop-color="#FF8E00" stop-opacity=".63"></stop>
      <stop offset=".18" stop-color="#FF8E00" stop-opacity=".56"></stop>
      <stop offset=".23" stop-color="#FF8E00" stop-opacity=".51"></stop>
      <stop offset=".28" stop-color="#FF8E00" stop-opacity=".5"></stop>
      <stop offset=".39" stop-color="#FF8E00" stop-opacity=".48"></stop>
      <stop offset=".52" stop-color="#FF8E00" stop-opacity=".42"></stop>
      <stop offset=".68" stop-color="#FF8E00" stop-opacity=".31"></stop>
      <stop offset=".84" stop-color="#FF8E00" stop-opacity=".17"></stop>
      <stop offset="1" stop-color="#FF8E00" stop-opacity="0"></stop>
    </linearGradient>
  </defs>
</svg>
