<svg viewBox="0 0 24 24" xmlns="http://www.w3.org/2000/svg">
  <path
    d="M20 23.018c0 .542-3.582.982-8 .982s-8-.44-8-.982c0-.543 4.202-.983 8-.983 4.522 0 8 .44 8 .983z"
    fill="#1A4658"
  ></path>
  <path
    d="M19.505 15.93c-.248 0-.514-.116-.705-1.002-.19-.886-.476-1.791-.476-1.791.305 0 .476-.135.476-.135-.21-.097-.667-.424-.971-.829-.305-.404-1.086-1.059-1.086-1.059v-1.31c0-.886.562-1.579.562-1.579-.381 0-.562.347-.562.347V6.703c0-1.849.924-2.677.924-2.677-.286-.02-.477.116-.477.116.134-1.368.548-1.772.548-1.772-1.524-.405-2.374.5-2.374.5-.171-.828.5-1.31.5-1.31-.782-.173-1.428.058-1.428.058 0-1.213.477-1.618.477-1.618-2.38 0-3.732 1.81-3.732 1.81-.096-.77.114-1.445.114-1.445-2.305.982-2.914 3.158-2.914 3.158-.152-.366-.171-1.197-.171-1.197s-.953 1.613-1.124 2.73c-.172 1.118.152 4.325.152 4.325s-.152-.193-.476-.231c0 0 .343.385.343 1.252 0 0-.134-.116-.362-.058 0 0 .362.327.4.886 0 0-.42.289-.648.578 0 0-.362.019-.552.077 0 0 .305.173.362.327 0 0-.895.925-1.353 1.676 0 0 .4-.25.686-.174 0 0-.628.77-.838 2.042 0 0 .305-.154.438-.077 0 0-.38.81-.4 1.657l-.419.25.324.231s-.248 1.04-.305 1.637c0 0 .19-.192.343-.25 0 0 .21.5.495.886.286.385.934.713 1.315.713l.716-.029c-.09.388-.264.716-.634.734l-.04.066a.45.45 0 00-.023 0c-.008.112-.234.133-.296.211-.188.238-.332.565-.428.857-.07.214-.037.214-.086.434-.016.071-.09.148-.114.221.205-.07.775-.117 1.076-.139l.005.269s.05.047.131.08h.01a.5.5 0 01.08.012c.45-.04.764.036 1.287-.008a.722.722 0 00.285-.078c.026-.076.03-.08.041-.18.003-.017.003-.035.007-.056a1.206 1.206 0 01.043-.007l.006-.002.025-.002a.025.025 0 01.016-.001c.094-.009.246-.017.34-.022.308 0 .712.035.712.035.025-.348.05-.888.607-2.463l.138-.086s1.712.61 3.3-.025c.125.313.531 1.364.595 2.026.055.078.049.177.05.281.002.088.01.177.012.265.057-.008.263-.034.524-.033.094.005.246.013.34.022.005-.002.01-.001.016.001l.025.002.007.002c.01 0 .015.002.018.003l.024.004c.005.021.005.04.007.057.012.098.016.103.04.18a.412.412 0 00.026.012c.284-.036.572-.043.858-.029.225.01.446.053.668.094v.007l.066.005c.119.022.238.042.358.055a9.624 9.624 0 00-.002-.401c.239.011.584.06.729.08.057.015.104.023.153.034l.02.006-.001-.002c.049.011.102.025.172.05-.01-.13-.01-.127-.027-.29-.013-.127-.102-.511-.27-.67 0 0 .183.08.238.112-.18-.246-.267-.599-.833-.842 0 0 .103-.05.198-.062a.418.418 0 00-.274-.078c.034-.098.183-.344.308-.375 0 0-.076-.054-.202-.012a1.214 1.214 0 00-.137.082c-.016.012-.04 0-.045-.019a4.216 4.216 0 01-.089-.449c1.14-.041 1.3-.633 1.3-.633.095.077.095.25.095.25.495-.654.438-1.31.438-1.31a.53.53 0 01.21.097c.057-1.001-.248-2.716-.248-2.716.152.077.248-.019.248-.019-.172-.077-.19-.27-.19-.27.247.02.285-.211.285-.211z"
    fill="#EDF7FA"
  ></path>
  <path
    d="M8.608 23.197s.044-.488-.113-.839c0 0 .298.02.348.815 0 0-.209.025-.235.024z"
    fill="#CDE9EE"
  ></path>
  <path
    d="M7.114 21.554l.002-.015c.001.007.001.013-.002.015z"
    fill="#CDE9EE"
  ></path>
  <path
    d="M7.393 23.159a.04.04 0 00-.003 0l.004-.01-.001.01z"
    fill="#CDE9EE"
  ></path>
  <path
    d="M11.18 1.81a3.84 3.84 0 01.115-1.445c-2.305.982-2.914 3.158-2.914 3.158-.152-.366-.171-1.197-.171-1.197s-.953 1.613-1.124 2.73c-.172 1.118.152 4.325.152 4.325s-.152-.193-.476-.231c0 0 .343.385.343 1.252 0 0-.134-.116-.362-.058 0 0 .362.327.4.886 0 0-.42.289-.648.578 0 0-.362.019-.552.077 0 0 .305.173.362.327 0 0-.895.925-1.353 1.676 0 0 .4-.25.686-.174 0 0-.628.77-.838 2.042 0 0 .305-.154.438-.077 0 0-.38.81-.4 1.657l-.419.25.324.231s-.248 1.04-.305 1.637c0 0 .19-.192.343-.25 0 0 .21.5.495.886.286.385.934.713 1.315.713l.048-.007a3.915 3.915 0 01-.08.395c-.005.019-.03.031-.046.02a1.207 1.207 0 00-.136-.083c-.126-.042-.203.012-.203.012.125.031.274.277.308.375a.418.418 0 00-.274.078.782.782 0 01.198.062c-.565.243-.653.596-.833.842a4.32 4.32 0 01.238-.111c-.167.158-.257.542-.27.668-.017.164-.016.16-.027.291.15-.053.223-.058.344-.087.188-.028.712-.1.905-.08l-.03.374h.009c.099-.029.18-.025.267-.034.002-.104.007-.207.015-.31a2.181 2.181 0 01.052-.514l.003-.018c.07-.243.192-.382.271-.467a.52.52 0 00.068-.096.978.978 0 00.134-.251c.079-.216.045-.69-.112-1.154.166.241.317.453.389.526l-.005-.59s.305.308.577.54c.132.116.294.267.409.327.008.006.015-.05.025.034 0 0 .002-.017.003-.016.154.088.313.157.462.255.016.01.032.015.048.026.069.048.19.101.299.16l.103 1.23c.093-1.294.821-2.532.821-2.532l-.026-.008c-.226-.07-1.875-.647-2.85-2.708-.064-.136.362.154.362.154-.4-.982-.552-2.562-.552-2.562a.576.576 0 00.266.135c-.285-.809-.4-1.81-.4-2.716-.076-4.873 1.705-5.99 1.705-5.99-.305-.116-.628-.106-.628-.106C8.8 6.01 9.97 4.816 9.97 4.816c-.314.019-1.542.356-1.542.356 1.019-2.687 2.047-3.4 2.047-3.4-.076.646.172 1.33.172 1.33C12.858.336 14.632.465 14.632.465c.132-.277.282-.466.282-.466-2.381 0-3.733 1.81-3.733 1.81z"
    fill="#CDE9EE"
  ></path>
  <path
    d="M17.426 23.181s-.021-.698-.178-1.05c0 0 .41.256.407 1.062l-.229-.012z"
    fill="#CDE9EE"
  ></path>
  <path
    d="M6.771 19.59c.27-2.671.343-7.898.343-7.898-.585 1.17-1.057 3.294-1.057 3.294l.114.462-.257-.116c-.413 1.45-.133 3.392-.04 3.94.262.21.575.28.897.318z"
    fill="#ABD8D7"
  ></path>
  <path
    d="M6.219 19.532c.083.428.17.84.267 1.265.071.01.152.005.152.005.065-.258.076-.658.127-1.15a2.414 2.414 0 01-.546-.12z"
    fill="#ABD8D7"
  ></path>
  <path
    d="M15.17 21.835a.028.028 0 01-.033-.013c-.03.006-.052.01-.068.015.393-.29.43-.595.43-.595a2.36 2.36 0 01-.673.179c.909-.796 1.06-2.275 1.06-2.275-.372.462-.9.852-1.308 1.114v-.002s-.273.155-.525.275a.029.029 0 00-.031.015c-.13.06-.25.11-.322.122 0 0 .21.393.298.605l-.017.014s.304.727.415 1.432c.012.12.02.223.027.303.005.103.013.174.013.174.402-.06.97-.001.97-.001-.002.066.034.225.04.254.191-.026.384-.038.577-.04-.003-.682-.032-1.817-.853-1.576z"
    fill="#CDE9EE"
  ></path>
  <path
    d="M6.75 19.796c-.631-.108-1.204-.841-1.204-.841a1.84 1.84 0 001.033.561c.076-.565-.386-1.858-.386-1.858.342.43.53.929.631 1.336l-.074.802z"
    fill="#83BAC0"
  ></path>
  <path
    d="M8.182 18.796s.497.885.932 1.268c.47.413.907.996 1.093 1.35 0 0 .236-.554.364-.746 0 0-1.392-.413-2.389-1.872z"
    fill="#ABD8D7"
  ></path>
  <path
    d="M14.662 20.522c.069-.099.148-.19.223-.283.124-.153.265-.302.369-.468-.18.135-.379.253-.583.377-.591.405-1.003.52-1.003.52.128.192.364.746.364.746a4.9 4.9 0 01.565-.806c.021-.03.044-.058.065-.086z"
    fill="#ABD8D7"
  ></path>
  <path
    d="M7.994 5.62c-.054.003-.228.008-.228.008-1.57.11-2.724-1.12-2.724-1.12s-.104.96.579 1.802c.682.842 2.065.986 2.065.986.045.197-.053.636-.053.636s.405-.452.507-1.31c.073-.6-.113-1.005-.146-1.003z"
    fill="#545352"
  ></path>
  <path
    d="M7.994 5.62l-.228.008c-1.57.11-2.724-1.12-2.724-1.12s.717 2.1 3.113 1.934c0 0 .066-.389-.161-.823z"
    fill="#6E7979"
  ></path>
  <path
    d="M15.835 5.62c.054.003.227.008.227.008 1.57.11 2.725-1.12 2.725-1.12s.103.96-.579 1.802c-.682.842-2.065.986-2.065.986-.045.197.052.636.052.636s-.404-.452-.507-1.31c-.072-.6.113-1.005.147-1.003z"
    fill="#545352"
  ></path>
  <path
    d="M15.835 5.62l.227.008c1.57.11 2.725-1.12 2.725-1.12s-.717 2.1-3.113 1.934c0 0-.067-.389.16-.823z"
    fill="#6E7979"
  ></path>
  <path d="M7.174 12.732s-1.129 4.103 0 6.732v-6.732z" fill="#CDE9EE"></path>
  <path
    d="M18.414 19.222c-.557.43-1.137.457-1.137.457-.025-.562.582-1.79.582-1.79-.138.083-.25.183-.34.292l-.005-.412.438-.366-.352-.289.448-1.82-.429.289s-.133-2.59-.038-3.708c0 0-.543-.549-.81-.77 0 0 .05.797.108 2.072.244 1.022.621 3.138.151 4.998.006.378.01.76.012 1.147 0 0 .234.823.31 1.401 0 0 .076.022.19.003l-.008-.885c.589-.18.88-.62.88-.62z"
    fill="#CDE9EE"
  ></path>
  <path
    d="M13.133 11.278c0 .437.277.792.62.792.341 0 .618-.355.618-.792 0-.438-.277-.793-.619-.793-.342 0-.619.355-.619.793z"
    fill="#CDE9EE"
  ></path>
  <path
    d="M13.152 11.066c0 .43.273.78.61.78.336 0 .61-.35.61-.78 0-.43-.274-.78-.61-.78-.337 0-.61.35-.61.78z"
    fill="#fff"
  ></path>
  <path
    d="M13.6 10.664a.246.246 0 00-.008.06c0 .11.07.199.158.199.078 0 .142-.07.155-.163a.42.42 0 01.08.253c0 .204-.13.368-.292.368-.162 0-.293-.165-.293-.368 0-.163.084-.3.2-.35z"
    fill="#474746"
  ></path>
  <path
    d="M10.162 11.278c0 .437.277.792.619.792.342 0 .619-.355.619-.792 0-.438-.277-.793-.62-.793-.341 0-.618.355-.618.793z"
    fill="#CDE9EE"
  ></path>
  <path
    d="M10.18 11.066c0 .43.274.78.61.78.337 0 .61-.35.61-.78 0-.43-.273-.78-.61-.78-.336 0-.61.35-.61.78z"
    fill="#fff"
  ></path>
  <path
    d="M10.743 10.664a.241.241 0 00-.008.06c0 .11.07.199.158.199.077 0 .142-.07.155-.163a.42.42 0 01.08.253c0 .204-.13.368-.292.368-.162 0-.293-.165-.293-.368 0-.163.084-.3.2-.35z"
    fill="#474746"
  ></path>
  <path
    d="M15.364 11.9c-.039.117-.17.149-.547.222l-.025.005c-.368.072-1.027.063-1.387.01a2.3 2.3 0 01-.045-.008c-.335-.057-.372-.1-.48-.276-.111-.181-.18-.713-.192-.818v-.006c-.014-.11-.02-.166.12-.23.19-.086 1.031-.206 1.376-.222.272-.012.85.027 1.113.066a.91.91 0 01.091.016c.03.008.142.063.137.184-.008.158-.109.896-.161 1.056zm-3.67-.87v.005c-.013.105-.081.637-.192.818-.108.175-.146.22-.48.276a2.3 2.3 0 01-.045.007c-.36.054-1.019.063-1.387-.009l-.025-.005c-.376-.073-.508-.104-.547-.223-.053-.16-.153-.898-.16-1.056-.006-.12.105-.175.136-.184a.913.913 0 01.09-.017 8.04 8.04 0 011.114-.065c.344.016 1.186.136 1.375.222.141.064.135.12.121.23zm4.152-.704a6.96 6.96 0 00-1.336-.057 16.1 16.1 0 00-1.783.208 8.698 8.698 0 01-.274.043l-.075.01c-.085.012-.14.02-.187.022a2.275 2.275 0 01-.187-.022l-.075-.01c-.07-.01-.16-.024-.275-.043a15.838 15.838 0 00-1.782-.208 6.96 6.96 0 00-1.337.057s-.294.038-.546.146l.048.324s.266-.064.526-.1c.048.457.142 1.044.142 1.044l.002.018.021.09c.054.23.107.366.32.447.21.08.708.155 1.21.181.186.01.398-.002.612-.033.317-.047.604-.134.714-.216.16-.119.245-.42.302-.618l.017-.058c.02-.068.037-.14.054-.208.024-.1.049-.202.07-.237.004-.006.022-.027.091-.038a.56.56 0 01.146 0c.07.01.087.032.091.038.021.035.046.138.07.237.017.069.034.14.054.208l.017.058c.057.199.142.5.302.618.11.082.397.169.714.216.214.031.426.043.612.033.502-.026.999-.1 1.21-.18.213-.082.266-.218.32-.448l.02-.09.002-.018s.094-.587.143-1.043c.26.035.526.099.526.099l.048-.324c-.252-.108-.546-.146-.546-.146z"
    fill="#545352"
  ></path>
  <path
    d="M10.972 9.506s-.689-.332-1.083.285c0 0-.04-.613.516-.682.556-.069.567.397.567.397z"
    fill="#A0D1DE"
  ></path>
  <path
    d="M10.714 8.605s-.639-.304-.93.281c0 0-.094-.511.361-.635.456-.123.569.354.569.354z"
    fill="#A0D1DE"
  ></path>
  <path
    d="M13.438 9.882s.535-.258.841.221c0 0 .032-.476-.4-.53-.432-.053-.44.31-.44.31z"
    fill="#A0D1DE"
  ></path>
  <path
    d="M13.819 9.03s.54-.09.633.41c0 0 .18-.36-.134-.551-.313-.192-.5.14-.5.14z"
    fill="#A0D1DE"
  ></path>
  <path
    d="M10.924 14.364s.378-.257.6-.292c0 0 .05.484.271.723 0 0 .478-.436.951-.467 0 0 .122.266.32.364v.003a.816.816 0 00.244.11s.271-.166.35-.47c0 0 .026.641-.372.99 0 0-.303-.15-.521-.389a.999.999 0 01-.167-.2s-.702.501-.727.787c0 0-.507-.499-.68-.884 0 0-.337.108-.43.178 0 0-.272-.45-.328-.855 0 0 .327.316.49.402z"
    fill="#B2DCE5"
  ></path>
  <path
    d="M12.199 13.105c-.028-.006.711.052 1.438.026 0 0 .038-.14.094-.217 0 0-.012.235.053.284 0 0-.363.144-.73.143 0 0 .4-.067.534-.137 0 0-.73.041-1.389-.1z"
    fill="#545352"
  ></path>
</svg>
