<svg viewBox="0 0 24 24" xmlns="http://www.w3.org/2000/svg">
  <path d="M12 23l4.42-13.534H7.58L12 23z" fill="#E24329"></path>
  <path d="M12 23L7.58 9.466H1.389L12 23z" fill="#FC6D26"></path>
  <path
    d="M1.388 9.466L.045 13.579a.908.908 0 00.332 1.018L12 23 1.388 9.466z"
    fill="#FCA326"
  ></path>
  <path
    d="M1.388 9.466H7.58L4.919 1.315a.458.458 0 00-.87 0L1.388 9.466z"
    fill="#E24329"
  ></path>
  <path d="M12 23l4.42-13.534h6.192L12 23z" fill="#FC6D26"></path>
  <path
    d="M22.612 9.466l1.343 4.113a.908.908 0 01-.332 1.018L12 23 22.612 9.466z"
    fill="#FCA326"
  ></path>
  <path
    d="M22.612 9.466H16.42l2.662-8.151a.458.458 0 01.87 0l2.661 8.151z"
    fill="#E24329"
  ></path>
</svg>
