<svg viewBox="0 0 24 24" xmlns="http://www.w3.org/2000/svg">
  <path
    d="M22.47 20.979H1.5c-.812 0-1.497-.654-1.497-1.477V4.562c0-.802.663-1.478 1.498-1.478H22.47c.813 0 1.497.655 1.497 1.478v14.94c0 .823-.663 1.477-1.497 1.477z"
    fill="#E3E3E3"
  ></path>
  <path
    opacity=".1"
    d="M2.999 20.979l8.965-7.111.064-.38-9.243-6.563-.022 13.737.236.317z"
    fill="#231F20"
  ></path>
  <path
    d="M1.5 20.979a1.478 1.478 0 01-1.497-1.477V4.54c0-.823.663-.97 1.498-.97.834 0 1.498.169 1.498.97V20.98H1.5z"
    fill="#D54B3D"
  ></path>
  <path
    d="M1.5 3.78c1.07 0 1.285.317 1.285.76v16.228H1.5c-.706 0-1.284-.57-1.284-1.266V4.54c0-.464.214-.76 1.284-.76zm0-.21c-.834 0-1.497.169-1.497.97v14.962c0 .823.663 1.477 1.498 1.477h1.498V4.54c0-.823-.664-.97-1.498-.97z"
    fill="#D72B27"
  ></path>
  <path
    d="M22.47 20.979h-1.498V4.499c0-.824.663-.93 1.498-.93.834 0 1.497.106 1.497.93v15.024c0 .802-.663 1.456-1.497 1.456z"
    fill="#D54B3D"
  ></path>
  <path
    d="M22.47 3.78c.963 0 1.284.19 1.284.718v15.025c0 .696-.578 1.266-1.284 1.266h-1.284V4.499c0-.55.32-.718 1.284-.718zm0-.21c-.835 0-1.498.105-1.498.928V21h1.498c.834 0 1.497-.654 1.497-1.477V4.498c0-.823-.663-.928-1.497-.928z"
    fill="#D72B27"
  ></path>
  <path
    d="M16.05 20.979L.129 5.154l.838.336 11.083 7.871 11.918-8.619v14.78c0 .803-.663 1.457-1.497 1.457h-6.42z"
    fill="url(#paint0_linear)"
  ></path>
  <path
    d="M11.964 13.868L.645 5.764C-.018 5.28-.211 4.351.281 3.696c.492-.654 1.455-.801 2.14-.316l9.564 6.858 9.629-6.942a1.502 1.502 0 012.097.337 1.455 1.455 0 01-.343 2.068l-11.404 8.167z"
    fill="#D54B3D"
  ></path>
  <path
    d="M22.47 3.211c.406 0 .791.19 1.048.528.407.57.278 1.35-.278 1.772l-11.276 8.103L.774 5.596C.195 5.173.045 4.372.451 3.823a1.354 1.354 0 011.07-.528c.278 0 .557.085.77.254l9.543 6.837.129.084.128-.084L21.7 3.443c.236-.148.492-.232.77-.232zm0-.211c-.3 0-.62.084-.878.274l-9.628 6.943L2.4 3.359a1.506 1.506 0 00-.9-.275c-.47 0-.94.211-1.24.612-.47.655-.278 1.583.385 2.068l11.319 8.125L23.347 5.7a1.49 1.49 0 00.342-2.068A1.472 1.472 0 0022.47 3z"
    fill="#D72B27"
  ></path>
  <defs>
    <linearGradient
      id="paint0_linear"
      x1=".129"
      y1="12.86"
      x2="23.975"
      y2="12.86"
      gradientUnits="userSpaceOnUse"
    >
      <stop stop-opacity=".1"></stop>
      <stop offset="1" stop-opacity=".2"></stop>
    </linearGradient>
  </defs>
</svg>
