<svg viewBox="0 0 24 24" xmlns="http://www.w3.org/2000/svg">
  <path
    d="M14.715 23.276l.213-3.836.588-1.086s-1.338.592-3.58.592-3.56-.58-3.56-.58l.659 1.183.233 3.727c0 .4 1.22.724 2.723.724 1.505 0 2.724-.324 2.724-.724zM14.043 5.36l.447-1.91L16.967.631l-.653-.6-2.622 3-.52 2.282A32.64 32.64 0 0012 5.292c-2.761 0-5 .34-5 .76 0 .419 2.239.759 5 .759s5-.34 5-.76c0-.309-1.214-.575-2.957-.693z"
    fill="#D34A47"
  ></path>
  <path
    d="M13.783 6.428s-.097.024-.382.025c-.285.001-.487-.002-.568-.081a.144.144 0 01-.033-.092c0-.055.036-.087.081-.107l.044.073c-.02.007-.03.015-.03.024 0 .042.292.07.514.067.223-.003.493-.023.493-.064 0-.012-.02-.024-.056-.033l.043-.072c.058.019.109.056.109.121-.001.11-.13.127-.215.14z"
    fill="#fff"
  ></path>
  <path
    d="M16.962.638c.062-.078-.032-.277-.211-.444-.179-.168-.375-.24-.437-.163-.062.078.032.277.211.444.18.168.375.24.437.163zm-2.366 13.266c-.059-.61 1.235-1.494.903-1.522-.715.044-1.07.905-1.43 1.807-.132.33-.583 1.74-.879 1.567-.295-.174.384-1.333.574-2.021-.22.174-1.025.85-1.233.217-.333.306-1.046.472-.966-.332-.178.34-.576.814-1.054.617-.628-.26.364-2.421.61-2.312.247.109-.05.601-.127.793-.17.42-.368.95-.236 1.058.226.186.84-.702.854-.722.114-.164.442-1.237.706-1.114.264.123-.658 1.54-.314 1.822.07.057.354-.035.527-.237.112-.131.074-.421.447-1.383s.706-2.16.962-2.069c.256.091.045.706-.047.935-.43 1.076-1.176 2.854-.825 2.719.352-.135.535-.142.879-.578.344-.435.328-1.152.558-1.136.23.015.19.245.135.42.226-.28 1.07-.867 1.274-.285.241.69-1.208 1.685-.847 1.634.353-.05.924-.44 1.167-.795l.671-6.518s-.675.603-4.97.603-4.9-.59-4.9-.59l.571 5.949C7.91 11.5 8.63 9.616 9.764 9.679c.516.03 1.205 1.103.615 1.14-.25.015-.275-.537-.571-.618-.214-.058-.51.13-.703.333-.383.405-1.207 2.004-1.098 2.8.139 1.017 1.297-.352 1.493-.759.139-.286.232-1.135.534-1.046.302.09-.027.965-.245 1.74-.246.868-.376 1.785-.684 1.68-.308-.106.194-1.228.176-1.424-.29.288-.824 1.02-1.507.658l.355 3.695s.943.805 3.783.805 3.817-.793 3.817-.793l.441-4.28c-.36.38-1.5 1.054-1.574.294z"
    fill="#D34A47"
  ></path>
</svg>
