<svg viewBox="0 0 24 24" xmlns="http://www.w3.org/2000/svg">
  <path
    fill-rule="evenodd"
    clip-rule="evenodd"
    d="M20.8 0c1.215 0 2.2.967 2.2 2.16v19.68c0 1.193-.985 2.16-2.2 2.16H3.2C1.985 24 1 23.033 1 21.84V2.16C1 .967 1.985 0 3.2 0h17.6zm0 1.2H3.2a.97.97 0 00-.978.96v19.68c0 .53.439.96.978.96h17.6a.97.97 0 00.978-.96V2.16a.97.97 0 00-.978-.96zM6.806 15.6l2.75 2.4-2.75 2.4v-4.8zm2.444-12v6.813c1.22-.39 2.926-.813 4.583-.813 1.511 0 2.416.583 2.908 1.072 1.008 1.001 1.063 2.264 1.065 2.503V20.4H15.36v-7.167c-.012-.56-.287-1.233-1.528-1.233-2.374 0-5.024 1.12-5.28 1.23l-.02.01-1.727.768V3.6H9.25zm8.556 0c-.165 1.363-.728 2.67-1.834 3.9h-2.444c.96-1.237 1.564-2.54 1.833-3.9h2.445z"
    fill="#430098"
  ></path>
</svg>
