<svg viewBox="0 0 24 24" xmlns="http://www.w3.org/2000/svg">
  <path
    d="M20.8 0H3.2C1.985 0 1 .967 1 2.16v19.68C1 23.033 1.985 24 3.2 24h17.6c1.215 0 2.2-.967 2.2-2.16V2.16C23 .967 22.015 0 20.8 0zM6.5 20.4v-4.8L9.25 18 6.5 20.4zm8.556 0v-7.167c-.012-.56-.287-1.233-1.528-1.233-2.486 0-5.274 1.227-5.301 1.24l-1.727.447V3.6h2.444v6.813c1.22-.39 2.927-.813 4.584-.813 1.51 0 2.415.583 2.908 1.072 1.051 1.044 1.066 2.374 1.064 2.528v7.2h-2.444zm.61-12.9h-2.444c.96-1.237 1.564-2.54 1.834-3.9H17.5c-.165 1.363-.728 2.67-1.833 3.9z"
    fill="#430098"
  ></path>
</svg>
