<svg viewBox="0 0 24 24" xmlns="http://www.w3.org/2000/svg">
  <path
    d="M22 0l-1.822 21.598L11.988 24 3.82 21.6 2 0h20z"
    fill="#E44D26"
  ></path>
  <path
    d="M12 22.164l6.618-1.942 1.557-18.456H12v20.398z"
    fill="#F16529"
  ></path>
  <path
    d="M8.458 7.065H12v-2.65H5.722l.06.711.615 7.3H12V9.779H8.687l-.229-2.713z"
    fill="#EBEBEB"
  ></path>
  <path
    d="M9.022 13.752H6.51l.35 4.16 5.13 1.506.011-.004v-2.756l-.011.003-2.788-.797-.179-2.112z"
    fill="#EBEBEB"
  ></path>
  <path
    d="M11.991 12.427h3.084l-.291 3.436-2.793.797v2.756l5.133-1.505.038-.447.588-6.975.061-.711h-5.82v2.649z"
    fill="#fff"
  ></path>
  <path
    d="M11.991 7.058v.007h6.048l.05-.596.114-1.343.06-.71h-6.272v2.642z"
    fill="#fff"
  ></path>
</svg>
