<svg viewBox="0 0 24 24" xmlns="http://www.w3.org/2000/svg">
  <path
    fill-rule="evenodd"
    clip-rule="evenodd"
    d="M5.33 12.848v-1.892a.69.69 0 00-.357-.598l-1.82-1.03a.875.875 0 00-.874.009l-1.616.959a.89.89 0 00-.443.763v1.938c0 .308.17.594.447.75l1.684.947c.224.125.5.128.727.007l1.865-1a.719.719 0 00.386-.631v-.222z"
    fill="#FF4088"
  ></path>
  <path
    fill-rule="evenodd"
    clip-rule="evenodd"
    d="M2.726 9.007h.052l.005.001h.013l.004.001h.01l.004.001h.009l.005.001h.008l.005.001h.004l.005.001h.004l.004.001h.009l.005.001.004.001h.005l.004.001.004.001h.005l.004.001h.004l.005.001.004.001.004.001h.005l.004.002h.004l.005.001h.004l.004.002h.005l.004.002h.004l.005.002h.004l.004.001.005.001.004.001.004.001.005.002h.004l.004.002h.004l.005.002h.004l.004.002.005.001.004.001.004.002h.005v.001l.004.001.004.001.005.002.004.001.004.001.005.002.004.001.004.001.004.002.005.001.004.002.004.001.004.001.004.002.005.001.004.002.004.001.004.002.005.001.004.002.004.002.004.001.004.002.005.002.004.001.004.002.004.002.004.002.004.001.004.002.005.002.004.001.004.002.004.002.004.002.004.002.004.002.004.001.005.002.004.002.004.002.004.002.004.002.004.002.004.002.004.002.004.002.004.002.004.002.004.002.004.003.004.002.004.002.004.002.004.003.004.002 1.822 1.03.004.002.003.002.003.002.003.002.004.002.003.002.003.002.003.002.004.002.003.002.003.002.004.002.003.002.003.002.003.002.003.002.003.002.004.002.003.002.003.002.003.002.003.002.003.002.003.002.003.002.003.002.003.003.003.002.003.002.004.003.003.002.003.002.003.002.003.003.006.004.005.005h.001l.005.005.006.004.006.005.006.005.005.005h.001l.005.004.006.005.005.005.006.005.005.005.006.005.005.005v.001l.005.005h.001l.005.005.005.005.005.005v.001l.005.005.005.005.005.005.001.001.004.005.005.005.001.001.004.005h.001l.004.005v.001l.005.005.005.006.005.005.004.006h.001l.004.006.005.005v.001l.004.005.005.006.004.006.004.006.005.006.004.006.004.006.004.006.004.006.004.006.005.006.004.006.004.006.004.006v.001l.003.005v.001l.004.006.004.006.004.006v.001l.003.006.004.006.004.007.003.006.003.007.004.006.003.007.003.006.004.007.003.006v.001l.003.006.003.007.003.006v.001l.003.006.002.007.003.006v.001l.003.006v.001l.002.006.003.007.003.007.002.007.003.006v.001l.002.006.002.007.002.007.003.007.002.007.002.007.002.007.002.007.002.007.002.007.002.007.002.007v.001l.002.006v.001l.001.007.002.007.001.007.002.007.001.007.001.007v.001l.002.007.001.007.001.007v.001l.001.007v.004l.001.003v.004l.001.003v.004l.001.004v.004l.001.003v.008l.001.003v.004l.001.004v.007l.001.004v.015l.001.004v.018l.001.004v2.184l-.001.004v.015l-.001.004v.012l-.001.003v.008l-.001.004v.004l-.001.004v.004l-.001.004v.003l-.001.004v.004l-.001.004v.004h-.001v.004l-.001.004v.004l-.001.003-.001.004v.004l-.001.004v.004l-.001.003-.001.004v.004l-.001.003v.004h-.001v.004l-.002.004v.004l-.001.003-.001.004v.004l-.001.004-.001.003-.001.004-.001.003v.004h-.001v.004h-.001v.003h-.001v.004h-.001l-.001.004v.003h-.001l-.001.004-.001.004-.001.004-.001.003-.001.004-.001.004-.001.004-.002.003v.004h-.001l-.001.003-.001.004-.001.004-.002.003v.004h-.001l-.001.004-.001.003-.002.004-.001.004-.001.004-.002.003v.004h-.001l-.001.003-.002.004v.004h-.001l-.001.003-.001.004-.002.004-.001.003-.002.004-.001.003-.002.004-.001.003-.002.004-.001.003-.002.004-.001.004-.002.003-.001.004-.002.003-.002.004-.001.003-.002.004-.002.003-.001.003-.002.004-.002.003-.001.004-.002.003-.002.004-.001.003-.002.003-.002.004-.002.003-.002.004-.001.003-.002.004-.002.003-.002.004-.002.003-.002.003-.002.004-.002.003-.002.003-.001.003-.002.004-.002.003-.002.003-.002.004-.002.003-.002.003-.002.004-.002.003-.002.003-.003.003-.002.003-.002.003-.002.004-.002.003-.003.003-.002.003-.002.003-.002.003-.002.004-.002.003-.003.003-.002.003-.002.003-.002.003-.003.003-.002.003-.002.004-.003.003-.002.003-.003.003-.002.003-.002.003-.003.003-.002.002-.002.004-.003.003-.003.003-.002.003-.002.003-.003.003-.003.002-.002.003-.003.003-.002.003-.003.003-.003.003-.002.003-.003.003-.002.003-.003.003-.003.003-.002.003-.003.003-.002.002-.003.003-.003.003-.003.003-.002.003-.003.002-.003.003-.003.003-.002.003-.003.002-.003.003-.003.003-.003.003-.003.003-.003.002-.002.003-.003.003-.003.002-.003.003-.003.003-.003.002-.003.003-.003.002-.003.003-.003.003-.003.002-.003.003-.003.002-.003.002-.003.003-.003.003-.003.002-.003.003-.004.002-.003.003-.003.002-.003.003-.003.002-.003.003-.003.002-.003.002-.004.003-.003.002-.003.003-.003.002-.003.002-.004.003-.003.002-.003.002-.003.002-.004.003-.003.002-.003.002-.004.002-.003.003-.004.002-.003.002-.003.002-.004.003-.003.002-.003.002-.004.002-.003.002-.004.002-.003.002-.004.002-.003.002-.004.002-.003.003-.004.002-.003.002-.004.002-.003.002-.004.002-.003.002-.004.002-.004.002-.003.001-1.865 1-.003.002-.004.002-.003.002-.004.002-.003.001-.004.002-.003.002-.004.001-.003.002-.004.002-.003.001-.003.002-.004.002-.003.001-.004.002-.003.002-.003.001-.004.002-.003.001-.004.002-.003.001-.004.002-.004.001-.003.002-.004.001-.003.002-.004.001-.003.002-.004.001-.003.002h-.004v.001l-.004.001-.003.002h-.004v.001l-.004.001-.003.002-.004.001-.004.001-.003.002H3.04v.001l-.004.001-.003.001-.004.002h-.003l-.004.002-.004.001-.003.001-.004.001-.004.001-.003.002H3l-.004.002-.007.002-.007.002h-.001l-.007.002-.007.002-.007.002-.007.002-.007.001h-.001l-.007.002-.007.002H2.93l-.007.001-.007.002h-.001l-.007.001-.008.002-.007.001-.007.002h-.008l-.008.002-.007.001-.008.001-.007.001h-.001l-.007.001-.007.001h-.001l-.007.001-.008.001H2.81l-.007.001h-.008l-.007.001H2.78l-.007.001h-.016l-.007.001h-.075l-.007-.001H2.66l-.007-.001h-.008l-.001-.001h-.007l-.007-.001h-.001l-.007-.001h-.008v-.001h-.008l-.007-.002H2.59l-.007-.002h-.008l-.007-.002h-.001l-.007-.001-.007-.001-.007-.002h-.001l-.007-.001-.007-.002h-.008v-.001l-.007-.001h-.001l-.007-.002-.007-.002H2.5l-.007-.002-.007-.002-.007-.002h-.001l-.007-.002-.007-.002h-.001l-.007-.002-.007-.002h-.001l-.007-.002-.007-.002-.007-.002-.004-.002H2.42l-.004-.002-.003-.001-.004-.001-.004-.002h-.003l-.004-.002-.004-.001-.003-.002-.004-.001-.003-.001-.004-.002-.004-.001-.003-.002-.004-.001-.003-.001-.004-.002-.004-.001-.003-.002-.004-.001-.004-.001-.003-.002-.004-.002-.003-.001-.004-.002H2.33l-.001-.001-.003-.002-.004-.001-.003-.002-.004-.001-.003-.002-.004-.001-.003-.002-.003-.002H2.3l-.003-.002-.004-.001-.003-.002-.004-.002-.003-.002-.004-.001-.003-.002-.003-.002-.004-.001-.003-.002-.004-.002-.003-.002-.004-.002-.003-.001-.004-.002-.003-.002-.004-.002-1.686-.947-.003-.002-.004-.002-.004-.002-.004-.003-.004-.002-.004-.003-.004-.002-.004-.002-.004-.003-.004-.002h.001l-.004-.002-.004-.003-.003-.002-.004-.003-.004-.003-.004-.002-.004-.003-.004-.002-.004-.003-.004-.003-.003-.002-.004-.003-.004-.002-.004-.003-.003-.003-.004-.002-.004-.003-.004-.002-.003-.003-.004-.003-.004-.003-.003-.002-.004-.003-.003-.003-.004-.002-.003-.003-.004-.003-.003-.003-.004-.003-.004-.003-.003-.002-.003-.003-.004-.003-.004-.003-.003-.003-.003-.002-.004-.003-.003-.003-.004-.003-.003-.003-.003-.003-.004-.003-.003-.003-.004-.003-.003-.003-.003-.003-.003-.003-.004-.003-.003-.003-.003-.003-.004-.003-.003-.004-.003-.003-.003-.003-.003-.003-.004-.003-.003-.003-.003-.003-.003-.003-.003-.004-.003-.003-.004-.003-.003-.003-.003-.004-.003-.003-.003-.003-.003-.003-.003-.004-.003-.003-.003-.003-.003-.004-.003-.003-.003-.003-.003-.003-.002-.004-.004-.003-.002-.003-.003-.004-.003-.003-.003-.003-.003-.004-.003-.003-.003-.003-.003-.004-.002-.003-.003-.004-.003-.003-.002-.004-.003-.003-.003-.004-.003-.003-.002-.004-.003-.003-.002-.003-.003-.004-.003-.004-.002-.003-.003-.004-.002-.003-.003-.004-.002-.004-.003-.003-.003-.004-.002-.003-.003-.004-.002-.004-.002-.003-.003-.004-.003-.004-.002-.003-.002-.004-.003-.003-.002-.004-.002-.004-.003-.004-.002-.003-.002-.004-.003-.004-.002-.004-.002-.004-.002-.003-.003-.004-.002-.004-.002-.004-.002-.004-.002-.003-.002-.004-.002-.004-.002-.004-.002-.004-.002-.004-.002-.004-.002-.004-.002-.004-.002-.003-.002-.004-.002-.004-.002-.004-.002-.004-.002-.004-.002-.004-.002-.003-.002-.004-.001-.004-.002-.004-.002-.004-.002-.004-.002-.004-.002-.004-.001-.004-.002-.004-.001-.004-.002-.004-.002-.004-.002-.004-.001-.004-.002-.004-.001-.004-.002-.004-.002-.004-.001-.004-.002-.005-.001-.004-.002-.004-.001-.004-.002-.004-.001-.004-.002-.004-.001-.004-.001-.004-.002-.005-.001-.004-.002-.004-.001-.004-.001-.005-.002-.004-.001-.004-.001-.004-.002-.004v-.005H.04l-.001-.004-.001-.004-.001-.004-.001-.004-.001-.004-.002-.004v-.005l-.002-.004v-.004L.03 13.24v-.004l-.002-.004v-.004H.026v-.005l-.002-.004v-.004H.023v-.005H.022v-.004l-.002-.004v-.004l-.001-.005-.001-.004-.001-.004-.001-.005v-.004H.015v-.005l-.001-.004-.001-.004v-.005l-.001-.003-.001-.005v-.004l-.001-.004v-.005l-.001-.004-.001-.004v-.005l-.001-.004v-.004l-.001-.005v-.004l-.001-.005-.001-.004v-.009H.003v-.009l-.001-.004v-.01l-.001-.004v-.014L0 13.045V11.02l.001-.004v-.02l.001-.005v-.012l.001-.005v-.009l.001-.004v-.004l.001-.005v-.004l.001-.005v-.004l.001-.004v-.005l.001-.004v-.005l.001-.004v-.005H.01v-.004l.001-.004v-.005l.001-.004.001-.005v-.004l.001-.004.001-.005v-.004l.002-.004v-.005l.002-.004v-.004l.001-.005.001-.004.001-.004.001-.004.001-.005v-.004l.002-.004v-.004l.002-.004v-.005H.03v-.004l.002-.004V10.8h.001l.001-.004v-.004h.001l.001-.005.001-.004.001-.004.001-.004.002-.004v-.005l.002-.004.001-.004.002-.004v-.005h.001l.001-.004.002-.004v-.004l.001-.004.001-.004.002-.005.001-.004.002-.004v-.004h.001l.001-.004.002-.004.001-.004.002-.005.001-.004.002-.004.001-.004.002-.004.001-.004.002-.004.001-.004.002-.004.002-.004.001-.004.002-.004.002-.004.002-.004.002-.004.001-.005.002-.004.002-.004.002-.004.001-.004.002-.004.002-.004.002-.004.002-.004.002-.004.002-.004.002-.004.002-.004.001-.004.002-.003.002-.004.002-.004.002-.004.002-.004.002-.004.002-.004.003-.004.002-.004.002-.003.002-.004.002-.004.002-.004.002-.003.002-.004.003-.004.002-.004.002-.004.002-.003.002-.004.003-.004.002-.003.002-.004.003-.004.002-.004.002-.003.003-.004.002-.004.003-.004.002-.003.002-.004.003-.003.002-.004.003-.004.002-.003.003-.004.002-.003.003-.004.002-.004.003-.003.003-.004.002-.003.003-.004.002-.003.003-.004.003-.003.002-.004.003-.003.003-.004.002-.003.003-.004.003-.003.002-.004.003-.003.003-.003.003-.004.003-.003.003-.004.003-.003.003-.004.002-.003.003-.003.003-.004.003-.003.003-.003.003-.004.003-.003.003-.003.003-.004.003-.003.003-.003.003-.004.003-.003.003-.003.003-.003.003-.004.003-.003.003-.003.003-.003.004-.003.003-.004.003-.003.003-.003.003-.003.004-.003.003-.003.003-.003.003-.003.004-.003.003-.004.003-.003.003-.003.004-.003.003-.003.003-.003.004-.003.003-.003.003-.003.004-.003.003-.002.004-.003.003-.003.003-.003.004-.003.004-.003.003-.003.004-.003.003-.002.004-.003.003-.003.004-.002.003-.003.004-.003.003-.003.004-.003.004-.003.003-.002.004-.003.004-.003.003-.002.004-.003.003-.003.004-.003.004-.002.004-.003.003-.002.004-.003.004-.002.004-.003.004-.002.003-.003.004-.002.004-.003.004-.002.003-.003.004-.002.004-.003.004-.002.004-.003.004-.002.004-.003.004-.002.004-.002.004-.002 1.617-.96.003-.002.004-.002.004-.003.004-.002.004-.002.004-.003.004-.002.004-.002.004-.002.004-.002.004-.002.004-.002.004-.003.004-.002.004-.002.004-.002.004-.002.004-.002.004-.002.004-.002.004-.002.005-.002.004-.002.004-.002.004-.001.004-.002.004-.002.004-.002.005-.002.004-.002.004-.001.004-.002.004-.002.004-.002.004-.001.004-.002.005-.002.004-.001.004-.002.004-.002.005-.001.004-.002.004-.002.004-.001.004-.002.005-.001.004-.002.004-.001.005-.002.004-.001.004-.001.005-.002.004-.001.004-.002.004-.001.005-.001.004-.002.004-.001.005-.001.004-.002h.004l.005-.002.004-.001.004-.001.004-.002h.005l.004-.002h.004v-.001l.005-.001.004-.001.004-.001.005-.001.004-.001.004-.001.005-.001.004-.001.005-.001.004-.001.004-.001.005-.001h.004l.004-.002h.005l.004-.001.004-.001.005-.001.004-.001h.005l.004-.002h.005l.004-.001h.005l.004-.002h.009l.004-.002h.01l.005-.001h.004l.004-.001h.005v-.001h.008l.004-.001h.005l.004-.001h.009v-.001h.009l.004-.001h.01l.005-.001h.012l.005-.001h.022l.005-.001h.027v-.002zm-.004.418h-.027l-.003.001H2.68l-.003.001h-.005l-.003.001H2.66l-.002.001h-.005l-.003.001h-.005l-.003.001h-.005l-.003.001h-.002l-.003.001h-.005l-.003.001H2.62l-.003.001h-.003l-.002.001h-.003l-.002.001H2.6l-.002.001h-.003l-.002.001-.003.001h-.003l-.002.001h-.003l-.002.001h-.003l-.002.001-.003.001h-.003l-.002.001-.003.001h-.002l-.003.001h-.003l-.002.002H2.55l-.002.001h-.003l-.002.002H2.54l-.002.001h-.003l-.003.002H2.53l-.003.001-.002.001h-.003l-.002.002h-.003l-.002.001-.003.001H2.51l-.003.002h-.003l-.002.002H2.5l-.003.002h-.002l-.003.001-.002.001-.003.001-.003.001-.002.001-.003.001-.002.001-.003.001-.002.001-.002.002h-.003l-.002.002h-.003l-.002.002-.003.001-.002.001-.003.001-.002.001-.003.001-.002.001-.002.002H2.44l-.002.002-.003.001-.002.001-.002.001-.003.002-.002.001-.003.001-.002.001-.003.002-.002.001-.002.001-.002.002H2.41l-.002.002-.003.002-.002.001-.002.001-.003.002-.002.001-.002.002-.003.001-1.615.958-.003.001-.002.002-.003.002-.002.001-.003.002-.002.001-.002.002-.003.001-.002.002-.003.001-.002.002-.002.002-.003.001-.002.002-.002.001-.003.002-.002.001-.002.002-.003.002-.002.001-.002.002-.002.001-.003.002-.002.001-.002.002-.002.002-.003.002-.002.001-.002.002-.002.002-.002.001-.003.002-.002.002-.002.001-.002.002-.003.002-.002.002-.002.001-.002.002-.002.002-.002.002-.002.001-.002.002-.002.002-.003.002-.002.002-.002.001-.002.002-.002.002-.002.002-.002.002-.002.002-.002.002-.002.001-.002.002-.002.002-.002.002-.002.002-.002.002-.002.002-.002.002-.002.002-.002.002-.002.002-.002.002-.002.002-.002.001-.002.002-.002.002-.002.002-.002.003-.002.002-.001.002-.002.002-.002.002-.002.002-.002.002-.002.002-.002.002-.002.002-.001.002-.002.002-.002.002-.002.002-.002.002-.001.003-.002.002-.002.002-.002.002-.001.002-.002.002-.002.003-.002.002-.001.002-.002.002-.002.002-.001.002-.002.003-.001.002-.002.002-.002.002-.001.003-.002.002-.001.002-.002.002-.001.002-.002.003-.002.002-.001.002-.002.003-.001.002-.002.002-.001.002-.001.003-.002.002-.002.002-.001.003-.002.002-.001.002-.002.003-.001.002-.001.002-.002.002-.001.003-.002.002-.001.002-.002.003-.001.002-.002.003-.001.002-.001.002-.002.003-.001.002-.001.003-.002.002v.002l-.002.003-.001.002-.002.003-.001.002-.001.002-.001.003-.002.002-.001.003-.001.002-.002.003v.002l-.002.003v.002L.5 10.78l-.001.002-.001.003-.001.002-.002.003v.002l-.002.003v.002l-.002.003-.001.002-.001.003-.001.002-.001.003-.001.002-.002.003v.002l-.001.003-.001.002-.001.003-.001.002-.001.003-.001.003-.001.002-.001.003-.001.002-.001.003v.003l-.002.002v.003l-.001.002-.001.003-.001.002v.003l-.002.003v.002l-.001.003-.001.002v.003l-.002.003v.002l-.001.003-.001.002v.003l-.001.003-.001.002v.003l-.002.003v.005l-.001.003-.001.002v.003l-.001.003-.001.002v.003l-.001.003v.002l-.001.003v.002l-.001.003v.003l-.001.003v.003l-.001.002v.003l-.001.003v.002l-.001.003v.003l-.001.002v.006l-.001.003v.002l-.001.003v.006l-.001.002v.009l-.001.002v.006L.44 11v.008l-.001.003v.014l-.001.003v2.018l.001.002v.012l.001.003v.006l.001.002v.005l.001.003v.006l.001.002v.008l.001.003v.003l.001.002v.003l.001.003v.002l.001.003v.003l.001.002v.003l.001.003v.002l.001.003v.003l.001.002.001.003v.002l.001.003v.003l.001.002.001.003v.003l.001.002.001.003v.002l.001.003.001.002v.003l.001.003.001.002v.003l.001.002.001.003v.003l.002.002v.003l.001.002.001.003v.002l.002.003v.002l.001.003.001.003.001.002.001.002.001.003v.002l.002.003v.003l.002.002v.002l.002.003v.003l.002.002v.002l.002.003v.002l.002.003v.002l.002.003v.002l.002.003v.002l.002.003v.002l.002.003v.002l.002.003.001.002.001.003.001.002.002.003v.002l.002.002v.003l.002.002.001.003.002.002v.003l.002.002.002.002v.002l.002.003.001.002.002.002.001.003.001.002.002.002.001.003.001.002.002.002.001.003.001.002.002.002.001.003.001.002.002.002.001.002.002.003.001.002.002.002.001.002.002.003.001.002.001.002.002.002.001.003.002.002.001.002.002.002.001.002.002.003.001.002.002.002.002.002.001.002.002.003.001.002.002.002.002.002.001.002.002.002.002.003.001.002.002.002.002.002.001.002.002.002.002.003.001.002.002.002.002.002.002.002.001.002.002.002.002.002.002.002.002.002.001.002.002.002.002.002.002.002.001.002.002.002.002.002.002.002.002.002.002.002.002.002.002.002.002.002.001.002.002.002.002.002.002.002.002.001.002.002.002.002.002.002.002.002.002.002.002.002.002.002.002.001.002.002.001.002.003.002.001.002.002.002.002.002.003.001.002.002.002.002.002.002.002.001.002.002.002.002.002.002.002.001.003.002.002.002.002.002.002.001.002.002.003.002.002.001.002.002.002.002.002.001.002.002.003.002.002.001.002.002.002.002.003.001.002.002.002.002.002.001.003.002.002.001.002.002.002.001.003.002.002.001.002.002.003.001.002.002.002.001.003.002.002.001.003.002.002.001.002.002.003.001.002.002h.002l.003.002.002.002.003.001.002.002.003.001 1.684.947.002.002h.002l.002.001.002.001.001.001.002.001.002.001.002.001.002.001.002.001.002.001.002.001h.002l.002.002h.002l.002.002h.001l.002.002h.002l.002.001.002.001.002.001.002.001h.002l.002.002h.002l.002.001.002.001.002.001.001.001h.002l.002.002h.002l.002.001h.002l.002.002h.002l.002.001h.002l.002.002h.002l.002.001h.002l.002.002h.002l.001.001h.002l.002.001.002.001h.002l.002.001h.002l.004.002.004.001.004.002h.004l.004.002h.004l.004.002h.004l.004.002H2.6l.004.002h.004l.004.002h.005l.004.001.004.001h.004l.004.001.004.001h.004l.004.001.004.001h.004l.004.001h.004l.004.001h.008l.004.001h.012l.004.001h.067l.005-.001h.008l.004-.001h.004l.004-.001h.004l.004-.001h.005l.004-.002h.008l.004-.002h.008l.004-.002h.004l.004-.001.004-.001.004-.001.004-.001.004-.001.004-.001.004-.001.004-.001.004-.002h.005l.001-.001h.002l.002-.002h.004l.002-.001.002-.001h.002l.002-.001h.002l.002-.002h.004l.002-.001.002-.001h.002l.002-.002h.004l.002-.002h.002l.002-.001h.002l.002-.002h.002l.002-.001.002-.001h.002l.001-.002h.002l.002-.001.002-.001h.002l.002-.002h.002l.002-.002h.002l.002-.001.002-.001.002-.001.001-.001.002-.001.002-.001.002-.001h.002l.002-.002h.002l.002-.002h.002l.002-.002h.002l.002-.002 1.865-1h.002l.002-.002.002-.001.002-.001.002-.001.002-.002h.002l.002-.002h.002l.002-.002.002-.001.002-.001.002-.001.002-.001.002-.002h.002l.002-.002.002-.001.001-.001.002-.001.002-.002h.002l.002-.002.001-.001.002-.002h.002l.002-.002.002-.001.002-.002h.001l.002-.002.002-.001.002-.002.001-.002.002-.001.002-.002.002-.001.002-.001.001-.002.002-.001.002-.001.002-.002.001-.001.002-.002h.002l.001-.002.002-.002h.002l.002-.002.001-.002.002-.001.002-.002.001-.001.002-.002h.002l.001-.002.002-.002.001-.001.002-.002.002-.001.001-.002.002-.001.001-.002.002-.001.002-.002.001-.002.002-.001.001-.002.002-.001.001-.002.002-.001.002-.002.001-.001.002-.002.001-.001.001-.002.002-.002.001-.001.002-.002.001-.001.002-.002.001-.001.002-.002.001-.001.002-.002.001-.002.002-.002.001-.001.001-.002.002-.001.001-.002.002-.001.001-.002.001-.002L5 13.39v-.002l.001-.002.002-.001.001-.002.001-.002.002-.001v-.002l.002-.002.002-.002v-.001l.002-.002.001-.002.002-.001v-.002l.002-.002.001-.001.001-.002.002-.002.001-.002.001-.002.001-.001.002-.002v-.002l.002-.002.001-.001.001-.002.001-.002.002-.002v-.002l.002-.002v-.001l.002-.002.001-.002.001-.002.001-.002.001-.002.001-.001.001-.002.002-.002v-.002l.002-.002v-.002l.002-.002v-.001l.002-.002v-.002l.002-.002v-.002l.002-.002V13.3l.002-.002v-.002l.002-.001v-.002l.002-.002v-.002l.002-.002v-.002l.002-.002v-.002l.001-.002.001-.002.001-.002v-.002l.002-.002v-.002l.001-.002.001-.002v-.002l.002-.002v-.002l.001-.002.001-.002v-.002l.002-.002v-.002l.001-.002v-.002l.001-.002.001-.002v-.002l.002-.002v-.002l.001-.002.001-.002v-.002l.001-.002.001-.002v-.002l.001-.002.001-.002v-.002l.001-.002v-.002l.001-.002.001-.002v-.002l.001-.002v-.002l.001-.002v-.002l.001-.002v-.002l.001-.002v-.002l.001-.002v-.002l.001-.002v-.002l.001-.003v-.002l.001-.002v-.004l.001-.002v-.002l.001-.002v-.002l.001-.003v-.004l.001-.002v-.002l.001-.002v-.004l.001-.003v-.006l.001-.002v-.004l.001-.002v-.011l.001-.002v-.01l.001-.002v-.01l.001-.002v-2.167l-.001-.002v-.012l-.001-.002v-.006l-.001-.001v-.006l-.001-.002v-.006l-.001-.004v-.004l-.002-.004v-.004l-.001-.003v-.004l-.001-.004-.001-.004-.001-.004-.001-.004-.001-.004-.001-.004-.001-.003-.001-.004-.001-.004-.001-.004-.001-.004-.001-.004-.002-.004v-.003l-.002-.004-.001-.004-.002-.004-.001-.003-.001-.004-.002-.004-.001-.003-.002-.004-.001-.004-.002-.003-.001-.004-.002-.004-.001-.003-.002-.004-.002-.003-.001-.004-.002-.003-.002-.004-.001-.004-.002-.003-.002-.004-.002-.003-.002-.004-.002-.003-.002-.003-.002-.004-.002-.003-.002-.004-.002-.003-.002-.004-.002-.003-.002-.003-.002-.004-.002-.003-.002-.003-.003-.003-.002-.004-.002-.003-.002-.003-.003-.003-.002-.003-.003-.004-.002-.003-.002-.003-.003-.003-.002-.003L5 10.65l-.003-.003-.002-.003-.003-.003-.002-.003-.003-.003-.003-.003-.002-.003-.003-.003-.003-.003-.003-.003-.003-.002-.002-.003-.003-.003-.003-.003-.003-.003-.003-.002-.003-.003-.003-.003-.003-.002-.003-.003-.003-.003-.004-.002-.003-.003-.003-.002-.003-.003-.003-.002-.004-.003-.001-.001-.002-.001-.001-.002h-.002l-.001-.002-.002-.001-.002-.001-.001-.002h-.002l-.002-.002-.001-.001-.002-.002H4.9l-.001-.002-.002-.001-.002-.001-.001-.001-.002-.002H4.89l-.001-.002h-.002l-.002-.002-.002-.001-.001-.001-.002-.001-.002-.001-.002-.001-.001-.002h-.002l-.002-.002H4.87l-.001-.002h-.002l-.002-.002-1.82-1.027-.003-.002-.002-.001-.003-.001-.002-.002-.003-.001-.002-.001-.002-.002h-.003l-.002-.002-.003-.001-.002-.001-.002-.002h-.003L3.01 9.49l-.003-.001-.002-.002h-.003L3 9.485l-.002-.001-.003-.001-.002-.001-.003-.002h-.002l-.003-.002h-.002l-.002-.002-.003-.001-.002-.001-.003-.001-.002-.001-.003-.001-.002-.001-.003-.001-.002-.001-.003-.001-.002-.001-.003-.001-.002-.001-.003-.001h-.002l-.003-.002h-.002l-.003-.002h-.002l-.003-.001-.002-.001-.003-.001h-.002l-.003-.002h-.002l-.003-.001-.002-.001h-.003l-.002-.002h-.003l-.002-.001h-.003L2.9 9.447h-.002l-.003-.001h-.002l-.003-.001-.002-.001h-.003l-.003-.001-.002-.001h-.003l-.002-.001-.003-.001H2.87l-.003-.001h-.003l-.002-.001h-.003l-.002-.001h-.003l-.002-.001-.003-.001h-.005l-.003-.001H2.84l-.003-.001h-.002l-.003-.001h-.005l-.003-.001h-.005l-.003-.001h-.011l-.003-.001h-.005l-.002-.001h-.006l-.002-.001h-.011l-.002-.001H2.76l-.003-.001h-.025l-.002-.001h-.006l-.002.001z"
    fill="#C9177E"
  ></path>
  <path
    d="M1.498 13.592v-3.207h.697v1.168h1.157v-1.168h.7v3.207h-.7V12.19H2.195v1.402h-.697z"
    fill="#fff"
  ></path>
  <path
    fill-rule="evenodd"
    clip-rule="evenodd"
    d="M11.455 12.853v-1.899a.678.678 0 00-.35-.588L9.277 9.333a.875.875 0 00-.874.009l-1.546.917a1.03 1.03 0 00-.513.884v1.858c0 .309.17.594.447.75l1.685.947a.76.76 0 00.727.007l1.865-1a.72.72 0 00.386-.63v-.223z"
    fill="#0594CB"
  ></path>
  <path
    fill-rule="evenodd"
    clip-rule="evenodd"
    d="M8.851 9.012h.044v.001h.017l.005.001h.009l.004.001h.01l.004.001h.008l.005.001h.008l.005.001h.004l.005.001h.004l.004.001h.005l.004.001h.009l.004.001.005.001h.004l.004.001h.005l.004.002h.009l.004.002h.005l.004.001.005.001h.004v.001h.004l.005.002h.004l.004.001.005.001.004.001.004.001.004.001.005.001.004.001.004.001.005.001.004.001.004.001.004.001.005.001.004.002h.004l.005.002.004.001.004.001.004.002h.005v.001l.004.001.004.001.005.002.004.001.004.001.005.002.004.001.004.002.004.001.005.001.004.002.004.001.004.002.005.001.004.002.004.001.005.002.004.001.004.002.004.002.004.002.005.001.004.002.004.002.004.001.004.002.004.002.005.001.004.002.004.002.004.002.004.002.004.001.004.002.004.002.004.002.004.002.005.002.004.002.004.002.004.002.004.002.004.002.004.002.004.002.004.002.004.002.004.002.004.002.004.002.004.002.004.003.004.002.004.002 1.829 1.035.002.002h.001l.003.002.003.002.003.002.004.002.003.002.003.002.003.002.003.002.003.002.004.001.003.002.003.002.003.002.006.004.006.004h.001l.006.005.006.004.006.004.006.004.006.005.006.004.006.004.006.005.006.005.006.004.005.005h.001l.005.004.006.005.006.005.005.004.006.005.005.005h.001l.005.005.005.005.006.004v.001l.005.005.005.005h.001l.005.005.005.005.005.005.005.005v.001l.005.005h.001l.005.005.005.005.005.006.004.005h.001l.004.006.005.005.005.005v.001l.005.005.004.005v.001l.005.005.004.006.005.006.004.005.005.006.004.006.004.005v.001l.005.005v.001l.004.005v.001l.004.005v.001l.004.005v.001l.004.005v.001l.004.005v.001l.004.006.004.006.004.006.004.006.004.006.003.006v.001l.004.006.004.006.003.006.004.006v.001l.003.006.004.006.003.007.003.006.004.007.003.006.003.007.003.006.003.006v.001l.003.006.003.007.003.006v.001l.003.006.002.007.003.006v.001l.003.006.002.007.003.007.002.006v.001l.003.006.002.007.002.007.003.007.002.006v.001l.002.006v.001l.002.006.002.007.002.007.002.007.002.007.002.007.001.007.002.007.002.007.001.007.002.007.002.007v.007l.001.001.001.007.001.007.002.007v.008l.002.007v.007h.001v.007l.001.001v.007l.002.007v.007l.001.007v.008h.001v.007l.001.007v.019l.001.003v2.206l-.001.004v.008l-.001.004v.012l-.001.004v.008l-.001.003v.008h-.001v.008l-.001.004v.004l-.001.004-.001.004v.003l-.001.004v.004l-.001.004v.004l-.001.004v.003l-.001.004-.001.004v.004l-.001.004v.003h-.001v.004l-.001.004-.001.004-.001.004v.004h-.001v.003l-.001.004-.002.004v.004l-.001.004-.001.003-.001.004-.001.004-.001.004-.001.003-.001.004-.001.004-.001.003v.004h-.001l-.001.004-.001.004-.001.003-.001.004-.001.004-.001.004-.001.003-.002.004v.004l-.002.003-.001.004-.002.004v.003h-.001l-.001.004-.002.004v.003l-.002.004-.001.003v.001l-.002.003-.001.004-.001.004-.002.003-.001.004-.002.003-.001.004-.001.004-.002.003-.001.004-.002.003-.001.004-.002.004-.001.003-.002.004-.001.003-.002.004-.001.004-.002.003-.002.004-.001.003-.002.003-.001.004-.002.003-.002.004-.002.003-.001.004-.002.003-.002.003-.002.004-.001.003-.002.004-.002.003-.002.003-.002.004-.001.003-.002.003-.002.004-.002.003-.002.003-.002.004-.002.003-.002.004-.002.003-.002.003-.002.003-.002.004-.002.003-.002.003-.002.004-.002.003-.002.003-.002.004-.002.003-.002.003-.002.003-.003.004-.002.003-.002.003-.002.003-.002.003-.002.003-.002.004-.002.003-.002.003-.003.003-.002.003-.002.003-.003.003-.002.004-.002.003-.003.003-.002.003-.002.003-.003.003-.002.003-.003.003-.002.003-.003.003-.002.003-.002.003-.003.003-.002.003-.003.003-.002.003-.003.003-.003.003-.002.003-.002.003-.003.002-.003.004-.002.002-.003.003-.002.003-.003.003-.003.003-.002.002-.003.003-.003.003-.002.003-.003.003-.003.002-.003.003-.003.003-.002.003-.003.002-.003.003-.002.003-.003.003-.003.003-.003.002-.003.003-.003.003-.003.002-.003.003-.002.003-.003.002-.004.003-.002.003-.003.002-.003.003-.003.003-.003.002-.003.003-.003.002-.004.003-.002.002-.004.003-.003.002-.003.003-.003.002-.003.003-.003.002-.003.003-.003.002-.003.003-.003.002-.003.002-.003.003-.004.002-.003.003-.003.002-.004.003-.003.002-.003.002-.003.002-.004.003-.003.002-.003.002-.003.002h-.001l-.003.002-.003.003-.004.002-.003.002-.003.002-.004.003-.003.002-.003.002-.004.002-.003.002-.004.002-.003.002-.004.002-.003.002-.003.003-.004.002-.003.002-.003.002-.004.002-.003.002-.004.002-.003.002-.004.002-.003.002-.004.002-.004.002-1.865 1-.003.001-.004.002-.003.002-.004.002-.003.002-.004.002-.003.001-.004.002-.003.002-.003.001-.004.002-.003.002-.004.001-.003.002-.004.002-.003.001-.004.002-.004.001-.003.002-.004.001-.003.002h-.001l-.003.002-.003.001-.004.002-.003.001-.004.002-.004.001-.003.002h-.004v.001l-.003.001H9.2l-.003.002-.004.001-.003.001-.004.002-.003.001-.004.002h-.003l-.004.002-.004.001-.003.002-.004.001-.004.001-.003.001-.004.002h-.003l-.004.002-.004.001-.003.002h-.004l-.004.002-.004.001-.003.001H9.12l-.006.002h-.001l-.007.002-.007.002h-.001l-.007.002-.007.002h-.001l-.007.001-.007.002h-.001l-.007.002-.007.002h-.001l-.007.001-.007.002-.008.001-.007.002-.007.001h-.001l-.007.001-.008.002h-.007l-.001.001h-.007l-.007.002H8.97l-.007.002h-.008l-.007.002H8.94l-.007.001h-.001l-.007.001h-.008l-.007.001h-.008L8.895 15h-.097l-.007-.001h-.008l-.007-.001h-.008l-.007-.001H8.76l-.007-.001h-.007l-.001-.001h-.007v-.001H8.73l-.007-.002h-.008l-.007-.002H8.7l-.007-.002h-.007l-.001-.001-.007-.001-.007-.002H8.67l-.007-.001-.007-.001h-.001l-.007-.002-.007-.001-.008-.002-.007-.002-.007-.001h-.001l-.007-.002H8.61l-.007-.002-.007-.002-.007-.002h-.001l-.007-.002-.007-.002h-.001l-.006-.002h-.001l-.007-.002-.007-.002-.004-.001-.003-.001-.004-.002h-.003l-.004-.002-.003-.001-.004-.001-.004-.002h-.004v-.001l-.003-.001-.004-.002h-.004l-.003-.002-.004-.002h-.003v-.001l-.004-.001-.004-.002-.003-.001-.004-.002-.004-.001-.003-.001-.004-.002-.004-.001-.003-.002-.003-.001-.004-.002-.004-.001-.003-.002-.004-.002-.003-.001-.004-.002-.003-.001h-.001l-.003-.002-.004-.002-.003-.001-.004-.002-.003-.002-.004-.002-.003-.001-.004-.002-.003-.002-.003-.002-.004-.001-.003-.002-.004-.002-.003-.002-.004-.002-.003-.002-.004-.002-.003-.002-.003-.001-.004-.002-1.685-.948-.004-.002-.004-.002-.004-.002-.004-.003-.004-.002-.004-.002-.004-.003-.004-.002-.004-.002-.004-.003-.003-.002-.004-.003-.004-.002-.004-.002-.004-.003-.004-.003-.003-.002-.004-.002-.004-.003-.004-.003-.003-.002-.004-.003-.004-.002-.004-.003-.003-.003-.004-.002-.004-.003-.004-.003-.003-.002-.004-.003-.003-.003-.004-.003-.004-.003-.003-.002-.004-.003-.004-.003-.003-.003-.004-.003-.003-.003-.004-.002-.003-.003-.004-.003-.003-.003-.004-.003-.003-.003-.004-.002-.003-.003-.004-.003L6.5 13.8l-.004-.003-.003-.003-.003-.003-.004-.003-.003-.003-.004-.003-.003-.003-.003-.003-.004-.003-.003-.003-.003-.003-.003-.003-.003-.003-.004-.003-.003-.003-.003-.004-.003-.003-.003-.003-.003-.003-.003-.003-.004-.003-.003-.003-.003-.004-.003-.003-.003-.003-.003-.003-.003-.004-.003-.003-.003-.003-.003-.003-.003-.004-.003-.003-.003-.003-.003-.003-.003-.004-.003-.003-.003-.003-.003-.004-.003-.003-.003-.003-.003-.004-.002-.003-.003-.004-.003-.003-.003-.004-.002-.003-.003-.003-.003-.004-.002-.003-.003-.004-.003-.003v-.001l-.003-.003-.002-.003-.003-.004-.002-.004-.003-.003-.003-.004-.002-.003-.003-.004-.003-.003-.002-.004-.003-.003-.002-.004-.003-.004-.002-.003-.002-.004-.003-.004-.002-.003-.003-.004-.002-.003-.002-.004-.002-.004-.003-.003-.002-.004-.002-.004-.003-.004-.002-.003-.002-.004-.002-.004-.003-.004-.002-.003-.002-.004-.002-.004-.002-.004-.002-.003-.002-.004-.002-.004-.003-.003-.002-.004-.002-.004-.002-.004-.002-.004-.002-.004-.002-.004-.002-.004-.001-.003-.002-.004-.002-.005-.002-.004-.002-.003-.002-.004-.002-.004-.002-.004-.002-.005-.001-.003-.002-.004-.002-.004-.002-.004-.001-.004-.002-.004-.002-.004-.002-.004-.001-.004-.002-.004-.002-.004-.001-.004-.002-.005-.001-.003-.002-.005-.002-.004-.001-.004-.002-.004-.001-.004-.002-.004-.001-.004-.002-.005-.001-.004-.002-.004-.001-.004-.002-.004-.001-.004-.001-.005-.002-.004-.001-.004-.002-.004v-.004h-.001l-.001-.004-.001-.004-.002-.005v-.004H6.17l-.001-.004-.001-.004-.001-.005-.002-.004v-.004l-.002-.004v-.005h-.001v-.004H6.16l-.001-.004-.001-.005-.001-.004-.001-.004-.001-.005-.002-.004v-.004l-.002-.004v-.005l-.001-.004-.001-.004-.001-.005-.001-.003-.001-.005-.001-.004v-.005l-.002-.004v-.004l-.001-.005v-.004l-.002-.004v-.01l-.002-.004v-.008h-.001v-.004l-.001-.004v-.004l-.001-.005v-.004l-.001-.004v-.004h-.001v-.01l-.001-.004v-.005l-.001-.004v-.004l-.001-.005v-.008l-.001-.004v-.015l-.001-.004v-.022l-.001-.004v-1.934l.001-.005v-.02l.001-.004v-.01l.001-.005v-.01l.001-.005v-.005l.001-.005v-.006l.001-.005v-.005l.001-.005.001-.005v-.005l.001-.004.001-.005v-.005h.001v-.005l.001-.005v-.005l.002-.005v-.005l.001-.005.001-.005.001-.005v-.005l.002-.005v-.005l.002-.005v-.005l.001-.005.001-.004.001-.005.001-.005.001-.005.001-.005.001-.005.001-.005.001-.005.001-.005.002-.005v-.005l.002-.004.001-.005.002-.005v-.005l.002-.005.001-.005.001-.005.002-.005.001-.004.002-.005.001-.005.001-.005.002-.004.001-.005.002-.005.001-.005.002-.004.001-.005.002-.005.001-.004.002-.005.001-.005.002-.004.001-.005.002-.005.002-.004.002-.005.001-.004.002-.005.002-.005.002-.005.001-.004.002-.005.002-.005.002-.004.002-.005.002-.004.002-.005.002-.005.002-.004.002-.005.001-.004.003-.005.001-.004.003-.005.001-.004.003-.005.002-.004.002-.005.002-.004.002-.004.002-.005.002-.004.003-.005.002-.004.002-.005.002-.004.002-.005.002-.004.003-.004.002-.005.003-.004.002-.004.002-.005.003-.004.002-.004.002-.005.003-.004.002-.004.003-.005.002-.004.003-.004.002-.005.003-.004.002-.004.003-.005.002-.004.003-.004.003-.004.002-.004.003-.005.003-.004.002-.004.003-.004.003-.004.003-.004.002-.004.003-.004.003-.005.003-.004.003-.003.002-.005.003-.004.003-.004.003-.004.003-.004.002-.004.003-.004.003-.003.003-.004.003-.004.003-.004.003-.004.003-.004.003-.004.003-.004.003-.004.003-.003.003-.004.004-.004.003-.004.003-.004.003-.004.003-.004.003-.004.004-.003.003-.004.003-.004.003-.004.004-.003.003-.004.004-.004.003-.004.003-.003.003-.004.004-.004.003-.004.003-.003.004-.004.003-.004.004-.003.003-.004.004-.003.004-.004.003-.004.004-.003.003-.004.004-.003.004-.004.003-.003.004-.004.003-.003.004-.004.004-.003.004-.004.003-.003.004-.003.004-.004.004-.003.003-.004.004-.003.004-.003.004-.004.004-.003.004-.003.004-.004.003-.003.004-.003.004-.003.004-.004.004-.003.004-.003.004-.003.004-.003.004-.004.004-.003.004-.003.004-.003.004-.003.004-.003.004-.004.005-.003.004-.003.004-.003.004-.003.004-.003.005-.003.004-.003.004-.003.004-.003.005-.003.004-.003.004-.003.004-.002.005-.003.004-.003.004-.003.004-.003.004-.003.005-.002.004-.003.005-.003.004-.003.005-.002.004-.003.005-.003.004-.002.004-.003 1.547-.918.004-.002.004-.003.004-.002.004-.002.004-.002.004-.003.004-.002.004-.002.004-.002.004-.002.004-.003.004-.002.004-.002.004-.002.004-.002.004-.002.004-.002.004-.002.005-.002.004-.002.003-.002.005-.002.004-.002.004-.002.004-.002.004-.002.004-.002.004-.001H8.4l.004-.002.004-.002.004-.002.004-.002.004-.001.005-.002.004-.002.004-.001.004-.002.004-.002.004-.001.005-.002.004-.002.004-.001.005-.002.004-.001.004-.002.004-.001.004-.002.005-.002.004-.001.004-.001.005-.002.004-.001.004-.001.005-.002.004-.001.004-.002h.004v-.001l.005-.001.004-.002h.004l.005-.002.004-.001.004-.001.004-.002h.005l.004-.002.004-.001.005-.001.004-.002h.004l.005-.002.004-.001.004-.001.005-.001.004-.001.004-.001.005-.001.004-.001.005-.001.004-.001.004-.001.005-.001.004-.001h.004l.005-.002h.004l.005-.001.004-.001h.004l.005-.002h.004l.004-.001h.005l.004-.002h.011l.005-.001h.004l.005-.001h.004l.004-.001h.005l.004-.001h.004l.005-.001h.004l.005-.001h.008l.004-.001h.015l.004-.001h.008l.004-.001h.024l.005-.001h.035l.001.001zm-.004.418h-.042l-.003.001h-.016l-.003.001h-.006l-.002.001h-.008l-.003.001H8.76l-.003.001h-.005l-.003.001h-.005l-.003.001h-.002l-.003.001H8.73l-.002.001h-.003l-.003.001H8.72l-.003.001h-.002l-.003.001h-.003l-.002.001h-.003l-.002.001-.003.001h-.003l-.002.001H8.69l-.002.001-.003.001h-.002l-.003.001h-.003l-.002.002H8.67l-.003.002h-.002l-.003.001H8.66l-.003.002h-.003l-.002.001H8.65l-.002.002h-.003l-.002.001-.003.001h-.002l-.003.002h-.002l-.003.001-.002.001-.003.001-.002.001H8.62l-.002.002h-.003l-.002.002H8.61l-.002.002h-.003l-.002.002H8.6l-.002.002h-.003l-.002.002H8.59l-.002.002h-.002l-.003.002h-.002l-.003.002-.002.001-.003.001-.002.001-.002.002h-.003l-.002.002-.003.001-.002.001-.002.002h-.003l-.002.002-.003.001-.002.002h-.002l-.003.002-.002.001-.003.001-.002.002h-.003l-.002.002-.002.002h-.003l-.002.002-.002.002-.003.001-.002.002-1.547.917-.003.002-.003.001-.003.002-.002.002-.003.002-.003.002-.003.002-.003.001-.003.002-.003.002-.003.002-.003.002-.003.002-.002.002-.003.002-.003.002-.003.002-.002.002-.003.001-.003.002-.003.002-.003.002-.002.002-.003.002-.003.002-.003.002-.002.002-.003.002-.003.002-.003.002-.002.003-.003.002-.003.002-.002.002-.003.002-.003.002-.002.002-.003.002-.002.002-.003.003-.002.002-.003.002-.003.002-.002.003-.003.002-.002.002-.003.002-.002.002-.003.002-.002.003-.003.002-.002.002-.003.002-.002.003-.003.002-.002.002-.003.003-.002.002-.002.002-.003.003-.002.002-.003.002-.002.002-.003.003-.002.002-.002.003-.002.002-.003.003-.002.002-.002.002-.003.003-.002.002-.002.003-.002.002-.003.003-.002.002-.002.003-.002.002-.002.003-.003.002-.002.003-.002.002-.002.003-.002.002-.002.003-.002.002-.003.003-.002.002-.002.003-.002.003-.002.002-.002.003-.002.002-.002.003-.002.003-.002.002-.002.003-.002.003-.002.002-.002.003-.002.003-.002.002-.002.003-.002.002-.002.003-.001.003-.002.003-.002.003-.002.002-.002.003-.002.003-.002.003-.002.002-.002.003-.001.003-.002.003-.002.002-.002.003-.001.003-.002.003-.002.003-.002.002-.002.003-.001.003-.002.003-.002.003-.001.003-.002.003-.002.002-.001.003-.002.003-.002.003-.001.003-.002.003-.001.003-.002.003-.001.002-.002.003-.001.003-.002.003-.001.003-.002.003-.001.003-.002.003-.001.003-.002.003-.001.003-.001.003-.002.003-.001.003-.002.003v.003l-.002.003-.002.003v.003l-.002.003-.002.003v.003l-.002.003-.001.003-.002.003-.001.003-.001.003-.002.003v.003l-.002.004-.001.003-.001.003-.001.003-.001.003-.002.003v.003l-.002.003-.001.003-.001.003-.001.003-.001.004-.001.003-.001.003-.001.003-.001.003-.001.003-.001.003-.001.004-.001.003-.001.003-.001.003-.001.003-.001.003-.001.004v.003l-.002.003v.003l-.002.003v.004l-.001.003-.001.003-.001.003v.003l-.002.004v.003l-.001.003v.003l-.001.004-.001.003v.003l-.001.003-.001.004v.003l-.001.003-.001.003v.004l-.001.003v.003l-.001.003v.004l-.002.003v.006l-.001.004v.003l-.001.003v.004l-.001.003v.003l-.001.003v.007l-.001.003v.004l-.001.003v.007l-.001.003v.007l-.001.003v.01l-.001.003v.014l-.001.003v1.939l.001.002v.008l.001.003v.008l.001.002v.006l.001.002v.006l.001.002v.006l.001.002v.003l.001.003v.002l.001.003v.003l.001.002v.003l.001.003v.005l.001.002v.003l.001.003.001.002v.003l.001.003v.002l.001.003.001.003v.002l.001.003.001.002v.003l.001.003v.002l.002.003v.002l.001.003v.003l.002.002v.003l.001.002v.003l.002.002v.003l.001.002v.003l.002.002v.003l.001.003.001.002.001.003v.002l.002.003v.002l.001.003.001.002.001.003.001.002.001.003.001.002.001.003.001.002.001.003.001.002.001.003.001.002.001.003.001.002.001.003.001.002.002.003v.002l.002.003v.002l.002.003.001.002.001.003.001.002.001.002.002.003v.002l.002.003.001.002.001.002.001.003.002.002v.003l.002.002.001.002.002.003v.002l.002.002.002.003v.002l.002.002.001.003.002.002v.002l.002.003.002.002.001.002.001.003.002.002.001.002.002.002.001.003.002.002.001.002.002.003.001.002.001.002.002.002.001.003.002.002.001.002.002.002.001.003.002.002.001.002.002.002.001.002.002.003.002.002.001.002.002.002.001.002.002.003.001.002.002.002.002.002.001.002.002.002.002.003.001.002.002.002.001.002.002.002.002.002.002.002.001.002.002.003.002.002.002.002.002.002.001.002.002.002.002.002.002.002.001.002.002.002.002.002.002.002.002.002.002.002.002.002.002.002.002.002.001.002.002.002.002.002.002.002.002.002.002.002.002.001.002.002.002.002.002.002.002.002.002.002.002.002.002.002.002.002.002.001.002.002.002.002.002.002.002.002.002.002.002.001.002.002.002.002.002.002.002.001.003.002.002.002.002.002.002.002.002.001.002.002.002.002.003.002.002.001.002.002.002.002.003.001.002.002.002.002.002.001.003.002.002.002.002.001.002.002.002.001.003.002.002.002.002.001.002.002.003.001.002.002.002.002.002.001.003.002.002.001.002.002.003.001.002.002.002.001.003.002.002.001.002.002.003.002h.002l.003.002.002.002.002.001.003.002.002.001.003.002.002.001.003.002 1.684.947h.002l.002.002h.002l.002.002h.001l.002.002h.002l.002.002h.002l.002.002h.002l.001.002h.002l.002.001.002.001.002.001.002.001.002.001h.002l.002.002h.002l.002.002h.002l.002.001.002.001h.002l.001.002h.002l.002.001.002.001.002.001h.002l.002.002h.002l.002.001h.002l.002.002h.002l.002.001h.002l.002.002h.004l.002.002h.003l.002.002h.004l.002.001.002.001h.002l.004.002.004.001.004.001.004.002h.004l.004.002h.004l.004.002h.004l.004.001.004.001.004.001.004.001h.005l.004.002h.004l.004.001h.004l.004.002h.008l.004.001h.005l.004.001h.004l.004.001h.008l.004.001h.009l.004.001h.016l.004.001h.034l.004-.001h.012l.005-.001h.004l.004-.001h.008l.004-.001h.004l.005-.001h.004l.004-.002h.008l.004-.002h.004l.004-.001h.004l.004-.002h.004l.004-.002h.004l.004-.001.004-.001.004-.002h.005l.004-.002h.004l.004-.002h.002L9 14.56h.002l.001-.002h.004l.002-.001.002-.001h.002l.002-.001.002-.001h.002l.002-.001.002-.001h.002l.002-.001.002-.001h.002l.002-.001.002-.001h.002l.002-.002h.002l.002-.001.002-.001h.002l.002-.002h.001l.002-.001.002-.001h.002l.002-.002h.002l.002-.002h.002l.002-.001h.002l.002-.002h.002l.001-.001.002-.001.002-.001.002-.001.002-.001.002-.001.002-.001.002-.001.002-.001h.002l.001-.002.002-.001.002-.001 1.865-1h.002l.002-.002h.002l.002-.002h.002l.002-.002.002-.001.002-.001.002-.001.002-.002h.002l.002-.002.002-.001.001-.001.002-.001.002-.002h.002l.002-.002.002-.001.002-.002h.002l.002-.002.001-.001.002-.002h.002l.002-.002.002-.001.002-.002h.001l.002-.002.002-.001.002-.001.002-.002.001-.001.002-.001.002-.002h.002l.001-.002.002-.002.002-.001.002-.001.001-.002.002-.001.002-.001.002-.002.001-.001.002-.001.002-.002.001-.001.002-.002.001-.001.002-.001.002-.002.001-.001.002-.002.001-.001.002-.002.002-.001.001-.001.002-.002.002-.001.001-.002.002-.001.001-.002.002-.001.001-.002.002-.001.002-.002.001-.001.002-.002v-.002l.002-.001.002-.002.001-.001.002-.002.001-.001.002-.002.001-.001.002-.002.001-.002.002-.001.001-.002.002-.001.001-.002.002-.001.001-.002.001-.001.002-.002.001-.001.002-.002.001-.002.001-.001.002-.002.001-.002.001-.002.002-.001v-.002l.002-.002.002-.001v-.002l.002-.002.001-.001.002-.002v-.002l.002-.002.002-.001v-.002l.002-.002.001-.002.002-.001v-.002l.002-.002.002-.001v-.002l.002-.002.001-.002.002-.001v-.002l.002-.002v-.002l.002-.002.001-.001.001-.002.002-.002v-.002l.002-.002v-.002l.002-.001.001-.002.001-.002.001-.002.001-.002.002-.002v-.002l.002-.001v-.002l.002-.002.001-.002.001-.002.001-.002.001-.002.001-.001.001-.002.001-.002.001-.002.001-.002.001-.002.001-.002.001-.002v-.002l.002-.001v-.002l.002-.002v-.002l.001-.002.001-.002.001-.002.001-.002.001-.002.001-.002v-.002l.002-.002v-.002l.001-.002.001-.002.001-.002v-.002l.002-.002v-.002l.001-.002.001-.002v-.002l.002-.002v-.002l.001-.001v-.002l.002-.002v-.003l.001-.002v-.002l.002-.002v-.004l.002-.001v-.004l.002-.002v-.004l.001-.003.001-.002v-.002l.001-.002v-.002l.001-.002.001-.002v-.002l.001-.002v-.002l.001-.002v-.002l.001-.002v-.002l.001-.002v-.004l.001-.002v-.002l.001-.002v-.002l.001-.003v-.002l.001-.002v-.002l.001-.002v-.004l.001-.002v-.005l.001-.002v-.004l.001-.002v-.005l.001-.002v-.006l.001-.002v-.008l.001-.002v-.008l.001-.003v-.013l.001-.002v-2.163l-.001-.004v-.007l-.001-.004v-.008l-.001-.004v-.004l-.001-.004v-.003l-.002-.004v-.008l-.001-.004-.001-.003v-.004l-.002-.004v-.004l-.001-.003v-.004l-.002-.004v-.003l-.002-.004v-.004l-.002-.004v-.003l-.002-.004v-.003l-.002-.004-.001-.004-.002-.004v-.003l-.002-.004-.001-.003-.002-.004v-.003l-.002-.004-.002-.004-.001-.003-.002-.004-.001-.003-.001-.004-.002-.003-.002-.004-.001-.003-.002-.003-.002-.004-.001-.003-.002-.004-.002-.003-.002-.003-.001-.004-.002-.003-.002-.004-.002-.003-.002-.003-.002-.003-.002-.004-.002-.003-.002-.003-.002-.003-.002-.004-.002-.003-.002-.003-.002-.003-.003-.003-.002-.003-.002-.003-.002-.004-.003-.003-.002-.003-.002-.003-.003-.003-.002-.003-.003-.003-.002-.003-.003-.003-.002-.003-.003-.002-.002-.004-.003-.002-.003-.003-.002-.003-.003-.003-.003-.003-.002-.002-.003-.003-.003-.003-.003-.003-.003-.003-.003-.002-.003-.003-.002-.002-.003-.003-.003-.003-.003-.002-.003-.003-.003-.002-.003-.003-.003-.003-.003-.002-.003-.002-.004-.003-.003-.002-.003-.003-.003-.002-.003-.002-.003-.003-.004-.002-.003-.002-.003-.002-.004-.002-.003-.003-.003-.002-.002-.001-.002-.001-.001-.001-.002-.001-.002-.001-.002-.002h-.001l-.002-.002h-.002L11 10.551l-.002-.002h-.002l-.002-.002L9.17 9.514h-.003l-.002-.002-.002-.002H9.16l-.002-.002-.002-.001-.003-.002H9.15l-.003-.002-.002-.001-.002-.001-.003-.002-.002-.001-.003-.001-.002-.001-.002-.001-.003-.001-.002-.002h-.003l-.002-.002h-.002l-.003-.002-.002-.001-.003-.001-.002-.001-.003-.002h-.002l-.002-.002h-.003l-.002-.002h-.003l-.002-.002-.003-.001-.002-.001-.003-.001-.002-.001-.002-.001h-.003l-.002-.002h-.003l-.002-.002h-.002l-.003-.002h-.002l-.003-.001-.002-.001-.003-.001-.002-.001H9.05l-.003-.002h-.002l-.003-.001-.002-.001h-.003l-.002-.002h-.003l-.002-.001h-.003l-.002-.002H9.02l-.003-.002h-.005l-.003-.002h-.005l-.002-.001-.003-.001h-.003l-.002-.001H8.99l-.002-.001-.003-.001h-.002l-.003-.001h-.003l-.002-.001h-.003l-.002-.001h-.003l-.003-.001h-.002l-.003-.001h-.002l-.003-.001H8.95l-.003-.001h-.003l-.002-.001h-.005l-.003-.001h-.002l-.003-.001H8.92l-.002-.001h-.006l-.002-.001H8.9l-.002-.001h-.014l-.002-.001h-.035z"
    fill="#0083C0"
  ></path>
  <path
    d="M7.617 10.533h.68v1.736c0 .276.008.454.024.536a.469.469 0 00.18.302c.102.08.221.102.399.102.18 0 .24-.027.332-.102.092-.075.147-.147.166-.256.018-.11.05-.291.05-.545v-1.773h.68v1.684c0 .385-.018.656-.052.815a.91.91 0 01-.19.403.96.96 0 01-.371.26 1.585 1.585 0 01-.606.098c-.3 0-.528-.035-.684-.106a.98.98 0 01-.368-.275.889.889 0 01-.178-.356c-.042-.183-.063-.454-.063-.813v-1.71z"
    fill="#fff"
  ></path>
  <path
    fill-rule="evenodd"
    clip-rule="evenodd"
    d="M17.623 12.808v-1.893a.679.679 0 00-.358-.593l-1.828-1.006a.875.875 0 00-.855.009l-1.544.891a1.03 1.03 0 00-.524.89v1.85c0 .309.17.594.447.75l1.684.947c.224.126.5.129.727.007l1.865-1a.719.719 0 00.386-.63v-.223z"
    fill="#33BA91"
  ></path>
  <path
    fill-rule="evenodd"
    clip-rule="evenodd"
    d="M15.02 9h.033l.005.001h.013l.004.001h.01l.005.001h.008v.001h.012l.005.001h.009v.001h.008l.005.001h.004l.004.001h.005l.004.001h.005l.004.001h.004l.005.002h.004l.004.001h.005l.004.002h.004l.005.001h.004v.001h.004l.005.002h.004l.004.001h.005l.004.001.004.001.005.001.004.001h.004v.001h.005v.001h.004l.004.002h.005l.004.002h.004l.004.002h.005l.004.002h.004l.005.002h.004l.004.002.005.001.004.001.004.001.005.002h.004v.001l.004.001.005.001.004.002.004.001.005.001.004.001.004.002.005.001.004.002h.004v.001l.004.001.004.002.004.001.005.001.004.002.004.001.004.002.004.002.004.001.005.002.004.001.004.002.004.001.004.002.004.002.004.001.005.002.004.001.004.002.004.002.004.002.004.001.004.002.004.002.005.002.003.002h.001l.003.001h.001l.004.002.004.002.004.002.004.002.004.002.004.002.004.002.004.002.004.002.004.002.004.002.003.002.004.002.004.002.004.002.004.002.004.003.004.002 1.827 1.004.003.002h.001l.003.002.003.002.004.002.003.002.004.002.003.001.003.002.004.002.003.002.003.002.004.002.003.002.003.002.003.002.004.002.003.002.003.002.004.002.003.002.003.002.003.002.003.002.003.002.004.002.003.003.003.002.003.002.003.002.003.002.003.003.003.002.004.002.003.003.003.002.003.002.003.002.003.003.003.002.003.003.003.002.003.002.003.003.003.002.005.004.006.005.006.005.005.005h.001l.005.005.006.005.005.005.006.005.005.005v.001l.006.005.005.005.005.005h.001l.005.005.005.006.005.005.005.005h.001l.005.006.005.005.005.006.005.005.004.006h.001l.004.005v.001l.005.005.005.006.004.005.001.001.004.005.005.006.004.006.005.006.004.006.005.006.004.005v.001l.004.005v.001l.004.005v.001l.004.006.005.006.004.006.004.006.004.006v.001l.004.006.003.006h.001l.003.006.004.006.004.006v.001l.004.006.003.006.004.006v.001l.003.006.004.006v.001l.003.006.003.006v.001l.004.006.003.006v.001l.003.006.003.006v.001l.003.006v.001l.003.006.003.007.003.006v.001l.003.006.003.007.002.007.003.006v.001l.003.006v.001l.002.006v.001l.003.006.002.007.003.007.002.007.002.006v.001l.002.007.003.007.002.006v.001l.002.006v.001l.002.006v.001l.002.007.002.007.001.007.002.007v.001l.002.006v.001l.001.007.002.007.001.007v.001l.002.006v.004l.001.004v.004l.001.003v.004h.001v.003l.001.004.001.004v.004l.001.003v.004l.001.003v.004l.001.004v.003l.001.004v.004l.001.003v.008l.001.003v.008l.001.003v.004l.001.004v.011l.001.004v.014l.001.004v2.203l-.001.004v.008l-.001.004v.012l-.001.004v.004l-.001.004v.007h-.001v.008h-.001v.004l-.001.004v.008l-.001.004v.003l-.001.001v.004l-.001.003v.004l-.001.004v.004h-.001v.004l-.001.004-.001.004v.003l-.002.004v.008l-.002.004v.003l-.001.004-.001.004v.004l-.002.004v.003l-.002.004v.004l-.001.004-.001.003-.001.004-.001.004-.001.003v.001l-.001.003v.004h-.001l-.001.004-.001.004-.001.003-.001.004-.001.004-.001.003-.001.004-.001.004-.002.003v.004l-.002.004-.001.003-.001.004-.001.004-.002.003v.004l-.002.004-.002.003v.004h-.001l-.001.003-.001.004-.002.004v.003h-.001l-.001.004-.002.003v.001l-.002.003v.004h-.001l-.001.003-.002.004-.001.003-.002.004-.001.003-.002.004-.001.004-.002.003-.001.004-.002.003-.002.004-.001.003-.002.004-.001.003-.002.004-.002.003-.001.004-.002.003-.002.004-.002.003-.001.004-.002.003-.002.004-.002.003-.001.003-.002.004-.002.003-.002.003-.002.004-.002.003-.002.003-.002.004-.001.003-.002.004-.002.003-.002.003-.002.003-.002.004-.002.003-.002.003-.002.004-.002.003-.002.003-.002.003-.002.004-.002.003-.002.003-.003.003-.002.004-.002.003-.002.003-.002.003-.002.004-.003.003-.002.003-.002.003-.002.003-.002.003-.002.003-.003.003-.002.004-.003.003-.002.003-.002.003-.003.003-.002.003-.002.003-.003.003-.002.003-.003.003-.002.003-.002.004-.003.002-.002.003-.003.004-.002.002-.003.003-.002.003-.003.003-.003.003-.002.003-.003.003-.003.003-.002.003-.003.003-.002.003-.003.003-.003.003-.002.002-.003.003-.003.003-.002.003-.003.003-.003.002-.003.003-.003.003-.002.003-.003.002v.001l-.003.002-.003.003-.003.003-.002.003-.003.002-.003.003-.003.003-.003.003-.003.002-.003.003-.003.003-.003.002-.003.003-.003.002-.003.003-.003.003-.003.002-.003.003-.003.002-.003.003-.003.002-.003.003-.003.002-.003.003-.003.002-.003.003-.003.002-.003.002-.004.003-.003.002-.003.003-.003.002-.003.003-.003.002-.003.003-.004.002-.003.002-.003.002-.003.003-.004.002-.003.002-.003.002-.003.003-.004.002-.003.002-.003.002-.003.002-.004.003-.003.002-.004.002-.003.003-.003.002-.004.002-.003.002-.004.002-.003.002-.003.002-.004.002-.003.003-.004.002-.003.002-.004.002-.003.002-.004.002-.003.002-.004.002-.004.002-.003.002-.004.002-1.865 1-.003.001-.004.002-.003.002-.004.002-.003.002-.004.002-.003.001-.004.002-.003.002-.004.001-.003.002-.004.002-.003.002-.004.001-.003.002-.004.001-.003.002-.004.001-.004.002-.003.002-.004.001-.003.002-.004.001-.003.002-.004.001-.003.002h-.001l-.003.001-.004.002-.003.001-.004.001-.004.002-.003.001-.004.002-.003.001-.004.002h-.004v.001l-.003.001-.004.002h-.004v.001l-.003.001-.004.001-.004.002h-.003v.001l-.004.001-.004.001-.003.002h-.004v.001h-.004v.001l-.003.001h-.004v.001l-.004.001h-.002l-.003.001-.007.002-.007.002h-.001l-.007.002-.007.002h-.001l-.007.002-.007.002-.008.002-.007.001-.008.002-.007.001-.008.002-.007.001-.008.002-.007.001-.007.002h-.008l-.008.002h-.007l-.008.002h-.008l-.007.002h-.008l-.007.002h-.008l-.007.001h-.008l-.008.001h-.008l-.007.001h-.008l-.007.001h-.008l-.007.001h-.086l-.007-.001h-.008l-.007-.001h-.008l-.008-.001-.007-.001h-.008l-.007-.002h-.008l-.007-.001h-.001l-.007-.001-.008-.002h-.007l-.001-.001-.007-.001-.008-.002h-.007l-.001-.001-.007-.001-.007-.002h-.001l-.007-.001-.008-.002-.007-.002-.007-.001h-.001l-.007-.002-.007-.002h-.001l-.007-.002-.007-.001-.007-.002h-.001l-.007-.003-.007-.002-.007-.002h-.001l-.007-.002-.007-.002-.004-.002h-.004l-.003-.002-.004-.001-.004-.002h-.003l-.004-.002-.004-.001-.003-.002h-.004l-.003-.002-.004-.001-.003-.002-.004-.001-.004-.001-.003-.002-.004-.001-.003-.002-.004-.001-.004-.002-.003-.001-.004-.002-.003-.001-.004-.002-.003-.001-.004-.002-.003-.001-.004-.002-.003-.001-.004-.002-.003-.001-.004-.002-.004-.002-.004-.001-.003-.002-.004-.001-.003-.002-.004-.002-.003-.002-.003-.001-.004-.002-.003-.002-.004-.001-.003-.002-.004-.002-.003-.002-.004-.001-.003-.002-.003-.002-.004-.002-.003-.002-.003-.002-1.69-.948-.003-.002-.004-.002-.004-.003-.004-.002-.004-.002-.004-.002-.004-.003-.004-.002-.004-.003-.004-.002-.004-.002-.004-.003-.004-.003-.004-.002-.003-.003-.004-.002-.004-.003-.004-.003-.003-.002-.004-.003-.004-.002-.003-.003-.004-.002-.004-.003-.004-.002-.003-.003-.004-.003-.004-.002-.003-.003-.004-.003-.003-.003-.004-.002-.004-.003-.003-.003-.004-.003-.003-.003-.004-.002-.004-.003-.003-.003-.004-.003-.003-.003-.004-.003-.004-.003-.003-.002-.003-.003-.004-.003-.003-.003-.004-.003-.003-.003-.004-.003-.003-.003-.003-.003-.004-.003-.003-.003-.003-.003-.004-.003-.003-.003-.003-.003-.004-.003-.003-.003-.003-.003-.003-.003-.003-.003-.004-.003-.003-.003-.003-.003-.003-.003-.003-.004-.004-.003-.003-.003-.003-.003-.003-.003-.003-.004-.003-.003-.003-.003-.003-.003-.003-.004-.003-.003-.003-.003-.003-.003-.003-.004-.003-.003-.003-.003-.003-.004-.003-.003-.003-.003-.003-.004-.003-.003-.002-.003-.003-.004-.003-.003-.003-.003-.003-.004-.002-.003-.003-.004-.003-.003-.003-.004-.002-.003-.003-.004-.003-.003-.003-.004-.002-.003-.003-.004-.002-.003-.003-.004-.003-.003-.002-.004-.003-.003-.002-.004-.003-.004-.002-.003-.003-.004-.003-.003-.002-.004-.002-.003-.003-.004-.003-.004-.002-.004-.002-.003-.002-.004-.003-.004-.002-.003-.002-.004-.003-.004-.002-.003-.002-.004-.003-.004-.002-.004-.002-.003-.002-.004-.002-.004-.002-.004-.003-.003-.002-.004-.002-.004-.002-.004-.002-.004-.002-.003-.002-.004-.002-.004-.002-.004-.002-.004-.002-.003-.002-.004-.002-.004-.002-.004-.002-.004-.002-.004-.002-.004-.002-.004-.002-.004-.002-.004-.002-.004-.001-.004-.002-.004-.002-.004-.002-.004-.001-.004-.002-.004-.002-.004-.002-.004-.001-.004-.002-.004-.002-.004-.001-.004-.002-.004-.002-.004-.001-.005-.002-.004-.001-.004-.002-.004-.002-.004-.001-.004-.002-.004-.001-.004-.002-.004-.001-.004-.002-.004-.001-.004-.002-.004v-.005h-.001l-.001-.004-.002-.004v-.004h-.001l-.001-.004-.002-.005v-.004l-.002-.004-.001-.004-.002-.004v-.005l-.002-.004-.001-.004-.001-.004-.002-.005v-.004l-.002-.004v-.004l-.002-.005v-.004h-.001l-.001-.004-.001-.005-.001-.004-.001-.004-.001-.005-.001-.004v-.001l-.001-.004v-.004h-.001v-.005h-.001v-.004h-.001v-.004h-.001v-.005l-.002-.004v-.004l-.001-.005-.001-.004v-.004l-.001-.005-.001-.004v-.005h-.001v-.004l-.001-.004v-.005l-.001-.004v-.005h-.001v-.005l-.001-.004v-.004l-.001-.005v-.004l-.001-.005v-.004l-.001-.005v-.009l-.001-.004v-.009l-.001-.004v-.018l-.001-.004v-.022l-.001-.004V11.05l.001-.005v-.015l.001-.005v-.011l.001-.005v-.005l.001-.005v-.005l.001-.005v-.005l.001-.005v-.005l.001-.005v-.005l.001-.005v-.001l.001-.005v-.005l.001-.005v-.005l.001-.004.001-.005v-.005h.001v-.005l.001-.005.001-.005.001-.005.001-.005v-.005l.002-.005v-.005l.002-.005v-.005l.002-.005v-.004l.002-.005v-.005h.001v-.005h.001l.001-.005.001-.005.001-.005.001-.005.002-.005v-.005l.002-.004.001-.005.001-.005.002-.005v-.005h.001l.001-.005.002-.005v-.005h.001l.001-.005.002-.004.001-.005.002-.005.001-.005.001-.005.002-.005.001-.004.002-.005.002-.005.001-.004.002-.005.002-.005.001-.005.002-.004.001-.005.002-.005.002-.005.001-.004.002-.005.002-.005.002-.004.002-.005.001-.004.002-.005.002-.005.002-.005.002-.004.002-.005.002-.004.001-.005.002-.005.002-.004.002-.005.002-.004.002-.005.003-.004.002-.005.002-.005.002-.004.002-.005.002-.004.002-.005.002-.004.002-.005.003-.004.002-.005.002-.004.002-.004.003-.005.002-.004.002-.005.003-.004.002-.005.002-.004.003-.004.002-.005.003-.004.002-.005.003-.004.002-.004.003-.004.002-.005.003-.004.002-.004.003-.005.002-.004.003-.004.003-.004.002-.005.003-.004.003-.004.002-.004.003-.004.003-.005.002-.004.003-.004.003-.004.003-.004.003-.005.002-.004.003-.004.003-.004.003-.004.003-.004.003-.004.003-.004.003-.004.003-.004.003-.004.003-.004.003-.004.003-.004.003-.004.003-.004.003-.004.003-.004.003-.004.004-.004.003-.004.003-.004.003-.004.003-.004.004-.004.003-.004.003-.003.004-.004.003-.004.003-.004.004-.004.003-.003.004-.004.003-.004.004-.004.003-.003.003-.004.004-.004.003-.004.004-.003.003-.004.004-.003.003-.004.004-.004.004-.003.003-.004.004-.004.004-.003.003-.004.004-.003.004-.004.003-.004.004-.003.004-.004.003-.003.004-.004.004-.003.004-.004.004-.003.003-.003.004-.004.004-.003.004-.004.004-.003.004-.003.004-.004.004-.003.003-.003.004-.004.004-.003.004-.003.004-.003.004-.004.004-.003.004-.003.004-.004.004-.003.004-.003.005-.003.004-.003.004-.003.004-.004.004-.002.004-.004.004-.003.005-.003.004-.003.004-.003.004-.003.004-.003.005-.003.004-.003.004-.003.004-.003.005-.003.004-.002.004-.003.005-.003.004-.003.005-.003.004-.003.005-.003.004-.002.004-.003.005-.003.004-.003.005-.002.004-.003.005-.003.004-.002.005-.003.004-.002 1.545-.891.003-.002.004-.002.004-.002.004-.002.004-.002.003-.003.004-.002.004-.002.004-.002.004-.002.004-.002.004-.002.004-.002.004-.002.004-.002.003-.002.004-.002.005-.002.004-.002.003-.001.005-.002.004-.002.003-.002.005-.002.004-.002.004-.002.004-.001.004-.002.004-.002.004-.002.004-.001.004-.002.004-.002.004-.002.005-.001.004-.002.004-.001.004-.002.004-.002.004-.001.004-.002.004-.001.004-.002.004-.001.005-.002.003-.001h.001l.004-.002h.004V9.06l.004-.001.004-.002.004-.001.004-.001.005-.002.004-.001.004-.002h.004l.004-.002.005-.001.004-.002h.004v-.001l.004-.001.005-.001.004-.002h.004l.004-.002h.005v-.001h.004v-.001l.004-.001.004-.001.005-.001.004-.001.004-.001.004-.001.005-.001.004-.001.004-.002h.005l.004-.001.004-.001.005-.001.004-.001h.004l.005-.002h.004l.004-.001.004-.001h.005v-.001h.004l.004-.001.005-.001h.004l.004-.002h.01l.005-.001h.004l.004-.001h.005l.004-.001h.004l.004-.001h.005l.004-.001h.009l.004-.001h.009l.004-.001h.005l.004-.001h.012l.004-.001h.014l.005-.001h.052V9zm-.005.418h-.025l-.003.001h-.013l-.002.001h-.011l-.002.001h-.005l-.003.001h-.007l-.003.001h-.005l-.003.001h-.002l-.003.001h-.005l-.003.001h-.002l-.003.001h-.002l-.003.001h-.002l-.003.001H14.9l-.003.001h-.002l-.003.001h-.002l-.003.001-.003.001h-.002l-.003.001h-.002l-.003.001h-.003l-.002.002h-.005l-.003.001-.002.001h-.003l-.002.001h-.003l-.003.002h-.002l-.002.001h-.003l-.002.002h-.003l-.003.001h-.002l-.003.002h-.002l-.003.001h-.002l-.003.002h-.002l-.003.001-.002.001h-.003l-.002.002h-.002l-.003.001-.003.001-.002.001-.002.001-.003.001-.002.001h-.003l-.002.002h-.003l-.002.002h-.002l-.003.002h-.002l-.003.001-.002.002h-.002l-.003.002h-.002l-.002.002h-.003l-.002.002-.003.001-.002.001-.003.001-.002.001-.002.001-.003.002h-.002l-.003.002-.002.001-.002.001-.003.001-.002.001-.003.002h-.002l-.002.002-.003.001-.002.002h-.002l-.002.002-.003.001-.002.001-.002.002-.003.001-.002.001-.002.001-.003.002-1.543.89-.003.002-.003.002-.003.002-.004.002-.003.002-.003.002-.003.001-.002.002-.003.002-.003.002-.003.002-.003.002-.003.002-.003.002-.003.001-.003.002-.003.002-.003.002-.002.002-.003.002-.003.002-.003.002-.003.002-.003.002-.003.002-.002.002-.003.002-.003.002-.003.002-.003.003-.003.002-.002.002-.003.002-.003.002-.002.002-.003.002-.003.002-.002.002-.003.003-.003.002-.002.002-.003.002-.003.002-.002.002-.003.003-.002.002-.003.002-.003.002-.002.002-.003.003-.002.002-.003.002-.002.003-.003.002-.002.002-.003.003-.002.002-.003.002-.002.003-.003.002-.002.002-.002.003-.003.002-.002.002-.003.003-.002.002-.002.003-.003.002-.002.003-.002.002-.003.003-.002.002-.002.002-.003.003-.002.003-.002.002-.002.002-.003.003-.002.002-.002.003-.002.002-.003.003-.002.002-.002.003-.002.002-.002.003-.003.003-.002.002-.002.003-.002.002-.002.003-.002.002-.002.003-.002.003-.003.002-.002.003-.002.003-.001.002-.003.003-.002.003-.002.002-.002.003-.002.003-.002.002-.002.003-.002.003-.002.003-.002.002-.002.003-.002.003-.001.003-.002.002-.002.003-.002.003-.002.003-.002.002-.002.003-.002.003-.001.003-.002.003-.002.002-.002.003-.001.003-.002.003-.002.003-.002.002-.002.003-.001.003-.002.003-.002.003-.001.003-.002.003-.002.003-.001.003-.002.002-.002.003-.001.003-.002.003-.001.003-.002.003-.001.003-.002.003-.001.003-.002.003-.001.003-.002.003-.001.003-.002.003v.003l-.002.003-.002.003-.001.003-.002.003-.001.003-.002.003v.003l-.002.003-.001.003-.002.003v.003l-.002.003-.002.003v.003l-.002.003-.001.004-.001.003-.002.003v.003l-.002.003-.001.003-.002.003v.003l-.002.003-.001.004-.001.003-.001.003-.001.003-.002.003v.003l-.002.003v.004l-.002.003v.003l-.002.003v.003l-.002.003v.004l-.002.003v.003l-.001.003-.001.004-.001.003-.001.003v.003l-.002.004v.003l-.001.003-.001.003v.004l-.002.003v.003l-.001.003-.001.004v.003l-.001.003-.001.003v.004l-.002.003v.003l-.001.004v.003l-.001.003v.003l-.002.004v.006l-.001.003v.004l-.001.003v.003l-.001.004v.003l-.001.003V11l-.001.004v.003l-.001.003v.007l-.001.003v.007l-.001.003v.007l-.001.003v.007l-.001.004v.01l-.001.003v.021l-.001.003v1.905l.001.002v.015l.001.003v.01l.001.003v.005l.001.003v.006l.001.002v.006l.001.002v.003l.001.003v.005l.001.003v.002l.001.003v.003l.001.002v.003l.001.003v.002l.001.003v.002l.001.003v.003l.001.002v.003l.002.002v.006l.001.002.001.003v.003l.001.002.001.003v.002l.001.003.001.003v.002l.002.003v.002l.001.003v.003l.002.002v.003l.001.002.001.003v.003l.002.002v.003l.001.002.001.003v.002l.002.003v.003l.001.002.001.003.001.002.001.003.001.002.001.003.001.002.001.003.001.002v.003l.002.002.001.003.001.002.001.003.001.002.001.003.001.002.001.002.001.003.002.002v.003l.002.002v.003l.002.002.001.003.001.002.001.003.002.002v.002l.002.003.001.002.001.003.002.002v.002l.002.003.001.002.002.003.001.002.001.002.002.003v.002l.002.002.001.003.002.002.001.002.001.002.002.003.001.002.001.003.002.002.001.002.002.003.001.002.002.002.001.002.001.003.002.002.001.002.002.002.001.003.002.002.001.002.002.002.001.002.002.003.002.002.001.002.002.002.001.003.002.002.001.002.002.002.002.002.001.003.002.002.001.002.002.002.002.002.001.002.002.002.002.003.001.002.002.002.002.002.002.002.001.002.002.002.002.002.002.002.001.002.002.002.002.002.001.002.002.002.002.002.002.002.002.002.001.002.002.002.002.002.002.002.002.002.002.002.002.002.001.002.002.002.002.002.002.002.002.002.002.002.002.002.002.002.002.002.002.002.002.001.002.002.002.002.002.002.002.002.002.002.002.002.002.001.002.002.002.002.002.002.002.001.002.002.002.002.002.002.002.001.002.002.002.002.003.002.002.001.002.002.002.002.002.002.002.001.003.002.002.002.002.001.002.002.002.002.002.001.002.002.003.002.002.001.002.002.002.001.003.002.002.002.002.001.002.002.003.002.002.001.002.002.002.001.003.002.002.001.003.002.002.002h.002l.003.002.002.002.002.001.002.002.003.001.002.002.003.001.002.002h.003l.002.002.002.002.003.001.002.002.003.001 1.684.947.002.001.002.001.002.001.002.002h.002l.002.001.002.002h.002l.001.002h.002l.002.001.002.001.002.001.002.001.002.001.002.001.002.001.002.001h.001l.002.002h.002l.002.002h.002l.002.001.002.001.002.001h.002l.002.002h.002l.002.001h.002l.002.002h.001l.002.001h.002l.002.002h.002l.002.001.002.001h.002l.002.001.002.001h.002l.002.002h.002l.002.001h.002l.002.001h.002l.002.001.002.001h.001l.005.002.004.001.004.001.004.002h.004l.004.002h.004l.004.002h.004l.004.002h.004l.004.001.004.001.004.001h.004l.004.002h.008l.005.002h.008l.004.001.004.001h.008l.004.001h.004l.004.001h.012l.005.001h.025l.004.001h.033l.004-.001h.008l.005-.001h.004l.004-.001h.008l.004-.001.004-.001h.004l.004-.001h.004l.004-.001.004-.001h.005l.004-.002h.004l.004-.001.004-.001.004-.001.004-.001.004-.001.004-.001.004-.001.004-.001.005-.001.004-.001.004-.002h.004l.002-.001.002-.001h.002l.001-.001h.002l.002-.002h.004l.002-.002h.004l.002-.002h.004l.002-.002h.004l.002-.002h.002l.002-.001h.001l.002-.002h.002l.002-.001h.002l.002-.002h.002l.002-.002h.002l.002-.001.002-.001.002-.001h.002l.002-.002h.001l.002-.002h.002l.002-.001.002-.001.002-.001.002-.001.002-.001h.002l.002-.002h.002l.002-.002h.001l.002-.002h.002l.002-.002 1.865-1h.002l.002-.001.002-.001.002-.001.002-.002h.002l.002-.002h.002l.002-.002h.002l.002-.002.002-.001.001-.001.002-.002h.002l.002-.002h.002l.002-.002.002-.001.002-.002h.001l.002-.002.002-.001.002-.002h.002l.002-.002.002-.001.001-.001.002-.002h.002l.002-.002.002-.002h.001l.002-.002.002-.001.002-.002.001-.001.002-.001.002-.002.002-.001.001-.001.002-.002.002-.001.001-.002.002-.001.002-.001.002-.002.001-.001.002-.002.002-.001.001-.001.002-.002.002-.001.001-.002.002-.001.002-.002h.001l.002-.002.002-.002.001-.001.002-.001.001-.002.002-.001.002-.002.001-.001.002-.002.001-.001.002-.002.002-.002h.001l.002-.002.001-.002.002-.002.001-.001.001-.002.002-.001.001-.002.002-.001.001-.002.002-.002.001-.001.002-.002.001-.001.002-.002.001-.001.002-.002.001-.002.001-.001.002-.002.001-.002.002-.001.001-.002.001-.001.002-.002.001-.002.002-.001v-.002l.002-.001.001-.002.002-.002.001-.001.001-.002.002-.002.001-.002.001-.001.002-.002v-.002l.002-.002.001-.001.002-.002.001-.002.001-.001.001-.002.002-.002v-.002l.002-.001.001-.002.002-.002v-.002l.002-.002.001-.001.001-.002.001-.002.001-.002.002-.001v-.002l.002-.002.001-.002.001-.002.001-.001.001-.002.001-.002.001-.002.001-.002.001-.002.002-.002v-.001l.001-.002.001-.002.001-.002.001-.002.001-.002.001-.002.001-.002.001-.002.001-.001.001-.002.001-.002v-.002l.002-.002v-.002l.002-.002v-.002l.001-.002.001-.002.001-.002v-.002l.002-.002v-.001l.002-.002v-.002l.001-.003.001-.001v-.002l.002-.002v-.002l.001-.002.001-.002v-.002l.002-.002v-.002l.001-.002.001-.002v-.002l.002-.002V13.2l.001-.002v-.002l.002-.002v-.004l.002-.002v-.004l.002-.002v-.004l.002-.002v-.004l.002-.002v-.004l.001-.002v-.003l.001-.002v-.002l.001-.002v-.002l.002-.002v-.006l.001-.002v-.002l.001-.002v-.002l.001-.002v-.002l.001-.002v-.003l.001-.002v-.004l.001-.002v-.002l.001-.002v-.005l.001-.002v-.004l.001-.002v-.006l.001-.002v-.005l.001-.002v-.004l.001-.002v-.009l.001-.002v-.015l.001-.002v-2.176l-.001-.002v-.009l-.001-.002v-.008l-.001-.002v-.004l-.001-.002v-.004l-.001-.002v-.004l-.001-.002v-.003l-.001-.002v-.002l-.001-.004v-.004l-.002-.003v-.004l-.002-.004v-.004l-.001-.004-.001-.004-.001-.003-.001-.004-.002-.004v-.003l-.002-.004-.001-.004-.001-.003-.002-.004v-.004l-.002-.004-.001-.003-.002-.004-.001-.004-.001-.003-.002-.004-.001-.003-.002-.004-.001-.004-.002-.003-.001-.004-.002-.003-.001-.004-.002-.003-.002-.004-.002-.003-.001-.003-.002-.004-.002-.003-.002-.004-.002-.003-.002-.004-.002-.003-.001-.004-.002-.003-.002-.003-.003-.004-.002-.003-.002-.003-.002-.003-.002-.004-.002-.003-.003-.003-.002-.003-.002-.004-.002-.003-.003-.003-.002-.003-.003-.003-.002-.003-.003-.003-.002-.003-.002-.003-.003-.003-.002-.004-.003-.002-.003-.003-.002-.003-.003-.003-.003-.003-.002-.003-.003-.003-.003-.003-.003-.002-.002-.003-.003-.003-.003-.003-.003-.003-.003-.002-.002-.003-.004-.003-.003-.002-.003-.003-.003-.003-.003-.002-.003-.003-.003-.002-.001-.002h-.002l-.002-.002-.001-.001-.002-.002h-.001l-.002-.002-.002-.001-.001-.002h-.002l-.001-.002-.002-.001-.002-.002h-.001l-.002-.002-.001-.001-.002-.001-.002-.001-.001-.001-.002-.002h-.002l-.002-.002-.001-.001-.002-.001-.002-.001-.001-.001-.002-.002h-.002l-.001-.002h-.002l-.002-.002h-.002l-.002-.002-.001-.001-.002-.001-.002-.001-.001-.001-.002-.001-.002-.001-.002-.001-.001-.001-.002-.001-.002-.002h-.002l-1.826-1.006-.002-.002h-.003l-.002-.002-.003-.001-.002-.002h-.002l-.003-.002-.002-.001-.002-.001-.003-.002h-.002l-.003-.002-.002-.001-.002-.001-.003-.001-.002-.001-.003-.002h-.002l-.002-.002h-.003l-.002-.002-.003-.001-.002-.001-.002-.001-.003-.001-.002-.001-.003-.001-.002-.001-.002-.001-.003-.001-.002-.001-.003-.001h-.002l-.003-.002h-.002l-.002-.002h-.003l-.002-.002h-.003l-.002-.001-.003-.001h-.002l-.002-.002h-.003l-.002-.001h-.003l-.003-.002h-.002l-.002-.001-.003-.001h-.002l-.003-.002H15.2l-.003-.001h-.002l-.003-.002h-.002l-.003-.001h-.003l-.002-.001-.003-.001h-.002l-.003-.001-.002-.001h-.003l-.002-.001h-.003l-.002-.001-.003-.001h-.002l-.003-.001h-.002l-.003-.001h-.002l-.003-.001h-.002l-.003-.001h-.002l-.003-.001h-.002l-.003-.001h-.003l-.002-.001h-.005l-.003-.001h-.002l-.003-.001h-.005l-.003-.001h-.005l-.002-.001h-.005l-.003-.001h-.005l-.003-.001h-.007l-.003-.001h-.008l-.002-.001h-.016l-.002-.001h-.029.002z"
    fill="#00A88A"
  ></path>
  <path
    d="M16.667 11.953c0 .73-.144.943-.432 1.247-.287.304-.668.427-1.143.427-.434 0-.784-.148-1.088-.406a1.626 1.626 0 01-.057-2.44 1.764 1.764 0 011.179-.451c.543 0 1.107.247 1.454.735l-.51.415c-.216-.387-.53-.517-.978-.53-.496-.013-1.042.442-1.002 1.049.023.34.188.923.98 1.03.418.056.891-.372.891-.604h-.783v-.58h1.488v.107z"
    fill="#fff"
  ></path>
  <path
    fill-rule="evenodd"
    clip-rule="evenodd"
    d="M23.787 12.818v-1.893a.679.679 0 00-.358-.593L21.6 9.327a.875.875 0 00-.856.008l-1.544.891a1.03 1.03 0 00-.524.89v1.85c0 .309.17.594.447.75l1.685.948a.76.76 0 00.727.007l1.865-1a.718.718 0 00.385-.63v-.223z"
    fill="#EBB951"
  ></path>
  <path
    fill-rule="evenodd"
    clip-rule="evenodd"
    d="M21.183 9.01h.025l.004.001h.026l.004.001h.018l.004.001h.009l.004.001h.008l.005.001h.008l.005.001h.004l.004.001h.005l.004.001h.004l.005.001h.004l.004.001h.004l.005.001h.004l.004.001.005.001h.004l.004.001.005.001h.004l.004.001.005.001h.004l.004.002h.005l.004.002h.004l.005.001.004.001.004.001.005.001h.004l.004.002h.004l.005.002h.004v.001l.004.001.004.001.005.001.004.001.004.001.004.001.005.002h.004l.004.002h.004v.001l.004.001.005.001.004.002.004.001.004.001.004.002.005.001.004.002h.004v.001l.004.001.004.002.004.001.004.001.005.002.003.001.005.002.004.001.004.002.004.001.004.002.004.002.004.001.004.002.005.001.004.002.004.001.004.002.004.002.004.001.004.002.004.002.004.002.004.001.004.002.004.002.004.002.004.002.004.001.004.002.004.002.004.002.004.002.004.002.004.002.004.002.004.002.004.002.004.002.004.002.004.002.004.002.003.002.005.003.003.002 1.83 1.006.002.002.003.002.004.002.003.001.003.002.004.002.003.002.003.002.004.002.003.002.003.002.003.002.004.002.003.002.003.002.003.002.003.002.004.002.003.002.003.002.003.002.003.002.003.003.003.002.003.002.003.002.004.002.003.002.003.003.003.002.003.002.003.002.003.002.003.003.003.002.003.002.003.002.003.003.003.002.003.002.002.003.003.002.003.003.003.002.006.005.005.005.006.005.006.004.005.005h.001l.005.005.006.005v.001l.005.004v.001l.006.005.005.005.005.005h.001l.005.005.005.005v.001l.005.005.005.005h.001l.005.005v.001l.005.005.005.005.005.006.005.005.004.006h.001l.004.005.005.006.005.005v.001l.005.005.004.006.005.006.004.006.005.005v.001l.004.005.005.006.004.006.004.006.004.006.004.006.004.006.004.006.004.006v.001l.004.006.005.006.003.006.004.006v.001l.004.006.004.006.003.006v.001l.004.006.003.006.004.007.003.006.004.007.003.006.003.007.003.006.004.007.003.006v.001l.003.006.003.007.003.006v.001l.003.006.002.007.003.006v.001l.003.006v.001l.002.006v.001l.003.006.003.007.002.007.002.007.003.006v.001l.002.006v.001l.002.006.003.007.002.007.002.007.002.007.002.007.002.007v.001l.001.006v.001l.002.006v.001l.002.007.001.006v.001l.002.007.002.007v.007l.001.001.001.006v.001l.001.003v.004h.001v.003l.001.004v.004l.002.003v.008l.001.003v.004l.001.004v.004l.001.003v.004l.001.003v.004l.001.004v.003l.001.004v.007l.001.004v.008l.001.003v.008l.001.003v.015l.001.004v.026l.001.004v2.164l-.001.004v.016l-.001.004v.008l-.001.004v.008h-.001v.007l-.001.004v.008h-.001v.008l-.001.004v.004l-.001.004v.004h-.001v.003l-.001.004v.004l-.001.004v.004l-.001.004v.004h-.001v.004l-.001.003-.001.004v.004l-.001.004-.001.004v.003h-.001v.004l-.002.004v.004l-.001.003-.001.004-.001.004v.004l-.002.004v.004l-.001.003-.001.004-.001.004-.001.004-.001.003-.001.004-.002.004v.004l-.002.003v.004h-.001l-.001.004-.001.003-.001.004-.001.004-.002.004v.003l-.002.004-.001.003-.001.004-.002.004v.003h-.001l-.001.004-.002.004v.003l-.002.004-.001.004-.002.003-.001.004-.002.004-.001.003-.001.004-.002.003-.001.004-.002.003v.001l-.001.003-.002.004-.001.003-.002.004-.001.004-.002.003-.001.004-.002.003-.001.004-.002.003-.001.004-.002.003-.002.004-.001.003-.002.004-.001.003-.002.004-.002.003-.001.004-.002.003-.002.004-.002.003-.001.003-.002.004-.002.003-.002.004-.002.003-.002.004-.001.003-.002.003-.002.003-.002.004-.002.003-.002.004-.002.003-.002.003-.002.004-.002.003-.002.003-.002.004-.002.003-.002.003-.002.004-.002.003-.002.003-.002.003-.002.004-.002.003-.002.003-.003.003-.002.003-.002.003-.002.004-.003.003-.002.003-.002.003-.002.003-.002.003-.002.003-.003.004-.002.003-.002.003-.002.003-.003.003-.002.003-.002.003-.003.003-.002.003-.003.003-.002.004-.003.003-.002.003-.002.003-.003.003-.002.003-.003.003-.002.003-.003.003-.003.003-.002.003-.003.002-.002.003-.003.003-.002.003-.003.003-.002.003-.003.003-.003.003-.002.003-.003.002-.003.003-.003.003-.002.003-.003.003-.003.003-.002.003-.003.002-.003.003-.003.003-.003.003-.003.002-.003.003-.002.003-.003.003-.003.002-.003.003-.003.002-.003.003-.003.003-.003.003-.003.002-.003.003-.003.002-.003.003-.003.003-.003.002-.003.003-.003.002-.003.003-.003.003-.003.002-.003.003-.003.002-.003.003-.003.002-.003.003-.003.002-.003.003-.004.002-.003.002-.003.003-.003.002-.003.003-.004.002-.003.002-.003.003-.003.002-.003.002-.004.002-.003.003-.003.002-.004.002-.003.002-.003.003-.003.002h-.001l-.003.002-.004.002-.003.002-.003.003-.004.002-.003.002-.003.003-.004.002-.003.002-.003.002-.004.002-.003.002-.004.002-.003.002-.004.002-.003.002-.004.002-.003.002-.004.002-.004.002-.003.002-.004.002-.004.002-1.865 1-.003.001-.004.002-.003.002-.004.001-.003.002-.003.002-.004.002-.004.002-.003.001-.004.002-.003.002-.003.001-.004.002-.004.002-.003.001-.004.002-.003.001-.004.002-.003.002h-.001l-.003.001-.004.002-.004.001-.003.002h-.004v.001l-.003.001-.004.002-.003.001-.004.002-.004.001-.003.002h-.004v.001l-.003.001h-.001l-.003.002-.004.001-.003.002h-.004l-.004.002-.003.001-.004.002h-.003v.001l-.004.001-.004.001-.003.002h-.004v.001l-.004.001-.003.001-.004.002h-.004l-.003.002h-.004l-.003.002h-.004v.001l-.007.002-.008.002-.007.002-.007.002h-.001l-.007.002-.007.002h-.001l-.007.001-.007.002-.008.002-.007.001-.007.002h-.001l-.007.001-.007.002h-.001l-.007.001-.007.002h-.008l-.007.002h-.001l-.007.001-.008.001-.007.001h-.001l-.007.001-.007.001h-.008v.001h-.008l-.007.001h-.001l-.007.001h-.008l-.007.001h-.008l-.007.001h-.008l-.007.001h-.091l-.008-.001h-.008l-.007-.001h-.008l-.007-.002h-.016l-.007-.002h-.008l-.007-.002h-.008l-.007-.002h-.008l-.007-.002h-.001l-.007-.001-.007-.002h-.001l-.007-.001-.007-.002h-.008v-.001l-.008-.002-.007-.001-.007-.002h-.001l-.007-.001-.007-.002h-.001l-.007-.002-.007-.002h-.001l-.007-.002-.007-.002-.007-.002h-.001l-.007-.002-.007-.003h-.001l-.006-.002h-.001l-.003-.001-.004-.002h-.004l-.003-.002-.004-.001-.004-.001-.003-.002-.004-.001-.004-.001-.003-.002h-.004l-.003-.002-.004-.001-.004-.002-.003-.001-.004-.002-.004-.001-.003-.001-.004-.002-.004-.001-.003-.002-.004-.001-.003-.002-.004-.001-.004-.002-.003-.001-.004-.002-.003-.001-.004-.002-.003-.001-.004-.002-.003-.001-.004-.002-.003-.002-.004-.002-.003-.001-.004-.002-.003-.002-.004-.002-.003-.001-.004-.002-.003-.002-.004-.001-.003-.002-.004-.002-.003-.002-.004-.001-.003-.002-.003-.002-.004-.002-.003-.002-.004-.002-1.684-.947-.004-.002-.005-.003-.004-.002-.004-.002-.004-.003-.004-.002-.004-.002-.004-.003-.004-.002-.004-.003-.003-.002-.004-.002-.004-.003-.004-.002-.004-.003-.004-.002-.004-.003-.004-.002-.003-.003-.004-.002-.004-.003-.004-.002-.003-.003-.004-.003-.004-.002-.003-.003-.004-.002-.004-.003-.003-.003-.004-.002-.004-.003-.003-.003-.004-.002-.003-.003-.004-.003-.003-.003-.004-.002-.004-.003-.003-.003-.004-.003-.003-.002-.004-.003-.003-.003-.004-.003-.003-.003-.003-.003-.004-.003-.003-.003-.003-.002-.004-.003-.003-.003-.004-.003-.003-.003-.003-.003-.004-.003-.003-.003-.003-.003-.003-.004-.004-.003-.003-.003-.003-.003-.003-.003-.004-.003-.003-.003-.003-.003-.003-.003-.003-.003-.003-.004-.004-.003-.003-.003-.003-.003-.003-.003-.003-.004-.003-.003-.003-.003-.003-.003-.003-.004-.003-.003-.003-.003-.003-.004-.003-.003-.003-.003-.003-.003-.003-.004-.003-.003-.003-.004-.003-.003-.002-.003-.003-.004-.003-.003-.003-.004-.003-.003-.002-.003-.003-.004-.003-.003-.003-.003-.002-.004-.003-.003-.003-.004-.002-.003-.003-.004-.003-.004-.002-.003-.003-.004-.003-.003-.002-.004-.003-.003-.002-.004-.003-.004-.002-.003-.003-.004-.002-.003-.003-.004-.002-.004-.003-.003-.002-.004-.002-.003-.003-.004-.002-.004-.003-.003-.002-.004-.002-.003-.003-.004-.002-.004-.002-.003-.002-.004-.003-.004-.002-.003-.002-.004-.002-.004-.003-.004-.002-.004-.002-.003-.002-.004-.002-.004-.002-.004-.003-.003-.002-.004-.002-.004-.002-.004-.002-.004-.002-.003-.002-.004-.002-.004-.002-.004-.002-.004-.002-.004-.001-.004-.002-.004-.002-.004-.002-.004-.002-.004-.002-.004-.002-.004-.001-.004-.002-.004-.002-.004-.002-.004-.002-.004-.001-.004-.002-.004-.002-.003v-.001l-.002-.004-.001-.004-.002-.004-.001-.004-.002-.004-.002-.004-.001-.004-.002-.004-.001-.005-.002-.004-.001-.004-.002-.004-.001-.004-.002-.004-.001-.004-.002-.004-.001-.005-.002-.004v-.004h-.001l-.001-.004-.002-.004-.001-.004-.001-.005-.002-.004v-.004l-.002-.004-.001-.005-.002-.004-.001-.004-.001-.004-.001-.004-.002-.005v-.004l-.002-.004-.001-.004-.001-.005-.001-.004-.001-.004-.001-.004-.002-.005v-.004l-.002-.004v-.004l-.002-.005v-.004l-.002-.004v-.005l-.001-.004-.001-.004-.001-.005v-.004h-.001v-.004l-.001-.004-.001-.005v-.004l-.002-.004v-.01l-.002-.005v-.008.001l-.002-.004v-.009l-.001-.004v-.005l-.001-.004v-.005l-.001-.004v-.004l-.001-.005v-.004l-.001-.005v-.009l-.001-.004v-.013l-.001-.004v-.012l-.001-.004v-.022l-.001-.004v-1.93l.001-.005v-.015l.001-.005v-.005l.001-.005v-.01l.001-.005v-.005l.001-.005v-.005l.001-.006v-.005l.001-.005.001-.005v-.004l.001-.005v-.005l.002-.006v-.005l.001-.005v-.004l.001-.005.001-.005.001-.005v-.005h.001v-.005l.002-.005v-.005l.001-.005.001-.005.001-.005.001-.005.001-.005.001-.005.001-.005.001-.005.001-.005.001-.005.001-.005.002-.005v-.005l.002-.004.001-.005.001-.005.002-.005v-.005l.002-.005.001-.005.002-.005v-.005h.001l.001-.005.002-.004.001-.005.001-.005.002-.005.001-.004.002-.005.001-.005.002-.005.001-.005.002-.005.001-.004.002-.005.002-.005.001-.005.002-.004.001-.005.002-.005.002-.005.001-.004.002-.005.002-.005.002-.005.002-.005.001-.004.002-.005.002-.004.002-.005.002-.005.001-.005.002-.004.002-.005.002-.005.002-.004.002-.004v-.001l.002-.004.002-.005.002-.005.002-.004.002-.005.002-.004.003-.005.002-.004.002-.005.002-.004.002-.005.003-.004.002-.005.002-.004.002-.005.003-.004.002-.004.002-.005.003-.004.002-.005.002-.004.003-.005.002-.004.003-.004.002-.005.002-.004.003-.004.003-.005.002-.004.003-.004.002-.004.003-.005.002-.004.003-.005.003-.004.002-.004.003-.004.002-.005.003-.004.003-.004.003-.004.002-.005.003-.004.003-.004.003-.004.002-.004.003-.005.003-.004.003-.004.003-.004.003-.004.003-.004.003-.004.003-.004.003-.004.003-.004.003-.004.003-.004.003-.004.003-.005.003-.004.003-.004.003-.003.004-.004.003-.004.003-.004.003-.004.004-.004.002-.004.004-.004.003-.004.003-.004.004-.004.003-.004.004-.003.003-.004.003-.004.003-.004.004-.004.003-.004.003-.004.004-.003.003-.004.004-.004.003-.004.004-.003.003-.004.004-.004.003-.003.004-.004.004-.004.003-.003.004-.004.003-.003.004-.004.004-.003.003-.004.004-.004.004-.003.003-.004.004-.003.004-.004.004-.003.003-.004.004-.003.004-.004.004-.003.004-.003.004-.004.004-.003.003-.004.004-.003.004-.003.004-.003.004-.004.004-.003.004-.004.004-.003.004-.003.004-.003.004-.004.004-.003.004-.003.004-.003.005-.003.004-.004.004-.003.004-.003.004-.003.004-.003.004-.003.005-.003.004-.003.004-.003.004-.003.004-.003.005-.003.004-.004.005-.003.004-.002.004-.003.005-.003.004-.003.004-.003.005-.003.004-.002.004-.003.005-.003.004-.003.005-.002.004-.003.005-.003.004-.002.005-.003.004-.003.005-.003.004-.002 1.545-.891.003-.002.004-.003.004-.002.004-.002.003-.002.004-.002.004-.002.004-.003.004-.002.004-.002.003-.002h.001l.003-.002.004-.002.004-.002.004-.002.004-.001.004-.002.004-.002.004-.002.004-.002.004-.002.004-.002.004-.002.004-.002.004-.001.004-.002.004-.002.004-.002.004-.002.004-.001.004-.002.004-.002.004-.001.005-.002.003-.002.005-.001.004-.002.004-.002.004-.001.004-.002.004-.001.004-.002.005-.001.004-.002.004-.001.004-.002.004-.001.004-.002.004-.001.005-.002h.004v-.001l.004-.001.004-.002h.005v-.001l.004-.001.004-.002h.004v-.001l.004-.001.005-.001.004-.002h.004l.004-.002.005-.001.004-.001.004-.002.004-.001.005-.001.004-.001.004-.001.004-.001.004-.001.004-.001.005-.001.004-.001.004-.002h.005l.004-.001.004-.001.005-.001.004-.001h.004l.005-.002h.004l.004-.001.005-.001h.004l.004-.001.004-.001.005-.001h.004L21 9.02l.005-.001h.004l.004-.001.005-.001h.004l.005-.001.004-.001h.004l.005-.001h.004l.004-.001h.005l.004-.001h.008l.004-.001h.004l.005-.001h.013l.004-.001h.01l.004-.001h.018l.004-.001h.026l.005-.001h.013l.009.004zm-.004.418h-.039l-.002.001h-.013l-.003.001h-.012l-.003.001h-.005l-.003.001h-.007l-.003.001h-.005l-.003.001h-.002l-.003.001h-.005l-.003.001h-.002l-.003.001h-.002l-.003.001h-.002l-.003.001h-.003l-.002.001h-.003l-.002.001h-.003l-.002.001-.003.001h-.003l-.002.001h-.003l-.002.001-.003.001h-.002l-.003.001h-.002l-.003.002h-.005l-.003.002H21l-.002.002h-.003l-.002.001-.003.001h-.003l-.002.002h-.003l-.002.001h-.002l-.003.002h-.003l-.002.001-.002.001h-.003l-.002.002h-.003l-.002.002h-.003l-.002.001-.002.001-.003.001-.002.001-.003.001-.002.001-.002.001h-.003l-.002.002h-.003l-.002.002h-.003l-.002.002h-.002l-.003.002h-.002l-.003.002-.002.001-.002.001-.003.001-.002.001-.003.001-.002.002h-.002l-.003.002-.002.001-.002.001-.003.001-.002.002h-.003l-.002.002-.003.001-.002.001-.002.002-.003.001-.002.001-.002.001-.003.002h-.002l-.002.002-.003.001-.002.002-1.543.89-.004.002-.003.002-.003.002-.003.002-.003.002-.003.002-.003.001-.003.002-.003.002-.003.002-.003.002-.003.002-.003.002-.003.002-.003.002-.003.002-.003.002-.002.001-.003.002-.003.002-.003.002-.003.002-.003.002-.003.002-.003.002-.002.002-.003.002-.003.002-.003.002-.003.002-.002.002-.003.002-.003.002-.003.003-.002.002-.003.002-.003.002-.002.002-.003.002-.003.002-.002.002-.003.002-.003.003-.002.002-.003.002-.003.002-.002.003-.003.002-.002.002-.003.002-.002.002-.003.003-.003.002-.002.002-.003.003-.002.002-.003.002-.002.003-.003.002-.002.002-.002.003-.003.002-.002.002-.003.003-.002.002-.003.003-.002.002-.003.003-.002.002-.002.003-.003.002-.002.003-.002.002-.003.003-.002.002-.002.003-.003.002-.002.003-.002.002-.002.002-.003.003-.002.002-.002.003-.002.002-.002.003-.003.003-.002.002-.002.003-.002.002-.002.003-.002.002-.002.003-.002.003-.002.002-.003.003-.002.003-.002.002-.002.003-.002.003-.002.002-.002.003-.002.002-.002.003-.002.003-.002.003-.002.002-.002.003-.002.003-.002.003-.002.002-.001.003-.002.003-.002.003-.002.002-.002.003-.002.003-.002.003-.002.003-.001.002-.002.003-.002.003-.002.003-.002.003-.001.003-.002.002-.002.003-.002.003-.001.003-.002.003-.001.003-.002.003-.002.003-.001.002-.002.003-.002.003-.001.003-.002.003-.001.003-.002.003-.002.003-.001.003-.002.003-.001.003-.002.003-.001.003-.002.003v.003l-.002.003-.002.003-.001.003-.002.003-.001.003-.001.003-.002.003-.001.003-.002.003v.003l-.002.003-.002.003v.003l-.002.003-.001.003-.002.003v.003l-.002.004-.001.003-.002.003v.003l-.002.003-.001.003-.001.003-.002.003v.004l-.002.003v.003l-.002.003-.001.003-.001.003-.001.003-.001.004-.001.003-.001.003-.001.003-.001.003-.001.003-.001.004-.001.003-.001.003-.001.003v.003l-.002.004v.003l-.002.003v.003l-.001.003-.001.004-.001.003-.001.003v.003l-.002.004v.003l-.001.003-.001.003v.004l-.001.003v.003l-.002.004v.003l-.001.003v.003l-.001.004-.001.003v.003l-.001.004v.003l-.001.003v.004l-.001.003v.003l-.001.003v.004L18.9 11v.004l-.001.003v.006l-.001.004v.003l-.001.003v.004l-.001.003v.01l-.001.004v.006l-.001.003v.007l-.001.004v.013l-.001.004v1.929l.001.003v.011l.001.003v.005l.001.002v.006l.001.002v.006l.001.002v.003l.001.003v.005l.001.003v.002l.001.003v.003l.001.002v.003l.001.003v.002l.001.003v.005l.002.003v.005l.002.003v.005l.001.002v.003l.002.003v.005l.002.002v.005l.002.003v.003l.001.002v.003l.002.002v.003l.001.002v.003l.002.003v.002l.001.003.001.002v.003l.002.002v.003l.001.002.001.003v.002l.002.003v.003l.002.002v.002l.001.003.001.002.001.003.001.003.001.002.001.003.001.002.001.003.001.002.001.003.001.002.001.003.001.002.002.002v.003l.002.002v.003l.002.002v.003l.002.002.001.002.002.003v.002l.002.002v.003l.002.002.001.003.002.002v.002l.002.003.001.002.001.003.002.002v.002l.002.002.002.003v.002l.002.003.001.002.002.002.001.003.001.002.002.002.001.003.001.002.002.002.001.002.002.003.001.002.002.002v.003l.002.002.002.002.001.002.002.002.001.003.002.002.001.002.002.002.001.003.002.002.001.002.002.002.001.002.002.002.002.003.001.002.002.002.002.002.001.002.002.002.001.003.002.002.002.002.001.002.002.002.002.002.001.002.002.003.002.002.001.002.002.002.002.002.001.002.002.002.002.002.001.002.002.002.002.002.002.002.001.002.002.002.002.002.002.002.002.002.002.002.001.002.002.002.002.002.002.002.002.002.002.002.002.002.002.002.002.002.001.002.002.002.002.002.002.002.002.002.002.002.002.001.002.002.002.002.002.002.002.002.002.002.002.002.002.001.002.002.003.002.002.002.002.002.002.001.002.002.002.002.002.002.002.001.002.002.002.002.002.002.003.001.002.002.002.002.002.001.002.002.002.002.003.001.002.002.002.002.002.002.002.001.003.002.002.001.002.002.002.002.003.001.002.002.002.002.003.001.002.002.002.001.003.002.002.002.002.001.003.002.002.001.002.002.003.001.002.002.002.001.003.002.002.001.003.001.002.002.002.001.003.002.002.001.003.002h.002l.003.002.002.002.003.001 1.684.947.002.002h.002l.002.002h.002l.001.002h.002l.002.002h.002l.002.002h.002l.002.001.002.001.001.001.002.001.002.001.002.001.002.001h.002l.002.002h.002l.002.001.002.001.002.001h.002l.002.002h.002l.001.001.002.001.002.001h.002l.002.002h.002l.002.001h.002l.002.002h.002l.002.001.002.001h.002l.002.002h.003l.002.002H21l.002.001h.002l.002.002h.004l.002.002h.004l.004.002.004.001.004.001.004.002h.004l.004.002h.004l.004.002h.004l.004.002h.004l.004.001.004.001h.004l.005.002h.003l.005.001h.004l.004.002h.008l.004.001.004.001h.005l.004.001h.008l.004.001h.008l.004.001h.02l.005.001h.045l.004-.001h.008l.004-.001h.004l.005-.001h.004l.004-.001h.004l.004-.001.004-.001h.004l.004-.001.005-.001h.004l.004-.002h.004l.004-.001.004-.001.004-.001.004-.001h.004l.004-.002h.004l.004-.002.004-.001.004-.001.004-.002h.004l.002-.001h.002l.002-.002h.004l.002-.001.002-.001h.002l.002-.001.002-.001h.002l.002-.001h.002l.002-.002h.002l.002-.001h.002l.002-.002h.001l.002-.001h.002l.002-.002h.002l.002-.001.002-.001h.002l.002-.002h.002l.002-.001h.002l.002-.002h.002l.001-.002h.002l.002-.001.002-.001.002-.001.002-.001h.002l.002-.002h.002l.002-.002h.002l.002-.002h.001l.002-.001.002-.001.002-.001.002-.001.002-.001 1.866-.998.002-.001.002-.001.002-.001.002-.001.002-.001.002-.001.002-.002h.002l.002-.002h.002l.002-.002.002-.001.001-.001.002-.001.002-.002h.002l.002-.002h.002l.002-.002.001-.001.002-.001.002-.002h.002l.001-.002.002-.001.002-.002h.002l.002-.002.001-.001.002-.002h.002l.002-.002.001-.001.002-.002h.002l.002-.002.001-.001.002-.002.002-.001.002-.001.001-.002.002-.001.002-.001.002-.002.001-.001.002-.002h.001l.002-.002.002-.002.001-.001.002-.002h.002l.001-.002.002-.002.002-.001.001-.002.002-.001.001-.001.002-.002.002-.001.001-.002.002-.001.001-.002.002-.001.002-.001.001-.002.002-.001.001-.002.002-.001.001-.002.002-.002.002-.001v-.002l.003-.001.001-.002.001-.001.002-.002.001-.001.002-.002.001-.001.002-.002.001-.001.002-.002.001-.002.002-.001v-.002l.002-.002.002-.001.001-.002.002-.001.001-.002.001-.002.002-.001.001-.002.001-.002.002-.001.001-.002.001-.002.002-.001.001-.002.002-.002v-.001l.002-.002.001-.002.002-.001.001-.002.001-.002.001-.001.002-.002v-.002l.002-.001.001-.002.002-.002v-.002l.002-.001.001-.002.002-.002v-.002l.002-.001v-.002l.002-.002.001-.002.001-.002.001-.001.002-.002v-.002l.002-.001V13.3l.002-.002.001-.002.001-.002.001-.002.002-.001v-.002l.002-.002v-.002l.002-.002v-.002l.002-.002.001-.001.001-.002.001-.002v-.002l.002-.002.001-.002.001-.002.001-.002.001-.002.001-.002.001-.002v-.001l.002-.002v-.002l.001-.002.001-.002.001-.002.001-.002.001-.002.001-.002v-.001l.002-.002v-.002l.001-.002.001-.002.001-.002v-.002l.002-.002v-.002l.001-.002.001-.002v-.002l.002-.002v-.002l.001-.002v-.002l.002-.002v-.004l.002-.002v-.004l.002-.002v-.004l.002-.002v-.004l.001-.002.001-.002v-.002l.001-.002v-.002l.001-.002.001-.002v-.003l.001-.002v-.002l.001-.002v-.002l.001-.002v-.002l.001-.002v-.002l.001-.002v-.002l.001-.002v-.004l.001-.003v-.002l.001-.002v-.002l.001-.002v-.002l.001-.002v-.004l.001-.002v-.005l.001-.002v-.004l.001-.002v-.005l.001-.002v-.006l.001-.002v-.009l.001-.002v-.011l.001-.002v-.014l.001-.002v-2.159l-.001-.002v-.012l-.001-.002v-.006l-.001-.002v-.006l-.001-.002v-.004l-.001-.002v-.006l-.001-.001v-.004l-.001-.002v-.004l-.001-.002-.001-.004v-.004l-.002-.004v-.004l-.002-.003v-.004l-.002-.004v-.004l-.001-.004-.001-.003-.001-.004-.001-.004-.002-.004v-.003l-.002-.004-.001-.004-.001-.003-.002-.004v-.004l-.002-.003-.002-.004-.001-.003-.002-.004-.001-.004-.002-.003-.001-.004-.002-.003-.002-.004-.001-.003-.002-.004-.002-.003-.001-.004-.002-.004-.002-.003-.001-.003-.002-.004-.002-.003-.002-.004-.002-.003-.002-.004-.002-.003-.002-.004-.002-.003-.002-.003-.002-.003-.002-.004-.003-.003-.002-.003-.002-.003-.002-.004-.002-.003-.003-.003-.002-.003-.002-.003-.003-.004-.002-.003-.003-.003-.002-.003-.002-.003-.003-.003-.002-.003-.003-.003-.002-.003-.003-.003-.003-.003-.002-.003-.003-.003-.003-.003-.002-.003-.003-.003-.003-.002-.003-.003-.002-.003-.003-.003-.003-.002-.003-.003-.003-.003-.003-.002-.003-.003-.003-.003-.003-.002-.003-.003-.003-.002-.004-.003-.001-.001-.002-.001-.001-.002h-.002l-.002-.002-.001-.001-.002-.002h-.001l-.002-.002-.002-.001-.001-.001-.002-.001-.001-.002h-.002l-.002-.002-.001-.001-.002-.001-.001-.002h-.002l-.002-.002-.001-.001-.002-.001-.002-.001-.001-.001-.002-.002h-.002l-.001-.002h-.002l-.002-.002-.001-.001-.002-.001-.002-.001-.002-.001-.001-.001-.002-.001-.002-.001-.002-.001-.001-.001-.002-.002h-.002l-.002-.002h-.002l-.001-.002h-.002l-1.823-1.004-.003-.001-.002-.001-.002-.002-.003-.001-.002-.001-.002-.001-.003-.001-.002-.002h-.003l-.002-.002-.002-.001-.003-.001-.002-.001-.003-.002h-.002l-.002-.002h-.003l-.002-.002-.003-.001-.002-.001-.003-.001-.002-.001-.002-.001-.003-.001-.002-.001-.003-.001-.002-.001-.002-.001-.003-.001-.002-.001h-.003l-.002-.002h-.003l-.002-.002h-.002l-.003-.002h-.002l-.003-.001-.002-.001h-.003l-.002-.002h-.003l-.002-.001-.003-.001h-.002l-.003-.002h-.002l-.003-.001-.002-.001h-.003l-.002-.002h-.003l-.002-.001h-.002l-.003-.001h-.003l-.002-.002h-.005l-.003-.001-.002-.001h-.003l-.002-.001-.003-.001h-.002l-.003-.001-.002-.001h-.003l-.002-.001h-.003l-.002-.001h-.003l-.003-.001h-.002l-.002-.001h-.003l-.002-.001h-.003l-.003-.001h-.002l-.003-.001h-.002l-.003-.001h-.005l-.003-.001h-.002l-.003-.001h-.005l-.003-.001h-.007l-.003-.001h-.005l-.002-.001h-.008l-.003-.001h-.007l-.003-.001h-.013l-.002-.001h-.036v-.003z"
    fill="#FCD804"
  ></path>
  <path
    fill-rule="evenodd"
    clip-rule="evenodd"
    d="M21.232 10.33c.945 0 1.713.738 1.713 1.648 0 .91-.768 1.649-1.713 1.649-.946 0-1.714-.739-1.714-1.649s.768-1.648 1.714-1.648zm0 .612c.594 0 1.077.464 1.077 1.036 0 .572-.483 1.036-1.077 1.036-.595 0-1.077-.464-1.077-1.036 0-.572.482-1.036 1.077-1.036z"
    fill="#fff"
  ></path>
</svg>
