<svg viewBox="0 0 24 24" xmlns="http://www.w3.org/2000/svg">
  <path
    d="M1.236 2.403h21.528c.424 0 .767.327.767.731V20.84c0 .404-.343.732-.767.732H1.236c-.424 0-.767-.328-.767-.732V3.134c0-.404.343-.73.767-.73z"
    fill="#000"
  ></path>
  <path
    d="M.673 3.285v17.43c0 .355.301.642.673.642h21.308c.372 0 .673-.287.673-.642V3.285c0-.354-.301-.642-.673-.642H1.346c-.372 0-.673.287-.673.642zm-.673 0C0 2.575.602 2 1.346 2h21.308C23.398 2 24 2.576 24 3.285v17.43c0 .71-.602 1.285-1.346 1.285H1.346C.602 22 0 21.424 0 20.715V3.285z"
    fill="url(#paint0_linear)"
  ></path>
  <path
    d="M7.139 9.462h3.608v.67H7.14v-.67zm-1.1-1.734L2.86 10.455l.99-2.387-1.396-.899L5.63 4.442l-1.075 2.54 1.482.746z"
    fill="#fff"
  ></path>
  <defs>
    <linearGradient
      id="paint0_linear"
      x1="11.508"
      y1="21.519"
      x2="11.508"
      y2="2"
      gradientUnits="userSpaceOnUse"
    >
      <stop stop-color="#FFB300"></stop>
      <stop offset=".614" stop-color="#DC3939"></stop>
      <stop offset="1" stop-color="#FF1BB4"></stop>
    </linearGradient>
  </defs>
</svg>
