<svg viewBox="0 0 24 24" xmlns="http://www.w3.org/2000/svg">
  <path
    d="M21.824 0H2.176A2.176 2.176 0 000 2.176v19.648C0 23.026.974 24 2.176 24h19.648A2.176 2.176 0 0024 21.824V2.176A2.176 2.176 0 0021.824 0z"
    fill="#DC395F"
  ></path>
  <path
    d="M8.02 7.551a1.45 1.45 0 001.467-1.445c0-.819-.668-1.444-1.466-1.444-.798 0-1.466.625-1.466 1.444 0 .82.668 1.445 1.466 1.445z"
    fill="#fff"
  ></path>
  <path
    d="M4.98 15.287a5.04 5.04 0 00-.129 1.086c0 1.272.69 2.116 2.157 2.116 1.216 0 2.201-.722 2.911-1.888l-.433 1.74H11.9l1.38-5.535c.345-1.402 1.014-2.129 2.027-2.129.798 0 1.294.496 1.294 1.315 0 .237-.022.496-.108.776l-.712 2.544c-.108.367-.15.734-.15 1.078 0 1.208.71 2.092 2.198 2.092 1.273 0 2.286-.82 2.846-2.781l-.948-.367c-.475 1.315-.884 1.553-1.208 1.553-.323 0-.496-.216-.496-.647 0-.194.044-.41.108-.668l.69-2.48a5.467 5.467 0 00.237-1.571c0-1.855-1.12-2.822-2.48-2.822-1.271 0-2.565 1.147-3.211 2.355l.474-2.168h-3.687l-.518 1.91h1.725L10.3 15.047c-.834 1.854-2.366 1.884-2.558 1.841-.316-.071-.518-.191-.518-.601 0-.237.043-.577.15-.987l1.618-6.415H4.895l-.518 1.91H6.08l-1.1 4.491z"
    fill="#fff"
  ></path>
</svg>
