<svg viewBox="0 0 24 24" xmlns="http://www.w3.org/2000/svg">
  <path
    d="M21.998 3.686c0 .423-.156.807-.413 1.103A11.939 11.939 0 0124 12c0 6.617-5.383 12-12 12S0 18.617 0 12 5.383 0 12 0c2.704 0 5.202.9 7.21 2.415a1.685 1.685 0 012.788 1.272zM12 23.596c6.394 0 11.596-5.202 11.596-11.596 0-2.6-.86-5.003-2.31-6.94a1.685 1.685 0 01-2.347-2.347 11.535 11.535 0 00-6.94-2.31C5.607.403.404 5.606.404 12c0 6.394 5.203 11.596 11.597 11.596zm0-6.697A4.9 4.9 0 1112 7.1a4.9 4.9 0 010 9.8z"
    fill="#4E8EF7"
  ></path>
</svg>
