<svg viewBox="0 0 24 24" xmlns="http://www.w3.org/2000/svg">
  <path d="M0 0h24v24H0V0z" fill="#F7DF1E"></path>
  <path
    d="M6.31 20.056l1.837-1.111c.354.628.677 1.16 1.45 1.16.741 0 1.208-.29 1.208-1.418v-7.669h2.256v7.7c0 2.337-1.37 3.4-3.367 3.4-1.805 0-2.852-.934-3.384-2.062zm7.976-.242l1.836-1.063c.484.79 1.112 1.37 2.223 1.37.935 0 1.53-.468 1.53-1.112 0-.773-.611-1.047-1.642-1.498l-.564-.242c-1.627-.693-2.707-1.563-2.707-3.4 0-1.69 1.29-2.98 3.303-2.98 1.434 0 2.465.5 3.206 1.805l-1.756 1.128c-.387-.693-.806-.967-1.45-.967-.66 0-1.08.419-1.08.967 0 .676.42.95 1.386 1.37l.564.24c1.917.822 2.996 1.66 2.996 3.545 0 2.03-1.595 3.141-3.737 3.141-2.095 0-3.448-.998-4.108-2.303"
    fill="#000"
  ></path>
</svg>
