<svg viewBox="0 0 24 24" xmlns="http://www.w3.org/2000/svg">
  <path
    d="M8.797 18.56s-.933.534.664.714c1.934.217 2.922.186 5.054-.21 0 0 .56.345 1.342.644-4.777 2.014-10.813-.116-7.06-1.147zm-.584-2.627s-1.046.761.552.924c2.066.21 3.697.227 6.52-.308 0 0 .391.39 1.005.602-5.777 1.661-12.21.131-8.077-1.218z"
    fill="#5382A1"
  ></path>
  <path
    d="M13.135 11.476c1.177 1.332-.31 2.532-.31 2.532s2.99-1.518 1.617-3.418C13.16 8.818 12.177 7.938 17.5 4.902c0 0-8.356 2.052-4.365 6.574z"
    fill="#E76F00"
  ></path>
  <path
    d="M19.454 20.504s.69.56-.76.992c-2.758.821-11.478 1.07-13.9.033-.872-.373.761-.89 1.275-.998.536-.115.842-.093.842-.093-.968-.671-6.26 1.317-2.688 1.886 9.742 1.554 17.758-.7 15.231-1.82zM9.246 13.21s-4.436 1.036-1.571 1.413c1.21.159 3.62.123 5.867-.062 1.836-.152 3.68-.476 3.68-.476s-.648.272-1.117.587c-4.504 1.165-13.206.623-10.7-.569 2.118-1.007 3.84-.893 3.84-.893zm7.957 4.374c4.579-2.34 2.462-4.588.984-4.285-.362.074-.524.138-.524.138s.135-.207.392-.297c2.923-1.01 5.171 2.981-.944 4.562 0 0 .07-.062.092-.118z"
    fill="#5382A1"
  ></path>
  <path
    d="M14.442 0s2.536 2.494-2.405 6.33c-3.962 3.077-.904 4.832-.002 6.836-2.312-2.052-4.01-3.858-2.871-5.54C10.835 5.16 15.465 3.963 14.442 0z"
    fill="#E76F00"
  ></path>
  <path
    d="M9.696 23.925C14.09 24.2 20.84 23.77 21 21.726c0 0-.307.775-3.632 1.391-3.752.694-8.379.613-11.123.168 0 0 .562.457 3.45.64z"
    fill="#5382A1"
  ></path>
</svg>
