<svg viewBox="0 0 24 24" xmlns="http://www.w3.org/2000/svg">
  <path
    d="M13.674 11.667L3.122 2.503A1.853 1.853 0 00.045 4.255a1.849 1.849 0 00.918 1.217l11.869 7.359.054.033a.718.718 0 00.788-1.197z"
    fill="url(#paint0_linear)"
  ></path>
  <path
    d="M23.998 13.132a2.615 2.615 0 00-2.687-2.511c-.455.012-.9.142-1.29.379L5.204 19.422l-.025.014a1.328 1.328 0 101.036 2.445l16.143-6.222.04-.017a2.62 2.62 0 001.6-2.51z"
    fill="url(#paint1_linear)"
  ></path>
  <path
    d="M12.066 12.74a.715.715 0 00-.776-1.03.718.718 0 00-.442.28l-6.255 7.927-.013.026a1.326 1.326 0 001.498 1.999 1.328 1.328 0 00.803-.684l5.14-8.447a.685.685 0 00.045-.071z"
    fill="url(#paint2_linear)"
  ></path>
  <path d="M7.64 7.981h8.591v8.58h-8.59V7.98z" fill="#000"></path>
  <path
    d="M10.867 12.007l-.22-.32a.442.442 0 00.287-.432.438.438 0 00-.124-.326.62.62 0 00-.457-.15h-.661.006v1.396h.388v-.424h.168l.283.424h.259l-.002.003h.406l.1-.252h.543l.1.252h.416l-.596-1.409h-.374l-.522 1.238zM8.382 14.95h3.22v.537h-3.22v-.537zm-.036-4.712l.25-.235a.282.282 0 00.22.13.167.167 0 00.155-.125.168.168 0 00.003-.07v-.885h.386v.886a.52.52 0 01-.138.394.528.528 0 01-.384.141.573.573 0 01-.492-.236zM9.45 9.054h1.127v.328h-.743v.214h.674v.306h-.674v.222h.753v.336H9.449V9.054zm1.635.34h-.418v-.337h1.226v.337h-.419v1.06h-.387v-1.06h-.002zm-2.702 1.385H9.1a.524.524 0 01.382.125.314.314 0 01.09.227.322.322 0 01-.216.31.337.337 0 01.278.337c0 .24-.196.385-.53.385H8.38V10.78h.002zm.808.432c0-.077-.062-.119-.169-.119h-.254v.246h.244c.118 0 .186-.04.186-.121l-.007-.006zm-.135.397H8.76v.258h.3c.119 0 .185-.046.185-.128.001-.084-.058-.13-.189-.13zm1.283-.156a.168.168 0 00.209-.168.168.168 0 00-.21-.168h-.256v.336h.257zm1.388.171l-.157-.395-.158.395h.315zm.678-.844h.387v1.4h-.387v-1.4zm.485 0h.362l.576.74v-.74h.384v1.4h-.337l-.6-.767v.766h-.383V10.78h-.002zm1.345 1.19l.216-.256a.726.726 0 00.455.168c.106 0 .168-.036.168-.096 0-.06-.046-.09-.238-.136-.298-.067-.528-.152-.528-.438 0-.258.205-.447.542-.447a.882.882 0 01.576.185l-.194.274a.688.688 0 00-.392-.138c-.095 0-.14.039-.14.09 0 .063.049.092.244.136.32.07.52.168.52.435 0 .286-.225.456-.565.456a.983.983 0 01-.664-.232z"
    fill="#fff"
  ></path>
  <defs>
    <linearGradient
      id="paint0_linear"
      x1=".784"
      y1="3.135"
      x2="10.253"
      y2="13.421"
      gradientUnits="userSpaceOnUse"
    >
      <stop stop-color="#AA4A9B"></stop>
      <stop offset="1" stop-color="#F05922"></stop>
    </linearGradient>
    <linearGradient
      id="paint1_linear"
      x1="4.742"
      y1="22.109"
      x2="14.549"
      y2="6.503"
      gradientUnits="userSpaceOnUse"
    >
      <stop stop-color="#FFE42E"></stop>
      <stop offset="1" stop-color="#ED417C"></stop>
    </linearGradient>
    <linearGradient
      id="paint2_linear"
      x1="5.316"
      y1="21.216"
      x2="14.2"
      y2="13.801"
      gradientUnits="userSpaceOnUse"
    >
      <stop stop-color="#FFE42E"></stop>
      <stop offset="1" stop-color="#F05922"></stop>
    </linearGradient>
  </defs>
</svg>
