<svg viewBox="0 0 24 24" xmlns="http://www.w3.org/2000/svg">
  <path
    fill-rule="evenodd"
    clip-rule="evenodd"
    d="M21.095 11.166l-.007.103C22.798 11.953 24 13.57 24 15.46c0 2.508-2.116 4.54-4.727 4.54-.058 0-.114-.004-.171-.007l-.087-.005H4.817l-.056-.003C2.125 19.945 0 17.885 0 15.343c0-1.7.953-3.18 2.371-3.99a3.03 3.03 0 01-.148-.944c0-1.746 1.474-3.163 3.293-3.163a3.37 3.37 0 012.014.664C8.678 5.6 11.126 4 13.97 4c3.943 0 7.14 3.07 7.14 6.857 0 .105-.008.207-.015.31zm-15.55 3.782c.12.604.419 1.117.898 1.54.637.557 1.459.835 2.466.835 1.093 0 1.928-.308 2.807-1.126l-.107-.125-.962-1.096c-.59.563-1.13.743-1.68.743-.438 0-.807-.133-1.107-.401l-.021-.02a1.297 1.297 0 01-.42-.97 1.313 1.313 0 01.44-.982 1.44 1.44 0 01.627-.344c.143-.037.297-.056.46-.056.53 0 1.146.245 1.706.735.208.183.408.398.592.648l1.093 1.244c.194.24.409.464.642.67.83.726 1.795 1.09 2.838 1.09.238.001.476-.017.71-.052.676-.105 1.249-.369 1.718-.79.477-.422.776-.93.895-1.527.04-.198.06-.407.06-.625 0-.882-.318-1.6-.952-2.157l-.014-.01c-.624-.558-1.44-.837-2.447-.837-1.137 0-1.981.303-2.827 1.112l.118.128.967 1.11c.59-.558 1.13-.738 1.675-.738.443 0 .809.134 1.1.404.185.17.314.361.383.573.043.128.064.263.064.407l-.007.144a1.31 1.31 0 01-.433.854c-.295.261-.66.392-1.097.392-.514 0-1.123-.246-1.684-.737a4.287 4.287 0 01-.601-.655l-1.093-1.252a6.022 6.022 0 00-.614-.627c-.85-.744-1.811-1.117-2.831-1.117-.994 0-1.813.281-2.456.843-.644.561-.966 1.273-.965 2.135 0 .214.02.427.06.637z"
    fill="#4679A4"
  ></path>
</svg>
