<svg viewBox="0 0 24 24" xmlns="http://www.w3.org/2000/svg">
  <path
    d="M23.986 5.43a.37.37 0 01.014.098v5.151a.368.368 0 01-.194.326l-4.451 2.49v4.934a.375.375 0 01-.194.325L9.87 23.95a.332.332 0 01-.068.027c-.008.003-.017.008-.026.01a.398.398 0 01-.198 0c-.01-.002-.02-.008-.03-.012a.354.354 0 01-.064-.025l-9.29-5.196a.382.382 0 01-.142-.137.368.368 0 01-.052-.189V2.974c0-.034.005-.067.014-.099.002-.01.01-.02.013-.031a.299.299 0 01.025-.058c.007-.013.018-.022.026-.034a.365.365 0 01.035-.043c.01-.011.025-.02.038-.029.014-.01.026-.023.042-.032L4.84.05a.397.397 0 01.386 0L9.87 2.648h.001c.016.01.029.021.043.032l.038.028c.013.014.023.03.034.044.009.012.02.021.026.034.012.018.018.038.026.058.003.01.01.02.013.032a.37.37 0 01.014.098v9.653l3.87-2.165V5.527a.37.37 0 01.014-.098c.003-.01.01-.02.013-.032.008-.02.015-.04.026-.058.007-.012.017-.022.026-.033.011-.015.02-.03.034-.044.011-.01.025-.018.038-.028.015-.011.027-.023.043-.032l4.646-2.598a.396.396 0 01.386 0l4.645 2.598c.017.01.03.02.044.032.012.009.026.017.037.028.013.013.023.029.035.044.008.011.019.021.026.033.01.019.017.039.025.058l.014.032zm-.76 5.032V6.178l-1.626.909-2.245 1.256v4.284l3.871-2.165zm-4.645 7.75v-4.288l-2.21 1.226-6.307 3.497v4.327l8.517-4.763zM.774 3.623V18.21l8.516 4.762v-4.326l-4.45-2.444V16.2l-.002-.001c-.015-.009-.028-.021-.042-.031-.012-.01-.026-.017-.037-.028v-.001c-.013-.012-.022-.026-.032-.04-.01-.012-.022-.023-.03-.036v-.001c-.009-.014-.014-.031-.02-.047-.006-.014-.015-.028-.019-.043-.004-.018-.005-.037-.007-.055-.002-.014-.006-.028-.006-.042V5.789L2.4 4.533.774 3.625zM5.033.81l-3.87 2.164 3.869 2.164 3.87-2.165L5.031.81zm2.012 13.505L9.29 13.06V3.623l-1.625.91-2.246 1.255v9.436l1.626-.91zM18.968 3.364l-3.87 2.164 3.87 2.164 3.87-2.165-3.87-2.163zm-.387 4.979l-2.246-1.256-1.625-.91v4.285l2.245 1.255 1.626.91V8.343zm-8.904 9.654l5.675-3.148 2.838-1.573-3.867-2.163-4.452 2.49-4.058 2.27 3.864 2.124z"
    fill="#FF2D20"
  ></path>
</svg>
