<svg viewBox="0 0 24 24" xmlns="http://www.w3.org/2000/svg">
  <path
    fill-rule="evenodd"
    clip-rule="evenodd"
    d="M22 21.3c0 1.488-4.477 2.7-10 2.7S2 22.796 2 21.3c0-1.487 4.477-2.7 10-2.7s9.992 1.213 10 2.7z"
    fill="#000"
    fill-opacity=".2"
  ></path>
  <path
    fill-rule="evenodd"
    clip-rule="evenodd"
    d="M6.523 18.396c-.968-1.4-1.156-5.965 1.102-8.775 1.117-1.346 1.406-2.283 1.492-3.55C9.18 4.631 8.11.341 12.141.02 16.227-.31 16 3.75 15.977 5.9c-.016 1.81 1.32 2.84 2.242 4.257 1.695 2.597 1.554 7.068-.32 9.492-2.376 3.03-4.407 1.715-5.758 1.826-2.532.15-2.618 1.503-5.618-3.078z"
    fill="#000"
  ></path>
  <path
    fill-rule="evenodd"
    clip-rule="evenodd"
    d="M16.383 10.424c.703.653 2.523 3.573-.36 5.399-1.015.637.907 3.061 1.829 1.889 1.632-2.11.593-5.478-.391-6.682-.656-.85-1.672-1.18-1.078-.606z"
    fill="url(#paint0_linear)"
  ></path>
  <path
    fill-rule="evenodd"
    clip-rule="evenodd"
    d="M16.188 10.03c1.156.945 3.257 4.25.187 6.407-1.008.669.89 2.786 1.96 1.707 3.712-3.762-.093-8.082-1.405-9.57-1.172-1.299-2.211.3-.742 1.456z"
    fill="#000"
    stroke="#000"
    stroke-width=".5"
  ></path>
  <path
    fill-rule="evenodd"
    clip-rule="evenodd"
    d="M14.523 2.073c-.039 1.078-1.218 2.015-2.632 2.102-1.414.086-2.524-.732-2.485-1.81.04-1.08 1.219-2.015 2.634-2.103 1.414-.079 2.524.732 2.484 1.81z"
    fill="url(#paint1_linear)"
  ></path>
  <path
    fill-rule="evenodd"
    clip-rule="evenodd"
    d="M11.14 4.639c.04.7-.288 1.29-.742 1.314-.453.024-.851-.52-.89-1.22-.04-.7.289-1.29.742-1.314.453-.024.852.52.89 1.22z"
    fill="url(#paint2_linear)"
  ></path>
  <path
    fill-rule="evenodd"
    clip-rule="evenodd"
    d="M11.96 4.694c.017.81.54 1.456 1.165 1.44.625-.015 1.117-.684 1.102-1.503-.016-.81-.54-1.456-1.165-1.44-.624.016-1.124.692-1.101 1.503z"
    fill="url(#paint3_linear)"
  ></path>
  <path
    fill-rule="evenodd"
    clip-rule="evenodd"
    d="M12.477 4.875c-.008.449.21.81.5.81.28 0 .523-.361.53-.802.009-.449-.21-.81-.5-.81-.288 0-.523.361-.53.802z"
    fill="#000"
  ></path>
  <path
    fill-rule="evenodd"
    clip-rule="evenodd"
    d="M10.672 4.883c.039.37-.102.685-.305.716-.203.024-.398-.252-.437-.622-.04-.37.101-.684.304-.716.204-.023.399.252.438.622z"
    fill="#000"
  ></path>
  <path
    fill-rule="evenodd"
    clip-rule="evenodd"
    d="M12.594 4.623c-.024.252.094.457.258.472.164.016.32-.18.343-.425.024-.251-.093-.456-.258-.472-.164-.016-.32.181-.343.425z"
    fill="url(#paint4_linear)"
  ></path>
  <path
    fill-rule="evenodd"
    clip-rule="evenodd"
    d="M10.5 4.686c.023.205-.063.386-.188.402-.124.015-.242-.142-.265-.355-.024-.204.062-.385.187-.401.125-.016.243.15.266.354z"
    fill="url(#paint5_linear)"
  ></path>
  <path
    fill-rule="evenodd"
    clip-rule="evenodd"
    d="M8.04 12.415c.554-1.267 1.733-3.495 1.757-5.218 0-1.37 4.07-1.7 4.398-.33.328 1.369 1.157 3.415 1.688 4.407.531.983 2.07 4.124.43 6.863-1.477 2.424-5.954 4.344-8.344-.331-.813-1.621-.664-3.628.07-5.391z"
    fill="url(#paint6_linear)"
  ></path>
  <path
    fill-rule="evenodd"
    clip-rule="evenodd"
    d="M7.54 11.47c-.478.905-1.462 3.282.944 4.58 2.586 1.386 2.579 4.227-.53 2.874-2.845-1.22-1.587-6.163-.79-7.343.516-.827 1.297-1.842.375-.11z"
    fill="url(#paint7_linear)"
  ></path>
  <path
    fill-rule="evenodd"
    clip-rule="evenodd"
    d="M7.945 10.447c-.758 1.244-2.57 4.171-.14 5.698 3.265 2.023 2.343 4.038-.64 2.22-4.204-2.534-.509-7.65 1.17-9.602 1.923-2.188.368.401-.39 1.684z"
    fill="#000"
    stroke="#000"
    stroke-width=".5"
  ></path>
  <path
    fill-rule="evenodd"
    clip-rule="evenodd"
    d="M15.305 12.895c0 1.385-1.32 3.18-3.586 3.164-2.336.015-3.328-1.779-3.328-3.164 0-1.385 1.546-2.51 3.453-2.51 1.914.007 3.46 1.125 3.46 2.51z"
    fill="url(#paint8_linear)"
  ></path>
  <path
    fill-rule="evenodd"
    clip-rule="evenodd"
    d="M14.07 8.543c-.023 1.432-.953 1.77-2.125 1.77-1.172 0-2.023-.212-2.125-1.77 0-.976.953-1.543 2.125-1.543 1.172-.008 2.125.559 2.125 1.543z"
    fill="url(#paint9_linear)"
  ></path>
  <path
    fill-rule="evenodd"
    clip-rule="evenodd"
    d="M6.984 10.746c.766-1.172 2.383-2.975.305.252-1.687 2.66-.625 4.368-.078 4.84 1.578 1.417 1.516 2.37.273 1.622-2.664-1.598-2.109-4.29-.5-6.714z"
    fill="url(#paint10_linear)"
  ></path>
  <path
    fill-rule="evenodd"
    clip-rule="evenodd"
    d="M18.07 11.226c-.664-1.377-2.773-4.871.102-.81 2.617 3.675.781 6.233.453 6.485-.328.252-1.43.763-1.11-.126.329-.89 1.954-2.574.555-5.549z"
    fill="url(#paint11_linear)"
  ></path>
  <path
    fill-rule="evenodd"
    clip-rule="evenodd"
    d="M6.406 22.087c-1.75-.936-4.289.181-3.367-2.353.188-.574-.273-1.44.023-1.999.352-.684 1.11-.535 1.563-.991.445-.473.727-1.291 1.563-1.165.828.126 1.382 1.149 1.96 2.408.43.897 1.946 2.164 1.844 3.172-.125 1.542-1.867 1.834-3.586.928z"
    fill="url(#paint12_linear)"
    stroke="#E68C3F"
    stroke-width=".5"
  ></path>
  <path
    fill-rule="evenodd"
    clip-rule="evenodd"
    d="M19.148 16.137c-.265.504-1.375 1.315-2.117 1.102-.75-.204-1.093-1.353-.945-2.227.14-.976.945-1.031 1.96-.543 1.095.543 1.423 1 1.102 1.668z"
    fill="url(#paint13_linear)"
  ></path>
  <path
    fill-rule="evenodd"
    clip-rule="evenodd"
    d="M18.54 21.655c1.28-1.567 4.132-1.244 2.21-3.393-.406-.464-.281-1.456-.781-1.88-.586-.52-1.235-.095-1.828-.363-.594-.29-1.22-.85-1.946-.456-.726.401-.804 1.44-.875 2.81-.062.983-.953 2.628-.476 3.534.687 1.4 2.476 1.212 3.695-.252z"
    fill="url(#paint14_linear)"
    stroke="#E68C3F"
    stroke-width=".5"
  ></path>
  <path
    fill-rule="evenodd"
    clip-rule="evenodd"
    d="M17.984 19.561c1.985-2.951.508-2.928.008-3.156-.5-.236-1.023-.7-1.61-.378-.585.33-.616 1.18-.632 2.299-.023.802-.688 2.148-.29 2.896.485.873 1.657-.394 2.524-1.66z"
    fill="url(#paint15_linear)"
  ></path>
  <path
    fill-rule="evenodd"
    clip-rule="evenodd"
    d="M6 19.986c-2.969-1.936-1.578-2.597-1.133-2.904.54-.394.547-1.15 1.211-1.078.664.07 1.055.897 1.5 1.92.328.732 1.469 1.708 1.383 2.55-.11.992-1.68.338-2.961-.488z"
    fill="url(#paint16_linear)"
  ></path>
  <path
    fill-rule="evenodd"
    clip-rule="evenodd"
    d="M18.977 16.114c-.235.41-1.188 1.055-1.82.881-.65-.165-.946-1.086-.813-1.778.117-.787.812-.827 1.687-.433.93.425 1.219.787.946 1.33z"
    fill="#000"
  ></path>
  <path
    fill-rule="evenodd"
    clip-rule="evenodd"
    d="M18.336 15.886c-.148.283-.773.732-1.211.614-.438-.119-.656-.756-.586-1.236.063-.543.531-.575 1.125-.307.64.299.844.55.672.929z"
    fill="url(#paint17_linear)"
  ></path>
  <path
    fill-rule="evenodd"
    clip-rule="evenodd"
    d="M10.258 5.615c.312-.291 1.07-1.18 2.508-.252.265.173.484.189.992.41 1.023.424.539 1.447-.555 1.794-.469.15-.89.724-1.734.669-.727-.04-.914-.52-1.36-.78-.789-.448-.906-1.054-.476-1.377.43-.322.594-.44.625-.464z"
    fill="url(#paint18_linear)"
    stroke="#E68C3F"
    stroke-width=".5"
  ></path>
  <path
    d="M13.773 6.441c-.43.024-1.359.96-2.335.96-.977 0-1.563-.913-1.711-.913"
    stroke="#E68C3F"
    stroke-width=".5"
  ></path>
  <path
    fill-rule="evenodd"
    clip-rule="evenodd"
    d="M10.742 5.536c.156-.142.649-.527 1.297-.134.14.079.281.166.484.284.415.244.211.598-.289.818-.226.095-.601.3-.882.284-.313-.032-.524-.237-.727-.37-.383-.252-.36-.465-.18-.63.133-.126.282-.244.297-.252z"
    fill="url(#paint19_linear)"
  ></path>
  <defs>
    <linearGradient
      id="paint0_linear"
      x1="17.177"
      y1="19.233"
      x2="17.697"
      y2="13.44"
      gradientUnits="userSpaceOnUse"
    >
      <stop stop-color="#FFEED7"></stop>
      <stop offset="1" stop-color="#BDBFC2"></stop>
    </linearGradient>
    <linearGradient
      id="paint1_linear"
      x1="12.19"
      y1=".352"
      x2="11.942"
      y2="3.822"
      gradientUnits="userSpaceOnUse"
    >
      <stop stop-color="#fff" stop-opacity=".8"></stop>
      <stop offset="1" stop-color="#fff" stop-opacity="0"></stop>
    </linearGradient>
    <linearGradient
      id="paint2_linear"
      x1="10.355"
      y1="5.656"
      x2="10.202"
      y2="3.672"
      gradientUnits="userSpaceOnUse"
    >
      <stop stop-color="#FFEED7"></stop>
      <stop offset="1" stop-color="#BDBFC2"></stop>
    </linearGradient>
    <linearGradient
      id="paint3_linear"
      x1="13.092"
      y1="5.707"
      x2="13.092"
      y2="3.597"
      gradientUnits="userSpaceOnUse"
    >
      <stop stop-color="#FFEED7"></stop>
      <stop offset="1" stop-color="#BDBFC2"></stop>
    </linearGradient>
    <linearGradient
      id="paint4_linear"
      x1="12.918"
      y1="4.225"
      x2="12.813"
      y2="5.034"
      gradientUnits="userSpaceOnUse"
    >
      <stop stop-color="#fff" stop-opacity=".65"></stop>
      <stop offset="1" stop-color="#fff" stop-opacity="0"></stop>
    </linearGradient>
    <linearGradient
      id="paint5_linear"
      x1="10.253"
      y1="4.372"
      x2="10.366"
      y2="5.027"
      gradientUnits="userSpaceOnUse"
    >
      <stop stop-color="#fff" stop-opacity=".65"></stop>
      <stop offset="1" stop-color="#fff" stop-opacity="0"></stop>
    </linearGradient>
    <linearGradient
      id="paint6_linear"
      x1="12.233"
      y1="19.175"
      x2="12.233"
      y2="11.953"
      gradientUnits="userSpaceOnUse"
    >
      <stop stop-color="#FFEED7"></stop>
      <stop offset="1" stop-color="#BDBFC2"></stop>
    </linearGradient>
    <linearGradient
      id="paint7_linear"
      x1="8.42"
      y1="19.278"
      x2="6.565"
      y2="13.001"
      gradientUnits="userSpaceOnUse"
    >
      <stop stop-color="#FFEED7"></stop>
      <stop offset="1" stop-color="#BDBFC2"></stop>
    </linearGradient>
    <linearGradient
      id="paint8_linear"
      x1="11.837"
      y1="11.135"
      x2="11.855"
      y2="15.757"
      gradientUnits="userSpaceOnUse"
    >
      <stop stop-color="#fff" stop-opacity=".8"></stop>
      <stop offset="1" stop-color="#fff" stop-opacity="0"></stop>
    </linearGradient>
    <linearGradient
      id="paint9_linear"
      x1="11.942"
      y1="8.237"
      x2="11.963"
      y2="10.074"
      gradientUnits="userSpaceOnUse"
    >
      <stop stop-color="#fff" stop-opacity=".65"></stop>
      <stop offset="1" stop-color="#fff" stop-opacity="0"></stop>
    </linearGradient>
    <linearGradient
      id="paint10_linear"
      x1="7.016"
      y1="9.371"
      x2="7.016"
      y2="16.115"
      gradientUnits="userSpaceOnUse"
    >
      <stop stop-color="#fff" stop-opacity=".65"></stop>
      <stop offset="1" stop-color="#fff" stop-opacity="0"></stop>
    </linearGradient>
    <linearGradient
      id="paint11_linear"
      x1="18.124"
      y1="8.712"
      x2="18.121"
      y2="14.806"
      gradientUnits="userSpaceOnUse"
    >
      <stop stop-color="#fff" stop-opacity=".65"></stop>
      <stop offset="1" stop-color="#fff" stop-opacity="0"></stop>
    </linearGradient>
    <linearGradient
      id="paint12_linear"
      x1="6.668"
      y1="19.006"
      x2="5.662"
      y2="22.474"
      gradientUnits="userSpaceOnUse"
    >
      <stop stop-color="#FFA63F"></stop>
      <stop offset="1" stop-color="#FF0"></stop>
    </linearGradient>
    <linearGradient
      id="paint13_linear"
      x1="17.735"
      y1="18.61"
      x2="17.591"
      y2="12.161"
      gradientUnits="userSpaceOnUse"
    >
      <stop stop-color="#FFEED7"></stop>
      <stop offset="1" stop-color="#BDBFC2"></stop>
    </linearGradient>
    <linearGradient
      id="paint14_linear"
      x1="16.751"
      y1="17.957"
      x2="19.48"
      y2="21.796"
      gradientUnits="userSpaceOnUse"
    >
      <stop stop-color="#FFA63F"></stop>
      <stop offset="1" stop-color="#FF0"></stop>
    </linearGradient>
    <linearGradient
      id="paint15_linear"
      x1="17.512"
      y1="14.954"
      x2="16.575"
      y2="19.507"
      gradientUnits="userSpaceOnUse"
    >
      <stop stop-color="#fff" stop-opacity=".65"></stop>
      <stop offset="1" stop-color="#fff" stop-opacity="0"></stop>
    </linearGradient>
    <linearGradient
      id="paint16_linear"
      x1="6.451"
      y1="16.077"
      x2="6.636"
      y2="21.188"
      gradientUnits="userSpaceOnUse"
    >
      <stop stop-color="#fff" stop-opacity=".65"></stop>
      <stop offset="1" stop-color="#fff" stop-opacity="0"></stop>
    </linearGradient>
    <linearGradient
      id="paint17_linear"
      x1="17.34"
      y1="14.871"
      x2="17.557"
      y2="16.4"
      gradientUnits="userSpaceOnUse"
    >
      <stop stop-color="#fff" stop-opacity=".65"></stop>
      <stop offset="1" stop-color="#fff" stop-opacity="0"></stop>
    </linearGradient>
    <linearGradient
      id="paint18_linear"
      x1="11.841"
      y1="5.53"
      x2="11.859"
      y2="8.219"
      gradientUnits="userSpaceOnUse"
    >
      <stop stop-color="#FFA63F"></stop>
      <stop offset="1" stop-color="#FF0"></stop>
    </linearGradient>
    <linearGradient
      id="paint19_linear"
      x1="11.537"
      y1="5.275"
      x2="11.532"
      y2="6.698"
      gradientUnits="userSpaceOnUse"
    >
      <stop stop-color="#fff" stop-opacity=".65"></stop>
      <stop offset="1" stop-color="#fff" stop-opacity="0"></stop>
    </linearGradient>
  </defs>
</svg>
