<svg viewBox="0 0 24 24" xmlns="http://www.w3.org/2000/svg">
  <path
    d="M17.55 11.34c-.13-.17-.245-.444-.31-.765-.118-.571-.105-.985.22-1.04.324-.053.48.293.597.864.078.384.063.737-.023.942a1.87 1.87 0 00-.485 0zm-2.788.453c-.232-.104-.534-.221-.899-.198-.515.033-.963.265-1.091.25-.055-.008-.077-.032-.085-.064-.02-.098.127-.261.283-.378a1.6 1.6 0 011.592-.196c.25.109.487.304.602.497.054.093.065.165.029.203-.056.06-.198-.01-.431-.114zm-.468.274h.001c.416-.05.722.149.793.267.03.05.018.085.008.1-.032.054-.105.044-.256.026a1.878 1.878 0 00-.975.104s-.154.064-.222.064l-.05-.02-.023-.057c0-.064.057-.155.148-.237.107-.095.274-.197.576-.247zm2.315 1.006c-.206-.103-.313-.312-.239-.467.074-.153.3-.194.505-.09.205.103.313.312.239.467-.075.153-.3.194-.505.09zm1.32-1.186c.167.004.299.197.296.432-.004.235-.144.423-.31.42-.167-.003-.299-.196-.295-.431.003-.236.143-.424.31-.421zM6.718 16.13v-.001c.015.018.04.059.01.125-.046.113-.233.268-.5.258-.274-.023-.58-.228-.622-.74-.02-.252.072-.56.13-.72a.684.684 0 00-.25-.811.657.657 0 00-.928.2 1.583 1.583 0 00-.153.37l-.016.052c-.059.162-.151.209-.215.2-.03-.004-.07-.025-.096-.098-.072-.202-.015-.772.354-1.19a1.1 1.1 0 01.958-.355c.372.048.68.28.87.65.251.492.027 1.009-.107 1.317l-.04.092c-.082.205-.087.384-.011.504.065.095.171.15.284.148a.614.614 0 00.156-.022c.067-.016.135-.032.176.02zm15.422-.936c.335 0 .86.396.86 1.352 0 .95-.383 2.027-.474 2.267-1.384 3.406-4.683 5.302-8.615 5.182-3.664-.112-6.79-2.1-8.157-5.34-.827 0-1.68-.374-2.328-.964-.683-.622-1.104-1.426-1.187-2.266a3.98 3.98 0 01.214-1.793l-.769-.668C-1.83 9.912 9.164-2.65 12.682.504l1.199 1.207.653-.285c3.084-1.314 5.587-.68 5.59 1.416.002 1.089-.673 2.359-1.755 3.51.393.375.706.959.887 1.628.15.493.178.995.19 1.315.02.444.04 1.479.043 1.497l.433.124c.829.238 1.418.556 1.706.868.288.31.43.61.483.964.048.284.042.787-.323 1.35l.185.51c.091.3.158.549.167.586zm-16.083 2.55c1.285-.224 1.62-1.66 1.41-3.067-.24-1.591-1.286-2.151-1.997-2.191a2.106 2.106 0 00-.533.04c-1.267.262-1.983 1.37-1.842 2.81.128 1.304 1.41 2.402 2.598 2.435a1.84 1.84 0 00.364-.027zm-1.325-6.08H4.73C5.735 8.892 7.413 6.338 9.633 4.58c1.648-1.413 3.424-2.426 3.424-2.426S12.1 1.015 11.812.93c-1.779-.494-5.617 2.228-8.07 5.824C2.75 8.21 1.33 10.787 2.01 12.112c.083.164.557.586.811.804a3.012 3.012 0 011.91-1.252zm12.462 5.542s-1.428.683-3.697-.038c.062.547.58.792.828.89.312.126.653.183.653.183 2.813.498 5.441-1.155 6.033-1.571.045-.031.074-.001.039.054l-.059.085c-.724.96-2.67 2.072-5.205 2.072-1.104 0-2.21-.4-2.615-1.015-.628-.954-.03-2.346 1.018-2.201l.459.053c1.31.15 3.206-.04 4.77-.785 1.431-.682 1.971-1.433 1.89-2.041a.878.878 0 00-.247-.497c-.258-.26-.665-.46-1.352-.66-.227-.064-.382-.106-.548-.163-.295-.1-.44-.18-.474-.75-.014-.25-.056-1.118-.072-1.478-.027-.63-.1-1.49-.62-1.845a.854.854 0 00-.444-.146c-.155-.008-.232.02-.263.026-.296.05-.472.214-.69.4-.648.556-1.195.647-1.803.62-.364-.016-.75-.074-1.19-.101l-.26-.015c-1.018-.054-2.111.85-2.292 2.135-.254 1.788 1.006 2.712 1.37 3.254.046.065.1.156.1.243 0 .103-.066.186-.13.256-1.04 1.099-1.372 2.844-.98 4.299.048.178.11.353.184.522.92 2.207 3.771 3.235 6.556 2.3a6.758 6.758 0 001.058-.46c.61-.31 1.16-.731 1.62-1.244.74-.794 1.179-1.657 1.35-2.72.083-.57-.04-.79-.206-.895-.178-.112-.39-.073-.39-.073s-.097-.68-.37-1.298c-.812.658-1.857 1.12-2.652 1.356a10.469 10.469 0 01-3.548.394c-.77-.064-1.278-.295-1.47.344 1.758.662 3.617.379 3.617.379a.064.064 0 01.049.014.067.067 0 01.023.046.072.072 0 01-.04.07zM9.259 6.74v-.001c-.03.037.014.089.053.06.753-.563 1.785-1.086 3.136-1.425 1.515-.38 2.973-.22 3.863-.01.045.01.073-.07.034-.092-.589-.34-1.492-.57-2.133-.575a.039.039 0 01-.034-.023.04.04 0 01.004-.041c.115-.155.25-.294.4-.413.033-.025.013-.077-.026-.074-.913.057-1.953.506-2.551.925a.038.038 0 01-.044 0 .04.04 0 01-.016-.042c.046-.23.193-.535.27-.677.018-.033-.017-.07-.05-.053-.961.505-2.034 1.405-2.906 2.44z"
    fill="#000"
  ></path>
</svg>
