<svg viewBox="0 0 24 24" xmlns="http://www.w3.org/2000/svg">
  <path
    d="M5.108 20.05c0-.317.226-.578.595-.578.353 0 .59.25.59.578 0 .33-.237.58-.59.58-.37 0-.595-.262-.595-.58zm1.588 0v-.904h-.427v.22c-.135-.162-.34-.264-.62-.264-.55 0-.98.397-.98.949 0 .552.43.949.98.949.28 0 .485-.102.62-.265v.22h.426v-.905zm14.413 0c0-.317.226-.578.595-.578.353 0 .59.25.59.578 0 .33-.237.58-.59.58-.37 0-.595-.262-.595-.58zm1.588 0v-1.63h-.427v.946c-.135-.162-.34-.264-.62-.264-.549 0-.98.397-.98.949 0 .552.43.949.98.949.28 0 .485-.102.62-.265v.22h.427v-.905zm-10.707-.597c.275 0 .451.159.496.438H11.47c.045-.26.217-.438.521-.438zm.009-.352c-.575 0-.977.385-.977.949 0 .575.418.949 1.005.949.296 0 .566-.068.804-.253l-.209-.292a.986.986 0 01-.57.19c-.275 0-.526-.118-.587-.443h1.456c.005-.05.009-.098.009-.151-.004-.564-.383-.95-.932-.95zm5.15.949c0-.318.225-.579.595-.579.352 0 .59.25.59.579 0 .329-.238.578-.59.578-.37 0-.596-.26-.596-.578zm1.587 0v-.904h-.426v.22c-.136-.162-.34-.264-.62-.264-.55 0-.98.397-.98.949 0 .552.43.949.98.949.28 0 .484-.102.62-.265v.22h.427v-.905zm-3.996 0c0 .548.414.949 1.046.949.295 0 .492-.06.705-.216l-.205-.317a.911.911 0 01-.514.162c-.34-.003-.59-.23-.59-.578s.25-.575.59-.579a.91.91 0 01.514.163l.205-.318c-.213-.155-.41-.215-.705-.215-.632 0-1.046.4-1.046.949zm5.499-.95a.59.59 0 00-.518.265v-.219H19.3v1.808h.427V19.94c0-.299.14-.465.418-.465a.745.745 0 01.267.046l.131-.37a.975.975 0 00-.304-.05zm-11.434.19c-.205-.125-.488-.19-.8-.19-.497 0-.817.22-.817.58 0 .294.238.476.677.533l.201.026c.234.03.345.087.345.19 0 .139-.156.219-.448.219-.295 0-.508-.087-.652-.19l-.2.307c.233.159.529.235.849.235.566 0 .895-.246.895-.59 0-.318-.259-.484-.686-.54l-.2-.028c-.185-.022-.333-.056-.333-.177 0-.132.14-.212.373-.212.25 0 .493.087.612.155l.184-.318zm5.504-.189a.59.59 0 00-.517.265v-.22h-.423v1.808h.427V19.94c0-.299.14-.465.418-.465a.745.745 0 01.267.046l.131-.37a.975.975 0 00-.304-.05zm-3.64.045H9.97v-.548h-.43v.548h-.398v.36h.398v.824c0 .42.177.67.681.67.185 0 .399-.054.534-.14l-.123-.337a.84.84 0 01-.378.102c-.213 0-.283-.121-.283-.302v-.817h.698v-.36zM4.29 20.954V19.82c0-.428-.295-.715-.771-.719-.25-.004-.51.068-.69.322-.135-.2-.348-.322-.648-.322-.21 0-.414.057-.575.269v-.224H1.18v1.808h.43V19.95c0-.313.19-.48.481-.48.283 0 .427.17.427.477v1.005h.43V19.95c0-.314.198-.48.48-.48.292 0 .431.17.431.476v1.006l.432.001z"
    fill="#231F20"
  ></path>
  <path d="M14.95 15.788H8.657V4.504h6.295v11.284z" fill="#FF5F00"></path>
  <path
    d="M9.317 10.146c0-2.28 1.126-4.31 2.88-5.618A7.772 7.772 0 007.538 3C3.375 3 0 6.2 0 10.146c0 3.947 3.375 7.146 7.538 7.146a7.772 7.772 0 004.659-1.528c-1.753-1.308-2.88-3.338-2.88-5.618z"
    fill="#EB001B"
  ></path>
  <path
    d="M24 10.146c0 3.947-3.375 7.146-7.538 7.146a7.774 7.774 0 01-4.659-1.528c1.754-1.308 2.88-3.338 2.88-5.618 0-2.28-1.126-4.31-2.88-5.618A7.774 7.774 0 0116.463 3C20.624 3 24 6.2 24 10.146"
    fill="#F79E1B"
  ></path>
</svg>
