<svg viewBox="0 0 24 24" xmlns="http://www.w3.org/2000/svg">
  <path
    d="M18.01 1.01V1l-.02.01-.009-.01v.01L12 3.494 6.019 1.01V1l-.01.01L5.991 1v.01L0 3.504V23l6.01-2.387 5.971 2.377V23h.038v-.01l5.972-2.377L24 23V3.504L18.01 1.01z"
    fill="url(#paint0_linear)"
  ></path>
  <path
    d="M0 3.504V23l6.019-2.387V1L0 3.504z"
    fill="url(#paint1_linear)"
  ></path>
  <path
    d="M12.019 3.504V23L5.99 20.613V1l6.028 2.504z"
    fill="url(#paint2_linear)"
  ></path>
  <path
    d="M11.981 3.504V23l6.028-2.387V1l-6.028 2.504z"
    fill="url(#paint3_linear)"
  ></path>
  <path
    d="M24 3.504V23l-6.019-2.387V1L24 3.504z"
    fill="url(#paint4_linear)"
  ></path>
  <path
    d="M20.606 12.4c-.215-.653-.15-1.774-.262-1.94-.703-1.003-3.263-1.178-4.416-2.494.206-.652-.206-1.188-.628-1.598-.628-.477-1.51-.263-2.184-.077-.77-.166-1.482-.458-2.222-.683-1.669-.185-3.319 1.033-3.319 1.033-1.19.78-3.056 2.407-3.947 3.362.216.029.45-.137.694-.166l1.715-.458c-.712.614-2.212 1.686-2.643 2.533.534-.185 1.65-.828 2.212-.877-.487.449-1.5 1.296-1.828 1.832.038.02.01.068.019.098.422-.244 1.434-.868 1.894-.906-.479.516-1.35 1.5-1.547 2.162.412-.282 1.453-.847 1.903-1.023-.103.263-.338.458-.488.721-.206.36-.693.77-.712 1.208.365-.35.815-.652 1.265-.906-.206.439-.571.8-.675 1.316.3-.302.854-.448 1.238-.585l-.047.049c-.028.03-.46.34-.75.692.263-.02.066-.05.394.029l.178.01c-.084.048-.188.097-.29.155-.16.088-.329.186-.507.283a7.629 7.629 0 002.597 2.212c1.312.672 2.756.886 4.19.711l-.056-.263c-.028-.107-.056-.214-.093-.312 0-.01 0-.01-.01-.02.488-.944.235-2.572 1.49-3.224.845-.448.948-.692 1.913-.507.525.107 1.679.516 2.222.39.497-.293.75-.42 1.181-.76.544.097.713.048.92-.254-.179.264.346-1.013.571-1.5l.028-.244z"
    fill="#fff"
  ></path>
  <path
    d="M5.86 15.702c.206-.01.121-.039.252 0v-.263c-.084.069-.168.166-.253.263zm-2.466-3.79c.534-.185 1.65-.828 2.212-.877-.487.449-1.5 1.296-1.828 1.832.038.02.01.068.019.098.422-.244 1.434-.868 1.894-.906-.479.516-1.35 1.5-1.547 2.162.412-.282 1.453-.847 1.903-1.023-.103.263-.338.458-.488.721-.206.36-.693.77-.712 1.208.365-.35.815-.652 1.265-.906-.206.439-.571.8-.675 1.316.17-.176.432-.293.694-.39V7.742c-.937.76-1.912 1.647-2.484 2.26.215.03.45-.136.694-.165l1.696-.458c-.712.604-2.203 1.676-2.643 2.533zm2.728 4.005c-.15.087-.31.175-.478.263.15.195.31.39.478.575v-.838z"
    fill="#F2F2F2"
  ></path>
  <path
    d="M17.981 9.213c-.769-.302-1.547-.662-2.044-1.237.207-.653-.206-1.189-.628-1.598-.628-.477-1.509-.263-2.184-.078a13.05 13.05 0 01-1.097-.312v13.154c.14-.01.272-.02.413-.04-.02-.087-.038-.175-.057-.262a2.99 2.99 0 00-.093-.312c0-.01 0-.01-.01-.02.488-.945.235-2.572 1.49-3.225.845-.448.948-.691 1.913-.506.525.107 1.679.516 2.222.39.028-.01.047-.03.075-.04V9.213z"
    fill="#F2F2F2"
  ></path>
  <defs>
    <linearGradient
      id="paint0_linear"
      x1="12"
      y1="23.004"
      x2="12"
      y2="1"
      gradientUnits="userSpaceOnUse"
    >
      <stop stop-color="#2075BC"></stop>
      <stop offset="1" stop-color="#29AAE1"></stop>
    </linearGradient>
    <linearGradient
      id="paint1_linear"
      x1="3.011"
      y1="23.004"
      x2="3.011"
      y2="1"
      gradientUnits="userSpaceOnUse"
    >
      <stop stop-color="#0A6AA8"></stop>
      <stop offset="1" stop-color="#1699C8"></stop>
    </linearGradient>
    <linearGradient
      id="paint2_linear"
      x1="9.004"
      y1="23.004"
      x2="9.004"
      y2="1"
      gradientUnits="userSpaceOnUse"
    >
      <stop stop-color="#2075BC"></stop>
      <stop offset="1" stop-color="#29AAE1"></stop>
    </linearGradient>
    <linearGradient
      id="paint3_linear"
      x1="14.996"
      y1="23.004"
      x2="14.996"
      y2="1"
      gradientUnits="userSpaceOnUse"
    >
      <stop stop-color="#0A6AA8"></stop>
      <stop offset="1" stop-color="#1699C8"></stop>
    </linearGradient>
    <linearGradient
      id="paint4_linear"
      x1="20.989"
      y1="23.004"
      x2="20.989"
      y2="1"
      gradientUnits="userSpaceOnUse"
    >
      <stop stop-color="#2075BC"></stop>
      <stop offset="1" stop-color="#29AAE1"></stop>
    </linearGradient>
  </defs>
</svg>
