<svg viewBox="0 0 24 24" xmlns="http://www.w3.org/2000/svg">
  <path
    d="M20.697 15.428c.002 2.183-1.496 4.064-3.533 4.434a4.142 4.142 0 01-.776.07c-.088 0-.122.037-.15.121-.407 1.226-1.218 1.956-2.445 2.14-.81.122-1.547-.106-2.192-.638-.09-.074-.145-.076-.239-.005a3.7 3.7 0 01-2.524.758c-1.803-.114-3.32-1.56-3.604-3.425a2.838 2.838 0 01-.042-.389c-.002-.108-.041-.15-.14-.17a3.364 3.364 0 01-1.478-.706 3.754 3.754 0 01-1.399-2.591c-.128-1.222.231-2.278 1.05-3.159.066-.07.07-.12.025-.203a3.562 3.562 0 01-.44-1.863c.061-1.654 1.157-3.02 2.682-3.358a.434.434 0 00.346-.287c.753-1.7 2.015-2.735 3.768-3.076 1.23-.24 2.39.017 3.467.682a.29.29 0 00.264.03c1.71-.52 3.226-.142 4.513 1.142.76.76 1.178 1.72 1.301 2.816.027.24.04.481.022.722-.007.091.02.13.102.161.771.3 1.303.858 1.536 1.684.29 1.028.046 1.93-.686 2.679-.063.065-.05.104-.014.17.387.699.587 1.451.586 2.261zM18.81 21.74c0-.6-.478-1.1-1.054-1.102-.59-.003-1.07.493-1.072 1.108-.003.601.485 1.111 1.06 1.112.585 0 1.065-.503 1.066-1.118zM1.003 12.551c.555.001 1.023-.486 1.02-1.064-.002-.579-.46-1.059-1.01-1.06C.447 10.425 0 10.895 0 11.489c0 .587.447 1.06 1.003 1.062zM13.442.666c-.559-.003-1.014.466-1.017 1.046-.003.58.45 1.057 1.006 1.058.553 0 .998-.465.999-1.046 0-.584-.439-1.055-.988-1.058zm8.22 6.574c-.002-.481-.394-.89-.854-.894-.47-.004-.869.413-.866.906.004.491.383.885.854.886.485 0 .869-.397.866-.898zM4.05 4.67c0 .451.336.806.764.807.433 0 .77-.356.768-.815-.002-.445-.337-.793-.764-.792-.439.001-.767.344-.768.8zm8.019 18.649a.672.672 0 00-.655-.688.667.667 0 00-.664.687c.001.38.292.682.658.682a.67.67 0 00.66-.681zm10.239-10.701c-.349-.003-.651.315-.649.68.003.361.29.658.639.659.365 0 .638-.281.639-.66.001-.374-.28-.677-.63-.68zM6.994 0c-.307-.001-.544.245-.544.566 0 .32.24.567.546.566.298-.002.532-.251.532-.568 0-.32-.23-.562-.534-.564zm16.53 9.577c-.25-.002-.477.233-.48.5a.494.494 0 00.481.505c.265.001.473-.215.475-.494a.492.492 0 00-.476-.51zM4.55 19.51a.498.498 0 00-.476-.5c-.262-.002-.477.23-.475.51a.482.482 0 00.479.49.49.49 0 00.472-.5z"
    fill="#F64060"
  ></path>
  <path
    d="M13.066 15.078c0 .928.569 1.75 1.374 2.029.404.14.82.206 1.244.225.302.014.603-.008.882-.154.22-.115.322-.305.313-.558-.01-.254-.12-.445-.351-.546a1.13 1.13 0 00-.248-.08c-.256-.047-.513-.088-.768-.14-.42-.088-.596-.322-.602-.768-.005-.394.097-.766.213-1.135.211-.673.497-1.316.77-1.963.264-.625.54-1.245.727-1.904.103-.362.152-.724.058-1.098-.142-.568-.466-.948-1.025-1.058-.512-.1-1.02-.111-1.484.21-.154.105-.302.08-.435-.044-.102-.094-.2-.194-.3-.29-.471-.458-1.095-.48-1.602-.062-.205.168-.377.377-.599.524-.198.13-.398.168-.618.045-.21-.118-.426-.22-.643-.324-.219-.103-.43-.232-.677-.253-.78-.07-1.596.416-1.94 1.155-.153.328-.277.667-.396 1.01-.545 1.58-.99 3.196-1.45 4.806-.206.72.038 1.43.619 1.818.453.303.95.378 1.464.216.416-.131.644-.483.804-.878.53-1.311 1.007-2.645 1.512-3.966.139-.364.273-.73.42-1.089.15-.363.577-.487.83-.246.156.147.197.343.181.552-.016.224-.099.43-.177.636-.328.871-.663 1.74-.993 2.612-.066.176-.139.35-.168.54-.05.324.072.612.325.726.258.117.526.137.794.035.311-.119.497-.374.64-.67.493-1.015.982-2.033 1.474-3.048.227-.47.459-.936.691-1.402.086-.173.188-.337.349-.444a.404.404 0 01.451-.016c.146.085.156.242.15.396a.746.746 0 01-.056.241c-.064.16-.124.323-.195.48-.409.905-.825 1.805-1.23 2.711-.171.382-.35.766-.328 1.168z"
    fill="#fff"
  ></path>
</svg>
