<svg viewBox="0 0 24 24" xmlns="http://www.w3.org/2000/svg">
  <path
    fill-rule="evenodd"
    clip-rule="evenodd"
    d="M12.508 24l-.594-.218s.072-3.257-1.015-3.491c-.725-.904.116-38.338 2.726-.125 0 0-.9.483-1.059 1.31-.174.81-.058 2.524-.058 2.524z"
    fill="#fff"
  ></path>
  <path
    fill-rule="evenodd"
    clip-rule="evenodd"
    d="M12.508 24l-.594-.218s.072-3.257-1.015-3.491c-.725-.904.116-38.338 2.726-.125 0 0-.9.483-1.059 1.31-.174.81-.058 2.524-.058 2.524z"
    fill="#A6A385"
  ></path>
  <path
    fill-rule="evenodd"
    clip-rule="evenodd"
    d="M12.827 20.852s5.207-3.678 3.988-11.33c-1.174-5.563-3.944-7.387-4.249-8.088-.333-.499-.652-1.371-.652-1.371l.218 15.474c0 .016-.45 4.738.696 5.315"
    fill="#fff"
  ></path>
  <path
    fill-rule="evenodd"
    clip-rule="evenodd"
    d="M12.827 20.852s5.207-3.678 3.988-11.33c-1.174-5.563-3.944-7.387-4.249-8.088-.333-.499-.652-1.371-.652-1.371l.218 15.474c0 .016-.45 4.738.696 5.315"
    fill="#499D4A"
  ></path>
  <path
    fill-rule="evenodd"
    clip-rule="evenodd"
    d="M11.61 21.054S6.721 17.47 7.011 11.16c.276-6.312 3.727-9.413 4.394-9.974.435-.5.45-.686.479-1.185.305.701.247 10.488.29 11.642.13 4.441-.232 8.571-.566 9.412z"
    fill="#fff"
  ></path>
  <path
    fill-rule="evenodd"
    clip-rule="evenodd"
    d="M11.61 21.054S6.721 17.47 7.011 11.16c.276-6.312 3.727-9.413 4.394-9.974.435-.5.45-.686.479-1.185.305.701.247 10.488.29 11.642.13 4.441-.232 8.571-.566 9.412z"
    fill="#58AA50"
  ></path>
</svg>
