<svg viewBox="0 0 24 24" xmlns="http://www.w3.org/2000/svg">
  <path
    d="M21.75 5c-.844 0-1.575.493-1.96 1.214l-.046.098-1.763 3.65-2.231 4.628 1.462 3.029.085.168c.225.414.562.76.975.966a2.36 2.36 0 00.975-.966l.084-.168 4.378-9.077.104-.217c.121-.296.187-.612.187-.957C24 6.056 22.997 5 21.75 5z"
    fill="#FF5000"
  ></path>
  <path
    d="M8.24 9.4L6.789 6.381l-.085-.167a2.304 2.304 0 00-.975-.967 2.36 2.36 0 00-.975.967l-.075.167L.3 15.458l-.103.217a2.48 2.48 0 00-.188.957C.01 17.934 1.013 19 2.26 19c.844 0 1.575-.493 1.96-1.213l.047-.1 1.762-3.65L8.25 9.41l-.01-.01z"
    fill="#FF5000"
  ></path>
  <path
    d="M21.75 5c-.844 0-1.584.493-1.96 1.214l-.046.098-1.763 3.65-2.231 4.628 1.462 3.029.085.168c.225.414.562.76.975.966a2.36 2.36 0 00.975-.966l.084-.168 4.378-9.077.104-.217c.121-.296.187-.612.187-.957C24 6.056 22.988 5 21.75 5z"
    fill="url(#paint0_linear)"
  ></path>
  <path
    d="M2.25 19c.844 0 1.584-.493 1.96-1.213l.046-.1 1.763-3.65L8.25 9.41 6.787 6.381l-.084-.167a2.304 2.304 0 00-.975-.967 2.36 2.36 0 00-.975.967l-.075.167L.3 15.458l-.112.227a2.48 2.48 0 00-.188.957C0 17.944 1.003 19 2.25 19z"
    fill="url(#paint1_linear)"
  ></path>
  <path
    d="M8.24 9.4L6.788 6.381l-.084-.167a2.304 2.304 0 00-.975-.967A2.154 2.154 0 016.712 5h3.075c.844.01 1.575.493 1.96 1.214l.066.167 3.946 8.219 1.453 3.019.085.168c.225.414.562.76.975.966a2.17 2.17 0 01-.994.247h-3.057c-.843-.01-1.574-.493-1.959-1.213l-.084-.168L8.241 9.4z"
    fill="#FF8C44"
  ></path>
  <defs>
    <linearGradient
      id="paint0_linear"
      x1="16.849"
      y1="18.058"
      x2="26.608"
      y2="10.133"
      gradientUnits="userSpaceOnUse"
    >
      <stop stop-color="#D4202C"></stop>
      <stop offset=".042" stop-color="#D82D2B" stop-opacity=".958"></stop>
      <stop offset=".176" stop-color="#E25226" stop-opacity=".824"></stop>
      <stop offset=".317" stop-color="#EB7123" stop-opacity=".683"></stop>
      <stop offset=".464" stop-color="#F28920" stop-opacity=".536"></stop>
      <stop offset=".619" stop-color="#F69A1E" stop-opacity=".381"></stop>
      <stop offset=".789" stop-color="#F9A41D" stop-opacity=".211"></stop>
      <stop offset="1" stop-color="#FAA71D" stop-opacity="0"></stop>
    </linearGradient>
    <linearGradient
      id="paint1_linear"
      x1="7.147"
      y1="5.94"
      x2="-2.613"
      y2="13.865"
      gradientUnits="userSpaceOnUse"
    >
      <stop stop-color="#D4202C"></stop>
      <stop offset=".042" stop-color="#D82D2B" stop-opacity=".958"></stop>
      <stop offset=".176" stop-color="#E25226" stop-opacity=".824"></stop>
      <stop offset=".317" stop-color="#EB7123" stop-opacity=".683"></stop>
      <stop offset=".464" stop-color="#F28920" stop-opacity=".536"></stop>
      <stop offset=".619" stop-color="#F69A1E" stop-opacity=".381"></stop>
      <stop offset=".789" stop-color="#F9A41D" stop-opacity=".211"></stop>
      <stop offset="1" stop-color="#FAA71D" stop-opacity="0"></stop>
    </linearGradient>
  </defs>
</svg>
