<svg viewBox="0 0 24 24" xmlns="http://www.w3.org/2000/svg">
  <path
    d="M17.394 8.329l-.01-.004a.037.037 0 01-.014-.008.069.069 0 01-.017-.058l.484-2.959 2.272 2.27-2.363 1.004a.052.052 0 01-.02.004h-.01a1.075 1.075 0 00-.323-.25zm3.294-.18l2.43 2.426c.504.504.756.756.848 1.047.014.043.025.087.034.131l-5.804-2.455-.01-.004c-.023-.01-.05-.02-.05-.044 0-.024.028-.035.05-.044l.008-.004 2.494-1.054zm3.213 4.383c-.125.235-.37.48-.783.893l-2.739 2.735-3.541-.737-.019-.004c-.031-.005-.065-.01-.065-.039a1.067 1.067 0 00-.41-.746c-.014-.015-.01-.037-.006-.058l.001-.009.666-4.085.003-.013c.003-.032.009-.068.037-.068.288-.036.55-.186.727-.416.006-.006.01-.013.017-.017.02-.01.044 0 .064.009l6.047 2.555h.001zm-4.151 4.257l-4.503 4.498.77-4.732.002-.007c0-.006.002-.012.004-.018.006-.015.022-.021.038-.027l.007-.003a1.16 1.16 0 00.436-.324c.015-.018.033-.035.056-.038a.056.056 0 01.018 0l3.171.651zm-5.456 5.45l-.508.507-5.611-8.101a.25.25 0 00-.006-.009c-.01-.012-.019-.024-.017-.037 0-.01.007-.02.014-.027l.006-.008c.017-.025.032-.05.047-.077l.013-.022.002-.002c.008-.015.017-.03.032-.037.013-.007.031-.004.045 0l6.217 1.28c.018.003.034.01.048.02.008.009.01.017.012.027a1.1 1.1 0 00.644.736c.017.009.01.028.002.049a.145.145 0 00-.01.028c-.078.476-.75 4.568-.93 5.673zm-1.06 1.058c-.375.37-.595.566-.845.645-.245.077-.51.077-.755 0-.292-.093-.545-.345-1.05-.849L4.95 17.464l1.472-2.28a.093.093 0 01.025-.03c.015-.01.038-.006.057 0 .337.102.7.084 1.026-.052.017-.006.034-.01.047.002a.12.12 0 01.018.02l5.638 8.174v-.001zm-8.828-6.376l-1.292-1.29 2.552-1.089a.054.054 0 01.021-.004c.021 0 .034.021.045.04.026.04.053.078.082.116l.008.01c.007.01.002.021-.005.031l-1.41 2.186zM2.542 15.06L.906 13.425c-.278-.278-.48-.48-.62-.653l4.973 1.03a.589.589 0 00.018.004c.031.005.065.01.065.039 0 .031-.037.046-.068.057l-.015.007-2.717 1.15zM0 11.932c.006-.105.025-.21.056-.31.093-.291.345-.543.85-1.047L3 8.483c.964 1.397 1.93 2.792 2.899 4.185.017.023.035.048.016.067-.091.1-.183.21-.248.33a.1.1 0 01-.03.04c-.009.004-.018.002-.027 0h-.001L0 11.931v.001zm3.56-4.008l2.813-2.81c.265.115 1.227.521 2.088.884.652.276 1.246.526 1.433.607.018.008.035.015.043.034.006.012.003.026 0 .038-.09.412.033.842.328 1.144.019.019 0 .046-.016.069l-.009.013-2.857 4.42a.087.087 0 01-.027.032c-.015.01-.037.005-.054 0a1.432 1.432 0 00-.34-.046c-.103 0-.215.02-.327.04h-.001c-.013.002-.024.004-.034-.003a.13.13 0 01-.028-.032l-3.013-4.39zm3.382-3.378l3.643-3.64c.504-.503.757-.756 1.049-.848.246-.077.51-.077.755 0 .292.092.545.345 1.05.848l.789.789-2.591 4.008a.097.097 0 01-.026.03c-.016.011-.037.007-.056 0a1.315 1.315 0 00-1.203.232c-.017.018-.042.008-.064-.002-.338-.147-2.97-1.258-3.346-1.417zm7.836-2.301l2.393 2.39-.577 3.566v.01a.084.084 0 01-.005.023c-.006.013-.019.015-.031.019a1.146 1.146 0 00-.356.181c-.007.008-.014.015-.025.016a.071.071 0 01-.027-.004l-3.646-1.548-.007-.003c-.023-.01-.05-.02-.05-.044a1.375 1.375 0 00-.195-.573c-.017-.029-.037-.059-.022-.088l2.548-3.945zM12.314 7.63l3.418 1.446c.019.009.04.017.047.037a.066.066 0 010 .035.85.85 0 00-.018.165v.096c0 .023-.025.033-.047.043l-.007.002c-.542.231-7.601 3.238-7.612 3.238-.01 0-.022 0-.032-.01-.02-.02 0-.046.017-.07a.452.452 0 00.008-.012l2.809-4.344.005-.007c.016-.027.035-.056.065-.056l.028.004c.064.01.12.017.178.017.426 0 .82-.207 1.059-.561a.101.101 0 01.02-.025c.018-.013.043-.006.062.002zM8.4 13.381l7.695-3.279s.012 0 .022.011c.042.042.078.07.112.097l.017.01c.016.009.032.019.033.035l-.001.016-.66 4.045-.002.016c-.005.031-.009.067-.038.067a1.083 1.083 0 00-.86.53l-.004.005c-.009.014-.017.028-.031.036-.013.006-.03.003-.044 0l-6.136-1.264c-.007-.001-.096-.325-.103-.325z"
    fill="url(#paint0_radial)"
  ></path>
  <defs>
    <radialGradient
      id="paint0_radial"
      cx="0"
      cy="0"
      r="1"
      gradientUnits="userSpaceOnUse"
      gradientTransform="matrix(24 0 0 24 12 -12)"
    >
      <stop stop-color="#20C6B7"></stop>
      <stop offset="1" stop-color="#4D9ABF"></stop>
    </radialGradient>
  </defs>
</svg>
