<svg viewBox="0 0 24 24" xmlns="http://www.w3.org/2000/svg">
  <path
    d="M11.87 19a.494.494 0 01-.228-.057l-.721-.408c-.109-.057-.055-.078-.022-.088.146-.046.173-.057.325-.14.017-.01.038-.005.054.006l.554.315c.022.01.049.01.065 0l2.165-1.194c.021-.01.032-.03.032-.057v-2.382c0-.026-.01-.047-.032-.057l-2.165-1.189c-.022-.01-.049-.01-.065 0l-2.165 1.189c-.021.01-.032.036-.032.057v2.382c0 .02.01.047.032.057l.592.326c.32.155.52-.026.52-.207v-2.352c0-.03.027-.062.066-.062h.276c.033 0 .065.026.065.063v2.351c0 .408-.233.646-.64.646-.125 0-.222 0-.499-.13l-.57-.31a.433.433 0 01-.227-.377V15c0-.155.086-.3.227-.377l2.165-1.194a.506.506 0 01.456 0l2.164 1.194a.433.433 0 01.228.377v2.382c0 .155-.087.3-.228.378l-2.164 1.193a.58.58 0 01-.228.047zm.667-1.638c-.95 0-1.145-.414-1.145-.765 0-.031.028-.062.066-.062h.282c.032 0 .06.02.06.052.043.273.167.408.742.408.456 0 .652-.098.652-.33 0-.135-.055-.233-.765-.3-.592-.057-.96-.181-.96-.631 0-.419.368-.667.987-.667.694 0 1.036.228 1.08.724a.08.08 0 01-.017.046c-.01.01-.027.02-.043.02h-.283a.063.063 0 01-.06-.046c-.064-.284-.232-.377-.677-.377-.5 0-.559.166-.559.29 0 .15.07.196.743.279.667.082.982.201.982.646-.005.454-.396.713-1.085.713z"
    fill="#539E43"
  ></path>
  <path
    d="M5.154 9.682a.261.261 0 00-.141-.227l-2.3-1.261a.346.346 0 00-.125-.036h-.022a.267.267 0 00-.125.036l-2.3 1.26A.261.261 0 000 9.683l.005 3.39c0 .047.028.093.07.114a.128.128 0 00.137 0l1.367-.744a.261.261 0 00.14-.228v-1.586c0-.093.055-.181.142-.228l.58-.32a.273.273 0 01.141-.036c.05 0 .098.01.136.036l.58.32a.261.261 0 01.141.228v1.586c0 .093.055.181.141.228l1.368.744a.138.138 0 00.14 0 .127.127 0 00.071-.114l-.005-3.39z"
    fill="#333"
  ></path>
  <path
    d="M16.21 5.016a.156.156 0 00-.136 0 .134.134 0 00-.07.113v3.36a.098.098 0 01-.05.082.108.108 0 01-.097 0l-.575-.315a.292.292 0 00-.277 0l-2.3 1.266a.261.261 0 00-.14.227v2.527c0 .094.053.181.14.228l2.3 1.266c.087.046.19.046.277 0l2.3-1.266a.261.261 0 00.141-.227v-6.3a.263.263 0 00-.14-.233l-1.373-.728zm-.212 6.428c0 .026-.01.047-.032.057l-.787.434a.084.084 0 01-.07 0l-.787-.434c-.022-.01-.033-.036-.033-.057v-.868c0-.026.011-.046.033-.057l.787-.434a.084.084 0 01.07 0l.787.434c.021.01.032.037.032.057v.868z"
    fill="#333"
  ></path>
  <path
    d="M23.864 10.556a.256.256 0 00.136-.228v-.615a.267.267 0 00-.136-.227L21.58 8.225a.292.292 0 00-.276 0l-2.3 1.266a.261.261 0 00-.142.227v2.527c0 .094.055.181.142.228l2.284 1.24c.086.047.19.047.27 0l1.384-.734a.128.128 0 00.07-.113.128.128 0 00-.07-.114l-2.31-1.266a.134.134 0 01-.071-.114v-.79c0-.047.027-.094.07-.114l.722-.393a.138.138 0 01.14 0l.722.393c.044.025.07.067.07.113v.62c0 .047.028.094.071.114a.138.138 0 00.141 0l1.367-.76z"
    fill="#333"
  ></path>
  <path
    d="M21.407 10.437a.051.051 0 01.054 0l.44.243c.016.01.027.025.027.046v.486c0 .02-.011.036-.027.046l-.44.243a.051.051 0 01-.054 0l-.44-.243a.054.054 0 01-.027-.046v-.486c0-.02.011-.036.027-.046l.44-.243z"
    fill="#539E43"
  ></path>
  <mask id="a" maskUnits="userSpaceOnUse" x="6" y="8" width="6" height="6">
    <path
      d="M9 8.235a.292.292 0 00-.277 0L6.44 9.491a.256.256 0 00-.135.227v2.517c0 .093.054.181.135.228l2.284 1.255c.087.047.19.047.277 0l2.284-1.255a.256.256 0 00.135-.228V9.718a.267.267 0 00-.135-.227L9 8.235z"
      fill="#fff"
    ></path>
  </mask>
  <g mask="url(#a)">
    <path
      d="M9 8.235a.292.292 0 00-.277 0L6.44 9.491a.256.256 0 00-.135.227v2.517c0 .093.054.181.135.228l2.284 1.255c.087.047.19.047.277 0l2.284-1.255a.256.256 0 00.135-.228V9.718a.267.267 0 00-.135-.227L9 8.235z"
      fill="url(#paint0_linear)"
    ></path>
    <path
      d="M11.29 9.491L8.994 8.236a.388.388 0 00-.07-.026l-2.572 4.196a.283.283 0 00.076.062l2.294 1.256a.276.276 0 00.212.026l2.414-4.207c-.016-.02-.038-.036-.06-.052z"
      fill="url(#paint1_linear)"
    ></path>
    <path
      fill-rule="evenodd"
      clip-rule="evenodd"
      d="M11.295 12.463a.296.296 0 00.135-.166L8.913 8.204a.287.287 0 00-.195.031l-2.279 1.25 2.458 4.27A.393.393 0 009 13.723l2.295-1.26z"
      fill="url(#paint2_linear)"
    ></path>
    <path
      fill-rule="evenodd"
      clip-rule="evenodd"
      d="M11.295 12.463l-2.29 1.255a.337.337 0 01-.103.031l.044.078 2.539-1.4v-.032l-.066-.103a.24.24 0 01-.124.17z"
      fill="url(#paint3_linear)"
    ></path>
    <path
      fill-rule="evenodd"
      clip-rule="evenodd"
      d="M11.295 12.463l-2.29 1.255a.337.337 0 01-.103.031l.044.078 2.539-1.4v-.032l-.066-.103a.24.24 0 01-.124.17z"
      fill="url(#paint4_linear)"
    ></path>
  </g>
  <defs>
    <linearGradient
      id="paint0_linear"
      x1="9.792"
      y1="9.171"
      x2="7.458"
      y2="13.021"
      gradientUnits="userSpaceOnUse"
    >
      <stop stop-color="#41873F"></stop>
      <stop offset=".329" stop-color="#418B3D"></stop>
      <stop offset=".635" stop-color="#419637"></stop>
      <stop offset=".932" stop-color="#3FA92D"></stop>
      <stop offset="1" stop-color="#3FAE2A"></stop>
    </linearGradient>
    <linearGradient
      id="paint1_linear"
      x1="8.515"
      y1="11.272"
      x2="14.642"
      y2="7.778"
      gradientUnits="userSpaceOnUse"
    >
      <stop offset=".138" stop-color="#41873F"></stop>
      <stop offset=".403" stop-color="#54A044"></stop>
      <stop offset=".714" stop-color="#66B848"></stop>
      <stop offset=".908" stop-color="#6CC04A"></stop>
    </linearGradient>
    <linearGradient
      id="paint2_linear"
      x1="6.22"
      y1="10.977"
      x2="11.505"
      y2="10.977"
      gradientUnits="userSpaceOnUse"
    >
      <stop offset=".092" stop-color="#6CC04A"></stop>
      <stop offset=".286" stop-color="#66B848"></stop>
      <stop offset=".597" stop-color="#54A044"></stop>
      <stop offset=".862" stop-color="#41873F"></stop>
    </linearGradient>
    <linearGradient
      id="paint3_linear"
      x1="6.22"
      y1="13.064"
      x2="11.505"
      y2="13.064"
      gradientUnits="userSpaceOnUse"
    >
      <stop offset=".092" stop-color="#6CC04A"></stop>
      <stop offset=".286" stop-color="#66B848"></stop>
      <stop offset=".597" stop-color="#54A044"></stop>
      <stop offset=".862" stop-color="#41873F"></stop>
    </linearGradient>
    <linearGradient
      id="paint4_linear"
      x1="12.275"
      y1="9.052"
      x2="11.056"
      y2="15.757"
      gradientUnits="userSpaceOnUse"
    >
      <stop stop-color="#41873F"></stop>
      <stop offset=".329" stop-color="#418B3D"></stop>
      <stop offset=".635" stop-color="#419637"></stop>
      <stop offset=".932" stop-color="#3FA92D"></stop>
      <stop offset="1" stop-color="#3FAE2A"></stop>
    </linearGradient>
  </defs>
</svg>
