<svg viewBox="0 0 24 24" xmlns="http://www.w3.org/2000/svg">
  <path
    d="M19.029 1.81C17.936.543 15.96 0 13.433 0H6.1c-.517 0-.956.382-1.037.9L2.008 20.598c-.06.388.235.74.622.74h4.528l1.137-7.335-.035.23c.08-.519.517-.901 1.033-.901h2.152c4.227 0 7.537-1.746 8.503-6.797.03-.149.054-.294.075-.436-.122-.066-.122-.066 0 0 .288-1.867-.001-3.138-.994-4.288z"
    fill="#27346A"
  ></path>
  <path
    d="M10.028 5.425a.908.908 0 01.396-.09h5.75c.68 0 1.316.044 1.896.14a7.85 7.85 0 011.158.28c.286.098.551.21.795.343.288-1.868-.001-3.138-.994-4.288C17.935.543 15.96 0 13.433 0H6.098c-.516 0-.955.382-1.036.9L2.008 20.597c-.06.39.235.74.621.74h4.529l2.36-15.214a.933.933 0 01.51-.697z"
    fill="#27346A"
  ></path>
  <path
    d="M19.948 6.534c-.966 5.05-4.276 6.797-8.503 6.797H9.293a1.05 1.05 0 00-1.033.9l-1.415 9.121A.558.558 0 007.39 24h3.817a.923.923 0 00.907-.788l.037-.198.72-4.636.046-.256a.923.923 0 01.906-.788h.572c3.697 0 6.592-1.528 7.438-5.946.354-1.846.17-3.388-.763-4.47a3.653 3.653 0 00-1.046-.82 11.42 11.42 0 01-.075.436z"
    fill="#2790C3"
  ></path>
  <path
    d="M19.012 5.687a6.98 6.98 0 00-.457-.119 8.504 8.504 0 00-.484-.093 11.74 11.74 0 00-1.897-.14h-5.75a.895.895 0 00-.396.09.93.93 0 00-.51.698l-1.222 7.88-.035.229a1.05 1.05 0 011.032-.901h2.153c4.227 0 7.536-1.746 8.503-6.797.029-.149.053-.294.075-.436a5.178 5.178 0 00-1.012-.41z"
    fill="#1F264F"
  ></path>
</svg>
