<svg viewBox="0 0 24 24" xmlns="http://www.w3.org/2000/svg">
  <path
    d="M12 18c6.627 0 12-2.686 12-6s-5.373-6-12-6S0 8.686 0 12s5.373 6 12 6z"
    fill="url(#paint0_radial)"
  ></path>
  <path
    d="M12 17.554c6.369 0 11.531-2.486 11.531-5.554S18.37 6.446 12 6.446C5.631 6.446.469 8.932.469 12S5.63 17.554 12 17.554z"
    fill="#6181B6"
  ></path>
  <path
    d="M14.334 13.8l.572-2.799c.131-.633.019-1.105-.319-1.4-.328-.285-.89-.427-1.715-.427h-.994l.281-1.39a.18.18 0 00-.037-.152.172.172 0 00-.14-.063h-1.37a.19.19 0 00-.187.143l-.61 2.969a1.553 1.553 0 00-.412-.856c-.403-.437-1.031-.66-1.884-.66H4.884a.19.19 0 00-.187.143l-1.228 6.026a.18.18 0 00.037.152.172.172 0 00.14.062h1.379a.19.19 0 00.188-.142l.3-1.454h1.021c.535 0 .994-.053 1.341-.16.366-.116.694-.303.984-.562.235-.205.432-.437.582-.686l-.244 1.203a.18.18 0 00.037.152.172.172 0 00.141.062h1.369a.19.19 0 00.187-.142l.675-3.299h.938c.403 0 .515.071.553.107.028.027.084.134.019.464l-.544 2.665a.18.18 0 00.037.152.172.172 0 00.141.062h1.406c.085-.027.16-.089.178-.17zm-6.337-2.317c-.084.419-.244.722-.478.891-.235.17-.619.259-1.125.259h-.61l.441-2.157h.788c.58 0 .815.115.909.213.122.143.15.42.075.794z"
    fill="#fff"
  ></path>
  <path
    d="M20.184 9.825c-.403-.437-1.03-.66-1.884-.66h-2.653a.19.19 0 00-.188.143l-1.228 6.017a.18.18 0 00.038.152.172.172 0 00.14.062h1.378a.19.19 0 00.188-.142l.3-1.453h1.022c.534 0 .994-.054 1.34-.16.366-.117.694-.304.985-.563.244-.214.45-.454.6-.713.15-.258.262-.544.328-.856.16-.775.037-1.382-.366-1.827zm-1.434 1.658c-.084.419-.244.722-.478.891-.234.17-.619.259-1.125.259h-.61l.441-2.157h.788c.58 0 .815.115.909.213.131.143.16.42.075.794z"
    fill="#fff"
  ></path>
  <path
    d="M7.013 10.297c.524 0 .871.09 1.05.277.178.187.215.499.121.945-.093.463-.28.802-.553.998-.272.196-.684.294-1.237.294h-.835l.516-2.514h.938zm-3.357 5.064h1.378l.329-1.596h1.18c.526 0 .948-.053 1.285-.16a2.49 2.49 0 00.919-.526c.234-.205.422-.428.562-.669.141-.24.244-.508.3-.802.15-.713.038-1.266-.328-1.667-.365-.402-.947-.598-1.744-.598H4.884l-1.228 6.018z"
    fill="#000004"
  ></path>
  <path
    d="M10.622 7.747h1.369l-.329 1.596h1.22c.768 0 1.293.125 1.584.384.29.258.375.668.262 1.239l-.572 2.8H12.77l.543-2.666c.066-.304.038-.509-.065-.616-.103-.107-.338-.169-.684-.169h-1.097l-.704 3.45H9.394l1.228-6.018z"
    fill="#000004"
  ></path>
  <path
    d="M17.766 10.297c.525 0 .872.09 1.05.277.178.187.215.499.122.945-.094.463-.282.802-.554.998-.271.196-.684.294-1.237.294h-.834l.515-2.514h.938zm-3.357 5.064h1.378l.329-1.596h1.18c.526 0 .948-.053 1.285-.16.338-.107.638-.277.919-.526.234-.205.422-.428.563-.669.14-.24.243-.508.3-.802.15-.713.037-1.266-.329-1.667-.365-.402-.947-.598-1.743-.598h-2.654l-1.228 6.018z"
    fill="#000004"
  ></path>
  <defs>
    <radialGradient
      id="paint0_radial"
      cx="0"
      cy="0"
      r="1"
      gradientUnits="userSpaceOnUse"
      gradientTransform="matrix(15.7589 0 0 14.9862 7.205 8.11)"
    >
      <stop stop-color="#fff"></stop>
      <stop offset=".5" stop-color="#4C6B97"></stop>
      <stop offset="1" stop-color="#231F20"></stop>
    </radialGradient>
  </defs>
</svg>
