<svg viewBox="0 0 24 24" xmlns="http://www.w3.org/2000/svg">
  <circle cx="12" cy="12" r="12" fill="#fff"></circle>
  <path
    d="M0 12c0 4.913 2.955 9.135 7.183 10.99-.034-.837-.006-1.843.209-2.755l1.544-6.538s-.383-.767-.383-1.9c0-1.777 1.03-3.105 2.314-3.105 1.091 0 1.619.82 1.619 1.801 0 1.097-.7 2.739-1.06 4.259-.3 1.272.638 2.31 1.894 2.31 2.274 0 3.805-2.92 3.805-6.38 0-2.63-1.771-4.598-4.993-4.598-3.64 0-5.908 2.715-5.908 5.747 0 1.046.308 1.783.79 2.354.223.262.254.367.173.668l-.244.963c-.08.304-.326.413-.6.3-1.678-.684-2.458-2.52-2.458-4.584 0-3.408 2.875-7.496 8.576-7.496 4.582 0 7.597 3.315 7.597 6.874 0 4.708-2.617 8.224-6.475 8.224-1.295 0-2.514-.7-2.931-1.495 0 0-.697 2.764-.845 3.298-.254.925-.752 1.85-1.208 2.57 1.08.32 2.22.493 3.401.493 6.627 0 12-5.373 12-12S18.627 0 12 0 0 5.373 0 12z"
    fill="#CB1F27"
  ></path>
</svg>
