<svg viewBox="0 0 24 24" xmlns="http://www.w3.org/2000/svg">
  <path
    d="M23.936 14.377c-.144-.424-.522-.72-1.01-.79a2.385 2.385 0 00-.807.043c-.544.109-.948.15-1.243.159 1.113-1.822 2.017-3.9 2.538-5.855.842-3.162.392-4.602-.134-5.254C21.89.956 19.86.03 17.41 0a10.705 10.705 0 00-3.053.415 11.716 11.716 0 00-1.784-.158c-1.178-.018-2.22.23-3.109.743A14.55 14.55 0 007.27.465C5.122.123 3.392.39 2.127 1.257.594 2.307-.116 4.13.015 6.679c.042.809.509 3.27 1.243 5.604.422 1.341.872 2.455 1.338 3.311.66 1.214 1.367 1.929 2.16 2.185.445.144 1.253.244 2.102-.442.108.127.252.252.442.37.243.147.539.268.834.34 1.066.258 2.064.194 2.916-.168l.013.408c.005.197.011.39.018.57.051 1.219.136 2.167.39 2.83.014.037.033.092.052.151.127.375.338 1.004.876 1.496.557.51 1.23.666 1.847.666.31 0 .604-.04.863-.093.923-.192 1.971-.484 2.73-1.531.716-.99 1.065-2.481 1.128-4.83l.023-.19.015-.125.169.014.043.003c.94.042 2.09-.152 2.795-.47.558-.25 2.345-1.166 1.924-2.401z"
    fill="#000"
  ></path>
  <path
    d="M22.33 14.617c-2.795.559-2.988-.359-2.988-.359 2.951-4.247 4.185-9.638 3.12-10.957-2.904-3.6-7.931-1.897-8.015-1.853l-.027.005a10.264 10.264 0 00-1.865-.189c-1.264-.02-2.223.322-2.951.857 0 0-8.968-3.583-8.551 4.507.088 1.721 2.543 13.023 5.47 9.61 1.07-1.249 2.105-2.304 2.105-2.304.513.33 1.128.5 1.773.439l.05-.041c-.016.155-.009.306.02.486-.755.817-.533.96-2.04 1.262-1.526.305-.63.848-.045.99.71.171 2.35.415 3.46-1.09l-.045.171c.296.23.504 1.494.469 2.64-.035 1.145-.058 1.931.175 2.546.232.614.464 1.997 2.447 1.585 1.656-.345 2.514-1.237 2.633-2.725.085-1.058.277-.901.289-1.847l.154-.448c.177-1.434.028-1.897 1.048-1.682l.248.022c.751.033 1.734-.118 2.311-.378 1.242-.559 1.979-1.492.754-1.247z"
    fill="#336791"
  ></path>
  <path
    d="M10.129 7.398c-.252-.034-.48-.003-.596.082a.21.21 0 00-.09.141c-.015.1.058.212.103.27a.782.782 0 00.494.299.593.593 0 00.079.005c.305 0 .582-.23.607-.4.03-.213-.288-.355-.598-.397z"
    fill="#fff"
  ></path>
  <path
    d="M18.472 7.405c-.024-.167-.33-.215-.62-.176-.29.04-.572.167-.549.334.019.13.261.352.548.352a.543.543 0 00.073-.005.711.711 0 00.399-.211c.101-.104.16-.22.15-.294z"
    fill="#fff"
  ></path>
  <path
    d="M23.26 14.553c-.107-.312-.45-.413-1.02-.299-1.692.339-2.298.104-2.497-.038 1.315-1.943 2.397-4.292 2.98-6.484.277-1.038.43-2.002.442-2.788.014-.863-.137-1.497-.45-1.884C21.455 1.5 19.607.662 17.37.64c-1.538-.017-2.838.365-3.09.472a7.929 7.929 0 00-1.739-.216c-1.155-.018-2.153.25-2.98.796a13.633 13.633 0 00-2.42-.615C5.179.769 3.62 1 2.508 1.766 1.181 2.678.568 4.308.687 6.61c.04.775.495 3.159 1.213 5.442.946 3.004 1.974 4.706 3.055 5.055.127.041.273.07.434.07.394 0 .878-.172 1.381-.76a48.829 48.829 0 011.904-2.09 3.14 3.14 0 001.37.358l.003.037c-.095.11-.174.207-.241.289-.33.407-.4.492-1.465.705-.303.06-1.108.222-1.12.769-.013.598.951.849 1.061.876.383.093.752.138 1.104.138.855 0 1.608-.272 2.21-.8-.019 2.132.073 4.232.337 4.872.216.524.744 1.805 2.412 1.804.244 0 .513-.027.81-.089 1.74-.362 2.496-1.108 2.789-2.753.156-.879.425-2.978.55-4.104.267.08.61.117.981.117.774 0 1.667-.16 2.226-.411.63-.284 1.764-.979 1.558-1.583zm-4.146-7.61a6.641 6.641 0 01-.102.95c-.054.339-.11.69-.124 1.115-.014.413.04.844.091 1.26.104.84.211 1.705-.203 2.559a3.28 3.28 0 01-.183-.365 7.079 7.079 0 00-.317-.584c-.602-1.046-2.01-3.496-1.29-4.495.216-.298.76-.604 2.128-.44zm-1.658-5.631c2.005.043 3.591.77 4.714 2.162.861 1.068-.087 5.925-2.833 10.115a14.398 14.398 0 00-.083-.102l-.035-.042c.71-1.136.571-2.26.448-3.257-.051-.41-.099-.796-.087-1.159.013-.385.065-.714.116-1.034.062-.393.126-.8.108-1.279a.517.517 0 00.012-.18c-.045-.46-.586-1.836-1.69-3.082a7.588 7.588 0 00-2.685-1.958 9.325 9.325 0 012.015-.184zM6.238 15.989c-.555.647-.938.523-1.063.482-.82-.265-1.773-1.947-2.612-4.614-.726-2.308-1.15-4.629-1.184-5.28-.106-2.057.408-3.492 1.528-4.262C4.731 1.06 7.73 1.81 8.934 2.192l-.053.049c-1.977 1.936-1.93 5.245-1.925 5.447 0 .078.007.188.016.34.034.557.097 1.592-.072 2.765a3.43 3.43 0 001.196 3.152 49.662 49.662 0 00-1.858 2.044zm2.112-2.734a2.774 2.774 0 01-.764-2.369c.179-1.239.113-2.318.077-2.897-.005-.082-.01-.153-.012-.209.289-.248 1.627-.944 2.582-.732.435.097.7.385.81.88.572 2.561.077 3.629-.322 4.487-.082.177-.16.344-.225.517l-.052.133c-.13.338-.25.652-.325.95a2.5 2.5 0 01-1.769-.76zm.1 3.455a1.554 1.554 0 01-.462-.193c.084-.038.234-.09.492-.142 1.254-.25 1.447-.427 1.87-.947.097-.12.207-.255.359-.42.227-.246.33-.204.518-.129.153.061.301.247.361.45.029.097.06.28-.044.421-.883 1.2-2.17 1.184-3.094.96zm6.56 5.92c-1.534.32-2.076-.44-2.434-1.307-.231-.56-.345-3.086-.264-5.875a.326.326 0 00-.015-.106 1.382 1.382 0 00-.043-.197c-.12-.406-.412-.746-.761-.886-.14-.056-.395-.159-.702-.083.066-.261.18-.556.302-.876l.052-.135c.058-.151.13-.308.208-.474.417-.898.987-2.128.368-4.905-.232-1.04-1.007-1.549-2.18-1.43-.705.07-1.349.345-1.67.503a5.42 5.42 0 00-.191.1c.09-1.05.428-3.008 1.695-4.248.798-.78 1.86-1.165 3.155-1.145 2.55.04 4.186 1.31 5.109 2.368.795.912 1.226 1.83 1.398 2.326-1.293-.128-2.172.12-2.618.738-.97 1.344.53 3.953 1.252 5.207.132.23.246.428.282.513.235.552.539.92.76 1.19.069.082.134.161.185.231-.392.11-1.095.363-1.031 1.627-.052.634-.42 3.605-.606 4.654-.246 1.386-.772 1.903-2.251 2.21zm6.4-7.104c-.4.18-1.07.316-1.707.345-.703.032-1.06-.077-1.145-.143-.04-.788.263-.87.583-.957.05-.014.1-.028.147-.044.03.024.061.047.097.07.565.361 1.572.4 2.995.115a.86.86 0 01.016-.003c-.192.174-.52.408-.986.617z"
    fill="#fff"
  ></path>
</svg>
