<svg viewBox="0 0 24 24" xmlns="http://www.w3.org/2000/svg">
  <path d="M1 1.026h22v21.948H1V1.026z" fill="#290132"></path>
  <path
    d="M1 1.026h22v21.948H1V1.026zM0 24h24V0H0v24zm14.4-13.867c0-.123 0-.42-.05-.995 0-.082.01-.102.08-.133.61-.256 2.04-.708 3.66-.708.08 0 .12.02.12.103v1.487c0 .082-.03.103-.11.103-.63-.031-1.54.051-1.89.205v6.461c0 .082-.03.123-.12.123h-1.57c-.08 0-.12-.03-.12-.123v-6.523zm-6.4.934c.23.02.41.02.81.02 1.17 0 2.27-.42 2.27-2.051 0-1.303-.78-1.96-2.12-1.96-.4 0-.78.021-.96.032v3.959zM6.23 5.62c0-.071.02-.123.1-.123.64-.03 1.58-.05 2.57-.05 2.77 0 3.98 1.558 3.98 3.558 0 2.605-1.84 3.723-4.1 3.723-.38 0-.51-.02-.78-.02v3.938c0 .082-.03.123-.12.123H6.34c-.08 0-.12-.03-.12-.123V5.62h.01z"
    fill="#E579FF"
  ></path>
</svg>
