<svg viewBox="0 0 24 24" xmlns="http://www.w3.org/2000/svg">
  <path
    d="M18.96 4.571h-1.348a.469.469 0 00-.47.47v.205c0 .258.21.468.47.468h1.348c.259 0 .469-.21.469-.468V5.04a.469.469 0 00-.47-.469z"
    fill="#56B3B4"
  ></path>
  <path
    d="M6.388 22.857H.468a.469.469 0 00-.468.469v.205c0 .26.21.469.469.469h5.92c.258 0 .468-.21.468-.469v-.205a.469.469 0 00-.469-.469z"
    fill="#EA5E5E"
  ></path>
  <path
    d="M17.817 13.714h-3.634a.469.469 0 00-.469.469v.205c0 .26.21.47.469.47h3.634a.47.47 0 00.469-.47v-.205a.469.469 0 00-.469-.469z"
    fill="#BF85BF"
  ></path>
  <path
    d="M12.103 13.714H7.326a.469.469 0 00-.469.469v.205c0 .26.21.47.469.47h4.777c.259 0 .468-.21.468-.47v-.205a.469.469 0 00-.468-.469z"
    fill="#EA5E5E"
  ></path>
  <path
    d="M5.246 13.714H.469a.469.469 0 00-.469.469v.205c0 .26.21.47.469.47h4.777c.258 0 .468-.21.468-.47v-.205a.469.469 0 00-.468-.469z"
    fill="#56B3B4"
  ></path>
  <path
    d="M6.388 18.286H.468a.469.469 0 00-.468.468v.206c0 .259.21.469.469.469h5.92c.258 0 .468-.21.468-.47v-.205a.469.469 0 00-.469-.468z"
    fill="#BF85BF"
  ></path>
  <path
    d="M6.388 9.143H.468A.469.469 0 000 9.612v.205c0 .259.21.469.469.469h5.92c.258 0 .468-.21.468-.469v-.205a.469.469 0 00-.469-.47z"
    fill="#BF85BF"
  ></path>
  <path
    d="M17.817 2.286H6.183a.469.469 0 00-.469.468v.206c0 .259.21.469.469.469h11.634a.47.47 0 00.469-.47v-.205a.469.469 0 00-.469-.468z"
    fill="#F7BA3E"
  ></path>
  <path
    d="M4.103 2.286H.469A.469.469 0 000 2.754v.206c0 .259.21.469.469.469h3.634c.259 0 .468-.21.468-.47v-.205a.469.469 0 00-.468-.468z"
    fill="#EA5E5E"
  ></path>
  <path
    d="M6.388 20.571H5.04a.469.469 0 00-.469.47v.204c0 .26.21.47.47.47h1.347c.26 0 .47-.21.47-.47v-.205a.469.469 0 00-.47-.469z"
    fill="#F7BA3E"
  ></path>
  <path
    d="M6.388 6.857H5.04a.469.469 0 00-.469.469v.205c0 .26.21.469.47.469h1.347c.26 0 .47-.21.47-.469v-.205a.469.469 0 00-.47-.469z"
    fill="#56B3B4"
  ></path>
  <path
    d="M2.96 20.571H.469a.469.469 0 00-.469.47v.204c0 .26.21.47.469.47h2.49c.26 0 .47-.21.47-.47v-.205a.469.469 0 00-.47-.469z"
    fill="#56B3B4"
  ></path>
  <path
    d="M2.96 6.857H.469A.469.469 0 000 7.326v.205C0 7.791.21 8 .469 8h2.49c.26 0 .47-.21.47-.469v-.205a.469.469 0 00-.47-.469z"
    fill="#F7BA3E"
  ></path>
  <path
    opacity=".5"
    d="M16.674 20.571h-1.348a.469.469 0 00-.469.47v.204c0 .26.21.47.469.47h1.348a.47.47 0 00.469-.47v-.205a.469.469 0 00-.469-.469z"
    fill="#D0D4D8"
  ></path>
  <path
    opacity=".5"
    d="M13.245 20.571H8.47a.469.469 0 00-.469.47v.204c0 .26.21.47.469.47h4.777c.258 0 .468-.21.468-.47v-.205a.469.469 0 00-.469-.469z"
    fill="#D0D4D8"
  ></path>
  <path
    opacity=".5"
    d="M23.531 20.571h-4.777a.469.469 0 00-.468.47v.204c0 .26.21.47.468.47h4.777c.26 0 .469-.21.469-.47v-.205a.469.469 0 00-.469-.469z"
    fill="#D0D4D8"
  ></path>
  <path
    d="M18.96 11.429H9.612a.469.469 0 00-.47.468v.206c0 .258.21.468.47.468h9.348c.259 0 .469-.21.469-.468v-.206a.469.469 0 00-.47-.468z"
    fill="#56B3B4"
  ></path>
  <path
    d="M7.531 11.429H3.897a.469.469 0 00-.468.468v.206c0 .258.21.468.468.468h3.634c.26 0 .469-.21.469-.468v-.206a.469.469 0 00-.469-.468z"
    fill="#F7BA3E"
  ></path>
  <path
    d="M1.817 11.429H.469a.469.469 0 00-.469.468v.206c0 .258.21.468.469.468h1.348c.259 0 .469-.21.469-.468v-.206a.469.469 0 00-.469-.468z"
    fill="#EA5E5E"
  ></path>
  <path
    d="M15.531 4.571h-4.777a.469.469 0 00-.468.47v.205c0 .258.21.468.468.468h4.777c.26 0 .469-.21.469-.468V5.04a.469.469 0 00-.469-.469z"
    fill="#BF85BF"
  ></path>
  <path
    d="M8.674 4.571H.47a.469.469 0 00-.469.47v.205c0 .258.21.468.469.468h8.205c.259 0 .469-.21.469-.468V5.04a.469.469 0 00-.469-.469z"
    fill="#56B3B4"
  ></path>
  <path
    d="M14.388 16H3.898a.469.469 0 00-.47.469v.205c0 .259.21.469.47.469h10.49c.26 0 .47-.21.47-.469v-.205a.469.469 0 00-.47-.469z"
    fill="#F7BA3E"
  ></path>
  <path
    d="M1.817 16H.469a.469.469 0 00-.469.469v.205c0 .259.21.469.469.469h1.348c.259 0 .469-.21.469-.469v-.205A.469.469 0 001.817 16z"
    fill="#BF85BF"
  ></path>
  <path
    d="M20.103 6.857h-5.92a.469.469 0 00-.469.469v.205c0 .26.21.469.469.469h5.92c.259 0 .468-.21.468-.469v-.205a.469.469 0 00-.468-.469z"
    fill="#EA5E5E"
  ></path>
  <path
    d="M20.103 9.143h-5.92a.469.469 0 00-.469.469v.205c0 .259.21.469.469.469h5.92c.259 0 .468-.21.468-.469v-.205a.469.469 0 00-.468-.47z"
    fill="#F7BA3E"
  ></path>
  <path
    d="M14.388 0H.468A.469.469 0 000 .469v.205c0 .259.21.469.469.469h13.92c.258 0 .468-.21.468-.469V.47a.469.469 0 00-.469-.47z"
    fill="#56B3B4"
  ></path>
  <path
    opacity=".5"
    d="M23.531 0H16.47a.469.469 0 00-.47.469v.205c0 .259.21.469.469.469h7.062c.26 0 .469-.21.469-.469V.47a.469.469 0 00-.469-.47z"
    fill="#D0D4D8"
  ></path>
  <path
    opacity=".5"
    d="M18.96 16h-2.491a.469.469 0 00-.469.469v.205c0 .259.21.469.469.469h2.49c.26 0 .47-.21.47-.469v-.205a.469.469 0 00-.47-.469z"
    fill="#D0D4D8"
  ></path>
  <path
    opacity=".5"
    d="M23.531 16h-2.49a.469.469 0 00-.47.469v.205c0 .259.21.469.47.469h2.49c.26 0 .469-.21.469-.469v-.205a.469.469 0 00-.469-.469z"
    fill="#D0D4D8"
  ></path>
  <path
    opacity=".5"
    d="M23.531 13.714h-3.634a.469.469 0 00-.468.469v.205c0 .26.21.47.468.47h3.634c.26 0 .469-.21.469-.47v-.205a.469.469 0 00-.469-.469z"
    fill="#D0D4D8"
  ></path>
  <path
    opacity=".5"
    d="M23.531 2.286h-3.634a.469.469 0 00-.468.468v.206c0 .259.21.469.468.469h3.634c.26 0 .469-.21.469-.47v-.205a.469.469 0 00-.469-.468z"
    fill="#D0D4D8"
  ></path>
  <path
    opacity=".5"
    d="M23.531 11.429h-2.49a.469.469 0 00-.47.468v.206c0 .258.21.468.47.468h2.49c.26 0 .469-.21.469-.468v-.206a.469.469 0 00-.469-.468z"
    fill="#D0D4D8"
  ></path>
  <path
    opacity=".5"
    d="M23.531 4.571h-2.49a.469.469 0 00-.47.47v.205c0 .258.21.468.47.468h2.49c.26 0 .469-.21.469-.468V5.04a.469.469 0 00-.469-.469z"
    fill="#D0D4D8"
  ></path>
  <path
    opacity=".5"
    d="M23.531 6.857h-1.348a.469.469 0 00-.469.469v.205c0 .26.21.469.469.469h1.348c.26 0 .469-.21.469-.469v-.205a.469.469 0 00-.469-.469z"
    fill="#D0D4D8"
  ></path>
  <path
    opacity=".5"
    d="M23.531 9.143h-1.348a.469.469 0 00-.469.469v.205c0 .259.21.469.469.469h1.348c.26 0 .469-.21.469-.469v-.205a.469.469 0 00-.469-.47z"
    fill="#D0D4D8"
  ></path>
  <path
    opacity=".5"
    d="M23.531 18.286h-10.49a.469.469 0 00-.47.468v.206c0 .259.21.469.47.469h10.49c.26 0 .469-.21.469-.47v-.205a.469.469 0 00-.469-.468z"
    fill="#D0D4D8"
  ></path>
  <path
    opacity=".5"
    d="M10.96 18.286H8.469a.469.469 0 00-.469.468v.206c0 .259.21.469.469.469h2.49c.26 0 .47-.21.47-.47v-.205a.469.469 0 00-.47-.468z"
    fill="#D0D4D8"
  ></path>
  <path
    opacity=".5"
    d="M23.531 22.857h-5.92a.469.469 0 00-.468.469v.205c0 .26.21.469.469.469h5.92c.258 0 .468-.21.468-.469v-.205a.469.469 0 00-.469-.469z"
    fill="#D0D4D8"
  ></path>
  <path
    opacity=".5"
    d="M15.531 22.857H8.47a.469.469 0 00-.469.469v.205c0 .26.21.469.469.469h7.062c.26 0 .469-.21.469-.469v-.205a.469.469 0 00-.469-.469z"
    fill="#D0D4D8"
  ></path>
  <path
    opacity=".5"
    d="M12.103 6.857H8.469A.469.469 0 008 7.326v.205c0 .26.21.469.469.469h3.634c.259 0 .468-.21.468-.469v-.205a.469.469 0 00-.468-.469z"
    fill="#D0D4D8"
  ></path>
  <path
    opacity=".5"
    d="M12.103 9.143H8.469A.469.469 0 008 9.612v.205c0 .259.21.469.469.469h3.634c.259 0 .468-.21.468-.469v-.205a.469.469 0 00-.468-.47z"
    fill="#D0D4D8"
  ></path>
</svg>
