<svg viewBox="0 0 24 24" xmlns="http://www.w3.org/2000/svg">
  <path
    fill-rule="evenodd"
    clip-rule="evenodd"
    d="M20.01 19.037L9.163 22.224a.454.454 0 01-.58-.52L12.46 3.267c.073-.345.552-.4.704-.08l7.173 15.138a.514.514 0 01-.327.713zm1.86-.752L13.562.757a1.327 1.327 0 00-1.136-.755 1.32 1.32 0 00-1.213.626l-9.009 14.5a1.35 1.35 0 00.016 1.455l4.404 6.778a1.419 1.419 0 001.59.581l12.782-3.756a1.403 1.403 0 00.88-.756 1.354 1.354 0 00-.008-1.145z"
    fill="#0C344B"
  ></path>
</svg>
