<svg viewBox="0 0 24 24" xmlns="http://www.w3.org/2000/svg">
  <path
    d="M19.84 13.455H4.138v-.89a1.08 1.08 0 011.077-1.082h13.547a1.08 1.08 0 011.078 1.083v.89z"
    fill="#DFDEDF"
  ></path>
  <path
    d="M18.746 23.774H5.23a1.097 1.097 0 01-1.093-1.099v-9.22H19.84v9.22c0 .607-.49 1.1-1.094 1.1z"
    fill="#fff"
  ></path>
  <path
    d="M19.644 13.277v-.798a.85.85 0 00-.849-.853H5.205a.85.85 0 00-.849.853v.798h15.288zm0 9.512v-9.155H4.356v9.155c0 .471.38.853.849.853h13.59a.85.85 0 00.849-.853zM5.284 11.268l.054-.58-.225.584c.03-.002.06-.004.092-.004h.08zm13.338-.978l.079.978h.094c.05 0 .1.004.15.01l-.323-.988zm1.078 1.392c.186.213.3.491.3.796V22.79c0 .668-.54 1.211-1.205 1.211H5.205A1.21 1.21 0 014 22.79V12.478c0-.324.128-.618.334-.835l1.201-3.129.524-5.75.591.055L6.178 8l.167.065-.226.588-.238 2.615h12.224l-.678-8.463.591-.048.4 4.991 1.282 3.934zm-14.378.527a.27.27 0 01.27.27.27.27 0 11-.538 0c0-.15.12-.27.268-.27zm.92 0a.27.27 0 01.268.27c0 .15-.12.27-.268.27a.27.27 0 01-.27-.27c0-.15.121-.27.27-.27zm.89 0a.27.27 0 01.269.27.27.27 0 11-.538 0c0-.15.12-.27.269-.27z"
    fill="#000"
  ></path>
  <path
    d="M6.251 18.072a.314.314 0 00.07-.212.307.307 0 00-.07-.21c-.048-.053-.116-.079-.204-.079H5.62v.58h.428c.088 0 .156-.026.204-.08zm-.204-.848c.185 0 .33.056.44.172.11.116.163.271.163.464a.653.653 0 01-.16.463.578.578 0 01-.443.175H5.62v.78h-.33v-2.054h.758zm1.784 1.26v-.6h.356v1.353h-.356v-.122a.57.57 0 01-.423.163.513.513 0 01-.392-.16.57.57 0 01-.148-.41v-.824h.356v.749a.33.33 0 00.076.23.245.245 0 00.197.087c.224 0 .334-.155.334-.466zm1.746.37a.406.406 0 00.105-.292.412.412 0 00-.105-.295.367.367 0 00-.273-.111c-.1 0-.189.037-.267.113a.39.39 0 00-.116.293c0 .12.038.217.116.29a.373.373 0 00.267.114c.11 0 .2-.038.273-.111zm-.21-1.01a.63.63 0 01.463.203.713.713 0 01.197.515.703.703 0 01-.197.512.627.627 0 01-.464.204.688.688 0 01-.445-.147v.752h-.356v-1.999h.356v.109c.119-.1.267-.15.445-.15zm1.941 1.01a.406.406 0 00.106-.292.413.413 0 00-.106-.295.367.367 0 00-.272-.111c-.1 0-.189.037-.267.113a.389.389 0 00-.116.293c0 .12.038.217.116.29a.373.373 0 00.267.114c.11 0 .2-.038.272-.111zm-.21-1.01a.63.63 0 01.464.203.713.713 0 01.197.515.703.703 0 01-.197.512.627.627 0 01-.464.204.688.688 0 01-.445-.147v.752h-.356v-1.999h.356v.109c.118-.1.267-.15.445-.15zm1.187.56h.65a.319.319 0 00-.119-.186.354.354 0 00-.405.003.3.3 0 00-.126.184zm.332-.56c.183 0 .342.065.475.192.132.13.2.296.207.499v.122h-1.025c.019.095.06.17.122.228a.307.307 0 00.215.086c.154 0 .265-.06.335-.178l.318.067a.641.641 0 01-.256.312.735.735 0 01-.397.106.668.668 0 01-.49-.2.703.703 0 01-.2-.516c0-.209.067-.382.202-.518a.67.67 0 01.494-.2zm1.664 1.1a.483.483 0 00.224-.065l.103.298a.73.73 0 01-.351.1.543.543 0 01-.389-.135c-.094-.09-.14-.222-.14-.404v-.56h-.288v-.294h.288v-.409h.356v.41h.44v.292h-.44v.534c0 .155.065.233.197.233zm.747-.54h.65a.319.319 0 00-.118-.186.354.354 0 00-.405.003.3.3 0 00-.127.184zm.332-.56c.184 0 .343.065.475.192.132.13.2.296.208.499v.122h-1.025c.018.095.059.17.121.228a.307.307 0 00.216.086c.154 0 .264-.06.334-.178l.319.067a.64.64 0 01-.256.312.735.735 0 01-.397.106.668.668 0 01-.491-.2.703.703 0 01-.2-.516c0-.209.068-.382.203-.518a.67.67 0 01.493-.2zm1.268.56h.65a.319.319 0 00-.118-.186.354.354 0 00-.405.003.3.3 0 00-.127.184zm.332-.56c.183 0 .343.065.475.192.132.13.2.296.207.499v.122h-1.025c.02.095.06.17.122.228a.307.307 0 00.215.086c.154 0 .265-.06.335-.178l.319.067a.641.641 0 01-.257.312.735.735 0 01-.396.106.668.668 0 01-.491-.2.703.703 0 01-.2-.516c0-.209.067-.382.202-.518a.67.67 0 01.494-.2zm1.791.021a.3.3 0 01.095.011l-.02.345h-.077c-.322 0-.48.192-.48.58v.436h-.357v-1.353h.356v.247a.563.563 0 01.483-.266z"
    fill="#000"
  ></path>
  <path
    d="M17.194 8.33l1.92-.932v-.932l-4.438-2.13 4.439-2.297V1.14L17.26.275l-5.256 2.63L6.659.274l-1.722.932v.799L9.11 4.302l-4.174 2.13v.966l1.789.932 5.3-2.73 5.168 2.73z"
    fill="#00D8A2"
  ></path>
  <path
    d="M17.434 7.95v-.402l1.447-.753v.451l-1.447.704zM5.054 6.785l1.397.806v.32l-1.398-.71v-.416zM12.21 5.09l4.808 2.386v.48l-4.807-2.474V5.09zM6.866 7.546l4.93-2.456v.391l-4.93 2.507v-.442zm3.49-4.013l-4.988-2.42L6.66.452l5.344 2.783L17.258.454l1.338.688-4.865 2.46a.267.267 0 000 .476l4.815 2.421-1.248.65-5.294-2.726-5.388 2.782-1.23-.71L10.36 4.01a.267.267 0 00-.003-.477zm-5.24-1.6v-.441l4.652 2.333-.47.188-4.183-2.08zm9.54 2.106l-.446-.212 4.67-2.361v.442l-4.224 2.131zm.468.232L19.228 2.2a.124.124 0 00.068-.11v-.98A.124.124 0 0019.23 1L17.315.013a.123.123 0 00-.112 0l-5.144 2.623a.122.122 0 01-.11 0L6.713.013a.123.123 0 00-.11 0l-1.899.97a.124.124 0 00-.067.11v.996c0 .047.026.09.068.11l4.122 2.047-4.103 2.047a.124.124 0 00-.068.108l-.018.98c0 .047.025.09.068.112l1.97 1.002a.123.123 0 00.111 0l5.16-2.603a.123.123 0 01.111 0l5.096 2.604a.123.123 0 00.109 0l1.963-.954a.124.124 0 00.07-.111V6.408a.124.124 0 00-.07-.111L15.124 4.27z"
    fill="#000"
  ></path>
</svg>
