<svg viewBox="0 0 24 24" xmlns="http://www.w3.org/2000/svg">
  <path
    d="M11.914 0C5.82 0 6.2 2.656 6.2 2.656l.007 2.752h5.814v.826H3.9S0 5.789 0 11.969c0 6.18 3.403 5.96 3.403 5.96h2.03v-2.867s-.109-3.42 3.35-3.42h5.766s3.24.052 3.24-3.148V3.202S18.28 0 11.913 0zM8.708 1.85a1.04 1.04 0 01.966.65 1.055 1.055 0 01-.566 1.374 1.04 1.04 0 01-1.14-.228 1.05 1.05 0 01-.227-1.147 1.05 1.05 0 01.967-.649z"
    fill="url(#paint0_linear)"
  ></path>
  <path
    d="M12.086 24c6.093 0 5.713-2.656 5.713-2.656l-.007-2.752h-5.814v-.826H20.1s3.9.445 3.9-5.735c0-6.18-3.403-5.96-3.403-5.96h-2.03v2.867s.109 3.42-3.35 3.42H9.452s-3.24-.052-3.24 3.148v5.292S5.72 24 12.086 24zm3.206-1.85a1.04 1.04 0 01-.966-.65 1.056 1.056 0 01.566-1.373 1.04 1.04 0 011.14.228 1.05 1.05 0 01.306.743 1.054 1.054 0 01-.645.972c-.127.053-.263.08-.4.08z"
    fill="url(#paint1_linear)"
  ></path>
  <defs>
    <linearGradient
      id="paint0_linear"
      x1="2.306"
      y1="2.159"
      x2="14.261"
      y2="13.933"
      gradientUnits="userSpaceOnUse"
    >
      <stop stop-color="#387EB8"></stop>
      <stop offset="1" stop-color="#366994"></stop>
    </linearGradient>
    <linearGradient
      id="paint1_linear"
      x1="9.607"
      y1="9.759"
      x2="22.442"
      y2="21.83"
      gradientUnits="userSpaceOnUse"
    >
      <stop stop-color="#FFE052"></stop>
      <stop offset="1" stop-color="#FFC331"></stop>
    </linearGradient>
  </defs>
</svg>
