<svg viewBox="0 0 24 24" xmlns="http://www.w3.org/2000/svg">
  <path
    d="M.74 19H9.1s-1.597-6.93 3.694-9.736c1.153-.533 4.825-2.524 10.836 1.7.19-.15.37-.271.37-.271s-5.503-5.22-11.63-4.637c-3.079.262-6.867 2.927-9.09 6.447C1.058 16.023.74 19 .74 19zM18.16 6.62l.042-.675c-.095-.05-.36-.17-1.026-.352l-.043.664c.35.11.688.232 1.027.362zm-1.007 2.13l-.042.634c.35.01.698.05 1.048.12l.042-.623a7.91 7.91 0 00-1.048-.13zm-3.915-3.137h.106L13.132 5c-.328 0-.666.02-1.016.06l.202.594c.306-.03.613-.04.92-.04zm.508 3.7l.243.695a6.81 6.81 0 01.921-.352l-.233-.664c-.36.1-.666.211-.931.322zM8.942 6.67l-.476-.694c-.265.13-.54.271-.826.432l.487.704c.275-.16.54-.312.815-.442zm2.17 4.525l.507.724c.18-.25.392-.482.624-.713l-.476-.684a5.686 5.686 0 00-.656.673zm-1.535 3.239l.857.644a7.67 7.67 0 01.222-1.177l-.762-.573a9.187 9.187 0 00-.317 1.106zM4.942 9.657l-.752-.624c-.275.251-.54.503-.783.754l.815.664c.222-.271.466-.543.72-.794zm-3.196 4.495L.529 13.73c-.201.432-.423.935-.529 1.207l1.217.422c.137-.342.36-.835.529-1.207zm7.672 2.836c.021.534.074.966.127 1.268l1.27.432a12.92 12.92 0 01-.254-1.307l-1.143-.393z"
    fill="#C00"
  ></path>
</svg>
