<svg viewBox="0 0 24 24" xmlns="http://www.w3.org/2000/svg">
  <path
    d="M19.733 8.482a16.87 16.87 0 00-.773-.228c.044-.167.084-.331.12-.493.584-2.66.202-4.801-1.104-5.506-1.252-.677-3.3.028-5.367 1.714-.2.162-.399.334-.598.514a14.207 14.207 0 00-.398-.344C9.446 2.336 7.273 1.577 5.97 2.284c-1.25.678-1.621 2.692-1.095 5.212.051.243.11.492.178.744-.308.082-.604.17-.888.262C1.623 9.332 0 10.632 0 11.982c0 1.392 1.742 2.79 4.389 3.637.208.067.425.13.648.19-.072.273-.135.541-.188.802-.502 2.476-.11 4.443 1.138 5.116 1.288.697 3.45-.019 5.556-1.743.167-.136.334-.28.501-.432.217.195.434.38.65.554 2.039 1.644 4.053 2.308 5.3 1.632 1.287-.698 1.705-2.81 1.162-5.38a11.78 11.78 0 00-.144-.6c.152-.042.301-.086.447-.131C22.209 14.773 24 13.393 24 11.98c0-1.354-1.675-2.663-4.267-3.499zm-.597 6.233c-.131.041-.266.08-.403.119a21.785 21.785 0 00-1.215-2.848 21.69 21.69 0 001.168-2.806c.245.066.483.136.713.21 2.221.716 3.576 1.775 3.576 2.591 0 .87-1.463 1.997-3.839 2.734zm-.986 1.83c.24 1.136.275 2.163.116 2.967-.143.721-.43 1.203-.786 1.395-.756.41-2.374-.123-4.118-1.529-.2-.16-.402-.333-.604-.515a22.852 22.852 0 002.012-2.393 25.433 25.433 0 003.25-.469c.05.185.093.366.13.544zm-9.968 4.291c-.739.245-1.327.252-1.683.06-.757-.41-1.072-1.988-.643-4.106.05-.242.108-.491.176-.746.983.204 2.07.35 3.234.439a23.81 23.81 0 002.06 2.384c-.153.138-.306.27-.457.394-.931.762-1.864 1.303-2.687 1.575zM4.72 14.71c-1.17-.375-2.137-.862-2.799-1.393-.595-.477-.896-.951-.896-1.336 0-.819 1.303-1.863 3.476-2.572.264-.086.54-.167.826-.244.3.915.695 1.872 1.17 2.84a22.514 22.514 0 00-1.184 2.879 13.293 13.293 0 01-.593-.174zm1.16-7.399c-.45-2.159-.15-3.787.603-4.196.803-.435 2.578.185 4.45 1.742.12.1.24.203.36.311-.697.701-1.387 1.5-2.045 2.37a26.592 26.592 0 00-3.202.466 13.32 13.32 0 01-.165-.693zm10.353 2.395c-.237-.385-.481-.76-.73-1.125.766.091 1.5.212 2.189.359a19.71 19.71 0 01-.768 1.935 32.88 32.88 0 00-.69-1.17zm-4.222-3.852c.473.48.947 1.016 1.413 1.597a32.243 32.243 0 00-2.837 0c.466-.576.944-1.111 1.424-1.597zM7.763 9.712a27.16 27.16 0 00-.678 1.163 20.35 20.35 0 01-.762-1.945 24.372 24.372 0 012.175-.35c-.252.368-.497.746-.735 1.132zm.757 5.739a23.163 23.163 0 01-2.212-.333c.212-.641.473-1.307.778-1.985A28.118 28.118 0 008.52 15.45zm3.52 2.725a21.978 21.978 0 01-1.444-1.619 38.225 38.225 0 002.853-.005c-.468.595-.94 1.14-1.41 1.624zm4.893-5.077c.321.684.592 1.347.806 1.977-.696.149-1.447.269-2.239.358a31.69 31.69 0 001.433-2.335zm-1.584.711c-.375.61-.76 1.19-1.151 1.74a35.508 35.508 0 01-4.371.008 26.45 26.45 0 01-2.197-3.554 26.783 26.783 0 012.185-3.547 30.777 30.777 0 014.375 0 30.862 30.862 0 012.191 3.533 28.339 28.339 0 01-1.032 1.82zm2.115-10.724c.804.435 1.116 2.185.612 4.481-.033.146-.069.296-.108.447a26.097 26.097 0 00-3.21-.475 22.639 22.639 0 00-2.028-2.371c.184-.167.368-.325.552-.475 1.772-1.444 3.428-2.014 4.182-1.607zM12 9.974c1.184 0 2.143.898 2.143 2.007s-.96 2.007-2.143 2.007c-1.184 0-2.143-.898-2.143-2.007s.96-2.007 2.143-2.007z"
    fill="#00D8FF"
  ></path>
</svg>
