<svg viewBox="0 0 24 24" xmlns="http://www.w3.org/2000/svg">
  <circle cx="12" cy="12" r="12" fill="#fff"></circle>
  <path
    fill-rule="evenodd"
    clip-rule="evenodd"
    d="M12 24c6.627 0 12-5.373 12-12S18.627 0 12 0 0 5.373 0 12s5.373 12 12 12zm7.966-11.873c0-.973-.784-1.762-1.75-1.762-.476 0-.896.183-1.204.493-1.19-.86-2.842-1.423-4.662-1.494l.798-3.763 2.59.55a1.251 1.251 0 001.246 1.198c.686 0 1.246-.564 1.246-1.254 0-.69-.56-1.255-1.246-1.255-.49 0-.91.282-1.106.705l-2.898-.62a.347.347 0 00-.238.042.343.343 0 00-.14.197l-.882 4.2c-1.862.057-3.528.606-4.732 1.494a1.76 1.76 0 00-1.204-.493c-.966 0-1.75.79-1.75 1.762 0 .719.42 1.325 1.036 1.606-.028.17-.042.353-.042.536 0 2.706 3.122 4.89 6.986 4.89S19 16.976 19 14.27c0-.183-.014-.352-.042-.521a1.824 1.824 0 001.008-1.621zM7.996 13.38c0-.69.56-1.254 1.246-1.254.686 0 1.246.564 1.246 1.254 0 .69-.56 1.255-1.246 1.255a1.253 1.253 0 01-1.246-1.255zm6.958 3.312c-.854.86-2.478.916-2.954.916s-2.114-.07-2.954-.916a.333.333 0 010-.465.328.328 0 01.462 0c.532.536 1.68.733 2.506.733.826 0 1.96-.197 2.506-.733a.328.328 0 01.462 0 .365.365 0 01-.028.465zm-.224-2.058a1.253 1.253 0 01-1.246-1.254c0-.69.56-1.254 1.246-1.254.686 0 1.246.564 1.246 1.254 0 .69-.56 1.255-1.246 1.255z"
    fill="#FF4500"
  ></path>
</svg>
