<svg viewBox="0 0 24 24" xmlns="http://www.w3.org/2000/svg">
  <path
    d="M23.055 17.404c-1.28.652-7.914 3.314-9.326 4.033-1.413.719-2.197.712-3.313.191-1.115-.52-8.175-3.304-9.446-3.897-.636-.297-.97-.547-.97-.784V14.58s9.19-1.953 10.674-2.473c1.484-.52 1.998-.538 3.26-.087 1.264.452 8.813 1.782 10.061 2.228v2.334c0 .234-.288.49-.94.822z"
    fill="#912626"
  ></path>
  <path
    d="M23.055 15.05c-1.281.652-7.914 3.314-9.326 4.033-1.413.719-2.197.712-3.313.191-1.115-.52-8.174-3.304-9.446-3.897-1.272-.593-1.298-1.002-.05-1.479 1.25-.478 8.27-3.166 9.754-3.686s1.998-.538 3.26-.087c1.264.452 7.857 3.014 9.105 3.46 1.248.446 1.296.814.015 1.466z"
    fill="#C6302B"
  ></path>
  <path
    d="M23.055 13.573c-1.28.652-7.914 3.314-9.326 4.033-1.413.719-2.197.712-3.313.191-1.115-.52-8.175-3.304-9.446-3.897-.636-.297-.97-.547-.97-.783v-2.368s9.19-1.953 10.674-2.472c1.484-.52 1.998-.539 3.26-.087 1.264.451 8.813 1.78 10.061 2.227v2.334c0 .234-.288.49-.94.822z"
    fill="#912626"
  ></path>
  <path
    d="M23.055 11.22c-1.281.651-7.914 3.314-9.326 4.033-1.413.718-2.197.711-3.313.19-1.115-.52-8.174-3.304-9.446-3.897-1.272-.593-1.298-1.001-.05-1.479 1.25-.477 8.27-3.166 9.754-3.686s1.998-.538 3.26-.086c1.264.451 7.857 3.013 9.105 3.459 1.248.447 1.296.814.015 1.466z"
    fill="#C6302B"
  ></path>
  <path
    d="M23.055 9.6c-1.28.652-7.914 3.315-9.326 4.034-1.413.718-2.197.711-3.313.19-1.115-.52-8.175-3.304-9.446-3.897C.334 9.63 0 9.38 0 9.144V6.776s9.19-1.953 10.674-2.472c1.484-.52 1.998-.539 3.26-.087 1.264.451 8.813 1.78 10.061 2.227v2.334c0 .234-.288.49-.94.822z"
    fill="#912626"
  ></path>
  <path
    d="M23.055 7.247c-1.28.651-7.914 3.314-9.326 4.033-1.413.718-2.197.711-3.313.19C9.301 10.95 2.242 8.168.97 7.574-.302 6.98-.328 6.572.92 6.094c1.25-.477 8.27-3.166 9.754-3.685 1.484-.52 1.998-.539 3.26-.087 1.264.451 7.857 3.013 9.105 3.46 1.248.446 1.296.814.015 1.465z"
    fill="#C6302B"
  ></path>
  <path
    d="M14.93 4.944l-2.063.209-.462 1.085-.746-1.21-2.382-.21 1.777-.626-.533-.96 1.664.635 1.569-.501-.424.993 1.6.585zm-2.648 5.262l-3.85-1.558 5.516-.827-1.666 2.385zm-5.338-4.66c1.628 0 2.949.5 2.949 1.116 0 .617-1.32 1.116-2.95 1.116-1.628 0-2.948-.5-2.948-1.116 0-.616 1.32-1.115 2.949-1.115z"
    fill="#fff"
  ></path>
  <path
    d="M17.368 5.24l3.265 1.26-3.262 1.258-.003-2.518"
    fill="#621B1C"
  ></path>
  <path
    d="M13.755 6.635l3.613-1.395.003 2.518-.354.135-3.261-1.258z"
    fill="#9A2928"
  ></path>
</svg>
