<svg viewBox="0 0 24 24" xmlns="http://www.w3.org/2000/svg">
  <path
    d="M16.63 16.365c.885-.089 1.557-.826 1.527-1.71-.031-.886-.795-1.593-1.71-1.593h-.062c-.947.03-1.68.796-1.65 1.71.032.442.215.826.49 1.091-1.039 1.976-2.627 3.421-5.01 4.63-1.618.826-3.298 1.12-4.977.915-1.375-.177-2.444-.767-3.116-1.74-.977-1.445-1.068-3.008-.244-4.571.58-1.121 1.497-1.947 2.077-2.36a15.466 15.466 0 01-.397-1.504C-.871 14.33-.412 18.517.93 20.493c1.008 1.475 3.054 2.389 5.315 2.389a7.76 7.76 0 001.832-.206c3.91-.738 6.872-2.979 8.552-6.311zm5.375-3.657c-2.321-2.625-5.742-4.07-9.651-4.07h-.489a1.687 1.687 0 00-1.496-.885h-.062c-.946.03-1.68.797-1.649 1.71.03.886.794 1.593 1.71 1.593h.062a1.72 1.72 0 001.496-1.002h.55c2.321 0 4.52.648 6.505 1.916 1.527.974 2.627 2.242 3.237 3.775.52 1.239.49 2.448-.06 3.48-.856 1.563-2.291 2.418-4.185 2.418a8.045 8.045 0 01-2.993-.619c-.336.295-.947.767-1.374 1.062 1.313.59 2.657.914 3.94.914 2.932 0 5.1-1.563 5.925-3.126.885-1.71.824-4.66-1.466-7.166zM6.49 16.866c.03.885.794 1.592 1.71 1.592h.061c.947-.029 1.68-.796 1.65-1.71-.031-.885-.795-1.593-1.71-1.593h-.062a.53.53 0 00-.214.03c-1.252-2.005-1.771-4.188-1.588-6.547.122-1.77.733-3.303 1.802-4.571.886-1.091 2.596-1.622 3.757-1.651 3.237-.06 4.611 3.833 4.703 5.396.397.089 1.069.295 1.527.443C17.759 3.477 14.706 1 11.773 1 9.025 1 6.49 2.917 5.482 5.748c-1.405 3.775-.489 7.402 1.222 10.263-.153.206-.245.53-.214.855z"
    fill="#764ABC"
  ></path>
</svg>
