<svg viewBox="0 0 24 24" xmlns="http://www.w3.org/2000/svg">
  <path
    d="M21 7.902a7.963 7.963 0 00-1.002-3.886c-1.694-1.779-5.379-2.19-6.294-.008-.94 2.237 1.58 4.726 2.68 4.529 1.401-.253-.248-3.533-.248-3.533 2.144 4.121 1.649 2.86-2.225 6.645-3.875 3.784-7.832 11.77-8.409 12.106a.467.467 0 01-.078.042H20.62c.268 0 .44-.29.321-.534L16.97 15.24a.371.371 0 01.14-.484A7.923 7.923 0 0021 7.902z"
    fill="url(#paint0_linear)"
  ></path>
  <path
    d="M21 7.902a7.963 7.963 0 00-1.002-3.886c-1.694-1.779-5.379-2.19-6.294-.008-.94 2.237 1.58 4.726 2.68 4.529 1.401-.253-.248-3.533-.248-3.533 2.144 4.121 1.649 2.86-2.225 6.645-3.875 3.784-7.832 11.77-8.409 12.106a.467.467 0 01-.078.042H20.62c.268 0 .44-.29.321-.534L16.97 15.24a.371.371 0 01.14-.484A7.923 7.923 0 0021 7.902z"
    fill="url(#paint1_linear)"
  ></path>
  <path
    d="M5.502 23.755c.577-.336 4.534-8.326 8.409-12.11C17.785 7.86 18.28 9.12 16.136 5c0 0-8.202 11.733-11.17 17.536"
    fill="url(#paint2_linear)"
  ></path>
  <path
    d="M6.656 13.242c5.54-10.39 6.265-11.438 9.15-11.438 1.517 0 3.047.698 4.036 1.939C18.494 1.527 16.108.043 13.375 0h-9.41a.363.363 0 00-.359.366v19.352c.56-1.476 1.513-3.587 3.05-6.476z"
    fill="url(#paint3_linear)"
  ></path>
  <path
    d="M13.91 11.644C10.037 15.43 6.08 23.42 5.503 23.755c-.577.337-1.545.379-2.06-.21-.549-.627-1.402-1.64 3.214-10.303 5.54-10.39 6.265-11.438 9.15-11.438 1.517 0 3.047.698 4.036 1.939.053.088.107.18.16.273-1.694-1.779-5.378-2.19-6.293-.008-.94 2.237 1.578 4.726 2.679 4.529 1.401-.253-.248-3.533-.248-3.533 2.14 4.117 1.645 2.856-2.23 6.64z"
    fill="url(#paint4_linear)"
  ></path>
  <path
    opacity=".3"
    d="M7.11 13.705c5.54-10.391 6.265-11.438 9.15-11.438 1.249 0 2.506.475 3.462 1.333a5.208 5.208 0 00-3.915-1.796c-2.886 0-3.611 1.047-9.15 11.438C2.04 21.905 2.892 22.92 3.44 23.545c.079.088.17.164.264.227-.482-.715-.696-2.376 3.405-10.067z"
    fill="url(#paint5_linear)"
  ></path>
  <defs>
    <linearGradient
      id="paint0_linear"
      x1="9.602"
      y1="12.782"
      x2="16.038"
      y2="13.605"
      gradientUnits="userSpaceOnUse"
    >
      <stop stop-color="#FF6533"></stop>
      <stop offset=".157" stop-color="#FF5633"></stop>
      <stop offset=".434" stop-color="#FF4333"></stop>
      <stop offset=".714" stop-color="#FF3733"></stop>
      <stop offset="1" stop-color="#F33"></stop>
    </linearGradient>
    <linearGradient
      id="paint1_linear"
      x1="8.609"
      y1="10.635"
      x2="21.486"
      y2="16.095"
      gradientUnits="userSpaceOnUse"
    >
      <stop stop-color="#BF3338"></stop>
      <stop offset="1" stop-color="#F33"></stop>
    </linearGradient>
    <linearGradient
      id="paint2_linear"
      x1="8.98"
      y1="12.408"
      x2="11.011"
      y2="13.363"
      gradientUnits="userSpaceOnUse"
    >
      <stop stop-color="#FF6533"></stop>
      <stop offset=".157" stop-color="#FF5633"></stop>
      <stop offset=".434" stop-color="#FF4333"></stop>
      <stop offset=".714" stop-color="#FF3733"></stop>
      <stop offset="1" stop-color="#F33"></stop>
    </linearGradient>
    <linearGradient
      id="paint3_linear"
      x1="11.978"
      y1="15.448"
      x2="11.251"
      y2="8.239"
      gradientUnits="userSpaceOnUse"
    >
      <stop stop-color="#FF6533"></stop>
      <stop offset=".157" stop-color="#FF5633"></stop>
      <stop offset=".434" stop-color="#FF4333"></stop>
      <stop offset=".714" stop-color="#FF3733"></stop>
      <stop offset="1" stop-color="#F33"></stop>
    </linearGradient>
    <linearGradient
      id="paint4_linear"
      x1="9.835"
      y1="12.284"
      x2="12.412"
      y2="13.333"
      gradientUnits="userSpaceOnUse"
    >
      <stop stop-color="#FBB040"></stop>
      <stop offset="1" stop-color="#FB8840"></stop>
    </linearGradient>
    <linearGradient
      id="paint5_linear"
      x1="12.234"
      y1="3.097"
      x2="8.149"
      y2="29.666"
      gradientUnits="userSpaceOnUse"
    >
      <stop stop-color="#fff"></stop>
      <stop offset="1" stop-color="#fff" stop-opacity="0"></stop>
    </linearGradient>
  </defs>
</svg>
