<svg viewBox="0 0 24 24" xmlns="http://www.w3.org/2000/svg">
  <path d="M17.908 10.77v3.152h-.981v-3.646l.981.494z" fill="#F37368"></path>
  <path
    d="M4.02 13.337l.736.663 3.1-1.671-.32-.797-3.516 1.805zm12.907-2.031l2.494-1.34-.423-.754-2.071 1.064v1.03z"
    fill="#F7A199"
  ></path>
  <path
    d="M9.908 10.523v3.4h-.94V9.077l.94 1.445zM4.02 13.337l.736.663 1.418-3.667-.457-1.255-1.697 4.26z"
    fill="#F37368"
  ></path>
  <path
    d="M5.717 9.078h.968l1.792 4.844h-.995L5.717 9.078zm4.334 0l2.065 3.307v1.537L8.968 9.078h1.083zm3.837 0h.974v4.844h-.974V9.078zm3.039.888h-1.5v-.888h3.496l.498.888H16.927z"
    fill="#F04939"
  ></path>
  <path d="M22.303 12.082v1.84h-.967v-1.84" fill="#F7A199"></path>
  <path
    d="M22.971 9.078l-1.635 3.004h.967L24 9.078h-1.029z"
    fill="#F04939"
  ></path>
  <path
    d="M21.336 12.082l-1.69-3.004h1.063l1.138 2.059-.511.945z"
    fill="#F37368"
  ></path>
  <path
    d="M.388 9.642c0 .67.402 1.072 1.207 1.283l.851.205c.764.183 1.227.634 1.227 1.368.007.317-.095.628-.28.881 0-.733-.367-1.128-1.246-1.368l-.839-.197c-.674-.155-1.192-.53-1.192-1.326 0-.303.095-.607.272-.846z"
    fill="#F04939"
  ></path>
  <path d="M12.116 12.138v-3.06h.94v4.844h-.94v-1.784z" fill="#F37368"></path>
  <path
    d="M2.869 12.315c.361.24.525.578.525 1.064-.307.402-.832.621-1.452.621C.9 14 .157 13.464 0 12.54h1.002c.13.423.47.62.933.62.552.008.927-.303.934-.845zm-2.48-2.68C.68 9.24 1.185 9 1.798 9c1.07 0 1.683.585 1.84 1.403H2.67c-.109-.324-.375-.578-.858-.578-.525.007-.88.317-.9.811-.351-.2-.538-.592-.525-1.001z"
    fill="#F37368"
  ></path>
</svg>
