<svg viewBox="0 0 24 24" xmlns="http://www.w3.org/2000/svg">
  <path
    d="M20.666 13.348a4.967 4.967 0 00-2.174.504c-.224-.443-.448-.838-.487-1.127-.044-.338-.096-.544-.044-.947.053-.403.29-.978.285-1.021-.004-.044-.052-.25-.535-.255-.482-.004-.898.092-.947.22a5.29 5.29 0 00-.201.714c-.083.438-.965 2.004-1.469 2.823-.162-.32-.302-.6-.333-.824-.044-.337-.096-.543-.044-.947.053-.403.29-.977.285-1.021-.004-.044-.053-.25-.535-.255-.482-.004-.898.093-.947.22-.048.127-.1.425-.201.714-.101.29-1.272 2.902-1.578 3.578-.158.346-.294.622-.39.81 0 0-.005.014-.018.036a9.11 9.11 0 01-.132.25v.004c-.065.118-.135.228-.17.228-.027 0-.075-.316.008-.745.176-.908.592-2.32.588-2.368 0-.026.079-.271-.272-.399-.342-.127-.465.084-.495.084-.031 0-.053.074-.053.074s.381-1.587-.728-1.587c-.692 0-1.648.759-2.121 1.442l-1.614.882c-.258.144-.526.29-.776.425-.017-.018-.035-.04-.052-.057-1.342-1.434-3.823-2.446-3.718-4.37.04-.702.281-2.544 4.766-4.78 3.69-1.819 6.628-1.315 7.136-.197.728 1.596-1.574 4.56-5.387 4.99-1.456.162-2.219-.4-2.411-.61-.202-.22-.233-.232-.307-.189-.123.066-.044.263 0 .377.114.299.583.825 1.376 1.083.702.228 2.407.355 4.472-.442 2.31-.895 4.116-3.38 3.585-5.463-.53-2.113-4.037-2.81-7.355-1.63-1.973.7-4.112 1.805-5.651 3.243C.194 8.525-.095 10.011.023 10.634c.425 2.21 3.472 3.647 4.69 4.713-.06.035-.118.065-.166.092-.61.302-2.933 1.517-3.511 2.801-.658 1.456.105 2.499.609 2.64 1.565.433 3.174-.347 4.037-1.636.864-1.289.759-2.964.36-3.73a.092.092 0 00-.018-.027c.158-.092.32-.189.478-.28.311-.185.618-.356.881-.496-.149.408-.258.894-.311 1.596-.066.824.272 1.894.715 2.315.197.184.43.188.578.188.518 0 .75-.43 1.008-.938.316-.623.601-1.346.601-1.346s-.355 1.955.61 1.955c.35 0 .705-.456.863-.688v.004s.009-.013.026-.044l.057-.092v-.008c.14-.246.456-.803.925-1.728.605-1.192 1.188-2.683 1.188-2.683s.053.364.232.97c.106.354.325.744.5 1.122-.14.197-.228.306-.228.306l.005.005c-.114.149-.237.311-.373.469-.478.57-1.048 1.223-1.127 1.412-.092.223-.07.385.106.517.127.096.355.11.587.096a2.7 2.7 0 00.881-.201c.233-.084.504-.21.759-.4.469-.346.754-.841.727-1.494-.013-.36-.131-.72-.276-1.057.044-.061.083-.123.127-.184a20.096 20.096 0 001.315-2.27s.053.363.233.968c.087.307.267.64.425.964-.697.566-1.127 1.224-1.28 1.653-.276.798-.061 1.158.346 1.24.184.04.447-.047.64-.13a2.93 2.93 0 00.811-.417c.47-.346.92-.829.895-1.482a2.802 2.802 0 00-.202-.877c.592-.245 1.354-.381 2.328-.267 2.086.245 2.498 1.547 2.42 2.095-.08.548-.518.846-.663.939-.144.092-.192.122-.18.188.018.097.088.092.211.075.171-.031 1.096-.443 1.136-1.451.065-1.29-1.162-2.697-3.332-2.683zM4.569 18.774c-.693.754-1.657 1.039-2.074.798-.447-.259-.271-1.372.58-2.17.516-.487 1.183-.938 1.625-1.215l.43-.258.048-.027.106-.065c.31 1.14.013 2.143-.715 2.937zm5.041-3.428c-.24.587-.745 2.09-1.052 2.008-.263-.07-.425-1.21-.052-2.337.188-.566.587-1.24.82-1.504.376-.42.793-.561.893-.39.128.223-.46 1.854-.609 2.223zm4.16 1.99c-.1.053-.197.088-.24.061-.031-.017.043-.087.043-.087s.522-.561.728-.816c.118-.149.258-.324.407-.522v.057c0 .671-.648 1.123-.938 1.307zm3.21-.732c-.075-.053-.062-.228.188-.776.096-.215.324-.574.714-.92.044.14.075.275.07.402-.004.847-.609 1.162-.973 1.294z"
    fill="#CD6799"
  ></path>
</svg>
