<svg viewBox="0 0 24 24" xmlns="http://www.w3.org/2000/svg">
  <path
    d="M15.564 1.478a2.138 2.138 0 10-4.066 1.321l5.528 17.008a2.138 2.138 0 002.6 1.326c1.135-.327 1.827-1.532 1.465-2.646l-5.527-17.01z"
    fill="#DFA22F"
  ></path>
  <path
    d="M6.998 4.261a2.138 2.138 0 00-4.066 1.321L8.46 22.591a2.138 2.138 0 002.6 1.325c1.135-.326 1.827-1.532 1.465-2.646L6.998 4.26z"
    fill="#3CB187"
  ></path>
  <path
    d="M22.522 15.564a2.138 2.138 0 10-1.321-4.066L4.193 17.026a2.138 2.138 0 00-1.326 2.6c.327 1.135 1.532 1.827 2.646 1.465l17.01-5.527"
    fill="#CE1E5B"
  ></path>
  <path
    d="M7.738 20.368l4.065-1.32-1.321-4.066-4.066 1.321 1.322 4.065"
    fill="#392538"
  ></path>
  <path
    d="M16.303 17.585l4.065-1.321-1.32-4.066-4.066 1.321 1.321 4.066z"
    fill="#BB242A"
  ></path>
  <path
    d="M19.739 6.998a2.138 2.138 0 10-1.321-4.066L1.409 8.46a2.137 2.137 0 00-1.325 2.6c.326 1.135 1.532 1.827 2.646 1.465l17.01-5.527"
    fill="#72C5CD"
  ></path>
  <path
    d="M4.954 11.802l4.065-1.32L7.7 6.416 3.632 7.737l1.322 4.065z"
    fill="#248C73"
  ></path>
  <path
    d="M13.52 9.02l4.065-1.322-1.321-4.066-4.066 1.321 1.321 4.066z"
    fill="#62803A"
  ></path>
</svg>
