<svg viewBox="0 0 24 24" xmlns="http://www.w3.org/2000/svg">
  <path
    d="M23.95 17.866L20.006 1.362A1.774 1.774 0 0017.866.05l-3.4.813c.867.137 2.584.512 4.474 1.504l-1.48 4.102s-1.232-1.376-4.535-1.543c-3.14-.16-4.887 3.238 1.238 5.24 4.689 1.534 6.188 4.49 6.11 7.223-.04 1.42-.537 2.577-1.113 3.448l3.478-.831a1.775 1.775 0 001.313-2.14zm-13.298-4.19c-3.189-1.204-5.867-3.355-6.045-6.155-.113-1.786.337-3.346 1.499-4.66L1.362 3.995A1.774 1.774 0 00.05 6.135l3.946 16.503a1.774 1.774 0 002.139 1.313l2.031-.486c-.788-.261-2.151-.759-3.458-1.455l1.894-4.296S8.83 19.7 12.03 19.7s4.622-3.756-1.378-6.022z"
    fill="#EF4D37"
  ></path>
  <path
    d="M18.94 2.366A14.833 14.833 0 0014.467.862l-8.361 2c-1.162 1.313-1.612 2.873-1.499 4.66.178 2.8 2.856 4.95 6.045 6.155 6 2.266 4.578 6.022 1.378 6.022S6.6 17.714 6.6 17.714L4.707 22.01c1.307.696 2.67 1.194 3.458 1.455l10.995-2.629c.576-.871 1.073-2.027 1.114-3.448.077-2.734-1.422-5.69-6.111-7.223-6.125-2.002-4.378-5.4-1.238-5.24 3.303.167 4.535 1.543 4.535 1.543l1.48-4.102z"
    fill="#fff"
  ></path>
  <path
    d="M4.607 7.521c-.097-1.537.22-2.907 1.052-4.097L1.465 4.427c-.713.17-1.155.89-.985 1.604l2.268 9.483c.715-.883 2.43-2.7 4.91-3.38-1.725-1.198-2.933-2.764-3.05-4.613zm14.966-6.056A1.333 1.333 0 0017.97.48l-2.467.59c.916.222 2.136.613 3.438 1.296l-1.48 4.102s-1.232-1.376-4.535-1.543c-3.14-.16-4.887 3.238 1.238 5.24 1.604.525 2.835 1.216 3.757 2.008l.107-.036c1.193-.436 2.337-1.996 3.176-3.856l-1.63-6.816z"
    fill="url(#paint0_radial)"
  ></path>
  <defs>
    <radialGradient
      id="paint0_radial"
      cx="0"
      cy="0"
      r="1"
      gradientUnits="userSpaceOnUse"
      gradientTransform="matrix(13.6353 0 0 9.89852 10.674 6.965)"
    >
      <stop stop-color="#F8953E"></stop>
      <stop offset="1" stop-color="#F36E3E"></stop>
    </radialGradient>
  </defs>
</svg>
