<svg viewBox="0 0 24 24" xmlns="http://www.w3.org/2000/svg">
  <path
    d="M8.96.379c3.106-.797 6.538-.333 9.277 1.36 3.449 2.064 5.7 5.97 5.758 9.99.126 4.06-1.988 8.087-5.386 10.295-3.781 2.546-9.012 2.644-12.874.223C1.8 19.896-.498 15.153.092 10.6.567 5.787 4.28 1.543 8.96.38z"
    fill="#010101"
  ></path>
  <path
    d="M8.485 2.346c5.867-2.351 13.063 1.99 13.67 8.287.946 5.667-3.752 11.425-9.487 11.591-5.455.545-10.726-4.083-10.88-9.566-.407-4.44 2.515-8.844 6.697-10.312z"
    fill="#fff"
  ></path>
  <path
    d="M9.075 11.39c2.63-2.15 5.203-4.375 7.89-6.463-1.41 2.168-2.86 4.307-4.269 6.475-1.208.006-2.417.006-3.62-.011z"
    fill="#010101"
  ></path>
  <path
    d="M11.299 12.59c1.214 0 2.423 0 3.632.016-2.647 2.14-5.208 4.382-7.9 6.464 1.409-2.168 2.858-4.313 4.268-6.48z"
    fill="#010101"
  ></path>
</svg>
