<svg viewBox="0 0 24 24" xmlns="http://www.w3.org/2000/svg">
  <path
    d="M10.346 13.362l-.14-4.923a.277.277 0 00-.282-.27.27.27 0 00-.28.27l-.132 4.923.131 2.367c0 .153.131.27.281.27a.27.27 0 00.281-.27l.141-2.367z"
    fill="url(#paint0_linear)"
  ></path>
  <path
    d="M9.334 13.362l-.16-5.112a.257.257 0 00-.262-.252.257.257 0 00-.262.252l-.14 5.103.14 2.385c0 .144.122.252.262.252s.263-.108.263-.252l.159-2.376z"
    fill="url(#paint1_linear)"
  ></path>
  <path
    d="M7.15 8.286a.23.23 0 00-.225-.216.224.224 0 00-.224.216l-.16 5.067.16 2.421c0 .117.103.207.224.207.122 0 .216-.09.225-.216l.188-2.42-.188-5.059z"
    fill="url(#paint2_linear)"
  ></path>
  <path
    d="M8.162 8.115a.243.243 0 00-.243-.234.237.237 0 00-.244.234l-.15 5.238.15 2.403a.243.243 0 00.487 0l.17-2.403-.17-5.238z"
    fill="url(#paint3_linear)"
  ></path>
  <path
    d="M3.055 15.927c.075 0 .131-.054.14-.135l.244-2.439-.243-2.52c-.01-.072-.066-.135-.14-.135-.076 0-.132.054-.142.135l-.215 2.52.215 2.44c0 .08.066.134.141.134z"
    fill="url(#paint4_linear)"
  ></path>
  <path
    d="M11.367 13.362l-.13-5.85a.293.293 0 00-.141-.243.338.338 0 00-.169-.054.394.394 0 00-.169.045.293.293 0 00-.14.243v.054l-.113 5.796.113 2.35v.008a.24.24 0 00.075.171c.056.063.14.108.234.108a.35.35 0 00.216-.08.287.287 0 00.093-.208l.01-.234.121-2.106z"
    fill="url(#paint5_linear)"
  ></path>
  <path
    d="M4.17 11.013c-.01-.09-.075-.153-.159-.153a.155.155 0 00-.16.153l-.196 2.34.197 2.457c.009.09.075.153.159.153s.16-.063.16-.153l.224-2.457-.225-2.34z"
    fill="url(#paint6_linear)"
  ></path>
  <path
    d="M4.976 9.375a.175.175 0 00-.178.171l-.187 3.807.187 2.457c.01.1.084.171.178.171a.175.175 0 00.178-.17l.216-2.458-.216-3.807c0-.09-.084-.17-.178-.17z"
    fill="url(#paint7_linear)"
  ></path>
  <path
    d="M6.138 15.81l.197-2.448-.197-4.68a.203.203 0 00-.206-.189.203.203 0 00-.206.19l-.178 4.68.178 2.447c0 .108.094.19.206.19.113.008.197-.082.206-.19z"
    fill="url(#paint8_linear)"
  ></path>
  <path
    d="M12.108 6.711a.334.334 0 00-.375.027.299.299 0 00-.122.243v.036l-.131 6.354.066 1.17.065 1.143c0 .171.15.306.328.306a.332.332 0 00.328-.315l.14-2.313-.14-6.381a.333.333 0 00-.16-.27z"
    fill="url(#paint9_linear)"
  ></path>
  <path
    d="M.272 14.703c.047 0 .084-.036.093-.09l.207-1.26-.207-1.278c-.009-.054-.046-.09-.093-.09s-.094.036-.094.09L0 13.353l.178 1.26c0 .054.047.09.094.09z"
    fill="url(#paint10_linear)"
  ></path>
  <path
    d="M1.162 15.468a.108.108 0 00.103-.09l.272-2.025-.272-2.07c-.01-.054-.047-.09-.103-.09a.108.108 0 00-.103.09l-.234 2.07.234 2.025c.01.054.047.09.103.09z"
    fill="url(#paint11_linear)"
  ></path>
  <path
    d="M2.1 15.837c.065 0 .112-.045.121-.117l.253-2.367-.253-2.457c-.01-.063-.056-.117-.122-.117-.065 0-.112.045-.122.117l-.225 2.457.225 2.367c.01.063.057.117.122.117z"
    fill="url(#paint12_linear)"
  ></path>
  <path
    d="M21.039 10.338a3.22 3.22 0 00-1.144.216C19.661 8.007 17.431 6 14.713 6c-.665 0-1.312.126-1.884.342-.225.081-.28.171-.28.333v8.991c0 .171.14.306.318.324h8.181c1.63 0 2.952-1.25 2.952-2.817-.01-1.566-1.33-2.835-2.961-2.835z"
    fill="url(#paint13_linear)"
  ></path>
  <defs>
    <linearGradient
      id="paint0_linear"
      x1="9.927"
      y1="6"
      x2="9.927"
      y2="16.006"
      gradientUnits="userSpaceOnUse"
    >
      <stop stop-color="#F6871F"></stop>
      <stop offset=".239" stop-color="#F57E20"></stop>
      <stop offset=".626" stop-color="#F36621"></stop>
      <stop offset="1" stop-color="#F04923"></stop>
    </linearGradient>
    <linearGradient
      id="paint1_linear"
      x1="8.923"
      y1="6"
      x2="8.923"
      y2="16.006"
      gradientUnits="userSpaceOnUse"
    >
      <stop stop-color="#F6871F"></stop>
      <stop offset=".239" stop-color="#F57E20"></stop>
      <stop offset=".626" stop-color="#F36621"></stop>
      <stop offset="1" stop-color="#F04923"></stop>
    </linearGradient>
    <linearGradient
      id="paint2_linear"
      x1="6.94"
      y1="6"
      x2="6.94"
      y2="16.006"
      gradientUnits="userSpaceOnUse"
    >
      <stop stop-color="#F6871F"></stop>
      <stop offset=".239" stop-color="#F57E20"></stop>
      <stop offset=".626" stop-color="#F36621"></stop>
      <stop offset="1" stop-color="#F04923"></stop>
    </linearGradient>
    <linearGradient
      id="paint3_linear"
      x1="7.928"
      y1="6"
      x2="7.928"
      y2="16.006"
      gradientUnits="userSpaceOnUse"
    >
      <stop stop-color="#F6871F"></stop>
      <stop offset=".239" stop-color="#F57E20"></stop>
      <stop offset=".626" stop-color="#F36621"></stop>
      <stop offset="1" stop-color="#F04923"></stop>
    </linearGradient>
    <linearGradient
      id="paint4_linear"
      x1="3.066"
      y1="6"
      x2="3.066"
      y2="16.006"
      gradientUnits="userSpaceOnUse"
    >
      <stop stop-color="#F6871F"></stop>
      <stop offset=".239" stop-color="#F57E20"></stop>
      <stop offset=".626" stop-color="#F36621"></stop>
      <stop offset="1" stop-color="#F04923"></stop>
    </linearGradient>
    <linearGradient
      id="paint5_linear"
      x1="10.938"
      y1="6"
      x2="10.938"
      y2="16.006"
      gradientUnits="userSpaceOnUse"
    >
      <stop stop-color="#F6871F"></stop>
      <stop offset=".239" stop-color="#F57E20"></stop>
      <stop offset=".626" stop-color="#F36621"></stop>
      <stop offset="1" stop-color="#F04923"></stop>
    </linearGradient>
    <linearGradient
      id="paint6_linear"
      x1="4.022"
      y1="6"
      x2="4.022"
      y2="16.006"
      gradientUnits="userSpaceOnUse"
    >
      <stop stop-color="#F6871F"></stop>
      <stop offset=".239" stop-color="#F57E20"></stop>
      <stop offset=".626" stop-color="#F36621"></stop>
      <stop offset="1" stop-color="#F04923"></stop>
    </linearGradient>
    <linearGradient
      id="paint7_linear"
      x1="4.987"
      y1="6"
      x2="4.987"
      y2="16.006"
      gradientUnits="userSpaceOnUse"
    >
      <stop stop-color="#F6871F"></stop>
      <stop offset=".239" stop-color="#F57E20"></stop>
      <stop offset=".626" stop-color="#F36621"></stop>
      <stop offset="1" stop-color="#F04923"></stop>
    </linearGradient>
    <linearGradient
      id="paint8_linear"
      x1="5.945"
      y1="6"
      x2="5.945"
      y2="16.006"
      gradientUnits="userSpaceOnUse"
    >
      <stop stop-color="#F6871F"></stop>
      <stop offset=".239" stop-color="#F57E20"></stop>
      <stop offset=".626" stop-color="#F36621"></stop>
      <stop offset="1" stop-color="#F04923"></stop>
    </linearGradient>
    <linearGradient
      id="paint9_linear"
      x1="11.944"
      y1="6"
      x2="11.944"
      y2="16.006"
      gradientUnits="userSpaceOnUse"
    >
      <stop stop-color="#F6871F"></stop>
      <stop offset=".239" stop-color="#F57E20"></stop>
      <stop offset=".626" stop-color="#F36621"></stop>
      <stop offset="1" stop-color="#F04923"></stop>
    </linearGradient>
    <linearGradient
      id="paint10_linear"
      x1=".288"
      y1="6"
      x2=".288"
      y2="16.006"
      gradientUnits="userSpaceOnUse"
    >
      <stop stop-color="#F6871F"></stop>
      <stop offset=".239" stop-color="#F57E20"></stop>
      <stop offset=".626" stop-color="#F36621"></stop>
      <stop offset="1" stop-color="#F04923"></stop>
    </linearGradient>
    <linearGradient
      id="paint11_linear"
      x1="1.175"
      y1="6"
      x2="1.175"
      y2="16.006"
      gradientUnits="userSpaceOnUse"
    >
      <stop stop-color="#F6871F"></stop>
      <stop offset=".239" stop-color="#F57E20"></stop>
      <stop offset=".626" stop-color="#F36621"></stop>
      <stop offset="1" stop-color="#F04923"></stop>
    </linearGradient>
    <linearGradient
      id="paint12_linear"
      x1="2.116"
      y1="6"
      x2="2.116"
      y2="16.006"
      gradientUnits="userSpaceOnUse"
    >
      <stop stop-color="#F6871F"></stop>
      <stop offset=".239" stop-color="#F57E20"></stop>
      <stop offset=".626" stop-color="#F36621"></stop>
      <stop offset="1" stop-color="#F04923"></stop>
    </linearGradient>
    <linearGradient
      id="paint13_linear"
      x1="18.266"
      y1="6"
      x2="18.266"
      y2="15.992"
      gradientUnits="userSpaceOnUse"
    >
      <stop stop-color="#F6871F"></stop>
      <stop offset=".24" stop-color="#F57E20"></stop>
      <stop offset=".631" stop-color="#F36621"></stop>
      <stop offset="1" stop-color="#F04923"></stop>
    </linearGradient>
  </defs>
</svg>
