<svg viewBox="0 0 24 24" xmlns="http://www.w3.org/2000/svg">
  <path
    d="M12 0C5.372 0 0 5.372 0 12s5.372 12 12 12 12-5.372 12-12c0-6.627-5.372-12-12-12z"
    fill="#2EBD59"
  ></path>
  <path
    d="M17.503 17.307a.748.748 0 01-1.028.249c-2.818-1.722-6.365-2.111-10.542-1.157A.747.747 0 115.6 14.94c4.57-1.044 8.492-.594 11.655 1.338a.748.748 0 01.248 1.029z"
    fill="#000"
  ></path>
  <path
    d="M18.971 14.04a.936.936 0 01-1.287.308c-3.224-1.982-8.142-2.556-11.957-1.398a.937.937 0 01-1.168-.623.937.937 0 01.624-1.167c4.358-1.323 9.776-.682 13.48 1.594.44.271.58.847.308 1.287z"
    fill="#000"
  ></path>
  <path
    d="M19.098 10.637C15.23 8.341 8.849 8.13 5.156 9.25a1.121 1.121 0 11-.65-2.148C8.743 5.815 15.79 6.064 20.242 8.707a1.123 1.123 0 01-1.145 1.93z"
    fill="#000"
  ></path>
</svg>
