<svg viewBox="0 0 24 24" xmlns="http://www.w3.org/2000/svg">
  <path
    d="M19.99 0A4.01 4.01 0 0124 4.01v15.98A4.01 4.01 0 0119.99 24H4.01A4.01 4.01 0 010 19.99V4.01A4.01 4.01 0 014.01 0h15.98zm-.353 18.372V5.632c0-.7-.567-1.267-1.266-1.267H5.631c-.699 0-1.266.567-1.266 1.266v12.741c0 .7.567 1.265 1.266 1.265h12.74c.7 0 1.266-.566 1.266-1.265zM9.453 15.273a.728.728 0 01-.726-.73V9.457c0-.403.325-.73.726-.73h5.094c.402 0 .726.327.726.73v5.086c0 .403-.324.73-.726.73H9.453z"
    fill="#2E3B4E"
  ></path>
</svg>
