<svg viewBox="0 0 24 24" xmlns="http://www.w3.org/2000/svg">
  <path
    d="M15.275 5.795a1.161 1.161 0 00-1.638 0L6.27 13.13c-.905.9-2.37.9-3.275 0a2.297 2.297 0 010-3.26l7.227-7.194c-.904-.9-2.37-.9-3.275 0L1.356 8.24a4.596 4.596 0 000 6.52 4.646 4.646 0 006.55 0l7.369-7.335a1.15 1.15 0 000-1.63zm2.456-2.444a4.646 4.646 0 00-6.55 0l-7.368 7.334a1.15 1.15 0 000 1.63c.452.45 1.185.45 1.637 0l7.369-7.334c.904-.9 2.37-.9 3.274 0 .453.45 1.186.45 1.638 0a1.15 1.15 0 000-1.63zm2.456 7.334a1.163 1.163 0 00-1.637 0l-7.37 7.335c-.904.9-2.37.9-3.275 0a1.161 1.161 0 00-1.637 0 1.147 1.147 0 000 1.63 4.646 4.646 0 006.55 0l7.368-7.335a1.15 1.15 0 000-1.63zm2.457-2.445a4.647 4.647 0 00-6.55 0l-7.369 7.335a1.149 1.149 0 000 1.63c.452.45 1.186.45 1.638 0L17.73 9.87c.904-.9 2.37-.9 3.275 0 .904.9.904 2.36 0 3.26l-7.227 7.194c.904.9 2.37.9 3.275 0l5.59-5.564a4.596 4.596 0 000-6.52z"
    fill="#1A1918"
  ></path>
</svg>
