<svg viewBox="0 0 24 24" xmlns="http://www.w3.org/2000/svg">
  <path
    d="M3.01 13.989l1.823.017-.063 8.041h12.135v-8.011h1.922V24H3l.01-10.011z"
    fill="#919191"
  ></path>
  <path d="M5.983 18.742h9.506v2.003H5.983v-2.003z" fill="#919191"></path>
  <path
    d="M6.205 15.138l9.514.91-.2 2.043-9.513-.91.2-2.043z"
    fill="#A78B68"
  ></path>
  <path
    d="M7.074 11.063l9.197 2.57-.563 1.977-9.197-2.57.563-1.976z"
    fill="#C19653"
  ></path>
  <path
    d="M9.305 6.455l8.18 4.893-1.072 1.757-8.18-4.893 1.072-1.757z"
    fill="#D48C28"
  ></path>
  <path
    d="M13.957 2.091l5.567 7.694-1.685 1.196-5.567-7.694 1.685-1.196z"
    fill="#FE8908"
  ></path>
  <path
    d="M20.423 0l1.575 9.334-2.045.338L18.378.338 20.423 0z"
    fill="#FF7A15"
  ></path>
</svg>
