<svg viewBox="0 0 24 24" xmlns="http://www.w3.org/2000/svg">
  <path
    d="M20.725 3.175c-2.232-3.19-6.64-4.135-9.827-2.107L5.301 4.63a6.412 6.412 0 00-2.902 4.295 6.744 6.744 0 00.667 4.335 6.424 6.424 0 00-.96 2.397 6.825 6.825 0 001.169 5.168c2.232 3.19 6.64 4.134 9.827 2.107l5.597-3.562a6.41 6.41 0 002.901-4.295 6.746 6.746 0 00-.666-4.336c.479-.725.806-1.54.96-2.396a6.823 6.823 0 00-1.169-5.168"
    fill="#FF3E00"
  ></path>
  <path
    d="M10.35 21.128a4.45 4.45 0 01-4.773-1.767 4.105 4.105 0 01-.703-3.108c.032-.177.077-.352.133-.523l.106-.32.287.21a7.225 7.225 0 002.19 1.092l.208.064-.019.207c-.025.295.055.59.226.831.32.461.893.674 1.437.533a1.26 1.26 0 00.344-.151l5.6-3.563c.276-.174.467-.456.525-.778a1.24 1.24 0 00-.212-.937 1.341 1.341 0 00-1.438-.533 1.233 1.233 0 00-.343.15l-2.137 1.36a4.087 4.087 0 01-1.137.5 4.451 4.451 0 01-4.773-1.768 4.105 4.105 0 01-.704-3.108 3.856 3.856 0 011.746-2.583l5.599-3.563a4.08 4.08 0 011.137-.5 4.45 4.45 0 014.774 1.767c.644.9.897 2.02.703 3.109a3.93 3.93 0 01-.134.522l-.105.32-.287-.21a7.22 7.22 0 00-2.19-1.092l-.208-.063.019-.208a1.255 1.255 0 00-.226-.831 1.34 1.34 0 00-1.437-.533 1.233 1.233 0 00-.344.151l-5.6 3.563a1.162 1.162 0 00-.525.778 1.24 1.24 0 00.212.937c.32.461.894.674 1.437.533.122-.032.238-.083.344-.15l2.137-1.36a4.078 4.078 0 011.136-.499 4.45 4.45 0 014.774 1.767c.644.9.897 2.02.703 3.108a3.858 3.858 0 01-1.745 2.584l-5.599 3.563a4.081 4.081 0 01-1.137.499"
    fill="#fff"
  ></path>
</svg>
