<svg viewBox="0 0 24 24" xmlns="http://www.w3.org/2000/svg">
  <path
    d="M5.332 0h13.289a5.6 5.6 0 011.884.319c.88.318 1.677.881 2.277 1.612A5.257 5.257 0 0123.934 4.5c.057.347.066.694.066 1.04v12.966c0 .413-.019.835-.103 1.238a5.308 5.308 0 01-1.265 2.503 5.305 5.305 0 01-2.343 1.51A5.63 5.63 0 0118.61 24c-.253 0-13.316 0-13.513-.01a5.346 5.346 0 01-2.699-.89A5.417 5.417 0 01.572 21a5.292 5.292 0 01-.535-2.334V5.334a4.978 4.978 0 01.497-2.296A5.323 5.323 0 012.343.928a5.248 5.248 0 012.69-.91C5.125 0 5.228 0 5.332 0z"
    fill="url(#paint0_linear)"
  ></path>
  <path
    d="M20.242 19.631a3.664 3.664 0 00-.281-.384 3.982 3.982 0 00-.806-.731 2.466 2.466 0 00-1.265-.432 2.289 2.289 0 00-.937.15c-.3.103-.59.253-.872.403-.328.17-.656.338-1.002.479-.413.168-.844.3-1.284.393a8.342 8.342 0 01-1.668.132 11.265 11.265 0 01-2.962-.45 11.2 11.2 0 01-2.408-1.041 12.418 12.418 0 01-1.865-1.322 13.625 13.625 0 01-1.33-1.322 14.48 14.48 0 01-.807-1.031 4.372 4.372 0 01-.281-.44L0 11.362V5.316A5.308 5.308 0 015.304 0h4.733l3.505 3.563c7.909 5.38 5.35 11.315 5.35 11.315s2.25 2.531 1.35 4.753z"
    fill="url(#paint1_linear)"
  ></path>
  <path
    d="M13.56 3.563c7.91 5.38 5.351 11.315 5.351 11.315s2.25 2.54 1.34 4.763c0 0-.927-1.557-2.483-1.557-1.5 0-2.38 1.557-5.398 1.557-6.72 0-9.896-5.616-9.896-5.616 6.054 3.984 10.187 1.162 10.187 1.162-2.727-1.584-8.528-9.159-8.528-9.159 5.05 4.303 7.234 5.438 7.234 5.438-1.302-1.079-4.957-6.347-4.957-6.347 2.924 2.962 8.734 7.097 8.734 7.097 1.65-4.575-1.584-8.653-1.584-8.653z"
    fill="#fff"
  ></path>
  <defs>
    <linearGradient
      id="paint0_linear"
      x1="14.272"
      y1="-.856"
      x2="9.736"
      y2="24.859"
      gradientUnits="userSpaceOnUse"
    >
      <stop stop-color="#FAAE42"></stop>
      <stop offset="1" stop-color="#EF3E31"></stop>
    </linearGradient>
    <linearGradient
      id="paint1_linear"
      x1="12.24"
      y1=".388"
      x2="8.92"
      y2="19.208"
      gradientUnits="userSpaceOnUse"
    >
      <stop stop-color="#E39F3A"></stop>
      <stop offset="1" stop-color="#D33929"></stop>
    </linearGradient>
  </defs>
</svg>
