<svg viewBox="0 0 24 24" xmlns="http://www.w3.org/2000/svg">
  <path
    d="M12 5C8.8 5 6.8 6.556 6 9.667c1.2-1.556 2.6-2.14 4.2-1.75.913.222 1.565.865 2.288 1.578C13.664 10.656 15.026 12 18 12c3.2 0 5.2-1.556 6-4.667-1.2 1.556-2.6 2.14-4.2 1.75-.913-.222-1.565-.865-2.288-1.578C16.336 6.344 14.974 5 12 5zm-6 7c-3.2 0-5.2 1.556-6 4.667 1.2-1.556 2.6-2.14 4.2-1.75.913.222 1.565.865 2.288 1.578C7.664 17.656 9.026 19 12 19c3.2 0 5.2-1.556 6-4.667-1.2 1.556-2.6 2.14-4.2 1.75-.913-.221-1.565-.865-2.288-1.578C10.336 13.344 8.974 12 6 12z"
    fill="url(#paint0_linear)"
  ></path>
  <defs>
    <linearGradient
      id="paint0_linear"
      x1="-.667"
      y1="9.48"
      x2="19.766"
      y2="21.598"
      gradientUnits="userSpaceOnUse"
    >
      <stop stop-color="#2298BD"></stop>
      <stop offset="1" stop-color="#0ED7B5"></stop>
    </linearGradient>
  </defs>
</svg>
