<svg viewBox="0 0 24 24" xmlns="http://www.w3.org/2000/svg">
  <path
    d="M13.571 3.692v3.693l6.286 3.692V7.385L13.57 3.692zM1 7.385v3.692l3.143 1.846V9.23L1 7.385zm9.428 1.846l-3.143 1.846v11.077L10.428 24v-7.385l3.143 1.847v-3.693l-3.143-1.846V9.23z"
    fill="#E55B2D"
  ></path>
  <path
    d="M13.571 3.692L4.143 9.231v3.692l6.285-3.692v3.692l3.143-1.846V3.692zM23 5.538l-3.143 1.847v3.692L23 9.231V5.538zm-6.286 7.385l-3.143 1.846v3.693l3.143-1.847v-3.692zm-3.143 5.539l-3.143-1.847V24l3.143-1.846v-3.692z"
    fill="#ED8E24"
  ></path>
  <path
    d="M13.571 0L1 7.385 4.143 9.23l9.428-5.539 6.286 3.693L23 5.538 13.57 0zm0 11.077l-3.143 1.846 3.143 1.846 3.143-1.846-3.143-1.846z"
    fill="#F8BF3C"
  ></path>
</svg>
