<svg viewBox="0 0 24 24" xmlns="http://www.w3.org/2000/svg">
  <path
    d="M12.63 0c.21.162.391.36.591.535 1.81 1.723 3.468 3.627 4.803 5.752 1.291 2.056 2.284 4.33 2.724 6.731.244 1.316.324 2.666.182 3.997-.065.557-.16 1.114-.336 1.646-.247.771-.57 1.52-1.014 2.199a6.21 6.21 0 01-1.412 1.53c-.607.464-1.3.803-2.021 1.036-.897.29-1.837.433-2.774.51-1.12.084-2.244.1-3.36-.043-1.264-.159-2.518-.498-3.643-1.11-1.042-.567-1.957-1.397-2.546-2.443-.681-1.194-.906-2.61-.798-3.975.11-1.446.567-2.85 1.17-4.159A21.078 21.078 0 016.075 9 23.89 23.89 0 018.05 6.545c.012-.01.037-.031.052-.04a6.4 6.4 0 00.234 1.928c.188.638.506 1.238.928 1.751.025.031.043.075.09.081.915-.694 1.78-1.471 2.456-2.408.7-.967 1.168-2.1 1.347-3.284.237-1.534.034-3.13-.527-4.573z"
    fill="#DF4723"
  ></path>
</svg>
