<svg viewBox="0 0 24 24" xmlns="http://www.w3.org/2000/svg">
  <path
    d="M23.941 8.43a3.375 3.375 0 00-.043-.263 2.777 2.777 0 00-.062-.269l-.067-.107a4.616 4.616 0 00-.874-.528 9.307 9.307 0 00-.757-.317c-.714-1.995-1.94-3.765-3.551-4.997C16.92.675 14.96 0 12.92 0c-2.041 0-4 .675-5.667 1.949C5.642 3.18 4.416 4.95 3.704 6.947a9.381 9.381 0 00-.758.316c-.302.146-.599.31-.874.528l-.067.107a3.773 3.773 0 00-.105.532 5.94 5.94 0 00-.05.526 6.752 6.752 0 00.225 2.098c.048.17.103.34.168.507.032.084.068.168.107.251l.062.124c.048.085.057.101.077.131l.09.084.161.08.156.07.085.036a12.997 12.997 0 00-2.14 2.575L0 16.247l1.18-1.044c.02-.018 1.009-.88 2.658-1.859l.024.191c-.108.057-.627.331-.781.461-.256.214-.268.546-.2 1.166.035.317.153.934.313 1.499.274.972.475 1.144.652 1.184.08.02.182.029.298.029.316 0 .72-.063.985-.143.31.971.748 1.848 1.283 2.617l-.077.023c-.322-.15-1.447-.675-1.825-.847l-.79-.358.467.735c.034.053.84 1.322 1.5 2.176.616.797 1.46 1.613 3.05 1.613.192 0 .393-.012.6-.035.474-.055.83-.098 1.102-.133a7.413 7.413 0 005.262-.011 7.67 7.67 0 001.314-.655c.675-.163 1.412-.34 1.776-.443.059-.016.132-.034.208-.052.507-.117 1.356-.316 1.808-1.228.456-.92 1.199-2.33 1.207-2.345l.347-.658-.677.297c-.036.017-.894.393-1.34.629.31-.719.492-1.314.556-1.542.25.06.62.052.892.052.133 0 .271-.023.36-.046.177-.045.314-.164.57-1.167.15-.583.258-1.218.287-1.545.057-.635.038-.976-.219-1.19-.128-.107-.504-.312-.695-.412.107-.046.16-.033.163-.032l.174-.663c.061-.027.126-.053.2-.082.104-.041.209-.083.314-.129l.155-.07c.054-.026.102-.049.161-.08l.09-.084a2.691 2.691 0 00.139-.255c.04-.083.075-.167.107-.25.066-.168.12-.337.169-.508a6.726 6.726 0 00.174-2.624z"
    fill="#0E0F0D"
  ></path>
  <path
    d="M14.015 22.1c-.128.019-.256.034-.382.045-.082.004-.169.012-.247.012h-.03c.099-.221.174-.394.23-.524.116.13.263.292.429.466z"
    fill="#E1C5A2"
  ></path>
  <path
    d="M13.86 12.182c-.2.164-.41.316-.63.45l-.732.445c-.459.056-.857.17-.88.178a.17.17 0 00-.113.113l-.745 2.474-3.982.893-1.255-.885-.365-2.98a40.619 40.619 0 012.81-.414 6.848 6.848 0 00-.355.466l-.681.986.992-.667c.015-.01.646-.43 1.68-.94a45.043 45.043 0 014.256-.119zM7.66 15.54c.283-.155.603-.132 1.103-.13.054 0 .109 0 .166-.002.05 0 .1 0 .152-.002.515-.006.944.043.936-.772-.008-.816-.367-1.476-.883-1.47-.515.004-1.014.673-.983 1.488.008.212.04.366.089.476-.45.114-.573.394-.58.412z"
    fill="#A89983"
  ></path>
  <path
    d="M20.762 12.86l-.359 2.534-1.264.893-3.978-.456-.742-2.464a.168.168 0 00-.113-.113 6.013 6.013 0 00-1.04-.194l.097-.007c.082-.006 1.453-.175 3.091-.744 1.814.14 3.296.364 4.308.55zm-2.541 2.345c-.005-.02-.114-.347-.593-.29.055-.121.08-.285.062-.51-.063-.814-.533-1.46-1.048-1.442-.516.017-.845.693-.817 1.51.029.814.46.809.976.79.692-.013 1.072-.227 1.42-.058z"
    fill="#A89983"
  ></path>
  <path
    d="M16.86 13.74a.265.265 0 01-.258.27.264.264 0 01-.268-.261.263.263 0 11.526-.01z"
    fill="#fff"
  ></path>
  <path
    d="M9.478 13.934a.264.264 0 11-.527.014.264.264 0 01.257-.272.265.265 0 01.27.258z"
    fill="#fff"
  ></path>
  <path
    d="M22.498 13.974a4.479 4.479 0 00-.472-.281l-.334 2.355a.173.173 0 01-.07.114l-.477.336-.028.149c.468.116.924-.224 1.18-.47a9.957 9.957 0 00.256-1.41c.054-.61.006-.742-.055-.793z"
    fill="#E1C5A2"
  ></path>
  <path
    d="M15.132 22.923a2.276 2.276 0 01-.84-.538l-.06-.063c-.192.04-.387.068-.586.085-.083.004-.163.011-.25.011l-.13.002-.05-.002c-.296.443-.793.687-1.183.816 1.158.2 2.431-.106 3.1-.311z"
    fill="#E1C5A2"
  ></path>
  <path
    d="M4.944 17.154l-.031-.106-.62-.437a.17.17 0 01-.07-.118l-.302-2.473c-.223.12-.482.269-.55.327-.06.05-.106.176-.041.766.049.443.203 1.123.36 1.633.314.242.776.497 1.254.408z"
    fill="#E1C5A2"
  ></path>
  <path
    d="M14.206 17.041a.167.167 0 01-.14-.118l-.765-2.54a2.662 2.662 0 00-.338-.027c-.097 0-.21.01-.338.027l-.743 2.467a.168.168 0 01-.124.114l-.355.08c-.03.127-.133.312-.462.414-.532.164-3.898 1.175-4.282 1.12-.224-.031-.65-.268-.966-.46a7.985 7.985 0 01-.212-.552v-.001c.044.133.483 1.407 1.375 2.654.957-.284 1.784-.55 2.048-.633.538-.837 1.305-1.667 1.85-1.696a5.83 5.83 0 011.046.04c-.201-.184-.243-.399-.272-.494 0 0 .696.548 1.58.433.886-.114 1.436-.629 1.436-.629l.018-.158-.356-.04z"
    fill="#E1C5A2"
  ></path>
  <path
    d="M14.925 17.363a.743.743 0 01-.372-.204l-.01.081s-.002.375-.387.666c.742-.227 1.048-.304 1.258-.304.232 0 .346.098.446.183.02.016.038.033.061.05.57.453 1.257 1.003 1.457 1.165.232.027.97.112 1.433.154.268.025.51.046.747.046.075 0 .147-.003.215-.008.245-.472.47-.994.67-1.57-.274.194-.899.618-1.192.673-.38.072-3.789-.792-4.326-.932z"
    fill="#E1C5A2"
  ></path>
  <path
    d="M23.5 8.48a5.541 5.541 0 00-.051-.416 4.876 4.876 0 00-.715-.492 9.24 9.24 0 00-.859-.443c-.292-.14-.593-.265-.895-.388-.15-.062-.303-.122-.456-.179-.152-.06-.306-.116-.46-.172.323.054.644.128.962.21.207.054.412.114.617.18C20.189 2.95 16.714.454 12.92.454 9.125.455 5.65 2.95 4.198 6.78c.204-.065.41-.125.616-.178.318-.083.639-.157.962-.211-.155.056-.308.112-.461.172-.152.057-.304.117-.455.179-.302.123-.603.248-.896.388a9.4 9.4 0 00-.858.443c-.255.147-.5.31-.715.492a5.199 5.199 0 00-.05.416 7.218 7.218 0 00.23 2.435c.042.156.092.31.148.46a3.97 3.97 0 00.142.324l.02.04.073.036.145.07.284.132.015-.014-.269-1.03a22.77 22.77 0 011.444-.317 4.31 4.31 0 01-.8-.235 2.694 2.694 0 01-.277-.135.953.953 0 01-.244-.187c.964.317 2.956.174 4.727-.011a48.176 48.176 0 014.876-.281c1.632.004 3.257.112 4.875.28 1.772.186 3.765.33 4.729.012a.951.951 0 01-.244.187 2.77 2.77 0 01-.277.135 4.426 4.426 0 01-.588.19l-.09.02c.963.18 1.523.326 1.583.342l-.256.98c.052-.022.104-.045.154-.069l.145-.069.073-.036.02-.04a3.58 3.58 0 00.142-.324c.056-.15.105-.305.148-.46.088-.314.147-.637.191-.963a7.157 7.157 0 00.04-1.472z"
    fill="#E0D896"
  ></path>
  <path
    d="M16.913 6.575c.014.438.004 1.233-.199 1.977a.161.161 0 000 .085c-.258-.027-.516-.05-.773-.072.289-.611.352-1.262.366-1.492.222-.159.443-.35.606-.498z"
    fill="#D7C184"
  ></path>
  <path
    d="M9.535 7.073c.013.23.076.88.365 1.49-.257.021-.515.045-.773.073a.166.166 0 000-.084c-.202-.743-.213-1.538-.199-1.977.163.148.384.34.607.498z"
    fill="#D7C184"
  ></path>
  <path
    d="M20.08 9.244a.153.153 0 01-.006.022l.085.026c.238.079.477.16.705.267-.38-.25-.622-.968-.757-1.518.037.72-.024 1.176-.027 1.203z"
    fill="#D7C184"
  ></path>
  <path
    d="M8.611 6.436l-2.462.706a8.341 8.341 0 00-.078 1.959l.012-.008s.08-1.052.244-1.455c.084-.207.6-.34.992-.434.394-.094 1.022-.283 1.143.274.076.344.18.63.279.842a7.79 7.79 0 01-.13-1.884z"
    fill="#D7C184"
  ></path>
  <path
    d="M17.23 6.436c.02.384.029 1.177-.15 1.973.112-.216.237-.535.323-.931.122-.557.75-.368 1.143-.274.394.095.909.227.993.434.139.342.217 1.147.238 1.386.023-.308.049-1-.085-1.882l-2.462-.706z"
    fill="#D7C184"
  ></path>
  <path
    d="M9.515 6.651c.088.07.18.14.268.2.043.03.07.08.07.132 0 .009.02.826.378 1.523.005.01.009.021.012.032a39.521 39.521 0 012.678-.086c.892 0 1.786.027 2.677.088.003-.012.006-.023.013-.034.358-.697.377-1.514.377-1.523 0-.053.028-.102.07-.132.087-.058.174-.125.259-.193l.01-.032c.187-1.829-.155-3.514-.372-4.347-.011.57-.145 5.449-1.346 5.449H11.294c-1.275 0-1.378-5.502-1.378-5.502l-.066.196c-.217.877-.516 2.49-.335 4.23z"
    fill="#D7C184"
  ></path>
  <path
    d="M5.767 9.265l-.005-.02a6.897 6.897 0 01-.028-1.205c-.135.55-.377 1.27-.758 1.52.228-.107.468-.19.707-.269l.084-.026z"
    fill="#D7C184"
  ></path>
  <path
    d="M21.117 16.647c-.02.105-.037.19-.07.323.273.064.72.114.933.072.092-.1.21-.448.316-.865-.255.245-.71.586-1.179.47z"
    fill="#9F8F78"
  ></path>
  <path
    d="M11.32 23.393c.653.18 1.32.259 1.977.215a7.85 7.85 0 002.424-.56 2.235 2.235 0 01-.589-.125c-.668.205-1.941.512-3.099.311a3.229 3.229 0 01-.57.136 1.856 1.856 0 00-.143.023z"
    fill="#9F8F78"
  ></path>
  <path
    d="M4.987 17.302l-.043-.148c-.478.09-.94-.166-1.253-.407.101.327.204.584.28.663.237.041.76-.032 1.016-.108z"
    fill="#9F8F78"
  ></path>
  <path
    d="M5.693 18.118c.315.191.742.429.966.46.384.055 3.75-.956 4.282-1.12.33-.102.432-.287.462-.414l-4.856 1.09a.167.167 0 01-.133-.027l-.19-.132-.566-.4v-.002l-.23-.16.014.038a8.106 8.106 0 00.252.666z"
    fill="#9F8F78"
  ></path>
  <path
    d="M20.59 17.177c.032-.116.062-.233.09-.35l-.169.119-.454.32-.49.347a.173.173 0 01-.115.03l-4.89-.56-.009.076c.073.08.189.156.372.204.538.14 3.945 1.004 4.326.932.293-.055.918-.48 1.193-.674l.006-.02a19.26 19.26 0 00.14-.424z"
    fill="#9F8F78"
  ></path>
  <path
    d="M15.416 10.534c-.038.05-.08.106-.126.163-.232.296-.554.674-.935 1.044a43.388 43.388 0 00-3.593.033 17.618 17.618 0 013.493-1.07c.38-.072.767-.13 1.161-.17z"
    fill="#6E6A67"
  ></path>
  <path
    d="M9.579 10.985a8.874 8.874 0 00-1.148.964c-.999.101-1.87.223-2.588.34a19.528 19.528 0 013.736-1.304z"
    fill="#6E6A67"
  ></path>
  <path
    d="M21.778 13.063l-.406 2.864-1.946 1.374-5.074-.581-.764-2.536a.168.168 0 00-.132-.118 3.13 3.13 0 00-.493-.046c-.14 0-.305.016-.494.046a.17.17 0 00-.133.118l-.745 2.474-5.045 1.132-2-1.412-.395-3.215.262-.146c.124-.027.263-.055.417-.085l.372 3.034a.165.165 0 00.07.116l1.375.972a.169.169 0 00.132.026l4.149-.93a.167.167 0 00.123-.115l.747-2.48c.2-.052.714-.174 1.165-.174.45 0 .963.122 1.164.173l.747 2.48c.02.064.075.11.14.118l4.15.476c.04.004.08-.007.113-.03l1.377-.97a.172.172 0 00.069-.115l.367-2.592c.276.054.507.103.688.142z"
    fill="#6E6A67"
  ></path>
  <path
    d="M22.29 11.266l-.357 1.366a38.735 38.735 0 00-4.518-.695c.713-.307 1.44-.691 2.104-1.172a34.5 34.5 0 012.771.501z"
    fill="#6E6A67"
  ></path>
  <path
    d="M3.683 11.266l.1.379c.277-.224.532-.409.746-.556-.35.068-.635.13-.846.177z"
    fill="#6E6A67"
  ></path>
  <path
    d="M17.693 10.505c-.547-.032-1.094-.058-1.64-.08a8.446 8.446 0 01-.19.269c-.293.4-.87 1.128-1.611 1.754.557-.178 2.768-.926 3.888-1.916l-.447-.027z"
    fill="#93232C"
  ></path>
  <path
    d="M13.686 10.359h.002a96.257 96.257 0 00-.832-.008c-.408 0-.815.006-1.223.013l-.752.36a18.534 18.534 0 01-1.785 1.327c.508-.345 1.864-1.16 3.973-1.698.205.001.411.002.617.006z"
    fill="#93232C"
  ></path>
  <path
    d="M9.064 10.45a98.26 98.26 0 00-1.045.055c-.403.022-.806.05-1.207.08a21.885 21.885 0 00-.771.073c-.525.317-2.535 1.589-3.916 3.254l.073-.086c2.556-2.199 5.36-3.055 6.866-3.375z"
    fill="#93232C"
  ></path>
  <path
    d="M20.63 19.494l-.046.024c-.256.135-.592.202-1.026.202-.259 0-.512-.022-.793-.047-.561-.052-1.51-.165-1.52-.167l-.073-.007-.058-.047c-.008-.006-.84-.674-1.512-1.207l-.075-.062c-.07-.061-.07-.061-.113-.061-.216 0-.842.196-2.215.625l-.084.027-.084-.032c-.01-.002-.91-.339-1.99-.339-.088 0-.176.002-.261.007-.108.005-.715.296-1.492 1.533l-.05.08-.089.029c-.013.004-1.348.439-2.765.847l-.091.026-.088-.04c-.009-.004-.562-.263-1.09-.507l.118.055c.52.452 1.517 1.323 1.627 1.444.016.018.037.039.063.063l-.076-.09v-.001c.23.22.485.41.765.543.14.066.287.117.436.142.075.012.148.018.224.018.077 0 .155-.002.234-.006a30.128 30.128 0 001.878-.17c.313-.033.625-.072.935-.12a6.31 6.31 0 00.46-.083c.074-.018.15-.037.21-.064a.918.918 0 00.175-.127c.116-.1.229-.213.34-.325.112-.112.22-.227.33-.343.183-.194.34-.4.518-.599l.07-.077.002.003c.037.027.074.054.11.083.214.16.435.334.647.485.275.194.553.389.84.55a1.293 1.293 0 00.24.108.103.103 0 00.027.007l.05.004.12-.003c.162-.012.326-.035.49-.061.33-.052.659-.112.987-.178.328-.063.656-.131.982-.204.327-.07.653-.147.977-.23.16-.043.322-.083.465-.153.147-.069.283-.163.408-.271.253-.217.466-.487.642-.78V20c.108-.203.18-.384.221-.505z"
    fill="#93232C"
  ></path>
  <path
    d="M14.502 3.918h.577V2.734h-4.226v1.184h.578v-.601h1.195v3.656h-.492v.679h1.664v-.679h-.492V3.317h1.196v.601z"
    fill="#93232C"
  ></path>
  <path
    d="M18.875 10.585l-.003-.001c-.24-.018-.48-.035-.719-.05l-.013-.002c-1.12.99-3.331 1.738-3.888 1.916l-.033.027a12.9 12.9 0 002.902-.885 9.715 9.715 0 001.634-.918l.12-.087z"
    fill="#731B2A"
  ></path>
  <path
    d="M13.069 10.353c-2.109.537-3.465 1.353-3.973 1.697.407-.209.89-.44 1.433-.669l.009-.003a27.128 27.128 0 01.223-.093l.147-.06a27.48 27.48 0 01.218-.085l.102-.038.126-.048.119-.043.117-.043.136-.047.107-.038.161-.054.089-.03a15.893 15.893 0 01.827-.247c.254-.07.512-.134.776-.193-.206-.004-.411-.005-.617-.006z"
    fill="#731B2A"
  ></path>
  <path
    d="M9.064 10.45c-1.507.321-4.31 1.177-6.866 3.376-.025.028-.05.057-.073.086 1.3-.911 3.533-2.265 6.295-3.089l.27-.078c.457-.13.93-.242 1.414-.337-.347.012-.693.027-1.04.043z"
    fill="#731B2A"
  ></path>
  <path
    d="M21.128 19.25a3.04 3.04 0 00-.026.013l-.053.025-.043.02-.034.016-.053.025-.022.011-.058.029-.013.006-.062.03a11.071 11.071 0 00-.134.068 3.524 3.524 0 01-.222.507l.001-.002-.001.002c-.176.292-.389.56-.641.777a1.8 1.8 0 01-.408.272c-.144.07-.305.11-.466.153-.323.082-.649.16-.977.23-.325.073-.653.14-.982.204-.327.066-.657.126-.986.177-.164.026-.328.05-.49.061-.04.002-.08.004-.12.004l-.05-.005a.095.095 0 01-.027-.006 1.285 1.285 0 01-.24-.108 9.924 9.924 0 01-.84-.55c-.212-.151-.434-.325-.647-.486l-.019.027.002.001.04.035h-.002l-.028-.021.18.215.02.024c.091.109.474.556.928 1.01a1.7 1.7 0 001.241.52c.163 0 .335-.021.508-.063.16-.04.335-.082.514-.125.53-.127 1.118-.27 1.508-.371l.076-.02.15-.041c.07-.02.147-.039.23-.057.473-.111 1.12-.262 1.462-.954l.311-.618a134.987 134.987 0 01.52-1.006l.033-.066-.08.038z"
    fill="#731B2A"
  ></path>
  <path
    d="M13.383 20.744l-.031-.03c-.178.2-.335.406-.518.6-.11.116-.218.231-.33.343a6.438 6.438 0 01-.34.325.912.912 0 01-.175.127 1.212 1.212 0 01-.21.064 6.3 6.3 0 01-.46.082c-.31.048-.622.088-.935.122-.312.038-.626.07-.939.098-.313.03-.628.055-.939.071a5.004 5.004 0 01-.234.006c-.076 0-.15-.006-.224-.018a1.669 1.669 0 01-.435-.143 2.983 2.983 0 01-.766-.542c.032.039.066.075.098.112l-.022-.022a1.097 1.097 0 01-.063-.062c-.11-.121-1.107-.992-1.627-1.445l-.117-.054a27.224 27.224 0 00.978 1.38c.565.735 1.277 1.413 2.644 1.413a4.776 4.776 0 00.668-.047l.117-.013c1.188-.138 1.514-.197 1.695-.228l.13-.022.053-.007c.006-.001.408-.053.8-.246.272-.132.538-.332.668-.626.329-.742.396-.919.398-.926l.116-.312z"
    fill="#731B2A"
  ></path>
  <path
    d="M16.602 14.01a.265.265 0 00.258-.27.264.264 0 10-.526.01.264.264 0 00.268.26zm1.619 1.195c-.348-.17-.728.045-1.42.058-.515.019-.947.024-.976-.79-.028-.818.301-1.493.817-1.51.515-.019.985.628 1.048 1.443.017.224-.007.388-.062.51.479-.058.588.27.593.29z"
    fill="#0E0F0D"
  ></path>
  <path
    d="M9.222 14.207a.265.265 0 00.256-.273.264.264 0 00-.27-.258.264.264 0 00-.257.272.264.264 0 00.271.258zm.796.427c.008.815-.42.766-.936.771a4.606 4.606 0 01-.152.003 3.449 3.449 0 01-.166.001c-.5-.001-.82-.024-1.103.13.007-.017.131-.297.58-.411a1.3 1.3 0 01-.089-.476c-.03-.816.468-1.484.983-1.489.516-.005.875.655.883 1.47z"
    fill="#0E0F0D"
  ></path>
  <path
    d="M19.777 9.024a4.02 4.02 0 01-.014.15 17.683 17.683 0 00-.616-.155c-.68-.15-1.37-.262-2.062-.342l-.072-.008a.249.249 0 00.012-.03c.02-.077.038-.153.056-.23.178-.796.169-1.589.149-1.973l2.462.706c.134.882.108 1.574.085 1.882zm-3.063-.472a.161.161 0 000 .085c-.258-.027-.516-.05-.773-.072.289-.611.352-1.262.366-1.492a6.79 6.79 0 00.606-.498c.014.438.004 1.233-.199 1.977zm-7.587.084a.166.166 0 000-.084c-.202-.743-.213-1.538-.199-1.977.163.148.384.34.607.498.013.23.076.88.365 1.49-.257.021-.515.045-.773.073zm-.372.04c-.345.043-.69.087-1.035.144-.343.06-.686.123-1.026.199-.207.048-.411.1-.616.155a8.341 8.341 0 01.071-2.032l2.462-.706a7.785 7.785 0 00.13 1.884c.022.106.047.212.076.318l.011.03-.073.009zM21.097 9.68l-.062-.03-.103-.051-.004-.002a.64.64 0 01-.064-.037 6.476 6.476 0 00-.79-.293.168.168 0 00.006-.022c.003-.027.064-.484.028-1.203a9.571 9.571 0 00-.114-1.053.163.163 0 00-.115-.13l-.35-.1c-.076-2.738-1.194-4.025-1.23-4.065 1 1.621.99 3.543.974 3.991l-2.176-.623-.006-.001a.203.203 0 00-.027-.004h-.008c-.012-.002-.024 0-.036.002l-.006.002a.12.12 0 00-.028.01l-.01.004-.021.015c-.002 0-.004.002-.005.003l-.005.004-.006.006c-.002.002-.06.06-.151.146.006-.205.008-.519-.016-.902l-.007-.111c-.068-.963-.294-2.316-.969-3.5.006.016.073.213.159.544.217.833.56 2.518.373 4.347l-.002.025-.01.007a4.21 4.21 0 01-.257.193.166.166 0 00-.071.132c0 .008-.02.826-.377 1.522-.007.012-.01.023-.014.035a39.285 39.285 0 00-2.676-.088c-.892 0-1.786.025-2.678.086a.242.242 0 00-.012-.033c-.359-.696-.377-1.514-.378-1.522a.165.165 0 00-.07-.132c-.089-.06-.18-.13-.268-.2-.181-1.74.118-3.352.335-4.23.103-.416.189-.668.195-.687-.979 1.718-1.013 3.791-.991 4.514a4.336 4.336 0 01-.152-.146l-.007-.006-.003-.004-.006-.003a.202.202 0 00-.021-.014l-.01-.006a.078.078 0 00-.027-.008l-.007-.003a.144.144 0 00-.036-.003h-.009a.208.208 0 00-.027.005h-.005l-2.175.624c-.018-.448-.027-2.37.972-3.99-.035.04-1.153 1.326-1.229 4.064l-.349.1a.161.161 0 00-.116.13c-.064.39-.097.745-.113 1.052-.037.72.024 1.177.028 1.204l.005.022-.085.025a6.405 6.405 0 00-.706.268.627.627 0 01-.064.037l-.004.002-.103.05c-.017.01-.035.018-.053.027-.012.007-.023.012-.034.02.16-.065.328-.111.495-.153a9.1 9.1 0 01.504-.111 21.857 21.857 0 012.045-.272c.343-.03.686-.059 1.03-.079a69.76 69.76 0 014.129-.108 67.58 67.58 0 014.129.108c.343.02.686.049 1.029.078a22.317 22.317 0 012.045.272c.169.033.337.07.504.112.168.042.334.088.496.152l-.027-.015z"
    fill="#0E0F0D"
  ></path>
  <path
    d="M13.306 3.317v3.656h.492v.679h-1.664v-.679h.492V3.317h-1.195v.601h-.578V2.734h4.226v1.184h-.578v-.601h-1.195zm2.209 1.04v-2.06h-5.097v2.06h1.448v-.602h.325v2.78H11.7v1.554h2.533V6.535h-.493v-2.78h.326v.601h1.449z"
    fill="#0E0F0D"
  ></path>
</svg>
