<svg viewBox="0 0 24 24" xmlns="http://www.w3.org/2000/svg">
  <path
    d="M21.656 0H2.344A2.344 2.344 0 000 2.344v19.312A2.344 2.344 0 002.344 24h19.312A2.344 2.344 0 0024 21.656V2.344A2.344 2.344 0 0021.656 0z"
    fill="url(#paint0_linear)"
  ></path>
  <path
    d="M19.755 3.12h-5.07c-.621 0-1.125.504-1.125 1.125v8.25c0 .621.504 1.125 1.125 1.125h5.07c.621 0 1.125-.504 1.125-1.125v-8.25c0-.621-.504-1.125-1.125-1.125z"
    fill="#fff"
  ></path>
  <path
    d="M9.315 3.12h-5.07c-.621 0-1.125.504-1.125 1.125v14.25c0 .621.504 1.125 1.125 1.125h5.07c.621 0 1.125-.504 1.125-1.125V4.245c0-.621-.504-1.125-1.125-1.125z"
    fill="#fff"
  ></path>
  <defs>
    <linearGradient
      id="paint0_linear"
      x1="12"
      y1="0"
      x2="12"
      y2="24"
      gradientUnits="userSpaceOnUse"
    >
      <stop stop-color="#0091E6"></stop>
      <stop offset="1" stop-color="#0079BF"></stop>
    </linearGradient>
  </defs>
</svg>
