<svg viewBox="0 0 24 24" xmlns="http://www.w3.org/2000/svg">
  <path d="M0 12v12h24V0H0v12z" fill="#007ACC"></path>
  <path
    d="M5.307 12.08l-.007.982h3.124v8.878h2.209v-8.878h3.124V12.1c0-.534-.012-.98-.027-.99-.011-.016-1.912-.024-4.217-.02l-4.194.012-.012.979z"
    fill="#fff"
  ></path>
  <path
    d="M19.366 11.073c.61.152 1.074.422 1.5.864.221.237.55.667.576.77.008.03-1.036.731-1.669 1.124-.023.015-.114-.084-.217-.236-.309-.45-.632-.644-1.128-.679-.727-.05-1.196.332-1.192.968a.88.88 0 00.103.45c.16.331.457.53 1.39.933 1.719.739 2.454 1.227 2.91 1.92.511.773.626 2.008.279 2.926-.38.998-1.326 1.676-2.655 1.9-.412.073-1.387.061-1.829-.019-.964-.17-1.878-.647-2.442-1.272-.22-.244-.651-.88-.625-.926.012-.015.111-.076.221-.14l.892-.515.69-.4.144.213c.202.31.644.732.91.873.766.404 1.818.347 2.336-.118a.883.883 0 00.312-.72c0-.278-.034-.4-.179-.61-.186-.266-.567-.491-1.65-.96-1.237-.533-1.77-.864-2.258-1.39a3.165 3.165 0 01-.66-1.2c-.09-.34-.114-1.189-.041-1.532.255-1.196 1.158-2.03 2.46-2.278.424-.08 1.406-.05 1.822.054z"
    fill="#fff"
  ></path>
</svg>
