<svg viewBox="0 0 24 24" xmlns="http://www.w3.org/2000/svg">
  <path
    d="M11.366.044c3.096-.254 5.319.565 7.711 2.95 2.583 2.573 4.3 5.908 4.763 9.46.515 3.95-.194 6.9-2.375 9.058-2.085 2.063-5.131 2.744-9.2 2.405l-.17-.015c-3.465-.317-5.916-1.45-8.29-3.848-2.537-2.562-3.874-5.47-3.802-8.522.035-1.495.46-2.768 1.278-4.018.537-.82 1.082-1.458 2.222-2.63l.38-.389.42-.424C7.006 1.363 8.785.256 11.366.044zm7.527 3.133C16.555.847 14.407.055 11.388.303 8.843.512 7.096 1.62 4.36 4.382l-.198.2c-1.332 1.35-1.956 2.04-2.506 2.84l-.08.117-.078.117C.706 8.866.297 10.094.263 11.538c-.07 2.976 1.237 5.82 3.727 8.334 2.369 2.392 4.802 3.495 8.296 3.787l.173.013c3.914.3 6.832-.374 8.823-2.345 2.116-2.094 2.805-4.962 2.3-8.84-.456-3.494-2.146-6.776-4.689-9.31zm-3.238 5.552v1.268h-2.7v7.264H11.61V9.997h-2.7V8.729h6.745z"
    fill="#262627"
  ></path>
</svg>
