<svg viewBox="0 0 24 24" xmlns="http://www.w3.org/2000/svg">
  <path
    fill-rule="evenodd"
    clip-rule="evenodd"
    d="M4.743 5h6.044c.844 0 1.368.636 1.172 1.418L9.145 17.584C8.945 18.364 8.1 19 7.257 19H1.213C.37 19-.156 18.364.041 17.584L2.857 6.418C3.053 5.636 3.897 5 4.743 5z"
    fill="#E21836"
  ></path>
  <path
    fill-rule="evenodd"
    clip-rule="evenodd"
    d="M10.196 5h6.827c.83 0 .455.636.26 1.418L14.52 17.584c-.194.78-.133 1.416-.964 1.416H6.73c-.83 0-1.344-.636-1.15-1.416L8.344 6.418C8.54 5.636 9.367 5 10.196 5z"
    fill="#00447C"
  ></path>
  <path
    fill-rule="evenodd"
    clip-rule="evenodd"
    d="M16.742 5h6.045c.845 0 1.37.636 1.171 1.418l-2.814 11.166C20.946 18.364 20.1 19 19.255 19h-6.041c-.846 0-1.37-.636-1.172-1.416l2.814-11.166C15.053 5.636 15.896 5 16.742 5z"
    fill="#007B84"
  ></path>
  <path
    d="M6.322 8.52c-.614.007-.795 0-.853-.013l-.437 1.97c-.09.377-.154.646-.374.82a.676.676 0 01-.44.15c-.272 0-.43-.133-.457-.383l-.005-.086.082-.508s.435-1.7.513-1.924a.16.16 0 00.006-.025c-.846.007-.996 0-1.006-.014a3.114 3.114 0 00-.026.124l-.444 1.915-.038.163-.074.531c0 .158.032.286.095.395.202.345.778.396 1.104.396.42 0 .815-.087 1.081-.246.462-.267.583-.684.691-1.054l.05-.19s.447-1.765.524-1.995c.002-.013.004-.02.008-.025zm1.522 1.424c-.108 0-.305.026-.482.11-.064.033-.125.07-.19.107l.059-.204-.032-.034c-.376.074-.46.084-.806.132l-.03.019a9.81 9.81 0 01-.225 1.212c-.057.236-.116.475-.175.71l.016.03c.356-.018.463-.018.772-.013l.025-.026c.04-.197.045-.243.132-.64.04-.19.126-.603.168-.75a.586.586 0 01.226-.07c.173 0 .152.147.145.206-.007.099-.07.421-.135.698l-.043.179c-.03.131-.063.26-.094.39l.014.027c.35-.019.457-.019.756-.014l.035-.026c.054-.307.07-.39.166-.836l.048-.205c.094-.402.141-.605.07-.77-.075-.187-.255-.232-.42-.232zm1.7.42c-.186.036-.304.059-.422.074-.117.018-.232.035-.412.06l-.014.012-.013.01c-.019.131-.032.244-.057.377a6.774 6.774 0 01-.106.519c-.04.172-.062.232-.085.292-.023.06-.048.12-.094.288l.011.016.01.014c.167-.007.277-.013.39-.014.113-.004.23 0 .412.001l.015-.012.017-.014c.027-.153.03-.194.046-.268.016-.08.044-.19.11-.486.032-.138.068-.276.1-.418l.104-.418-.005-.017-.006-.015zm.005-.566c-.17-.098-.467-.067-.667.068-.199.132-.222.32-.053.418.166.095.465.067.663-.069.199-.135.223-.32.057-.417zm1.023 2.259c.342 0 .693-.092.957-.366.203-.221.297-.551.329-.687.105-.45.023-.66-.08-.789-.156-.195-.432-.258-.718-.258-.172 0-.582.017-.902.305-.23.208-.336.49-.4.761-.065.276-.14.772.328.957.144.06.352.077.486.077zm-.027-1.013c.079-.341.172-.628.41-.628.186 0 .2.213.117.556-.015.075-.083.358-.175.478-.064.089-.14.143-.224.143-.025 0-.174 0-.176-.216a1.434 1.434 0 01.048-.333zm2.169.97l.026-.027c.038-.197.045-.243.129-.64.042-.189.129-.603.17-.75.077-.036.152-.07.227-.07.171 0 .15.147.144.206-.007.099-.07.421-.135.698l-.041.178c-.031.132-.066.26-.096.391l.014.027c.351-.019.454-.019.755-.014l.036-.026c.053-.307.067-.39.166-.836l.047-.205c.094-.402.142-.605.072-.77-.077-.187-.258-.232-.421-.232a1.2 1.2 0 00-.67.217l.054-.204-.03-.034c-.375.074-.46.084-.807.132l-.026.019c-.042.326-.077.57-.226 1.212-.057.236-.116.475-.175.71l.016.03c.356-.018.462-.018.77-.013zm2.582.013l.155-.73s.111-.459.118-.475c0 0 .035-.048.07-.067h.052c.489 0 1.04 0 1.472-.31.294-.213.495-.528.585-.91.023-.094.04-.205.04-.317a.654.654 0 00-.117-.404c-.22-.301-.659-.307-1.165-.309l-.25.002c-.649.008-.909.006-1.016-.007l-.026.128-.232 1.053-.582 2.342c.566-.007.798-.007.896.004zm.43-1.869l.246-1.045.008-.054.004-.04.098.01.522.043c.2.076.284.272.226.527a.77.77 0 01-.407.525c-.164.08-.365.087-.573.087h-.134l.01-.053zm1.538.905c-.065.272-.14.768.325.945.148.062.281.08.416.074a.695.695 0 00.397-.179c-.01.042-.022.083-.033.125l.021.026c.335-.014.438-.014.8-.01l.034-.025c.053-.304.103-.6.24-1.18.067-.279.134-.555.203-.832l-.011-.03a15.33 15.33 0 01-.834.131l-.027.022-.011.083a.512.512 0 00-.263-.211c-.16-.061-.536.018-.859.305-.227.205-.336.486-.398.756zm.786.017c.08-.335.172-.619.41-.619.151 0 .23.136.215.368l-.043.188c-.024.1-.05.198-.075.297a.715.715 0 01-.088.173c-.062.085-.208.138-.292.138-.023 0-.17 0-.176-.212a1.42 1.42 0 01.05-.333zm4.104-1.106l-.03-.032c-.37.073-.436.084-.776.13l-.025.024-.004.015-.002-.005c-.253.57-.245.447-.451.897l-.003-.055-.052-.974-.032-.032c-.388.073-.397.084-.755.13l-.028.024c-.004.011-.004.024-.006.038l.002.005c.045.224.034.174.079.526.021.174.049.348.07.519.035.286.055.427.098.863-.242.39-.3.537-.532.88l.002.003-.164.253c-.02.027-.036.045-.06.053a.252.252 0 01-.107.015h-.091l-.135.439.463.008c.272-.001.443-.126.535-.293l.291-.487h-.004l.03-.035c.196-.412 1.687-2.91 1.687-2.91zm-4.89 5.762h-.196l.727-2.35h.241l.077-.242.007.27c-.009.165.125.313.477.289h.408l.14-.453h-.153c-.088 0-.13-.022-.124-.068l-.008-.274h-.754v.001c-.243.005-.971.023-1.119.061a1.33 1.33 0 00-.366.177l.074-.242h-.706l-.147.481-.737 2.386h-.143l-.14.45h1.405l-.047.149h.692l.046-.15h.194l.152-.485zm-.576-1.873c-.113.031-.323.124-.323.124l.187-.601h.56l-.135.438s-.173.01-.29.04zm.01.859s-.175.021-.291.047c-.114.034-.328.14-.328.14l.193-.625h.563l-.136.438zm-.313 1.02h-.563l.164-.528h.56l-.161.528zm1.353-1.458h.81l-.116.368h-.82l-.124.403h.718l-.544.748a.222.222 0 01-.11.09.328.328 0 01-.146.041h-.2l-.136.441h.521c.271 0 .431-.12.55-.278l.373-.5.08.507c.017.095.086.15.134.172.052.026.106.07.182.076.082.003.14.006.18.006h.256l.154-.493h-.101c-.058 0-.158-.01-.175-.028-.017-.021-.017-.054-.026-.105l-.082-.507h-.332l.146-.17h.82l.125-.403h-.759l.119-.368h.756l.14-.454h-2.255l-.138.454zm-6.843 1.56l.189-.614h.777l.142-.457h-.778l.119-.379h.76l.141-.442h-1.902l-.138.442h.432l-.115.379h-.434l-.143.464h.432l-.252.813c-.034.108.016.15.047.2.033.048.066.08.14.098a.852.852 0 00.199.027h.876l.156-.506-.388.052c-.075 0-.283-.01-.26-.077zm.089-2.942l-.197.348a.405.405 0 01-.114.145c-.03.018-.09.026-.176.026h-.103l-.137.445h.34c.165 0 .291-.06.351-.088.065-.034.082-.015.132-.062l.115-.098h1.066l.142-.463h-.78l.136-.253h-.775zm1.573 2.951c-.018-.025-.005-.07.023-.164l.291-.942h1.037c.15-.002.26-.004.33-.009a.689.689 0 00.25-.082.463.463 0 00.181-.163c.045-.06.117-.192.18-.396l.365-1.192-1.075.006s-.331.048-.477.1a1.957 1.957 0 00-.357.224l.097-.327h-.665l-.93 3.013a1.826 1.826 0 00-.06.253c-.002.055.071.109.118.15.056.04.138.034.217.04.083.007.201.01.364.01h.51l.157-.516-.457.042a.121.121 0 01-.099-.047zm.502-1.742h1.089l-.07.212c-.009.005-.032-.01-.143.002h-.943l.067-.214zm.219-.71h1.097l-.079.255s-.517-.006-.6.01a1.237 1.237 0 00-.578.251l.16-.517zm.825 1.631a.113.113 0 01-.043.066c-.022.013-.058.018-.111.018h-.155l.009-.258h-.645l-.026 1.262c-.002.09.008.143.076.186.068.052.278.059.56.059h.405l.146-.472-.352.019-.117.006c-.016-.006-.031-.012-.048-.029-.015-.014-.04-.005-.036-.096l.003-.324.369-.015c.199 0 .284-.063.357-.123.07-.058.092-.125.118-.214l.062-.287h-.507l-.065.202z"
    fill="#FEFEFE"
  ></path>
</svg>
