<svg viewBox="0 0 24 24" xmlns="http://www.w3.org/2000/svg">
  <path
    d="M12.027.182L.182 11.972l11.845 11.846 11.79-11.845L12.027.183z"
    fill="#019833"
  ></path>
  <path
    d="M12.025 1.265V.269L.26 11.975h1.008l10.757-10.71z"
    fill="#66FE98"
  ></path>
  <path
    d="M12.025 1.265V.269l11.801 11.706h-1.09L12.024 1.265z"
    fill="#45FE02"
  ></path>
  <path
    d="M12.025 22.735v1.102L.26 11.975h1.008l10.757 10.76z"
    fill="#017D17"
  ></path>
  <path
    d="M12.025 22.735v1.102l11.801-11.862h-1.09l-10.711 10.76z"
    fill="#005D04"
  ></path>
  <path
    d="M6.115 21.59h-2.28l-.891-.868V4.171h-.707l-.605-.605v-1.85l.627-.68h7.975l.717.718V3.51l-.595.725h-.603V9.83l5.67-5.595h-.316l-.66-.71V1.663l.649-.594h8.05l.637.637v1.76L6.115 21.59z"
    fill="#000"
  ></path>
  <path
    d="M12.025 24L0 11.975 12.025 0 24 11.975 12.025 24zM.368 11.975l11.657 11.657L23.63 11.975 12.025.368.368 11.975z"
    fill="#000"
  ></path>
  <path
    d="M10.132 2.13l.354-.23-.362-.375H2.452l-.39.39V3.39l.433.432.206-.432-.271-.271v-1.04l.203-.18 7.243.008.256.222z"
    fill="#FEFEFE"
  ></path>
  <path
    d="M3.887 3.355v17.258l.243.231-.195.368-.511-.503V3.802l.463-.447z"
    fill="#FEFEFE"
  ></path>
  <path d="M2.647 3.355l-.152.467h.926l.537-.467h-1.31z" fill="gray"></path>
  <path
    d="M15.612 3.36l-.324-.228v-.926l.34-.34H22.7l.27.362.387-.304-.398-.362h-7.604l-.379.378v1.486l.4.36.235-.425zm-6.387 7.57l-.739 1.793 8.339-8.361-.04-1.012-7.56 7.58z"
    fill="#FEFEFE"
  ></path>
  <path
    d="M10.115 2.123l.371-.222v1.454l-.423.423H9.24l-.015 7.153-.736 1.788V3.355h1.374l.256-.208-.004-1.024z"
    fill="gray"
  ></path>
  <path
    d="M22.947 2.127l.41-.203v1.328L5.852 21.212H3.935l.187-.353h1.471L22.95 2.938l-.002-.81z"
    fill="gray"
  ></path>
  <path
    d="M16.784 3.35l-.426.428-.982.008.24-.43 1.168-.006z"
    fill="gray"
  ></path>
  <path
    d="M15.56 1.853l-.271.27v.995l.237.238h1.254v.96l-8.293 8.407V3.368h1.378l.283-.283V2.078l-.261-.201H2.634l-.238.237v1.028l.242.241h1.261V20.61l.238.238H5.57L22.95 2.915v-.791l-.271-.271H15.56z"
    fill="#CCC"
  ></path>
  <path
    d="M5.58 20.87H4.127l-.25-.25V3.406H2.627l-.254-.255V2.104l.25-.25h7.27l.277.213v1.027l-.296.296H8.51v9.277l8.247-8.36V3.38h-1.24l-.25-.251V2.114l.283-.284h7.138l.284.284v.81l-.006.007L5.58 20.87zm-1.434-.045h1.415l17.366-17.92v-.772l-.258-.257h-7.1l-.257.257v.976l.224.224h1.267v.993l-.007.007-8.332 8.445V3.345h1.392l.269-.27V2.09l-.246-.19H2.643l-.224.224v1.01l.228.227h1.275V20.6l.224.225z"
    fill="gray"
  ></path>
  <path
    d="M12.616 13.465a.078.078 0 00-.036.018l-.336.288a.078.078 0 00-.022.034l-.336.941a.078.078 0 00.018.082l.257.257a.079.079 0 00.055.021h1.038c.02 0 .04-.007.056-.021l.27-.273c.01-.01.017-.021.02-.034l.29-.99a.078.078 0 00-.02-.078l-.224-.223a.078.078 0 00-.056-.022h-.974zm-1.903 2.654a.078.078 0 00-.059.057l-.129.51a.078.078 0 00.076.097h.61l-1.514 4.325a.078.078 0 00.073.102h2.205a.078.078 0 00.075-.053l.144-.465a.078.078 0 00-.075-.1h-.498l1.499-4.37a.078.078 0 00-.073-.103h-2.334zm7.016.015a.078.078 0 00-.043.026l-.46.518h-.729l-.486-.504a.078.078 0 00-.056-.024h-1.742a.078.078 0 00-.073.052l-.16.478a.078.078 0 00.073.103h.467l-1.452 4.277a.078.078 0 00.074.103h1.854c.033 0 .062-.02.074-.051l.142-.418a.078.078 0 00-.073-.102h-.324l.925-2.913h1.675l-1.056 3.383a.078.078 0 00.075.101h1.79c.03 0 .058-.019.07-.047l.16-.384a.078.078 0 00-.07-.107h-.325l.942-2.962h1.593l-1.071 3.4a.078.078 0 00.075.1h1.965c.033 0 .062-.02.074-.05l.16-.417a.078.078 0 00-.073-.104h-.39l1.184-3.846a.079.079 0 00-.012-.072l-.367-.494a.078.078 0 00-.064-.03H20.67a.077.077 0 00-.058.024l-.443.486h-.775l-.459-.502a.078.078 0 00-.057-.024h-1.149z"
    fill="#CCC"
  ></path>
  <path
    d="M12.034 15.216c.049.048.113.073.178.073h1.039a.258.258 0 00.189-.076l.27-.272a.261.261 0 00.066-.112l.289-.99a.26.26 0 00-.066-.258l-.226-.226a.255.255 0 00-.183-.073h-.952l-.04.001-.02.003a.259.259 0 00-.117.058l-.337.289-.004.003a.263.263 0 00-.071.11l-.336.939c-.033.093-.01.2.061.272l.26.26zm1.514-1.568l.148.148-.264.906-.22.221h-.954l-.177-.178.305-.854.283-.243h.88z"
    fill="#000"
  ></path>
  <path
    d="M22.654 16.565l-.368-.494-.004-.004a.262.262 0 00-.208-.1h-1.402a.26.26 0 00-.192.08l-.392.43h-.613l-.404-.442-.004-.004a.264.264 0 00-.189-.08h-1.127c-.013 0-.027 0-.04.002l-.02.002a.26.26 0 00-.143.084l-.404.456h-.569l-.433-.448a.264.264 0 00-.187-.08h-1.742c-.11 0-.208.07-.245.172l-.162.483a.261.261 0 00.247.344h.211l-1.37 4.036a.262.262 0 00.248.344h1.855c.11 0 .208-.07.246-.175l.143-.418a.261.261 0 00-.247-.345h-.074l.809-2.546h1.292l-.983 3.147a.261.261 0 00.25.337h1.792a.262.262 0 00.239-.16l.161-.387a.261.261 0 00-.241-.357h-.074l.825-2.596h1.21l-.998 3.163a.261.261 0 00.25.337h1.965a.264.264 0 00.246-.167l.16-.42a.261.261 0 00-.244-.35h-.142l1.11-3.607a.261.261 0 00-.038-.237zm-1.568 4.21h.484l-.079.205h-1.75l1.103-3.5h-1.978l-1.057 3.328h.415l-.071.172h-1.577l1.088-3.484h-2.058l-1.042 3.279h.427l-.07.205h-1.632l1.486-4.38H14.2l.09-.267h1.62l.51.528h.89l.48-.544h1.043l.48.526h.937l.465-.51h1.31l.303.408-1.242 4.034z"
    fill="#000"
  ></path>
  <path
    d="M12.197 20.42a.283.283 0 00-.078-.012h-.242l1.416-4.128a.261.261 0 00-.246-.344h-2.352l-.02.004a.26.26 0 00-.199.191l-.128.511a.262.262 0 00.253.324h.352l-1.43 4.083a.261.261 0 00.247.345h2.206a.262.262 0 00.25-.183l.144-.465a.261.261 0 00-.173-.326zm-2.278.607l1.55-4.427h-.733l.075-.298H12.9l-1.535 4.473h.613l-.079.253H9.92z"
    fill="#000"
  ></path>
</svg>
