<svg viewBox="0 0 24 24" xmlns="http://www.w3.org/2000/svg">
  <path d="M12 0l11 6v12l-11 6-11-6V6l11-6z" fill="#fff"></path>
  <path
    d="M21.036 17.586l-8.673 4.73v-3.684l5.404-2.866 3.269 1.82zm.593-.518V7.176l-3.174 1.766V15.3l3.174 1.768zm-18.7.518l8.673 4.73v-3.684l-5.404-2.866-3.269 1.82zm-.593-.518V7.176l3.173 1.766V15.3l-3.173 1.768zm.371-10.532l8.895-4.852v3.562L5.904 8.268l-.044.024-3.153-1.756zm18.55 0l-8.894-4.852v3.562l5.698 3.022.044.024 3.152-1.756z"
    fill="#8ED6FB"
  ></path>
  <path
    d="M11.602 17.794L6.27 14.968v-5.6l5.33 2.968v5.458zm.761 0l5.331-2.826v-5.6l-5.33 2.968v5.458zM6.632 8.72l5.351-2.838 5.352 2.838-5.352 2.98-5.351-2.98z"
    fill="#1C78C0"
  ></path>
</svg>
