<svg viewBox="0 0 24 24" xmlns="http://www.w3.org/2000/svg">
  <path
    d="M3.225 21.675L0 2.512 6 .037l3.787 2.25L13.313.412l7.275 2.813L16.5 24 3.225 21.675z"
    fill="url(#paint0_linear)"
  ></path>
  <path
    d="M24 8.137L20.887.487 15.3 0 6.6 8.325l2.325 10.762 4.387 3.038L24 15.787l-2.625-4.912L24 8.137z"
    fill="url(#paint1_linear)"
  ></path>
  <path
    d="M19.2 6.975l2.175 3.9L24 8.137l-1.913-4.762-2.887 3.6z"
    fill="url(#paint2_linear)"
  ></path>
  <path d="M19.5 4.5h-15v15h15v-15z" fill="#000"></path>
  <path
    d="M5.925 16.688h5.625v.937H5.925v-.938zm7.35-4.913l.787-.975c.563.45 1.126.75 1.838.75.562 0 .9-.225.9-.6 0-.337-.225-.525-1.238-.787-1.237-.338-2.024-.676-2.024-1.913v-.038c0-1.125.9-1.875 2.137-1.875a3.671 3.671 0 012.287.788l-.712 1.05a2.857 2.857 0 00-1.575-.6c-.488 0-.788.225-.788.562 0 .413.263.563 1.313.825 1.238.338 1.95.788 1.95 1.876 0 1.237-.938 1.95-2.25 1.95a4.324 4.324 0 01-2.625-1.013zm-1.2-5.325l-.938 3.6-1.05-3.6h-1.05l-1.05 3.6-.937-3.6H5.587l1.8 6.225H8.55l1.012-3.6 1.013 3.6h1.163l1.8-6.225h-1.463z"
    fill="#fff"
  ></path>
  <defs>
    <linearGradient
      id="paint0_linear"
      x1="8.586"
      y1=".499"
      x2="16.728"
      y2="22.132"
      gradientUnits="userSpaceOnUse"
    >
      <stop offset=".28" stop-color="#00CDD7"></stop>
      <stop offset=".94" stop-color="#2086D7"></stop>
    </linearGradient>
    <linearGradient
      id="paint1_linear"
      x1="10.513"
      y1="3.347"
      x2="23.946"
      y2="15.528"
      gradientUnits="userSpaceOnUse"
    >
      <stop offset=".14" stop-color="#FFF045"></stop>
      <stop offset=".37" stop-color="#00CDD7"></stop>
    </linearGradient>
    <linearGradient
      id="paint2_linear"
      x1="555.408"
      y1="-2073.51"
      x2="614.313"
      y2="-2128.2"
      gradientUnits="userSpaceOnUse"
    >
      <stop offset=".28" stop-color="#00CDD7"></stop>
      <stop offset=".94" stop-color="#2086D7"></stop>
    </linearGradient>
  </defs>
</svg>
