<svg viewBox="0 0 24 24" xmlns="http://www.w3.org/2000/svg">
  <path
    fill-rule="evenodd"
    clip-rule="evenodd"
    d="M21.763 5H2.227C.991 5-.01 5.99 0 7.192V14.5c0 1.211 1 2.192 2.237 2.192h9.253L15.719 19l-.962-2.308h7.006c1.236 0 2.237-.98 2.237-2.192V7.192C24 5.981 23 5 21.763 5zM1.98 6.702c-.273.019-.478.115-.614.296a.802.802 0 00-.156.64c.575 3.586 1.112 6.005 1.61 7.257.194.46.419.68.682.66.41-.029.898-.583 1.473-1.664.303-.611.771-1.53 1.405-2.753.527 1.807 1.25 3.165 2.156 4.073.254.258.518.373.771.354a.63.63 0 00.517-.345c.098-.181.137-.392.117-.63-.058-.87.03-2.085.274-3.643.253-1.606.565-2.763.946-3.452a.816.816 0 00.097-.459.745.745 0 00-.302-.545.859.859 0 00-.615-.19.75.75 0 00-.644.42c-.604 1.08-1.034 2.83-1.287 5.258-.371-.917-.683-1.998-.927-3.27-.108-.564-.371-.831-.8-.803-.293.02-.537.21-.732.574l-2.137 3.987c-.35-1.386-.682-3.079-.985-5.077-.068-.497-.351-.726-.849-.688zm18.79.688c.693.144 1.21.507 1.562 1.11.312.515.478 1.137.468 1.883 0 .984-.254 1.883-.761 2.705-.585.956-1.346 1.435-2.293 1.435-.166 0-.341-.02-.527-.058-.692-.143-1.21-.507-1.56-1.109-.313-.526-.469-1.157-.469-1.893 0-.985.254-1.883.761-2.696.595-.956 1.356-1.434 2.293-1.434.166 0 .341.019.527.057zm-.41 5.173c.362-.316.606-.785.742-1.415.05-.22.069-.46.069-.708 0-.277-.059-.574-.176-.87-.146-.373-.341-.574-.576-.621-.35-.067-.692.124-1.014.592-.264.364-.43.746-.517 1.138-.05.22-.069.459-.069.698 0 .277.059.574.176.87.146.373.341.574.576.621.244.048.507-.057.79-.306zM14.665 7.39c.683.144 1.21.507 1.561 1.11.312.515.468 1.137.468 1.883 0 .984-.253 1.883-.76 2.705-.586.956-1.347 1.435-2.293 1.435-.166 0-.342-.02-.527-.058-.693-.143-1.21-.507-1.56-1.109-.313-.526-.47-1.157-.47-1.893 0-.985.254-1.883.762-2.696.595-.956 1.356-1.434 2.292-1.434.166 0 .342.019.527.057zm-.42 5.173c.362-.316.606-.785.742-1.415.049-.22.078-.46.069-.708 0-.277-.059-.574-.176-.87-.146-.373-.342-.574-.576-.621-.35-.067-.692.124-1.014.592-.264.364-.43.746-.517 1.138a3.26 3.26 0 00-.069.698c0 .277.059.574.176.87.146.373.341.574.575.621.244.048.508-.057.79-.306z"
    fill="#9B5C8F"
  ></path>
</svg>
