<svg viewBox="0 0 24 24" xmlns="http://www.w3.org/2000/svg">
  <path
    d="M1.706 12c0 4.075 2.368 7.596 5.801 9.265L2.597 7.81A10.255 10.255 0 001.706 12zm17.243-.52c0 .881-.339 1.904-.784 3.328l-1.026 3.431-3.72-11.066a20.274 20.274 0 001.178-.098c.554-.066.489-.88-.066-.848 0 0-1.667.13-2.744.13-1.011 0-2.711-.13-2.711-.13-.555-.033-.62.815-.065.848 0 0 .525.066 1.08.098l1.603 4.394-2.253 6.757-3.748-11.15c.62-.033 1.178-.099 1.178-.099.554-.065.489-.88-.066-.848 0 0-1.667.13-2.744.13-.193 0-.42-.004-.662-.011a10.282 10.282 0 018.6-4.64c2.68 0 5.12 1.024 6.952 2.702-.044-.002-.088-.008-.133-.008-1.011 0-1.729.88-1.729 1.827 0 .848.49 1.566 1.011 2.414.392.686.849 1.567.849 2.84zM12.18 12.9l3.165 8.67a.81.81 0 00.073.14 10.287 10.287 0 01-6.326.165L12.18 12.9zm8.852-5.84A10.238 10.238 0 0122.293 12a10.29 10.29 0 01-5.119 8.898l3.145-9.091c.588-1.469.783-2.643.783-3.688 0-.378-.025-.73-.07-1.058zM12 0c6.616 0 12 5.383 12 12s-5.384 12-12 12C5.383 24 0 18.617 0 12S5.383 0 12 0zm0 23.45c6.312 0 11.449-5.137 11.449-11.45S18.313.55 11.999.55C5.687.55.55 5.687.55 12S5.687 23.45 12 23.45z"
    fill="#00749A"
  ></path>
</svg>
