<svg viewBox="0 0 24 24" xmlns="http://www.w3.org/2000/svg">
  <path
    d="M12 0C5.375 0 0 5.375 0 12s5.375 12 12 12 12-5.375 12-12S18.625 0 12 0z"
    fill="#368FB9"
  ></path>
  <path
    d="M19.061 16.318c-.741.176-1.117.338-2.034.936-1.432.927-2.998 1.358-2.998 1.358s-.13.194-.505.282c-.648.158-3.09.292-3.312.297-.598.004-.964-.153-1.066-.399-.31-.741.445-1.065.445-1.065s-.167-.102-.264-.195c-.088-.088-.181-.264-.209-.2-.116.283-.176.974-.486 1.284-.427.431-1.233.288-1.71.037-.524-.278.037-.931.037-.931s-.283.167-.51-.176c-.203-.315-.393-.853-.342-1.515.055-.755.898-1.487.898-1.487s-.148-1.117.339-2.261c.44-1.043 1.626-1.881 1.626-1.881s-.996-1.103-.626-2.095c.241-.648.339-.644.417-.671.278-.107.547-.223.746-.44.997-1.076 2.266-.872 2.266-.872s.602-1.83 1.158-1.473c.172.111.788 1.483.788 1.483s.658-.385.732-.241c.398.773.445 2.251.269 3.15-.297 1.483-1.038 2.28-1.335 2.78-.07.116.797.482 1.344 1.997.505 1.385.056 2.548.134 2.678a.594.594 0 01.019.032s.579.047 1.742-.671c.62-.385 1.358-.816 2.196-.825.81-.014.853.936.241 1.084zm1.103-.68c-.084-.659-.64-1.113-1.353-1.104-1.066.014-1.96.566-2.553.932-.232.143-.431.25-.602.329a4.919 4.919 0 00-.274-2.016c-.338-.927-.792-1.496-1.116-1.825.375-.547.89-1.344 1.13-2.576.209-1.052.144-2.688-.334-3.605a.737.737 0 00-.463-.375c-.083-.023-.24-.07-.551.018-.468-.968-.63-1.07-.755-1.153a.945.945 0 00-.853-.098c-.384.14-.713.51-1.024 1.168-.046.097-.088.19-.125.282a3.416 3.416 0 00-2.298 1.103c-.097.107-.287.185-.486.26h.004c-.408.143-.593.477-.82 1.08-.315.842.01 1.672.33 2.21-.436.388-1.016 1.01-1.321 1.737a5.528 5.528 0 00-.408 2.256c-.324.343-.825.987-.88 1.71-.075 1.01.291 1.695.454 1.946.046.074.097.134.153.194a1.074 1.074 0 00.58 1.154c.61.324 1.463.463 2.12.134.237.25.668.491 1.45.491h.047c.2 0 2.73-.134 3.466-.315.329-.078.556-.217.704-.343.473-.148 1.78-.593 3.012-1.39.87-.565 1.172-.685 1.82-.843a1.23 1.23 0 00.946-1.362z"
    fill="#fff"
  ></path>
</svg>
