<svg viewBox="0 0 24 24" xmlns="http://www.w3.org/2000/svg">
  <path
    fill-rule="evenodd"
    clip-rule="evenodd"
    d="M16.829 10h7.004c.11.648.166 1.313.167 1.991v.018c0 .678-.058 1.343-.167 1.99h-7.005l4.953 4.954a12.124 12.124 0 01-1.295 1.532l-.001.001a12.09 12.09 0 01-1.532 1.296L14 16.828v7.005c-.648.109-1.313.166-1.992.167h-.017c-.678 0-1.343-.058-1.99-.167v-7.005l-4.954 4.954a12.085 12.085 0 01-2.829-2.829L7.172 14H.167A12.002 12.002 0 010 12.004v-.008C0 11.316.167 10 .167 10h7.005L2.218 5.047c.39-.546.822-1.058 1.295-1.53l.002-.002c.473-.474.985-.907 1.532-1.296L10 7.172V.167A12.06 12.06 0 0111.994 0h.012c.68 0 1.345.058 1.994.167v7.005l4.953-4.953a12.093 12.093 0 012.828 2.828L16.83 10zm-2.29 4.539c.297-.789.46-1.642.46-2.534v-.01c0-.892-.163-1.746-.46-2.533A7.17 7.17 0 0012.005 9h-.01c-.892 0-1.746.164-2.535.462A7.181 7.181 0 009 11.995v.01c0 .892.164 1.746.461 2.534.788.297 1.642.46 2.534.461h.01a7.197 7.197 0 002.534-.461z"
    fill="#FF4A00"
  ></path>
</svg>
