<svg viewBox="0 0 24 24" xmlns="http://www.w3.org/2000/svg">
  <path
    d="M3.7 15.79l-1.256.478-.068 3.893 4.346-1.655c-1.49-.522-2.579-1.44-3.023-2.716z"
    fill="#FDBD39"
  ></path>
  <path
    d="M4.356 11.671L0 13.331l2.444 2.937 1.255-.479c-.442-1.272-.17-2.71.657-4.118z"
    fill="#F69833"
  ></path>
  <path
    d="M11.687 6.052C6.14 8.165 2.563 12.524 3.699 15.79l20.089-7.651c-1.136-3.265-6.554-4.2-12.101-2.087z"
    fill="#FECF33"
  ></path>
  <path
    d="M15.8 17.876c5.547-2.113 9.13-6.453 7.988-9.737l-20.089 7.65c1.143 3.285 6.554 4.2 12.1 2.087z"
    fill="#EE6723"
  ></path>
  <path
    d="M23.788 8.139l-20.089 7.65c.394 1.131 1.894 1.688 3.998 1.688 2.052 0 4.679-.529 7.417-1.572 5.548-2.112 9.45-5.533 8.674-7.766z"
    fill="#F69833"
  ></path>
  <path
    d="M19.79 6.45c-2.052 0-4.68.53-7.417 1.573-5.548 2.113-9.45 5.533-8.674 7.767l20.089-7.651c-.394-1.131-1.894-1.688-3.998-1.688z"
    fill="#FDBD39"
  ></path>
  <path
    d="M18.68 20.368c-.591 0-1.463-.557-2.592-1.654-1.335-1.3-2.865-3.201-4.307-5.356-1.442-2.155-2.627-4.31-3.336-6.067-.774-1.915-.884-3.092-.328-3.5a.722.722 0 01.436-.134c.452 0 1.333.35 2.962 2.022l.035.037-.004.052c-.011.12-.022.241-.03.36l-.019.236-.16-.168C9.582 4.353 8.81 4.154 8.56 4.154a.282.282 0 00-.17.045c-.24.177-.256 1.042.494 2.898.697 1.726 1.865 3.848 3.288 5.975 1.424 2.127 2.93 4.001 4.241 5.277 1.414 1.375 2.052 1.523 2.26 1.523.072 0 .13-.016.174-.047.254-.187.254-1.113-.581-3.111l-.039-.092.084-.048.242-.14.1-.06.047.111c.592 1.416 1.146 3.215.42 3.748a.726.726 0 01-.439.135zm0-.219v.11-.11z"
    fill="#EE6723"
  ></path>
  <path
    d="M15.934 17.816l-.008.11c-.14 1.808-.51 3.983-1.472 4.071a.649.649 0 01-.06.003c-.654 0-1.273-.977-1.839-2.904-.536-1.823-.951-4.27-1.17-6.892-.22-2.62-.217-5.106.009-7 .245-2.062.712-3.14 1.388-3.201A.645.645 0 0112.843 2c.475 0 1.19.56 1.922 3.169l-.478.096c-.245-.872-.511-1.58-.775-2.068-.245-.45-.483-.699-.67-.699l-.019.001c-.293.027-.72.768-.957 2.767-.221 1.86-.224 4.308-.008 6.895.217 2.588.626 4.999 1.152 6.789.236.802.494 1.462.747 1.91.234.414.46.642.637.642a.22.22 0 00.018 0c.28-.026.809-.797 1.031-3.51l.492-.176z"
    fill="#EE6723"
  ></path>
</svg>
