<svg viewBox="0 0 24 24" xmlns="http://www.w3.org/2000/svg">
  <path
    d="M22 9.954l-2.41-.366v-5.81L22 4.98v4.973zM22 14.054l-2.408.341-.001 5.818L22 19.019v-4.965zM2 9.954l2.387-.35.07-.049v-5.71l-.07-.067L2 4.982v4.972zM2 14.054l2.387.338.061.075.007 5.642-.068.104L2 19.019v-4.965zM7.179 14.796l4.798.702.048.065.006 8.344-.054.093-4.798-2.395v-6.809z"
    fill="#000"
  ></path>
  <path
    d="M16.774 14.796l-4.797.702V24l4.797-2.395v-6.809zM7.179 9.204l4.798-.698.022-.021-.01-8.472L11.977 0 7.179 2.396v6.808z"
    fill="#000"
  ></path>
  <path d="M16.774 9.204l-4.797-.698V0l4.797 2.396v6.808z" fill="#000"></path>
</svg>
