<svg viewBox="0 0 24 24" xmlns="http://www.w3.org/2000/svg">
  <path d="M3.575 6.032V2.38L1 5.301v2.551l2.575-1.82z" fill="#000"></path>
  <path
    fill-rule="evenodd"
    clip-rule="evenodd"
    d="M3.575 12.766l-1.81-.23-.643.01L1 12.535v2.54l.765.398 1.81.942v-3.649zm-1.81-1.294l1.81-.244V7.592l-.005.003-1.805.933L1 8.924v2.539l.02-.002.745.01z"
    fill="#000"
  ></path>
  <path
    d="M1.032 16.17L1 16.145v2.55l2.575 2.922v-3.652l-2.543-1.797zM20.494 6.01l2.422 1.676.08-2.385L20.42 2.38 15.496 0H8.499L3.575 2.38v3.652L8.5 4.555h6.997l4.924 1.477.074-.023zM3.575 17.966v3.652L8.5 24h6.997l5.036-2.382 2.463-2.921v-2.524l-.104.164-2.39 1.652-.066-.027-4.94 1.481H8.5l-4.924-1.477z"
    fill="#000"
  ></path>
  <path
    d="M22.83 11.425l.165.036V8.91l-.765-.395-1.81-.932-4.924-1.105H8.499L3.575 7.584l-.005.01.005-.002v3.636l4.924-.19h6.997l4.924.19.035-.017 2.374.214zM15.496 17.518l4.939-1.098 1.795-.935.765-.4v-2.538l-.166.021-2.409.198-4.924.195H8.499v-.005l-4.924-.19v3.65L8.5 17.517v.002h6.997v-.002z"
    fill="#000"
  ></path>
</svg>
