<svg viewBox="0 0 24 24" xmlns="http://www.w3.org/2000/svg">
  <path
    fill-rule="evenodd"
    clip-rule="evenodd"
    d="M0 17.161C.479 10.22 5.54 2 12 2s11.521 8.22 12 15.161c-2.026 3.519-6.915 4.841-12 4.841-5.084 0-9.973-1.322-12-4.84zm19.435-6.538c1.45 1.8 2.877 4.885 2.877 4.885l.142.882s-.763 3.977-10.305 3.977c-9.54 0-10.453-4.043-10.453-4.043l.178-.961S4.5 9.696 6.152 9.696c.868 0 1.473.65 2.047 1.266.517.556 1.009 1.084 1.646 1.084.713 0 1.874-1.462 2.962-2.833.96-1.21 1.865-2.35 2.356-2.35a.93.93 0 01.12.007 1.4 1.4 0 01.33.09c.068.026.139.059.211.096 1.042.537 2.432 2.105 3.61 3.567z"
    fill="#000"
  ></path>
</svg>
