<svg viewBox="0 0 24 24" xmlns="http://www.w3.org/2000/svg">
  <path
    fill-rule="evenodd"
    clip-rule="evenodd"
    d="M23.641 14.903c-1.603 6.429-8.115 10.34-14.545 8.738C2.669 22.038-1.244 15.527.359 9.098 1.962 2.67 8.473-1.244 14.902.36c6.43 1.603 10.342 8.115 8.739 14.544zm-6.35-4.613c.24-1.596-.977-2.455-2.64-3.027l.54-2.163-1.317-.328-.525 2.106a54.353 54.353 0 00-1.055-.249l.53-2.12-1.317-.328-.54 2.163c-.286-.066-.567-.13-.84-.198l.001-.007-1.816-.453-.35 1.406s.977.224.956.238c.533.133.63.486.614.766l-.615 2.464c.037.01.085.023.137.044l-.138-.035-.862 3.452c-.065.162-.23.405-.603.313.013.019-.957-.24-.957-.24l-.654 1.508 1.714.427c.319.08.631.164.938.243l-.545 2.188 1.315.328.54-2.165c.36.098.708.188 1.05.273l-.538 2.154 1.316.328.545-2.183c2.246.424 3.935.253 4.645-1.777.572-1.635-.029-2.578-1.21-3.194.86-.199 1.509-.765 1.681-1.934zm-3.008 4.219c-.407 1.635-3.16.751-4.053.53l.723-2.899c.892.223 3.754.664 3.33 2.369zm.407-4.242c-.372 1.487-2.663.732-3.407.546l.656-2.628c.743.185 3.138.53 2.75 2.082z"
    fill="#000"
  ></path>
</svg>
