<svg viewBox="0 0 24 24" xmlns="http://www.w3.org/2000/svg">
  <path
    fill-rule="evenodd"
    clip-rule="evenodd"
    d="M5.09 11.104a.463.463 0 00-.198.04c-.123.06-.287.031-.409.092-.118.058-.178.138-.273.202.01-.034.022-.066.033-.1-.012.016-.024.031-.038.045-.014.013-.02.035-.022.061a.639.639 0 000 .087c.002.03.004.061.003.087a.097.097 0 01-.014.044c.207-.098.482-.203.571-.115.074.073.108.162.186.24.012.012.04.017.067.025.016 0 .03-.003.041-.008.007-.004.023 0 .028-.005.017-.016.023-.031.042-.05a.132.132 0 00.028-.074.155.155 0 00-.033-.082c-.006-.006-.041-.031-.041-.037 0-.027.094.04.097.042.006.006-.002.025.005.031.009.01-.002.025.005.037.021.043-.017.112-.038.133-.026.026.032.01.042 0 .01-.009.019-.028.028-.037v-.013c.008 0 .008.07 0 .078a.174.174 0 01-.09.055c.095.07.231.129.301.198.02.02.136-.006.149-.019.088-.087.152-.242.26-.348.034-.033-.027-.192-.037-.202-.041-.041-.033-.143-.093-.202-.107-.106-.379-.207-.6-.205z"
    fill="#000"
  ></path>
  <path
    fill-rule="evenodd"
    clip-rule="evenodd"
    d="M4.29 10.934a.029.029 0 00-.014.008c-.002.002-.011-.003-.014 0-.014.014-.038.02-.056.036-.047.047-.088.094-.136.143a3.05 3.05 0 01-.7.18l.06.009c-.042.004-.108.002-.129.012a.325.325 0 01-.043.013h.052c.033 0 .067.01.098.01l.153-.002a.73.73 0 01.224.115c.032.027-.007.208-.014.24-.035.152.093.584.012.681-.035.043.02.166.033.25.042.032.08.135.09.158.012.022.04.048.04.071 0 .004-.053-.052-.059-.058-.008-.008-.049-.061-.078-.088a.633.633 0 00-.006.08c.017.019.036.036.045.053a.35.35 0 00.059.091c.02.02-.041-.014-.053-.02-.007-.003-.028-.02-.051-.037.001.188.02.45.028.528.016.163-.007.317-.007.314 0-.004-.08.096-.133.16-.08.096-.174.245-.272.368a.571.571 0 01.148-.115c.12-.053.414-.28.589-.4.038.027.12-.096.24.024a.532.532 0 01.056.165c-.085 0-.1.083-.055.128.023.023.046.012.064-.012.019-.053.037-.123.004-.156-.005-.005.005-.027 0-.032-.03-.03-.017-.088-.053-.123-.012-.012-.064-.04-.077-.069l-.004-.002c-.01-.01-.03-.008-.045-.013-.01-.014-.033-.04-.012-.096a.988.988 0 00.037-.372c-.004-.034 0-.107.009-.191a.762.762 0 01.051-.14c.014-.027-.002-.088.02-.109.01-.011.01-.035.008-.058l-.16.04.01-.009c.007-.007.032-.013.045-.02.044-.021.084-.044.11-.056a.025.025 0 01.004-.007c.04-.04.005-.158-.035-.242a.286.286 0 01.002-.062c.018-.122.017-.246.014-.37l-.022-.002c-.004 0-.082-.004-.101-.001l.035-.018a.547.547 0 01.087-.014l-.002-.066c-.061.005-.154.012-.144.002.015-.015.102-.015.125-.026a.221.221 0 01.018-.007 2.18 2.18 0 01.007-.222l.025-.014a.096.096 0 00.01-.045c-.002-.025-.006-.056-.011-.086a.648.648 0 01-.01-.086c0-.027.004-.05.016-.064.013-.015.023-.03.034-.047l.011-.05c.014-.059-.022-.145 0-.202.003-.009.032-.05.03-.058 0-.003-.003-.004-.007-.004-.024.004-.097.046-.146.073.011-.038-.025-.089-.055-.082zm-.052 1.785c-.005.005-.01.008-.01.003l.01-.003z"
    fill="#000"
  ></path>
  <path
    fill-rule="evenodd"
    clip-rule="evenodd"
    d="M2.151 9.027a.543.543 0 00-.104.021c-.225.075-.433.167-.65.239-.082.027-.178.115-.241.146-.262.13-.496.27-.74.403-.034.009-.065.013-.077.001-.198-.195.19-.305.13-.422-.093-.182-.387.05-.428.091-.039.039-.037.126-.037.202 0 .015-.01.083 0 .092.043.043.041.114.093.165.09.09.256.083.37.039l.003.005c.05-.022.087-.04.091-.044.211-.171.401-.244.65-.367.066-.032.343-.206.41-.238.087-.044.22-.067.352-.092a.183.183 0 01.094-.047c.028-.065.055-.13.084-.194zm.354 1.975c-.128.134-.266.224-.365.248l.008.004c-.087.02-.168.043-.213.087-.008.009-.043-.005-.055 0-.228.113-.547.082-.705.239-.098.096.642-.092.65-.092a.818.818 0 00.259-.055c.027-.014.099 0 .13 0 .208 0 .325.07.52.165.06.03.077.094.112.128.068.068.15.132.204.239.016.032-.008.158.019.184.168.166-.15.954-.26 1.064-.13.128-.276.254-.39.366-.05.05-.132.058-.186.11-.027.027-.105.016-.149.038-.148.073-.293.07-.446.147a.672.672 0 01-.22.031l-.198-.042c-.06.037.047-.031-.022.01-.02.012-.045.041-.074.041-.013 0-.089-.032-.098-.023-.01.009-.036.012-.047.023l-.042.04c-.038.039.015.12.07.12.026 0 .03-.048.042-.06a.196.196 0 01.12-.04c.002 0-.004.006-.004.008v.046a.457.457 0 01-.01.101c-.006.012-.002.03-.008.041-.003.005-.01.014-.005.014.017 0 .014-.133.088-.133.048 0 .072.036.111.055.02.01.046.01.066.019.012.006.025.008.037.014l.023.014c0-.015-.08-.05-.105-.101.149-.03.312-.002.463-.032.248-.049.478-.101.711-.214.001.009.004.016.008.02.006.006.054-.019.06-.022a.42.42 0 01.247 0s.025 0 .048.002a.187.187 0 01-.034-.016c-.007-.006-.087-.02-.112-.046a.071.071 0 01-.016-.038c.455-.446.886-.765.74-1.484-.039-.194-.075-.404-.186-.569-.184-.272-.552-.217-.678-.322-.025-.005-.051-.01-.061-.023h-.004l.002-.002a.022.022 0 01-.002-.01c0-.086.248-.137-.043-.294zm.394 2.803c.02.008.043.014.05.008.004-.005-.023-.007-.05-.008z"
    fill="#000"
  ></path>
  <path
    fill-rule="evenodd"
    clip-rule="evenodd"
    d="M2.156 9.112c-.03-.002-.105.043-.134.043-.102 0-.741.317-.8.376-.033.032-.046.161-.066.181-.058.057-.09.204-.128.341-.025.062-.042.132-.07.159-.009.01-.004.037-.012.045-.025.024-.068.041-.086.059-.006.006-.056.011-.072.02a.448.448 0 01-.042.017.223.223 0 01.049.008c.01.005.03.004.039.013.012.012.03.052.046.052.125 0-.043-.07.066-.077.042.043.172.304.203.433v.004c.003.014.004.03.006.045 0 .03.003.056.006.08.015.322-.037.858-.037 1.047 0 .126-.018.55.02.623.016.033-.007.086-.02.11-.065.13.056.7-.03.818.016.023.029.05.049.07.008.008.076.258.113.393.16-.002.323 0 .412-.043.094-.047.205-.075.289-.117.018-.009.098-.047.142-.062-.06-.008-.198-.055-.208-.055a.28.28 0 01-.09-.018l.01-.003a.434.434 0 01-.167-.405c-.054-.3-.015-.766-.015-1.03 0-.281.033-.575.037-.872-.023.007-.045.012-.05.006-.014-.013-.02-.125-.029-.194-.01-.021-.016-.038-.018-.04a.355.355 0 01-.059-.09c-.001-.004-.025-.04-.02-.04.013 0 .056.062.066.072a.02.02 0 00.008.005h.001c.013.002.023.003.024.002.018-.018-.013-.06-.013-.065 0-.015.002-.035.004-.057.02.015.037.023.048.011.05-.048-.04-.266-.065-.292-.004-.004 0-.032 0-.039a.26.26 0 00-.01-.062c0-.039.003-.076.008-.107.01.011.021.023.028.027.03.015.044-.048.053-.065.023-.047-.013-.142-.06-.233a9.81 9.81 0 00-.037-.533v-.001c.006-.029.013-.059.03-.076.02-.019.053 0 .08 0-.047.029.035.133.105.065.11-.11.183-.298.289-.403.01-.01.13-.131.118-.142a.016.016 0 00-.01-.004zM2.1 13.75c.016.003.028.002.028-.003s-.011-.002-.028.003zM.746 10.353c-.002 0-.004 0-.004.002l.004-.002z"
    fill="#000"
  ></path>
  <path
    fill-rule="evenodd"
    clip-rule="evenodd"
    d="M.614 12.728c-.01.002-.036.024-.043.027-.034.016-.08.027-.105.051-.028.029-.066.04-.098.072-.022.021-.037.05-.06.071-.008.008.027.078.033.091.014.026.013.058.027.084.012.025.018.116.033.13.013.014.006 0 .013-.006.003-.003.012.014.02.006.016-.016.053-.007.078-.02.045-.022.149.005.197-.019a.316.316 0 01.087-.024l.006.005v.002l.013.01a1.363 1.363 0 01.118.105c.046.045.119.365.13.377.047.046.05.196.093.238.024.024.035.053.055.074.026.025.071.033.093.055.028.027.174-.144.196-.166.009-.009.022-.041.027-.045.015-.008.039-.004.046-.019.002-.003-.001-.006-.007-.007l-.234-.24c-.044 0-.088-.198-.13-.24-.125-.123-.214-.226-.32-.333-.02-.034-.035-.071-.068-.103-.03-.03-.076-.06-.098-.104-.005-.01-.063-.07-.082-.066l-.004.001-.003.004a.14.14 0 00-.01-.01l-.003-.001z"
    fill="#000"
  ></path>
  <path
    fill-rule="evenodd"
    clip-rule="evenodd"
    d="M2.676 10.75c-.005.006-.019.022-.02.026l-.011.018.015-.018c.005-.005.012-.019.016-.027zm-.031.044c-.048.057-.075.136-.124.184-.038.037-.068.088-.046.11l.032-.022c-.009-.017.005-.035.014-.051.005-.01.018-.039.018-.028 0 .018.06.038.084.014.032-.032-.033-.073-.01-.12a.12.12 0 00.014-.045c0-.013.009-.028.018-.042zm-.296.378a.904.904 0 00-.194.058.73.73 0 00-.174.03c-.225.079-.433.176-.65.25-.082.03-.178.123-.241.156a8.4 8.4 0 00-.37.206.109.109 0 00.002.098c.016.03.033.05.052.061.115-.065.234-.12.372-.192.065-.034.343-.217.409-.251.087-.046.221-.07.352-.097.04-.04.097-.056.162-.056.02 0 .041.002.063.005.016-.004.03-.005.035 0l.009.01c.03.006.059.013.089.023.067.006.146.003.19.05.077.079.25.137.342.232.058.06.055.182.092.26a1.75 1.75 0 01.063.303c-.012-.025-.034-.089-.046-.102l-.042-.043c-.008-.007-.022-.005-.032-.007a.01.01 0 00-.002-.005c-.015-.016-.033-.008-.05-.017-.006-.004-.016 0-.022-.003-.067-.035-.128.073-.128.133 0 .034.056.106.1.117.01-.01.047-.007.06-.013.017-.009.04-.028.052-.028.002 0-.025.02-.042.037l-.04.03c.002.01.005.02.01.026.003.002-.001.012 0 .014.012.012.016.03.017.049.023 0 .049-.005.064-.005.024 0 .05-.015.05-.01 0 .007-.06.016-.07.02l-.045.014-.006.055h-.002c-.004.06-.014.12-.028.177v.021l-.026.063c-.13.39-.461.69-.65.737l.008.005c-.086.021-.168.046-.212.092-.009.009-.044-.006-.055 0-.229.119-.548.086-.706.251-.098.102.642-.096.65-.096a.783.783 0 00.26-.059c.027-.014.098 0 .13 0a.73.73 0 01.331.078.136.136 0 01.055-.024c.018 0 .17-.044.233-.053-.02-.007-.043-.021-.046-.039-.079-.018-.145-.038-.183-.078l-.002-.002a.083.083 0 01-.016-.013c-.002-.002-.039.002-.039 0 0-.01.193-.16.223-.191.048-.05.096-.06.145-.11.082-.085.207-.202.289-.287.002.003.172-.137.183-.15a.742.742 0 01.1-.083l.001-.001a.407.407 0 01.07-.12.166.166 0 00.028-.047l-.002-.022c0-.113.004-.22.008-.326.01-.103.013-.212.006-.314.002-.064.013-.357 0-.371-.02-.02-.046-.034-.066-.055-.007-.007-.018-.01-.031-.01-.023.006-.045.011-.048.015-.017.016-.045.025-.066.045-.015.015-.03.044-.052.065-.02.02-.033.04-.053.058 0 0-.02.033-.02.026 0-.002.018-.023.02-.026.015-.014.013-.051.027-.065.04-.04.1-.08.123-.144a.363.363 0 00-.108-.068c0 .007 0 .014-.002.018a.898.898 0 01-.079.13.087.087 0 00-.012.029l-.001.01c0 .002-.003.005-.006.008-.002.007-.004.01-.007.01-.005 0 .002-.004.007-.01a.229.229 0 00.007-.018c0-.018.004-.048.019-.062.004-.004-.003-.02 0-.026.009-.018.033-.089.026-.104l-.003-.008c-.153-.063-.367-.123-.463-.173-.041-.022-.093-.015-.119-.042-.051-.053-.213.032-.277-.05zM6.27 11.147c.048.08.222.137.215.194-.126.091-.304.14-.365.301a1.838 1.838 0 00-.143.232.632.632 0 01-.044.049c-.012.012-.025.04-.032.055a.237.237 0 01-.037.046c-.023.023-.046.087-.07.11l-.003.005-.071.032c-.023.011-.048.003-.07.014h-.008c.01.004.102.027.11.027a.237.237 0 01.097.029l.029.013a2.234 2.234 0 01-.076-.014l-.003.014c.015.015.037.028.05.04.002.002.02.002.02.005 0 .006-.013 0-.02 0a.725.725 0 01-.056-.006.517.517 0 000 .115l-.005.353c-.006.023-.003.05 0 .077v.05a.081.081 0 01-.008.021c-.004.01.004.024 0 .032l-.051.105c-.006.013-.036.076-.019.093.008.007.017.025.024.032.005.005.024.005.032.005.01 0 .02-.003.03-.006.003.056.007.113.013.17.073.139.213.232.325.337.133.123.299.2.431.32.083.097.18.334.322.181.203-.149.432-.264.603-.457.098-.013.174-.13.262-.188.061-.086-.03-.205.031-.295.035-.102.003-.218.012-.324-.005-.309-.008-.617-.022-.925.085.03.088.06.062.14.005.174.222.181.235.004.02-.144-.107-.21-.188-.295a1.783 1.783 0 00-.356-.193c-.102-.043-.221-.056-.304-.14a2.494 2.494 0 00-.349-.123c-.102-.06-.2-.115-.314-.147-.093-.04-.192-.06-.288-.088zm.558.406c.09.037.175.101.264.145.09.077.25.079.278.216a.9.9 0 01.025.08l-.008.008c-.017.017.026.065.026.091 0 .027-.026.032-.04.045-.017.018-.005.232-.025.273-.01.018-.001.085-.014.097-.036.037-.016.3-.052.37-.019.037.006.112.006.15v.064c0 .007-.007.018-.006.02.011.01.048.001.059.012.034.034-.057.073-.053.078.002.002.06.036.06.04 0 .002-.061.014-.066.019-.01.01-.025.312-.013.324a.088.088 0 00.061.023c-.135.081-.265.18-.41.24l-.003.001c-.028.018-.068.03-.092.042-.014.006-.053.037-.061.037-.002 0 .022-.013.033-.024.006-.006.04-.031.064-.057a1.068 1.068 0 01-.01-.058c-.035.003-.082.023-.082.015s.048-.04.074-.058a.468.468 0 00-.035-.122c-.013.006-.027.012-.04.023a.355.355 0 01.029-.031l.005-.005a.174.174 0 00-.078-.075 1.133 1.133 0 00-.39-.154c-.163.019-.217-.147-.188-.29.024-.191.03-.384.024-.577.006-.07-.006-.145-.004-.215.005.003.018.005.023.009l.009.014s.041-.07.046-.074c.064-.064.078-.16.14-.22.011-.011.012-.03.023-.041.018-.018.07-.06.07-.078 0-.016-.03-.057-.049-.079l.014-.023h.002c.021 0 .038 0 .056.01.007.003.076-.11.092-.134l.047-.063c.055-.023.113-.04.165-.063l.024-.005zm-1.214.623c-.004 0-.008.001-.01.004-.005.004.026.001.036.005-.008-.003-.018-.008-.026-.008zm1.154 1.472c-.002.003-.01.018-.013.018l.013-.018z"
    fill="#000"
  ></path>
  <path
    fill-rule="evenodd"
    clip-rule="evenodd"
    d="M8.236 10.908a.08.08 0 01-.011.013l.009.01c.006.007.026.02.026.033 0 .008.061.1.072.11.056.055.101.181.106.288l-.03-.023c0-.002-.002-.004-.003-.005-.084-.083-.171-.188-.256-.272-.015-.015-.04-.027-.06-.046a.854.854 0 00-.078-.058c-.016.015.04.03.04.052 0 .01.127.185.124.188-.008.008-.019-.006-.02-.007l-.029-.001c-.003-.001-.007-.002-.009 0h-.015c-.009-.002-.017-.005-.026-.005-.027 0-.054.004-.083.008h-.025l.01.002a.407.407 0 01-.046.003h-.01.003l.009-.003-.035.003-.006.005a.195.195 0 00-.057.014.099.099 0 00-.022.007l-.04.02c0-.002.033-.01.07-.02a.44.44 0 00.12-.013c.039-.02.103.04.145.013a.044.044 0 00.01-.01l.02.006a.027.027 0 00-.004.01c0 .011.022 0 .033 0 .008 0 .025.01.032.008a.416.416 0 01.088.043l-.006.003-.003-.001v.002a.668.668 0 00-.16.116c-.021.021-.019.074-.036.091-.031.03 0 .141 0 .161l.047-.088c.017-.034.072-.063.132-.077-.003.157.01.318-.003.472-.02.226-.019.467.01.69.006.054-.013.655.01.68a.834.834 0 01.082.118c.114.195.27.351.363.563l.074.17c.003.006.026.049.029.06.007-.011.05-.058.064-.103.035-.122.11-.206.176-.308.091-.14.224-.277.307-.372.018-.02.022-.046.028-.072.094.11.192.219.284.336.01.017.025.035.04.053l.002.001c.028.038.056.078.082.118.032.049.05.12.084.159.014.016.05.138.064.138.002 0 .109-.232.159-.309.065-.1.153-.182.213-.286.052-.088.09-.189.128-.255.03.014.068.01.094-.015.017-.018.018-.095.006-.117-.011-.024.006-.054-.006-.078-.023-.045.01-.11-.013-.156-.015-.028.013-.123-.007-.143-.025-.024-.009-.176-.028-.24l-.002-.057-.001-.007a2.491 2.491 0 00-.031-.292c-.011-.063.003-.129-.01-.19-.01-.042-.02-.571-.01-.606a.508.508 0 00.007-.028c.084-.072.192-.146.254-.177.014-.006.074-.027.074-.036 0-.011-.094.027-.167.027a7.355 7.355 0 00-.678.075c-.003.004.037.244.037.276 0 .087.042.31.074.383.028.063.025.19.047.266.002.008 0 .023-.002.038a.333.333 0 01-.07.114c-.002.003.025.025.027.026.018.019.018.076.033.104.013.026-.005.08.013.097.01.01.003.127.02.143.02.02-.02.222 0 .26.007.015.041.004.052.026.007.013-.015.024-.007.032h-.02c-.001.002-.032.013-.026.02.013.012.132.07.132.077 0 .01-.113.003-.125.026a.284.284 0 00.02.085c.01.01.035.01.064.016-.009.017-.006.077-.012.094a.986.986 0 00-.02.066c-.023.016-.047.032-.07.038-.052.015-.125.022-.158.06-.005.005-.09-.051-.105-.06-.102-.057-.216-.092-.314-.146l-.005-.004a4.508 4.508 0 01-.041-.35c.006-.038.012-.075.02-.113a.366.366 0 01-.023.002l-.053-.005c-.002.002-.003.002-.003 0h.003l.006-.004c.015-.007.035-.006.05-.014.007-.003.017-.002.025-.002l.004-.021c.007-.031.007-.065.008-.098a.151.151 0 01-.007-.03.455.455 0 00-.052.014c-.006.002-.015 0-.023-.001-.006.005-.014.01-.014.005 0-.006.006-.006.014-.005l.004-.004a.17.17 0 01.068-.025.85.85 0 01.015-.19h-.008l.009-.008.007-.05c-.028.004-.063.003-.086.003l-.005-.002a.031.031 0 01.005-.003c.012-.006.03-.003.042-.01a.25.25 0 01.047-.01.547.547 0 00.004-.052l-.073.011c-.02.008-.041.013-.039.01a.13.13 0 01.039-.01l.008-.003c.02-.01.051-.018.07-.03.006-.012.012-.024.005-.04-.043-.082.032-.22-.01-.302a2.038 2.038 0 01-.046-.358c0-.054-.042-.234-.037-.238.016-.016.186-.13.269-.183.007-.016.012-.031.009-.035-.003-.003-.007-.004-.013-.004-.017.002-.042.016-.052.016-.112 0-.228.01-.344.01-.013 0-.075-.01-.083 0l.001.015c-.128-.03-.2-.001-.215.035-.01.022.037.306.047.34.014.048-.014.112 0 .16.011.04.002.111.018.148.048.11-.03.322 0 .46.02.09-.006.167.019.251l.002.01c.006.068.011.167.011.198v.052c0 .007-.011.008-.007.013.015.014.039.02.056.031l.008.029c-.015.02-.054.04-.05.044.012.012.037.013.057.017l.002.016c-.025.008-.066.02-.066.031 0 .02.018.165.013.17a.489.489 0 00-.02.09c0 .017.035 0 .053 0 .006 0 .02 0 .032.002a.24.24 0 00-.038.032c-.079.09-.184.15-.282.225-.01.008-.05.048-.053.045a.542.542 0 00-.144-.113c-.019-.01-.028-.041-.046-.052-.078-.044-.141-.122-.213-.18a.138.138 0 01-.009-.017l.02-.005a.837.837 0 00.168-.028c.021-.02-.009-.099.007-.13.01-.02-.01-.057 0-.077.003-.007.008-.04 0-.04a.245.245 0 01-.072-.019c-.003-.003.08-.039.072-.039-.005 0-.009-.14.006-.155.013-.013-.015-.074-.02-.078-.016-.016.03-.055.034-.059.006-.006-.014-.083.006-.103.008-.008-.006-.079-.006-.098 0-.125-.02-.25-.02-.363V12v-.001c-.008-.025.006-.07.006-.088 0-.024-.003-.074.007-.084.003-.003.01-.005.016-.005a.33.33 0 00.056.09c.005.004.059.058.086.032.015-.016.032-.026.046-.04.01-.01.015-.047.026-.057.004-.004 0-.033 0-.04 0-.109-.012-.251-.079-.317l-.002-.002-.001-.002c-.033-.053-.085-.098-.113-.143a.078.078 0 00-.008-.011c-.001.006-.003.012 0 .015.054.054.135.257.091.344-.027.053-.002.065-.066.065-.007 0-.016.009-.026 0-.039-.039-.056-.098-.081-.154l.002-.002c.015-.014.011-.095 0-.117-.023-.046.012-.094-.013-.142-.05-.099-.088-.23-.17-.312-.038-.037-.082-.086-.132-.11a.71.71 0 00-.024-.01zm-.302.287l.032-.001a.17.17 0 00-.014-.001.071.071 0 00-.018.002zM9.44 12.44h.002c-.002.002-.003.004-.003.002v-.002zm-.614 1.803v-.001zM11.635 11.154c-.205.06-.68.653-.824 1.074-.017.05-.117.271-.043.327.063.047.131.15.205.205.06.045.14.055.23.047-.005-.047-.011-.104 0-.104.006 0 .022.053.039.1l.032-.005c-.01-.026-.017-.052-.006-.063.003-.003.022.026.04.056.088-.018.177-.044.263-.07-.002-.038-.005-.077.012-.077.01 0 .014.048.018.069l.036-.011c.004-.019.011-.077.012-.077.004 0-.002.009 0 .013.007.014.01.036.012.057.132-.036.245-.056.305-.012.055.041.09.152.115.188.12.173-.153.943-.237 1.053-.025.033-.169.276-.203.329.024-.01.075-.007.099-.024.11-.074.23-.198.31-.303.211-.275.344-.599.46-.938.033-.093.015-.204.047-.298.018-.052-.024-.173-.032-.229-.085-.608-.857-.051-1.028-.18-.242-.18-.101-.59-.025-.813.04-.115.065-.152.163-.314zm.006 3.099c-.01.004-.015.01-.014.021l.014-.021z"
    fill="#000"
  ></path>
  <path
    fill-rule="evenodd"
    clip-rule="evenodd"
    d="M11.073 13.376c-.002 0-.004 0-.006.002-.075.036-.136.13-.21.165-.03.014.08.006.104.014.035.012.205.103.224.14.016.035.07.062.088.096l.07.142c.02.04.071.15.08.211.003.024.001.052.009.067a.013.013 0 00.006.007c-.034.069-.078.178.074.157.182-.024.258-.182.344-.294.011-.015-.012-.028-.014-.03a.058.058 0 01-.012-.013c.034-.013.077-.033.065-.057-.034-.068-.133-.148-.191-.206-.06-.06-.475-.438-.575-.39-.013.007-.04-.011-.056-.011z"
    fill="#000"
  ></path>
  <path
    fill-rule="evenodd"
    clip-rule="evenodd"
    d="M11.055 13.333c-.005 0-.01.002-.012.005-.043.056-.199.117-.302.176l-.004.003c-.09.04-.186.125-.195.26-.002.027.033.05.037.06.023.055.063.084.114.087.2.014.237-.288.107-.375.038-.013.076-.02.095-.005.002.002.03.032.043.015.028-.036.266-.083.279-.1.008-.01-.104-.111-.12-.117-.004-.001-.026-.01-.042-.01zM11.632 11.175c-.05-.005-.197.21-.224.254l-.018.132c-.045.024-.084.012-.125.013-.005 0 .066.052.074.06a.308.308 0 00.076.049.104.104 0 01.03-.05c.007-.007.009-.04.02-.04.004 0-.033.059-.03.099l.047.02c.02-.02.04-.06.062-.06.008 0-.018.045-.02.078.027.01.053.02.076.031l.002.001a.019.019 0 00.003.004c.025.025.082.01.104.031.007.008.026.007.043.007a.1.1 0 01.008-.029c.01-.019.02-.04.02-.058l.002-.005c0-.005 0-.008.005-.008l-.005.008c.001.01.009.029.005.037a.16.16 0 00-.01.058.024.024 0 01.01.005c.007.008.027.003.035.011.006.006.014.01.025.012.013-.044.031-.105.045-.105.009 0-.007.056-.015.108.055.003.138-.012.215-.023.053.012.114.005.159.027.014.007.037-.006.05 0a.154.154 0 00.038.01c.076.04.144.082.202.139.004.004.057.081.066.077.037-.018.01-.106.01-.139 0-.029.005-.062-.014-.08a.129.129 0 00-.033-.023c.001-.013.002-.026.006-.034.008-.016.038-.117.037-.117-.006-.006-.02-.005-.025-.01-.033-.033-.09-.052-.14-.077-.035-.017-.106-.005-.13-.03-.005-.005-.022-.006-.041-.007a.227.227 0 00-.067-.02.465.465 0 01-.15-.045c-.014-.014-.083-.02-.088-.025-.005-.005-.008-.013-.012-.02a1.003 1.003 0 01-.266-.171c-.023-.021-.032-.071-.053-.09a.015.015 0 00-.009-.005z"
    fill="#000"
  ></path>
  <path
    fill-rule="evenodd"
    clip-rule="evenodd"
    d="M12.393 11.707c-.001.015-.019.044-.003.045.015.001-.001-.06.003-.045.013.048.004.072.011.101.005.019.039.03.044.049.003.01.038.015.044.025.02.031.096.076.104.108.002.007.01.025.013.019.012-.02.04-.248.043-.295.005-.079.104-.32.093-.36-.005-.018-.024-.035-.038-.057-.051-.078-.289-.093-.257.029.013.048 0 .117.04.176.031.048.13.017.115.008-.01-.005-.01.021-.007.031.003.012-.035.06-.042.071-.027.047-.044.105-.053.11-.012.008-.033.03-.021.036l-.09-.051zM13.782 11.24c-.014 0-.07.06-.091.081-.1.098-.21.18-.31.276a.39.39 0 00-.153.065c-.027.026-.055.058-.084.087-.02.02-.04.135-.051.147-.018.018-.038.06-.06.082l-.042.04c-.003 0-.006.003-.01.004-.04.013-.087.039-.128.039l-.075.006c0 .003.031.004.036.006.014.008.07.003.11.01l-.137.134a.135.135 0 00-.017.036.171.171 0 01-.041.015s-.112.034-.115.036a.011.011 0 01-.007 0c-.015.006-.026.013-.04.02-.003.001-.012-.002-.012.002 0 .005.058.004.065.004.023 0 .05 0 .07.01a.5.5 0 00.055-.008.113.113 0 000 .05c.01.018.022.024.037.023a.092.092 0 00-.007.011v.005c.005.002.027 0 .032 0h.027c.002 0 .006-.003.006 0 0 .002-.008.001-.01.003-.012.013-.03.024-.047.038.018.092-.007.194.011.285.038.189.062.498 0 .682-.008.024-.004.106-.021.123 0 0-.03.032-.021.04.018-.02.096-.059.12-.05-.015.01-.024.024-.015.04 0 .002-.002.008 0 .01.014.014.022.03.046.042.013.006.08.017.088.025.016.017.04.023.06.043l.012.02c.012.01.038.018.046.035.008.014.023.034.033.055.015.029.028.115.05.136.027.027.05.066.072.088.011.011.035.015.046.026.008.008.056.007.094.008.018.016.052.031.07.044.02.012.035.03.056.043.024.016.054.078.067.103.003.006.061.078.062.078.015.008.03.019.042.03.01.01.056.044.076.034.008-.004.024-.004.028-.009a.346.346 0 00.047-.063c.027-.024.074-.053.106-.075.103-.068.192-.163.289-.235.088-.064.187-.112.278-.172.078-.051.156-.149.227-.184l.017-.007a.138.138 0 01.016.017.75.75 0 01.035.226c0 .011.003.032-.003.038-.007.006.002.027-.004.033-.005.005.002.021-.003.026-.004.004 0 .062-.007.068-.008.008-.045-.089-.098-.036-.04.04-.043.126 0 .169.014.014.026.006.043.006.046 0 .068-.051.088-.071.006-.006-.002-.026.003-.032.007-.007-.006-.033 0-.04.012-.01.014-.051.014-.07 0-.025.006-.11.016-.13a.044.044 0 00.003-.023c.002 0 .01-.048.01-.055 0-.052.006-.108.007-.163.017-.033.008-.23.008-.252 0-.076.04-.236.01-.265-.066-.064-.657.006-.808.01l.012.011h.074c.005 0 .015.001.028.004h.001c.044.033.193.095.218.12.04.039.07.082.105.116a.03.03 0 01.007.01c0 .001 0 .002-.002.002a.71.71 0 00-.117.029c-.047.023-.124.034-.185.064-.04.02-.085.068-.124.103.028.073.09.182.093.182 0 0-.033-.034-.066-.065-.017-.018-.039-.062-.059-.072a.154.154 0 00-.022-.007.516.516 0 00-.051.033.376.376 0 01.008.013c.024.047.066.08.092.13.047.093.06.116-.013.007-.014-.02-.02-.034-.04-.052-.016-.016-.029-.036-.046-.052l-.028-.028a.458.458 0 00-.12.12.394.394 0 01-.061.092.393.393 0 00-.083.105.062.062 0 00-.006.029l-.011.01-.035-.025c-.001-.003-.002-.007 0-.011.012-.023-.004-.072-.018-.085-.002-.003-.01-.008-.011-.012-.014-.026-.06-.035-.077-.053-.003-.002.014-.021.016-.025a.07.07 0 01.007-.012.24.24 0 01-.03-.013c-.004-.002-.01-.001-.014-.002-.013-.005-.019-.016-.03-.021-.018-.01-.038-.016-.056-.025a.667.667 0 01-.163-.106c-.006-.006-.022-.008-.027-.014a.138.138 0 00-.04-.015 1.347 1.347 0 01-.11-.096l.006-.015c.022-.044.064-.072.084-.11.009-.018-.04-.066-.056-.096-.006-.012 0-.042 0-.055 0-.03.014-.248.021-.29-.013-.002-.032-.023-.04-.031-.016-.016-.038-.023-.056-.042-.01-.01-.014-.033-.023-.05-.06-.118-.056-.274.01-.33l.006-.01c.016-.033.06-.047.082-.069.004-.004.018-.005.023-.01.009-.008.047-.003.046-.003-.035 0-.072-.048-.072-.084 0-.037.01-.058.032-.081.018.001.035.003.04.009.002.001.024.023.028.019.006-.006.003-.026.01-.033.017-.017.037-.055.055-.073l.232-.23c.025-.023.18-.035.191-.045.021-.021-.034-.127.004-.165.042-.042.128-.081.186-.138l.004-.003a.346.346 0 01.051.04c.111.11.37.18.495.304.022.022.078.017.103.042.011.01-.05.099-.062.122a2.382 2.382 0 00-.008.21H14.5c-.007.03-.014.063-.008.074.014.029.013.064.013.097-.007-.01-.014-.021-.014-.032a.382.382 0 00-.03-.136.13.13 0 01-.04-.003.39.39 0 00-.062-.008c-.005.014-.002.132-.01.201.002.014.003.027-.002.037 0 0-.014.021-.006.006a.15.15 0 00.009-.043c-.003-.02-.01-.041-.01-.054a.424.424 0 00-.035-.151 1.077 1.077 0 00-.242.003c-.044.022-.071.063-.112.083-.017.008-.073-.009-.096-.009a1.18 1.18 0 00-.336.069c-.056-.008-.118.03-.162.04a.283.283 0 00-.101-.024.108.108 0 00-.045.01c-.026 0-.049.004-.059.014-.007.007-.024.018-.03.023a.039.039 0 00-.006.012l.002.003a.157.157 0 00-.048.064.283.283 0 00-.01.091c0 .057.046.096.075.138a.257.257 0 00.102.096c.03.015.097-.006.12-.018.029-.014.061-.026.093-.041.042-.021.055-.066.067-.107.015-.022.024-.07.027-.072l.02-.026c.042-.005.077-.008.09-.008-.015.046-.04.095-.037.098.006.006.06-.036.065-.04.02-.02.093-.035.13-.055a.059.059 0 00.016-.005c.012-.006.03-.003.043-.003h.023l.072.018.064.033c.12-.012.237-.025.33-.025.134 0 .257-.03.393-.03h.175c.011 0 .031.02.031.01v-.348l-.024-.022c-.014-.006-.01-.003-.01-.022 0-.037.015-.06.034-.08v-.015a.048.048 0 01.009-.006c.008-.004.024-.005.03-.01.002-.002-.017-.02-.017-.026 0-.007-.01-.019-.013-.022a1.899 1.899 0 01-.02-.104c.015-.03.02-.118.04-.136.01-.012.015-.038.026-.049.015-.015.027-.034.042-.049.002 0 .013-.008.013-.01 0-.005-.05.027-.056.03a.245.245 0 00-.075.06.095.095 0 00-.025.016c-.001 0-.03.038-.032.037-.003-.003.01-.063 0-.073-.04-.04-.096-.037-.159-.037-.004 0 .007-.03.01-.067l-.031-.014c-.142-.07-.28-.146-.433-.184-.093-.023-.191-.101-.269-.152-.066-.044-.164-.041-.216-.092h-.001zm-.197 2.554h.002c0-.002 0-.001-.002 0zm.92-1.335a.16.16 0 01.006.01v.006c.004.007.006.014 0 .014v-.014a.072.072 0 01-.005-.016zm-1.197.066c.084-.003.122.161.077.205-.014.014-.079.072-.102.06-.015-.007-.037-.01-.05-.023-.037-.036-.087-.1-.056-.16.03-.06.063-.071.092-.069a.084.084 0 01.039-.013z"
    fill="#000"
  ></path>
  <path
    fill-rule="evenodd"
    clip-rule="evenodd"
    d="M16.05 10.914a.984.984 0 00-.185.073c-.114.113-.533.255-.796.298h-.003c-.015-.015-.073.014-.102 0-.014-.007-.029-.002-.042-.008-.045-.023-.105-.035-.14-.07-.01-.01-.033-.005-.046-.018-.019-.019-.008-.053-.023-.068-.018-.018-.04-.032-.06-.051-.01-.01-.042-.024-.052-.004-.02.04.045.08.07.105.027.026.064.05.103.069.022.01.047.03.06.041a.027.027 0 00.012.007c.039.041.48.066.498.085.008.007 0 .062 0 .073 0 .05-.035.364-.055.404-.064.126.044 1.284.074 1.43.022.109.024.23.004.348a.469.469 0 01-.2.248c-.038.02-.067.058-.079.07.025-.006.126-.01.139-.01h.02a.476.476 0 01-.051.06.951.951 0 00-.106.128l-.029.028c-.015.015-.016.035-.028.046-.002.002.001.01 0 .013a1.29 1.29 0 00-.023.042.135.135 0 00.013-.015c-.01.027-.016.056-.03.084-.01.018-.004.045-.01.064-.017.049-.015.102-.015.157 0 .009.005.034.01.04l.003.002c-.007-.016.006-.12.006-.139 0-.023.03-.112.046-.129.013-.013.004-.044.02-.06.012-.012.012-.034.027-.05.044-.043.078-.106.16-.117a1.31 1.31 0 01.235-.15l.113.002c.072 0 .16-.014.23 0a.711.711 0 00.131.013c.014 0 .194.01.255.016a.355.355 0 01-.032-.01.658.658 0 00-.157-.052 2.06 2.06 0 01-.244-.069c.027 0 .053-.001.057-.005a.395.395 0 00-.095-.009.796.796 0 01-.066-.027l-.032-.018a.373.373 0 00.025-.023c.127-.126.1-.667.297-.862.042-.041-.048-.159-.055-.166-.003-.003-.005-.01-.005-.02-.052-.048-.204-.159-.204-.163 0-.003.027.02.053.032.051.026.112.053.144.085h.008l.004-.044c0-.074-.002-.162 0-.252-.036 0-.074.004-.097.004-.033 0-.066.007-.066.006 0-.01.04-.01.046-.013a.462.462 0 01.12-.043v-.04h-.002c-.023-.012-.037-.02-.065-.02-.038 0 .02-.019.07-.032.007-.104.022-.206.05-.289.018-.055-.015-.127 0-.183.043-.173 0-.356.036-.532.014-.07.038-.15.038-.22 0-.031.04-.07.018-.092zm.154 3.057c.011.003.021.005.021.003l-.021-.003zm-1.117-.024l-.005.001c0 .002.002 0 .005-.001zm-.105.64c.002 0 0 0 0 0z"
    fill="#000"
  ></path>
  <path
    fill-rule="evenodd"
    clip-rule="evenodd"
    d="M16.533 11.1c-.276.005-.554.084-.659.24v.016l.083.017c-.027-.005-.061.002-.084-.011-.004.11-.02.256-.008.267.02.02.041-.018.056-.018.049 0 .134-.038.185-.055.085-.028.428-.02.497.034a.158.158 0 01.06-.07c.01-.005.028-.019.041-.022.005-.004.008-.006.01-.006.003 0 0 .004-.004.004l-.006.002c-.024.02-.071.083-.064.09.003.003.04-.01.051-.01l.012.002c.01-.002.018-.004.021-.001v.002l.018-.002c.02 0 .035.002.046.013h.01c.006 0 .015.004.025.007.01 0 .02.002.026.008l.014.008-.003.006c.002.002.011.018.008.018-.006 0-.018-.008-.02-.01-.017-.017-.105.014-.11.019a.09.09 0 00-.007.008c.004.008.004.021.011.028l.003.003c-.023.007-.041.02-.049.035-.006.012-.01.077 0 .086 0 0 .074.017.085.018-.002.006-.003.012-.006.015-.003.002-.02.036-.014.041.015.015.023.032.042.05.026.026.098.024.143.022v.001c0 .02-.117.01-.12.01-.006 0-.055-.012-.051-.005.015.03.04.048.07.066.026 0 .05-.002.06.007.023.023.063.019.111.019.199 0 .274-.12.353-.276.035-.07-.015-.176-.037-.22-.059-.116-.099-.207-.186-.293-.114-.112-.362-.168-.613-.163zm-.66.262v-.006l-.008-.002.008.008zm-.008-.008l.01-.014c.001-.07-.005-.12-.03-.096-.013.014.02.018.02.037 0 .025-.018.056 0 .073z"
    fill="#000"
  ></path>
  <path
    fill-rule="evenodd"
    clip-rule="evenodd"
    d="M18.224 10.801a.613.613 0 00-.16.104c-.044.056-.156.109-.186.194-.17.486-.288.802-.74 1.104-.07.046-.176.01-.247.045.067.008.314.035.356-.02.03-.039.17-.128.281-.198a.172.172 0 00.046.168c.004.005.023-.004.027 0 .007.007.014.01.023.012-.01.05-.018.095-.023.112-.14.422.165.091.101.272-.017.049.012.112-.005.158-.067.212-.011.443-.006.683-.038.048-.05.413-.08.451-.014.018-.041.04-.058.06a.425.425 0 01-.144.11c-.042.02-.302.345-.356.414-.012.015-.074.094-.066.1.012.01.125-.114.153-.138.051-.044.153-.098.242-.154a.14.14 0 00.06-.03c.007-.01.036-.004.044-.014.017-.023.062-.028.078-.048a.302.302 0 00.061-.12l.022-.012c.023-.038.074-.081.084-.094.013-.016.065-.021.078-.038.025-.032.095-.046.122-.08a1.8 1.8 0 01.146-.046c.024.003.051-.005.082-.023l.059-.016c.019.001.037.006.047.005.01-.002.154.023.154.026 0 .004-.03-.03-.032-.034-.025-.036-.062-.075-.09-.116-.018-.026-.04-.05-.058-.077-.008-.012-.01-.027-.014-.043l.02-.167.004-.039c-.082-.001-.22.002-.22-.012 0-.007.012 0 .018 0 .026 0 .127-.005.204-.012.008-.08.008-.136.007-.186-.096 0-.239.001-.239-.014 0-.009.14-.005.24-.005l-.002-.075a6.732 6.732 0 00-.173-.002c-.065 0 .073-.03.176-.05 0-.015.003-.031.005-.049.005-.047-.01-.096-.006-.143.006-.098.034-.196.04-.293.01-.14-.002-.28.006-.423a.14.14 0 00.042 0c.011-.001.03.014.037.005.02-.026.046-.048.066-.074a1.494 1.494 0 00-.01-.22c-.032-.024-.082-.17-.06-.233.017-.047.036-.361.028-.42-.005-.036-.002-.133-.03-.154l-.008-.005a.6.6 0 01-.002-.046.081.081 0 00-.017-.019c-.038-.028-.06-.06-.113-.077a.075.075 0 00-.014-.004zM18.232 10.674c-.255-.004-.413-.294-.277-.684a.991.991 0 01.136-.175c.006.005-.101.223-.05.216.004 0 .072-.184.113-.237.034-.043.252-.433.217-.46-.012-.009-.012.225-.01.224.03-.02.17-.318.16-.387-.004-.03 0-.105.011-.12.003-.003-.009-.05-.007-.051.01-.001.014.204.015.207.02.156.012.392-.085.456-.04.027-.087.147-.09.117-.004-.026.06-.002.076-.023a1.81 1.81 0 01.116-.12c.014-.002-.01.027-.008.04.012.092-.232.35-.223.409.001.011.197-.106.197-.104.008.053-.062.156-.093.195-.017.022-.04.098-.043.071 0-.003.074-.005.078-.01.006-.007.08-.078.097-.065.038.028.001.18-.024.212-.015.02-.051.02-.062.035-.004.005-.01.02-.011.014-.004-.027.226-.05.151.046-.075.098-.246.147-.384.194z"
    fill="#000"
  ></path>
  <path
    fill-rule="evenodd"
    clip-rule="evenodd"
    d="M18.145 10.588c-.012-.002-.04.005-.037-.007.002-.013.047.015.037.007-.008-.008-.048-.008-.056-.015-.016-.014-.03-.036-.05-.053-.01-.008.003-.043-.003-.054-.037-.063-.117-.241-.056-.31.014-.015.002-.083.014-.083.009 0 .035.083.043.09l.027-.002c.012-.013.01-.06.024-.075.046-.052.07-.137.12-.19.056-.064.056-.141.1-.19.004-.005-.008-.018-.001-.019a.468.468 0 01-.024.075c-.02.045-.073.181-.072.206.001.01-.009.027-.007.028.02.018.094-.106.114-.107.002 0-.038.067-.042.076-.01.022-.113.274-.085.299.005.004.133-.12.134-.109 0 .02-.095.22-.07.243.009.008.175-.107.19-.094.01.01-.11.12-.095.134.021.019.078-.01.103.013.057.05-.167.147-.214.15-.016 0-.08-.011-.094-.013zM20.239 9.08a1.027 1.027 0 00-.284.057h-.002c-.163.02-.345.06-.465.136a.525.525 0 00-.192.11l-.005.003c-.015.011-.035.027-.065.047-.015.01-.02.03-.033.04-.158.104-.214.293-.256.46-.008.03.003.068-.007.097a.27.27 0 000 .136l.033.091c.014.043.022.075.04.11.002.005.032.04.026.04-.006 0 .025-.004.033 0 .007.003.02.006.026 0 .018-.019.002-.055-.007-.072-.01-.02-.051.008-.059 0-.005-.005-.085-.272-.052-.305.016-.016-.004-.068.013-.084.027-.027.043-.178.079-.214.04-.04.06-.087.098-.123.023-.023.045-.04.065-.055.004.02.005.04.02.055.042.04.149-.003.213-.034h.01a.217.217 0 01-.032.047c-.012.012-.017.068-.033.084-.007.006-.018.096-.04.117-.002.002-.006.022-.012.043a.84.84 0 00.083.067c.011 0 .022 0 .022.006s-.01.002-.022-.006c-.01 0-.02.002-.024 0-.01-.005-.07-.023-.08-.013v.002c-.004.01-.015.06-.024.094a.482.482 0 00.07.053l.03.016c.013.003.023.006.023.01a.09.09 0 01-.023-.01c-.034-.009-.095-.02-.131-.052v-.001L19.208 10a.556.556 0 00-.01.231c.036.177-.03.377.027.545.029.087.043.183.065.273.038.149.111.289.158.428a.954.954 0 01.031.318.524.524 0 00-.105.137l-.006.018c-.14 0-.281-.005-.421-.018l-.037.046c-.004 0-.007-.002-.01 0-.023.023-.021.153 0 .174.024.024.179-.009.214-.009.084 0 .183.003.27-.012a.314.314 0 00.092.13.39.39 0 01-.015.15c-.044.131-.021.284-.066.415-.035.104-.081.203-.118.311-.034.103-.067.243-.131.338-.072.107-.163.218-.223.337-.042.082-.133.144-.184.22-.08.118-.132.208-.223.299-.052.051-.206.25-.237.311-.022.043-.062.08-.065.125.036-.034.133-.103.157-.138.103-.152.23-.227.355-.35.042-.042.127-.06.17-.104.088-.086.197-.199.342-.246.082-.027.172-.04.25-.078.043-.022.223-.013.249-.039.01-.01-.037-.055-.088-.11a.16.16 0 00-.056.013.769.769 0 01-.119.039c-.015-.015.088-.06.144-.086a.379.379 0 01-.077-.118.643.643 0 00-.126.06c-.013.014-.033.024-.05.037-.01.01-.02.022-.029.022-.003 0 .005-.004.007-.006l.021-.017.012-.016c.035-.034.083-.05.118-.084l.042-.041v-.001a.06.06 0 01.017-.03c.042-.041.009-.177.053-.22.044-.044.047-.138.091-.181.122-.12.159-.313.25-.494.026-.05 0-.13.026-.181.017-.032.014-.074.014-.113.025-.011.058-.025.074-.041a.234.234 0 00.072-.166c.14-.008.329.01.43.01.022 0 .07-.004.123-.011.002.07.01.131.023.172.014.04.02.093.02.136 0 .021.01.046.013.058l.013-.078c0-.063.02-.143.02-.214 0-.028 0-.057.002-.087v-.001l-.01-.015c-.01-.02-.034-.03-.053-.04a.197.197 0 00.034-.006c.009-.008.022-.006.04-.006.007 0 .018-.008.02-.007.013.014.017.063.025.072.01.01.096-.031.112-.04.033-.015.168-.01.184-.025.01-.01-.031-.005-.033-.007-.016-.016-.06-.013-.085-.026a1.36 1.36 0 00-.145-.058c-.021 0-.05.043-.059.052-.001.001-.037-.007-.067-.013l.021-.02c.008-.008.017-.014.026-.021h-.005a.586.586 0 00-.06-.31 1.752 1.752 0 00-.035.312c-.194 0-.392.01-.59.02a.472.472 0 00-.098-.134 2.255 2.255 0 00-.157-.483c-.027-.054-.025-.127-.053-.181-.145-.289-.374-.597-.197-.947.025-.048.017-.133.053-.17.075-.073.127-.172.25-.233.08-.04.165-.13.249-.13.05 0 .15-.042.21-.012.121.06.241.121.315.194.027.027.033.103.053.143.043.085-.026.363.026.467a.13.13 0 01.012.044.393.393 0 01-.022.002.43.43 0 01.056.045c.002.002.008 0 .013 0-.002 0-.004.003-.006.005-.018.003-.032.009-.033.014-.029-.028-.055-.04-.079-.04-.04 0-.077.032-.112.066-.047.047-.078.175-.078.253 0 .022 0 .162-.007.169-.01.01-.018.135-.033.149a.506.506 0 00-.04.084c0 .007.031-.044.073-.065a.336.336 0 00.081-.062c.022-.018.04-.038.044-.041.074-.073.198-.157.276-.234.048-.048.042-.11.072-.168.006-.013-.006-.034 0-.046.034-.068-.011-.096-.065-.1.05-.101.062-.25.084-.36a1.19 1.19 0 00-.052-.39c-.056-.167-.064-.392-.236-.506-.197-.129-.321-.18-.458-.178zm.504 3.363zm-2.528 2.324c-.008.008-.014.015-.014.018 0 .009.014-.004.014-.013v-.005zm1.526-2.981h.005a.769.769 0 00.112.069.423.423 0 01.084.068V12.065c0 .012.015.067.004.078a.719.719 0 01-.135.087c-.01.005-.113.067-.12.06a1.85 1.85 0 01-.088-.092c-.016-.017-.074-.067-.084-.077a1.349 1.349 0 01.005-.207c.04-.05.098-.06.134-.087a.409.409 0 01.083-.041z"
    fill="#000"
  ></path>
  <path
    fill-rule="evenodd"
    clip-rule="evenodd"
    d="M18.93 11.692c-.103.04-.163.14-.186.254a.156.156 0 00-.057.012c-.005.036-.01.059 0 .077.002.003.021.002.046-.002 0 .021 0 .042.002.063a.169.169 0 00-.06.017c0 .027.003.068.019.068l.05-.014a.398.398 0 00.071.17c.019.024.077.104.11.08-.038-.06-.073-.105-.098-.176a.375.375 0 01-.01-.096l.041-.012c.017-.013.125.017.125-.01 0-.017.006-.06.006-.068 0-.014-.017.01-.026.01-.011 0-.065-.011-.072 0-.014.02-.045.026-.075.028 0-.025.003-.05.005-.074.05-.008.097-.017.11-.017.009 0 .052.01.058 0 .01-.016-.012-.002-.006-.022.003-.012.013-.02.013-.033 0-.012-.013.01-.02.01h-.098c-.016 0-.034-.004-.049-.008a.229.229 0 01.025-.077c.006-.01-.002-.03.005-.04.033-.048.045-.092.07-.14zM19.573 12.025c.005-.026.051-.133.063-.132.013.002.035 0 .05-.002.028-.005.052-.018.082-.014.002 0 .101.137.102.137l-.035.07a.287.287 0 00-.023.086c0 .003-.04-.006-.045-.007-.041-.007-.075.018-.112.012-.001 0-.057-.116-.082-.15zM21.344 9.997v.018c.002-.01.003-.018 0-.018zm0 .018l-.012.057a.073.073 0 01.012-.02c.002-.003 0-.022 0-.037zm-.012.057a.476.476 0 00-.026.145c0 .071-.128.495-.174.548l-.002-.016c-.009 0-.006.013-.006.025-.03.031-.064.078-.09.116-.05.048-.104.094-.163.152-.01.01-.042.013-.056.028-.013.012.058.187.065.193h.002c.076-.037.183-.102.183-.102.004.005-.041.051-.046.056-.028.027-.038.091-.066.119a.435.435 0 00.002.093c.073.166.177.369.262.523a.843.843 0 00.15.019.435.435 0 00-.033.025c-.006.007-.04.003-.046.01a.305.305 0 01-.03.022c.051.089.089.15.099.154.206.107-.206.362-.102.416.09.046.59.143.619.231.023.075-.79 1.101-.906 1.32-.048.09-.484.804-.462.874.001.004.138-.177.168-.206.182-.174.341-.257.525-.433.108-.103.272-.182.349-.217a.487.487 0 00-.172.162c-.057.11-.207.198-.299.286-.274.261-.448.624-.603.918-.018.034-.195.338-.066.404.332.172.6-.02.76-.427-.053.1-.15.114-.18.17-.057.108-.447.16-.424.016.083-.508 1.025-1.364 1.55-1.865.055-.052.363-.238.38-.271.008-.014.003-.037.002-.055-.068.044-.215.121-.285.143-.072.023-.702.363-.71.336-.014-.042.05-.072.083-.103.218-.208.405-.637.686-.905.363-.346.66-1.078.932-1.553-.049-.011-.1-.02-.09-.03.008-.008.064-.01.12-.02l.041-.066-.042.001h-.058c.019-.003.051-.013.052-.013l.057-.003c.024-.037.048-.072.071-.104-.046-.032-.112.01-.174.01a.02.02 0 01-.005-.001c-.006.003-.009.003-.009 0 0-.002.005-.001.009 0 .016-.008.053-.032.09-.032.021 0 .078-.009.123-.02l.007-.009c.07-.036.199-.101.205-.107.021-.02.102-.148.111-.175.01-.028.049-.052.066-.078.033-.05.073-.098.099-.149.021-.043.067-.21.085-.227a.443.443 0 00.04-.11c-.02-.02-.287-.047-.329-.026a.977.977 0 01-.138.045.249.249 0 00-.072.04c0 .002.032-.013.033-.014.013-.013.048-.002.059-.013.024-.023.2-.009.216.007.007.006.02.006.027.013.025.024-.012.08-.041.116-.038.002-.074.004-.1.012-.282.087-.662.075-.793.322-.163.309-.129.86-.219 1.03-.066.126-.213.05-.256.019.008.053-.072.263-.078.276-.039.073-.178.478-.197.484-.07.022-.514-.786-.641-.916-.045-.046-.01-.298-.064-.326-.088-.045.032-.433-.052-.407-.043.013-.11.027-.18.045a.34.34 0 00-.017-.046 1.06 1.06 0 01-.016-.106.21.21 0 01.026-.041l.015-.012c0 .005 0 .009.003.012.008.007.02.01.028.018.04.04.168-.047.176-.055.026-.025-.04-.103-.046-.11-.006-.006.006-.03 0-.037-.055-.054-.028-.181-.028-.274 0-.08.01-.147.01-.212 0-.02.002-.042.006-.062zm1.055 1.769c-.002-.01-.007-.015-.014-.012-.002 0 .005.005.014.012zm.109 1.665c.037-.025.05-.04.012-.027-.011.003-.013.014-.012.027zm-1.328 2.004c.023-.045-.158.036-.132.079.027.043.088-.053.132-.08zm1.992-4.204l.012.002c-.008.002-.013.002-.013 0l.002-.002zm-1.79.663h.002l-.003.002.001-.002z"
    fill="#000"
  ></path>
</svg>
