<svg viewBox="0 0 24 24" xmlns="http://www.w3.org/2000/svg">
  <path
    d="M7.515 12A4.49 4.49 0 0012 16.485 4.49 4.49 0 0016.484 12 4.49 4.49 0 0012 7.515 4.49 4.49 0 007.515 12z"
    fill="#000"
  ></path>
  <path
    d="M22.326 6.08a.197.197 0 00-.001-.198A11.991 11.991 0 0012 0a11.948 11.948 0 00-9.38 4.517.197.197 0 00-.018.221l3.379 5.851a.197.197 0 00.36-.049 5.843 5.843 0 016.184-4.36h9.63c.071 0 .137-.038.171-.1z"
    fill="#000"
  ></path>
  <path
    d="M13.773 17.699a.196.196 0 00-.208-.069 5.833 5.833 0 01-1.565.213 5.873 5.873 0 01-5.3-3.382L1.882 6.115a.196.196 0 00-.17-.099H1.71a.197.197 0 00-.17.1 12.006 12.006 0 001.398 13.75 11.998 11.998 0 007.3 4.003c.07 0 .136-.037.171-.098l3.38-5.853a.197.197 0 00-.016-.219z"
    fill="#000"
  ></path>
  <path
    d="M22.99 7.492h-6.764a.196.196 0 00-.138.337A5.798 5.798 0 0117.843 12a5.802 5.802 0 01-1.052 3.343l-4.827 8.361a.197.197 0 00.17.295h.002a11.927 11.927 0 008.394-3.558A11.926 11.926 0 0024 12a11.94 11.94 0 00-.826-4.383.197.197 0 00-.183-.125z"
    fill="#000"
  ></path>
</svg>
