<svg viewBox="0 0 24 24" xmlns="http://www.w3.org/2000/svg">
  <path
    fill-rule="evenodd"
    clip-rule="evenodd"
    d="M12.004 7.177c.89.001 1.778-.1 2.645-.3a11.803 11.803 0 00-2.645-2.932 11.743 11.743 0 00-2.646 2.932c.868.2 1.755.3 2.646.3zM19.3 0a13.04 13.04 0 013.323.428c.463.124.919.274 1.365.45a.053.053 0 010 .067c-.191.4-.397.79-.618 1.17a.053.053 0 01-.06 0 12.203 12.203 0 00-1.365-.405 11.846 11.846 0 00-8.743 1.38 13.225 13.225 0 013.852 5.444c.546 1.462.824 3.008.821 4.567a13.03 13.03 0 01-1.055 5.142 13.086 13.086 0 01-3.61 4.863c-.166.142-.287.24-.505.405-.219.165-.445.322-.671.48a.053.053 0 01-.06 0c-.198-.132-.43-.303-.602-.43l-.07-.05a8.063 8.063 0 01-.504-.405 13.078 13.078 0 01-4.337-7.078 13.032 13.032 0 01.493-7.494c.098-.27.249-.63.332-.81l.044-.096c.055-.12.095-.21.204-.421.136-.263.264-.51.415-.75a13.156 13.156 0 012.849-3.36 11.846 11.846 0 00-8.736-1.41 12.4 12.4 0 00-1.394.415.053.053 0 01-.03-.01A12.967 12.967 0 01.012.915a.052.052 0 010-.068 12.27 12.27 0 011.35-.42A13.04 13.04 0 014.707 0a13.146 13.146 0 017.296 2.197A13.161 13.161 0 0119.3 0zm-8.525 21.118a11.61 11.61 0 00.543-3.51 11.593 11.593 0 00-3.203-8.016 11.598 11.598 0 00-.249 6.124 11.636 11.636 0 002.91 5.402zm2.48 0a11.6 11.6 0 003.203-8.016 11.64 11.64 0 00-.542-3.51 11.592 11.592 0 00-3.204 8.017 11.69 11.69 0 00.543 3.51z"
    fill="#000"
  ></path>
</svg>
