<svg viewBox="0 0 24 24" xmlns="http://www.w3.org/2000/svg">
  <path
    d="M19.782 3.197A10.948 10.948 0 0012.008 0c-6.063.004-11 4.915-11.005 10.946L1 12.8l1.449-.981a5.87 5.87 0 014.353-.926 5.657 5.657 0 012.872 1.432 7.71 7.71 0 01.65-1.157c.103-.151.213-.297.326-.44a7.536 7.536 0 00-3.517-1.644 7.809 7.809 0 00-1.385-.124c-.956 0-1.888.174-2.775.518.718-4.376 4.542-7.635 9.043-7.639 2.44 0 4.734.945 6.458 2.659a8.958 8.958 0 012.56 4.965 7.74 7.74 0 00-2.784-.525h-.135a7.865 7.865 0 00-.793.052c-.049.005-.098.013-.146.02a8.159 8.159 0 00-.353.054l-.155.03c-.119.024-.237.051-.354.08l-.126.032c-.147.04-.293.084-.437.132l-.027.008c-.326.11-.643.244-.95.397l-.025.013c-.143.072-.284.15-.422.23l-.034.021a7.386 7.386 0 00-1.917 1.645l-.067.082a7.517 7.517 0 00-.342.456 7.86 7.86 0 00-.53.901l-.011.023a7.48 7.48 0 00-.786 3.468l.001.102a6.733 6.733 0 00.02.358 6.082 6.082 0 00.037.375c.006.044.01.088.017.131a7.549 7.549 0 003.184 5.154l.21.134.002-.004a7.64 7.64 0 003.114 1.149l.15.02 1.115-1.779-.401-.01c-3.085-.085-5.595-2.65-5.595-5.718 0-3.02 2.374-5.528 5.404-5.71l.191-.007a5.92 5.92 0 013.466 1.025l1.442.976.003-1.844a10.823 10.823 0 00-3.218-7.736z"
    fill="#000"
  ></path>
</svg>
