<svg viewBox="0 0 24 24" xmlns="http://www.w3.org/2000/svg">
  <path
    d="M20.294 7.614c-.152.003-.29.147-.283.293.007.137.124.257.252.252.136-.002.267-.153.264-.302-.005-.166-.08-.245-.233-.243zM4.176 9.036c-.072.004-.153-.003-.215.057a.465.465 0 00.012.665.281.281 0 00.376 0c.145-.127.181-.314.095-.535-.052-.137-.123-.187-.268-.187z"
    fill="#000"
  ></path>
  <path
    d="M11.176 23.387a.19.19 0 01-.062-.113 1.04 1.04 0 01.017-.384c.038-.245.114-.485.102-.737-.005-.098-.019-.19-.119-.237-.107-.053-.186.004-.26.072a3.948 3.948 0 00-.387.434c-.122.151-.243.305-.364.456-.02.024-.04.07-.079.05-.03-.014-.019-.055-.014-.086.01-.11.024-.218.036-.329.014-.144.033-.288.01-.432-.032-.173-.155-.22-.293-.113a.834.834 0 00-.093.092 3.172 3.172 0 00-.295.413c-.224.348-.429.71-.697 1.027-.05.06-.103.118-.148.183-.048.072-.067.153-.021.23.04.067.109.091.185.086.081-.004.124-.064.167-.122l.62-.852c.013-.015.017-.043.053-.034l-.012.11c-.01.137-.038.274-.01.414.034.158.158.223.303.15a.894.894 0 00.202-.15c.117-.114.227-.235.329-.363.111-.144.226-.29.345-.447.035.12.021.229.016.337-.012.187-.047.374-.012.564.024.117.09.187.186.194a.434.434 0 00.276-.07c.124-.079.136-.237.019-.343zm8.573.046a.242.242 0 01-.15-.07 2.265 2.265 0 01-.359-.396c-.088-.12-.093-.12.026-.202.25-.172.338-.417.319-.71-.014-.219-.13-.346-.335-.38-.17-.028-.305.044-.431.145-.029.021-.045.048-.093.016-.105-.072-.205-.052-.293.039a.404.404 0 00-.102.187c-.124.504-.25 1.006-.369 1.512-.04.168.048.255.221.229.157-.024.236-.116.262-.32.026-.197.053-.391.11-.595.147.187.288.362.428.538.138.17.288.321.49.413.143.064.267.026.379-.075a.187.187 0 00.054-.206.156.156 0 00-.157-.125zm-.602-1.172a.388.388 0 01-.069.132 1.18 1.18 0 01-.492.353c.023-.156.05-.295.11-.425.061-.134.16-.223.31-.237.117-.01.174.064.141.177zm-10.522-.545c-.066-.026-.14-.03-.171.058-.02.05-.052.043-.09.038a.74.74 0 00-.66.219c-.376.37-.568.814-.547 1.354.014.357.219.53.564.451.683-.16 1.214-.835 1.242-1.582.007-.192-.167-.47-.338-.538zm-.095.78a1.247 1.247 0 01-.419.82.573.573 0 01-.321.138c-.15.012-.264-.081-.25-.233.029-.314.114-.612.321-.859a.444.444 0 01.526-.127c.11.043.148.098.143.262zm8.54-.194c.074-.024.162-.007.243-.01.211-.004.423-.007.628-.074a.343.343 0 00.19-.13c.07-.108.043-.18-.08-.184-.272-.012-.543-.034-.814 0-.162.019-.317.064-.377.247-.002.01-.014.024-.023.026-.186.048-.25.202-.3.358-.105.346-.198.696-.295 1.042-.024.084.01.14.078.182.055.034.11.032.172.015.321-.08.642-.166.978-.142a.256.256 0 00.126-.029.243.243 0 00.116-.24c-.014-.091-.085-.117-.162-.13a1.484 1.484 0 00-.175-.016 3.798 3.798 0 00-.614.053c.03-.229.047-.243.261-.243.16 0 .32-.01.47-.072.099-.043.163-.113.173-.226.007-.076-.024-.122-.103-.124a1.636 1.636 0 00-.188.002l-.45.04c.024-.052.037-.1.063-.136.043-.063-.007-.178.083-.209zm-10.094-.43a.76.76 0 00-.34-.115.93.93 0 00-.607.238c-.342.302-.542.694-.64 1.138a.647.647 0 00.074.482c.069.118.157.161.29.135.3-.063.59-.156.862-.305a.858.858 0 00.223-.168.292.292 0 00.083-.204c0-.075-.033-.101-.102-.104-.069-.002-.128.024-.19.046-.205.075-.405.166-.616.22-.105.027-.14.003-.162-.105a.304.304 0 01.004-.122c.04-.168.098-.331.186-.483a.817.817 0 01.243-.283c.138-.089.28-.137.438-.04.052.03.102.016.15-.013a.352.352 0 00.147-.201c.017-.05.002-.09-.043-.116zm9.185.11a.674.674 0 00-.919.051c-.154.161-.18.324-.083.526.074.151.176.28.276.415.072.094.148.188.214.286.048.07.024.125-.057.151a.195.195 0 01-.138-.005c-.14-.05-.264-.13-.37-.23a.243.243 0 01-.082-.125c-.012-.074-.052-.108-.123-.115-.082-.007-.155-.007-.203.08-.078.138-.057.263.086.393.274.245.6.353.925.38.298.004.481-.267.383-.522-.042-.115-.116-.216-.187-.314-.12-.159-.243-.312-.355-.476-.088-.125-.048-.216.098-.264.133-.043.247-.005.357.08.128.1.237.047.266-.116.017-.086-.029-.144-.088-.194zm4.18-13.054c.139-.048.274-.108.415-.152.078-.024.1-.07.104-.141.046-.605.09-1.213.138-1.818.008-.084-.007-.1-.092-.074-.45.144-.9.28-1.352.422-.138.044-.14.044-.202-.093-.229-.519-.407-1.057-.595-1.59a.396.396 0 01.007-.316c.067-.188.024-.377.02-.567-.003-.01-.006-.02-.006-.029a9.237 9.237 0 00-.252-1.548 6.048 6.048 0 00-.495-1.27 18.36 18.36 0 00-.73-1.275c-.112-.178-.231-.339-.43-.427a.691.691 0 00-.22-.048c-.088-.01-.138.024-.195.093a.418.418 0 00-.069.43c.188.41.36.83.523 1.25.01.02.022.04.038.068-.038-.002-.05-.022-.061-.043-.295-.31-.643-.557-.99-.804-.469-.337-.98-.603-1.49-.872a.569.569 0 00-.212-.065l-.38-.04c-.2-.025-.352.09-.352.292 0 .108-.046.132-.134.14-.078.004-.185.115-.195.192a.698.698 0 00.226.619c.44.415.866.845 1.292 1.275l.015.007c.012.01.021.022.028.038-.007.003-.014.003-.019.003a.057.057 0 01-.036-.022l-.004-.007c-.062-.036-.126-.07-.186-.11-.297-.2-.59-.404-.887-.598a.93.93 0 00-.457-.17.447.447 0 00-.388.143.282.282 0 00-.088.252c.016.147.114.238.221.313a8.12 8.12 0 011.354 1.173c.036.039.074.08.114.113.117.096.188.224.26.356.033.06.021.074-.043.074-.424 0-.828.118-1.235.204-.167.036-.33.094-.39.281-.065.209-.096.327.159.391.507.128.997.308 1.475.516a.47.47 0 01.117.077c.119.104.228.219.36.303.375.247.763.478 1.208.583.052.012.1.039.15.05.05.015.083.044.093.094.028.178.138.279.302.33.021.006.038.02.06.028.052.017.075.055.092.108.066.24.136.478.21.715.026.08.002.101-.07.123-.368.108-.735.22-1.101.334-.131.04-.133.043-.067.163l.9 1.635c.126.23.13.23.361.11.024-.012.058-.053.079-.014.021.036.06.089.024.13-.112.129-.188.28-.284.42-.03.045-.03.074-.004.117.1.167.2.334.297.502.012.02.034.043.029.058-.038.122-.081.244-.122.367a2.55 2.55 0 00-.314-.716c-.178-.288-.407-.542-.614-.811-.033-.04-.071-.077-.11-.115-.197-.207-.451-.332-.691-.478a1.012 1.012 0 00-.338-.127c-.372-.08-.74-.11-1.11.005-.075.024-.116.004-.161-.06-.09-.128-.164-.274-.286-.373-.297-.24-.611-.458-.977-.583a2.901 2.901 0 00-.857-.168 4.195 4.195 0 00-.46.017c-.392.031-.782.074-1.13.293-.069.043-.147.067-.219.108-.356.194-.709.386-1.006.68-.307.304-.614.609-.89.943-.319.384-.56.818-.776 1.267-.014.031-.021.07-.069.096l-.119-.744c-.007-.046.022-.043.053-.039.088.01.173.015.261.027.067.01.103-.005.12-.08.02-.102.045-.206.066-.311.081-.396.198-.78.3-1.17.019-.074.007-.1-.07-.12-.377-.09-.756-.192-1.134-.283-.071-.017-.105-.043-.083-.12.085-.298.123-.61.24-.9a.178.178 0 01.055-.087c.097-.076.169-.165.16-.302-.008-.103.04-.168.137-.214.18-.086.355-.187.526-.288a.836.836 0 00.324-.334c.318-.605.585-1.24.97-1.81.034-.05.06-.105.1-.148.25-.265.483-.545.764-.78.088-.075.112-.176.114-.286 0-.128-.073-.217-.15-.305-.073-.087-.15-.161-.276-.147-.028.003-.057-.01-.088-.014.02-.039.05-.048.076-.065.337-.218.672-.438 1.007-.658.407-.264.811-.53 1.22-.794.053-.034.077-.06.02-.11-.015-.013-.024-.03-.036-.044-.083-.099-.083-.099-.197-.029-1.138.713-2.275 1.429-3.413 2.142-.1.062-.1.062-.15-.05-.111-.263-.176-.539-.259-.81-.019-.062-.002-.098.045-.137.286-.23.548-.49.812-.742a.606.606 0 00.185-.37c.022-.17-.09-.259-.242-.196-.077.031-.15.065-.22.105-.673.375-1.391.632-2.129.848-.043.012-.08.026-.117-.02-.073-.09-.183-.14-.276-.208-.019-.015-.038-.02-.061-.015-.1.027-.203.056-.265.147-.157.233-.354.44-.502.682-.169.28-.33.561-.52.828-.036.05-.05.058-.084-.002l-.63-1.117a2.837 2.837 0 00-.222-.338c-.093-.118-.207-.176-.354-.159-.027.003-.06-.005-.07.036-.02.11-.07.226-.056.332.033.27.08.542.147.806.114.459.243.912.378 1.364.131.444.279.88.422 1.323.011.038.033.072-.02.103-.066.038-.173.058-.185.125-.012.07.05.151.078.225l.008.017c.023.058.035.144.078.166.057.029.11-.05.162-.082.048-.029.064-.021.086.029.123.293.25.583.376.876.019.046.023.092.007.137a4.166 4.166 0 00-.19.72c-.013.07-.039.07-.091.056-.275-.072-.55-.142-.826-.212-.121-.03-.121-.03-.135.094v.01l-.181 1.995c-.005.06.002.084.066.09.193.025.383.056.574.085.035.005.066.007.057.06-.043.226-.076.454-.124.677a.18.18 0 00.034.163c.066.086.13.175.197.264.045.063.078.144.038.209a.203.203 0 00-.033.118c.007.415.007.83.026 1.246.01.201.007.403.012.605.01.535.04 1.068.06 1.603.009.262-.036.521-.025.783.003.065.017.1.084.122.157.05.31.116.469.166a.278.278 0 01.183.156.44.44 0 01.038.219c-.003.072.024.115.08.156.246.177.489.36.734.542.644.48 1.29.963 1.936 1.44.06.046.074.082.039.147-.034.063-.055.134-.088.197-.03.057-.024.094.03.134.081.058.16.123.234.188.064.055.066.141.047.209-.014.047-.085.004-.13 0-.032-.003-.062-.01-.093-.015-.307-.05-.612-.13-.924-.156-.497-.04-.994-.084-1.496-.07-.027 0-.067-.024-.074.03-.007.043-.017.088.03.117.025.014.05.026.077.036.28.098.543.24.8.389.166.096.33.204.513.269.034.012.067.038.107.002-.275-.22-.55-.442-.825-.665.038-.029.069-.017.097-.014.331.026.66.072.98.148.707.171 1.409.363 2.104.574.229.07.471.104.676.243.05.033.078.067.074.13.012.014.026.033.01.045-.02.012-.036-.012-.05-.024-.163-.014-.324-.026-.484-.043-.459-.046-.916-.11-1.38-.096-.347.01-.695-.015-1.04.01-.49.033-.98.098-1.468.15-.024.003-.062-.002-.062.027 0 .036.015.077.06.086a.563.563 0 00.112.012c.247.01.492.008.74.013.614.014 1.23-.012 1.844.04.221.02.445.01.661.05 1.021.193 2.037.395 3.05.618.12.026.241.045.358.103-.055.05-.127.065-.157.137-.217.506-.36 1.04-.526 1.563a.177.177 0 00.119.216.275.275 0 00.35-.221c.019-.108.038-.216.052-.327.005-.036.016-.055.052-.067.131-.053.26-.108.39-.16a1.6 1.6 0 00.524-.325c.133-.127.245-.273.247-.47 0-.06.015-.099.062-.135.22-.17.414-.365.605-.564.183-.194.388-.365.595-.533.023-.02.042-.048.08-.034.179.073.355.142.555.221-.371.228-.724.447-1.073.66-.017.01-.036.015-.053.02a.804.804 0 00-.335.201c-.371.373-.562.814-.54 1.35.014.36.218.53.566.448.61-.143 1.13-.732 1.22-1.378.024-.18.053-.357-.075-.513a2.252 2.252 0 00-.177-.195.475.475 0 00.039-.026c.77-.463 1.61-.778 2.453-1.07 1.03-.359 2.082-.644 3.136-.918l-.074-.017c-.069.008-.136.015-.204.02-.29.026-.581.057-.864.134a.222.222 0 01-.11.022c-.014 0-.028 0-.047.002.064-.063.25-.264.3-.25l.002-.005h.005c0-.007.019-.021.019-.021.016-.029.04-.048.073-.05a.691.691 0 01.195-.188 1.14 1.14 0 01.16-.086h-.002c.159 0 .316-.194.482-.262-.002-.006-.01-.01-.014-.017a3.21 3.21 0 00-.7.159c-.487.182-.992.324-1.467.535-.736.324-1.468.648-2.175 1.035a.804.804 0 01-.076.036c-.02-.173-.036-.339-.055-.504-.005-.034.012-.048.04-.063.626-.333 1.254-.665 1.909-.938.538-.226 1.07-.471 1.61-.692.003-.005.005-.01.01-.01h.005c.002 0 .002.003.005.003.007.012.002.02-.005.026-.003.003-.005.003-.01.005h-.002a3.362 3.362 0 00-.369.66c.038.01.053-.002.067-.017.112-.12.223-.237.333-.357.212-.235.435-.459.697-.641.017-.012.045-.022.033-.048-.014-.029-.045-.015-.066-.01-.245.05-.49.096-.733.154-.081.02-.076-.01-.079-.067-.002-.197.027-.39.034-.586a.638.638 0 01.057-.247c.097-.226.195-.45.295-.675.05-.113.078-.233.097-.353.031-.192.055-.387.074-.58.031-.299.136-.58.186-.875.064-.374.116-.751.254-1.109.124-.317.243-.634.37-.948.173-.428.394-.833.499-1.29.036-.158.076-.302.005-.458-.04-.084-.053-.18-.081-.271a.396.396 0 01-.012-.204c.047-.245.069-.488-.062-.716-.036-.062.007-.1.043-.139.088-.091.093-.132.016-.23-.088-.11-.173-.224-.268-.327-.079-.084-.153-.175-.231-.262-.055-.033-.05-.055.012-.076zm-6.403 14.39a.554.554 0 01-.32.136c-.146.012-.26-.081-.246-.228.029-.321.114-.624.329-.876a.442.442 0 01.511-.12c.112.046.15.1.148.269a1.26 1.26 0 01-.421.819zm3.194-16.594c-.024-.068-.053-.104-.126-.087-.088.022-.136-.017-.174-.096-.062-.127-.112-.28-.214-.36-.102-.08-.264-.082-.4-.115-.102-.027-.205-.058-.31-.075a1.41 1.41 0 01-.606-.273c-.3-.224-.61-.43-.926-.627-.102-.007-.2-.036-.3-.06-.276-.057-.55-.117-.825-.17-.067-.012-.079-.063-.083-.108-.008-.056.007-.11.064-.144.088-.053.188-.063.288-.08.44-.07.885-.122 1.332-.13.11-.002.207.04.31.066.061.016.109.01.164-.03.214-.143.43-.28.645-.422.033-.021.095-.036.069-.093a.082.082 0 00-.015-.022c-.012-.01-.026-.012-.042-.012l-.05.002h-.008c-.242-.007-.459.07-.661.2-.079.05-.257.019-.307-.056-.338-.516-.816-.888-1.27-1.289-.203-.177-.4-.362-.615-.526-.054-.04-.078-.144-.042-.196.047-.072.11-.041.166-.015.183.082.36.175.524.293.559.403 1.159.744 1.756 1.085.016.01.033.02.05.027.09.03.138-.01.123-.106a.268.268 0 00-.061-.134c-.484-.574-.993-1.124-1.492-1.683-.105-.116-.229-.216-.345-.32a.854.854 0 01-.22-.278.161.161 0 01.024-.19c.04-.045.077-.055.136-.024.169.082.328.178.478.293.264.202.53.403.797.605.267.202.534.401.8.603a1.4 1.4 0 01.062.05c.05.046.093.094.14.142l.029.029c.019.019.035.045.06.06.054.033.111.062.168.004.02-.019.029-.036.031-.055 0-.007.003-.014 0-.021 0-.003 0-.008-.002-.01a.172.172 0 00-.043-.072l-.179-.187c-.1-.104-.2-.204-.309-.298-.345-.29-.7-.571-1.056-.845-.181-.14-.393-.233-.59-.348-.072-.041-.12-.101-.172-.159a.145.145 0 01-.024-.15c.022-.054.074-.051.12-.056a.358.358 0 01.197.05 18.84 18.84 0 011.456.805c.245.158.478.338.71.52.109.087.19.217.28.33.038.047.012.09-.024.124-.024.024-.057.039-.085.055-.031.022-.072.041-.06.087.01.04.055.05.09.057.053.01.11.008.157-.014.167-.07.307.048.415.166.028.03.04.093.092.074.055-.021.062-.081.057-.137-.011-.15-.05-.297-.083-.444-.088-.377-.266-.718-.414-1.073-.052-.127-.11-.254-.162-.382-.028-.07.01-.132.048-.182.03-.04.08-.005.121.014.15.068.236.19.31.332.078.15.176.29.259.436.143.255.319.495.433.762.167.388.378.758.478 1.176.086.37.207.732.25 1.114.017.144-.01.283.007.422.034.279-.007.543-.121.797-.031.07-.021.137.012.21.25.532.457 1.082.664 1.634.026.072.014.101-.06.123-.478.141-.956.288-1.435.434-.069.022-.09.003-.111-.06-.12-.321-.237-.644-.35-.967zm-3.003 3.044a.935.935 0 01.595-.031l.014.004c.257.08.519.142.764.26.04.019.083.038.112.077.16.115.304.247.426.405.188.245.376.492.552.773-.011-.003-.022-.008-.033-.013l-.002-.001a1.002 1.002 0 01-.182-.103 6.391 6.391 0 00-.668-.356 1.445 1.445 0 00-.329-.1c-.3-.058-.6-.068-.902-.041-.083.007-.169 0-.252 0-.062 0-.09-.03-.09-.092 0-.235.011-.473-.06-.7-.014-.049.014-.068.055-.082zm-.06 1.731a.19.19 0 01.006-.019c.003-.005.003-.01.005-.014l.005-.017c.002-.005.002-.01.005-.014.002-.005.002-.013.004-.017l.003-.015.002-.017.002-.014.003-.017.002-.014.003-.017.002-.014.002-.017c0-.005 0-.01.003-.015 0-.004 0-.011.002-.016v-.267c-.002-.081.026-.113.107-.11.08.002.161-.001.241-.005l.075.004c.04-.003.08-.004.12-.005.128-.003.254.005.38.024.216.017.416.058.544.164.093.04.186.09.276.144.219.132.438.269.657.403a.386.386 0 01.116.108l.222.315c.012.016.03.036.014.057a.037.037 0 01-.019.014c-.018.004-.034-.002-.05-.011-.098-.056-.197-.108-.295-.164a4.699 4.699 0 00-1.174-.459c-.106-.031-.206-.061-.32-.076l-.15-.034c-.005.003.005.012.017.024l.011.015a.138.138 0 00.04.033c.003 0 .015.007.02.01.226.115.607.187.885.317l-.005-.003-.014-.007a.199.199 0 00.012.005l.002.002c.022.01.043.022.062.032.155.081.295.182.436.29l.266.207c.4.293.645.689.764 1.169.002.014.007.029.01.043l.009.014a.126.126 0 01.017.096l.004.022c-.005.07-.06.04-.09.04a2.462 2.462 0 01-.605-.11h-.006c-.05-.016-.117-.04-.164-.054-.21-.075-.407-.164-.609-.238-.25-.089-.445-.262-.656-.413a7.727 7.727 0 01-.993-.816.34.34 0 01-.078-.106 4.177 4.177 0 01-.062-.153l-.036-.094a1.112 1.112 0 00-.024-.06l-.002-.005c-.002-.002-.002-.007-.002-.01v-.002l-.003-.01a.17.17 0 010-.103zm.871-.06c-.004-.02-.001-.027.004-.028.01.004.02.007.028.008h.002c-.012.008-.03.004-.034.02zm-1.05.523c.008-.023.021-.035.035-.031l.002.002c.007.003.014.01.021.024.076.154.18.281.297.399.124.12.258.23.386.348.267.242.537.48.811.713.176.151.388.228.614.288.514.132 1.04.182 1.561.255.138.019.262.064.371.155h-.007c.01.008.017.012.024.02-.293-.043-.585-.039-.878-.046-.321-.007-.635.031-.952.067a.968.968 0 01-.333-.026c-.305-.07-.592-.195-.88-.317-.326-.14-.598-.353-.854-.588l-.058-.055a1 1 0 01-.2-.28l-.002-.005-.003-.006c-.09-.212-.084-.448-.016-.708.02-.07.04-.14.062-.209zm2.583 4.209h-.062c-.038 0-.076.01-.114.012-.043 0-.07.019-.086.057-.017.039-.038.072-.057.11l-.007.017a1.537 1.537 0 01-.314.48c-.029.032-.06.06-.09.09-.08.071-.163.14-.248.203-.14.101-.302.164-.464.224l-.036.014a.408.408 0 00-.033.015l-.02.007-.03.01c-.036.014-.065.035-.046.09.02.06.062.077.117.08.012 0 .026 0 .04-.003.05-.005.1-.016.148-.033.048-.017.095-.039.145-.06a1.3 1.3 0 01.103-.041c-.029.122-.046.235-.084.34l-.021.054a6.786 6.786 0 01-.15.317 3.77 3.77 0 01-.402.655 1.673 1.673 0 01-.352.34 3.836 3.836 0 01-.103.073 2.76 2.76 0 01-.376.206l-.064.03-.052.02-.043.018c-.04.016-.08.03-.121.045a2.621 2.621 0 01-.167.053 4.784 4.784 0 01-.566.134c-.007 0-.012.003-.02.003-.054.01-.106.017-.161.026-.057.008-.114.017-.174.024a2.118 2.118 0 01-.578-.016c-.007 0-.014-.003-.021-.005l-.029-.008a.67.67 0 01-.143-.06c-.062-.033-.119-.07-.18-.1a1.686 1.686 0 01-.13-.072c-.054-.034-.109-.068-.159-.106a.63.63 0 01-.23-.279 1.825 1.825 0 00-.09-.194c-.01-.02-.022-.036-.032-.053a2.71 2.71 0 00-.273-.367c-.04-.048-.081-.096-.124-.142-.021-.024-.04-.048-.062-.07a7.058 7.058 0 00-.257-.276l-.067-.067a2.765 2.765 0 00-.361-.302 2.752 2.752 0 00-.3-.192l-.06-.039a1.576 1.576 0 01-.624-.762c-.042-.093-.106-.122-.217-.124a.619.619 0 01-.25-.048l-.003-.002a.45.45 0 01-.13-.084l-.026-.016c-.022-.026-.038-.058-.058-.09a5.31 5.31 0 01-.383-.658l.003.008-.005-.013.002.005a3.803 3.803 0 00-.072-.196l-.035-.085a.385.385 0 01-.015-.155l.008-.031.004-.015a.144.144 0 01.012-.029.457.457 0 01.126-.141c.022-.017.043-.034.067-.05.045-.034.093-.063.138-.094.07-.044.143-.084.216-.123.27-.14.555-.238.85-.314.017-.005.033-.008.052-.012.034-.008.07-.01.105-.015a1.59 1.59 0 01.105-.005l.104-.002c.017 0 .036 0 .053-.002a17.058 17.058 0 00.892-.063c.178-.017.357-.036.535-.055a3.448 3.448 0 001.116-.324c.036-.02.074-.036.11-.055l.062-.034c.142-.077.285-.151.423-.233.014-.019.031-.026.055-.033l.01-.003v.012a.06.06 0 01-.02.034l-.021.014c-.138.178-.328.3-.492.45-.017.014-.034.028-.05.045-.053.043-.105.089-.165.137.207 0 .407-.024.593-.08a1.637 1.637 0 00.861-.6c.102-.137.195-.298.276-.482.064.232.231.396.371.573l.029.039.028.038a.555.555 0 00.105.094c.017.012.031.021.045.033l.022.017a10.147 10.147 0 00.533.396l.326.228c.147.104.302.19.464.267.04.02.08.036.121.055.123.053.249.1.376.14l.021.007c.079.021.165.028.248.038.03.002.062.007.09.01a.195.195 0 01.06.024.406.406 0 01.066.05c.074.067.143.163.148.22 0 .01 0 .018-.002.025l-.005.01c-.01.016-.024.03-.033.048-.029.05-.06.1-.084.153l-.012.027a.314.314 0 00.003.261c.114-.115.216-.237.29-.377.021-.038.038-.076.055-.117.012-.027.021-.056.03-.084.01-.027.003-.058.01-.084.01-.03-.024-.07-.01-.09 0-.002.003-.002.006-.004a.038.038 0 01.014-.007c.01-.002.019-.005.026-.005.019-.002.036-.005.055-.005.047 0 .093.008.138.022.028.01.019.045.016.072v.005c-.004.086-.04.165-.071.242a.53.53 0 01-.024.055c-.052.13-.107.262-.19.375-.117.156-.252.302-.471.31zm.259.451c-.03.168-.057.334-.086.502-.007.048-.012.098-.047.165l-.007-.043-.012.024a5.354 5.354 0 01-.074-.706c-.002-.052.033-.064.067-.076.054-.02.123-.082.159-.053a.06.06 0 01.012.014c.002.002.005.002.007.005.043.034-.007.11-.019.168zm-3.52 3.563c-.089.014-.18.021-.27.021-.093 0-.184-.01-.277-.031-.05-.012-.068-.046-.064-.086.003-.027.022-.027.04-.027a.102.102 0 01.039.003h.178a1.123 1.123 0 00.316-.022c.015-.002.03-.005.041-.002.031-.003.055.004.057.052 0 .044.01.082-.06.092zM8.778 18.03c.048-.197.03-.4.055-.6.005-.04.026-.036.05-.014.038.035.074.074.112.11l.014.014c.02.017.022.039.012.06l-.221.45-.024-.008.002-.012zm7.66-3.327c-.083-.01-.167-.027-.252-.024-.17.005-.305-.084-.448-.161h.017c-.012-.007-.024-.012-.036-.02.024.003.05.003.074.005.029.003.055.01.083.015.236.05.464-.02.698-.043.24-.027.447.06.65.177-.006 0-.008 0-.013.003.01.005.02.012.031.016-.269.041-.535.06-.804.032zm-8.911-3.068c.078-.152.166-.296.26-.435.047-.07.094-.14.144-.206a7.115 7.115 0 01.312-.396 25.3 25.3 0 01.245-.289c.083-.096.167-.19.248-.285a.912.912 0 01.114-.099l.025-.03c.078-.067.146-.137.237-.21l.012-.01.066-.062c.238-.228.514-.406.79-.583a1.19 1.19 0 01.085-.051l.11-.048c.01-.004.02-.01.029-.012.056-.023.113-.045.171-.064l.117-.037c.138-.04.276-.074.411-.117.253-.082.514-.118.776-.115l.112.002c.195.01.385.086.564.166.078.036.157.07.235.108l.057.029c.058.028.117.057.172.09l.112.066c.035.024.073.045.107.072.072.05.14.105.204.165.217.202.37.44.46.72.064.202.111.409.128.617.017.202-.043.399-.095.594-.007.028-.02.036-.029.033-.014-.005-.021-.022-.033-.036l-.214-.25a2.085 2.085 0 00-1.033-.684 4.088 4.088 0 00-.985-.153c-.264-.008-.533.04-.797.09-.21.042-.419.075-.626.114-.135.024-.26.086-.383.141-.059.027-.118.053-.18.076l-.018.004c-.373.132-.69.36-1.015.57-.09.06-.164.14-.241.218l-.01.008-.064.065c-.15.147-.297.296-.459.43-.074.103-.173.175-.266.266.024-.17.069-.328.145-.472zm-.066.962a.283.283 0 01.04-.053c.33-.329.647-.677 1.014-.965.609-.48 1.273-.854 2.037-1.02.185-.04.373-.07.566-.07.219-.002.438-.01.654-.017a2.03 2.03 0 011.157.325c.13.08.25.176.36.284l.013.013c.122.124.23.262.319.411.078.13.057.271.03.413-.07.406-.314.706-.587.987-.262.268-.59.444-.895.648-.43.29-.923.403-1.425.477-.626.094-1.261.104-1.89.188-.228.029-.459.048-.687.089a1.06 1.06 0 00-.673.41c-.062.084-.1.187-.16.303a.531.531 0 01.026-.394c.11-.245.293-.418.529-.54.411-.219.87-.262 1.31-.375.358-.091.724-.144 1.079-.242a7.13 7.13 0 001.413-.55c.238-.125.485-.252.65-.485a.735.735 0 00.119-.557c-.005-.034-.015-.05-.027-.053-.011-.002-.028.007-.05.027-.178.16-.364.314-.566.449a3.287 3.287 0 01-1.028.42c-.576.144-1.156.266-1.749.31-.419.028-.83.105-1.228.242-.337.117-.68.235-.951.49-.034.03-.074.057-.129.098l.007-.038-.026.019.001-.005c.008-.006.015-.013.023-.017a.602.602 0 01.084-.2c.211-.34.426-.681.64-1.022zm2.374.632l.519-.087.09-.017a1.223 1.223 0 01-.34.109c-.555.139-1.12.22-1.682.326a2.568 2.568 0 00-1.095.487c-.019.015-.04.032-.062.043-.026.017-.038.013-.043-.009-.002-.005-.002-.012-.002-.02-.01-.143.033-.213.164-.273.179-.082.357-.168.535-.252.234-.108.484-.142.736-.168.392-.043.785-.094 1.18-.14zM7.783 3.843c.01.026.012.048-.017.065l-.254.158c-.008.005-.017.007-.046.02-.007-.013-.016-.034-.03-.051l-.536-.62c-.024-.028-.048-.055 0-.081.176-.101.31-.264.495-.35.048-.022.064-.025.088.028.119.269.2.555.3.83zM6.33 2.58c.253-.091.5-.194.75-.295.362-.144.69-.35 1.03-.533.036-.02.07-.043.105-.063.03-.014.057-.057.098-.036.047.027.03.077.03.135.012.06-.026.11-.08.16-.343.322-.7.627-1.066.922-.146.118-.324.173-.486.262-.033.017-.052 0-.071-.024-.12-.154-.236-.31-.355-.463-.045-.055.017-.053.045-.065zM4.173 5.864c-.271-.847-.557-1.69-.783-2.552-.052-.199-.073-.408-.111-.612-.012-.06.028-.091.066-.113.053-.026.055.036.074.06.373.521.628 1.11.933 1.669.09.168.192.331.29.497.019.03.033.057.08.04.053-.019.044-.052.034-.09-.038-.174-.126-.33-.19-.493a.182.182 0 01.002-.16c.136-.284.326-.531.476-.803.138-.247.314-.468.447-.717.07-.128.227-.15.331-.048.072.067.129.144.179.228.17.28.409.506.64.737.161.163.326.321.497.47.057.05.067.127.098.192.011.024.002.043-.02.055-.011.008-.023.013-.03.02-.14.12-.274.103-.438.019a3.156 3.156 0 01-.857-.646c-.01-.01-.019-.017-.028-.024-.115-.086-.12-.081-.17.05-.052.135-.085.274-.144.404-.022.045.011.093.045.127.038.038.064.098.133.089.03-.005.048-.022.055-.055.016-.08.038-.159.06-.257.259.22.546.391.832.583l-.276.159c-.707.4-1.416.801-2.12 1.205-.057.031-.081.038-.105-.034zm.248.557c-.027-.055-.017-.08.033-.11.855-.533 1.708-1.069 2.56-1.606.045-.03.088-.012.131-.022.15-.034.295-.08.426-.163.01-.007.026-.012.031-.022.095-.213.307-.286.485-.37.407-.187.819-.36 1.178-.633.084-.065.172-.041.233.007a.211.211 0 01.079.218.558.558 0 01-.16.29 5.519 5.519 0 00-.873 1.093c-.226.36-.45.718-.618 1.11a.768.768 0 01-.146.206 2.548 2.548 0 01-.847.638.17.17 0 00-.107.159c-.004.06-.024.117-.028.177a.481.481 0 01-.188.382c-.04.031-.045.082-.06.125l-.271.915c0 .007 0 .014-.002.019 0 .014.002.031-.017.038-.04.01-.076-.002-.112-.021-.442-.104-.88-.216-1.318-.334-.055-.012-.107-.029-.164-.036-.088-.012-.095-.053-.055-.12.057-.28.124-.56.295-.797.038-.053.036-.096.002-.154-.188-.317-.33-.658-.487-.989zM3.5 10.082a.484.484 0 01-.036-.007c-.043-.012-.057-.038-.05-.098.053-.476.103-.951.152-1.429l.005-.03c.003-.006.005-.01.005-.015.007-.015.021-.02.038-.02.01 0 .024.003.038.008L5.57 9l1.92.51c.062.017.081.036.06.1l-.276.913c-.01.036-.017.075-.057.075-.005 0-.012 0-.02-.003l-1.027-.142c-.224-.03-.445-.062-.67-.093a251.75 251.75 0 00-2-.279zm.526.922a.118.118 0 010-.086.3.3 0 01.016-.041c.003.005.003.01.005.014.005.031-.007.065-.021.113zm5.877 8.962v-.002c-.024.002-.026.017-.038.024-.005.005-.012.01-.02.014a.366.366 0 01-.037.027.192.192 0 00-.076.086c0 .007 0 .005-.003.01-.002.004 0 .014-.002.014h.007v.014c-.024.07-.036.12-.048.157-.002.01-.007.016-.01.024-.001.007-.006.011-.009.016a.053.053 0 01-.01.012.044.044 0 01-.023.012h-.007a.163.163 0 01-.05-.012c-.033-.012-.076-.028-.136-.048-.004-.002-.01-.002-.012-.005a.025.025 0 00-.011-.004l-.027-.012h-.01v-.01H9.38c-.07-.024-.137-.038-.202-.065-.038-.014-.078-.026-.119-.043-.05-.012-.1-.036-.15-.036-.138-.048-.278-.072-.411-.12-.012 0-.02.002-.043 0v.002c-.095-.019-.171-.043-.262-.06-.088-.014-.121-.06-.112-.148.005-.037.003-.08.003-.116 0-.012-.003-.017-.003-.04-.014-.025-.035-.053-.054-.085-.008-.01-.01-.016-.015-.026-.012-.012-.035-.024-.035-.038-.024-.005-.015-.01-.022-.015-.074-.07-.052-.163-.043-.252 0-.01.003-.019.003-.029l.007-.055c.002-.01.002-.02.005-.026.038-.15.047-.29-.112-.38-.02-.012-.031-.024-.055-.04v.004a2.84 2.84 0 00-.224-.165c-.012-.024-.014-.03-.038-.039a1.404 1.404 0 01-.307-.228c-.023-.014-.05-.026-.073-.04h.01c-.015-.025-.032-.022-.044-.034-.019-.015-.035-.024-.06-.039-.118-.103-.28-.199-.408-.317-.046-.014-.074-.05-.11-.079v-.005c-.126-.088-.25-.175-.373-.27h.002c-.014 0-.014-.013-.038-.025-.072-.036-.143-.096-.205-.144-.019-.024-.038-.024-.057-.024-.057-.048-.107-.07-.155-.113-.019-.012-.035-.026-.06-.04a2.164 2.164 0 01-.392-.289l-.012-.012-.021-.024a.188.188 0 01-.026-.043c-.005-.012-.01-.024-.012-.038v.019c-.086-.094-.143-.202-.214-.3l-.007-.015a.034.034 0 01-.005-.014c-.003-.01-.003-.02-.003-.026a.119.119 0 01.024-.053c0-.005.003-.012.003-.02.023-.153.107-.292.166-.436v-.036s0-.022-.002-.031l-.005-.015-.005-.005a.037.037 0 00-.016-.01h-.007a.121.121 0 00-.058.022.303.303 0 00-.054.043l-.02.015a.127.127 0 00-.014.02l-.007.009c0 .002-.002 0-.002 0 0 .002-.003 0-.003 0v.002c-.047.055-.118.103-.18.154-.012.012-.034.026-.034.038v-.002h-.007c-.019.024-.045.024-.071.012-.102-.046-.205-.089-.307-.137-.024-.012-.036-.038-.04-.063a.657.657 0 01-.008-.03l-.007-.027v.005c-.036-.168.022-.293.053-.437.002-.012.004-.024.004-.036.024-.14.034-.288.074-.423v-.062c-.022-.154-.022-.305-.033-.459l.002-.079c-.014-.286-.033-.571-.043-.857-.021-.598-.069-1.193-.052-1.791a.64.64 0 00-.074-.314 1.957 1.957 0 00-.097-.164.266.266 0 01-.048-.237c.036-.14.062-.284.088-.425.012-.068.031-.104.107-.077.029.01.062.007.093.01.126.028.257.03.383.062.012 0 .017.002.033.01a2.132 2.132 0 01.398.057c.142.02.285.036.428.06.033 0 .062-.002.093.017.005 0 .012-.002.012 0 .166.02.297.031.44.055H6.12v.005c.095.012.157.024.23.036.077.012.155.031.229.031h.002l.017.002a.123.123 0 00.021.005c.048.003.067.03.074.07.038.228.07.456.117.684 0 .017.01.031.007.046l.019.11c.021.11.04.221.062.332 0 .01 0 .03.002.036v.01c.024.143.05.273.074.41v.045a1.716 1.716 0 00-.298.461c-.03.075-.069.152-.1.226l-.004.002c-.024.077-.062.151-.098.223-.002 0-.005.005-.007.01-.005.01-.007.024-.012.031v.003c-.04.107-.085.212-.135.314a2.09 2.09 0 01-.055.101c-.007.02-.024.039-.024.055-.024.092-.045.183-.09.267a.76.76 0 01-.074.226 2.115 2.115 0 01-.129.393c-.007.02-.019.036-.019.055l-.002.008c-.002.007-.005.019-.01.028-.002.01-.004.022-.01.032l-.002.01c-.011.247-.026.494-.038.741l.022.007c.03-.062.062-.122.093-.185.03-.06.054-.122.088-.184.019-.044.05-.087.05-.13.071-.12.135-.24.209-.35.007-.013.021-.02.029-.044.061-.096.133-.223.207-.333.025-.043.053-.08.077-.123.016-.048.042-.055.063-.077.021-.021.033-.043.08-.065 0 .02.006.036.003.053l-.002.01c0 .01-.005.02-.007.029l-.003.01-.004.018c-.003.008-.003.012-.003.02 0 .007-.005.012-.002.019 0 .005-.002.01-.004.014h.004c-.022.144-.022.307-.024.459 0 .007-.005.019-.005.024l.005-.003c.02.144.043.289.062.433h-.003c.003 0 .005.03.005.043.024.144.055.29.072.437l.002.017c.002.01.005.016.005.026.024.115.11.194.162.295.038.055.078.12.114.168h.002v.003c.12.105.22.213.352.31.02 0 .038.023.057.023h-.002v.012c.048.005.088.044.138.03a.09.09 0 00.026-.013c.007-.005.017-.01.02-.017.011-.021-.01-.033-.027-.04-.195-.125-.164-.33-.188-.521h.007v-.003c.048.046.081.091.122.14.007.01.014.019.023.026l.05.055c.034.036.07.07.108.1.038.032.078.066.123.09.02.007.038.024.055.024h-.005c.143.07.267.137.398.206a.147.147 0 01.078.036c.048.144.105.288.09.456.005 0 .01.017.012.03.003.011 0 .02-.002.03.017.14.017.281-.002.42a.044.044 0 01-.003.039c-.002.005 0 .007-.002.012h.002c0 .14-.002.278-.038.415-.002.137-.045.27-.06.406 0 .005-.002.01-.004.017-.007.026-.02.057.038.05v-.002c.129-.135.257-.267.376-.418v.01c.002-.048.03-.072.057-.096.05-.048.1-.13.15-.2l.15-.206.002-.012c.007-.024.017-.038.029-.046.005-.002.01-.005.014-.005h.014c.015.003.031.008.05.02a.829.829 0 01.076.048c.143.079.305.132.412.269.012.012.026.014.038.038.05.024.095.08.131.132l.038.036c.002.002.005.002.007.005.188.16.203.247.067.46-.005.008-.012.015-.017.015a.237.237 0 01-.024.055.25.25 0 01-.019.036l-.01.017c-.035.058-.073.118-.087.185-.012.055-.022.113-.012.168.026.094.05.19.069.286.012.057.024.115.028.175.02.142-.047.228-.166.288zm.633 1.17c-.031.038-.036.117-.086.11h-.005c-.004 0-.009.002-.014 0a.615.615 0 01-.264-.087c-.028-.019-.021-.055-.021-.088v-.454c0-.032.012-.068-.02-.09-.104-.066-.078-.182-.104-.277-.01-.039.017-.058.038-.082l.276-.31c.062-.067.088-.142.043-.223-.086-.163-.072-.32-.002-.485.054-.13.09-.267.14-.42l.014.017c.093.117.186.218.248.336.15.29.37.502.656.655.134.072.254.172.41.19l.003.001.018-.001c.017 0 .04-.003.036.024-.003.014-.017.014-.031.012h-.007c-.005 0-.01 0-.015-.003a2.694 2.694 0 00-.488.068c-.085.017-.169.037-.253.057a7.584 7.584 0 01-.241.055h-.003c-.033.008-.047.024-.043.058.005.04.02.063.067.072.085.016.174.018.26.017h.011c.118-.003.234-.014.35-.034a2.567 2.567 0 01.771-.002c-.426.07-.778.312-1.163.475-.2.084-.355.245-.545.348-.015.017-.022.044-.036.06zm1.232.316c0 .003-.002.003-.002.005-.002.002-.005.002-.007.002l-.01-.002a.03.03 0 01-.011-.012l-.855-.214c.098-.079.17-.125.288-.079.195.077.376.185.564.274.01 0 .022.002.029.01.005.002.005.004.005.011v.005zm.84.92a.673.673 0 01-.183.184 1.451 1.451 0 01-.478.243c.069-.216.126-.415.243-.586.076-.11.259-.139.373-.074.076.043.098.146.045.233zm1.11-1.277c-.22.177-.436.357-.64.552-.05.048-.089.05-.146.014a9.207 9.207 0 00-1.087-.545c-.165-.07-.338-.098-.507-.158.019-.036.055-.036.083-.046.364-.137.735-.26 1.092-.42.093-.043.186-.007.276.005.136.019.267.021.39-.046.022-.012.046-.021.072-.01l.837.349c-.122.103-.246.204-.37.305zm1.703-1.22a.506.506 0 00-.076.49c.066.206.019.348-.181.449-.045.024-.08.038-.119.036-.029.002-.055-.005-.088-.03-.371-.259-.814-.345-1.23-.494-.06-.021-.117-.043-.179-.057-.071-.017-.066-.065-.057-.116.007-.036.026-.04.045-.038.02-.005.046.01.062.014.476.12.957.216 1.416.396.017.008.031.01.043.013.033-.005.043-.037.038-.082-.01-.108-.02-.214-.143-.271a2.755 2.755 0 00-.966-.233 3.308 3.308 0 00-.147-.01c.235-.144.495-.22.706-.406a1 1 0 00.074-.067l.395-.482.048-.08a.05.05 0 01.011.008l.008-.008c.038.022.04.05.05.075.1.247.197.497.297.744.024.055.029.103-.007.149zm5.09-10.2a.065.065 0 01.014.023.023.023 0 01-.002.022.041.041 0 01-.015.014l-.01.015-.002.002c-.002.002-.002.005-.004.01 0 .002-.003.004-.003.004h.003v.008c-.143.146-.105.283.01.415.006.012.013.024.013.036.095.127.017.254 0 .382-.002.012-.004.017-.014.021l-.007.003c-.01 0-.02-.003-.029-.005l-.01-.002a9.537 9.537 0 01-.249-.077c-.007 0-.012-.005-.019-.007-.007 0-.012-.008-.019-.008a.28.28 0 01-.117-.019.249.249 0 00-.29.05.058.058 0 01-.005.02c.04.06.107.074.167.093.243.08.45.23.673.348.053.03.062.092.057.152-.002.033-.011.067-.019.103l-.071.31a.128.128 0 01-.02.076c.003.168-.113.293-.168.437-.007.012-.012.017-.02.041-.037.101-.08.2-.128.298 0 .007-.01.017-.012.024v-.005c0 .002-.002.002-.002.005l-.005.01-.004.007c-.012.045-.02.093-.058.132a1.916 1.916 0 01-.185.432c-.007.012-.012.012-.017.036-.061.144-.126.317-.188.475-.014.058-.026.115-.04.17l-.007.015c0 .002-.003.002-.003.005 0 .005-.004.01-.007.014a.454.454 0 01-.036.192c-.011.039-.02.082-.033.12a.073.073 0 01-.005.02l-.2.912c-.054.25-.076.504-.116.754-.038.235-.048.477-.105.708-.04.168-.135.324-.212.48-.07.146-.116.302-.204.444l-.007.015a.163.163 0 00-.012.03c-.002.006-.002.013-.005.018l-.007.033c-.002.012-.002.024-.002.036 0 .012 0 .024-.003.036v.036c0 .024 0 .048-.002.072-.02.257-.052.514-.04.773.002.048-.012.075-.058.091l-.057.022a1.54 1.54 0 00-.112.048l-.06.024c-.03.012-.05.022-.097.034v-.005s-.007.005-.012.005l-.13.055-.093.038a.627.627 0 01-.21.092l-.035.021c-.15.067-.307.137-.45.204 0 .003-.014.008-.02.008-.08.023-.163.072-.244.11l-.262.113c-.138.062-.276.12-.414.182-.005.003-.012 0-.017 0-.126.048-.257.118-.376.173-.047.026-.116.053-.176.077-.11.043-.133.038-.157-.075-.071-.052-.078-.141-.104-.216-.027-.072-.048-.15-.072-.223-.005-.024-.017-.02-.017-.034-.023-.033-.023-.064-.035-.098l-.003-.017c-.007-.005-.007-.012-.009-.019l-.007-.017h.005c-.034-.1-.07-.199-.093-.3-.024-.067-.067-.132-.079-.201a.174.174 0 010-.07l.007-.034c.003-.005.003-.012.005-.017.02-.047.05-.093.074-.139.017-.038.03-.077.048-.115.016-.038.03-.067.047-.115.038-.072.062-.156.11-.24 0-.02.014-.039.019-.058.042-.146.09-.295.147-.437 0-.005-.005-.012-.002-.017.016-.086.097-.117.145-.168v.003c.024-.008.036-.022.047-.022.015-.024.029-.034.043-.048a1.556 1.556 0 00.107-.149c.046-.067.086-.137.136-.204.017-.021.03-.055.057-.055.005 0 .007 0 .012.002.038.01.026.055.021.084a.885.885 0 000 .327c.012.084.027.168.034.252l-.003.038a.583.583 0 01.036.19c.019.082.036.16.06.242.07.15.123.3.17.454l.006-.002c.08.12.161.26.242.391.024.031.05.065.074.089h.005v.02c.024 0 .035.052.071.004-.007-.024-.012-.024-.019-.024a.449.449 0 01-.03-.08c-.005-.016-.013-.035-.015-.05a.377.377 0 01-.012-.05c-.002-.007-.002-.017-.005-.024a.291.291 0 00-.01-.048c-.004-.024-.006-.048-.011-.074-.005-.024-.007-.051-.012-.075-.007-.007-.007-.017-.007-.026a.133.133 0 00-.01-.03c-.002-.028-.007-.057-.012-.086l-.02-.172c-.003-.03-.013-.058-.015-.087a3.667 3.667 0 01.035-.94h.015c.028-.145.057-.31.085-.467.008 0 .015.003.024.003-.01.261.017.52.074.775.002.005.002.012.002.017.036.098.074.197.105.298l.021.062a.343.343 0 00.055.094c.007.012.022.024.022.036.023.019.035.04.054.06.015.017.027.036.04.052.05.049.103.094.165.157a3.806 3.806 0 01-.017-.14c-.004-.043-.012-.086-.016-.134 0 0-.012-.007-.012-.012 0-.036-.005-.072-.01-.108l-.04-.33c0-.009 0-.016.002-.026l.002-.026a2.727 2.727 0 01-.018-.415l-.003-.017a1.136 1.136 0 01-.002-.37c.005-.033.002-.07.005-.103 0-.007-.003-.012-.003-.02 0-.158.007-.319.055-.472l.002-.017c.012-.072.024-.158.036-.238.012-.079.024-.16.033-.24.005-.033.014-.05.034-.05.009 0 .023.005.04.017.017.01.033.021.05.03l.074.049c.023.017.047.034.069.055a.032.032 0 00.01.007c.004.005.016.012.016.012h.005v-.002c.166.084.259.226.37.358a.313.313 0 01.11.151c.073.097.13.206.167.322.002.01.007.021.01.03.002.01.007.006.009.03.019.024.03.055.043.084.012.029.021.057.033.084l.02.04c.004.01.009.017.016.024.01.012.021.02.04.024.026-.088-.035-.172-.012-.256h.007c0-.024-.007-.024-.007-.036-.023-.156-.043-.31-.107-.454-.002-.012-.002-.039-.002-.039-.057-.143-.086-.29-.17-.417a.103.103 0 01-.035-.063.255.255 0 01-.055-.081l-.038-.063v.017l-.004-.007v-.002c-.065-.099-.143-.19-.22-.279l-.009-.01c-.01-.01-.019-.01-.028-.033-.057-.024-.112-.096-.17-.147-.006-.007-.014-.01-.018-.017-.005-.004 0-.009-.024-.016-.12-.082-.207-.183-.312-.255-.019-.024-.043-.01-.052-.048.307-.019.604.017.914.036v-.012h.002c.152.024.295.053.433.113.005 0 .01.007.017.007v.005c.095.022.185.065.276.108.019.01.043.041.064.012.017-.024-.01-.046-.024-.065-.036-.05-.069-.1-.107-.15-.007-.013-.019-.025-.019-.037-.071-.07-.126-.149-.188-.218-.019-.02-.04-.041-.06-.065a1.149 1.149 0 01-.206-.17c-.012-.008-.024-.022-.036-.022-.031 0-.064-.034-.095-.056-.031-.021-.065-.04-.096-.062l-.035-.02c-.145-.054-.29-.105-.436-.16-.004 0-.014-.002-.014-.005 0 0-.012 0-.017-.002a.109.109 0 01-.071-.029.079.079 0 01-.026-.036c-.003-.002-.003-.007-.005-.012a.137.137 0 01-.007-.062.98.98 0 00-.012-.221c-.002-.022-.007-.041-.012-.063l-.014-.06-.014-.062a2.283 2.283 0 00-.024-.089s-.01-.002-.01-.01c-.024-.146-.08-.292-.123-.437-.008-.019-.01-.033-.017-.057a.372.372 0 01-.057-.168c0-.02 0-.036.002-.055 0-.01.003-.02.003-.027.004-.026.01-.055.019-.081.01-.037.021-.072.033-.109 0-.004 0-.016.002-.016h-.002c.03-.17.098-.315.145-.468 0-.003.005-.003.005-.005l.01-.01c.002-.002.004-.002.004-.005a.267.267 0 00.052-.184.329.329 0 00-.026-.104c-.016-.043-.038-.084-.06-.127-.002-.005-.009-.01-.014-.012l-.004-.007a1.2 1.2 0 01-.207-.355l-.017-.039c-.005-.005-.005-.01-.007-.017l-.003-.007a.113.113 0 01-.007-.017l.003.003c0-.003 0-.003-.003-.005a.29.29 0 01.012-.043l.015-.027c.004-.007.012-.014.019-.021.002-.003.007-.005.01-.008.063-.093.123-.192.194-.283a.261.261 0 00.05-.252c-.04-.137-.035-.14.1-.19.024-.01.312-.12.428-.156l.074-.028.02-.008.054-.021c.15-.058.3-.113.45-.168.005-.003.012-.003.016-.003.14-.072.29-.117.438-.168.02-.007.036-.014.06-.019.023-.02.095-.036.119-.055.119-.039.214-.094.32-.118.158-.12.286-.07.393.08.015.01.03.019.043.03.022.02.029.041.053.065.097.113.204.224.307.334zm-3.346.131a.29.29 0 01-.038.01c-.036.005-.055-.012-.078-.055-.217-.394-.436-.785-.657-1.177-.029-.05-.038-.077.033-.096l4.216-1.246c.015-.005.031-.007.06-.014v.005l.002-.001c-.021.256-.043.498-.061.74l-.043.535c-.005.065-.024.106-.093.13-1.115.387-2.228.776-3.34 1.17zm-6.922 5.392c.395.034.785.113 1.178.168.052.008.105.01.155.036.119.063.178.173.223.29.07.18.09.373.103.565.01.151-.022.278-.143.38a.555.555 0 00-.197.278c.152 0 .283.026.383.156.061.081.142.149.22.218a.374.374 0 00.581-.081c.057-.094.112-.19.174-.281.086-.127.17-.264.321-.32.093-.03.053-.076.022-.115-.062-.079-.176-.081-.279-.019-.157.096-.264.238-.378.375-.033.04-.067.081-.112.115-.057.04-.107.043-.157-.01-.057-.057-.114-.117-.176-.168-.052-.043-.062-.082-.03-.144a.734.734 0 00.08-.413c-.029-.312-.079-.62-.297-.867-.024-.026-.024-.04.01-.064a.942.942 0 00.404-.701c.007-.075-.008-.135-.067-.156-.06-.02-.097.04-.124.088-.06.104-.135.197-.204.293-.107.147-.257.178-.414.154a17.702 17.702 0 00-1.704-.18c-.029-.002-.057-.01-.081.01-.18.134-.364.264-.478.468.007.002.014.007.019.007.019-.002.035-.007.055-.01.295-.074.602-.098.913-.072zm5.29.224c-.14.069-.277.143-.412.223a.31.31 0 01-.112.048 3.963 3.963 0 01-.716.074.67.67 0 01-.364-.13c-.067-.043-.133-.105-.145-.201.035-.012.069.002.102.007.126.017.25.063.379.055.309-.019.6-.112.89-.213.095-.034.187-.07.28-.104.043-.014.055-.028.017-.07-.045-.05-.095-.04-.145-.033a5.526 5.526 0 01-1.854-.045c-.178-.034-.369-.046-.438-.27-.019-.06-.038-.12-.05-.182a.372.372 0 00-.092-.17c-.024-.031-.055-.046-.09-.039-.039.01-.037.05-.037.08.003.1.008.201.02.302a.64.64 0 00.111.308.834.834 0 00.505.333c.154.036.154.039.169.2.007.069.016.131.08.17.112.067.224.137.36.146.083.008.169.012.24.068a.574.574 0 00.317.098c.083.007.169.01.252.024.066.012.112-.01.16-.05.235-.197.468-.397.69-.617-.027-.03-.065-.039-.117-.012zm-1.954 1.94c-.019-.034-.043-.041-.076-.022-.188.105-.4.11-.607.137-.088.012-.197-.015-.261.05-.157.156-.29.091-.429-.02-.007-.004-.014-.011-.024-.014-.204-.11-.409-.15-.618-.004a.332.332 0 01-.264.067c-.074-.02-.131-.015-.188.038-.029.027-.067.048-.1.07-.093.062-.093.072-.007.141.019.017.042.024.066.032.198.06.383.017.557-.08.18-.098.35-.093.514.032.15.112.31.115.476.045.21-.088.421-.175.647-.213.034-.005.067-.017.098.01.095.088.185.026.276-.01.035-.015.04-.044.038-.08-.007-.076-.064-.12-.098-.18zm-.864.626a2.365 2.365 0 00-.697.122c-.183.063-.388.106-.483.32-.055.125-.047.257-.085.381.016.099.016.197.073.281.017.024.024.063.065.06.042-.002.057-.038.069-.067.043-.091.052-.194.08-.29.046-.157.117-.281.279-.35.169-.073.34-.14.511-.207.034-.012.067-.02.1-.012.212.03.433.021.621.146.017.012.039.017.062.012.072-.017.079-.04.036-.098a.714.714 0 00-.63-.298zm-1.656-2.18c.143-.014.286-.034.426-.053.038-.005.098.01.107-.036.01-.048-.045-.077-.078-.108-.017-.017-.045-.019-.07-.026a.805.805 0 00-.432-.015 2.055 2.055 0 01-.88 0c-.08-.019-.162-.019-.258-.03-.109.026-.233.052-.35.105-.08.038-.085.084-.014.14.043.033.086.05.138.03.184-.067.34-.03.49.096a.5.5 0 00.52.087c.104-.036.194-.096.29-.15a.315.315 0 01.111-.04zm-2.546.269c.008-.135-.019-.25-.126-.32-.078-.05-.11-.12-.138-.201-.038-.106-.047-.223-.133-.307-.024-.024-.04-.077-.083-.06-.05.019-.098.048-.112.115a.494.494 0 00.276.552c.1.053.176.127.224.23.016.037.019.106.071.094.052-.012.01-.077.021-.103z"
    fill="#000"
  ></path>
  <path
    d="M4.045 10.891c0-.005-.002-.01-.005-.014l-.017.04a.149.149 0 000 .087c.017-.048.03-.082.022-.113z"
    fill="#000"
  ></path>
</svg>
