<svg viewBox="0 0 24 24" xmlns="http://www.w3.org/2000/svg">
  <path
    d="M.87 18.322c-.248.421-.527.91-.763 1.3a.814.814 0 00.255 1.08l4.965 3.18a.739.739 0 00.583.095.767.767 0 00.474-.366c.199-.346.455-.795.734-1.276 1.966-3.377 3.944-2.964 7.51-1.192l4.923 2.436c.187.093.401.103.595.028a.777.777 0 00.432-.425l2.364-5.564a.808.808 0 00-.382-1.04 590.267 590.267 0 01-4.964-2.457C10.906 10.74 5.22 10.958.87 18.321z"
    fill="#000"
  ></path>
  <path
    d="M23.13 5.695c.248-.42.527-.91.763-1.3a.814.814 0 00-.255-1.08L18.673.135a.74.74 0 00-.599-.115.767.767 0 00-.489.378c-.199.346-.454.795-.733 1.276-1.967 3.378-3.945 2.964-7.511 1.192L4.434.442a.736.736 0 00-.595-.028.777.777 0 00-.433.425L1.043 6.403a.808.808 0 00.381 1.041C2.464 7.953 4.53 8.966 6.39 9.9c6.705 3.378 12.391 3.151 16.74-4.205z"
    fill="#000"
  ></path>
</svg>
