<svg viewBox="0 0 24 24" xmlns="http://www.w3.org/2000/svg">
  <path
    d="M11.056.006c.056-.006.543-.009 1.077-.003.7.006 1.077.02 1.337.056 2.402.322 4.48 1.231 6.307 2.76a15.796 15.796 0 011.405 1.405c1.535 1.832 2.432 3.89 2.763 6.324.073.54.073 2.364 0 2.905-.33 2.434-1.228 4.492-2.763 6.324a15.786 15.786 0 01-1.405 1.405c-1.833 1.535-3.89 2.432-6.325 2.763-.54.073-2.364.073-2.904 0-2.435-.33-4.492-1.228-6.325-2.763a15.767 15.767 0 01-1.405-1.405C1.283 17.945.386 15.887.055 13.453c-.073-.54-.073-2.364 0-2.905.33-2.434 1.228-4.492 2.763-6.324a15.777 15.777 0 011.405-1.405C6.076 1.266 8.349.289 10.657.047c.162-.014.342-.035.399-.04zm.664 8.674a6.611 6.611 0 00-1.978.027c-1.78.336-3.515 1.295-4.356 2.402a3.147 3.147 0 00-.47.965c-.067.266-.082.738-.03.974.098.437.426.806.96 1.083.464.24 1.018.449 1.328.505.57.103 1.39.136 1.919.08.764-.08 2.09-.437 2.75-.741.14-.062.29-.115.34-.115.29 0 .517.313.39.531-.071.115-.535.348-1.069.534-.292.1-.36.133-.345.171.07.178.198.98.262 1.641.116 1.152.133 3.226.045 4.87-.018.34-.036.773-.036.96l-.005.339.708-.003c.974-.003 1.611-.08 2.597-.322.806-.198 1.417-.41 2.051-.717.458-.221.42-.15.387-.67a30.029 30.029 0 01-.047-.885 87.661 87.661 0 00-.298-4c-.254-2.508-.455-3.444-.971-4.5-.354-.726-.732-1.24-1.346-1.827-.413-.396-.59-.529-.962-.72a5.765 5.765 0 00-1.824-.582zM7.46 20.89c-.114-.012-.112-.035-.05.573.036.336.06.448.095.475.12.091.13.059.11-.384-.013-.23-.03-.472-.04-.537-.017-.106-.029-.118-.114-.127zm-1.369-1.895c-.065 0-.068.06-.012.576.024.21.05.522.062.693.012.172.039.449.06.62.023.168.035.316.029.328-.015.017.053.085.13.13.05.03.041-.124-.071-1.255a23.443 23.443 0 01-.074-.888c0-.074-.015-.148-.035-.168a.14.14 0 00-.089-.036zm11.99-1.676c-.027-.003-.057.003-.069.015-.023.02.006 3.76.027 3.783.009.01.035-.012.065-.044.047-.053.05-.186.035-1.9-.012-1.636-.02-1.845-.059-1.854zm-9.678.525h-.101l.02.242c.08 1.01.145 1.665.166 1.685.012.015.053.018.088.006.065-.02.065-.03.047-.307-.029-.413-.103-1.29-.123-1.472-.015-.148-.021-.154-.107-.154h.01zm-4.567-1.862c-.03-.05-.1-.027-.1.035 0 .036.044.41.1.835.098.75.225 1.975.225 2.16 0 .069.02.107.076.146l.074.047-.015-.127c-.009-.071-.05-.446-.091-.835-.139-1.29-.251-2.234-.269-2.261zm17.033.003c-.012 0-.07.05-.13.109l-.109.112-.006 1.266c-.009 1.382-.017 1.334.15 1.086l.075-.109.02-1.233c.01-.676.01-1.231 0-1.231zm-11.484-.57c-.015-.044-.1-.07-.133-.035-.009.006.009.274.036.596.03.322.073.87.097 1.219.065.841.07.885.127.885.05 0 .047-.15-.036-1.343-.023-.324-.05-.743-.059-.93a6.717 6.717 0 00-.032-.392zM2.54 12.907c-.02-.166-.047-.195-.126-.142-.039.024-.042.003.419 3.184.07.493.138.903.147.912.071.074.06-.1-.1-1.319-.106-.788-.313-2.393-.34-2.635zm19.436-2.56c-.02 0-.029.311-.03.933v.077c-.002.558-.008 1.198-.014 1.426-.006.227-.02 1.204-.027 2.169-.018 1.93-.026 1.842.157 1.402.112-.269.115-.36.138-3.474l.021-2.444-.106-.044a.674.674 0 00-.139-.044zM6.932 15.337c-.08 0-.08-.006-.038.522.039.49.038.51.143.51h.026c.114.002.108.035.064-.53-.026-.32-.047-.438-.08-.467a.24.24 0 00-.115-.036zm-2.49-1.373l.017.148.067.615.007.06c.03.29.068.54.082.555.048.048.154-.03.154-.112 0-.097-.086-.897-.103-.97a.642.642 0 00-.121-.178l-.104-.118zM2.75 6.193c-.018-.018-.192.259-.212.339-.01.038.023.395.076.796.05.405.13 1.03.177 1.396l.192 1.476a1171.997 1171.997 0 00.517 4c.032.241.059.466.059.492 0 .062.03.068.1.015.047-.036.047-.06.006-.404a59.67 59.67 0 01-.089-.797c-.026-.236-.165-1.497-.312-2.804-.148-1.308-.32-2.854-.384-3.435a31.32 31.32 0 00-.13-1.075zm16.505-2.436l.018.425c.008.233.023 2.158.035 4.277.015 3.497.02 3.854.065 3.887.026.02.07.038.103.038.053 0 .053-.106.044-4.2-.008-3.565-.014-4.211-.05-4.253a.91.91 0 00-.13-.112l-.085-.062zm-14.926 7.11c-.009-.006-.062.018-.112.053-.112.071-.112.092-.056.564l.035.295.095-.2c.085-.19.091-.213.074-.452a1.133 1.133 0 00-.036-.26zM1.873 7.898a.743.743 0 00-.082.198l-.068.2.21 1.447c.118.794.227 1.552.244 1.682.018.13.042.248.054.26.011.011.047 0 .082-.03l.062-.053-.056-.413c-.032-.227-.103-.773-.16-1.21l-.182-1.44c-.047-.352-.092-.64-.104-.64zm18.804.826c-.017 0-.03.526-.03 1.458v.125c.001 1.187.008 1.337.048 1.351.065.024.218.02.221-.006.015-.076.033-1.918.027-2.724 0-.1-.012-.112-.118-.156a.744.744 0 00-.148-.048zm-2.635-.62h-.095l.01 1.527c.01 1.626.008 1.633.172 1.632h.099V9.687c0-1.315-.007-1.494-.048-1.535-.023-.027-.088-.047-.138-.047zm-9.519 2.273c.272-.165.644.053.644.378 0 .336-.363.558-.644.39a.453.453 0 010-.768zm-2.001-.283a.391.391 0 01.49.57c-.11.183-.322.233-.531.126-.29-.147-.266-.563.041-.696zM4.978 5.82c-.02-.053-.032-.05-.135.048l-.115.106.082.85c.044.47.133 1.352.195 1.96.062.607.121 1.21.133 1.34l.02.233.113-.115.115-.116-.1-1.092c-.057-.602-.142-1.558-.195-2.125-.05-.57-.1-1.06-.113-1.089zm11.656-1.345v5.02l.106.044c.06.024.112.038.118.033.015-.012.012-4.011-.003-4.664-.003-.191-.018-.36-.032-.371a.307.307 0 00-.107-.045l-.082-.017zm-5.43-3.424l-.08.003a2.842 2.842 0 00-.166.018l-.082.011.017.656c.018.596.192 4.672.245 5.722.012.24.033.443.042.455.011.009.08.026.153.032l.133.015-.015-.215c-.015-.216-.112-2.633-.145-3.554-.008-.26-.03-.758-.047-1.107a50.343 50.343 0 01-.056-1.806v-.23zM3.726 4.87c-.03-.032-.257.266-.257.336 0 .119.295 2.73.31 2.745.024.024.251-.088.251-.124 0-.017-.041-.43-.092-.918-.047-.487-.112-1.142-.144-1.455a6.393 6.393 0 00-.068-.584zm3.474-2.671c-.02-.038-.074-.03-.168.02-.077.042-.08.054-.065.184.009.076.068.782.133 1.57.112 1.34.271 3.193.312 3.577.01.094.027.171.036.171a.505.505 0 00.118-.059c.094-.059.097-.065.083-.215-.01-.083-.065-.744-.122-1.467-.17-2.128-.31-3.754-.327-3.781zm8.016 3.515h-.068l.018.655c.012.363.02.774.02.915v.254l.092.033c.16.056.192.011.186-.254 0-.127-.006-.517-.009-.865l-.003-.638-.085-.05a.391.391 0 00-.15-.05zm-6.59-1.148a.66.66 0 00-.24.08c-.014.023.089 1.475.118 1.65.012.088.024.097.113.097.168 0 .174-.033.138-.552l-.047-.732a10.16 10.16 0 00-.032-.407c-.01-.077-.033-.139-.05-.136zm3.727-.897v.218c0 .213.089 2.4.098 2.406.002.003.068.011.147.02l.139.02-.003-.436c-.003-.726-.044-2.157-.062-2.175a.681.681 0 00-.168-.035l-.15-.018zM9.874 2.9c0-.108-.007-.108-.094-.105a.627.627 0 00-.183.033c-.08.03-.082.035-.064.183.008.078.035.427.058.794l.004.064c.023.39.059.9.073 1.137.018.236.033.493.039.575.006.148.006.148.103.145.198-.012.192.006.171-.508-.012-.254-.038-.84-.062-1.304a46.66 46.66 0 01-.044-.983v-.03zm3.994-1.725c-.124-.02-.156-.018-.168.015-.018.044.003 1.818.027 2.34l.032 1.172.02.859.136.011a.442.442 0 00.16 0c.015-.005.018-.1.009-.21a106.97 106.97 0 01-.036-2.171 202.634 202.634 0 00-.02-1.98 2.161 2.161 0 00-.16-.036zm4.194 2.16c-.12-.05-.12-.05-.133-.006-.005.021-.008.479-.002 1.019l.008.98.124.058.124.062.01-.643c.005-.351 0-.817-.01-1.033l-.02-.395-.1-.042zm-2.736-.543c-.202-.068-.198-.123-.197.731v.133c0 .462.009.864.017.898.015.056.192.157.278.157.032 0 .041-1.411.011-1.706-.017-.168-.026-.183-.109-.213z"
    fill="#000"
  ></path>
</svg>
