<svg viewBox="0 0 24 24" xmlns="http://www.w3.org/2000/svg">
  <path
    d="M20.423 0H3.577C2.157 0 1 1.104 1 2.472v16.224c0 1.368 1.157 2.472 2.577 2.472h14.256l-.666-2.22 1.609 1.428 1.521 1.344L23 24V2.472C23 1.104 21.843 0 20.423 0zM15.57 15.672s-.452-.516-.83-.972c1.647-.444 2.276-1.428 2.276-1.428a7.328 7.328 0 01-1.446.708 8.574 8.574 0 01-1.823.516 9.219 9.219 0 01-3.256-.012 10.937 10.937 0 01-1.848-.516 7.536 7.536 0 01-.917-.408c-.038-.024-.076-.036-.113-.06a.173.173 0 01-.05-.036c-.227-.12-.353-.204-.353-.204s.604.96 2.2 1.416c-.377.456-.842.996-.842.996-2.778-.084-3.834-1.824-3.834-1.824 0-3.864 1.81-6.996 1.81-6.996 1.81-1.296 3.533-1.26 3.533-1.26l.125.144C7.94 6.36 6.896 7.308 6.896 7.308s.277-.144.742-.348c1.345-.564 2.413-.72 2.853-.756.076-.012.139-.024.214-.024a11.14 11.14 0 012.54-.024 10.6 10.6 0 013.784 1.152s-.994-.9-3.13-1.524l.175-.192s1.723-.036 3.533 1.26c0 0 1.81 3.132 1.81 6.996 0 0-1.068 1.74-3.847 1.824zm-5.845-5.604c-.717 0-1.283.6-1.283 1.332 0 .732.579 1.332 1.283 1.332.716 0 1.282-.6 1.282-1.332.012-.732-.566-1.332-1.282-1.332zm4.588 0c-.716 0-1.282.6-1.282 1.332 0 .732.578 1.332 1.282 1.332.717 0 1.282-.6 1.282-1.332 0-.732-.565-1.332-1.282-1.332z"
    fill="#000"
  ></path>
</svg>
