<svg viewBox="0 0 24 24" xmlns="http://www.w3.org/2000/svg">
  <path
    d="M21.694 8.91l-3.14 1.094s.448 1.459.523 1.459l3.14-.365-.523-2.189zM2.178 8.91l3.14 1.094s-.448 1.459-.523 1.459l-3.14-.365.523-2.189zM5.17 7.815c.747-1.75 1.644-3.355 2.616-4.45 1.271-1.532 2.692-2.334 4.113-2.334 1.42 0 2.766.802 4.112 2.334.972 1.167 1.87 2.7 2.617 4.45v.073h-.075c-.299 0-.448-.073-.747-.073-.823-1.97-2.318-4.45-4.188-5.544-.598-.292-1.121-.51-1.72-.51-.598 0-1.12.145-1.72.51-1.868 1.021-3.29 3.575-4.186 5.544-.3 0-.449.073-.748.073h-.075v-.073z"
    fill="#000"
  ></path>
  <path
    d="M19.002 13.505v-.073c-.15-1.459-.598-3.064-1.196-4.669l-.075-.145h.15c.224 0 .448.073.672.073h.075v.072c.523 1.605.972 3.283 1.122 4.67v.072h-.748z"
    fill="#000"
  ></path>
  <path
    d="M19.002 9.93c-.15-.364-.224-.729-.374-1.094v-.073h-.075c-.224-.072-.448-.072-.673-.072h-.15l.076.145c.15.365.224.73.373 1.095.374-.073.599-.073.823 0zM4.122 13.36c.15-1.387.599-3.065 1.122-4.67v-.072h.075c.224 0 .448-.073.673-.073h.15l-.076.146c-.598 1.604-.972 3.282-1.196 4.668v.073h-.748v-.073z"
    fill="#000"
  ></path>
  <path
    d="M5.319 8.69c-.225.438-.3.803-.449 1.168.374-.073.524-.073.823-.073.15-.365.224-.73.373-1.094l.075-.146h-.15c-.224.073-.448.146-.672.146zM11.899 22.988a8.535 8.535 0 01-3.29-.656c-1.047-.438-1.944-1.021-2.692-1.824a9.527 9.527 0 01-1.795-2.699c-.448-1.021-.598-2.188-.598-3.356v-.072h.823v.072c-.075 1.095.15 2.043.523 3.064a7.824 7.824 0 001.57 2.48c.673.73 1.57 1.314 2.468 1.678.972.438 1.944.584 2.99.584a8.077 8.077 0 002.992-.584c.897-.364 1.794-.948 2.467-1.678.673-.729 1.271-1.531 1.57-2.48.374-.948.524-1.97.524-3.063v-.074h.822v.073c.075 1.168-.15 2.262-.598 3.356-.374 1.021-.972 1.897-1.795 2.7-.747.802-1.72 1.385-2.691 1.823-.973.365-2.094.656-3.29.656z"
    fill="#000"
  ></path>
  <path
    d="M4.347 15.402V14.38h-.823v1.02h.823zM20.273 14.38h-.748v1.022h.748V14.38z"
    fill="#000"
  ></path>
  <path
    d="M20.722 15.037c-1.72 0-3.29-.438-4.786-.802-.747-.22-1.42-.584-1.944-.803v-.073c-1.27-.583-1.346-1.896-1.27-2.99 0-.292-.076-.657-.375-.876-.15-.073-.299-.146-.448-.146-.15 0-.374.073-.449.146-.3.219-.374.584-.374.875.15 1.095.075 2.335-1.271 2.918-.523.22-1.196.73-1.944.949-1.495.364-3.066.802-4.785.802-.673 0-1.272-.657-1.421-1.313-.224-.948-.598-2.48-.598-3.793 0-.511.299-1.095.822-1.313 1.795-.803 5.459-1.095 7.029-1.095.598 0 1.047.22 1.42.584.524-.219 1.047-.365 1.57-.365.524 0 1.047.146 1.57.365.3-.292.748-.584 1.421-.584.898 0 4.935.146 7.029 1.022.523.219.823.73.823 1.24-.075 1.313-.374 2.99-.599 3.939-.15.656-.747 1.313-1.42 1.313zm-5.608-6.346c-.748 0-.898.656-.972.729-.075.365-.15.948-.224 1.605 0 .583.224 1.021.672 1.24 1.645.73 3.59 1.094 5.833 1.094.15 0 .299-.146.374-.292.224-.802.523-2.042.523-3.21 0-.072-.075-.218-.15-.218-1.42-.73-4.785-.948-6.056-.948zm-12.562.948c-.075.073-.15.146-.15.219 0 1.167.3 2.407.524 3.21.075.145.224.291.374.291 2.318 0 4.187-.364 5.832-1.094.449-.219.673-.657.673-1.24 0-.51-.075-1.021-.224-1.605 0-.146-.15-.73-.972-.73-.599 0-4.262.146-6.057.949z"
    fill="#000"
  ></path>
</svg>
