<svg viewBox="0 0 24 24" xmlns="http://www.w3.org/2000/svg">
  <path
    d="M19.388 2.234c-.6.68-.881 2.206-.272 3.76.61 1.552 1.548 1.216 2.13 2.796.769 2.089.412 4.895.412 4.895s.929 2.597 1.576-.164c1.435-5.185-3.846-10.007-3.846-11.287zM17.897 21.13c4.099-.463 5.919-4.549 3.583-4.63-2.101-.064-5.525 4.849-3.583 4.63z"
    fill="#000"
  ></path>
  <path
    d="M21.78 15.664c2.823-1.59 2.082-5.021 2.082-5.021s-1.088 1.225-1.829 3.178c-.722 1.934-1.95 2.806-.253 1.843zM12.822 23.165c3.94 1.216 7.317-1.79 5.234-2.788-1.894-.9-7.1 2.216-5.234 2.788z"
    fill="#000"
  ></path>
  <path
    d="M22.08 17.126c.094-.127.226-.545.338-.736.694-1.09.704-1.952.704-1.97.422-2.025.384-2.86.122-4.386-.207-1.235-1.117-3.006-1.905-3.85-.806-.88-.243-.59-1.022-1.235-.685-.736-1.36-1.471-1.716-1.762C15.974 1.062 16.03.608 16.087.536l-.038.036c-.028-.118-.056-.218-.056-.218s-1.445 1.38-1.745 3.696c-.197 1.507.385 3.087 1.238 4.095.441.527.938 1 1.482 1.417.638.89.995 1.989.995 3.169 0 2.96-2.477 5.348-5.535 5.348-.412 0-.834-.045-1.238-.136-1.444-.263-2.27-.971-2.692-1.453-.234-.272-.337-.472-.337-.472 1.294.445 2.72.354 3.592-.109.872-.472 1.407-.817 1.839-.68.422.135.76-.264.46-.673-.301-.408-1.07-.999-2.214-.835-.873.127-1.68.726-2.824.145-.075-.036-.15-.082-.216-.118-.075-.045.244.064.17.018a6.138 6.138 0 01-.723-.418c-.019-.018.169.055.16.037-1.07-.763-.939-1.28-.91-1.607a.936.936 0 01.553-.727c.16.073.253.136.253.136s-.065-.118-.103-.181c.01-.01.028 0 .038-.01.13.055.422.191.572.282a.785.785 0 01.262.227s.057-.027.01-.127a.698.698 0 00-.272-.318h.01c.112.055.224.127.327.2.057-.173.15-.354.132-.681-.01-.227-.01-.29-.056-.372-.038-.073.018-.11.093-.028-.01-.063-.037-.118-.065-.181v-.01c.093-.272 1.904-.98 2.035-1.062.216-.127.394-.3.535-.5.103-.135.178-.335.197-.635.01-.136-.038-.236-.516-.345-.29-.063-.732-.118-1.426-.182-.497-.045-.797-.354-.966-.644-.028-.064-.066-.118-.094-.173a1.73 1.73 0 01-.075-.2 3.88 3.88 0 011.548-1.852c.037-.036-.16.01-.122-.027.047-.037.356-.146.413-.173.075-.027-.3-.163-.638-.136-.338.036-.404.064-.591.136.075-.063.31-.145.253-.145-.338.036-.788.218-1.172.427 0-.037.009-.073.018-.11-.178.064-.619.337-.75.564a.588.588 0 00.01-.127 2.11 2.11 0 00-.367.336l-.009.009c-1.041-.364-1.96-.39-2.73-.227-.168-.146-.44-.373-.825-1.108-.028-.046-.037.09-.056.045-.15-.336-.244-.89-.225-1.271 0 0-.31.136-.563.708-.047.1-.075.164-.113.218-.018.018.028-.19.028-.172-.046.072-.159.172-.206.308-.037.1-.084.155-.112.273l-.01.009c0-.036.01-.145 0-.127a5.466 5.466 0 00-.31.726 6.54 6.54 0 00-.328 1.816c-.009.055 0 .127-.009.182-.328.363-.553.672-.638.826-.422.636-.891 1.617-1.341 3.178.197-.426.44-.835.722-1.216-.375.826-.741 2.134-.816 4.131.094-.417.206-.826.347-1.226-.066 1.335.094 2.997.966 4.868.516 1.098 1.707 3.332 4.625 5.076 0 0 .994.717 2.692 1.253.121.045.253.09.384.127a.656.656 0 00-.122-.045c1.135.326 2.308.499 3.499.499 4.408 0 5.712-1.716 5.712-1.716l-.01.009c.067-.055.123-.118.18-.173-.695.636-2.29.681-2.88.636 1.013-.29 1.678-.536 2.973-1.008.15-.055.31-.118.469-.19l.047-.028c.028-.018.066-.027.094-.045a8.96 8.96 0 001.773-1.072c1.303-1.008 1.585-1.989 1.735-2.633a2.402 2.402 0 01-.132.3c-.337.69-1.078 1.125-1.885 1.489.385-.49.741-1 1.07-1.526.262-.254.337-.654.543-.917z"
    fill="#000"
  ></path>
  <path
    d="M20.495 19.532a8.029 8.029 0 001.37-1.952c.928-1.889 2.363-5.04 1.238-8.318-.891-2.597-2.12-4.013-3.677-5.403C16.893 1.607 16.19.6 16.19 0c0 0-2.927 3.151-1.66 6.447 1.266 3.296 3.864 3.17 5.58 6.602 2.027 4.04-1.631 8.454-4.661 9.689.187-.037 6.725-1.471 7.072-5.094-.018.063-.169 1.071-2.026 1.888zM12.016 7.791c.01-.218-.104-.354-1.933-.527-.75-.063-1.04-.735-1.125-1.026-.263.672-.375 1.38-.32 2.234.038.563.432 1.163.61 1.508 0 0 .038-.055.057-.073.347-.354 1.81-.89 1.95-.963.16-.09.742-.5.76-1.153zM3.976 3.814c-.028-.046-.036.09-.055.045a3.034 3.034 0 01-.217-1.271s-.31.136-.563.708c-.046.1-.075.164-.112.218-.019.018.028-.19.028-.172-.047.072-.16.172-.206.3-.038.1-.085.163-.113.29-.01.036.01-.154 0-.127-.6 1.117-.712 2.806-.647 2.733 1.276-1.317 2.73-1.625 2.73-1.625-.18-.11-.517-.436-.845-1.1zM8.798 17.562c-1.754-.727-3.752-1.753-3.677-4.077.104-3.06 2.955-2.461 2.955-2.461-.103.027-.394.227-.497.436-.103.263-.3.862.29 1.489.939.98-1.922 2.325 2.486 4.867.113.055-1.031-.036-1.557-.254z"
    fill="#000"
  ></path>
  <path
    d="M8.18 16.036c1.247.418 2.691.345 3.564-.118.581-.317 1.332-.817 1.782-.69-.394-.154-.694-.227-1.06-.236-.066 0-.131 0-.197-.009-.131 0-.263.01-.394.018-.225.018-.469.155-.694.136-.01 0 .216-.09.197-.09-.122.027-.253.027-.385.045l-.253.027c-2.598.209-4.784-1.362-4.784-1.362-.187.6.835 1.807 2.223 2.28zM20.486 19.55c2.626-2.497 3.949-5.52 3.386-8.926 0 0 .225 1.744-.628 3.524.412-1.744.46-3.905-.629-6.148-1.444-2.988-3.827-4.568-4.737-5.221-1.379-1-1.95-2.007-1.96-2.216-.413.817-1.66 3.614-.131 6.02 1.425 2.261 3.676 2.924 5.243 4.995 2.908 3.823-.544 7.973-.544 7.973z"
    fill="#000"
  ></path>
  <path
    d="M20.11 13.058c-.919-1.834-2.063-2.633-3.142-3.496a3.2 3.2 0 01.226.345c.956.98 2.354 3.378 1.34 6.393-1.922 5.666-9.595 2.996-10.402 2.252.329 3.278 5.994 4.849 9.69 2.724 2.092-1.943 3.79-5.212 2.289-8.218z"
    fill="#000"
  ></path>
</svg>
