<svg viewBox="0 0 24 24" xmlns="http://www.w3.org/2000/svg">
  <path
    d="M9.52 2.904c-.06-1.251.977-2.247 1.336-2.29.02.212-.02 1.039.34 1.293.104-.675.457-1.42 1.854-1.907-.3.784-.04 1.441.083 1.746.953-.856 1.596-.715 1.596-.715s-.663 1.13-.404 1.872c-1.913-.148-4.795.201-4.804 0zM5.464 4.809c-.457-.375-.117-.723-.153-1.148-.02-.227-.037-.44-.113-.558-.42-.657-1.411-.856-1.421-.858l-.465-.09.308-.356c.04-.046 1.304-1.24 3.261-.615 1.37.437 2.383 1.918 2.42 1.977l-.686.32c-.008-.013-.81-1.405-1.984-1.78-.95-.302-1.824-.014-2.199.175.398.157.92.444 1.233.934.148.231.173.523.197.805.032.373.062.726.34.955l-.738.239zM4.244 10.277s.575-.705.746-2.078c.067-.54-.052-1.607-.242-2.017.034 1.008-.225 2.017-.225 2.017s-.175 1.873-.279 2.078z"
    fill="#000"
  ></path>
  <path
    d="M7.278 4.096s-.185-.798-.696-1.2c-.72-.567-1.6-.265-1.61-.263l-.127-.39c.043-.014 1.049-.327 1.976.317.932.648 1.044 1.236 1.054 1.3l-.597.236zM6.051 9.771s-.302-.427-.247-.897c.027-.232.135-.47.33-.555.36-.156.52.248.52.248s-.508.124-.603 1.204z"
    fill="#000"
  ></path>
  <path
    d="M9.365 10.423a1.3 1.3 0 01.019.036s-.941.699-1.906-.01c-.517-.38-.468-1.32-.31-1.718.412.092.76.258 1.052.452-.368-.325-.69-.565-.69-.57l-.419-.117-.814-.277c-.01.062-.308 1.439.55 2.377.38.416 2.161 1.347 3.007-.246l-.49.073z"
    fill="#000"
  ></path>
  <path
    d="M9.277 10.525c.53.798 1.867.342 1.844-.502 0 0-.894.488-1.683-.41-.461-.524-1.938-1.97-3.94-1.489 1.383.3 3.214 1.55 3.779 2.401z"
    fill="#000"
  ></path>
  <path
    d="M5.31 12.776c.128.073.577.534.578 1.223 0 .345-.035 2.08-.208 3.14.26.167.441.203.7.373.13-1.228.223-3.007.18-3.725-.05-.82-.493-1.369-.905-1.603a17.894 17.894 0 00-.398-.218c-.704-.376-1.433-.765-1.433-1.43 0-.52.205-.682.421-.855l.023-.018c.144-.115.307-.245.403-.459.263-.584.305-2.072 0-2.45-.153-.188-.56-.82-.443-1.246a.572.572 0 01.316-.368c.178-.09.419-.136.715-.136.582 0 1.227.175 1.56.28 1.189.372 2.624 1.447 3.036 1.768l.02.015.263.181-.165-.272c-.01-.017-1.053-1.713-2.917-2.335-.363-.12-1.075-.324-1.776-.324-.417 0-.77.072-1.05.214a1.255 1.255 0 00-.67.797c-.235.854.532 1.805.558 1.835.09.158.127 1.305-.08 1.764-.028.063-.105.125-.204.204-.03.025-.065.05-.102.078-.291.217-.732.546-.732 1.303 0 1.037 1.062 1.599 1.916 2.05.14.075.273.146.394.214z"
    fill="#000"
  ></path>
  <path
    d="M5.464 4.809c-.457-.375-.117-.723-.153-1.148-.02-.227-.037-.44-.113-.558-.42-.657-1.411-.856-1.421-.858l-.465-.09.308-.356c.04-.046 1.304-1.24 3.261-.615 1.37.437 2.383 1.918 2.42 1.977l-.686.32c-.008-.013-.81-1.405-1.984-1.78-.95-.302-1.824-.014-2.199.175.398.157.92.444 1.233.934.148.231.173.523.197.805.032.373.062.726.34.955l-.738.239z"
    fill="#000"
  ></path>
  <path
    d="M5.449 4.885l-.03-.024c-.338-.278-.278-.552-.22-.816.026-.123.054-.249.043-.379-.018-.218-.036-.423-.103-.527-.4-.625-1.367-.825-1.376-.827L3.182 2.2l.385-.445c.007-.008.819-.819 2.194-.819.375 0 .76.062 1.141.184 1.43.456 2.449 1.99 2.458 2.006l.042.065-.812.378-.033-.051C8.47 3.369 7.7 2.114 6.61 1.767a2.75 2.75 0 00-.837-.13c-.522 0-.945.141-1.17.236.376.167.832.45 1.121.9.157.245.183.545.208.835.03.36.059.699.315.908l.096.08-.894.29z"
    fill="#000"
  ></path>
  <path
    d="M7.278 4.096s-.185-.798-.696-1.2c-.72-.567-1.6-.265-1.61-.263l-.127-.39c.043-.014 1.049-.327 1.976.317.932.648 1.044 1.236 1.054 1.3l-.597.236z"
    fill="#000"
  ></path>
  <path
    d="M7.228 4.19l-.018-.08c-.002-.007-.182-.776-.671-1.16a1.571 1.571 0 00-.998-.331c-.299 0-.521.07-.546.079l-.066.022-.171-.521.066-.021c.03-.01.296-.092.674-.092.498 0 .969.145 1.363.418.955.665 1.072 1.279 1.082 1.347l.009.053-.724.285zM5.541 2.481c.41 0 .785.125 1.084.36.434.342.638.945.7 1.162l.47-.186c-.042-.164-.23-.657-1.014-1.202a2.204 2.204 0 00-1.283-.393c-.262 0-.465.041-.565.067l.085.259c.098-.026.288-.067.523-.067zM9.8 21.17a.878.878 0 01-.557-.198c-.11-.094-.485-.434-.65-.85-.062-.156-.048-.28.042-.37.061-.061.189-.135.448-.135h1.395c.198 0 .34.042.42.124.105.107.071.242.042.313a3.41 3.41 0 01-.617.906.707.707 0 01-.523.21zM10.014 10.572l-.737-.047s.188.329.31.754c.138.48-.126 1.183-.126 1.183s.984-1.1.553-1.89zM9.093 23.096c-2.625-.2-3.548-2.653-3.548-3.164l.675.26c.004.22.711 2.06 2.926 2.228l-.053.676z"
    fill="#000"
  ></path>
  <path
    d="M8.324 18.333c.002-.214.047-.42.151-.627.007-.014.016-.028.024-.041-.683-.006-1.469-.07-2.138-.336-.736-.29-1.656-1.287-1.814-2.456 0 0-1.386 1.057-.979 3.32.383 2.125 2.18 2.818 4.231 2.935.002-.014-.23-.487-.157-.777-1.164.084-2.467-.361-3.095-1.384-.576-.936-.414-2.535-.178-2.769.577 1.8 2.653 2.166 3.955 2.135z"
    fill="#000"
  ></path>
  <path
    d="M8.539 17.044c-.37 1.071-1.123 1.938-1.123 1.938s1.037-.047 1.094-.228c.042-.134.936-2.203 1.28-4.628-.323.525-1.22 2.827-1.251 2.918zM18.536 4.809c.457-.375.117-.723.153-1.148.02-.227.037-.44.113-.558.42-.657 1.411-.856 1.422-.858l.465-.09-.308-.356c-.04-.046-1.305-1.24-3.262-.615-1.37.437-2.383 1.918-2.42 1.977l.686.32c.008-.013.81-1.405 1.984-1.78.95-.302 1.825-.014 2.2.175-.4.157-.92.444-1.234.934-.148.231-.173.523-.197.805-.032.373-.062.726-.34.955l.738.239zM19.756 10.277s-.575-.705-.746-2.078c-.067-.54.052-1.607.242-2.017-.034 1.008.225 2.017.225 2.017s.175 1.873.279 2.078z"
    fill="#000"
  ></path>
  <path
    d="M16.723 4.096s.184-.798.695-1.2c.72-.567 1.6-.265 1.61-.263l.127-.39c-.043-.014-1.048-.327-1.976.317-.932.648-1.044 1.236-1.054 1.3l.598.236zM17.95 9.771s.3-.427.246-.897c-.026-.232-.135-.47-.33-.555-.36-.156-.52.248-.52.248s.508.124.603 1.204z"
    fill="#000"
  ></path>
  <path
    d="M14.635 10.423l-.019.036s.941.699 1.906-.01c.517-.38.468-1.32.31-1.718-.412.092-.76.258-1.053.452.37-.325.692-.565.69-.57l.42-.117.814-.276c.01.06.308 1.438-.55 2.376-.38.416-2.161 1.347-3.007-.245l.49.072z"
    fill="#000"
  ></path>
  <path
    d="M14.723 10.525c-.53.798-1.867.342-1.844-.502 0 0 .894.488 1.683-.41.461-.524 1.938-1.97 3.94-1.489-1.382.3-3.213 1.55-3.779 2.401z"
    fill="#000"
  ></path>
  <path
    d="M18.69 12.776c-.128.073-.577.534-.577 1.223 0 .345.034 2.08.207 3.14-.26.167-.441.203-.7.373-.13-1.228-.223-3.007-.18-3.725.05-.82.493-1.369.905-1.603.128-.073.263-.145.399-.218.704-.376 1.432-.765 1.432-1.43 0-.52-.205-.682-.421-.855l-.023-.018c-.144-.115-.306-.245-.402-.459-.263-.584-.306-2.072 0-2.45.152-.188.56-.82.443-1.246a.573.573 0 00-.317-.368c-.178-.09-.418-.136-.715-.136-.581 0-1.227.175-1.56.28-1.189.372-2.624 1.447-3.036 1.768l-.02.015-.263.181.165-.272c.01-.017 1.053-1.713 2.917-2.335.363-.12 1.076-.324 1.776-.324.417 0 .77.072 1.05.214.342.173.573.449.67.797.235.854-.532 1.805-.558 1.835-.09.158-.127 1.305.08 1.764.027.063.105.125.204.204.031.025.065.05.102.078.292.217.732.546.732 1.303 0 1.037-1.062 1.599-1.916 2.05-.14.075-.273.146-.394.214z"
    fill="#000"
  ></path>
  <path
    d="M17.423 4.687c-.169-.283-.601-.83-1.597-1.31-1.111-.536-2.397-.808-3.823-.808h-.006c-1.426 0-2.712.272-3.823.808-.996.48-1.428 1.026-1.597 1.31l-.073.094.853.188.027-.034.014-.03c.014-.056.128-.357 1.079-.816C9.493 3.6 10.679 3.35 12 3.35c1.321 0 2.506.249 3.523.74.95.458 1.065.759 1.078.814l.014.031.027.034.853-.188-.072-.094z"
    fill="#000"
  ></path>
  <path
    d="M18.536 4.809c.457-.375.117-.723.153-1.148.02-.227.037-.44.113-.558.42-.657 1.411-.856 1.422-.858l.465-.09-.308-.356c-.04-.046-1.305-1.24-3.262-.615-1.37.437-2.383 1.918-2.42 1.977l.686.32c.008-.013.81-1.405 1.984-1.78.95-.302 1.825-.014 2.2.175-.4.157-.92.444-1.234.934-.148.231-.173.523-.197.805-.032.373-.062.726-.34.955l.738.239z"
    fill="#000"
  ></path>
  <path
    d="M17.657 4.596l.097-.08c.255-.21.284-.548.315-.908.025-.29.05-.59.207-.835.289-.45.745-.732 1.122-.9a3.086 3.086 0 00-1.17-.235c-.289 0-.57.043-.838.129-1.09.347-1.86 1.603-1.946 1.75l-.033.051-.812-.377.041-.066c.01-.015 1.029-1.55 2.458-2.006a3.75 3.75 0 011.141-.183c1.375 0 2.188.81 2.194.818l.386.446-.581.113c-.01.001-.977.201-1.377.826-.067.104-.084.31-.103.528-.01.13.017.256.043.378.059.265.119.539-.22.816l-.03.025-.893-.29z"
    fill="#000"
  ></path>
  <path
    d="M16.723 4.096s.184-.798.695-1.2c.72-.567 1.6-.265 1.61-.263l.127-.39c-.043-.014-1.048-.327-1.976.317-.932.648-1.044 1.236-1.054 1.3l.598.236z"
    fill="#000"
  ></path>
  <path
    d="M16.05 3.904l.007-.053c.01-.068.127-.682 1.083-1.347a2.373 2.373 0 011.362-.418c.378 0 .645.083.675.092l.065.02-.171.522-.066-.022a1.863 1.863 0 00-.546-.079 1.57 1.57 0 00-.997.33c-.49.385-.67 1.154-.672 1.162l-.018.078-.723-.285zm2.932-1.355l.085-.26a2.368 2.368 0 00-.565-.066c-.476 0-.908.133-1.282.393-.785.545-.972 1.038-1.015 1.202l.47.186c.062-.217.266-.82.7-1.162.3-.235.674-.36 1.084-.36.235 0 .425.04.523.067zM13.678 20.96a3.415 3.415 0 01-.618-.906c-.03-.071-.062-.206.042-.313.082-.082.223-.124.42-.124h1.395c.26 0 .387.074.448.135.09.09.104.214.042.37-.165.416-.539.756-.65.85a.878.878 0 01-.557.197.707.707 0 01-.522-.209zM13.986 10.572l.737-.047s-.188.329-.31.754c-.138.48.126 1.183.126 1.183s-.984-1.1-.553-1.89zM13.294 7.963c-.471.282-.892.38-1.294.388a2.546 2.546 0 01-1.294-.388s.687.828 1.29.835h.008c.604-.006 1.29-.835 1.29-.835zM14.907 23.096l-.053-.676c2.214-.169 2.896-2 2.9-2.22l.701-.268c0 .51-.923 2.964-3.548 3.164z"
    fill="#000"
  ></path>
  <path
    d="M15.676 18.333a1.397 1.397 0 00-.15-.627l-.025-.041c.683-.006 1.469-.07 2.138-.336.736-.29 1.656-1.287 1.814-2.456 0 0 1.386 1.057.979 3.32-.383 2.125-2.18 2.818-4.231 2.935-.001-.014.23-.487.157-.777 1.164.084 2.466-.361 3.095-1.384.576-.936.414-2.535.178-2.769-.577 1.8-2.653 2.166-3.955 2.135z"
    fill="#000"
  ></path>
  <path
    d="M16.504 18.866c-.245-.262-.695-.574-1.734-.574l-2.766-.002h-.007l-2.767.002c-1.038 0-1.489.312-1.734.574-.357.381-.413.912-.166 1.575.656 1.764 1.579 3.556 4.667 3.559h.007c3.087-.003 4.01-1.795 4.666-3.56.247-.662.191-1.193-.166-1.574zm-.48 1.45c-.313.887-1.154 3.031-4.024 3.035-2.87-.004-3.71-2.148-4.024-3.034-.173-.492-.16-.856.041-1.082.137-.154.451-.338 1.168-.338h.748a3689.989 3689.989 0 014.134 0h.748c.717 0 1.031.184 1.168.338.2.227.213.59.04 1.082z"
    fill="#000"
  ></path>
  <path
    d="M15.461 17.044c.37 1.071 1.123 1.938 1.123 1.938s-1.037-.047-1.094-.228c-.042-.134-.936-2.203-1.28-4.628.323.525 1.22 2.827 1.251 2.918z"
    fill="#000"
  ></path>
</svg>
