<svg viewBox="0 0 24 24" xmlns="http://www.w3.org/2000/svg">
  <path
    fill-rule="evenodd"
    clip-rule="evenodd"
    d="M16.958.642l.003-.004.006-.006c.053-.082-.042-.275-.216-.439-.179-.167-.375-.24-.437-.162l-2.622 3-.52 2.283A28.57 28.57 0 0012 5.293c-2.761 0-5 .34-5 .76 0 .419 2.239.759 5 .759s5-.34 5-.76c0-.309-1.214-.575-2.957-.693l.447-1.91L16.958.641zm-1.697 12.163c-.294.316-.698.752-.665 1.1.073.758 1.214.085 1.574-.294l-.44 4.28s-.978.792-3.818.792-3.783-.805-3.783-.805l-.355-3.695c.597.316 1.08-.203 1.386-.532.044-.047.084-.09.12-.126.007.063-.042.223-.1.415-.121.4-.284.937-.075 1.009.238.081.37-.446.53-1.09.047-.191.097-.392.154-.591.036-.13.076-.261.115-.392.196-.652.381-1.272.13-1.347-.212-.062-.32.336-.415.678-.04.146-.077.282-.119.368-.196.407-1.354 1.776-1.493.76-.109-.797.715-2.396 1.098-2.801.192-.204.49-.391.703-.333.147.04.228.198.302.344.075.146.144.281.269.274.59-.037-.099-1.111-.615-1.14-1.135-.063-1.855 1.82-2.158 2.752l-.571-5.95s.605.591 4.9.591 4.97-.603 4.97-.603l-.67 6.518c-.244.355-.815.746-1.168.795-.135.02-.017-.108.171-.311.316-.34.827-.892.676-1.323-.204-.582-1.048.005-1.274.285.056-.175.094-.405-.135-.42-.117-.008-.17.174-.24.412-.067.23-.15.51-.318.724-.291.369-.467.43-.727.523a5.847 5.847 0 00-.152.055c-.32.123.272-1.345.705-2.42l.12-.299c.092-.229.303-.844.047-.935-.193-.069-.43.596-.694 1.34-.087.242-.176.492-.268.729-.213.55-.292.88-.341 1.086-.037.155-.058.24-.106.297-.173.202-.457.294-.527.237-.188-.154.002-.647.17-1.083.14-.361.263-.683.144-.739-.191-.089-.415.447-.568.813-.058.14-.107.256-.138.301l-.001.002c-.028.04-.63.903-.853.72-.132-.108.065-.638.236-1.059.013-.033.034-.075.056-.123.108-.227.275-.58.071-.67-.246-.108-1.238 2.054-.61 2.313.478.197.877-.278 1.054-.617-.08.804.633.638.966.332.2.608.95.008 1.204-.194l.029-.023a7.42 7.42 0 01-.308.812c-.233.553-.46 1.095-.266 1.209.252.147.615-.85.8-1.354.032-.09.06-.163.079-.213.36-.902.715-1.763 1.43-1.807.143.012-.016.183-.238.423zm-.333 6.634l-.213 3.837c0 .4-1.22.724-2.723.724-1.505 0-2.724-.324-2.724-.724l-.233-3.727-.66-1.184s1.319.581 3.56.581c2.242 0 3.582-.592 3.582-.592l-.589 1.085zM13.401 6.453c.285-.001.382-.025.382-.025h.005c.084-.013.209-.03.21-.139 0-.065-.05-.102-.109-.122l-.043.073c.036.01.056.02.056.033 0 .041-.27.06-.493.064-.223.003-.514-.025-.514-.067 0-.009.01-.017.03-.024l-.044-.073c-.045.02-.081.052-.081.107 0 .028.011.07.033.092.08.08.283.082.568.081z"
    fill="#000"
  ></path>
</svg>
