<svg viewBox="0 0 24 24" xmlns="http://www.w3.org/2000/svg">
  <path
    fill-rule="evenodd"
    clip-rule="evenodd"
    d="M19.635 24H4.365C3.059 24 2 22.975 2 21.711V2.29C2 1.025 3.059 0 4.365 0h15.27C20.94 0 22 1.025 22 2.289V21.71C22 22.975 20.94 24 19.635 24zm-5.101-3.302v-9.531s.64-2.281-7.89.933c-.016.04-.016-8.814-.016-8.814l2.787-.016v5.673s7.804-2.975 7.804 2.256v9.499h-2.685zm1.588-13.995h-2.957c1.065-1.26 2.028-3.417 2.028-3.417h3.057s-.523 1.406-2.128 3.417zM6.679 20.681v-5.428l2.804 2.715L6.68 20.68z"
    fill="#000"
  ></path>
</svg>
