<svg viewBox="0 0 24 24" xmlns="http://www.w3.org/2000/svg">
  <path
    d="M8.001 12a4 4 0 118 0 4 4 0 01-8 0zm-2.163 0a6.162 6.162 0 1012.324 0 6.162 6.162 0 00-12.324 0zm11.128-6.406a1.44 1.44 0 101.441-1.44 1.44 1.44 0 00-1.44 1.44zM7.152 21.768c-1.17-.054-1.806-.248-2.228-.413a3.73 3.73 0 01-1.38-.898c-.42-.42-.681-.819-.898-1.379-.165-.422-.36-1.058-.413-2.229-.058-1.264-.07-1.644-.07-4.849 0-3.204.013-3.583.07-4.85.053-1.17.25-1.804.413-2.228.218-.56.478-.96.897-1.38.42-.42.82-.68 1.38-.898.423-.164 1.06-.36 2.23-.412 1.264-.059 1.644-.07 4.848-.07 3.203 0 3.583.012 4.85.07 1.17.053 1.804.25 2.228.412.56.217.96.478 1.38.898.42.42.68.82.898 1.38.164.423.36 1.059.412 2.229.059 1.266.07 1.645.07 4.85 0 3.204-.011 3.583-.07 4.848-.053 1.17-.249 1.806-.412 2.229-.218.56-.478.96-.898 1.38-.42.419-.82.679-1.38.897-.423.165-1.059.36-2.229.413-1.265.058-1.645.07-4.85.07-3.204 0-3.583-.012-4.848-.07zM7.052.073C5.776.13 4.903.333 4.14.63a5.886 5.886 0 00-2.126 1.384A5.863 5.863 0 00.63 4.14c-.297.763-.5 1.635-.557 2.913C.013 8.333 0 8.74 0 12c0 3.259.014 3.668.073 4.947.058 1.278.26 2.15.557 2.913.306.79.716 1.46 1.384 2.126A5.9 5.9 0 004.14 23.37c.764.297 1.635.5 2.913.557C8.333 23.985 8.742 24 12 24c3.258 0 3.668-.014 4.947-.073 1.278-.058 2.15-.26 2.913-.557a5.902 5.902 0 002.126-1.384 5.878 5.878 0 001.384-2.126c.297-.763.5-1.635.557-2.913.058-1.28.072-1.688.072-4.947 0-3.259-.014-3.668-.072-4.947-.058-1.278-.26-2.15-.557-2.913a5.902 5.902 0 00-1.384-2.126A5.872 5.872 0 0019.862.63c-.764-.297-1.636-.5-2.913-.557C15.669.014 15.26 0 12.001 0 8.742 0 8.333.014 7.053.073z"
    fill="#000"
  ></path>
</svg>
