<svg viewBox="0 0 24 24" xmlns="http://www.w3.org/2000/svg">
  <path
    fill-rule="evenodd"
    clip-rule="evenodd"
    d="M23.443 17.814l-.108.28c-1.83 3.599-5.074 5.806-9.7 5.903-2.163.046-4.224-.515-5.57-1.124-2.906-1.317-5.35-3.76-6.684-6.371C-.534 12.76-.88 7.554 3.1 3.666c.062 0-.482.843-.42.843l-.11.36C-.298 13.933 8.54 21.7 17.13 20.812c2.064-.214 4.697-1.355 6.312-2.998z"
    fill="#000"
  ></path>
  <path
    fill-rule="evenodd"
    clip-rule="evenodd"
    d="M18.244 14.066c2.162.015 4.42-1.005 5.756-2.436-1.17 2.996-4.556 4.922-9.097 4.31-3.803-.514-7.425-4.376-7.798-8.246-.273-2.816.7-4.497 2.302-6.536-.557 1.067-.765 1.889-.817 2.414-.609 6.092 4.822 10.462 9.654 10.494z"
    fill="#000"
  ></path>
  <path
    fill-rule="evenodd"
    clip-rule="evenodd"
    d="M23.783 6.499c-.336.778-2.27 2.246-3.125 2.43-3.383.728-5.55-.892-6.684-2.734-.169-.275-.48-1.026-.536-1.218-.44-1.51-.238-3.795 1.075-4.977-.396 1.124-.454 2.43-.245 3.28.126.513.51 1.409.895 1.973.7 1.026 1.143 1.276 2.042 1.821.405.246.839.443 1.026.497.853.253 2.652.92 5.552-1.072z"
    fill="#000"
  ></path>
</svg>
