<svg viewBox="0 0 24 24" xmlns="http://www.w3.org/2000/svg">
  <path
    d="M4.485 20.96v-1.195c0-.457-.284-.756-.771-.756-.243 0-.507.08-.69.338-.142-.219-.344-.338-.649-.338a.66.66 0 00-.568.279v-.24h-.426v1.912h.426v-1.055c0-.339.183-.498.467-.498.284 0 .426.18.426.498v1.055h.426v-1.055c0-.339.203-.498.466-.498.284 0 .426.18.426.498v1.055h.467zm6.307-1.911h-.69v-.578h-.425v.578h-.385v.378h.385v.876c0 .438.182.697.67.697.182 0 .385-.06.527-.14l-.122-.358a.677.677 0 01-.365.1c-.203 0-.284-.12-.284-.319v-.856h.69v-.378zm3.61-.04a.574.574 0 00-.506.279v-.24h-.426v1.912h.426v-1.075c0-.319.142-.498.405-.498.081 0 .183.02.264.04l.122-.398c-.082-.02-.203-.02-.284-.02zm-5.455.199c-.203-.14-.487-.2-.791-.2-.487 0-.812.24-.812.618 0 .319.244.498.67.558l.203.02c.223.04.344.1.344.199 0 .139-.162.239-.446.239-.284 0-.507-.1-.649-.2l-.203.32c.223.158.528.238.832.238.568 0 .892-.259.892-.617 0-.339-.263-.518-.669-.578l-.203-.02c-.182-.02-.324-.06-.324-.179 0-.14.142-.219.365-.219.243 0 .486.1.608.16l.183-.339zm11.317-.2a.574.574 0 00-.507.28v-.24h-.426v1.912h.426v-1.075c0-.319.142-.498.406-.498.081 0 .182.02.264.04l.121-.398c-.08-.02-.203-.02-.284-.02zm-5.435.996c0 .578.405.996 1.034.996.284 0 .487-.06.69-.219l-.203-.338a.83.83 0 01-.507.179c-.345 0-.588-.24-.588-.618 0-.358.243-.597.588-.617a.83.83 0 01.507.18l.203-.34c-.203-.158-.406-.218-.69-.218-.629 0-1.034.418-1.034.995zm3.934-.955h-.426v.239a.738.738 0 00-.608-.28c-.548 0-.974.419-.974.996 0 .578.426.996.974.996.284 0 .487-.1.608-.279v.24h.426v-1.912zm-1.561.955c0-.338.223-.617.588-.617.345 0 .588.259.588.617 0 .339-.243.618-.588.618a.591.591 0 01-.588-.618zm-5.091-.995c-.568 0-.974.398-.974.995 0 .598.406.996.994.996.284 0 .568-.08.791-.259l-.203-.299a.98.98 0 01-.568.2c-.263 0-.527-.12-.588-.458h1.44v-.16c.02-.617-.345-1.015-.892-1.015zm0 .358c.263 0 .446.16.486.458h-1.014c.041-.259.223-.458.528-.458zm10.567-1.075h-.426v.996a.738.738 0 00-.609-.28c-.547 0-.973.419-.973.996 0 .578.426.996.973.996.284 0 .487-.1.609-.279v.24h.426v-2.669zm-1.562 1.712c0-.338.223-.617.588-.617.345 0 .588.259.588.617 0 .339-.243.618-.588.618a.591.591 0 01-.588-.618zM6.878 19.05h-.426v.239a.738.738 0 00-.608-.28c-.548 0-.974.419-.974.996 0 .578.426.996.974.996.283 0 .486-.1.608-.279v.24h.426v-1.912zm-1.582.955c0-.338.223-.617.588-.617.345 0 .588.259.588.617 0 .339-.243.618-.588.618a.591.591 0 01-.588-.618zM11.343 15.447c.058.049.12.098.181.146a7.391 7.391 0 01-4.107 1.238 7.416 7.416 0 114.104-13.593c-.06.051-.12.098-.165.15a7.963 7.963 0 00-2.761 6.028 7.996 7.996 0 002.748 6.031zM16.584 2c-1.52 0-2.931.456-4.105 1.238.06.051.12.098.165.15a7.963 7.963 0 012.761 6.028 8.002 8.002 0 01-2.748 6.031c-.058.049-.12.098-.181.146a7.386 7.386 0 004.107 1.238A7.414 7.414 0 0024 9.416 7.417 7.417 0 0016.584 2zM12 3.59a7.388 7.388 0 00-2.831 5.826A7.386 7.386 0 0012 15.243a7.39 7.39 0 002.831-5.827A7.388 7.388 0 0012 3.59z"
    fill="#000"
  ></path>
</svg>
