<svg viewBox="0 0 24 24" xmlns="http://www.w3.org/2000/svg">
  <path
    fill-rule="evenodd"
    clip-rule="evenodd"
    d="M18.01 1v.01L24 3.504V23l-6.01-2.387-5.971 2.377V23h-.038v-.01L6.01 20.613 0 23V3.504L5.99 1.01V1l.02.01.009-.01v.01L12 3.494l5.981-2.484V1l.01.01.018-.01zm2.417 10.097c.025.412.057.932.18 1.303l-.029.243c-.223.484-.743 1.748-.575 1.505-.205.298-.375.346-.916.249-.353.28-.587.415-.934.616l-.247.144c-.4.093-1.133-.105-1.7-.258a9.607 9.607 0 00-.522-.132c-.775-.149-.994-.02-1.488.268-.121.07-.258.15-.424.239-.83.43-1.001 1.286-1.162 2.09-.083.414-.163.813-.329 1.135.01.01.01.01.01.02.037.097.065.204.093.31l.057.264c-1.435.175-2.879-.039-4.191-.711a7.629 7.629 0 01-2.597-2.212c.097-.053.19-.106.281-.157l.225-.126c.052-.029.103-.056.153-.081.049-.026.096-.05.138-.074l-.178-.01c-.174-.041-.2-.053-.226-.051-.023.001-.045.013-.168.022.234-.283.56-.54.692-.645.032-.025.053-.041.058-.047l.047-.049-.2.068c-.358.12-.786.264-1.038.517.066-.328.237-.592.406-.854.097-.151.194-.301.27-.462-.45.254-.9.556-1.266.906.012-.293.235-.574.443-.835.102-.13.201-.254.27-.373a2.47 2.47 0 01.221-.31c.105-.132.207-.26.266-.41-.45.175-1.49.74-1.903 1.022.197-.662 1.068-1.646 1.547-2.162-.407.034-1.248.527-1.728.809l-.166.097c-.004-.011-.002-.024 0-.037.002-.024.005-.048-.019-.06.267-.436.985-1.077 1.506-1.542l.322-.29c-.362.03-.954.309-1.472.552-.286.135-.55.258-.74.324.337-.663 1.328-1.463 2.085-2.074.21-.17.403-.325.558-.459l-1.715.458c-.104.012-.206.05-.306.086-.134.05-.264.096-.388.08.89-.955 2.756-2.582 3.947-3.362 0 0 1.65-1.218 3.319-1.032.257.077.512.164.766.25.477.162.954.324 1.456.432.675-.186 1.556-.4 2.184.077.422.41.834.946.628 1.598.602.687 1.586 1.063 2.49 1.408.829.316 1.59.607 1.926 1.087.048.071.064.322.083.636z"
    fill="#000"
  ></path>
</svg>
