<svg viewBox="0 0 24 24" xmlns="http://www.w3.org/2000/svg">
  <path
    d="M21.75 5c-.844 0-1.575.493-1.96 1.214l-.046.098-3.994 8.278 1.462 3.029.085.168c.225.414.562.76.975.966a2.36 2.36 0 00.975-.966l.084-.168 4.378-9.077.104-.217c.121-.296.187-.612.187-.957C24 6.056 22.997 5 21.75 5zM8.24 9.4L6.789 6.381l-.085-.167a2.304 2.304 0 00-.975-.967 2.36 2.36 0 00-.975.967l-.075.167L.3 15.458l-.103.217a2.48 2.48 0 00-.188.957C.01 17.934 1.013 19 2.26 19c.844 0 1.575-.493 1.96-1.213l.047-.1 1.762-3.65L8.25 9.41l-.01-.01z"
    fill="#000"
  ></path>
  <path
    d="M21.75 5c-.844 0-1.584.493-1.96 1.214l-.046.098-3.994 8.278 1.462 3.029.085.168c.225.414.562.76.975.966a2.36 2.36 0 00.975-.966l.084-.168 4.378-9.077.104-.217c.121-.296.187-.612.187-.957C24 6.056 22.988 5 21.75 5zM2.25 19c.844 0 1.584-.493 1.96-1.213l.046-.1L8.25 9.41 6.788 6.381l-.085-.167a2.304 2.304 0 00-.975-.967 2.36 2.36 0 00-.975.967l-.075.167L.3 15.458l-.112.227a2.48 2.48 0 00-.188.957C0 17.944 1.003 19 2.25 19z"
    fill="#000"
  ></path>
  <path
    d="M8.24 9.4L6.789 6.381l-.085-.167a2.304 2.304 0 00-.975-.967A2.154 2.154 0 016.712 5h3.075c.844.01 1.575.493 1.96 1.214l.066.167 5.4 11.238.084.168c.225.414.562.76.975.966a2.17 2.17 0 01-.994.247h-3.056c-.844-.01-1.575-.493-1.96-1.213l-.084-.168L8.241 9.4z"
    fill="#000"
  ></path>
</svg>
