<svg viewBox="0 0 24 24" xmlns="http://www.w3.org/2000/svg">
  <path
    d="M5.663 8.651h4.527V9H6.078v2.618h3.866v.348H6.078v2.875h4.159v.348H5.663V8.65zm4.932 0h.481l2.131 2.875 2.179-2.875L18.349 5l-4.868 6.828 2.508 3.36h-.5l-2.282-3.058-2.291 3.058h-.49l2.527-3.36-2.358-3.177zM16.17 9v-.348h5.158V9H18.95v6.189h-.414v-6.19h-2.367zM0 8.651h.519L7.67 19l-2.956-3.812-4.28-6.042-.02 6.042H0V8.65zm21.285 6.084a.144.144 0 01-.148-.146c0-.082.063-.145.148-.145.086 0 .148.063.148.145a.144.144 0 01-.148.146zm.408-.383h.222c.003.116.09.194.22.194.144 0 .226-.084.226-.24v-.998h.226v.998c0 .283-.17.447-.45.447-.263 0-.444-.159-.444-.401zm1.19-.013h.224c.019.134.154.22.349.22.182 0 .315-.092.315-.217 0-.107-.085-.172-.278-.216l-.187-.044c-.264-.06-.384-.182-.384-.39 0-.25.212-.418.53-.418.296 0 .512.167.525.405h-.22c-.021-.13-.139-.211-.308-.211-.179 0-.298.083-.298.21 0 .1.077.158.267.201l.16.038c.299.068.422.185.422.397 0 .27-.216.439-.561.439-.323 0-.54-.162-.556-.414z"
    fill="#000"
  ></path>
</svg>
