<svg viewBox="0 0 24 24" xmlns="http://www.w3.org/2000/svg">
  <path
    fill-rule="evenodd"
    clip-rule="evenodd"
    d="M22.926 13.587c.488.07.866.366 1.01.79.421 1.235-1.366 2.15-1.924 2.402-.706.317-1.855.51-2.795.47l-.043-.004-.17-.014-.014.124-.005.044-.018.146c-.063 2.35-.412 3.84-1.128 4.83-.759 1.048-1.807 1.34-2.73 1.532a4.266 4.266 0 01-.863.093c-.617 0-1.29-.156-1.847-.666-.538-.492-.75-1.12-.876-1.496a4.515 4.515 0 00-.052-.151c-.254-.663-.339-1.611-.39-2.83-.007-.18-.012-.373-.018-.57l-.013-.408c-.852.362-1.85.426-2.916.168a2.99 2.99 0 01-.834-.34 1.823 1.823 0 01-.442-.37c-.85.686-1.657.586-2.102.442-.793-.256-1.5-.971-2.16-2.185-.466-.856-.916-1.97-1.338-3.311C.524 9.949.058 7.488.015 6.679c-.131-2.548.58-4.372 2.112-5.422C3.392.39 5.122.123 7.269.465A14.55 14.55 0 019.464 1c.89-.512 1.93-.761 3.109-.743.628.01 1.227.063 1.784.158.599-.18 1.746-.43 3.052-.414 2.45.028 4.48.955 5.871 2.68.526.65.976 2.091.134 5.253-.52 1.955-1.425 4.033-2.538 5.855a7.46 7.46 0 001.243-.159 2.38 2.38 0 01.807-.043zm-.686.667c.57-.114.913-.013 1.02.3.205.603-.93 1.298-1.559 1.582-.56.252-1.452.411-2.226.411-.37 0-.714-.037-.98-.117-.127 1.126-.395 3.225-.552 4.104-.292 1.645-1.048 2.391-2.788 2.753-.296.062-.566.09-.81.09-1.668 0-2.196-1.28-2.412-1.805-.264-.64-.356-2.74-.337-4.872-.602.528-1.355.8-2.21.8-.352 0-.72-.045-1.104-.138-.11-.027-1.074-.278-1.061-.876.012-.547.816-.708 1.12-.769 1.065-.213 1.134-.298 1.465-.705.067-.082.146-.18.242-.29l-.004-.036a3.14 3.14 0 01-1.37-.357 48.829 48.829 0 00-1.904 2.09c-.503.587-.987.759-1.381.759a1.41 1.41 0 01-.434-.07c-1.081-.35-2.109-2.05-3.055-5.055C1.182 9.77.727 7.386.687 6.61c-.119-2.303.494-3.933 1.821-4.845C3.62 1 5.18.769 7.141 1.076c1.134.177 2.062.486 2.42.615.827-.546 1.825-.814 2.98-.796a7.93 7.93 0 011.739.216c.252-.107 1.552-.489 3.09-.472 2.237.023 4.086.86 5.345 2.421.313.387.464 1.021.45 1.884-.012.786-.165 1.75-.441 2.788-.584 2.192-1.666 4.54-2.981 6.484.199.142.805.377 2.497.038zm-3.228-6.36a6.56 6.56 0 00.102-.95c-1.367-.165-1.912.141-2.127.439-.721 1 .687 3.449 1.289 4.495.154.269.266.463.317.584.057.133.12.254.183.365.414-.854.307-1.719.203-2.56-.052-.415-.105-.846-.091-1.26.014-.424.07-.774.123-1.113zm3.158-4.42c-1.123-1.392-2.709-2.119-4.714-2.162a9.325 9.325 0 00-2.015.184 7.588 7.588 0 012.685 1.958c1.104 1.246 1.645 2.622 1.69 3.082a.51.51 0 01-.012.18c.018.48-.046.886-.108 1.28-.05.32-.103.649-.116 1.033-.012.363.036.75.087 1.159.123.996.262 2.12-.448 3.257l.035.042.083.102c2.746-4.19 3.694-9.047 2.833-10.115zM5.175 16.471c.126.04.508.165 1.063-.482a49.662 49.662 0 011.858-2.044A3.43 3.43 0 016.9 10.793c.17-1.173.106-2.208.072-2.765a6.277 6.277 0 01-.016-.34c-.005-.202-.052-3.51 1.925-5.447l.03-.028.023-.021C7.729 1.81 4.73 1.06 2.907 2.315c-1.12.77-1.634 2.205-1.528 4.263.033.65.458 2.971 1.184 5.279.84 2.667 1.791 4.349 2.612 4.614zm2.41-5.585a2.774 2.774 0 00.765 2.37 2.5 2.5 0 001.769.76c.075-.298.195-.612.325-.949v-.002l.052-.133c.066-.173.143-.34.225-.517.399-.858.894-1.926.323-4.487-.11-.495-.376-.783-.811-.88-.955-.212-2.293.484-2.582.732l.011.194.001.015c.036.58.101 1.659-.077 2.897zm.403 5.631c.1.067.272.147.462.193.924.224 2.211.24 3.094-.96.105-.142.073-.324.044-.42-.06-.204-.208-.39-.36-.45-.189-.076-.292-.118-.519.128-.151.164-.26.299-.357.417l-.002.003c-.423.52-.616.697-1.87.947a2.304 2.304 0 00-.492.142zm4.588 4.806c.357.867.9 1.626 2.434 1.307 1.479-.307 2.005-.824 2.251-2.21.187-1.05.554-4.02.606-4.654-.064-1.264.64-1.517 1.03-1.627a4.68 4.68 0 00-.182-.23l-.002-.002c-.221-.269-.525-.637-.76-1.19a7.63 7.63 0 00-.282-.512c-.721-1.254-2.221-3.863-1.252-5.207.446-.618 1.325-.866 2.618-.738-.172-.496-.603-1.414-1.398-2.326-.923-1.058-2.559-2.327-5.11-2.368-1.294-.02-2.356.365-3.154 1.145C8.108 3.951 7.77 5.91 7.68 6.958a5.42 5.42 0 01.191-.099c.321-.158.965-.433 1.67-.504 1.173-.118 1.948.39 2.18 1.43.62 2.778.049 4.008-.368 4.906-.077.166-.15.323-.208.474l-.052.135c-.123.32-.236.615-.302.876.307-.076.562.027.701.083.35.14.642.48.762.886.02.066.034.132.043.197a.34.34 0 01.015.106c-.08 2.79.033 5.315.264 5.875zm7.127-5.452c.637-.03 1.306-.164 1.707-.345.465-.21.794-.443.986-.617l-.016.003c-1.423.285-2.43.246-2.995-.116a1.226 1.226 0 01-.097-.069 2.44 2.44 0 01-.143.042l-.004.002c-.32.087-.622.169-.583.957.084.066.442.175 1.145.143zm-1.23-8.466c-.025-.167-.331-.215-.622-.176-.29.04-.571.167-.548.334.019.13.261.352.548.352a.542.542 0 00.073-.005.711.711 0 00.399-.211c.101-.104.16-.22.15-.294zm-8.344-.007c-.252-.034-.48-.003-.596.082a.21.21 0 00-.09.141c-.015.1.058.212.103.27a.782.782 0 00.494.299.593.593 0 00.079.005c.305 0 .582-.23.607-.4.03-.213-.288-.355-.598-.397z"
    fill="#000"
  ></path>
</svg>
