<svg viewBox="0 0 24 24" xmlns="http://www.w3.org/2000/svg">
  <path
    d="M20.433 4.571h-1.31a.462.462 0 00-.456.47v.205c0 .258.204.468.455.468h1.311c.252 0 .456-.21.456-.468V5.04a.462.462 0 00-.456-.469zM8.21 22.857H2.457a.462.462 0 00-.456.469v.205c0 .26.204.469.456.469H8.21c.252 0 .456-.21.456-.469v-.205a.462.462 0 00-.456-.469zM19.322 13.714H15.79a.462.462 0 00-.456.469v.205c0 .26.204.47.456.47h3.533c.252 0 .456-.21.456-.47v-.205a.462.462 0 00-.456-.469zM13.767 13.714H9.122a.462.462 0 00-.455.469v.205c0 .26.204.47.455.47h4.645c.251 0 .455-.21.455-.47v-.205a.462.462 0 00-.455-.469zM7.1 13.714H2.456a.462.462 0 00-.456.469v.205c0 .26.204.47.456.47H7.1c.252 0 .456-.21.456-.47v-.205a.462.462 0 00-.456-.469zM8.21 18.286H2.457a.462.462 0 00-.456.468v.206c0 .259.204.469.456.469H8.21c.252 0 .456-.21.456-.47v-.204a.462.462 0 00-.456-.47zM8.21 9.143H2.457A.462.462 0 002 9.612v.205c0 .259.204.469.456.469H8.21c.252 0 .456-.21.456-.469v-.205a.462.462 0 00-.456-.47zM19.322 2.286H8.012a.462.462 0 00-.456.468v.206c0 .259.204.469.455.469h11.311c.252 0 .456-.21.456-.47v-.205a.462.462 0 00-.456-.468zM5.989 2.286H2.456A.462.462 0 002 2.754v.206c0 .259.204.469.456.469h3.533c.251 0 .455-.21.455-.47v-.205a.462.462 0 00-.455-.468zM8.21 20.571H6.9a.462.462 0 00-.456.47v.204c0 .26.204.47.456.47h1.31c.253 0 .457-.21.457-.47v-.205a.462.462 0 00-.456-.469zM8.21 6.857H6.9a.462.462 0 00-.456.469v.205c0 .26.204.469.456.469h1.31c.253 0 .457-.21.457-.469v-.205a.462.462 0 00-.456-.469zM4.878 20.571H2.456a.462.462 0 00-.456.47v.204c0 .26.204.47.456.47h2.422c.251 0 .455-.21.455-.47v-.205a.462.462 0 00-.455-.469zM4.878 6.857H2.456A.462.462 0 002 7.326v.205c0 .26.204.469.456.469h2.422c.251 0 .455-.21.455-.469v-.205a.462.462 0 00-.455-.469zM20.433 11.429h-9.088a.462.462 0 00-.456.468v.206c0 .259.204.468.456.468h9.088c.252 0 .456-.21.456-.468v-.206a.462.462 0 00-.456-.468zM9.322 11.429H5.79a.462.462 0 00-.456.468v.206c0 .259.204.468.456.468h3.533c.252 0 .456-.21.456-.468v-.206a.462.462 0 00-.456-.468zM3.766 11.429h-1.31a.462.462 0 00-.456.468v.206c0 .259.204.468.456.468h1.31c.252 0 .456-.21.456-.468v-.206a.462.462 0 00-.456-.468zM17.1 4.571h-4.644a.462.462 0 00-.456.47v.205c0 .258.204.468.456.468H17.1c.252 0 .456-.21.456-.468V5.04a.462.462 0 00-.456-.469zM10.433 4.571H2.456a.462.462 0 00-.456.47v.205c0 .258.204.468.456.468h7.977c.252 0 .456-.21.456-.468V5.04a.462.462 0 00-.456-.469zM15.989 16h-10.2a.462.462 0 00-.456.469v.205c0 .259.204.469.456.469h10.2c.251 0 .455-.21.455-.469v-.205A.462.462 0 0015.99 16zM3.766 16h-1.31a.462.462 0 00-.456.469v.205c0 .259.204.469.456.469h1.31c.252 0 .456-.21.456-.469v-.205A.462.462 0 003.766 16zM21.544 6.857H15.79a.462.462 0 00-.456.469v.205c0 .26.204.469.456.469h5.755c.252 0 .456-.21.456-.469v-.205a.462.462 0 00-.456-.469zM21.544 9.143H15.79a.462.462 0 00-.456.469v.205c0 .259.204.469.456.469h5.755c.252 0 .456-.21.456-.469v-.205a.462.462 0 00-.456-.47zM15.989 0H2.456A.462.462 0 002 .469v.205c0 .259.204.469.456.469h13.533c.251 0 .455-.21.455-.469V.47A.462.462 0 0015.99 0z"
    fill="#000"
  ></path>
</svg>
