<svg viewBox="0 0 24 24" xmlns="http://www.w3.org/2000/svg">
  <path
    d="M12.76 18.714c-.86-1.637-1.867-3.29-3.834-3.29-.376 0-.752.06-1.096.213l-.668-1.294c.814-.676 2.13-1.212 3.82-1.212 2.631 0 3.982 1.226 5.053 2.791.637-1.336.94-3.14.94-5.377 0-5.586-1.806-8.454-6.023-8.454C6.796 2.091 5 4.96 5 10.545c0 5.556 1.796 8.394 5.952 8.394.66 0 1.258-.07 1.808-.225zm1.03 1.95c-.91.236-1.878.366-2.838.366C5.418 21.03 0 16.758 0 10.545 0 4.273 5.418 0 10.952 0c5.626 0 10.992 4.242 10.992 10.545 0 3.506-1.69 6.355-4.148 8.196.794 1.151 1.611 1.915 2.75 1.915 1.242 0 1.743-.928 1.826-1.657h1.618c.095.97-.407 5.001-4.928 5.001-2.738 0-4.186-1.536-5.272-3.337z"
    fill="#000"
  ></path>
</svg>
