<svg viewBox="0 0 24 24" xmlns="http://www.w3.org/2000/svg">
  <path
    d="M19.517 4.673a.225.225 0 00-.198-.195l-1.831-.144-1.348-1.413c-.133-.14-.393-.097-.494-.066l-.68.221c-.405-1.231-1.121-2.363-2.38-2.363-.035 0-.07.002-.107.004-.358-.5-.801-.717-1.184-.717C8.36 0 6.96 3.87 6.52 5.836c-1.14.372-1.95.637-2.052.672-.637.21-.657.231-.74.864C3.665 7.85 2 21.435 2 21.435L14.972 24 22 22.395 19.517 4.673zM14.25 3.31l-1.097.359v-.25c0-.765-.1-1.381-.262-1.87.65.086 1.081.865 1.36 1.761zM12.085 1.7c.18.478.298 1.162.298 2.086v.134l-2.268.74c.437-1.777 1.255-2.635 1.97-2.96zm-.871-.87a.64.64 0 01.376.134c-.94.467-1.948 1.643-2.373 3.99l-1.792.586C7.923 3.75 9.107.83 11.214.83zm1.372 7.746l-.867 2.72s-.76-.427-1.69-.427c-1.364 0-1.433.903-1.433 1.131 0 1.242 3.069 1.718 3.069 4.628 0 2.29-1.376 3.764-3.232 3.764-2.226 0-3.365-1.462-3.365-1.462l.596-2.079s1.17 1.06 2.158 1.06c.646 0 .908-.535.908-.927 0-1.62-2.518-1.693-2.518-4.356 0-2.241 1.525-4.41 4.602-4.41 1.186 0 1.772.358 1.772.358z"
    fill="#000"
  ></path>
  <path
    d="M19.319 4.478l-1.831-.144-1.348-1.413a.325.325 0 00-.187-.09L14.972 24 22 22.395 19.517 4.673a.225.225 0 00-.198-.195z"
    fill="#000"
  ></path>
</svg>
