<svg viewBox="0 0 24 24" xmlns="http://www.w3.org/2000/svg">
  <path
    d="M23.95 17.866L20.006 1.362A1.774 1.774 0 0017.866.05l-3.4.813c.867.137 2.584.512 4.474 1.504l-1.48 4.102s-1.232-1.376-4.535-1.543c-3.14-.16-4.887 3.238 1.238 5.24 4.689 1.534 6.188 4.49 6.11 7.223-.04 1.42-.537 2.577-1.113 3.448l3.478-.831a1.775 1.775 0 001.313-2.14zm-13.298-4.19c-3.189-1.204-5.867-3.355-6.045-6.155-.113-1.786.337-3.346 1.499-4.66L1.362 3.995A1.774 1.774 0 00.05 6.135l3.946 16.503a1.774 1.774 0 002.139 1.313l2.031-.486c-.788-.261-2.151-.759-3.458-1.455l1.894-4.296S8.83 19.7 12.03 19.7s4.622-3.756-1.378-6.022z"
    fill="#000"
  ></path>
  <path
    d="M4.607 7.521c-.097-1.537.22-2.907 1.052-4.097L1.465 4.427c-.713.17-1.155.89-.985 1.604l2.268 9.483c.715-.883 2.43-2.7 4.91-3.38-1.725-1.198-2.933-2.764-3.05-4.613zm14.966-6.056A1.333 1.333 0 0017.97.48l-2.467.59c.916.222 2.136.613 3.438 1.296l-1.48 4.102s-1.232-1.376-4.535-1.543c-3.14-.16-4.887 3.238 1.238 5.24 1.604.525 2.835 1.216 3.757 2.008l.107-.036c1.193-.436 2.337-1.996 3.176-3.856l-1.63-6.816z"
    fill="#000"
  ></path>
</svg>
