<svg viewBox="0 0 24 24" xmlns="http://www.w3.org/2000/svg">
  <path
    fill-rule="evenodd"
    clip-rule="evenodd"
    d="M18.237 1.738C15.498.046 12.067-.418 8.96.378 4.28 1.544.567 5.789.09 10.6c-.59 4.554 1.708 9.297 5.644 11.648 3.862 2.42 9.093 2.323 12.874-.223 3.398-2.208 5.512-6.235 5.386-10.295-.058-4.02-2.31-7.926-5.758-9.99zm3.919 8.895c-.608-6.297-7.804-10.638-13.67-8.287C4.302 3.814 1.38 8.219 1.787 12.658c.154 5.483 5.425 10.111 10.88 9.566 5.735-.166 10.433-5.924 9.488-11.59z"
    fill="#000"
  ></path>
  <path
    d="M9.075 11.39c2.63-2.15 5.203-4.375 7.89-6.463-1.41 2.168-2.86 4.307-4.269 6.475-1.208.006-2.417.006-3.62-.011zM11.299 12.59c1.214 0 2.423 0 3.632.016-2.647 2.14-5.208 4.382-7.9 6.464 1.409-2.168 2.858-4.313 4.268-6.48z"
    fill="#000"
  ></path>
</svg>
