<svg viewBox="0 0 24 24" xmlns="http://www.w3.org/2000/svg">
  <path
    d="M3.01 13.989l1.823.017-.063 8.041h12.135v-8.011h1.922V24H3l.01-10.011z"
    fill="#000"
  ></path>
  <path
    d="M5.983 18.742h9.506v2.003H5.983v-2.003zM6.205 15.138l9.514.91-.2 2.043-9.513-.91.2-2.043zM7.074 11.064l9.197 2.57-.563 1.976-9.197-2.57.563-1.976zM9.305 6.455l8.18 4.893-1.072 1.757-8.18-4.893 1.072-1.757zM13.957 2.091l5.567 7.694-1.685 1.196-5.567-7.694 1.685-1.196zM20.423 0l1.575 9.334-2.045.338L18.378.338 20.423 0z"
    fill="#000"
  ></path>
</svg>
