<svg viewBox="0 0 24 24" xmlns="http://www.w3.org/2000/svg">
  <path
    fill-rule="evenodd"
    clip-rule="evenodd"
    d="M18.62 0H5.333c-.103 0-.206 0-.3.019a5.248 5.248 0 00-2.69.91A5.323 5.323 0 00.535 3.036a4.978 4.978 0 00-.497 2.297v13.332c0 .806.179 1.612.535 2.334a5.417 5.417 0 001.827 2.1 5.346 5.346 0 002.699.89c.197.01 13.26.01 13.514.01a5.63 5.63 0 001.677-.244 5.305 5.305 0 002.343-1.51 5.308 5.308 0 001.265-2.502A6.08 6.08 0 0024 18.506V5.541a6.5 6.5 0 00-.066-1.041 5.257 5.257 0 00-1.152-2.569A5.293 5.293 0 0020.505.32 5.6 5.6 0 0018.62 0zm.291 14.878s2.559-5.934-5.35-11.316c0 0 3.232 4.079 1.583 8.654 0 0-5.81-4.135-8.734-7.097 0 0 3.655 5.268 4.957 6.347 0 0-2.183-1.135-7.234-5.438 0 0 5.8 7.575 8.528 9.16 0 0-4.133 2.821-10.187-1.163 0 0 3.177 5.616 9.896 5.616 1.77 0 2.805-.536 3.66-.978.604-.313 1.118-.579 1.738-.579 1.556 0 2.483 1.557 2.483 1.557.91-2.222-1.34-4.763-1.34-4.763z"
    fill="#000"
  ></path>
</svg>
