<svg viewBox="0 0 24 24" xmlns="http://www.w3.org/2000/svg">
  <path
    d="M17.51.026H20V24h-2.49V.026zM4 5.486h3.12V0h4.137v5.486h3.737v3.01h-3.737v9.77c0 .424.018.79.054 1.096.036.308.12.567.254.78.133.212.332.37.599.477.266.106.629.16 1.088.16.29 0 .58-.006.87-.019.291-.01.581-.053.872-.123v3.115c-.46.047-.908.094-1.343.142-.435.046-.883.07-1.342.07-1.089 0-1.965-.1-2.63-.3-.666-.2-1.186-.496-1.56-.886-.376-.389-.63-.879-.763-1.469a10.7 10.7 0 01-.235-2.017V8.495H4V5.486z"
    fill="#000"
  ></path>
</svg>
