<svg viewBox="0 0 24 24" xmlns="http://www.w3.org/2000/svg">
  <path
    d="M12.063 10.558c-.013 1.114.935 1.736 1.65 2.106.734.379.98.622.977.962-.005.519-.585.748-1.128.757-.947.015-1.497-.272-1.935-.489l-.341 1.695c.439.215 1.252.403 2.095.411 1.98 0 3.275-1.038 3.282-2.647.007-2.042-2.66-2.155-2.642-3.068.007-.276.255-.572.8-.647.27-.038 1.014-.067 1.859.346l.33-1.64A4.792 4.792 0 0015.248 8c-1.863 0-3.173 1.052-3.184 2.558zm8.131-2.417c-.361 0-.666.224-.802.568l-2.827 7.17h1.978l.393-1.155h2.417l.229 1.155h1.743l-1.521-7.738h-1.61zm.277 2.09l.57 2.906h-1.563l.993-2.905zM9.665 8.142l-1.56 7.739h1.886l1.558-7.739H9.665zm-2.788 0l-1.962 5.267L4.12 8.93c-.093-.5-.46-.789-.869-.789H.045L0 8.366c.658.152 1.406.397 1.86.658.277.16.356.3.447.68L3.81 15.88h1.992l3.054-7.738h-1.98zM0 2h24v2.667H0V2zM0 19.333h24V22H0v-2.667z"
    fill="#000"
  ></path>
</svg>
