<svg viewBox="0 0 24 24" xmlns="http://www.w3.org/2000/svg">
  <path
    d="M.228 8.37s-.584-.427.117-.995L1.98 5.897s.467-.497.962-.064l15.08 11.542v5.535s-.006.869-1.11.773L.228 8.369z"
    fill="#000"
  ></path>
  <path
    d="M4.116 11.937L.229 15.509s-.4.3 0 .837l1.804 1.66s.43.465 1.062-.065l4.121-3.158-3.1-2.846zM10.94 11.965l7.13-5.502-.047-5.505s-.305-1.201-1.32-.576L7.216 9.109l3.724 2.856z"
    fill="#000"
  ></path>
  <path
    d="M16.912 23.69c.414.428.916.288.916.288l5.556-2.767c.71-.49.611-1.098.611-1.098V3.588c0-.726-.736-.977-.736-.977L18.444.265c-1.052-.658-1.741.117-1.741.117s.886-.645 1.32.576v21.85c0 .15-.032.299-.095.431-.127.259-.402.5-1.062.4l.046.051z"
    fill="#000"
  ></path>
</svg>
