<svg viewBox="0 0 24 24" xmlns="http://www.w3.org/2000/svg">
  <path
    fill-rule="evenodd"
    clip-rule="evenodd"
    d="M0 12C0 5.375 5.375 0 12 0s12 5.375 12 12-5.375 12-12 12S0 18.625 0 12zm17.027 5.254c.917-.598 1.293-.76 2.034-.936.612-.148.57-1.098-.24-1.084-.84.01-1.576.44-2.197.825-1.163.718-1.742.671-1.742.671l-.019-.032c-.021-.035-.004-.146.023-.316.072-.459.212-1.351-.157-2.362-.385-1.066-.928-1.564-1.192-1.805-.11-.101-.172-.158-.152-.192.062-.103.142-.22.234-.352.35-.507.866-1.252 1.1-2.428.177-.899.13-2.377-.268-3.15-.074-.144-.732.24-.732.24s-.616-1.37-.788-1.482c-.556-.357-1.158 1.473-1.158 1.473s-1.27-.204-2.266.871c-.199.218-.468.334-.746.44l-.014.005c-.076.025-.176.057-.403.667-.37.992.626 2.095.626 2.095s-1.186.838-1.626 1.88c-.487 1.145-.339 2.262-.339 2.262s-.843.732-.898 1.487c-.051.662.139 1.2.342 1.515.227.343.51.176.51.176s-.56.653-.037.931c.477.25 1.283.394 1.71-.037.214-.214.309-.609.385-.926.035-.142.065-.27.101-.357.018-.043.064.018.119.09.028.038.06.079.09.109.097.093.264.195.264.195s-.755.324-.445 1.065c.102.246.468.403 1.066.399.222-.005 2.664-.14 3.312-.297.376-.088.505-.282.505-.282s1.566-.431 2.998-1.358zm1.784-2.72c.713-.009 1.27.445 1.353 1.103A1.23 1.23 0 0119.218 17c-.648.158-.95.278-1.82.844-1.233.796-2.54 1.241-3.012 1.39a1.686 1.686 0 01-.704.342c-.737.181-3.267.315-3.466.315h-.046c-.783 0-1.214-.24-1.45-.49-.658.328-1.51.19-2.122-.135a1.074 1.074 0 01-.58-1.154 1.288 1.288 0 01-.152-.194c-.163-.25-.529-.936-.454-1.946.055-.723.556-1.367.88-1.71a5.528 5.528 0 01.408-2.256c.305-.728.885-1.349 1.32-1.738-.32-.537-.644-1.367-.329-2.21.227-.602.412-.936.82-1.08h-.004c.199-.074.389-.152.486-.259a3.416 3.416 0 012.298-1.103c.037-.092.079-.185.125-.282.31-.658.64-1.029 1.024-1.168a.945.945 0 01.853.098l.003.002c.125.083.288.192.752 1.151.306-.087.463-.043.548-.02l.003.002c.204.055.366.19.463.375.478.917.543 2.553.334 3.605-.24 1.232-.755 2.029-1.13 2.576.324.329.778.898 1.116 1.825.278.774.31 1.478.274 2.016.171-.08.37-.186.602-.33.593-.365 1.487-.917 2.553-.93z"
    fill="#000"
  ></path>
</svg>
