<svg viewBox="0 0 24 24" xmlns="http://www.w3.org/2000/svg">
  <path
    d="M1 1.94h22v20.12H1V1.94zM0 23h24V1H0v22zm16.98-11.395c.51 0 .69 0 .74-.019 0-.066.02-.113.02-.16 0-.507-.26-1.447-1.3-1.447-.96 0-1.37.79-1.47 1.626h2.01zm-2.03 1.288c.02 1.27.66 2.125 2.18 2.125.59 0 1.1-.075 1.63-.292.07-.028.12-.018.12.066v1.175c0 .094-.03.142-.1.189-.53.244-1.19.357-2.01.357-2.64 0-3.63-1.834-3.63-3.874 0-2.218 1.22-4.033 3.37-4.033 2.18 0 2.94 1.72 2.94 3.121 0 .452-.03.818-.08.997-.02.075-.05.103-.13.122-.2.028-.79.066-1.67.066h-2.62v-.019zm-5.36-.959c-.28-1.043-.96-3.319-1.21-4.419h-.02c-.21 1.1-.76 2.962-1.17 4.42h2.4zm-2.81 1.523l-.79 2.811c-.02.075-.05.104-.15.104H4.37c-.1 0-.12-.028-.1-.141l2.84-9.336c.05-.17.08-.301.1-.771 0-.066.03-.094.08-.094h2.1c.07 0 .1.019.12.094l3.18 10.126c.02.075 0 .122-.08.122h-1.65c-.08 0-.13-.028-.15-.094l-.82-2.82H6.78z"
    fill="#fff"
  ></path>
</svg>
