<svg viewBox="0 0 24 24" xmlns="http://www.w3.org/2000/svg">
  <path
    d="M21.457 19.435a3.563 3.563 0 01-2.157 2.811c-.57.24-1.185.313-1.802.24a4.622 4.622 0 01-1.8-.624c-.854-.48-1.707-1.225-2.703-2.33 1.565-1.946 2.512-3.724 2.868-5.31.166-.745.19-1.417.119-2.042a3.925 3.925 0 00-.64-1.633C14.607 9.466 13.373 8.84 12 8.84c-1.375 0-2.608.649-3.342 1.706a3.929 3.929 0 00-.64 1.633 5.057 5.057 0 00.118 2.043c.356 1.585 1.328 3.387 2.868 5.332-.971 1.106-1.849 1.85-2.702 2.33a4.611 4.611 0 01-1.801.625 3.744 3.744 0 01-1.801-.24 3.563 3.563 0 01-2.157-2.81c-.071-.601-.024-1.202.213-1.874.071-.24.19-.48.308-.77.166-.383.356-.792.545-1.2l.024-.048A263.49 263.49 0 018.847 4.78l.071-.144c.19-.36.38-.745.57-1.105.189-.385.402-.745.663-1.058.498-.576 1.161-.889 1.896-.889.735 0 1.398.313 1.896.89.26.312.474.672.664 1.057.19.36.379.745.569 1.105l.07.144a320.32 320.32 0 015.191 10.81v.024c.19.385.356.818.546 1.202.118.288.237.528.308.769.19.624.26 1.225.166 1.85zM12 18.306c-1.28-1.633-2.11-3.171-2.394-4.468-.119-.553-.143-1.033-.071-1.466.047-.384.19-.72.379-1.01.45-.647 1.209-1.056 2.086-1.056.877 0 1.659.385 2.085 1.057.19.288.332.625.38 1.01.07.432.047.936-.072 1.465-.284 1.273-1.114 2.81-2.393 4.468zm10.689-1.25c-.118-.287-.237-.6-.355-.864-.19-.432-.38-.84-.546-1.225l-.023-.024a251.448 251.448 0 00-5.238-10.858l-.071-.145c-.19-.36-.38-.745-.57-1.13-.236-.432-.473-.888-.852-1.32-.76-.962-1.85-1.49-3.01-1.49-1.186 0-2.252.528-3.035 1.442-.355.432-.616.888-.853 1.321-.19.384-.379.769-.569 1.13l-.07.143a284.002 284.002 0 00-5.239 10.859l-.023.048c-.166.384-.356.792-.546 1.225-.118.265-.237.553-.355.865-.308.889-.403 1.73-.285 2.595.261 1.801 1.446 3.315 3.082 3.988A4.806 4.806 0 006.05 24a6.202 6.202 0 002.986-.865c.972-.552 1.896-1.345 2.939-2.498 1.043 1.153 1.99 1.946 2.939 2.498A6.205 6.205 0 0017.9 24c.664 0 1.328-.12 1.92-.384 1.66-.673 2.82-2.21 3.081-3.988.19-.841.095-1.682-.213-2.571z"
    fill="#fff"
  ></path>
</svg>
