<svg viewBox="0 0 24 24" xmlns="http://www.w3.org/2000/svg">
  <path
    d="M10.717 2.252L1.769 5.941a.596.596 0 00.008 1.106l8.985 3.55c.79.312 1.67.312 2.459 0l8.985-3.55a.596.596 0 00.008-1.106l-8.948-3.689a3.346 3.346 0 00-2.55 0zM12.789 12.535v8.867a.6.6 0 00.82.555l10.013-3.871a.597.597 0 00.378-.555V8.664a.6.6 0 00-.82-.555L13.167 11.98a.597.597 0 00-.378.555zM10.45 12.993l-2.97 1.429-.302.145-6.273 2.994c-.398.191-.905-.098-.905-.538V8.701c0-.16.082-.297.192-.4 0 0 .098-.084.152-.113a.642.642 0 01.545-.042l9.512 3.754c.483.191.521.866.05 1.093z"
    fill="#fff"
  ></path>
</svg>
