<svg viewBox="0 0 24 24" xmlns="http://www.w3.org/2000/svg">
  <path
    d="M17.685 9.306c0 .825.03 1.646-.01 2.47-.039.94.245 1.745.832 2.457.069.083.132.167.19.256.211.322.172.544-.117.791-.616.524-1.227 1.053-1.844 1.576-.366.312-.596.307-.968 0-.499-.41-.89-.914-1.238-1.452-.083-.129-.127-.124-.23-.025-.616.608-1.266 1.17-2.093 1.453-1.277.44-2.573.508-3.854.049-1.233-.445-1.971-1.364-2.245-2.643-.303-1.428-.147-2.787.724-3.998.66-.914 1.575-1.453 2.626-1.784 1.086-.336 2.206-.464 3.331-.578.318-.034.631-.064.949-.094.078-.005.147-.014.142-.118-.01-.524.044-1.058-.078-1.571-.157-.658-.582-1.043-1.233-1.186a2.503 2.503 0 00-1.374.079c-.685.237-1.11.716-1.282 1.428-.093.39-.274.528-.65.489L6.86 6.653c-.328-.035-.499-.287-.43-.608.415-2.05 1.746-3.202 3.663-3.73 1.472-.406 2.964-.43 4.441-.01 1.189.336 2.187.929 2.744 2.105.318.667.392 1.388.401 2.11.01.923 0 1.857.005 2.786zm-3.805 1.542c0-.247-.01-.494.005-.741.01-.153-.044-.208-.196-.193-.372.035-.748.04-1.12.089-.65.084-1.286.247-1.815.662-.768.608-.929 1.438-.802 2.372.152 1.097 1.12 1.704 2.157 1.339.705-.247 1.135-.771 1.433-1.428.313-.667.338-1.384.338-2.1zM20.07 17.697c.471-.052.942-.104 1.416-.1h.12c.284-.002.571-.003.858.075.313.079.426.217.42.538v.006c-.004.092-.01.189-.029.286-.136.746-.413 1.442-.69 2.14l-.034.083v.003c-.04.088-.087.196 0 .269.093.08.201.02.289-.044.04-.03.078-.06.112-.094.984-.974 1.439-2.17 1.468-3.543.005-.257-.117-.405-.367-.48-.548-.167-1.105-.192-1.668-.157-.817.044-1.594.227-2.289.691-.093.064-.205.143-.147.277.044.105.144.094.242.083l.037-.004.263-.029z"
    fill="#fff"
  ></path>
  <path
    d="M1.96 18.966c3.028 2.04 6.378 3.01 10.11 3.034a17.902 17.902 0 003.82-.45c1.957-.44 3.806-1.151 5.493-2.258l.057-.037c.093-.06.184-.12.266-.19.137-.119.24-.267.161-.455-.083-.202-.269-.227-.455-.192-.132.03-.264.084-.391.138a23.25 23.25 0 01-8.159 1.715 23.99 23.99 0 01-5.85-.569 23.727 23.727 0 01-6.084-2.238l-.208-.11c-.14-.073-.28-.147-.423-.216-.093-.045-.2-.035-.264.064-.064.09-.025.178.03.252a.876.876 0 00.136.143c.557.499 1.145.954 1.761 1.37z"
    fill="#fff"
  ></path>
</svg>
