<svg viewBox="0 0 24 24" xmlns="http://www.w3.org/2000/svg">
  <path
    d="M24 15.546c0 .601-.38.881-1.06.881h-1.298v-.6h1.299c.12 0 .22-.02.26-.06.04-.04.08-.101.08-.181 0-.08-.04-.16-.08-.2-.04-.04-.12-.06-.24-.06-.62-.02-1.399.02-1.399-.862 0-.4.26-.841.96-.841h1.338v.6h-1.239c-.12 0-.2 0-.26.04-.06.06-.1.12-.1.221 0 .1.06.16.14.2.08.02.16.04.26.04h.36c.38 0 .62.08.78.221.119.14.199.32.199.601zm-2.818-.601c-.16-.14-.4-.22-.78-.22h-.359c-.1 0-.18-.02-.26-.04-.08-.04-.14-.1-.14-.201 0-.1.02-.16.1-.22.06-.04.14-.04.26-.04h1.24v-.601h-1.34c-.719 0-.959.44-.959.841 0 .881.78.841 1.4.862.119 0 .199.02.239.06.04.04.08.12.08.2 0 .08-.04.14-.08.18-.06.04-.14.06-.26.06h-1.299v.601h1.299c.68 0 1.06-.28 1.06-.881 0-.28-.08-.46-.2-.601zm-2.558.902h-1.578v-.561h1.539v-.561h-1.539v-.521h1.578v-.581h-2.237v2.804h2.237v-.58zm-2.957-2.084c-.22-.12-.48-.14-.82-.14H13.31v2.804h.68v-1.021h.719c.24 0 .38.02.48.12.12.14.12.38.12.56v.341h.659v-.54c0-.261-.02-.381-.1-.521a.78.78 0 00-.34-.241c.18-.06.48-.3.48-.741 0-.32-.12-.5-.34-.62zm-3.797-.14H9.732l-.86.921-.819-.921H5.356v2.804h2.657l.86-.921.82.921h1.298v-.941h.84c.579 0 1.159-.16 1.159-.942 0-.761-.6-.921-1.12-.921zm3.257 1.162c-.1.04-.2.04-.32.04l-.819.02v-.641h.82c.12 0 .24 0 .32.06.08.04.14.12.14.24s-.06.22-.14.28zm-3.257.14h-.88v-.721h.88c.24 0 .4.1.4.34 0 .24-.16.38-.4.38zm-2.578.1l1.04-1.102v2.264l-1.04-1.162zm-1.618.822H6.015v-.561h1.479v-.561H6.015v-.521h1.679l.739.821-.76.822zm14.468-4.248h-.96l-1.259-2.103v2.103h-1.358l-.26-.62h-1.399l-.26.62h-.78c-.319 0-.739-.08-.978-.32-.22-.24-.34-.561-.34-1.062 0-.42.06-.801.36-1.102.2-.22.56-.32 1.019-.32h.639v.6h-.64c-.239 0-.38.04-.519.161-.12.12-.18.34-.18.641 0 .3.06.521.18.661.1.1.28.14.46.14h.3l.959-2.203h.999l1.119 2.644V8.795h1.04l1.178 1.943V8.795h.68v2.804zm-7.934-2.804h-.679v2.804h.68V8.795zm-1.419.12c-.22-.12-.46-.12-.799-.12h-1.539v2.804h.66v-1.021h.72c.239 0 .399.02.499.12.12.14.1.38.1.54v.361h.679v-.56c0-.241-.02-.361-.12-.502a.836.836 0 00-.32-.24c.18-.08.48-.3.48-.741 0-.32-.14-.501-.36-.641zm-2.817 2.103H8.413v-.56h1.539v-.581H8.413v-.501h1.559v-.581H7.734V11.6h2.238v-.582zM7.234 8.795h-1.1l-.818 1.903-.88-1.903H3.357v2.644L2.218 8.795H1.22L.02 11.599h.72l.26-.62h1.398l.26.62h1.359V9.396l.979 2.203h.58l.978-2.203v2.203h.68V8.795zm10.831 1.582l-.46-1.102-.46 1.102h.92zm-5.795-.44c-.1.06-.2.06-.34.06h-.82v-.621h.82c.12 0 .26 0 .34.04.08.06.12.14.12.26s-.04.22-.12.26zm-11.031.44l.46-1.102.46 1.102h-.92zM23.84 0H0v10.097l.82-1.863h1.738l.24.46v-.46h2.038l.46 1.001.44-1.001h6.494c.3 0 .56.06.76.22v-.22h1.778v.22c.3-.16.679-.22 1.119-.22h2.578l.24.46v-.46h1.898l.28.46v-.46h1.858v3.926h-1.878l-.36-.6v.6h-2.338l-.26-.64h-.58l-.26.64h-1.218c-.48 0-.84-.12-1.08-.24v.24H11.87v-.901c0-.12-.02-.14-.1-.14h-.1v1.041H6.075v-.5l-.2.5H4.696l-.2-.48v.48H2.238l-.24-.64h-.58l-.259.64H0V24h23.84v-7.192c-.26.12-.62.18-.979.18h-1.739v-.24c-.2.16-.56.24-.899.24h-5.475v-.901c0-.12-.02-.12-.12-.12h-.1v1.021h-1.799v-1.061c-.3.14-.639.14-.939.14h-.2v.921H9.392l-.52-.6-.579.6H4.756v-3.926h3.597l.52.6.56-.6h2.417c.28 0 .74.04.94.24v-.24h2.158c.22 0 .64.04.919.24v-.24h3.257v.24c.18-.16.52-.24.82-.24h1.818v.24c.2-.14.48-.24.84-.24h1.238V0z"
    fill="#fff"
  ></path>
</svg>
