<svg viewBox="0 0 24 24" xmlns="http://www.w3.org/2000/svg">
  <path
    d="M21.997 9.228c0-.815-.648-1.478-1.454-1.478-.806 0-1.458.66-1.458 1.48v6.19c0 .81.653 1.48 1.46 1.48.803 0 1.455-.67 1.455-1.48v-6.2h-.01l.007.008zM5.491 8.033l.004 9.6c0 .885.693 1.59 1.55 1.59h1.047v3.28c0 .82.65 1.482 1.448 1.482.798 0 1.446-.66 1.459-1.468v-3.28h1.963v3.28c0 .823.65 1.483 1.449 1.483.81 0 1.46-.66 1.46-1.49v-3.28h1.062c.857 0 1.55-.71 1.55-1.578v-9.63L5.448 8.03l.04.002h.003zm9.506-2.93a.555.555 0 01-.552-.56.56.56 0 01.552-.56c.305 0 .552.255.552.56 0 .31-.247.56-.552.56zm-5.971 0a.555.555 0 01-.552-.56c0-.307.247-.558.552-.558a.56.56 0 01.552.57c0 .315-.22.548-.533.548h-.019zM16.227.33a.216.216 0 00-.075-.285.214.214 0 00-.28.09l-1.034 1.9a6.66 6.66 0 00-2.847-.63 6.934 6.934 0 00-2.85.603L8.122.106a.2.2 0 00-.273-.08c-.099.045-.134.18-.08.27L8.786 2.17c-2 1.047-3.35 3.04-3.35 5.33h13.131c0-2.29-1.354-4.232-3.352-5.28L16.228.33zM3.458 7.743C2.653 7.743 2 8.408 2 9.226v6.192c0 .82.654 1.48 1.462 1.48.802 0 1.455-.66 1.455-1.48v-6.19c0-.815-.65-1.478-1.448-1.478l-.01-.007z"
    fill="#fff"
  ></path>
</svg>
