<svg viewBox="0 0 24 24" xmlns="http://www.w3.org/2000/svg">
  <path
    d="M18.27 10.242c1.014.153 1.716.611 2.106 1.223.39.611.624 1.681.624 3.057 0 2.752-.858 5.045-2.573 6.803-1.716 1.758-3.9 2.675-6.55 2.675a8.515 8.515 0 01-3.042-.535c-1.014-.382-1.794-.917-2.496-1.529a8.025 8.025 0 01-1.793-2.293C4.234 18.803 4 17.962 4 17.121c0-.917.234-1.681.624-2.216.39-.536 1.092-.841 1.95-1.07-.157-.383-.313-.689-.39-.994-.079-.23-.156-.459-.156-.612 0-.458.233-.993.78-1.528.545-.535 1.013-.765 1.481-.765.234 0 .39 0 .624.077.234.076.468.153.78.382C8.99 8.102 8.289 6.19 7.899 4.892c-.39-1.3-.546-2.14-.546-2.675 0-.688.156-1.223.546-1.606C8.211.23 8.757 0 9.381 0c1.014 0 2.34 2.293 3.977 6.955.312.765.468 1.376.624 1.835.156-.306.312-.841.546-1.452 1.637-4.586 3.04-6.88 4.133-6.88.545 0 1.013.153 1.403.536.312.382.546.917.546 1.528 0 .459-.156 1.376-.546 2.675-.468 1.3-1.014 2.981-1.793 5.045zM6.262 16.968c.156.153.39.459.624.84.702.994 1.404 1.53 2.028 1.53.234 0 .39-.077.546-.23.156-.153.234-.306.234-.382 0-.153-.078-.459-.312-.84-.234-.383-.546-.841-.936-1.3-.468-.535-.858-.994-1.092-1.223-.312-.23-.546-.382-.702-.382-.39 0-.78.23-1.091.611-.312.383-.468.918-.468 1.453 0 .458.078.917.312 1.528.234.535.546 1.147 1.013 1.682.702.764 1.482 1.452 2.496 1.91 1.014.46 2.027.689 3.275.689 2.184 0 3.977-.765 5.459-2.37 1.481-1.605 2.183-3.592 2.183-6.038 0-.764-.078-1.3-.156-1.758-.078-.459-.312-.764-.546-.917-.467-.383-1.325-.688-2.65-.994a18.501 18.501 0 00-4.134-.458c-.39 0-.702.076-.858.229-.156.153-.234.382-.234.688 0 .764.39 1.299 1.248 1.605.858.306 2.261.535 4.133.535h.702c.156 0 .312.076.39.153.078.152.156.305.156.535-.156.153-.546.382-1.17.611-.624.23-1.014.459-1.326.688a5.075 5.075 0 00-1.637 1.758c-.39.688-.624 1.3-.624 1.91 0 .383.078.765.234 1.3.156.535.234.841.234.917v.306c-.468 0-.858-.306-1.17-.84-.312-.536-.39-1.224-.39-2.14v-.154c-.078.077-.156.153-.234.153-.078 0-.156.077-.312.077h-.312c-.078 0-.156-.077-.312-.077 0 .153.078.23.078.382v.306c0 .382-.156.765-.467 1.07-.312.306-.702.459-1.17.459-.702 0-1.404-.306-2.184-.994-.702-.688-1.091-1.3-1.091-1.987 0-.153 0-.23.078-.306 0-.382.077-.458.155-.535zm5.07.382a.85.85 0 00.545-.229.817.817 0 00.234-.535c0-.23-.156-.688-.468-1.452a12.089 12.089 0 00-1.17-2.217c-.311-.535-.701-.993-1.013-1.223a1.248 1.248 0 00-.936-.382c-.234 0-.468.153-.78.459-.312.305-.39.535-.39.84 0 .23.156.688.39 1.223.312.535.624 1.07 1.092 1.682.468.611.936 1.146 1.403 1.529.468.152.78.305 1.092.305zm1.637-7.949l-1.872-5.12c-.468-1.3-.78-2.217-1.091-2.6-.234-.382-.468-.61-.78-.61a.715.715 0 00-.546.228c-.234.23-.312.459-.312.765 0 .535.234 1.375.624 2.598.39 1.223 1.014 2.905 1.793 4.892.078-.153.156-.23.312-.23.156-.076.312-.076.468-.076h.39c.234.077.546.077 1.014.153zm1.871 4.968c-.467 0-.935-.076-1.403-.152-.468-.077-.858-.153-1.248-.306.156.382.312.688.468 1.07.156.382.234.688.312 1.07.234-.306.546-.611.858-.917.39-.306.701-.535 1.013-.765zm2.262-4.433c.78-1.987 1.326-3.668 1.794-4.968.39-1.3.623-2.064.623-2.37 0-.305-.078-.534-.234-.764a.715.715 0 00-.546-.229c-.311 0-.623.23-.935.764-.312.535-.702 1.3-1.092 2.446l-1.716 4.74 2.106.381z"
    fill="#fff"
  ></path>
</svg>
