<svg viewBox="0 0 24 24" xmlns="http://www.w3.org/2000/svg">
  <path
    fill-rule="evenodd"
    clip-rule="evenodd"
    d="M24 0H0v24h24V0zM7.807 17.473h-.002a.722.722 0 00.125-.407c-.086-.617-1.274-.746-1.274-.746-.504-.047-.757.206-.859.353l-.057.1-.597 1.032a1.07 1.07 0 001.854 1.07l.81-1.402zm8.957-3.582h2.525a1.07 1.07 0 010 2.14h-1.275c-.193 0-.161.108-.143.147l.939 1.626a1.07 1.07 0 01-1.854 1.07l-3.754-6.502c-.2-.398-.776-1.714-.272-2.872 0 0 .421-1.039.687-.633l.162.233.004-.003 2.703 4.682.002.003c.029.036.104.097.276.109zm-2.766 2.14c.522 0 .387-.685.387-.685-.205-1.406-1.711-1.43-1.711-1.43v-.025h-2.606c-.142-.013-.136-.085-.117-.131l4.359-7.55a1.07 1.07 0 10-1.854-1.07l-.479.83-.48-.832a1.07 1.07 0 00-1.854 1.07L10.678 8a.239.239 0 01-.002.22h.002l-3.133 5.426-.002-.001s-.092.223-.48.246H4.665a1.07 1.07 0 000 2.14h9.333z"
    fill="#fff"
  ></path>
</svg>
