<svg viewBox="0 0 24 24" xmlns="http://www.w3.org/2000/svg">
  <path
    fill-rule="evenodd"
    clip-rule="evenodd"
    d="M17.846 3.004L24 8.71v3.76c0 1.7-1.62 3.084-3.61 3.084h-3.795c-1.99 0-3.61-1.385-3.61-3.084V9.998h-1.97v2.47c0 1.7-1.62 3.085-3.61 3.085H3.61C1.62 15.553 0 14.168 0 12.47V8.71h.004L6.158 3l.866.954-5.129 4.755H22.11l-5.13-4.751.866-.954zM2.494 18.521a.557.557 0 00-.414-.174H0v.493h2.08a.09.09 0 01.07.03c.02.02.028.04.028.07v.485H0v.978c0 .162.057.303.172.419.115.116.25.174.415.174h2.08V18.94a.576.576 0 00-.173-.419zm-.316 1.397v.585H.587a.09.09 0 01-.07-.03.091.091 0 01-.029-.07v-.485h1.69zm5.226-1.57h-.521l-.665 1.757-.8-1.758h-.557l-.755 1.758-.71-1.758H2.88l1.03 2.649h.393l-.004-.004.008.004.833-1.969.882 1.969h.397l.985-2.649zm2.65.173a.558.558 0 00-.415-.174H8.146c-.16 0-.3.058-.414.174a.57.57 0 00-.172.419v1.463c0 .162.057.303.172.419.115.116.25.174.414.174h2.08v-.493h-2.08a.09.09 0 01-.07-.03.091.091 0 01-.028-.07v-.485h2.178v-.978a.576.576 0 00-.172-.419zm-.316.904h-1.69v-.485c0-.03.008-.05.029-.07a.09.09 0 01.07-.03h1.492a.09.09 0 01.07.03c.02.02.029.04.029.07v.485zm3.601-.381v-.1a.563.563 0 00-.172-.419.558.558 0 00-.414-.174H11.26c-.16 0-.3.058-.415.174a.57.57 0 00-.172.42v.385c0 .161.057.302.172.418.115.116.25.174.415.174h1.493a.09.09 0 01.07.03c.02.02.028.04.028.07v.385c0 .03-.008.05-.029.07a.09.09 0 01-.07.03H11.26a.09.09 0 01-.07-.03.091.091 0 01-.029-.07v-.1h-.488v.1c0 .162.057.303.172.419.115.116.25.174.415.174h1.493c.16 0 .3-.058.414-.174a.57.57 0 00.172-.419v-.385a.576.576 0 00-.172-.419.558.558 0 00-.414-.174H11.26a.09.09 0 01-.07-.029.091.091 0 01-.029-.07v-.386c0-.029.008-.05.029-.07a.09.09 0 01.07-.03h1.493a.09.09 0 01.07.03.09.09 0 01.028.07v.1h.488zm2.527-.697h-1.493c-.16 0-.3.058-.414.174a.57.57 0 00-.173.419v1.463c0 .162.058.303.173.419.114.116.25.174.414.174h1.493c.16 0 .3-.058.414-.174a.57.57 0 00.173-.419V18.94a.576.576 0 00-.173-.419.558.558 0 00-.414-.174zm-1.493.493h1.493c.029 0 .05.013.07.03.02.02.028.04.028.07v1.463a.09.09 0 01-.028.07.09.09 0 01-.07.03h-1.493a.09.09 0 01-.07-.03.091.091 0 01-.029-.07V18.94c0-.03.009-.05.03-.07a.09.09 0 01.069-.03zm6.317-.319a.558.558 0 00-.415-.174h-3.342v2.649h.488V18.94c0-.03.008-.05.028-.07a.09.09 0 01.07-.03h1.038a.09.09 0 01.07.03c.02.02.028.04.028.07v2.056h.488V18.94c0-.03.009-.05.03-.07a.09.09 0 01.069-.03h1.034c.028 0 .053.009.073.03.02.02.03.04.03.07v2.056h.483V18.94a.576.576 0 00-.172-.419zm3.138 0a.557.557 0 00-.415-.174H21.92c-.16 0-.3.058-.414.174a.569.569 0 00-.172.419v1.463c0 .162.057.303.172.419.115.116.25.174.414.174H24v-.493h-2.08a.09.09 0 01-.07-.03.091.091 0 01-.028-.07v-.485H24v-.978a.576.576 0 00-.172-.419zm-.316.904h-1.69v-.485c0-.03.008-.05.029-.07a.09.09 0 01.07-.03h1.492a.09.09 0 01.07.03c.02.02.029.04.029.07v.485z"
    fill="#fff"
  ></path>
</svg>
