<svg viewBox="0 0 24 24" xmlns="http://www.w3.org/2000/svg">
  <path
    d="M19.192 10.315l2.808.28V4.97l-2.808-1.396v6.74zM4.808 10.315L2 10.585v-5.64l2.808-1.393v6.763zM19.192 13.78L22 13.502v5.623l-2.808 1.396v-6.74zM4.808 13.78L2 13.502v5.623l2.808 1.396v-6.74zM17.625 8.76V5.98l-2.634-.856V1.487L12 0l-.125.198-.023 23.5L12 24l2.991-1.487v-3.541l2.634-.857v-2.779l-2.634.461V8.299l2.634.461z"
    fill="#fff"
  ></path>
  <path
    d="M9.009 1.487v3.637l-2.634.857V8.76l2.634-.46v7.497l-2.634-.461v2.78l2.634.856v3.541L11.999 24V0L9.01 1.487z"
    fill="#fff"
  ></path>
</svg>
