<svg viewBox="0 0 24 24" xmlns="http://www.w3.org/2000/svg">
  <path
    d="M3.202 16.333l1.859.56.169-.185V4.167l-.17-.215-1.858.686v11.695zM8.707 17.972l-2.565-.762V1.237L8.707 0l.225.236v17.472l-.225.264zM11.997 20.278L1 16.517v2.181L11.997 24v-3.722zM23 18.696L11.997 24v-3.722L23 16.515v2.18zM9.643 18.222l2.356.682.068-.07-.002-5.126-.068-.063-2.354-.245v4.822z"
    fill="#fff"
  ></path>
  <path
    d="M19.91 12.901l-7.913.745.002 5.258 7.91-2.297v-3.706z"
    fill="#fff"
  ></path>
</svg>
