<svg viewBox="0 0 24 24" xmlns="http://www.w3.org/2000/svg">
  <path
    d="M6.935 4.517V2.646L12 0l.023.02-.012 2.375L12 2.4l-.019.055-2.77 1.168-.026 4.116 1.475-.26L12 7.2V24l-1.517-.792v-2.242l-1.33-.555V9.897l-2.218.232V8.258L6 8.454V4.907l.935-.39z"
    fill="#fff"
  ></path>
  <path
    d="M17.064 2.646v1.87l.936.391v3.546l-.936-.195v1.87l-2.218-.231V12h2.219v1.924l-1.032.096v1.94l-2.516.523v2.242l2.51-.779.006 1.978-2.516 1.042v2.242L12 24V7.2l1.34.28 1.433.197V3.623L12.038 2.52 12 2.4V0l5.064 2.646z"
    fill="#fff"
  ></path>
</svg>
