<svg viewBox="0 0 24 24" xmlns="http://www.w3.org/2000/svg">
  <path
    d="M16.94 9.177l.002.03.058-.005a.254.254 0 01.018-.087l-.005-.055c-.025.001-.05.041-.073.117zm-.56-1.441l-.005-.055-.084.007.006.055.083-.007zm-1.625 3.256c-.004-.051-.153-.25-.447-.601-.005-.065.096-.161.303-.288l.592-.552c.133-.18.21-.472.234-.878l-.007-.093c-.023-.281-.213-.507-.573-.68-.212-.153-.595-.238-1.148-.253-.458.041-1.055.216-1.79.525a7.303 7.303 0 01-.692.467l.004.047a.16.16 0 00.069-.032c.03-.004.048.011.05.041l.044-.024.021-.002.002.02c.002.025-.158.16-.48.4l.024.05-.021.002-.053-.02c.002.016-.021.028-.066.031l.002.021.051.069a.184.184 0 01-.074-.02c-.074.008-.147.05-.22.13l.03-.14c.109-.5.183-.941.222-1.324l-.005-.025a.927.927 0 01-.215-.214.8.8 0 000-.1l-.005-.022-.021.006c-.235.375-.685 1.016-1.353 1.923-.509.645-.771 1.003-.787 1.075-.207.23-.307.368-.296.415-.055.038-.078.076-.069.118-.016.004-.027-.002-.03-.019a.607.607 0 01-.395.296l-.185.046c-.025.005-.037.024-.035.056l.005.025.07-.017.005.02-.156.065-.277.069-.145.01c-.022.022.115-.003.062.01l-.181.046c-.11.027-.17.017-.18-.03l-.022.005c.003.021.005.036.002.05l-.011-.048-.145.036c-.011-.072-.208-.333-.589-.785-.007-.087.128-.214.403-.38l.776-.73c.174-.238.276-.621.31-1.149l-.01-.123c-.03-.372-.282-.671-.756-.903-.28-.202-.783-.31-1.51-.328-.603.055-1.39.285-2.357.685a8.956 8.956 0 01-.91.614l.006.065a.23.23 0 00.09-.038c.04-.004.06.015.064.053l.06-.036.03-.002.002.03c.002.03-.21.207-.636.53l.033.057-.03.001-.065-.024c.001.019-.029.032-.09.038l.003.034.07.083a.244.244 0 01-.095-.02c-.138.013-.273.119-.406.32l.034.057c.115-.114.182-.17.202-.173l.007.093a.28.28 0 00-.09.038l.072.118a2.45 2.45 0 01.463-.416c.083.023.128.052.13.082l.063-.006c.457-.362.91-.624 1.358-.785l.005.065c-.083.132-.14.2-.17.204a.217.217 0 00.044.12c.007.081-.196.631-.61 1.648C1.428 13.084.64 14.832 0 15.963a.227.227 0 00.037.09c.158-.04.257-.08.3-.12l.033-.005.006.065.058-.006.06-.036c.002.02.022.029.063.025l.005.064c.005.063-.028.158-.1.289-.063.077-.132.24-.205.489l.002.03.058-.005a4 4 0 00.582-.898c.744-.233 1.311-.462 1.705-.688.395-.036.696-.148.902-.332l-.003-.034-.15.047-.033.004-.004-.034c.291-.047.491-.115.603-.21.565-.467.993-.797 1.282-.992.593-.467.98-.922 1.155-1.364l.1-.024c.083-.004.129-.006.141-.01-.003-.017.004-.026.02-.03.133-.015.069.01.154-.012l.223-.055.038-.01-.018.012a.205.205 0 00.081-.005l.016.07-1.015 1.727-.225.302-.11.394.021-.005.11-.05-.036.154.011.046.03.04c-.014.003-.02.013-.016.03l.006.024.046-.01c.067-.063.095-.12.085-.172.072.014.12.02.145.012l.005.024c-.044.012-.067.05-.07.114l.005.025.025-.006c.368-.43 1.272-1.904 1.997-2.903-.023-.108.355-.258 1.135-.452l.024-.005c.029.13-.031.447-.18.95-.096.303-.142.47-.135.497-.124.404-.183.622-.175.656l-.277.969a9.33 9.33 0 00-.411 1.568.17.17 0 01.076.008l.039-.036c.004.017.014.023.03.019l-.016-.07.12-.004c.036-.01.066-.057.091-.144-.005-.131.02-.201.075-.216.074-.311.12-.467.136-.473.07-.309.12-.485.154-.529.105-.402.181-.609.23-.622l.011.05-.076.21c-.133.631-.268 1.13-.404 1.496l.039.182.025-.005c.33-.759.804-2.261 1.423-4.506a.595.595 0 01.264-.46l-.035-.04-.006-.02c.071-.017.121-.047.15-.09-.004-.016-.066-.04-.187-.075l.309-1.415c.067-.064.106-.098.118-.098l.006.072a.159.159 0 00-.07.032l.06.09c.105-.124.22-.23.347-.32.063.02.095.042.099.065l.046-.004a3.683 3.683 0 011.033-.591l.004.047c-.062.1-.105.152-.128.154a.217.217 0 00.028.09c.006.063-.147.48-.459 1.254-.712 1.792-1.31 3.118-1.795 3.979.002.017.012.04.032.07.119-.03.195-.063.225-.093l.021-.002.004.048.05-.004.044-.025c.001.013.017.02.048.017l.003.052c.004.045-.021.117-.076.216-.052.058-.105.182-.162.37l.002.024.046-.004c.194-.231.34-.459.442-.682.565-.179.996-.351 1.294-.522.303-.028.531-.112.687-.252l-.001-.025-.116.036-.024.002-.002-.025c.22-.034.374-.087.457-.157.43-.353.753-.605.973-.753.684-.533 1.004-1.045.965-1.536zm-.118.032l.016.192c-.02.047-.044.072-.065.074l-.027-.326c.05.018.075.037.076.06zM1.216 9.481l-.03.001-.005-.058.122-.012.002.03a.226.226 0 00-.09.039zm-.597 6.393a.357.357 0 00-.19-.042l-.007-.093c-.004-.036.016-.06.058-.07.04-.004.062.026.066.087.103-.135.16-.203.17-.205l.066.028c-.022.19-.077.287-.163.294zM7 8.73c-.03.003-.09-.097-.177-.296l-.005-.06c.057-.005.115.094.177.297l.005.059zm-.085-.708l-.024.063-.867-.387c.578.02.875.129.891.324zm-3.66 3.363l-.122.011-.005-.059.122-.011.005.059zm-.1-2.02l.031-.002.007.093c-.028.002-.065.047-.112.135l-.005-.065c.055-.07.083-.123.08-.161zm-.256.648l.01.124-.03.002-.01-.124.03-.002zm-.135.232l.059-.006c-.006.102-.032.158-.08.161l-.03.002c.037-.068.055-.121.051-.157zm-.1.322l.033-.004.002.03-.055.1-.059.005-.002-.03c.059-.006.085-.038.08-.1zm-.1.29l-.018.156-.03.002-.012-.154.06-.004zm-.995 3.025c-.039.213-.081.32-.125.325l-.002-.03c-.01-.105.032-.204.127-.295zm-.182.423l.002.03c.003.042-.014.067-.053.069l-.002-.03c-.004-.037.014-.06.053-.069zm-.053.878l.092-.01.003.035a.227.227 0 00-.09.038l-.058.005c-.004-.032.016-.056.053-.068zm2.623-.867c-.518.274-.822.46-.913.556-.56.209-.838.338-.833.389-.498.21-.826.366-.984.463a.336.336 0 01-.16-.046c-.01-.108.036-.195.134-.265a.493.493 0 01.25.041c.092-.05.253-.108.482-.168l-.005-.065-.185.017c.023-.034.2-.123.534-.267l.092-.01.002.03c-.158.016-.245.065-.264.154.003.04.024.057.063.053.12-.08.178-.127.176-.14.225-.046.847-.394 1.866-1.045l.006.059c.001.028-.085.108-.261.245zm-1.563.55a.587.587 0 00.383-.19c.042-.003.065.014.067.054-.073.008-.213.072-.417.197l-.03.002-.003-.063zm2.522-2.072l-.782.663c-.581.408-.893.613-.94.617-.924.544-1.5.827-1.724.848l-.033.003c.028-.112.44-1.012 1.237-2.708.35-.032.904-.207 1.657-.525l.184-.017c.381-.036.667.043.855.233l.01.123c-.14.435-.296.689-.464.763zm-1.528-.92l.126-.011.002.03-.126.011-.002-.03zm1.767-.32l.092-.01c.086.043.13.081.133.116l.002.03c-.081.008-.158-.038-.227-.137zm.25-1.524c-.081.105-.305.283-.67.533-.12.012-.569.198-1.345.562a.232.232 0 00-.124-.023l-.006-.059c-.008-.12.041-.269.151-.451.06-.341.126-.537.199-.584l.647-1.557c-.007-.097.13-.17.414-.222l.093-.01.007.09c.278-.046.452-.072.519-.078.514-.048.782.064.803.332l.058-.006L6.14 8.4l.064-.006c.15.089.232.197.243.324.007.087-.038.196-.131.325-.04.003-.063-.027-.066-.088l-.064.006-.014.19c-.26.417-.45.631-.567.642-.107.158-.172.236-.199.238zm.397 1.091c-.053-.038-.095-.055-.127-.053l-.007-.093.058-.006.13.082c.005.043-.013.066-.054.07zm.412.521c.056.025.09.052.097.076l-.028.008.001.002a.06.06 0 00-.017.004l-.043.036-.01-.126zm.038.262l-.005-.024.075-.02.005.025-.075.02zm.18.214c.076-.013.113-.018.255-.053l.005.025-.27.066c.004-.013.008-.026.01-.038zm.262.12c-.114.011-.089-.004-.27.04l-.005-.025.227-.078.108-.026.01.045c-.049.012-.013.012-.07.044zm.24-.06c-.027.007-.049-.006-.061-.039l.069-.017c.03-.007.05.006.057.038l-.066.017zm.648-.748l-.005-.024.111-.029.01.045-.116.008zm.693 4.548a.2.2 0 00.005-.076l.025-.006c.03-.007.048.004.055.034l.005.025-.09.023zm.486-4.353l-.05-.009c-.08.034-.147.059-.202.072l-.046.011c-.027.008-.048-.003-.059-.034l.325-.08.106-.053.036.044a.23.23 0 00-.11.05zm.25-.085l-.006-.024a.135.135 0 00.06-.042l.23-.057.006.024c-.122.033-.22.065-.29.1zm.035-.499a.189.189 0 00-.064.042c-.003-.017-.035-.017-.096-.002-.01-.047.16-.114.513-.2l.05-.012.01.045c-.248.078-.386.122-.413.127zm.62-.716c-.024.301-.124.472-.3.515l-.005-.024-.156.064-.069.017a.163.163 0 01-.095-.002l-.015-.066c-.005-.025.22-.359.678-1l.053.01c.02.087-.01.248-.09.486zm1.098-1.006l-.022.002-.003-.047.092-.01.002.025a.286.286 0 00-.07.03zm-.453 4.857a.268.268 0 00-.141-.034l-.005-.072c-.002-.025.012-.042.042-.051.03-.004.048.019.051.068a.812.812 0 01.128-.157l.048.02c-.018.145-.059.22-.123.226zm4.847-5.424c-.023.002-.068-.074-.137-.227l-.003-.048c.044-.003.09.07.136.222l.004.053zm-.064-.542l-.022.05-.655-.295c.438.015.664.097.677.245zm-2.781 2.554l-.092.01-.004-.047.092-.01.004.047zm-.076-1.534l.024-.002.006.072c-.023.002-.052.036-.085.103l-.004-.048c.04-.055.06-.096.059-.125zm-.194.493l.007.093-.024.002-.007-.093.024-.002zm-.104.177l.046-.004c-.006.08-.025.121-.059.125l-.024.002a.27.27 0 00.037-.123zm-.075.242l.022-.002.001.025-.04.076-.046.004-.002-.025c.048-.004.069-.03.065-.078zm-.074.22l-.016.122-.021.002-.01-.12.047-.004zm-.757 2.3c-.03.16-.062.242-.096.245l-.002-.02a.28.28 0 01.098-.224zm-.14.321l.002.021c.003.034-.01.053-.043.055l-.002-.024c-.001-.025.013-.042.043-.052zm-.04.668l.072-.006.002.025a.196.196 0 00-.07.028l-.046.004c-.001-.027.013-.043.043-.051zm1.992-.658c-.39.207-.623.347-.695.419-.426.16-.637.258-.633.298-.378.16-.626.276-.743.35a.262.262 0 01-.122-.036c-.007-.081.028-.147.103-.197a.377.377 0 01.19.03c.07-.037.193-.08.366-.127l-.003-.047-.144.013c.018-.026.154-.095.408-.204l.07-.006.002.02c-.12.012-.187.05-.202.118.002.03.02.046.05.042.089-.063.131-.099.131-.11.17-.032.642-.298 1.416-.795l.004.048c0 .019-.066.08-.199.184zm-1.188.417a.463.463 0 00.294-.142c.03-.002.048.011.05.041-.053.006-.158.054-.316.145l-.024.002-.004-.046zm1.918-1.576l-.59.508c-.442.31-.681.465-.718.469-.702.413-1.138.627-1.31.643l-.025.002c.021-.086.335-.77.941-2.056.264-.025.683-.16 1.257-.402l.143-.014c.29-.026.506.035.647.18l.008.094c-.109.326-.226.517-.353.576zm-1.16-.698l.093-.01.002.025-.093.01-.002-.025zm1.342-.244l.071-.006c.066.034.1.064.101.089l.002.02c-.062.007-.12-.028-.174-.103zm.187-1.155c-.063.08-.231.216-.506.405-.092.01-.432.15-1.02.423a.22.22 0 00-.095-.013l-.003-.047c-.007-.091.03-.205.111-.344.047-.261.098-.407.151-.441l.495-1.184c-.006-.07.099-.127.312-.17l.07-.006.006.072c.209-.036.34-.057.393-.063.39-.036.594.048.61.252l.046-.003-.009-.114.046-.004c.114.066.174.146.181.24.005.07-.026.153-.094.25-.03.003-.048-.02-.051-.069l-.046.004-.014.142c-.197.32-.34.486-.431.493-.08.116-.13.175-.152.177zm.207.788l-.005-.072.046-.003.099.064c.002.03-.012.048-.043.051-.042-.028-.074-.041-.097-.04zM5.9 15.133l-.046.011-.04.036c.008.03.025.042.056.034.03-.007.042-.026.035-.056l-.005-.025zm-.176-.374l.006.025c.03-.008.042-.026.035-.057l-.005-.025c-.029.008-.041.027-.036.057zm1.255-2.522l.034-.023c-.007 0-.013-.002-.018-.003-.012.003-.018.013-.016.026zm-.007-.654l.053-.013-.01-.05-.054.014.011.049zM19.5 13.497l-.121-.015-.021.05.002.024.717-.064-.003-.048-.574.053zm.655-.059l.004.048h.007l-.003-.048h-.008zm3.012-.42l.003.047.078.015-.003-.047-.078-.016zm-.11.009c-.539.129-.606.106-.72.116l.004.047.05-.004.026-.002-.007-.005.058-.025c.534-.063.596-.04.59-.104l-.001-.023zm-3.235-.838l-.048-.017a.901.901 0 00-.056.197l.001.02c.038-.001.071-.07.103-.2zm-.649-.374l-.001-.025-.025.002-.044.03.024.046c.034-.004.05-.02.046-.053zm1.41 1.559l-.004-.047-.014.002.003.047.015-.002zm2.924-.706l.034-.003c.02-.002.028-.02.026-.05l-.019-.045a.545.545 0 00-.278.076l-.002-.025-.147.015c-.004-.047-.016-.072-.036-.07l-.076.008c-.088.007-.131.004-.175.04-.002-.018-.007-.025-.016-.025l-.085.007-.05.03c-.002-.016-.007-.024-.016-.024l-.03.028-.002-.024-.119-.01-.028.002.004.048.06.017.057-.004c.02.013.04.017.065.015l.05-.026.002.02c-.279.074-.277.061-.468.095-.022-.015-.038-.022-.048-.02l-.004.003c-.021-.002-.034-.017-.035-.042l.099-.013c.007 0 .012.008.067.02.08-.043.084-.06.126-.063l-.003-.048c-.273.057-.163.02-.506.051l-.015.002-.004-.047c.44-.057.293-.025.443-.07.002.017.007.024.016.024a.101.101 0 01.06-.032l.03-.002c.155-.013.206.02.511-.072l.002.021.05-.027.046-.003c-.004-.048.063-.055.086-.057l-.003-.051c-.535.115-.676.083-.824.129l-.002-.021c-.14.026-.146.015-.181.017-.01.002-.027.011-.044.03-.002-.017-.007-.025-.018-.025-.005 0-.007.002-.009.002l-.454.08c-.001-.013-.007-.02-.017-.019-.236.053-.172.063-.488.093a.142.142 0 00-.058.027c-.002-.014-.01-.021-.025-.02l-.193.018-.13.034c-.002-.014-.009-.021-.025-.02a.977.977 0 01-.188.039h-.003c-.032.003.016-.01-.009-.021l-.039.024c-.057.006-.026-.003-.221-.001-.343.045-.305.05-.343.053l-.127-.01c.002.013-.005.023-.02.023-.145-.02-.22-.046-.221-.074.02-.148.053-.224.1-.228l.026-.001-.022.049.025-.002c.046-.027.067-.051.066-.074l-.004-.051-.046.004-.003-.048a.181.181 0 01.014-.095l.104-.18.004.048.05-.004-.004-.048-.028-.043c.037-.034.065-.053.088-.055l-.002-.025-.067.006-.005-.072c.135-.3.198-.474.195-.524l.048.021c.03-.002.044-.02.042-.055l-.046.004-.002-.02a.192.192 0 01.018-.101c.073-.082.106-.163.1-.249.014-.002.02.006.022.023.062-.038.11-.139.146-.305.11-.213.266-.638.47-1.273.39-1.123.373-1.242.428-1.508l-.046.004a.18.18 0 01-.017.097.172.172 0 00-.075-.019l-.002-.02c-.007-.098.03-.213.116-.35l.02-.002.04.163.046-.003a1.57 1.57 0 01.035-.196c-.001-.024-.02-.04-.055-.041l-.044.03a2.852 2.852 0 01.004-.266l-.023.002c-.04-.041-.059-.076-.06-.104l-.254.026a.26.26 0 00-.029-.083c-.001-.025.055-.05.172-.074l.052.021.048-.03c.002.017.01.024.028.022l.048-.03c.002.017.01.025.028.023l.023-.002-.003-.055c-.036.004-.13.004-.279-.002l-.047.034-.002-.03c-1.19.104-1.865.163-2.026.18-.021.002-.105 0-.252-.004.002.021-.016.032-.051.036l-.052-.024-.173.047a1.08 1.08 0 01-.206-.01.17.17 0 01-.098.04c-.02.002.254-.015.51-.034a.222.222 0 01-.125.042.16.16 0 01-.1-.02c-.04.02-.166.05-.377.096l-.051-.021-.83.136a.195.195 0 00-.111-.019 1.3 1.3 0 00-.222.052l-.4.178.03.053a.213.213 0 00.081-.034l.142.013-.018.142c-.13.063-.207.156-.228.273-.197.093-.294.16-.294.2l.001.024.03-.002.053-.03.063.08.008.11c.004.034-.328.78-.99 2.236-.575 1.403-.876 2.171-.904 2.31-.197.058-.31.144-.344.257.003.036.062.061.175.07l.006.056-.052.09.009.11c.005.057.149.101.43.131-.001-.019.008-.03.027-.032a1.77 1.77 0 01-.053.398l.03-.002c.117-.17.172-.288.167-.352l.025-.002c.028-.002.058.032.094.106-.036.015-.16.317-.373.907l.03.053.03-.002c.261-.706.424-1.096.492-1.17.342-.033.934-.097 1.774-.194l.053-.034c.002.02.012.029.032.027l.055-.006.053-.034c.002.019.013.028.032.026l.636-.058c.169-.016.249-.07.241-.163-.001-.025.098-.054.298-.084a.23.23 0 01.087.017c-.002-.017.1-.034.302-.053.005-.114.038-.174.099-.18l-.006-.055a.835.835 0 00-.195.047 1.12 1.12 0 01-.253-.032.223.223 0 01-.082.034l-.443.015-.053.03c-.002-.016-.012-.024-.032-.022l-.025.002-.056.03c-.002-.017-.048-.03-.14-.043l-.057.036-.11.01-.002-.031c.571-.067.853-.15.846-.249.037-.004.056.015.06.055l.167-.045-.006-.055-1.366.04c.001.019-.007.03-.027.032l-.167-.015a.194.194 0 00-.106.04l-.062-.025a1.78 1.78 0 00-.385.066 2.26 2.26 0 00-.39.006l-.306.028-.142-.017c-.007-.096.168-.572.53-1.426.105-.288.2-.468.292-.537a.196.196 0 01.087.023l.218-.08.112.02c.188-.018.406-.074.656-.173a.287.287 0 01.142.013l.166-.041.497-.046c.21-.019.44-.068.687-.15l-.005-.055c-.092.01-.14-.007-.143-.047-.006-.074-.073-.105-.203-.093l-.005-.055.137-.042.358-.032-.006-.055c-.014.002-.087 0-.221-.006l-.006-.059.139-.013c.037-.004.053-.023.05-.06-.187.005-.28-.004-.282-.03-1.298.067-1.949.08-1.952.037a.216.216 0 00-.082.038l-.033-.057c.343-.781.546-1.176.604-1.181a.361.361 0 01-.043.146l.002.024.055-.005c.137-.35.252-.53.348-.537.407-.038-.057-.066.815-.213.036.018.06.025.078.023.342-.074.819-.151 1.43-.231l-.003-.055-.326.032-.004-.055a.17.17 0 00.098-.04l.002.03a.187.187 0 00.074-.037.22.22 0 01.13.017 1.78 1.78 0 01.272-.059l.204-.02c.05-.035.073-.065.071-.094l-.002-.024a.602.602 0 01-.179-.012c-.002-.03.013-.051.046-.06l.38-.038.173-.048c.002.021.011.029.025.029a.186.186 0 00.075-.038c.009.002.02.002.028.003-.023.052-.05.126-.076.222l-.05.004a.245.245 0 00-.028-.097l-.025.002c-.46 1.373-.666 2.012-1.092 3.067-.078.27-.143.419-.2.451.002.03.02.046.05.042a.698.698 0 01-.087.393c-.197.606-.328.938-.396.999l.045.286c.001.03-.013.048-.043.052l-.046.003c-.007-.08-.034-.117-.082-.112l-.024.002c-.06.1-.107.216-.137.351l.046-.004c.062-.043.09-.094.085-.153l.093-.01.053.021c-.043.072-.062.13-.059.173l.025.045-.06.152.002.025a.274.274 0 01.173.053.3.3 0 00.14-.061c.053-.006.252-.008.594-.008l.172-.062c.21-.002.243.004.424-.014l.074-.007.039-.028.002.024c.19-.017.202-.004.35.015l.002.025-.104.01.003.047a.144.144 0 00.084-.034c.026-.002.042.013.044.047a.584.584 0 00-.144.034l-.046-.017c-.072.021-.056.027-.106.03l-.073-.015c.002.014-.005.023-.017.023.002.03.017.046.044.044l.075-.008.388-.036.147-.034c.002.013.007.02.02.019l.07-.028.133-.012c.103-.01.101-.017.325-.055-.002-.015.003-.02.014-.023l.001.021c.364-.066.387-.07.445-.09l.006.01c.09-.022.039-.016.063-.035.002.017.008.024.016.024l.064-.005-.003-.052-.13-.001-.002-.004-.014.004h-.017v.003c-.087.02-.089.006-.146.012l-.324.019-.002-.025.18-.027.067-.005.037-.029.002.025c.255-.023.345.045 1.526-.224.063-.006.058-.062.099-.18a.104.104 0 01-.062-.015c-.098.04-.149.02-.337.053-.016.002-.028-.013-.034-.044l-.001-.02.18.005c.034-.004.1-.01.197-.068 0 .017-.037.026-.016.024zm-8.728.15l-.083.008c-.003-.036.04-.173.133-.406l.055-.006c.002.055-.032.19-.105.404zm.101-.432l-.001-.025c-.002-.03.016-.05.055-.06l.001.024c.002.036-.016.057-.055.06zm1.108.916l.002.025-.138.013-.002-.025.138-.013zm-.166-.015c.001.03-.041.064-.133.098l-.17-.013-.056.006-.005-.055.364-.036zm1.12-5.517l-.084.008-.001-.03c-.002-.031.014-.052.05-.061l.03-.002.056.024c.002.036-.014.057-.051.06zm1.267-.266l.027-.001.003.055-.076.007c-.002-.03.012-.051.046-.06zm-.319.12l-.126-.015-.002-.025c.165-.015.22-.034.321-.064.002.02.02.028.052.024l.003.055-.05.006a.16.16 0 01-.1-.019.208.208 0 01-.098.038zm.158.491l-.002-.025.204-.02.002.024-.204.021zm.218-.19l-.002-.03.1-.01.001.031-.1.01zm.023-.371l-.027.002.023-.06.227-.022.002.03a1.292 1.292 0 00-.225.05zm.115.523l-.003-.055.099-.01c.034-.003.051.014.053.052l-.149.013zm.601-.876l-.128.038-.023.002c-.06.006-.138.004-.23-.006.165-.011.323-.025.381-.034zm-.136.607l.001.025-.175.017-.002-.025.175-.017zm.287.146c-.002-.023-.036-.038-.105-.046l-.175.054-.135.005c-.03-.023-.046-.038-.048-.05l.156.01.351-.06.179.007.002.03a.948.948 0 00-.225.05zm1.806-.499l.04.002a.677.677 0 01.212-.152c-.064.3-.163.522-.3.666l-.1-.064a3.64 3.64 0 00.148-.452zm-.305.56l.025-.002c-.034.068-.064.104-.089.106l-.005-.072c.016 0 .039-.012.069-.032zm-.197.502c.048-.205.094-.32.137-.35l.002.024c-.025.19-.064.29-.116.298l.01.12c-.043.064-.063.113-.061.15l-.025.003-.014-.165c.028-.004.051-.03.067-.08zm-.076.273a.733.733 0 01-.051.197l-.025.002-.006-.072c.034-.083.063-.125.082-.127zm-1.43 4.442l-.002-.021.046-.004.005.072c-.025.002-.042-.013-.05-.047zm2.043.057c-.002-.018-.009-.025-.024-.023l-.116.011-.002-.024h.011l.273-.025.002.025c-.08.003-.128.017-.144.036zm-.136-.061c.01.006.005.011 0 .015-.006-.002-.012-.008 0-.015zm.014-.341l-.152.013-.002-.025.138-.013.12-.032c.002.015.01.02.026.019.143-.027.129-.034.198-.04.023-.002.037.013.039.043l-.367.035zm.534-.05c-.085-.01-.09-.017-.151-.011l-.002-.021.137-.013.001.02c-.014.003.038.006.015.025zm.01-.026l-.002-.021.075-.008.002.021-.075.008zm.165-.015l-.002-.021a.126.126 0 00.053-.03c.038-.004.057.022.06.052l-.11-.002zm.211-.029l-.002-.025.09-.007.002.024-.09.008zm.126-.011c-.002-.029.009-.046.032-.05l.03.042c-.002-.013.003-.02.014-.023l.023.046-.1-.015zm1.744-.22l.002-.002v-.002l-.002.004zm.032-.025c.014-.01.021-.019-.012-.024-.016.018.017.024-.018.026l.002.017c.003-.004.012-.01.019-.015l-.02.017v.002l-.037.051.075-.028h.009l-.004-.048-.014.002zm.13.108l-.015.002.004.047.104-.009c-.002-.03-.07-.04-.094-.04z"
    fill="#fff"
  ></path>
</svg>
