<svg viewBox="0 0 24 24" xmlns="http://www.w3.org/2000/svg">
  <path
    fill-rule="evenodd"
    clip-rule="evenodd"
    d="M3.095 24A3.094 3.094 0 010 20.905V3.095A3.095 3.095 0 013.095 0h17.81A3.095 3.095 0 0124 3.095v17.81A3.094 3.094 0 0120.905 24H3.095zM9.952 7.217v3.4h3.236c.57 0 1.038-.137 1.404-.408.367-.271.55-.712.55-1.323 0-.339-.061-.617-.183-.834a1.356 1.356 0 00-.489-.51 2.057 2.057 0 00-.702-.253 4.653 4.653 0 00-.824-.072H9.952zM6.757 19.266V4.734h6.838c.692 0 1.323.061 1.893.184.57.122 1.058.322 1.465.6.407.278.723.648.947 1.11.224.46.335 1.03.335 1.709 0 .732-.166 1.343-.498 1.831-.332.489-.824.89-1.476 1.201.896.258 1.564.709 2.005 1.354.441.644.662 1.42.662 2.33 0 .732-.143 1.367-.428 1.903a3.709 3.709 0 01-1.15 1.312 5.08 5.08 0 01-1.648.753 7.43 7.43 0 01-1.903.245H6.757zm3.195-6.472v3.989h3.42c.312 0 .61-.03.895-.092a2.2 2.2 0 00.753-.305c.217-.143.39-.336.519-.58.129-.244.193-.556.193-.936 0-.747-.21-1.28-.63-1.598-.421-.319-.978-.478-1.67-.478h-3.48z"
    fill="#fff"
  ></path>
</svg>
