<svg viewBox="0 0 24 24" xmlns="http://www.w3.org/2000/svg">
  <path
    fill-rule="evenodd"
    clip-rule="evenodd"
    d="M14.187 9.512c1.947.225 8.12.997 9.354 2.234.64.641.933 3.173-1.35 3.337.268 1.024-1.36 1.869-2.781 1.484-.145.778-1.966 1.28-3.135.323-.223.79-2.06.615-2.784 0 .366.58 1.305 2.262 1.393 2.731.119.637-.149 1.436-.695 1.467-.021.825-1.005 1.517-2.118 1.272-.578.892-1.638.69-2.216.356-.449.513-1.476.085-1.698-.41-.133-.296-.508-1.362-.695-1.895l-.062-.175c-.177.616-.935 1.304-1.815 1.304C3.568 21.54 0 16.764 0 11.314 0 4.83 4.853 1 9.305 1c3.517 0 4.857 3.016 5.114 4.098.36.065.722.17 1.085.31.964-2.307 3.842-3.858 5.843-3.25-1.19 1.32-1.32 2.11-1.442 2.86-.016.096-.031.192-.049.287l-.036.215c-.17 1.075-.6 3.787-4.24 3.682a9.664 9.664 0 01-.304-.738 7.587 7.587 0 00-.848.328 6.15 6.15 0 01-.242.72zm-5.507 2.99c2.077 0 3.408-.57 4.173-1.236.351-.302.553-.585.663-.752 2.366.16 5.791.807 7.469 1.25.963.27 1.27.443 1.382 1.045-1.775-.26-4.642-.529-6.376-.667a56.33 56.33 0 00-1.205-.087c.42.062 2.274.419 4.04.774 1.494.3 2.925.6 3.374.72-.298.507-.978.865-2.003.616.554.787-.521 1.73-2.019 1.21.33.773-1.004 1.468-2.519.663.02.773-1.88.862-2.63.008v.005a8.442 8.442 0 01-.064-.15c.07.178.127.327.154.404.272.79-.972 3.778-3.777 3.778-3.332 0-6.341-2.115-7.64-5.284a9.167 9.167 0 01-.675-3.485c0-5.293 3.752-9.243 8.278-9.243 2.594 0 3.765 2.129 4.006 2.935-1.565 1.654-.947 3.746-.377 4.691-.81 1.406-2.404 2.368-4.254 2.805zm8.508-6.155c.492-1.017 1.11-2.127 1.89-2.814-.86.361-1.707 1.44-2.208 2.592a7.642 7.642 0 00-.776-.452c.699-1.556 2.323-2.855 4.113-2.957-.64.605-.817 1.559-.993 2.506-.153.828-.306 1.65-.766 2.233-.282-.296-.93-.866-1.26-1.108zm-.775 1.656c0-.04.015-.34.04-.476-.068-.017-.495-.104-.718-.099-.016.292.117.788.25 1.087.91-.02 1.569-.304 1.956-.566-.33-.16-.892-.302-1.32-.388l-.044.095a7.586 7.586 0 01-.164.347zm-3.205.694l.114-.066c.338-.2 1.087-.64 1.806-.819a3.933 3.933 0 01-.03-.285c-.083.021-.178.05-.282.08-.558.169-1.352.408-1.84-.117.751.237 1.271.052 1.769-.124.31-.11.612-.218.957-.218.534 0 1.297.156 1.897.402-.483-.466-2.068-1.87-4.03-1.876-.439.554-.912 1.754-.361 3.023z"
    fill="#fff"
  ></path>
  <path
    fill-rule="evenodd"
    clip-rule="evenodd"
    d="M9.277 7.954c-.691 0-1.252-.584-1.252-1.305 0-.72.56-1.305 1.252-1.305.691 0 1.252.584 1.252 1.305 0 .72-.56 1.305-1.252 1.305zm.73-1.884c0 .261-.327.473-.73.473-.403 0-.73-.212-.73-.473s.327-.473.73-.473c.403 0 .73.212.73.473z"
    fill="#fff"
  ></path>
</svg>
