<svg viewBox="0 0 24 24" xmlns="http://www.w3.org/2000/svg">
  <path
    fill-rule="evenodd"
    clip-rule="evenodd"
    d="M.032 11.629a12.21 12.21 0 00-.006.384C.026 18.633 5.393 24 12.013 24S24 18.633 24 12.013C24 6.289 19.987 1.501 14.621.311c4.007 1.06 6.96 4.71 6.96 9.05A9.36 9.36 0 1111.532.025a10.949 10.949 0 00-.74-.025C4.83 0 0 4.831 0 10.79c0 .283.01.562.032.839z"
    fill="#fff"
  ></path>
  <path
    fill-rule="evenodd"
    clip-rule="evenodd"
    d="M16.355 9.777a4.212 4.212 0 11-8.425 0 4.212 4.212 0 018.425 0zm-1.82-1.394c-.292.652-.868 1.03-1.286.842-.417-.188-.519-.868-.226-1.521.293-.653.869-1.03 1.287-.842.417.187.518.868.226 1.52z"
    fill="#fff"
  ></path>
</svg>
