<svg viewBox="0 0 24 24" xmlns="http://www.w3.org/2000/svg">
  <path
    fill-rule="evenodd"
    clip-rule="evenodd"
    d="M16.378 16.893h-.114c.48-1.28-.087-2.065-1.215-2.115-1.36-.06-2.918.007-4.34.07-2.453.107-4.505.196-4.445-.42.197-.51 1.482-.472 3.167-.423 3.091.09 7.527.218 9.042-2.922C17.925 8.743 15.635 7 12.946 7c-2.49 0-4.63 1.468-5.378 3.532a2.888 2.888 0 00-1.792-.459c-1.195.092-2.141 1.01-2.29 2.11-.05.276 0 .551.05.826C1.592 13.055 0 14.523 0 16.358c0 .183 0 .32.05.504 0 .092.1.138.15.138h15.983c.087 0 .175-.036.195-.107zm.64.002a.14.14 0 00.06.013h6.573c.1 0 .15-.046.15-.137.1-.367.199-.78.199-1.193 0-2.385-2.141-4.358-4.73-4.358h-.25a.144.144 0 00-.081.034l.032.012c-.728 2.131.864 2.453 1.983 2.68.49.098.89.179.963.386-.053.378-.553.403-1.218.437-1.152.06-2.8.144-3.491 2.126h-.19z"
    fill="#fff"
  ></path>
</svg>
