<svg viewBox="0 0 24 24" xmlns="http://www.w3.org/2000/svg">
  <path
    d="M24 11.465v1.071c-.008.058-.017.115-.022.173-.04.466-.067.935-.124 1.398a14.125 14.125 0 01-1.176 4.192c-.9 1.962-2.116 3.457-3.645 4.479a6.962 6.962 0 01-2.812 1.125c-.217.034-.434.065-.652.097H7.138c-.043-.01-.085-.028-.128-.031a5.7 5.7 0 01-2.448-.798C2.865 22.164 1.6 20.53.771 18.285a12.26 12.26 0 01-.7-3.16L0 14.322v-1.039c.008-.057.02-.115.023-.173.044-.999.195-1.968.461-2.9C1.2 7.702 2.45 5.842 4.222 4.638A5.871 5.871 0 017.15 3.612a6.024 6.024 0 011.503.093c.045.009.11-.019.142-.062.718-.995 1.536-1.803 2.457-2.415.895-.594 1.836-.976 2.826-1.13.234-.036.467-.065.7-.098h.72c.046.01.094.021.14.029.357.056.715.091 1.068.171 1.1.25 2.125.786 3.073 1.582 1.454 1.22 2.562 2.872 3.319 4.951.438 1.197.719 2.488.83 3.816.026.305.048.61.072.916zM10.58 4.533c.015.026.019.038.025.042.493.33.965.716 1.41 1.156.028.027.098.016.132-.013 1.222-1.05 2.547-1.413 3.97-1.07 1.395.335 2.53 1.28 3.397 2.79.982 1.707 1.357 3.638 1.085 5.787-.181 1.44-.607 2.732-1.33 3.814-1.32 1.973-2.972 2.79-4.917 2.444-1.197-.213-2.23-.913-3.086-2.085C10.168 15.894 9.062 14.4 7.96 12.9c-.147-.2-.31-.36-.521-.395-.37-.062-.705.188-.864.638-.142.401-.124.854.185 1.265 1.227 1.634 2.444 3.283 3.67 4.919.21.281.435.54.674.777.896.882 1.906 1.37 3 1.566.858.153 1.71.12 2.555-.137 1.612-.491 2.948-1.607 4-3.328.868-1.423 1.393-3.058 1.576-4.893.106-1.047.084-2.11-.065-3.147-.244-1.695-.773-3.212-1.62-4.503C18.932 3.2 16.897 2.1 14.476 2.346c-.931.094-1.812.465-2.641 1.053a7.25 7.25 0 00-1.255 1.134zM9.989 21.72a18.735 18.735 0 01-.1-.127c-.501-.642-1.006-1.28-1.502-1.931-.096-.126-.184-.188-.32-.183-.502.016-1.005.02-1.5-.132-2.461-.755-3.89-4.383-2.983-7.576.715-2.517 2.696-4.05 4.649-3.577.875.212 1.644.714 2.275 1.596.769 1.077 1.56 2.123 2.338 3.188.177.243.38.353.626.306.316-.061.569-.266.683-.687.113-.415.058-.807-.173-1.125-.816-1.121-1.613-2.27-2.462-3.343-1.647-2.083-3.588-2.702-5.736-1.816-2.888 1.19-4.579 5.234-3.919 9.224.602 3.636 2.947 6.188 5.691 6.191h2.299c.038 0 .076-.004.134-.008z"
    fill="#fff"
  ></path>
</svg>
