<svg viewBox="0 0 24 24" xmlns="http://www.w3.org/2000/svg">
  <path
    d="M23.992 16.57c-.165 3.553-3.203 6.394-6.913 6.394h-.501l-3.707-3.533s.589-.847.84-1.296h3.368c1.065 0 1.931-.838 1.931-1.87 0-1.03-.866-1.868-1.931-1.868h-1.993c.152-.777.235-1.578.235-2.397 0-.832-.084-1.644-.242-2.433h1.238l7.654 7.298c.009-.098.016-.196.021-.294zM2.013 1H0v4.83h2.013C5.53 5.83 8.39 8.596 8.39 12a5.97 5.97 0 01-.592 2.593l1.836 1.752 1.836 1.75A10.687 10.687 0 0013.381 12c0-6.065-5.1-11-11.368-11z"
    fill="#fff"
  ></path>
  <path
    d="M17.079 1H8.927a13.16 13.16 0 014.763 4.83h3.389c1.065 0 1.931.837 1.931 1.868 0 1.031-.866 1.87-1.931 1.87l-.762-.001 7.654 7.298a6.6 6.6 0 00.029-.6 6.537 6.537 0 00-1.606-4.283A6.535 6.535 0 0024 7.698C24 4.005 20.895 1 17.079 1zM16.577 22.964H8.985a13.256 13.256 0 003.886-3.533l3.706 3.533zm-5.107-4.868l-1.836-1.752-1.836-1.75c-1.015 2.11-3.226 3.577-5.785 3.577H0V23h2.013c3.94 0 7.417-1.95 9.457-4.904z"
    fill="#fff"
  ></path>
</svg>
