<svg viewBox="0 0 24 24" xmlns="http://www.w3.org/2000/svg">
  <path
    d="M3.781 10.433v3.396a1.821 1.821 0 001.168-1.698 1.82 1.82 0 00-1.168-1.698zM2.479 10.433a1.822 1.822 0 00-1.168 1.698 1.821 1.821 0 001.168 1.697v-3.395z"
    fill="#fff"
  ></path>
  <path
    fill-rule="evenodd"
    clip-rule="evenodd"
    d="M7.826 12.158c0 1.707-1.547 3.111-3.241 3.103H3.126C1.412 15.269 0 13.866 0 12.158 0 10.29 1.412 8.999 3.126 9h1.459c1.694 0 3.241 1.29 3.241 3.158zM.261 12.13a2.87 2.87 0 115.74 0 2.87 2.87 0 01-5.74 0z"
    fill="#fff"
  ></path>
  <path
    d="M8.915 10.39c0-.309-.155-.289-.303-.292v-.089c.129.006.26.006.389.006.138 0 .326-.006.57-.006.852 0 1.316.593 1.316 1.2 0 .339-.191 1.192-1.356 1.192-.168 0-.323-.006-.478-.006-.148 0-.293.003-.44.006v-.089c.197-.02.292-.027.302-.26v-1.663zm.323 1.607c0 .264.18.295.342.295.711 0 .945-.56.945-1.07 0-.64-.395-1.103-1.03-1.103-.136 0-.198.01-.257.014v1.864zm1.764.315h.063c.092 0 .158 0 .158-.113v-.929c0-.15-.05-.171-.172-.24v-.054a3.84 3.84 0 00.352-.124.113.113 0 01.06-.017c.016 0 .023.02.023.048V12.2c0 .113.072.113.165.113h.055v.09c-.112 0-.227-.007-.345-.007-.119 0-.237.003-.359.006v-.089zm.352-2.005c-.085 0-.161-.082-.161-.171 0-.086.08-.165.161-.165.086 0 .162.072.162.165 0 .093-.073.171-.162.171zm.665.984c0-.127-.036-.161-.19-.226V11c.14-.048.276-.093.434-.165.01 0 .02.007.02.034v.223c.187-.14.348-.257.57-.257.279 0 .377.212.377.48v.884c0 .113.073.113.165.113h.06v.09c-.116 0-.231-.007-.35-.007-.118 0-.237.003-.355.006v-.089h.059c.092 0 .158 0 .158-.113v-.887c0-.196-.115-.292-.303-.292-.105 0-.273.09-.382.165v1.014c0 .113.073.113.165.113h.06v.09c-.116 0-.231-.007-.35-.007-.118 0-.237.003-.355.006v-.089h.06c.091 0 .157 0 .157-.113v-.908zm1.686.165a.87.87 0 000 .198c.019.326.22.593.483.593.181 0 .323-.103.445-.23l.046.049c-.152.209-.34.387-.609.387-.524 0-.629-.528-.629-.747 0-.672.434-.871.665-.871.267 0 .553.175.556.538 0 .02 0 .041-.003.062l-.03.02h-.924zm.582-.11c.082 0 .092-.045.092-.086 0-.175-.102-.315-.286-.315-.201 0-.34.154-.379.4h.573zm.451.966h.089c.092 0 .158 0 .158-.113v-.963c0-.106-.122-.127-.171-.154v-.052c.24-.106.372-.195.402-.195.019 0 .029.01.029.045v.308h.007c.082-.134.22-.353.42-.353.083 0 .188.058.188.182 0 .092-.062.175-.154.175-.102 0-.102-.083-.218-.083a.284.284 0 00-.24.285v.805c0 .113.066.113.158.113h.184v.09a13.507 13.507 0 00-.852 0v-.09zm1.267-.387c.043.226.175.418.415.418.194 0 .266-.123.266-.243 0-.405-.717-.275-.717-.826 0-.192.148-.44.51-.44.105 0 .247.032.375.1l.024.35h-.076c-.033-.216-.148-.34-.36-.34-.13 0-.256.08-.256.227 0 .401.764.277.764.816 0 .226-.175.466-.566.466a.84.84 0 01-.402-.117l-.036-.394.06-.017zm3.917-1.296h-.082c-.063-.4-.336-.562-.704-.562-.38 0-.929.264-.929 1.087 0 .692.474 1.19.981 1.19.326 0 .596-.234.662-.594l.075.02-.075.501c-.139.09-.51.182-.728.182-.77 0-1.257-.518-1.257-1.289 0-.703.602-1.207 1.247-1.207.267 0 .524.09.777.182l.033.49zm.119 1.683h.062c.092 0 .158 0 .158-.113V10.29c0-.223-.05-.23-.174-.267v-.055c.131-.045.27-.106.339-.148.036-.02.062-.037.072-.037.02 0 .027.02.027.048v2.368c0 .113.072.113.164.113h.056v.09c-.112 0-.227-.007-.346-.007-.118 0-.236.003-.358.006v-.089zm2.113-.1c0 .063.036.066.092.066l.132-.003v.072a3.224 3.224 0 00-.474.106l-.017-.01v-.278c-.197.168-.349.288-.583.288-.177 0-.362-.12-.362-.408v-.877c0-.09-.013-.175-.197-.192v-.066c.119-.003.382-.024.425-.024.036 0 .036.024.036.1v.884c0 .103 0 .398.286.398.112 0 .26-.09.398-.21v-.921c0-.069-.157-.107-.276-.14v-.063c.296-.02.48-.047.514-.047.026 0 .026.023.026.061v1.265zm.655-1.13c.131-.117.31-.247.49-.247.382 0 .612.346.612.72 0 .449-.315.898-.786.898-.244 0-.372-.082-.458-.12l-.098.079-.07-.038c.03-.202.047-.401.047-.61V10.29c0-.223-.05-.23-.175-.267v-.055a2.06 2.06 0 00.34-.148c.035-.02.062-.037.072-.037.02 0 .026.02.026.048v1.25zm0 .932c0 .13.118.35.339.35.352 0 .5-.36.5-.665 0-.37-.27-.679-.526-.679-.122 0-.224.082-.313.161v.833zm-14.2 2.38h.025c.064 0 .132-.009.132-.106v-.977c0-.097-.068-.107-.132-.107h-.025v-.056c.07 0 .177.008.265.008.09 0 .197-.008.281-.008v.056H9.13c-.064 0-.133.01-.133.107v.977c0 .097.069.106.133.106h.025v.056c-.086 0-.194-.007-.283-.007-.088 0-.193.007-.263.007v-.056zm1.777-.311l.003-.004v-.7c0-.152-.102-.175-.156-.175h-.04v-.056c.085 0 .167.008.252.008.073 0 .146-.008.22-.008v.056h-.027c-.075 0-.16.015-.16.237v.849c0 .065.002.13.011.188h-.068l-.922-1.07v.768c0 .162.03.218.168.218h.03v.056c-.076 0-.153-.007-.23-.007-.08 0-.163.007-.244.007v-.056h.025c.124 0 .161-.087.161-.236v-.786a.164.164 0 00-.163-.168h-.023v-.056c.068 0 .138.008.206.008.054 0 .106-.008.16-.008l.796.935zm.547-.841c-.134 0-.14.033-.166.17h-.054c.007-.053.016-.105.021-.16.008-.052.011-.104.011-.158h.043c.014.056.06.055.108.055h.924c.048 0 .093-.002.096-.058l.043.007-.02.151c-.003.05-.003.101-.003.151l-.053.02c-.004-.068-.013-.178-.133-.178h-.294v.992c0 .144.063.16.149.16h.034v.056c-.07 0-.195-.007-.292-.007-.107 0-.233.007-.303.007v-.056h.034c.099 0 .149-.009.149-.156v-.996h-.294zm1.084 1.152h.025c.064 0 .132-.009.132-.106v-.977c0-.097-.068-.107-.132-.107h-.025v-.056c.109 0 .295.008.445.008.151 0 .337-.008.459-.008-.003.08-.002.204.004.286l-.054.015c-.009-.121-.03-.218-.219-.218h-.248v.488h.213c.107 0 .13-.063.141-.164h.054a4.552 4.552 0 000 .43l-.054.012c-.01-.112-.016-.184-.14-.184h-.214v.434c0 .121.103.121.218.121.215 0 .31-.015.364-.227l.05.013a3.887 3.887 0 00-.061.296c-.115 0-.32-.007-.482-.007-.161 0-.374.007-.476.007v-.056zm1.26-1.048c0-.136-.071-.142-.127-.142h-.032v-.056c.057 0 .168.008.277.008.108 0 .194-.008.289-.008.225 0 .426.064.426.329 0 .167-.107.27-.249.328l.306.477c.05.08.086.101.174.112v.056c-.06 0-.116-.007-.175-.007-.056 0-.114.007-.169.007a5.21 5.21 0 01-.373-.604h-.117v.4c0 .143.064.148.146.148h.032v.056c-.102 0-.205-.007-.308-.007-.086 0-.17.007-.26.007v-.056h.033c.066 0 .127-.031.127-.1v-.948zm.23.433h.087c.18 0 .276-.071.276-.291 0-.166-.102-.272-.262-.272-.054 0-.077.005-.101.007v.556zm2.05.304l.003-.004v-.7c0-.152-.102-.175-.155-.175h-.04v-.056c.085 0 .167.008.251.008.074 0 .147-.008.22-.008v.056h-.027c-.075 0-.159.015-.159.237v.849c0 .065.002.13.01.188h-.067l-.922-1.07v.768c0 .162.03.218.168.218h.03v.056c-.077 0-.154-.007-.23-.007-.082 0-.164.007-.244.007v-.056h.024c.124 0 .162-.087.162-.236v-.786a.164.164 0 00-.163-.168h-.023v-.056c.067 0 .138.008.206.008.053 0 .105-.008.159-.008l.797.935zm.568.1c-.019.064-.04.113-.04.146 0 .056.075.065.134.065h.02v.056a3.126 3.126 0 00-.41 0v-.056h.01c.07 0 .13-.043.156-.121l.287-.856c.023-.069.056-.162.066-.231a.902.902 0 00.163-.08c.006-.002.009-.004.015-.004.005 0 .008 0 .012.005l.016.047.33.976c.021.065.043.134.066.19.021.052.06.074.118.074h.011v.056a4.908 4.908 0 00-.516 0v-.056h.02c.04 0 .111-.007.111-.054a.609.609 0 00-.036-.134l-.07-.216h-.406l-.057.194zm.26-.826h-.003l-.166.528h.334l-.164-.528zm.773-.115c-.135 0-.14.033-.167.17h-.054c.007-.053.016-.105.022-.16.007-.052.01-.104.01-.158h.044c.014.056.059.055.107.055h.924c.049 0 .093-.002.097-.058l.043.007-.02.151c-.004.05-.004.101-.004.151l-.053.02c-.003-.068-.012-.178-.133-.178h-.293v.992c0 .144.063.16.148.16h.034v.056c-.07 0-.195-.007-.292-.007-.107 0-.233.007-.302.007v-.056h.034c.098 0 .148-.009.148-.156v-.996h-.293zm1.092 1.152h.025c.065 0 .132-.009.132-.106v-.977c0-.097-.067-.107-.132-.107h-.025v-.056c.07 0 .177.008.265.008.09 0 .197-.008.281-.008v.056h-.025c-.064 0-.133.01-.133.107v.977c0 .097.069.106.133.106h.025v.056c-.086 0-.193-.007-.283-.007-.088 0-.193.007-.263.007v-.056zm1.26-1.273c.382 0 .687.246.687.643 0 .43-.296.714-.677.714a.645.645 0 01-.67-.67c0-.387.288-.687.66-.687zm.027 1.275c.348 0 .409-.319.409-.59 0-.273-.142-.603-.439-.603-.314 0-.407.29-.407.54 0 .334.147.653.438.653zm1.866-.313l.004-.004v-.7c0-.152-.102-.175-.156-.175h-.039v-.056c.084 0 .166.008.25.008.074 0 .148-.008.221-.008v.056h-.027c-.075 0-.16.015-.16.237v.849c0 .065.002.13.011.188h-.068l-.922-1.07v.768c0 .162.03.218.168.218h.03v.056c-.076 0-.153-.007-.23-.007-.08 0-.163.007-.244.007v-.056h.025c.124 0 .161-.087.161-.236v-.786a.163.163 0 00-.163-.168h-.023v-.056c.068 0 .138.008.206.008.054 0 .105-.008.16-.008l.796.935zm.568.1c-.018.064-.04.113-.04.146 0 .056.076.065.135.065h.02v.056a3.106 3.106 0 00-.41 0v-.056h.01c.07 0 .13-.043.156-.121l.287-.856c.023-.069.055-.162.066-.231a.905.905 0 00.163-.08c.005-.002.009-.004.014-.004.006 0 .009 0 .012.005l.017.047.33.976c.02.065.042.134.066.19.021.052.059.074.118.074h.01v.056a4.918 4.918 0 00-.515 0v-.056h.02c.04 0 .11-.007.11-.054a.62.62 0 00-.035-.134l-.07-.216h-.407l-.057.194zm.262-.826h-.004l-.167.528h.335l-.164-.528zm1.144.91c0 .075.05.097.107.105.074.006.154.006.237-.004a.254.254 0 00.171-.1.433.433 0 00.056-.135H24c-.02.107-.045.211-.066.317-.158 0-.316-.007-.473-.007-.158 0-.315.007-.473.007v-.056h.025c.065 0 .135-.009.135-.125v-.958c0-.097-.07-.107-.135-.107h-.025v-.056c.095 0 .188.008.283.008.092 0 .181-.008.272-.008v.056h-.045c-.068 0-.121.002-.121.101v.963z"
    fill="#fff"
  ></path>
</svg>
