<svg viewBox="0 0 24 24" xmlns="http://www.w3.org/2000/svg">
  <path
    fill-rule="evenodd"
    clip-rule="evenodd"
    d="M12.647 10c-1.082 0-1.96.853-1.96 1.906 0 1.12.84 1.957 1.96 1.957 1.093 0 1.955-.848 1.955-1.935 0-1.08-.856-1.928-1.955-1.928z"
    fill="#fff"
  ></path>
  <path
    d="M1.074 10.12c1.187 0 2.005.764 2.014 1.854 0 .541-.256 1.068-.683 1.416-.361.297-.767.43-1.338.43H0v-3.7h1.074zm.857 2.78a1.281 1.281 0 000-1.853c-.24-.215-.526-.297-.999-.297H.736v2.44h.196c.473 0 .766-.09.999-.29zm1.487-2.78h.728v3.7h-.728v-3.7zm2.516 1.424c.834.297 1.073.564 1.073 1.149 0 .712-.533 1.216-1.283 1.216-.556 0-.962-.223-1.3-.704l.473-.453c.165.319.443.49.797.49.323 0 .563-.215.563-.52 0-.155-.076-.281-.219-.377a3.212 3.212 0 00-.502-.215c-.684-.238-.924-.497-.924-1.009 0-.608.511-1.06 1.171-1.06a1.64 1.64 0 011.097.415l-.382.49c-.189-.208-.37-.296-.587-.296-.315 0-.548.177-.548.406 0 .2.135.305.571.468zm1.307.43c0-1.076.886-1.935 1.99-1.935.315 0 .578.066.9.23v.845c-.307-.29-.57-.415-.915-.415-.683 0-1.224.563-1.224 1.268 0 .748.518 1.274 1.254 1.274.33 0 .593-.118.886-.407v.852a2.04 2.04 0 01-.916.215c-1.111 0-1.975-.845-1.975-1.928zm9.346.63l1.007-2.483h.788l-1.614 3.788h-.391l-1.585-3.788h.797l.998 2.483zm2.133 1.215v-3.698h2.066v.63H19.45v.815h1.284v.63h-1.284v.993h1.337v.63H18.72zm4.957-2.6c0 .563-.308.933-.856 1.044L24 13.819h-.893l-1.014-1.489h-.098v1.49h-.729v-3.7h1.081c.842 0 1.33.4 1.33 1.098zm-1.464.606c.465 0 .713-.2.713-.57 0-.363-.248-.549-.706-.549h-.225v1.12h.218z"
    fill="#fff"
  ></path>
</svg>
