<svg viewBox="0 0 24 24" xmlns="http://www.w3.org/2000/svg">
  <path
    d="M12 24C5.381 24 0 18.622 0 12.005 0 5.378 5.381 0 12 0s12 5.378 12 11.995C24 18.612 18.619 24 12 24zm10.116-10.362c-.347-.113-3.17-.948-6.385-.441 1.34 3.679 1.885 6.683 1.988 7.302a10.19 10.19 0 004.397-6.861zm-6.113 7.809c-.15-.901-.75-4.036-2.184-7.772a.173.173 0 01-.066.02c-5.784 2.017-7.856 6.025-8.044 6.4A10.202 10.202 0 0012 22.255c1.416.009 2.775-.282 4.003-.808zM4.387 18.866c.235-.394 3.047-5.05 8.335-6.767.131-.047.272-.085.403-.123a26.727 26.727 0 00-.834-1.736c-5.12 1.53-10.088 1.464-10.538 1.455 0 .103-.01.206-.01.31a10.263 10.263 0 002.644 6.86zM1.97 9.912c.46.009 4.678.028 9.478-1.249C9.75 5.641 7.913 3.107 7.65 2.741a10.275 10.275 0 00-5.681 7.17zM9.6 2.046c.281.376 2.147 2.91 3.825 5.998 3.647-1.37 5.184-3.435 5.372-3.698A10.212 10.212 0 0012 1.765c-.825 0-1.631.103-2.4.281zm10.331 3.482c-.215.291-1.931 2.497-5.719 4.046.235.488.47.985.685 1.483.075.178.15.356.225.525 3.412-.431 6.797.263 7.134.329a10.215 10.215 0 00-2.325-6.383z"
    fill="#fff"
  ></path>
</svg>
