<svg viewBox="0 0 24 24" xmlns="http://www.w3.org/2000/svg">
  <path
    fill-rule="evenodd"
    clip-rule="evenodd"
    d="M0 12C0 5.374 5.372 0 12 0c6.627 0 12 5.374 12 12 0 6.628-5.373 12-12 12-6.628 0-12-5.373-12-12zm19.26-3.256a.509.509 0 01.638.496v1.996a.515.515 0 01-.254.446l-2.067 1.204v5.226a.515.515 0 01-.254.445l-1.28.746a.527.527 0 01-.254.068.524.524 0 01-.254-.068.532.532 0 01-.183-.184.517.517 0 01-.068-.256v-4.636l-.004.002v-.004l-2.14 1.248-.004.002a.508.508 0 01-.757-.445v-2c0-.182.097-.352.255-.444l6.51-3.793a.542.542 0 01.117-.05zM12.635 7.58a.516.516 0 01-.255-.445V5.137a.517.517 0 01.253-.439.502.502 0 01.509 0l5.589 3.256a.2.2 0 01.001.347 5110 5110 0 00-3.73 2.168.224.224 0 01-.048.02.203.203 0 01-.25-.198V8.903l-.002-.017a.132.132 0 01-.002-.01V8.81a.035.035 0 00-.017-.03l-.057-.033a.155.155 0 01-.01-.008l-.013-.01-1.968-1.147zM10.97 4.7a.503.503 0 01.51 0c.157.091.254.261.254.444v1.883a.717.717 0 01-.354.614L9.51 8.73a.044.044 0 00-.01.007.075.075 0 01-.006.005l-.082.048v1.508c0 .154-.166.25-.298.174a5168.16 5168.16 0 00-3.74-2.174.197.197 0 01.005-.34l5.591-3.259zm-3.543 5.59l3.943 2.297a.517.517 0 01.254.444v1.998a.508.508 0 01-.764.445l-2.14-1.248v.003l-.001-.002v4.637a.52.52 0 01-.252.44.527.527 0 01-.255.068.525.525 0 01-.254-.068l-1.28-.746a.515.515 0 01-.254-.445v-5.226l-2.068-1.204a.516.516 0 01-.255-.446V9.24c0-.183.098-.353.255-.444a.502.502 0 01.51 0l2.561 1.492z"
    fill="#fff"
  ></path>
</svg>
