<svg viewBox="0 0 24 24" xmlns="http://www.w3.org/2000/svg">
  <path
    d="M8.762 5.158c-3.117-.57-5.58.027-6.563 1.739-.733 1.277-.523 2.97.508 4.781a.318.318 0 00.436.12.323.323 0 00.119-.44c-.93-1.63-1.11-3.092-.51-4.14.816-1.421 3.014-1.955 5.895-1.427a.321.321 0 00.115-.633zm4.608-2.913a1.528 1.528 0 01-1.359.834c-.845 0-1.53-.69-1.53-1.54 0-.85.685-1.539 1.53-1.539a1.534 1.534 0 011.528 1.606c2.532 1.317 4.291 5.811 4.291 11.003 0 2.135-.296 4.184-.849 5.96a.32.32 0 11-.61-.192c.533-1.712.82-3.697.82-5.768 0-4.889-1.614-9.095-3.82-10.364zM2.415 16.72a1.534 1.534 0 011.644 1.535c0 .85-.685 1.54-1.53 1.54-.844 0-1.529-.69-1.529-1.54 0-.578.317-1.082.786-1.345-.23-2.877 2.775-6.734 7.315-9.372 1.886-1.096 3.85-1.874 5.695-2.271a.322.322 0 01.134.629c-1.778.383-3.68 1.136-5.51 2.2-4.275 2.484-7.103 6.065-7.005 8.624zm17.726 2.296a1.54 1.54 0 01-.2-.76c0-.85.685-1.54 1.53-1.54.844 0 1.529.69 1.529 1.54 0 .85-.685 1.539-1.53 1.539-.332 0-.64-.108-.892-.29-2.44 1.445-7.1.709-11.486-1.84-1.867-1.085-3.504-2.392-4.764-3.785a.323.323 0 01.021-.455c.13-.12.333-.11.451.022 1.215 1.343 2.8 2.609 4.612 3.661 4.139 2.405 8.498 3.12 10.729 1.908zm-.1-5.527a.318.318 0 01-.45.037.323.323 0 01-.038-.453c1.886-2.242 2.521-4.418 1.707-5.837-.59-1.03-1.904-1.602-3.726-1.626a.32.32 0 01-.316-.326.32.32 0 01.324-.317c2.026.027 3.55.69 4.271 1.947.98 1.709.268 4.149-1.772 6.575zM7.236 19.155a.322.322 0 01.193-.411c.166-.06.35.027.409.194.986 2.771 2.543 4.418 4.173 4.418 1.173 0 2.313-.845 3.24-2.4a.318.318 0 01.44-.11c.15.092.2.29.108.442C14.768 23.018 13.442 24 12.011 24c-1.963 0-3.708-1.846-4.775-4.844zm15.125-.902a.893.893 0 00-.89-.896.893.893 0 00-.89.896c0 .495.398.896.89.896.491 0 .89-.4.89-.896zm-19.832.896c.492 0 .89-.4.89-.896a.893.893 0 00-.89-.896.893.893 0 00-.89.896c0 .495.399.896.89.896zm9.482-16.715c.492 0 .89-.4.89-.896a.893.893 0 00-.89-.896.893.893 0 00-.89.896c0 .495.398.896.89.896zm.234 11.262a1.114 1.114 0 01-.467-2.177 1.114 1.114 0 01.467 2.177z"
    fill="#fff"
  ></path>
</svg>
