<svg viewBox="0 0 24 24" xmlns="http://www.w3.org/2000/svg">
  <path
    fill-rule="evenodd"
    clip-rule="evenodd"
    d="M23.128 13.058c.39 0 .806.257.864.834.055.54-.197.933-.426 1.124-.128.1-.93.694-1.766.694-.157 0-.31-.022-.452-.062a1.341 1.341 0 01-.624-.386l-.182.493c-.099.308-.453 1.22-1.212 1.22a.89.89 0 01-.35-.07 1.267 1.267 0 01-.452-.317 3.115 3.115 0 01-1.736.36 2.348 2.348 0 01-1.616-.79c-.475.225-1.27.519-2.492.761l-.025.004-.026.004a2.895 2.895 0 01-1.652-.334l-.016.008c-.088.05-.2.113-.33.182l-.015.008a2.023 2.023 0 01-.843.205c-.467 0-.861-.224-1.076-.613-.26.419-.57.507-.817.507a.13.13 0 01-.043-.01c-.013-.004-.025-.009-.038-.009H7.8c-.47 0-.868-.194-1.087-.54-.267.4-.555.614-.97.614-.11 0-.205-.011-.278-.026a1.065 1.065 0 01-.584-.312l-.007.007-.029.015c-.08.037-.82.371-1.587.371-.456 0-.842-.118-1.145-.349a2.528 2.528 0 01-.803-.992 8.283 8.283 0 01-.74-.242.869.869 0 01-.53-.563c-.149-.484.154-.98.249-1.12a.83.83 0 011.029-.28 4.01 4.01 0 01.222-.642c.613-1.389 1.612-1.558 2.014-1.565h.062c.642 0 1.12.22 1.495.69.012-.039.024-.07.034-.097l.006-.016c.154-.379.53-.607 1.007-.607h.059c.025-.003.05-.003.08-.003.346 0 .642.176.802.459.252-.217.595-.408 1.025-.408h.066a.84.84 0 01.668.375l.003.004c.175-.166.504-.415.909-.415.094 0 .19.01.28.04.296.092.482.239.595.4l.066-.61c.193-1.796.995-3.023 1.069-3.133.069-.103.39-.54 1.123-.83l.011-.004.01-.004c.169-.059.333-.088.493-.088.39 0 1.084.176 1.361 1.363.263 1.113-.175 2.281-.668 3.163a.4.4 0 01.04.022l.008.008c.503.315.784.734.912 1.182a3.53 3.53 0 011.142-1.311c.182-.14.67-.338 1.174-.338.533 0 1.105.239 1.386.863.022-.073.04-.128.055-.165.139-.36.522-.584 1-.584.32 0 .576.11.73.305.182-.132.462-.287.78-.287.091 0 .182.011.27.037.521.15.733.742.627 1.756l-.004.022a2.05 2.05 0 00-.014.393c.142-.051.303-.147.394-.217l.066-.047.076-.033c.055-.022.197-.074.376-.074zm-6.5-.015c-.394.723-.288 1.098-.288 1.098s.554.04.937-.51c.383-.548.048-.915.048-.915s-.307-.394-.697.327zm-4.837 2.321s1.09.482 1.54-.701c.448-1.183-.125-1.628-.125-1.628s-.832-.463-1.185.72c-.354 1.187-.23 1.61-.23 1.61zm1.568-6.572c-.164-.867-.842.915-.842.915s-.566 1.95-.58 2.53c0 0 1.587-2.578 1.422-3.445zm-9.513 3.953c-.26-.25-1.003.25-1.032 1.396 0 0 .222.07.707-.268.489-.338.584-.878.325-1.128zm19.144.966s.346-.143.383.243c.04.385-.19.54-.19.54s-.945.734-1.678.525c-.73-.213-.766-1.484-.766-1.484h-.066l-.737 1.987s-.295.97-.736.786c-.442-.183-.43-.701-.43-.701s-.69.8-1.953.705c-1.101-.084-1.459-.992-1.459-.992s-.737.559-2.812.97a2.252 2.252 0 01-1.587-.455c-.087.088-.642.382-.642.382s-.791.393-1.098-.166c-.306-.558-.106-2.263-.106-2.263h-.058s-.456.886-.697 1.734c-.24.849-.536.742-.536.742s-.544.048-.668-.415c-.124-.463.201-2.175.201-2.175l-.047.011s-.03-.047-.449.849c-.715 1.749-.886 1.833-1.299 1.756-.412-.077-.43-.588-.43-.588l-.566.338s-1.378.632-2.093.085c-.478-.364-.642-.772-.697-1.021 0 0-.606-.144-.996-.298s.011-.731.011-.731.131-.191.361 0c.23.195.682.106.682.106 0-.305.077-.705.263-1.127.394-.886.967-1.183 1.455-1.194.486-.008.832.124 1.128.547.66 1.646-1.759 2.48-1.759 2.48s-.069.433.591.422c.66-.007 1.664-.73 1.664-.73.047-.548.43-2.271.536-2.532.106-.26.507-.213.507-.213s.314-.07.372.268c.058.338-.23 1.705-.23 1.705l.048.058c.029-.132.726-1.308.726-1.308s.4-.701 1.014-.672c.612.026-.03 1.914-.03 1.914l.048.06.047-.09c.077-.212.985-1.597.985-1.597s.347-.404.66-.309c.318.096.336.243.354.51.019.269-.248 1.867-.248 1.867s-.153 1.047.19 1.029c.343-.019.715-.386.715-.386s.266-2.057.449-3.762c.182-1.705.966-2.85.966-2.85s.23-.353.836-.596c.4-.143.835-.048 1.04.827.343 1.472-.829 3.157-1.312 3.774.209-.208.563-.438.968-.192 1.434.907.26 2.898.26 2.898.419-.136 1.174-.646 1.174-.646s.018-.22.025-.272c.241-1.377 1.019-1.934 1.258-2.106l.045-.032c.171-.129 1.678-.71 1.743.86.07 1.568-1.882 2.115-1.882 2.115s.172.452.89.338c.719-.117 1.54-.819 1.54-.819.029-.646.448-2.186.536-2.406.084-.22.609-.232.667-.107.077.25.011 1.349.011 1.349l.059-.019c.208-.624.649-1.117.649-1.117s.354-.345.642-.26c.288.084.182 1.09.182 1.09s-.153 1.095.332 1.147c.49.048 1.044-.386 1.044-.386z"
    fill="#fff"
  ></path>
</svg>
