<svg viewBox="0 0 24 24" xmlns="http://www.w3.org/2000/svg">
  <path
    d="M13.6 10.664a.246.246 0 00-.008.06c0 .11.07.199.158.199.078 0 .142-.07.155-.163.05.066.08.155.08.253 0 .204-.13.368-.292.368-.162 0-.293-.165-.293-.368 0-.163.084-.3.2-.35zM10.743 10.664a.241.241 0 00-.008.06c0 .11.07.199.158.199.077 0 .142-.07.155-.163.05.066.08.155.08.253 0 .204-.13.368-.292.368-.162 0-.293-.165-.293-.368 0-.163.084-.3.2-.35z"
    fill="#fff"
  ></path>
  <path
    fill-rule="evenodd"
    clip-rule="evenodd"
    d="M18.8 14.928c.19.886.457 1.002.705 1.002 0 0-.038.23-.286.211 0 0 .02.193.19.27 0 0-.095.096-.247.02 0 0 .305 1.714.248 2.715 0 0-.096-.077-.21-.096 0 0 .057.655-.438 1.31 0 0 0-.174-.095-.25 0 0-.16.59-1.3.632.023.151.049.302.089.45.005.018.029.03.046.018.044-.031.089-.058.136-.082.126-.042.202.012.202.012-.125.031-.274.277-.308.375.1-.008.175.017.274.078-.095.013-.198.062-.198.062.44.189.59.444.72.665l.062.102c1.016.165 1.61.372 1.61.596 0 .542-3.582.982-8 .982s-8-.44-8-.982c0-.209.621-.402 1.601-.561.03-.044.056-.09.085-.137.13-.22.28-.476.72-.665 0 0-.103-.05-.198-.062a.419.419 0 01.274-.078c-.034-.098-.183-.344-.308-.375 0 0 .077-.054.202-.012.047.024.093.05.137.082.016.012.04 0 .046-.019.034-.128.058-.259.079-.39v.001s-.08.005-.152-.005v-.002c-.386-.05-.949-.353-1.21-.705a4.917 4.917 0 01-.495-.886c-.152.058-.343.25-.343.25.057-.597.305-1.637.305-1.637l-.324-.231.42-.25c.018-.848.4-1.657.4-1.657-.134-.077-.439.077-.439.077.21-1.271.838-2.042.838-2.042-.286-.077-.686.174-.686.174.458-.751 1.353-1.676 1.353-1.676-.057-.154-.362-.327-.362-.327.19-.058.552-.077.552-.077.229-.29.648-.578.648-.578-.038-.559-.4-.886-.4-.886.228-.058.362.058.362.058 0-.867-.343-1.252-.343-1.252a.737.737 0 01.476.23s-.11-1.084-.167-2.212c-.457-.13-1.065-.383-1.45-.858-.683-.841-.58-1.802-.58-1.802s.813.866 2.001 1.08c.007-.205.021-.386.044-.532.171-1.117 1.124-2.73 1.124-2.73s.019.83.17 1.197c0 0 .61-2.176 2.915-3.158 0 0-.21.675-.114 1.445 0 0 1.351-1.81 3.732-1.81 0 0-.149.189-.28.466h-.007c-.1.255-.19.628-.19 1.152 0 0 .646-.231 1.427-.058 0 0-.67.482-.499 1.31 0 0 .85-.905 2.374-.5 0 0-.414.404-.548 1.772 0 0 .19-.135.477-.116 0 0-.543.486-.796 1.545 1.142-.238 1.916-1.063 1.916-1.063s.103.96-.579 1.802c-.39.48-1.007.734-1.465.863v1.399s.18-.347.562-.347c0 0-.562.693-.562 1.58v1.31l.03.025-.002-.036c.267.222.81.771.81.771l-.001.013c.096.1.183.199.249.286.304.404.761.731.971.828 0 0-.171.135-.476.135 0 0 .285.905.476 1.79zM5.77 22.43a.425.425 0 01.041-.044s-.065.028-.129.058l.089-.014zm4.2-.355c.673-.026 1.358-.04 2.03-.04.786 0 1.54.014 2.25.038a8.093 8.093 0 00-.234-.696c-.055-.127-.237-.541-.346-.706-1.356.486-2.767.105-3.101.002a7.307 7.307 0 00-.598 1.402zm3.824-1.451zm4.417 1.77l.015.002-.023-.01.008.007zM9.785 8.885c.29-.585.929-.28.929-.28s-.113-.478-.569-.355c-.455.124-.36.635-.36.635zm1.187.62s-.689-.332-1.083.285c0 0-.04-.613.516-.682.556-.069.567.397.567.397zm3.845 2.616c.376-.073.508-.104.547-.223.052-.16.153-.898.16-1.056.006-.12-.105-.175-.136-.184a.916.916 0 00-.09-.017 8.39 8.39 0 00-1.062-.066.92.92 0 01.135.49c0 .43-.273.78-.61.78-.336 0-.609-.35-.609-.78 0-.133.027-.259.073-.369-.19.034-.347.07-.416.102-.141.064-.135.12-.121.23v.006c.013.105.081.637.192.818.107.175.145.22.48.276a2.3 2.3 0 00.045.007c.36.054 1.019.063 1.387-.009l.025-.005zm-.894-1.809a.487.487 0 00-.424.049c-.31.04-.574.083-.77.115h-.002l-.01.002c-.11.018-.197.032-.264.04l-.075.011c-.085.012-.14.02-.187.022a2.275 2.275 0 01-.187-.022l-.075-.01a10.452 10.452 0 01-.264-.041l-.01-.002h-.001c-.15-.025-.34-.056-.559-.087a.489.489 0 00-.502-.063 13.01 13.01 0 00-.721-.058 6.96 6.96 0 00-1.337.057s-.294.038-.546.146l.048.324s.266-.064.526-.1c.048.457.142 1.044.142 1.044l.002.018.021.09c.054.23.107.366.32.447.21.08.708.155 1.21.181.186.01.398-.002.612-.033.317-.047.604-.134.714-.216.16-.119.245-.419.302-.617l.017-.06c.02-.067.037-.138.054-.207v-.002c.024-.098.049-.2.07-.235.004-.006.022-.027.091-.038a.558.558 0 01.146 0c.07.01.087.032.091.038.021.035.046.138.07.237.017.069.034.14.054.208l.017.058c.057.199.142.5.302.618.11.082.397.169.714.216.214.031.426.043.612.033.502-.026.999-.1 1.21-.18.213-.082.266-.218.32-.448l.02-.09.002-.018s.094-.587.143-1.043c.26.035.526.099.526.099l.048-.324c-.252-.108-.546-.146-.546-.146a6.96 6.96 0 00-1.337-.057c-.204.01-.401.026-.587.044zm-3.612.272a3.383 3.383 0 00-.113-.008 8.04 8.04 0 00-1.113.066.913.913 0 00-.091.016c-.03.008-.142.063-.137.184.008.158.108.896.161 1.056.039.119.17.15.547.223l.025.005c.368.072 1.027.063 1.387.01a2.3 2.3 0 00.045-.008c.334-.057.372-.1.48-.276.11-.181.18-.713.192-.818v-.006c.014-.11.02-.166-.12-.23a1.325 1.325 0 00-.232-.065c.037.1.058.213.058.332 0 .43-.273.78-.61.78-.336 0-.61-.35-.61-.78 0-.182.05-.349.13-.481zm3.127-.703s.535-.258.841.221c0 0 .032-.476-.4-.53-.432-.053-.44.31-.44.31zm1.014-.441c-.092-.5-.633-.412-.633-.412s.186-.332.5-.14c.313.19.133.552.133.552zm-3.528 4.923s.378-.257.6-.292c0 0 .05.484.271.723 0 0 .478-.436.951-.467 0 0 .122.266.32.364v.003c.071.045.159.091.244.11 0 0 .271-.166.35-.47 0 0 .026.641-.372.99 0 0-.303-.15-.521-.389a.999.999 0 01-.167-.2s-.702.501-.727.787c0 0-.507-.499-.68-.884 0 0-.337.108-.43.178 0 0-.272-.45-.328-.855 0 0 .327.316.49.402zm1.35-1.256a.722.722 0 00-.075-.003c.66.14 1.389.1 1.389.1-.134.069-.534.136-.534.136.367.001.73-.143.73-.143-.065-.049-.053-.284-.053-.284a.842.842 0 00-.095.217c-.575.02-1.159-.012-1.362-.023z"
    fill="#fff"
  ></path>
</svg>
