<svg viewBox="0 0 24 24" xmlns="http://www.w3.org/2000/svg">
  <path
    d="M1.5 20.979a1.478 1.478 0 01-1.497-1.477V4.54c0-.823.663-.97 1.498-.97.834 0 1.498.169 1.498.97v16.44H1.5zM22.47 20.979h-1.498V4.499c0-.824.663-.93 1.498-.93.834 0 1.498.106 1.498.93v15.024c0 .802-.664 1.456-1.498 1.456z"
    fill="#fff"
  ></path>
  <path
    d="M11.964 13.868L.645 5.764C-.018 5.28-.21 4.351.281 3.696c.492-.654 1.455-.801 2.14-.316l9.564 6.858 9.629-6.942a1.502 1.502 0 012.097.337 1.455 1.455 0 01-.343 2.068l-11.404 8.167z"
    fill="#fff"
  ></path>
</svg>
