<svg viewBox="0 0 24 24" xmlns="http://www.w3.org/2000/svg">
  <path
    d="M15.834 7.5L2.785.06a.567.567 0 00-.519.005.454.454 0 00-.26.401s-.005.846 0 1.844l10.063 8.672L15.834 7.5zM2.007 3.156c.015 3.598-.021 12.44 0 16.788l9.532-8.612-9.532-8.176zM21.753 10.96L16.296 7.9l-3.698 3.432L16.642 15l5.111-3.215c.13-.089.247-.212.247-.385a.572.572 0 00-.247-.44zM2.007 20.85c.01 1.552.015 2.686.015 2.686 0 .168.099.322.26.401a.567.567 0 00.519 0L16.065 15.5l-3.996-3.715-10.062 9.066z"
    fill="#fff"
  ></path>
</svg>
