<svg viewBox="0 0 24 24" xmlns="http://www.w3.org/2000/svg">
  <path
    fill-rule="evenodd"
    clip-rule="evenodd"
    d="M14.112 2.75l5.083 2.85c.147-.151.315-.28.5-.384 1.054-.589 2.398-.24 3.01.784.607 1.024.247 2.329-.807 2.923a2.246 2.246 0 01-.587.227v5.701c.203.048.399.124.58.226 1.061.594 1.42 1.9.809 2.923-.607 1.023-1.957 1.373-3.011.785a2.178 2.178 0 01-.545-.43l-5.052 2.832c.074.217.111.445.111.674C14.203 23.038 13.218 24 12 24s-2.203-.956-2.203-2.139c0-.21.031-.413.09-.605l-5.082-2.849a2.21 2.21 0 01-.493.378c-1.06.588-2.406.238-3.012-.785-.605-1.023-.246-2.329.808-2.923.182-.102.378-.178.581-.226v-5.7a2.247 2.247 0 01-.587-.228A2.108 2.108 0 011.294 6c.606-1.024 1.957-1.373 3.011-.784.184.103.352.232.498.381l5.084-2.85a2.087 2.087 0 01-.09-.608C9.797.956 10.782 0 12 0s2.203.956 2.203 2.139c0 .212-.032.418-.091.611zm-.53.878l5.095 2.856a2.076 2.076 0 00.21 1.655c.31.524.815.871 1.376 1.006v5.708a2.427 2.427 0 00-.085.022l-6.655-11.19.06-.057zm-3.104.059l-6.654 11.19a2.163 2.163 0 00-.087-.023V9.145A2.186 2.186 0 005.113 8.14a2.094 2.094 0 00.209-1.658l5.093-2.855.063.06zm2.138.507l6.652 11.187a2.136 2.136 0 00-.62 1.044H5.352a2.11 2.11 0 00-.62-1.042l6.654-11.189a2.272 2.272 0 001.23 0zm1.013 16.226l5.062-2.837a2.1 2.1 0 01-.04-.14H5.348a2.104 2.104 0 01-.023.082l5.087 2.851c.205-.207.452-.372.724-.484a2.258 2.258 0 011.753.012c.281.12.533.296.74.516z"
    fill="#fff"
  ></path>
</svg>
