<svg viewBox="0 0 24 24" xmlns="http://www.w3.org/2000/svg">
  <path
    fill-rule="evenodd"
    clip-rule="evenodd"
    d="M2.73 9.007h-.004l-.001.001h-.023l-.018.001H2.68l-.014.001h-.013l-.005.001h-.004l-.01.001-.013.002h-.013l-.013.002H2.59l-.004.001h-.004l-.005.001-.009.001-.004.001h-.005l-.004.001-.004.001-.005.001h-.004l-.005.001-.004.001h-.005l-.004.002h-.005l-.004.002h-.004l-.005.001-.004.001-.004.001h-.005l-.004.002h-.004l-.01.003h-.004l-.004.002h-.004l-.005.002h-.004l-.004.002-.005.001-.008.002-.009.003-.008.002-.005.001-.004.002h-.004l-.005.002-.004.001-.009.003-.004.001-.004.002-.004.001-.005.002-.004.001-.009.003-.008.003-.005.001-.012.005-.004.002-.009.003-.004.002-.004.001-.017.007-.004.002-.004.002-.004.001-.009.004-.004.002-.004.002-.004.002-.004.001-.004.002-.004.002-.005.002-.004.002-.008.004-.004.002-.004.002-.012.006-.004.003-.004.002-.004.002-.004.002-.004.002-.004.002-.004.002-.004.003-.012.007-.004.002-.003.002-1.617.96-.004.002-.012.007-.004.002-.004.003-.004.002-.004.003-.004.002-.003.003-.004.002-.004.003-.004.002-.003.003-.004.002-.004.003-.004.002-.004.003-.003.002-.004.003-.004.002-.004.003-.003.003-.004.002-.003.003-.004.003-.004.003-.007.005-.004.003-.003.003-.007.006-.004.002-.007.006-.003.002-.007.006-.008.006-.003.003-.01.008-.007.006-.007.006-.006.006-.023.022-.003.003-.01.01-.006.006-.004.003-.003.003-.003.003-.003.003-.006.007-.003.003-.01.01-.002.003-.003.004-.003.003-.003.003-.003.004-.003.003-.006.007-.003.003-.002.004-.003.003-.003.003-.015.018-.002.003-.011.014-.003.003-.002.004-.003.003-.003.004-.007.01-.003.004-.005.007-.003.004-.002.003-.003.004-.002.003-.005.008-.003.003-.002.004-.002.003-.003.004-.005.008-.002.003-.002.004-.003.004-.002.004-.007.01-.002.004-.002.004-.002.004-.003.004-.002.004-.002.003-.002.004-.004.008-.004.007-.003.004-.002.004-.002.004-.006.012-.002.004-.002.003-.001.004-.006.012-.002.004-.002.004-.002.004-.002.004-.002.004-.001.004-.002.004-.009.02-.005.013-.002.004-.002.004-.001.004-.002.004-.003.008-.001.004-.002.004-.001.004-.005.013-.001.004-.001.004-.002.004-.001.004-.002.005v.004l-.002.004-.001.004-.002.004-.001.004-.001.005-.003.008-.001.004-.001.005-.003.008-.001.004v.005l-.002.004-.001.004-.001.004-.001.005-.001.004-.002.009-.001.004-.001.004-.001.004v.005l-.003.008-.002.008v.005l-.001.004-.002.009-.001.004v.005l-.002.004v.004l-.001.004v.005l-.001.004v.005l-.002.004v.005l-.001.008v.005l-.001.004-.001.009v.005l-.001.004-.002.013v.009l-.001.009v.013l-.001.005v.013L0 11.015v2.021l.001.009v.018l.001.004v.009l.001.004v.005l.001.004v.005l.001.004v.004l.001.005v.004l.001.005v.004l.001.005.002.008v.009l.002.008v.005l.001.003.001.005.001.008.002.01v.004l.002.004v.004l.002.005v.004l.001.004.002.009.001.004.001.004.001.005.001.004.001.004.003.012.001.004.001.005.002.004v.004l.002.004.002.008.001.004.001.005.003.008.003.008v.005l.002.004.002.004.005.017.003.008.002.004.001.004.002.004.001.005.002.004.001.004.002.004.002.004.001.004.002.004.001.004.002.004.002.004.002.004.001.004.002.004.001.004.002.004.004.008.002.004.002.004.001.004.006.011.002.004.002.004.002.004.002.004.004.007.002.004.002.004.002.004.002.004.002.004.002.004.004.008.002.003.002.004.002.004.002.004.005.008.002.003.002.004.005.008.002.003.003.004.004.008.003.003.002.004.002.004.006.007.002.003.002.004.008.01.003.005.002.003.008.01.002.004.006.008.005.006.005.008.006.006.002.004.003.003.003.004.002.003.015.017.003.003.003.004.002.003.004.003.002.004.003.003.003.003.003.003.003.004.003.003.003.003.003.004.015.016.004.003.006.007.003.003.003.003.003.003.016.016.004.003.006.006.007.006.003.003.003.003.004.003.003.003.004.003.017.015.003.002.003.003.004.003.004.003.003.003.003.002.004.003.004.003.017.014.004.003.003.002.004.003.004.003.003.003.004.002.004.003.004.002.003.003.004.003.004.002.004.003.003.002.004.003.004.003.008.005.004.002.004.003.004.003.003.002.004.003.003.002.004.002.004.003.004.002.008.005.004.002.004.003.004.002.004.002.003.002 1.686.947.007.004.004.002.007.003.003.002.004.002.003.002.007.003.003.002.004.002.003.001.004.002.003.002.004.002.004.001.003.002.003.002.004.001.003.002.004.001.003.002.004.002.004.001.003.001.014.007.015.005.007.003.004.001.003.002.004.001.004.002.007.002.003.002.008.002.018.006.004.001.004.002.007.002.015.004.006.002h.001l.008.002.015.004.007.002.007.002.008.002.007.002.007.001.008.002.008.002.015.002.007.002h.007l.008.002.022.003.008.002h.008l.007.001h.008l.008.002.015.001h.008l.015.002h.022l.007.001h.076l.007-.001.016-.001h.007l.008-.001h.006l.016-.003h.007l.03-.005.016-.002.007-.002.007-.001.008-.002.008-.001.007-.002.008-.001.007-.002.008-.002.007-.001.008-.002.007-.002.007-.002.008-.002.007-.002.007-.002.004-.002.011-.003.004-.001.003-.001.004-.001.004-.001.003-.001.011-.004.004-.001.003-.002.004-.001.004-.001.007-.003.004-.001.003-.002.004-.001.007-.003.01-.004.004-.002.004-.001.003-.002.004-.001.004-.002.003-.001.007-.003.003-.002.004-.002.003-.001.004-.002.007-.003.003-.002.003-.001.004-.002.003-.002.01-.005.004-.002.004-.001.007-.004.003-.002 1.865-1 .003-.001.008-.004.003-.002.004-.002.003-.002.004-.002.003-.002.004-.002.003-.002.004-.003.003-.002.004-.002.003-.002.007-.004.004-.002.003-.002.003-.002.004-.003.003-.002.003-.002.004-.002.003-.003.004-.002.003-.002.01-.007.003-.002.01-.007.013-.01.003-.002.003-.002.006-.005.003-.003.003-.002.003-.003.004-.002.003-.003.009-.008.003-.002.006-.005.006-.005.003-.003.003-.002.018-.016.002-.003.003-.002.003-.003.006-.006.003-.003.003-.002.022-.023.002-.002.003-.003.002-.003.003-.003.003-.003.01-.012.003-.003.002-.003.01-.011.003-.003.005-.006.003-.003.002-.004.007-.008.002-.003.01-.013.002-.003.005-.006.002-.003.002-.003.003-.003.002-.003.002-.004.002-.003.002-.003.002-.003.003-.003.002-.003.002-.004.002-.003.002-.003.003-.003.002-.003.002-.003.002-.004.002-.003.004-.007.002-.003.002-.003.002-.004.007-.013.002-.003.002-.003.002-.004.002-.003.002-.004.003-.007.002-.003.002-.004.002-.003.001-.003.002-.004.002-.003.001-.004.002-.003.002-.004.005-.01.001-.003.002-.004.005-.01.001-.004.002-.004.001-.003.01-.021v-.004l.002-.004.002-.007.002-.004.001-.003.001-.004.003-.007.001-.004.005-.015.002-.003v-.004l.002-.004.001-.003.001-.004.003-.007v-.004l.002-.004v-.003l.002-.004v-.004l.002-.004.001-.003.001-.004.002-.007.002-.008v-.003l.002-.004v-.003l.001-.004.001-.004v-.004l.001-.003.001-.004.001-.004.001-.004.003-.015v-.007l.002-.004v-.008l.002-.003v-.008l.002-.008v-.008l.001-.004v-.004l.001-.003v-.004l.002-.008.001-.015v-.012l.001-.004v-.012l.001-.003v-.024l.001-.004V10.91l-.001-.011v-.011l-.001-.004-.001-.015-.001-.007v-.004l-.001-.004v-.007l-.001-.004-.001-.004v-.007l-.001-.003v-.004l-.002-.008-.001-.007-.001-.008-.002-.007v-.007l-.005-.021-.002-.007-.001-.008-.002-.007-.004-.014-.002-.007-.002-.007-.004-.014-.002-.007-.002-.007-.003-.007-.002-.007-.002-.007-.007-.02-.003-.007-.008-.02-.003-.007-.002-.007-.006-.013-.01-.02-.003-.007-.003-.006-.013-.026-.004-.007-.011-.019-.004-.006-.004-.007-.003-.006-.004-.006-.004-.006-.004-.006-.005-.006-.004-.006-.004-.006-.004-.006-.004-.006-.009-.012-.004-.006-.004-.006-.005-.006-.014-.017-.004-.006-.005-.005-.01-.011-.01-.012-.005-.005-.005-.006-.005-.005-.02-.021-.011-.01-.005-.006-.011-.01-.006-.005-.005-.005-.006-.005-.011-.01-.006-.004-.006-.005-.012-.009-.005-.005-.006-.004-.003-.003-.003-.002-.003-.002-.003-.002-.004-.003-.006-.004-.003-.003-.003-.002-.003-.002-.006-.004-.003-.002-.006-.004-.01-.006-.003-.002-.003-.002-.003-.002-.003-.002-.004-.002-.003-.002-.003-.002-.004-.002-.01-.006-.006-.004-.006-.004-.004-.002-1.822-1.03-.008-.005-.004-.002-.004-.002-.008-.005-.004-.002-.004-.002-.004-.002-.004-.002-.008-.004-.004-.002-.004-.002-.008-.004-.013-.005-.008-.004-.008-.004-.004-.002-.009-.003-.004-.002-.004-.002-.008-.003-.004-.002-.009-.003-.004-.002-.004-.001-.004-.002-.004-.002-.005-.001L3.1 9.07l-.004-.001-.004-.002-.005-.001-.004-.002-.004-.001-.004-.001-.004-.002-.005-.001-.004-.002-.008-.002-.01-.003-.003-.001-.005-.002-.008-.002-.005-.001-.013-.004-.008-.002-.005-.001-.004-.001-.004-.001-.004-.001-.01-.003h-.003l-.005-.002h-.004l-.004-.001-.005-.001-.004-.001-.004-.001-.005-.001-.008-.002h-.005l-.004-.001-.004-.001h-.005L2.91 9.02h-.004l-.027-.004-.004-.001h-.004l-.005-.001h-.004l-.01-.002h-.008l-.009-.001h-.004l-.009-.001-.013-.001H2.8l-.004-.001h-.009l-.026-.002H2.73zm-1.232 1.378v3.207h.697V12.19h1.157v1.402h.7v-3.207h-.7v1.168H2.195v-1.168h-.697zM8.855 9.012h-.004v-.001h-.06l-.009.001h-.009l-.004.001-.027.002h-.005l-.009.001-.021.003h-.009l-.005.001H8.69l-.005.001-.004.001-.005.001h-.004l-.004.001-.005.001-.004.001h-.004l-.01.002-.008.002-.013.003H8.62l-.005.002H8.61l-.005.002-.004.001-.004.001h-.005l-.008.003-.005.001-.004.001-.004.002h-.005l-.004.002-.009.002-.004.002h-.004l-.004.002-.005.001-.004.001-.004.002-.005.001-.004.001-.004.002-.009.003h-.004l-.009.004H8.49l-.009.004-.004.002-.004.001-.004.002-.004.001-.01.003-.003.002-.005.002-.004.001-.008.004-.004.001-.017.007-.004.002-.004.002-.005.002-.004.001-.016.008-.009.004-.003.002-.005.002-.004.002-.012.006-.004.002-.004.002-.004.002-.004.002-.008.005-.004.002-.004.002-.008.005-.008.004-.004.002-.004.003-.004.002-1.547.918-.004.003-.004.002-.005.003-.009.005-.004.003-.005.003-.004.003-.005.002-.008.006-.004.003-.009.006-.004.002-.004.003-.004.003-.005.003-.008.006-.004.003-.013.01-.004.002-.004.003-.005.003-.004.004-.004.002-.004.004-.016.013-.004.003-.008.006-.004.003-.004.004-.004.003-.019.016-.015.014-.008.007-.004.003-.015.014-.007.007-.003.003-.011.01-.015.015-.007.008-.003.003-.004.004-.003.003-.003.004-.01.011-.003.004-.01.011-.004.004-.01.011-.003.004-.003.004-.003.004-.003.004-.003.004-.004.004-.003.003-.003.004-.006.008-.003.004-.006.008-.003.004-.003.004-.003.004-.006.007-.005.008-.006.008-.003.004-.002.005-.006.008-.003.004-.003.004-.002.004-.003.004-.003.004-.003.004-.002.004-.006.009-.002.004-.003.004-.003.004-.002.005-.003.004-.002.004-.003.005-.002.004-.003.004-.002.004-.003.005-.002.004-.003.004-.002.005-.002.004-.003.004-.002.005-.005.008-.002.005-.005.008-.002.005-.002.004-.002.005-.002.004-.003.005-.004.009-.002.004-.002.004-.002.005-.002.004-.003.005-.001.004-.003.005-.001.004-.003.005-.001.004-.002.005-.01.023-.002.004-.005.014-.002.005-.002.005-.002.005-.001.004-.002.005-.002.005-.002.004-.004.014-.002.005-.001.004-.003.01-.002.004-.001.005-.002.005-.003.01-.001.004-.001.005-.002.005-.001.004-.002.005v.005l-.003.01-.001.005-.002.005-.001.005-.001.004-.001.005-.002.005v.005l-.002.005-.002.01v.005l-.002.005v.005l-.004.014v.005l-.001.005-.001.005-.002.01v.005l-.002.005-.001.01-.002.015-.001.005-.001.005v.005l-.001.004-.001.005v.005l-.001.005v.005l-.001.005v.006l-.001.005v.005l-.001.005v.005l-.002.014v.025l-.001.005-.001.04v1.925l.001.004v.009l.001.005v.009l.001.004v.009l.002.009v.008l.001.004.001.008v.004l.001.005v.004l.001.004.001.004v.005l.002.004v.008l.001.005.001.004.001.004v.005l.001.004.001.004v.005l.003.009v.003l.002.005v.004l.001.004.001.005.001.004.004.013v.004l.002.004.003.013.002.009.001.004.002.004.002.009.005.017.001.004.001.004.002.004.001.004.002.004.001.005.009.025.001.004.002.004.001.004.003.008.004.009.001.004.002.004.005.012.001.004.004.008.002.004.001.004.002.004.004.008.003.008.006.012.002.003.006.013.005.011.002.004.004.008.002.004.002.004.003.003.008.015.002.004.002.004.002.003.003.004.006.011.003.004.002.004.005.007.002.004.004.007.003.004.005.007.002.004.002.003.003.004.002.004.003.003.002.004.003.004.003.003.002.003.003.004.003.003.002.004.003.004.002.003.009.01.002.004.003.004.003.003.002.003.003.004.006.007.005.007.003.003.003.003.006.007.003.003.006.007.006.006.003.004.021.022.003.004.003.003.004.003.003.003.003.003.003.003.003.004.003.003.007.006.003.003.006.006.003.003.004.003.003.003.014.012.003.003.007.006.003.003.004.003.003.003.004.002.003.003.004.003.003.003.004.003.007.005.003.003.004.003.003.003.004.003.004.003.003.002.004.003.01.008.004.003.004.003.004.003.004.002.003.003.004.003.004.002.004.003.007.005.004.003.004.002.011.008.004.002.004.002.007.005.012.007.004.002.004.003.004.002.004.002.004.003.004.002 1.69.95.003.002.006.003.004.002.003.002.007.004.004.002.003.002.004.002.006.003.004.002.007.003.003.002.007.003.004.002.004.002.003.001.004.002.003.002.004.001.003.002.008.003.003.001.007.003.004.002.007.002.004.002.003.001.004.002.007.002.004.002.004.001.003.002h.004l.003.002.012.004.003.001.004.001.003.001.004.002h.003l.004.002.007.002.008.002.007.002.007.002.008.002.007.002.007.002.016.004.014.003.008.002.007.001.008.002.022.004.015.002.015.003h.008l.007.002h.008l.007.001.015.002h.008l.007.001.015.001.008.001h.023L8.82 15h.067l.008-.001h.007l.016-.001.007-.001h.008l.007-.001.023-.003.007-.001.008-.001.007-.001.008-.001.015-.003.008-.001.007-.001.007-.002.015-.003.008-.001.007-.002.007-.002.016-.003.007-.002.008-.002.007-.002.008-.002.007-.002.003-.001.004-.001.004-.001.011-.004.004-.001.003-.001.01-.004.005-.001.003-.002.004-.001.004-.001.003-.002h.004l.003-.002.004-.002.007-.002.004-.002.003-.001.004-.002h.003l.008-.004.003-.001.004-.002.003-.002.004-.001.003-.002.01-.004.005-.002.003-.001.004-.002.003-.002.01-.005.004-.001.003-.002.004-.002.003-.002.004-.001.003-.002.004-.002.003-.002.004-.002.003-.001 1.866-1 .003-.002.004-.002.007-.004.003-.002.004-.002.01-.006.003-.002.004-.002.003-.003.004-.002.003-.002.007-.004.003-.002.004-.002.003-.002.003-.002.004-.002.003-.003.003-.002.004-.002.003-.003.007-.004.003-.002.007-.005.003-.002.003-.002.004-.002.003-.003.003-.002.007-.005.003-.003.003-.002.003-.003.012-.01.003-.002.003-.002.01-.008.002-.002.004-.003.003-.002.003-.003.006-.005.008-.008.004-.003.011-.01.003-.003.006-.005.003-.003.013-.014.003-.003.02-.02.005-.005.002-.003.003-.003.005-.005.002-.003.003-.003.008-.01.002-.002.005-.006.007-.009.003-.003.002-.003.003-.003.002-.003.003-.003.004-.006.003-.003.002-.003.002-.004.003-.003.004-.006.002-.003.007-.01.004-.006.002-.003.002-.003.005-.007.002-.003.002-.003.002-.003.002-.004.004-.006.002-.004.004-.006.002-.004.002-.003.002-.003.004-.007.002-.003.002-.004.002-.003.002-.003.002-.004.002-.003.003-.007.002-.003.004-.007.002-.003.001-.004.002-.003.003-.007.002-.003.002-.004.002-.003.003-.007.003-.007.002-.003.003-.008.001-.003.008-.018.001-.004.002-.003.001-.004.004-.01.003-.008.001-.004.003-.007.002-.007.003-.008.001-.003.005-.015.002-.004.002-.007.002-.008.001-.003v-.004l.002-.004.001-.004.001-.003.002-.008.001-.003.001-.004.002-.008v-.004l.002-.003v-.004l.002-.004.001-.007v-.004l.002-.004v-.004l.001-.004.001-.004v-.003l.001-.004v-.004l.002-.004v-.004l.001-.007v-.004l.002-.008.002-.011.001-.012v-.004l.002-.008v-.011l.001-.004v-.012l.001-.004v-.012l.001-.004v-.015l.001-.004v-2.208l-.002-.007v-.015l-.003-.022-.001-.007-.001-.007-.001-.007-.002-.015-.002-.007v-.007l-.002-.008-.003-.014-.002-.007-.001-.007-.002-.007-.002-.007-.005-.021-.002-.007-.002-.007-.002-.007-.002-.007-.002-.007-.002-.006-.003-.007-.01-.027-.002-.007-.005-.014-.005-.013-.003-.007-.003-.006-.006-.014-.006-.012-.003-.007-.003-.006-.004-.007-.003-.006-.003-.007-.007-.013-.004-.006-.003-.006-.004-.007-.004-.006-.003-.006-.004-.006-.004-.006-.004-.006-.008-.013-.008-.012-.004-.006-.008-.012-.005-.006-.008-.011-.005-.006-.004-.005-.01-.012-.004-.005-.004-.006-.01-.011-.005-.005-.005-.006-.01-.01-.004-.006-.021-.021-.016-.015-.01-.01-.006-.005-.011-.01-.017-.014-.006-.005-.006-.005-.011-.008-.006-.005-.006-.005-.018-.013-.006-.004-.006-.004-.006-.004-.007-.005-.012-.008-.006-.004-.003-.002-.007-.003-.003-.002-.003-.002-.006-.004-.004-.002-.003-.002-.003-.002-.004-.002-.002-.002-1.83-1.035-.003-.002-.008-.005-.004-.002-.004-.002-.004-.002-.004-.002-.004-.002-.004-.002-.004-.002-.004-.002-.004-.002-.004-.002-.004-.002-.004-.002-.004-.002-.009-.004-.008-.004-.004-.002-.004-.001-.008-.004-.004-.002-.005-.002-.004-.001-.004-.002-.008-.003-.004-.002-.004-.002-.005-.001-.012-.006-.005-.001-.004-.002-.004-.001-.004-.002-.009-.003-.004-.001-.013-.004-.008-.003-.005-.002h-.004l-.009-.004-.017-.005h-.004l-.004-.002-.005-.001-.004-.001-.004-.002h-.005l-.004-.002h-.004l-.005-.002H9.11l-.004-.002h-.004l-.005-.002h-.004l-.004-.002-.009-.002-.008-.001-.005-.001-.004-.001-.009-.002H9.05l-.005-.001-.008-.002-.01-.001-.012-.002H9.01l-.004-.001H9l-.008-.001h-.005l-.004-.001-.013-.002h-.01l-.004-.001h-.012l-.004-.001h-.005l-.004-.001h-.014l-.005-.001H8.9l-.004-.001h-.037l-.004-.001zm-.558 1.521h-.68v1.71c0 .359.02.63.062.813a.888.888 0 00.178.356.98.98 0 00.368.275c.156.07.384.106.684.106.25 0 .451-.032.606-.097a.96.96 0 00.37-.261.91.91 0 00.19-.403c.035-.159.052-.43.052-.815v-1.684h-.68v1.773c0 .253-.03.434-.049.543v.002c-.019.11-.074.18-.166.256-.091.075-.152.102-.332.102-.178 0-.297-.023-.4-.102a.469.469 0 01-.18-.302 3.663 3.663 0 01-.023-.536v-1.736zM15.024 9h-.005v.003h-.04l-.012.001h-.018l-.004.001h-.009l-.004.001h-.004l-.013.001h-.005l-.008.001h-.005l-.004.001h-.005l-.008.002h-.01l-.004.001h-.005l-.004.001-.013.002-.009.002h-.004l-.009.002h-.004l-.004.001-.005.001-.004.001-.008.002h-.005l-.004.002h-.004l-.005.002h-.004l-.004.002-.009.002h-.004l-.005.002h-.004l-.004.002-.008.002-.005.001-.004.002h-.004l-.004.002-.01.002-.008.003H14.7l-.004.002-.008.003-.004.001-.005.002h-.004l-.004.002-.004.002-.004.001-.004.001-.005.002-.004.001-.004.002-.004.001-.004.002-.004.001-.004.002-.004.001-.004.002-.004.002-.004.001-.005.002-.004.001-.004.002-.004.002-.004.002-.008.003-.004.002-.004.002-.004.001-.004.002-.004.002-.005.002-.003.002-.004.002-.005.002-.003.001-.005.002-.008.004-.004.002-.003.002-.004.002-.004.002-.004.002-.004.002-.012.006-.004.002-.003.003-.004.002-.008.004-.004.002-.003.002-1.545.89-.005.003-.004.003-.005.002-.004.003-.005.003-.004.002-.004.003-.005.003-.004.003-.005.002-.004.003-.004.003-.005.003-.004.003-.005.003-.004.003-.004.002-.005.003-.004.003-.004.003-.009.006-.004.003-.004.003-.013.01-.004.002-.004.004-.004.002-.004.004-.004.003-.004.003-.005.003-.004.003-.004.003-.012.01-.004.004-.004.003-.004.003-.008.007-.003.003-.008.007-.031.027-.004.003-.004.004-.003.003-.019.018-.003.004-.004.003-.004.004-.003.004-.004.003-.004.004-.003.004-.004.003-.003.004-.004.003-.007.008-.006.007-.004.004-.003.004-.007.007-.004.004-.003.004-.007.008-.003.003-.003.004-.004.004-.003.004-.003.004-.003.004-.003.004-.004.004-.003.004-.003.004-.003.004-.003.004-.003.004-.003.004-.003.004-.003.004-.003.004-.003.004-.01.012-.002.004-.003.004-.006.008-.002.004-.003.005-.003.004-.003.004-.003.004-.005.009-.003.004-.002.004-.005.008-.003.005-.003.004-.003.004-.002.004-.003.005-.002.004-.005.009-.003.004-.002.004-.003.004-.002.005-.003.004-.002.005-.003.004-.002.004-.002.005-.003.004-.002.005-.002.004-.002.005-.003.004-.002.005-.002.004-.002.005-.003.004-.002.004-.002.005-.008.018-.002.005-.002.004-.003.005-.002.004-.002.005-.002.005-.002.004-.005.014-.002.004-.002.005-.002.005-.002.005-.001.004-.002.005-.002.004-.004.01-.001.004-.004.01-.001.005-.002.004-.002.005-.001.005-.002.005-.001.004-.002.005-.002.005-.001.005-.002.004-.001.005-.001.005-.003.01-.002.004-.001.005-.002.005v.005l-.002.005-.002.005v.005l-.003.01-.001.004-.001.005-.002.005v.005l-.002.005v.005l-.002.005-.001.005-.001.005-.001.005-.001.004-.001.005-.002.01-.001.005-.001.005-.001.005-.001.005-.002.01v.005l-.001.005v.005l-.002.005v.005l-.002.01v.004l-.001.01v.006l-.002.01v.01l-.001.005-.002.015-.002.03v.027l-.001.01v1.934l.001.004v.018l.001.004.001.014v.004l.002.013v.005l.001.004.001.009v.004l.001.005v.005l.001.004v.005l.002.004v.009l.002.004v.005l.001.004v.004l.002.005v.004l.003.013.001.004.001.005v.004l.002.004v.005l.003.01.001.003.001.005.001.004.001.004.001.005.001.004.001.004.001.004.002.005v.004l.002.004.001.004.004.013.001.004.001.005.002.004.002.008.002.004.001.005.001.004.002.004.004.012.002.004.001.004.004.008.001.004.002.004.001.004.002.005.003.008.002.004.001.004.002.004.002.004.002.004.001.004.002.004.002.004.001.004.01.02.001.004.002.004.002.004.002.004.002.004.002.004.004.008.002.004.002.003.002.004.004.008.004.008.002.003.002.004.002.004.002.004.003.003.002.004.002.004.002.004.002.003.002.004.005.008.002.003.003.004.002.004.002.003.005.008.002.003.002.004.003.004.005.007.01.014.003.004.002.004.003.003.002.004.003.003.003.004.005.007.002.003.003.004.003.003.003.004.002.003.006.007.003.004.002.003.003.004.003.003.006.007.002.003.01.01.002.003.006.007.003.003.003.004.003.003.021.023.003.003.003.003.007.006.003.004.003.003.02.018.002.003.004.003.006.006.004.003.006.006.01.009.004.003.007.006.003.003.004.003.003.002.004.003.007.006.003.003.007.006.004.003.01.008.004.003.008.005.003.003.007.005.004.003.004.003.003.003.008.005.004.002.003.003.004.002.004.003.003.002.008.006.004.002.003.003.004.002.004.003.004.002.004.003.004.002.004.003.004.002.004.003.004.002.004.002.008.005.004.002.003.002 1.69.948.003.002.003.002.004.002.003.002.003.002.004.001.003.002.004.002.003.002.004.001.007.004.003.002.007.003.003.002.004.001.003.002.004.001.004.002.004.002.024.01.004.002.003.001.004.002.003.002h.004l.014.007h.004l.004.002.003.002h.004l.003.002.011.004.004.001.003.002.015.004.004.002.007.002.008.002.014.005.015.004.022.005.015.003.007.002.008.002.015.003.008.001.008.002h.007l.015.003.008.002h.008l.007.002h.008l.015.002h.008l.007.001h.008l.007.001h.008l.015.002h.085l.023-.002h.015l.008-.001.015-.002h.008l.007-.001.008-.001.008-.001.007-.001.008-.001.015-.002.008-.002h.007l.008-.002.007-.002.015-.003.008-.001.007-.002.008-.001.007-.002.007-.002.008-.002.015-.004.007-.002.007-.002h.005l.004-.002.004-.001.003-.001.004-.001.004-.001.003-.002.008-.002.003-.001.015-.005.004-.002.003-.001.004-.002.007-.002.004-.002.003-.001.004-.002.004-.001.003-.001.004-.002.004-.001.003-.002.004-.001.003-.002.004-.002h.003l.007-.004.004-.002.004-.001.003-.002.004-.001.003-.002.004-.001.003-.002.004-.002.003-.002.004-.001.003-.002.007-.003.004-.002.003-.002.004-.002.007-.004.003-.001 1.865-1 .004-.002.003-.002.004-.002.004-.002.003-.002.004-.002.003-.002.004-.002.003-.002.004-.002.003-.003.004-.002.003-.002.003-.002.004-.002.003-.002.004-.002.003-.002.003-.003.004-.002.006-.005.004-.002.006-.004.004-.002.003-.003.003-.002.003-.002.004-.002.003-.003.003-.002.003-.002.004-.002.003-.003.003-.002.003-.003.003-.002.003-.003.003-.002.004-.003.003-.002.003-.002.003-.003.006-.005.003-.002.003-.003.006-.005.003-.002.006-.005.003-.003.003-.003.003-.002.009-.008.003-.003.006-.005.006-.005.003-.003.005-.006.003-.003.003-.003.003-.002.002-.003.003-.003.009-.008.002-.003.009-.008.002-.003.003-.003.002-.003.003-.003.002-.003.008-.009.003-.003.003-.003.002-.003.003-.003.002-.002.003-.004.002-.003.003-.002.002-.004.003-.003.002-.003.002-.003.005-.006.002-.003.005-.006.002-.003.003-.003.005-.007.002-.003.004-.006.002-.003.005-.006.002-.004.002-.003.002-.003.002-.003.002-.004.003-.003.004-.006.002-.004.002-.003.004-.006.002-.004.002-.003.002-.003.002-.004.008-.013.002-.003.002-.004.001-.003.002-.003.002-.004.002-.003.002-.003.007-.014.003-.007.002-.003.002-.004.002-.003.001-.004.002-.003.003-.007.003-.007.007-.014.001-.004.002-.004.001-.003.002-.004.001-.003.003-.007.002-.004.001-.004.002-.003.001-.004.001-.003.002-.004.003-.01.002-.004.004-.011.002-.008.001-.003.001-.004.001-.004.002-.003.002-.008v-.003l.002-.004.001-.004.001-.004.001-.003.001-.004.001-.004.001-.004.001-.003v-.004l.002-.004v-.003l.002-.004v-.004l.001-.004.001-.004.001-.003.001-.004.001-.004v-.004l.003-.011v-.004l.002-.007v-.004l.001-.004.001-.004v-.004l.001-.004.001-.004v-.003l.001-.005.002-.011v-.008l.001-.004v-.004l.001-.004v-.007l.001-.004.002-.016v-.012l.002-.012v-2.214l-.001-.004v-.013l-.001-.004v-.004l-.001-.003v-.004l-.001-.007v-.004l-.001-.004v-.003l-.002-.008v-.011l-.001-.003-.001-.008-.001-.003v-.004l-.002-.004v-.007l-.003-.01v-.005l-.002-.007-.001-.007-.002-.007-.001-.008-.002-.007-.002-.007-.001-.007-.002-.007-.002-.008-.002-.007-.002-.007-.007-.02-.002-.007-.002-.007-.005-.014-.003-.007-.005-.014-.01-.027-.004-.006-.003-.007-.003-.007-.003-.007-.003-.006-.003-.007-.007-.013-.003-.006-.007-.013-.003-.007-.004-.006-.003-.006-.004-.007-.004-.006-.004-.006-.007-.012-.004-.007-.004-.006-.004-.006-.005-.006-.008-.013-.004-.005-.004-.007-.005-.005-.004-.006-.004-.006-.005-.006-.004-.006-.005-.006-.005-.006-.004-.005-.005-.006-.01-.011-.004-.005-.006-.006-.004-.005v-.001l-.005-.005-.006-.006-.005-.005-.005-.005-.016-.016-.005-.005-.017-.016-.005-.004v-.001l-.006-.005-.005-.004v-.001l-.006-.005-.006-.005-.006-.005-.005-.004-.003-.002-.003-.003-.003-.002-.003-.002-.003-.003-.003-.002-.003-.003-.003-.002-.003-.002-.003-.002-.006-.005-.004-.002-.003-.003-.003-.002-.003-.002-.003-.002-.003-.002-.007-.005-.003-.002-.003-.002-.003-.002-.003-.002-.003-.002-.004-.002-.003-.002-.003-.002-.004-.002-.003-.002-.003-.002-.003-.002-.004-.002-.003-.002-.003-.002-.004-.002-.003-.002-.003-.002-.004-.001-.007-.004-.003-.002-.003-.002-.004-.002-1.827-1.004-.004-.002-.004-.003-.004-.002-.008-.004-.011-.006-.004-.002-.004-.002-.004-.002-.004-.002-.004-.002-.008-.004-.004-.002-.004-.002-.005-.002-.008-.003-.004-.002-.004-.002-.004-.002-.008-.003-.004-.002-.013-.005-.004-.001-.004-.002-.02-.008-.005-.001-.008-.004-.004-.001-.004-.002-.025-.008-.01-.003h-.004l-.004-.002-.004-.001-.022-.007h-.004l-.005-.002-.004-.001-.004-.001-.004-.001-.005-.001-.004-.001-.004-.001-.013-.003-.004-.001-.018-.004h-.004l-.004-.002-.009-.002h-.01l-.008-.002-.005-.001-.017-.004h-.004l-.018-.003-.008-.001h-.005l-.004-.001h-.005l-.004-.001h-.004l-.005-.001h-.004l-.005-.001-.017-.001h-.004l-.013-.002h-.014l-.004-.001h-.005L15.032 9h-.008zm1.211 4.2c.288-.304.432-.517.432-1.247v-.109h-1.489v.58h.783c0 .233-.473.661-.89.605-.793-.107-.958-.69-.98-1.03-.041-.607.505-1.062 1-1.049.45.013.763.143.979.53l.51-.415a1.788 1.788 0 00-1.454-.735c-.45 0-.886.178-1.18.451a1.626 1.626 0 00.058 2.44c.304.258.654.406 1.088.406.475 0 .856-.123 1.143-.427z"
    fill="#fff"
  ></path>
  <path
    d="M22.309 11.978c0-.572-.483-1.036-1.077-1.036s-1.077.464-1.077 1.036c0 .572.482 1.036 1.077 1.036.594 0 1.077-.464 1.077-1.036z"
    fill="#fff"
  ></path>
  <path
    fill-rule="evenodd"
    clip-rule="evenodd"
    d="M21.187 9.01h-.005l-.008-.003h-.039l-.01.001h-.017l-.004.001h-.009l-.009.001h-.004l-.004.001h-.009l-.004.001h-.005l-.004.001h-.004l-.005.001-.017.002h-.005l-.004.001-.017.003h-.005l-.004.001-.004.001-.009.002h-.004l-.013.003h-.005l-.008.002h-.005l-.004.002-.008.002h-.005l-.004.002-.017.004h-.004l-.004.002-.005.001-.004.001-.004.001-.008.003-.013.003-.009.003-.004.001-.004.001-.004.002-.005.001-.004.001-.004.002-.013.004-.004.001-.008.003-.004.002-.004.001-.005.002-.004.001-.004.002-.008.003-.004.001-.008.004-.005.001-.003.002-.005.002-.016.006-.004.002-.004.002-.004.002-.008.003-.008.004-.008.004-.004.002-.008.004-.004.002-.004.001-.004.002-.004.002-.003.002-.005.002-.007.004-.004.002-.004.003-.004.002-.007.004-.004.002-.004.002-.004.003-.003.002-1.545.89-.004.003-.005.003-.013.008-.01.006-.004.002-.004.003-.01.006-.012.008-.009.006-.009.005-.008.007-.005.002-.008.007-.004.003-.013.009-.004.003-.004.003-.004.003-.004.003-.004.004-.005.003-.028.022-.004.004-.004.003-.008.007-.011.01-.012.01-.008.007-.007.007-.004.003-.004.004-.004.003-.025.025-.011.01-.007.008-.004.004-.003.004-.004.003-.003.004-.007.008-.004.003-.003.004-.003.004-.003.004-.004.004-.003.004-.007.007-.003.004-.003.004-.004.004-.003.004-.004.004-.002.004-.004.004-.003.004-.003.004-.003.004-.007.008-.003.003-.003.005-.003.004-.006.008-.012.016-.003.004-.003.004-.003.004-.003.004-.009.013-.002.004-.011.017-.003.004-.003.004-.005.009-.003.004-.002.004-.003.004-.005.01-.003.004-.002.004-.005.008-.003.005-.003.004-.002.004-.002.005-.003.004-.002.004-.003.005-.002.004-.002.005-.003.004-.002.005-.002.004-.007.013-.002.005-.003.004-.002.005-.002.004-.002.005-.003.004-.004.01-.002.004-.002.005-.004.009-.002.005-.004.008-.002.005-.005.014-.002.005-.002.005-.002.004-.002.005-.002.004-.001.005-.002.005-.002.005-.002.005-.001.004-.002.005-.002.005-.002.005v.004l-.004.01-.002.005-.001.005-.002.004-.003.01-.003.01-.001.004-.002.005v.005l-.002.005-.002.004-.001.005-.001.005-.003.01-.001.005-.001.005-.002.005v.005l-.002.005-.001.005-.002.005v.004l-.002.005v.005l-.002.005v.005l-.003.01v.005l-.002.005v.005l-.002.005v.005l-.002.01-.001.005v.005l-.002.005v.005l-.001.005-.001.004v.005l-.002.005v.01l-.002.006v.009l-.001.005-.002.016v.01l-.001.005v.005l-.001.005v.01l-.001.005v.015l-.001.005v.01l-.001.015v1.926l.001.005v.015l.001.008v.005l.001.004v.009l.001.009v.004l.001.005v.004l.001.005v.004l.001.004v.005l.001.004v.005l.002.004v.003l.001.01.001.004v.004l.002.005v.008l.002.005v.004l.001.004.001.005.001.004v.004l.002.004v.005l.002.004v.005l.001.004.001.004.001.004.002.005v.004l.002.004v.004l.002.005.001.004.001.004.001.004.002.004v.005l.002.004.001.004.001.004.002.004.002.009.002.004v.005l.002.004.003.008.001.004.001.004.002.004.001.005.002.004.003.008.001.004.002.004.001.004.003.009.002.004.001.004.004.008.001.004.002.004.001.004.002.005.002.003.002.005.003.007.004.008.002.004.001.004.002.004.004.008.004.008.002.004.002.004.003.008.003.004.003.008.002.003.002.004.002.004.002.004.005.007.002.004.002.004.002.004.002.003.002.004.007.011.002.004.003.004.002.004.002.003.002.004.003.004.002.003.005.007.002.004.003.004.004.007.003.003.002.004.003.004.002.003.003.004.002.003.003.004.002.004.003.003.002.004.008.01.003.004.003.004.002.003.003.004.003.003.002.004.003.003.003.003.003.004.002.003.003.004.009.01.002.003.003.003.003.004.003.003.003.004.003.003.003.003.003.003.003.004.003.003.006.007.003.003.003.003.003.003.01.01.002.003.004.003.003.004.003.003.003.003.003.003.01.01.003.002.013.013.003.003.007.006.003.003.007.006.004.003.01.008.006.006.004.003.003.003.004.002.021.017.004.003.01.008.004.003.004.002.003.003.004.003.004.002.003.003.011.008.004.002.008.005.003.003.004.002.004.003.004.002.004.003.004.002.004.002.015.01.004.003.004.002.004.002.008.005.004.002.005.003.003.002 1.685.947.004.002.003.002.004.002.006.004.004.001.003.002.003.002.004.002.021.01.004.002.003.001.003.002.004.002.004.002.003.001.004.002.003.001.007.004h.004l.003.002.004.002.007.003.007.003.011.004.004.001.011.005h.004l.003.002.01.004.005.001.014.005.004.002h.004l.004.002.006.002.008.003.022.006.015.004.008.002.007.002.008.001.014.003.007.002h.001l.008.002.007.001.015.003.008.001.007.001.008.001.007.001.008.001.015.002.015.002h.008l.008.001h.007l.008.001.022.002h.099l.008-.001h.007l.015-.002h.008l.015-.002h.008l.007-.002.023-.003.008-.001.007-.001.008-.002.015-.002.015-.003.007-.002.008-.001.022-.005.007-.002.008-.002.007-.002.008-.002.007-.002.007-.002.004-.001.003-.001.004-.001.007-.002.004-.002.01-.003.004-.002h.004l.01-.005.005-.001.007-.003h.003l.004-.002.003-.002.004-.001.004-.001.003-.002.004-.001.003-.002.004-.001.004-.002.003-.001.007-.003.012-.005.003-.001.004-.002.003-.001.004-.002.003-.001.004-.002.004-.002.003-.002.003-.001.004-.002.003-.001.004-.002.004-.002.006-.004.004-.001.003-.002.004-.002.003-.002 1.865-1 .004-.001.011-.006.004-.002.003-.002.004-.002.003-.002.004-.002.003-.002.004-.002.003-.002.017-.01.01-.008.003-.002.008-.004.003-.002.003-.003.003-.002.004-.002.003-.002.003-.002.004-.003.003-.002.003-.002.003-.003.003-.002.004-.002.006-.005.003-.003.003-.002.004-.002.006-.005.003-.003.006-.005.003-.002.003-.003.01-.008.002-.002.003-.003.003-.002.003-.003.003-.003.003-.002.003-.003.01-.008.002-.002.003-.003.003-.003.003-.002.003-.003.008-.008.003-.003.006-.006.003-.002.002-.003.003-.003.003-.003.005-.006.008-.008.003-.003.003-.003.005-.006.002-.003.003-.003.002-.003.003-.002.01-.012.003-.003.002-.003.003-.003.002-.003.007-.01.003-.003.002-.003.005-.006.002-.003.01-.012.002-.004.002-.003.002-.003.002-.003.002-.003.002-.003.003-.003.002-.004.002-.003.002-.003.005-.006.002-.003.002-.004.002-.003.002-.003.002-.003.002-.004.002-.003.002-.003.004-.007.002-.003.002-.004.002-.003.002-.003.002-.004.002-.003.002-.004.002-.003.002-.003.003-.007.002-.003.002-.004.004-.007.001-.003.004-.007.002-.003.001-.004.002-.003.002-.004.001-.003.002-.004.005-.01.001-.004.002-.003.001-.004.002-.003.001-.004.002-.003.002-.004.002-.007.002-.004.001-.004.002-.003.001-.004.002-.003v-.004l.005-.01.002-.004.003-.011.002-.004.002-.007.002-.004.001-.004.001-.003.001-.004.002-.003v-.004l.002-.004.001-.004.001-.003.006-.019v-.004l.002-.003v-.004l.003-.008v-.003l.001-.004.001-.004.003-.012v-.003l.001-.004.001-.004.001-.004v-.003l.002-.004V13.2l.002-.004v-.003l.001-.004v-.004l.001-.004v-.004l.001-.004.001-.004v-.004l.001-.003v-.005l.002-.011v-.004l.001-.004v-.008l.001-.004.001-.007v-.009l.001-.007v-.004l.001-.004v-.012l.001-.004v-.024l.001-.003v-2.167l-.001-.004v-.019l-.001-.004v-.007l-.001-.004-.002-.022v-.003l-.002-.011v-.004l-.001-.004V10.8l-.001-.004-.001-.004v-.003l-.001-.008-.001-.003v-.004l-.001-.003-.001-.004-.001-.004v-.004l-.002-.007-.002-.007-.001-.007-.002-.008-.001-.006-.002-.008-.002-.007-.002-.007-.001-.007-.002-.007-.002-.007-.003-.007-.001-.007-.003-.007-.002-.007-.002-.007-.003-.007-.002-.006-.008-.02-.002-.008-.008-.02-.01-.02-.002-.007-.003-.006-.01-.02-.003-.006-.004-.007-.003-.006-.004-.007-.01-.019-.004-.006-.004-.007-.004-.006-.003-.006-.005-.006-.004-.007-.004-.006-.004-.006-.004-.006-.008-.012-.004-.006-.005-.006-.004-.006-.004-.006-.005-.005-.004-.006-.005-.006-.009-.011-.004-.005v-.001l-.006-.006-.005-.005-.005-.006-.004-.005-.005-.006-.016-.016-.01-.01-.01-.011-.006-.005-.016-.016-.006-.005-.011-.01-.006-.005-.006-.004-.005-.005-.006-.005-.009-.007-.005-.005-.003-.002-.003-.003-.003-.002-.003-.002-.003-.002-.003-.003-.003-.002-.003-.002-.003-.002-.003-.002-.006-.005-.004-.002-.003-.002-.003-.002-.006-.005-.003-.002-.003-.002-.003-.002-.003-.002-.004-.002-.003-.002-.003-.002-.003-.002-.003-.002-.007-.004-.003-.002-.003-.002-.004-.002-.003-.002-.003-.002-.004-.002-.003-.002-.007-.003-.003-.002-.003-.002-1.829-1.006-.003-.002-.005-.003-.003-.002-.008-.004-.004-.002-.004-.002-.004-.002-.004-.002-.004-.002-.004-.002-.012-.006-.008-.004-.004-.001-.008-.004-.004-.002-.004-.002-.004-.001-.004-.002-.004-.002-.004-.002-.004-.001-.004-.002-.004-.002-.004-.001-.013-.005-.004-.001-.004-.002-.004-.002-.004-.001-.004-.002-.005-.001-.004-.002-.003-.001-.009-.003-.008-.003-.004-.001-.004-.001-.004-.002-.005-.001-.004-.002h-.004l-.004-.002-.004-.002-.013-.003-.008-.002-.005-.002h-.004l-.004-.002h-.005l-.004-.002h-.004l-.008-.003-.005-.001-.008-.002-.005-.001h-.004l-.004-.002-.022-.004-.013-.003-.017-.002h-.004l-.005-.002h-.008l-.005-.001h-.004l-.004-.001h-.004l-.005-.001h-.004l-.004-.001h-.005l-.004-.001-.009-.001h-.008l-.005-.001h-.004l-.021-.002h-.019l-.008-.001h-.017l-.004-.001h-.025zm1.758 2.968c0-.91-.768-1.648-1.713-1.648-.946 0-1.714.738-1.714 1.648 0 .91.768 1.649 1.714 1.649.945 0 1.713-.739 1.713-1.649z"
    fill="#fff"
  ></path>
</svg>
