<svg viewBox="0 0 24 24" xmlns="http://www.w3.org/2000/svg">
  <path
    d="M1 1.026h22v21.948H1V1.026zM0 24h24V0H0v24zM15.72 8.554c0-.082.03-.123.12-.123h1.57c.08 0 .12.03.12.123v8.092c0 .082-.02.123-.12.123h-1.55c-.1 0-.13-.051-.13-.133V8.554h-.01zm-.11-2.328c0-.657.45-1.047 1.02-1.047.61 0 1.02.421 1.02 1.047 0 .677-.43 1.046-1.04 1.046-.58 0-1-.37-1-1.046zm-4.5 5.702c-.28-1.138-.94-3.62-1.19-4.82H9.9c-.21 1.2-.74 3.23-1.16 4.82h2.37zM8.33 13.59l-.79 3.077c-.02.082-.05.102-.15.102H5.92c-.1 0-.12-.03-.1-.154L8.66 6.42c.05-.184.08-.348.1-.85 0-.073.03-.103.08-.103h2.1c.07 0 .1.02.12.102l3.18 11.067c.02.082 0 .133-.08.133H12.5c-.08 0-.13-.02-.15-.092l-.82-3.087h-3.2z"
    fill="#fff"
  ></path>
</svg>
