<svg viewBox="0 0 24 24" xmlns="http://www.w3.org/2000/svg">
  <path
    d="M1 1.026h22v21.948H1V1.026zM0 24h24V0H0v24zM15.18 9.97c-.15-.073-.35-.103-.59-.103-1.29 0-2.19 1.015-2.19 2.707 0 1.928.92 2.708 2.07 2.708.25 0 .51-.03.71-.123v-5.19zm-.53-1.673c.21 0 .33 0 .53.02V5.59c0-.072.05-.103.1-.103h1.62c.08 0 .1.03.1.082v9.59c0 .287 0 .646.05 1.036 0 .072-.02.082-.09.123-.86.42-1.77.605-2.62.605-2.21 0-3.79-1.405-3.79-4.267-.01-2.45 1.57-4.359 4.1-4.359zm-5.87 8.339c0 .102-.02.133-.13.133H7.11c-.1 0-.13-.051-.13-.133V5.62c0-.102.05-.133.13-.133h1.55c.08 0 .12.03.12.123v11.026z"
    fill="#fff"
  ></path>
</svg>
