<svg viewBox="0 0 24 24" xmlns="http://www.w3.org/2000/svg">
  <path
    d="M24 12.562c0-1.932-.49-3.747-1.35-5.324C26.315-1.212 18.72.026 18.297.11c-1.61.32-3.098.836-4.471 1.488a10.667 10.667 0 00-.612-.018C8.09 1.58 3.8 5.22 2.703 10.1c2.7-3.086 4.591-4.331 5.723-4.83-.18.165-.358.331-.532.499l-.17.168c-.115.112-.23.225-.341.338l-.197.204c-.1.102-.198.205-.295.309l-.204.22a27.086 27.086 0 00-1.15 1.334 31.647 31.647 0 00-.41.514l-.2.258-.183.245c-.07.092-.139.185-.206.276l-.14.196a34.078 34.078 0 00-1.168 1.731l-.002.004a35 35 0 00-.27.435l-.014.024c-.088.144-.173.285-.255.425l-.009.015c-.222.377-.427.74-.613 1.082-.971 1.793-1.444 3.045-1.464 3.12-3.068 11.166 6.505 6.45 7.841 5.747a10.584 10.584 0 004.771 1.13c4.69 0 8.68-3.048 10.165-7.304h-5.667c-.839 1.442-2.453 2.42-4.308 2.42-2.717 0-4.92-2.097-4.92-4.683h15.426c.059-.463.089-.936.089-1.415zM21.985 1.755c.929.639 1.674 1.64.395 5.017a10.87 10.87 0 00-5.267-4.452c.998-.49 3.47-1.529 4.872-.565zM2.248 22.391c-.756-.79-.89-2.714.78-6.22a10.973 10.973 0 004.695 5.845c-1.08.605-3.949 1.969-5.475.375zm6.214-11.417c.086-2.514 2.234-4.526 4.874-4.526 2.639 0 4.787 2.012 4.873 4.526H8.462z"
    fill="#fff"
  ></path>
</svg>
