<svg viewBox="0 0 24 24" xmlns="http://www.w3.org/2000/svg">
  <path
    fill-rule="evenodd"
    clip-rule="evenodd"
    d="M2.176 0h19.648C23.026 0 24 .974 24 2.176v19.648A2.176 2.176 0 0121.824 24H2.176A2.176 2.176 0 010 21.824V2.176C0 .974.974 0 2.176 0zm7.31 6.106a1.45 1.45 0 01-1.465 1.445 1.45 1.45 0 01-1.466-1.445c0-.819.668-1.444 1.466-1.444.798 0 1.466.625 1.466 1.444zM4.852 16.373c0-.323.044-.72.13-1.086l1.1-4.492H4.376l.518-1.909H8.99l-1.617 6.415c-.108.41-.151.75-.151.987 0 .41.202.53.518.601.192.043 1.724.013 2.558-1.841l1.062-4.253H9.636l.518-1.909h3.687l-.474 2.168c.646-1.208 1.94-2.355 3.212-2.355 1.358 0 2.48.967 2.48 2.822 0 .474-.065.99-.238 1.572l-.69 2.479c-.064.259-.108.474-.108.668 0 .431.173.647.496.647.324 0 .733-.238 1.208-1.553l.948.367c-.56 1.962-1.573 2.78-2.846 2.78-1.487 0-2.199-.883-2.199-2.09 0-.345.043-.712.151-1.078l.712-2.545c.086-.28.108-.539.108-.776 0-.819-.496-1.315-1.294-1.315-1.014 0-1.682.728-2.027 2.129L11.9 18.34H9.486l.433-1.74c-.71 1.166-1.695 1.889-2.911 1.889-1.467 0-2.157-.845-2.157-2.117z"
    fill="#fff"
  ></path>
</svg>
