<svg viewBox="0 0 24 24" xmlns="http://www.w3.org/2000/svg">
  <path
    fill-rule="evenodd"
    clip-rule="evenodd"
    d="M24 0H0v24h24V0zM8.147 18.945l-1.836 1.111c.531 1.128 1.578 2.062 3.383 2.062 1.997 0 3.367-1.063 3.367-3.4v-7.7h-2.256v7.669c0 1.127-.467 1.417-1.208 1.417-.773 0-1.096-.531-1.45-1.16zm7.975-.194l-1.836 1.063c.66 1.305 2.013 2.304 4.108 2.304 2.142 0 3.737-1.111 3.737-3.141 0-1.885-1.08-2.723-2.996-3.544l-.564-.242c-.967-.419-1.386-.693-1.386-1.37 0-.547.42-.966 1.08-.966.644 0 1.063.274 1.45.967l1.756-1.128c-.741-1.305-1.772-1.805-3.206-1.805-2.014 0-3.303 1.29-3.303 2.98 0 1.837 1.08 2.707 2.707 3.4l.564.242c1.03.45 1.643.725 1.643 1.498 0 .644-.596 1.112-1.53 1.112-1.112 0-1.74-.58-2.224-1.37z"
    fill="#fff"
  ></path>
</svg>
