<svg viewBox="0 0 24 24" xmlns="http://www.w3.org/2000/svg">
  <path
    fill-rule="evenodd"
    clip-rule="evenodd"
    d="M4.195 9.111v3.453c0 .28-.045.553-.187.8a1.363 1.363 0 01-1.04.682c-.621.088-1.231-.005-1.822-.19-.366-.117-.72-.276-1.08-.412C0 13.417 0 13.371 0 13.315V5.961c.01-1.373.96-2.56 2.298-2.874a3.66 3.66 0 01.755-.082c1.406-.005 2.813 0 4.218 0h.122v.122c0 4.974.005 9.947-.005 14.921a2.96 2.96 0 01-2.396 2.885 3.42 3.42 0 01-.655.061C2.934 21 1.531 20.998.13 21H.01v-6.307c.276.055.548.123.825.161.509.068 1.02.139 1.531.17.465.029.936.027 1.4.003.676-.034 1.338-.154 1.94-.489.661-.367 1.026-.932 1.068-1.686.028-.472.02-.947.021-1.42.003-.731 0-1.462.003-2.193 0-.102-.025-.134-.13-.132-.783.004-1.566.003-2.348.004h-.124zM8.306 20.995v-6.898c.021.009.037.013.048.022.546.438 1.184.66 1.859.788.879.167 1.764.177 2.651.106.64-.058 1.276-.16 1.901-.308.076-.015.107-.04.107-.123-.006-.349-.003-.699-.003-1.047v-.12l-.1.043c-.596.29-1.219.5-1.88.581-.582.073-1.158.074-1.71-.151-.68-.278-1.051-.795-1.152-1.512a2.47 2.47 0 01.094-1.154c.225-.661.704-1.038 1.364-1.211.468-.12.938-.11 1.412-.05a5.91 5.91 0 011.937.61c.005.002.012 0 .028 0 .003-.027.007-.056.007-.084 0-.358-.001-.718.001-1.077 0-.064-.015-.096-.082-.113-1.1-.255-2.212-.393-3.343-.34-.715.03-1.422.123-2.099.374-.351.13-.68.302-.974.538l-.07.046v-3.92a2.983 2.983 0 013.012-2.99c1.427-.008 2.853-.004 4.28-.004.03 0 .059.003.099.006.003.042.005.082.005.122 0 4.985.009 9.968-.007 14.953-.003 1.13-.565 1.975-1.537 2.542a2.846 2.846 0 01-1.457.376h-4.29l-.101-.005zM16.617 20.998v-6.11h.132c1.534 0 3.07.006 4.604 0 .466 0 .906-.117 1.283-.408a1.336 1.336 0 00-.166-2.264 2.481 2.481 0 00-1.007-.29c.17-.05.33-.086.478-.148.45-.186.757-.502.86-.992a1.275 1.275 0 00-.633-1.394c-.38-.216-.795-.28-1.222-.28-1.397-.004-2.793 0-4.189 0h-.146V5.98a2.987 2.987 0 012.995-2.976c1.43 0 2.858.004 4.288.003.113 0 .106.056.106.133v14.78c-.006 1.101-.458 1.973-1.373 2.592-.398.27-.845.427-1.327.462-.266.016-.534.023-.8.021l-3.883.003z"
    fill="#fff"
  ></path>
  <path
    d="M18.079 13.933v-1.559c.034-.001.067-.005.1-.005.544 0 1.088-.002 1.633.001.388.003.684.22.778.56.142.517-.193.992-.737 1.01-.582.019-1.163.003-1.746.003-.005 0-.011-.004-.028-.011v.001zm.003-2.468v-1.446c.032-.001.06-.005.09-.005.488 0 .976-.005 1.462.004.128.002.255.027.373.076.31.135.457.45.397.798a.688.688 0 01-.666.567c-.547.018-1.096.006-1.656.006z"
    fill="#fff"
  ></path>
</svg>
