<svg viewBox="0 0 24 24" xmlns="http://www.w3.org/2000/svg">
  <path
    d="M21.274 16.174a3.277 3.277 0 01-1.624 2.268c-.806.461-1.773.6-2.797.745-.548.078-1.115.159-1.669.294-1.464.356-2.883 1.052-4.255 1.725-2.745 1.348-5.116 2.51-7.351.98-1.638-1.12-1.562-3.195-1.372-4.332.177-1.053.655-2.023 1.117-2.96.08-.163.159-.322.235-.48.229.09.473.152.727.18-.471 1.534.269 3.202 1.822 3.99l.213.108.225-.079a9.589 9.589 0 003.363-2.06 10.387 10.387 0 001.665-1.988c.137.02.277.031.42.031 1.426 0 2.607-1.053 2.79-2.412a25.382 25.382 0 011.79 0c.182 1.36 1.363 2.412 2.788 2.412.596 0 1.149-.184 1.604-.498.317.64.435 1.359.309 2.076zm-16.676-6.03a1.7 1.7 0 011.71 1.689c0 .334-.1.646-.27.909a1.713 1.713 0 01-1.44.779 1.72 1.72 0 01-1.484-.853 1.661 1.661 0 01-.225-.835 1.7 1.7 0 011.71-1.689zm5.686 1.673a1.698 1.698 0 011.71-1.689 1.713 1.713 0 011.548.974 1.66 1.66 0 01.114 1.107 1.706 1.706 0 01-1.662 1.296c-.342 0-.66-.1-.927-.27a1.683 1.683 0 01-.783-1.418zm7.134-2.008a2.775 2.775 0 00-.774 1.286 26.517 26.517 0 00-1.933 0 2.78 2.78 0 00-.848-1.353l1.769-3.533 1.786 3.6zM9.8 1.091h11.659l-2.754 8.023a2.82 2.82 0 00-.349.107l-2.72-5.482-2.728 5.449a2.824 2.824 0 00-.364-.097l-2.744-8zm11.27 10.726c0 .169-.025.332-.073.487a1.713 1.713 0 01-1.636 1.201c-.79 0-1.455-.531-1.65-1.25a1.664 1.664 0 01.235-1.382 1.713 1.713 0 011.575-.737c.868.08 1.55.803 1.55 1.68zm1.105 0c0-1.357-.99-2.49-2.294-2.731L23 0H8.259l3.123 9.104c-1.258.277-2.202 1.388-2.202 2.713 0 .995.532 1.869 1.33 2.36a9.346 9.346 0 01-1.36 1.582 8.543 8.543 0 01-2.742 1.74c-1-.62-1.424-1.791-.985-2.811l.035-.08.064-.15a2.787 2.787 0 001.89-2.625c0-1.533-1.262-2.78-2.814-2.78-1.551 0-2.814 1.247-2.814 2.78 0 .773.322 1.474.84 1.978-.093.198-.192.399-.294.605-.473.96-1.01 2.05-1.213 3.26-.404 2.402.247 4.322 1.831 5.407.962.658 1.938.917 2.92.917 1.85 0 3.722-.918 5.553-1.816 1.318-.647 2.681-1.316 4.028-1.644.5-.122 1.016-.195 1.562-.273 1.082-.154 2.201-.314 3.193-.88 1.149-.658 1.936-1.761 2.158-3.027a4.459 4.459 0 00-.6-3.097 2.73 2.73 0 00.413-1.446z"
    fill="#fff"
  ></path>
</svg>
