<svg viewBox="0 0 24 24" xmlns="http://www.w3.org/2000/svg">
  <path
    fill-rule="evenodd"
    clip-rule="evenodd"
    d="M7.64 9.612v6.443l-2.899 3.674a1.328 1.328 0 00-.115 1.74 1.328 1.328 0 001.7.368l16.032-6.178.04-.017a2.62 2.62 0 001.6-2.51 2.614 2.614 0 00-1.379-2.201 2.623 2.623 0 00-2.598.069l-3.79 2.154V7.98H9.43L3.122 2.503A1.853 1.853 0 00.045 4.255a1.849 1.849 0 00.918 1.217l6.678 4.14zm2.599 6.948l-.762.434.263-.434h.499zm.407-4.873l.22.32.523-1.238h.373l.597 1.41h-.416l-.1-.253H11.3l-.1.252h-.406l.002-.003h-.26l-.282-.424h-.168v.424h-.388v-1.396h.655a.619.619 0 01.457.15.438.438 0 01.124.326.442.442 0 01-.288.432zm.957 3.264H8.382v.537h3.22v-.537zm-3.008-4.947l-.249.236a.573.573 0 00.492.235.527.527 0 00.384-.141.52.52 0 00.138-.394v-.886h-.386v.884a.168.168 0 01-.158.196.284.284 0 01-.22-.13zm1.98-.95H9.45v1.406h1.137v-.337h-.753v-.222h.673v-.306h-.673v-.213h.742v-.328zm.091.34h.42v1.06h.387v-1.06h.42v-.337h-1.227v.337zM9.1 10.779h-.72v1.384h.722c.335 0 .53-.145.53-.385a.336.336 0 00-.277-.336.323.323 0 00.215-.311.314.314 0 00-.089-.227.522.522 0 00-.382-.125zm-.078.313c.106 0 .169.042.169.12l.006.005c0 .08-.067.12-.185.12h-.244v-.245h.254zm-.262.516h.296c.131 0 .19.046.189.13 0 .082-.066.128-.185.128h-.3v-.258zm1.656-.155a.17.17 0 01-.077-.001h-.257v-.336h.255a.17.17 0 01.21.168.168.168 0 01-.131.169zm2.376-.674h-.387v1.4h.387v-1.4zm.46 0h-.36v1.4h.383v-.768l.6.767h.337V10.78h-.384v.74l-.576-.74zm1.199.934l-.216.257a.986.986 0 00.664.232c.34 0 .565-.17.565-.456 0-.267-.2-.365-.52-.435-.195-.044-.244-.073-.244-.137 0-.05.045-.089.14-.089a.687.687 0 01.392.138l.194-.274a.882.882 0 00-.576-.185c-.337 0-.542.188-.542.447 0 .286.23.37.528.438.192.047.238.075.238.136 0 .06-.063.096-.168.096a.726.726 0 01-.455-.168zm-2.724-.09l-.157-.395-.158.395h.315z"
    fill="#fff"
  ></path>
</svg>
