<svg viewBox="0 0 24 24" xmlns="http://www.w3.org/2000/svg">
  <path
    d="M21.088 11.269c.009-.137.022-.273.022-.412C21.11 7.07 17.913 4 13.97 4c-2.844 0-5.292 1.6-6.44 3.91a3.363 3.363 0 00-2.014-.664c-1.819 0-3.293 1.417-3.293 3.163 0 .329.051.646.148.943C.953 12.162 0 13.644 0 15.343c0 2.541 2.125 4.602 4.761 4.642l.056.003h14.199c.086.004.17.012.258.012C21.883 20 24 17.968 24 15.46c0-1.889-1.202-3.508-2.912-4.191zm-14.645 5.22a2.711 2.711 0 01-.897-1.541c-.04-.21-.06-.423-.06-.637 0-.862.32-1.574.965-2.135.643-.562 1.462-.843 2.456-.843 1.02 0 1.982.373 2.831 1.117.212.186.417.395.614.627l1.093 1.252c.189.253.392.47.601.655.561.491 1.17.737 1.684.737.438 0 .802-.13 1.097-.392.256-.239.4-.524.433-.854l.006-.144c0-.144-.02-.28-.063-.407a1.345 1.345 0 00-.384-.573c-.29-.27-.656-.404-1.1-.404-.544 0-1.083.18-1.674.738l-.967-1.11-.118-.128c.846-.808 1.69-1.112 2.827-1.112 1.007 0 1.823.28 2.447.836l.014.011c.634.556.952 1.275.952 2.157 0 .218-.02.427-.06.625a2.698 2.698 0 01-.895 1.527c-.47.421-1.042.685-1.717.79a4.632 4.632 0 01-.711.052c-1.043 0-2.008-.364-2.838-1.09a5.534 5.534 0 01-.642-.67l-1.093-1.244a4.138 4.138 0 00-.592-.648c-.56-.49-1.177-.735-1.705-.735-.164 0-.318.019-.461.056a1.44 1.44 0 00-.627.344 1.313 1.313 0 00-.44.982c0 .378.14.702.42.97l.02.02c.301.268.67.401 1.107.401.55 0 1.091-.18 1.68-.743l.963 1.096.107.125c-.879.818-1.714 1.127-2.807 1.126-1.007 0-1.829-.278-2.466-.835z"
    fill="#fff"
  ></path>
</svg>
