<svg viewBox="0 0 24 24" xmlns="http://www.w3.org/2000/svg">
  <path
    d="M2.818 12.55V9.92h.559v2.829a1.749 1.749 0 01-.367 1.282c-.264.233-.603.36-.952.354L2 13.96a.897.897 0 00.61-.24c.15-.179.208-.422.208-1.17zm4.169-.338c0 .32 0 .607.025.855h-.497l-.033-.509a1.17 1.17 0 01-.43.43c-.178.103-.38.155-.584.151-.484 0-1.06-.269-1.06-1.367V9.948h.56v1.709c0 .594.179.99.684.99a.763.763 0 00.56-.233.8.8 0 00.228-.574V9.926H7v2.269l-.013.017zm1.06-1.248c0-.397 0-.722-.026-1.017h.501l.025.534c.112-.193.272-.351.465-.458a1.19 1.19 0 01.628-.149c.743 0 1.302.637 1.302 1.586 0 1.12-.672 1.675-1.398 1.675a1.059 1.059 0 01-.536-.119 1.09 1.09 0 01-.41-.373v1.71h-.552v-3.389zm.55.833c.002.078.01.155.025.231.048.19.155.358.306.478.152.12.337.185.529.184.588 0 .934-.491.934-1.205 0-.623-.325-1.158-.914-1.158a.95.95 0 00-.612.298.995.995 0 00-.268.638v.534zm3.34-1.853l.673 1.842c.07.205.146.453.196.636.058-.188.12-.427.196-.649l.609-1.829h.588l-.834 2.222c-.418 1.068-.672 1.62-1.056 1.953-.193.18-.429.307-.684.367l-.138-.478c.179-.06.344-.155.488-.278.204-.17.365-.386.472-.632a.434.434 0 00.046-.137.501.501 0 00-.038-.15L11.32 9.936h.61l.008.008zm3.746-.896v.897h.801v.427h-.8v1.684c0 .385.107.607.416.607.11.002.22-.011.326-.039l.025.428c-.16.056-.328.082-.497.076a.759.759 0 01-.605-.239 1.17 1.17 0 01-.217-.812v-1.709h-.475v-.427h.484v-.76l.542-.133zm1.83 2.557a1.027 1.027 0 00.285.79.978.978 0 00.771.291c.287.007.57-.048.835-.162l.096.427a2.449 2.449 0 01-1.022.193 1.387 1.387 0 01-1.109-.431 1.484 1.484 0 01-.402-1.142c0-.94.547-1.683 1.44-1.683 1 0 1.251.897 1.251 1.47.006.088.006.176 0 .264h-2.157l.013-.017zm1.636-.427a.825.825 0 00-.183-.642.791.791 0 00-.593-.28.914.914 0 00-.602.291.956.956 0 00-.253.631h1.631zm1.357-.262c0-.368 0-.684-.025-.974h.501v.61h.025a.946.946 0 01.31-.477.91.91 0 01.524-.206.595.595 0 01.159 0v.534a.81.81 0 00-.192 0 .77.77 0 00-.507.22.807.807 0 00-.24.507 1.613 1.613 0 00-.025.264v1.663h-.55V10.92l.02-.004zM20.262 1.36a1.48 1.48 0 01-.192.822 1.428 1.428 0 01-.606.572 1.385 1.385 0 01-1.56-.229 1.456 1.456 0 01-.426-.723 1.483 1.483 0 01.04-.843c.096-.27.267-.506.494-.676a1.39 1.39 0 01.777-.28A1.368 1.368 0 0119.8.367a1.459 1.459 0 01.46.993zM12.012 18.096c-3.755 0-7.055-1.38-8.76-3.418a9.54 9.54 0 003.422 4.532 9.188 9.188 0 005.338 1.716 9.189 9.189 0 005.338-1.716 9.54 9.54 0 003.423-4.533c-1.702 2.039-4.99 3.419-8.76 3.419zM12.012 4.842c3.755 0 7.055 1.38 8.761 3.419a9.54 9.54 0 00-3.423-4.533 9.189 9.189 0 00-5.338-1.716 9.189 9.189 0 00-5.338 1.716 9.54 9.54 0 00-3.423 4.533c1.706-2.043 4.99-3.419 8.761-3.419zM6.843 22.062a1.86 1.86 0 01-.24 1.034 1.798 1.798 0 01-.762.722 1.744 1.744 0 01-1.967-.286 1.833 1.833 0 01-.536-.91 1.875 1.875 0 01.05-1.062c.12-.34.335-.638.62-.853.285-.215.625-.338.979-.354a1.727 1.727 0 011.274.46 1.842 1.842 0 01.583 1.248zM3.678 4.378a1.008 1.008 0 01-.573-.16 1.044 1.044 0 01-.391-.459 1.074 1.074 0 01.185-1.15 1.01 1.01 0 011.107-.267c.19.072.355.2.474.367.119.168.187.368.195.575.008.28-.092.552-.28.757a1.028 1.028 0 01-.717.337z"
    fill="#fff"
  ></path>
</svg>
