<svg viewBox="0 0 24 24" xmlns="http://www.w3.org/2000/svg">
  <path
    d="M15.042 19.5c-.188-.27-2.628-4.494-2.628-4.494l7.95-2.069c.198-.062.261-.104.386.094s2.625 3.594 2.698 3.709c.073.114.146.187-.083.27-.23.084-7.73 2.615-7.875 2.677-.146.063-.26.084-.448-.187zM24 16.042c-.745-1.004-1.799-2.415-2.472-3.316.446-.12 1.578-.42 2.472-.659v3.975zM21.52 7.83c.122-.028.228-.061.379.145.125.171 1.57 2.003 2.101 2.676v.434a706.317 706.317 0 00-3.14.773l-2.387-3.276c-.067-.095-.123-.19.044-.212.167-.022 2.88-.512 3.003-.54zM4.449 2.684c-.411.02-2.738.208-4.208.329A4.42 4.42 0 011.32 1.32C2.2.44 3.26 0 4.5 0h15c1.24 0 2.3.44 3.18 1.32C23.56 2.2 24 3.26 24 4.5v5.071c-.707-.88-1.461-1.818-1.683-2.086-.435-.524-.647-.43-.914-.39-.268.039-3.387.562-3.75.624-.362.06-.59.206-.367.518.198.277 2.249 3.185 2.7 3.825l-8.153 1.954L5.348 3.174c-.258-.383-.311-.516-.899-.49zM15.777 20.96c.463-.14 6.382-2.265 8.223-2.939v1.48c0 1.24-.44 2.3-1.32 3.18-.88.88-1.94 1.32-3.18 1.32h-15c-1.24 0-2.3-.44-3.18-1.32C.44 21.8 0 20.74 0 19.5V6.905c1.62 3.516 4.163 8.997 4.263 9.221.142.32.512.84 1.38.632.888-.213 3.968-1.017 5.651-1.458.89 1.61 2.704 4.878 3.04 5.346.447.625.755.521 1.443.313zM5.664 15.496c-.244.055-.244.028-.272-.056C5.366 15.363.8 5.945.004 4.316c.006-.17.02-.337.043-.5.784-.065 4.17-.367 4.303-.374.15-.008.135.023.19.118l6.087 10.509c.105.18.042.236-.055.257-.098.021-4.665 1.114-4.908 1.17z"
    fill="#fff"
  ></path>
</svg>
