<svg viewBox="0 0 24 24" xmlns="http://www.w3.org/2000/svg">
  <path
    d="M12 9.923a2.077 2.077 0 110 4.154 2.077 2.077 0 010-4.154zM4.923 12a7.077 7.077 0 1114.113.765c-.054.69.452 1.216 1.138 1.216 1.163 0 1.287-1.5 1.287-1.981A9.461 9.461 0 0012 2.538 9.461 9.461 0 002.538 12 9.461 9.461 0 0012 21.46a9.438 9.438 0 007.002-3.096l1.945 1.633A11.972 11.972 0 0112 24C5.372 24 0 18.627 0 12 0 5.372 5.372 0 12 0s12 5.372 12 12c0 2.664-1.268 4.827-3.816 4.827-1.122 0-1.803-.514-2.175-1.087A7.077 7.077 0 014.923 12zM12 7.46a4.538 4.538 0 100 9.077 4.538 4.538 0 000-9.077z"
    fill="#fff"
  ></path>
</svg>
