<svg viewBox="0 0 24 24" xmlns="http://www.w3.org/2000/svg">
  <path
    d="M14 8.607l1-1.083c.29-.314.565-.59.826-.825.26-.236.522-.479.783-.73.58-.534 1.057-.911 1.435-1.131.376-.22.739-.33 1.087-.33.492 0 .934.197 1.325.589.392.393.587.84.587 1.343 0 .377-.094.762-.282 1.154-.189.394-.53.935-1.022 1.626-2.26 3.204-3.391 5.277-3.391 6.22 0 .409.188.612.565.612.29 0 .609-.133.957-.4.347-.267.796-.73 1.347-1.39.29-.346.645-.817 1.066-1.414.42-.596.789-1.146 1.108-1.649.32-.502.587-.848.805-1.037.217-.188.47-.282.76-.282.29 0 .537.11.74.33.202.22.304.487.304.8 0 .598-.254 1.39-.76 2.38-.508.99-1.168 2.003-1.98 3.04-1.014 1.319-2.05 2.34-3.108 3.062-1.058.723-2.022 1.084-2.891 1.084-.812 0-1.478-.29-2-.872-.522-.58-.783-1.326-.783-2.238 0-.471.036-.919.109-1.343.072-.424.18-.864.326-1.32.145-.454.348-.942.609-1.46a18.75 18.75 0 011-1.72c.028-.062.101-.188.217-.377-.754.629-1.5 1.422-2.239 2.38-.74.958-1.486 2.19-2.24 3.699-.55 1.005-.97 1.672-1.26 2.002-.29.33-.652.495-1.087.495-.464 0-.848-.18-1.152-.542-.305-.36-.457-.808-.457-1.343 0-.345.036-.683.109-1.013.072-.33.224-.777.457-1.343.144-.44.332-.919.565-1.437.231-.518.435-.919.608-1.201l.827-1.556c.057-.062.144-.219.26-.47a16.223 16.223 0 00-1.695 1.72 34.217 34.217 0 00-1.587 2.002c-.508.691-.957 1.39-1.348 2.097-.391.706-.717 1.39-.978 2.05-.348.88-.66 1.467-.935 1.766-.275.299-.63.448-1.065.448-.435 0-.797-.189-1.087-.565C.145 20.058 0 19.57 0 18.974c0-1.194.537-3.251 1.609-6.173a43.887 43.887 0 011.978-4.618C4.297 6.77 5 5.561 5.695 4.555c.406-.565.754-.966 1.044-1.201A1.48 1.48 0 017.696 3c.376 0 .702.141.978.424.275.283.413.629.413 1.037 0 .314-.065.644-.196.99-.13.345-.442.942-.935 1.79-.086.158-.217.4-.39.73-.175.33-.392.747-.653 1.249l-.478 1.037c.87-1.131 1.63-2.09 2.282-2.875.652-.785 1.225-1.413 1.718-1.884.492-.472.935-.817 1.326-1.037.391-.22.746-.33 1.065-.33.406 0 .754.15 1.044.448.289.299.434.667.434 1.107 0 .283-.058.597-.174.942-.116.346-.362.88-.739 1.602l-.913 1.791-.348.707.522-.613c.522-.596.971-1.1 1.348-1.508z"
    fill="#fff"
  ></path>
</svg>
