<svg viewBox="0 0 24 24" xmlns="http://www.w3.org/2000/svg">
  <path
    fill-rule="evenodd"
    clip-rule="evenodd"
    d="M0 0h24v24H0V0zm5.524 7.5a.624.624 0 01.203.527v7.126a.82.82 0 01-.218.707l-1.694 2.054v.271h4.803v-.27L6.924 15.86a.85.85 0 01-.233-.707V8.99l4.215 9.195h.49l3.62-9.195v7.33c0 .195 0 .232-.128.36l-1.302 1.265v.27h6.322v-.27l-1.257-1.235a.376.376 0 01-.143-.36V7.281a.376.376 0 01.143-.362l1.288-1.234v-.27h-4.457l-3.176 7.923-3.613-7.924H4.019v.271L5.524 7.5z"
    fill="#fff"
  ></path>
</svg>
