<svg viewBox="0 0 24 24" xmlns="http://www.w3.org/2000/svg">
  <path
    d="M5.77 18.576h-.926a49.682 49.682 0 00-.27-4.329h-.008l-1.41 4.33H2.45l-1.402-4.33H1.04a69.528 69.528 0 00-.197 4.33H0c.055-1.932.191-3.742.41-5.432h1.147l1.336 3.99h.009l1.344-3.99h1.098c.24 1.979.383 3.79.426 5.431zm4.017-4.007c-.377 2.008-.874 3.468-1.492 4.379C7.815 19.649 7.287 20 6.713 20a1.58 1.58 0 01-.565-.135v-.484c.11.015.238.024.385.024.268 0 .484-.073.648-.218.196-.176.295-.375.295-.595 0-.15-.077-.459-.23-.925L6.23 14.569h.91l.729 2.317c.164.526.232.893.205 1.103.399-1.046.677-2.186.836-3.42h.877zM13.843 17.07c0 .461-.172.84-.516 1.135-.344.295-.806.443-1.384.443-.541 0-1.066-.17-1.574-.508l.238-.466c.437.215.833.322 1.188.322.333 0 .594-.073.782-.217a.735.735 0 00.302-.603c0-.323-.23-.598-.65-.83-.388-.209-1.163-.645-1.163-.645-.42-.3-.631-.624-.631-1.156 0-.44.157-.795.47-1.066.315-.271.72-.407 1.218-.407.513 0 .98.135 1.401.403l-.214.466a2.757 2.757 0 00-1.065-.225c-.283 0-.502.067-.655.202a.667.667 0 00-.248.514c0 .322.234.601.666.837.393.209 1.188.654 1.188.654.432.3.647.62.647 1.148z"
    fill="#fff"
  ></path>
  <path
    fill-rule="evenodd"
    clip-rule="evenodd"
    d="M15.499 17.49c-.224-.354-.337-.923-.337-1.706 0-1.368.424-2.052 1.27-2.052.444 0 .769.164.976.49.224.355.336.918.336 1.69 0 1.38-.423 2.069-1.27 2.069-.443 0-.768-.164-.975-.491zm3.295 1.217l-1.017-.492c.09-.073.176-.152.254-.243.432-.498.648-1.236.648-2.212 0-1.797-.719-2.696-2.156-2.696-.705 0-1.254.228-1.647.684-.432.5-.648 1.234-.648 2.205 0 .955.191 1.655.574 2.1.348.402.875.603 1.58.603.264 0 .506-.031.725-.095l1.325.756.362-.61z"
    fill="#fff"
  ></path>
  <path
    d="M22.113 18.576h-2.63v-5.431h.885v4.763h1.745v.668z"
    fill="#fff"
  ></path>
  <path
    fill-rule="evenodd"
    clip-rule="evenodd"
    d="M23.225 11.326c-.536-.014-.95.039-1.297.183-.1.04-.26.04-.275.164.054.053.06.138.108.21.08.132.22.309.347.4.14.106.281.21.428.302.26.158.555.25.809.407.147.092.294.21.441.309.074.052.12.138.214.17v-.02c-.047-.058-.06-.144-.107-.21-.067-.065-.134-.124-.2-.19a3.158 3.158 0 00-.696-.662c-.214-.145-.682-.342-.768-.584l-.014-.013c.147-.014.321-.066.462-.106.227-.059.434-.046.668-.104.107-.027.214-.06.321-.092v-.06c-.12-.117-.207-.275-.334-.387a8.945 8.945 0 00-1.103-.807c-.208-.131-.475-.216-.696-.328-.08-.04-.213-.059-.26-.125-.12-.144-.188-.334-.275-.505-.193-.36-.38-.76-.548-1.142-.12-.256-.194-.512-.34-.748-.69-1.116-1.438-1.791-2.588-2.454-.247-.138-.541-.197-.855-.27-.168-.006-.335-.019-.502-.025-.107-.047-.214-.171-.307-.23-.382-.237-1.364-.748-1.645-.072-.18.426.268.846.422 1.063.113.15.26.321.34.492.047.111.06.23.107.348.107.288.207.61.348.88.073.137.154.282.247.406.054.072.147.105.168.223-.094.131-.101.328-.155.492-.24.742-.147 1.66.194 2.205.107.164.362.525.703.387.3-.118.233-.492.32-.82.02-.08.007-.131.047-.184v.014c.093.183.187.36.274.544.208.321.568.656.87.88.16.118.286.32.487.393v-.02h-.013c-.04-.059-.1-.085-.154-.13a3.252 3.252 0 01-.348-.394 8.378 8.378 0 01-.748-1.195c-.107-.204-.2-.427-.288-.63-.04-.078-.04-.197-.107-.236-.1.144-.247.269-.32.446-.127.282-.14.63-.188.99-.027.008-.013 0-.027.014-.213-.053-.287-.269-.367-.452-.2-.467-.234-1.215-.06-1.753.046-.137.247-.57.167-.702-.04-.125-.174-.197-.248-.295a2.593 2.593 0 01-.24-.42c-.16-.368-.241-.775-.414-1.142-.08-.171-.221-.348-.335-.505-.127-.178-.267-.302-.367-.512-.034-.072-.08-.19-.027-.269.013-.053.04-.072.094-.086.086-.072.334.02.42.06.248.097.455.19.662.327.094.066.194.19.314.224h.14c.215.045.456.013.656.072.354.111.675.275.963.453a5.864 5.864 0 012.085 2.244c.08.15.114.289.187.446.14.322.315.65.455.965.14.308.274.623.475.88.1.137.501.21.682.281.133.06.34.112.461.184.227.137.454.295.668.446.107.08.441.243.462.375z"
    fill="#fff"
  ></path>
  <path
    fill-rule="evenodd"
    clip-rule="evenodd"
    d="M16.406 5.622c-.093 0-.185.01-.274.033v.013h.013c.054.105.147.178.214.27.053.105.1.21.154.314l.013-.013c.094-.065.14-.17.14-.328-.04-.046-.046-.092-.08-.138-.04-.065-.127-.098-.18-.15z"
    fill="#fff"
  ></path>
</svg>
