<svg viewBox="0 0 24 24" xmlns="http://www.w3.org/2000/svg">
  <path
    d="M13.676 0l-.017 10.608-.396-1.231v-.003l-.513 11.808c.504 1.566.773 2.402.776 2.405.004.004.29.023.638.042 1.05.058 2.35.18 3.338.316.228.031.425.047.437.035.011-.011.018-5.412.014-12L17.946 0h-4.27zM6 0v11.992c0 6.595.006 11.998.013 12.006.007.008.378-.03.824-.086a57.47 57.47 0 011.37-.152 65.923 65.923 0 012.041-.145c.048 0 .05-.27.057-5.079l.008-5.079.34 1.062c.053.164.07.215.12.375l.512-11.805-.176-.548-.788-2.454L10.293 0H6z"
    fill="#fff"
  ></path>
  <path
    d="M6 0v6.731l4.304 12.579.001-.774.008-5.079.34 1.062c1.896 5.909 2.914 9.077 2.92 9.084.004.004.29.023.637.042 1.05.057 2.351.18 3.338.316.229.03.425.047.437.035.008-.008.014-2.656.015-6.391l-4.284-13.57-.01 6.589-.396-1.232A12148.753 12148.753 0 0110.32.087L10.293 0H6z"
    fill="#fff"
  ></path>
  <path
    d="M10.313 13.464v-.007l.34 1.062c1.896 5.909 2.914 9.077 2.92 9.084.004.004.29.023.637.042 1.05.057 2.351.18 3.338.316.228.03.364.04.378.03l-4.22-13.37v.003l-.396-1.232A12148.753 12148.753 0 0110.32.087L10.293 0H6l4.313 13.464z"
    fill="#fff"
  ></path>
  <path
    d="M13.659 10.608l-.396-1.231v-.003l-.513 11.808c.504 1.566.773 2.402.776 2.405.004.004.29.023.638.042 1.05.058 2.35.18 3.338.316.228.031.425.047.437.035.011-.011.018-5.412.014-12L17.946 0h-4.27l-.017 10.608zM6 0v11.992c0 6.595.006 11.998.013 12.006.007.008.378-.03.824-.086a57.47 57.47 0 011.37-.152 65.923 65.923 0 012.041-.145c.048 0 .05-.27.057-5.079l.008-5.079.34 1.062c.053.164.07.215.12.375l.512-11.805-.176-.548-.788-2.454L10.293 0H6z"
    fill="#fff"
  ></path>
  <path
    d="M10.313 13.464v-.007l.34 1.062c1.896 5.909 2.841 9.084 2.847 9.09.004.005.364.017.71.036 1.05.057 2.351.18 3.338.316.228.03.364.04.378.03l-4.22-13.37v.003l-.396-1.232A12148.753 12148.753 0 0110.32.087L10.293 0H6l4.313 13.464z"
    fill="#fff"
  ></path>
</svg>
