<svg viewBox="0 0 24 24" xmlns="http://www.w3.org/2000/svg">
  <path
    fill-rule="evenodd"
    clip-rule="evenodd"
    d="M7.304 20.392a1.274 1.274 0 01-.132-.81H1.5L9.928 4.597l2.767 4.914.803-1.434-2.413-4.293C11.018 3.662 10.61 3 9.908 3c-.317 0-.772.139-1.142.795L.227 18.96c-.072.131-.425.82-.075 1.431.16.278.5.609 1.25.609h7.151c-.745 0-1.09-.326-1.25-.608zM23.746 18.96L16.729 6.474c-.072-.131-.477-.795-1.182-.795-.317 0-.772.136-1.142.793l-.907 1.606.807 1.434 1.25-2.235 6.94 12.304h-2.639a1.207 1.207 0 01-.11.73l-.022.045c-.355.611-1.122.644-1.272.644h4.129c.152 0 .917-.033 1.272-.644.158-.278.27-.745-.107-1.396z"
    fill="#fff"
  ></path>
  <path
    fill-rule="evenodd"
    clip-rule="evenodd"
    d="M19.724 20.356l.022-.045a1.207 1.207 0 00.11-.73 1.858 1.858 0 00-.23-.621L14.31 9.512l-.813-1.434-6.12 10.882a1.925 1.925 0 00-.206.621 1.274 1.274 0 00.125.81c.16.278.5.609 1.25.609h9.898c.158 0 .925-.033 1.28-.644zm-6.226-9.41l4.859 8.635H8.64l4.857-8.635z"
    fill="#fff"
  ></path>
</svg>
