<svg viewBox="0 0 24 24" xmlns="http://www.w3.org/2000/svg">
  <path
    d="M19.029 1.81C17.936.543 15.96 0 13.433 0H6.1c-.517 0-.956.382-1.037.9L2.008 20.598c-.06.388.235.74.622.74h4.528l1.137-7.335-.035.23c.08-.519.517-.901 1.033-.901h2.152c4.227 0 7.537-1.746 8.503-6.797.03-.149.054-.294.075-.436-.122-.066-.122-.066 0 0 .288-1.867-.001-3.138-.994-4.288z"
    fill="#fff"
  ></path>
  <path
    d="M10.028 5.425a.908.908 0 01.396-.09h5.75c.68 0 1.316.044 1.896.14a7.85 7.85 0 011.158.28c.286.098.551.21.795.343.288-1.867-.001-3.138-.994-4.288C17.936.543 15.96 0 13.433 0H6.1c-.517 0-.956.382-1.037.9L2.008 20.598c-.06.388.235.74.622.74h4.528l2.36-15.215a.933.933 0 01.51-.697z"
    fill="#fff"
  ></path>
  <path
    d="M20.31 6.837C19 12 16 13.5 11.807 13.633H9.654c-.516 0-.952.383-1.032.901l-1.415 9.12a.558.558 0 00.544.648h3.817a.923.923 0 00.906-.788l.038-.197.719-4.637.046-.256a.923.923 0 01.907-.788h.571c3.698 0 6.593-1.528 7.44-5.946.352-1.846.17-3.387-.765-4.47a3.654 3.654 0 00-1.045-.82 12.4 12.4 0 01-.075.437z"
    fill="#fff"
  ></path>
</svg>
