<svg viewBox="0 0 24 24" xmlns="http://www.w3.org/2000/svg">
  <path
    d="M1 1.026h22v21.948H1V1.026zM0 24h24V0H0v24zM16.18 9.846c-.79 0-1.06.41-1.06.749 0 .37.18.625 1.24 1.19 1.57.78 2.06 1.528 2.06 2.625 0 1.641-1.22 2.523-2.87 2.523-.87 0-1.62-.184-2.05-.44-.07-.031-.08-.083-.08-.165V14.82c0-.102.05-.133.12-.082.63.421 1.35.606 2.01.606.79 0 1.12-.339 1.12-.8 0-.37-.23-.698-1.24-1.231-1.42-.698-2.01-1.405-2.01-2.585 0-1.323 1.01-2.42 2.76-2.42.86 0 1.46.133 1.79.287.08.051.1.133.1.205v1.405c0 .082-.05.133-.15.103-.44-.287-1.09-.462-1.74-.462zm-8.6 1.22c.23.021.41.021.81.021 1.17 0 2.27-.42 2.27-2.051 0-1.303-.79-1.96-2.12-1.96-.4 0-.78.021-.96.032v3.959zM5.8 5.62c0-.071.14-.123.22-.123.64-.03 1.59-.05 2.58-.05 2.77 0 3.85 1.558 3.85 3.548 0 2.605-1.84 3.723-4.1 3.723-.38 0-.51-.02-.78-.02v3.938c0 .082-.03.123-.12.123H5.92c-.08 0-.12-.03-.12-.123V5.62z"
    fill="#fff"
  ></path>
</svg>
