<svg viewBox="0 0 24 24" xmlns="http://www.w3.org/2000/svg">
  <path
    fill-rule="evenodd"
    clip-rule="evenodd"
    d="M24 12c0 3.314-5.373 6-12 6S0 15.314 0 12s5.373-6 12-6 12 2.686 12 6zM10.622 7.747h1.369l-.329 1.596h1.22c.768 0 1.293.125 1.584.384.29.258.375.668.262 1.239l-.572 2.8H12.77l.543-2.666c.066-.304.038-.509-.065-.616-.103-.107-.338-.169-.684-.169h-1.097l-.704 3.45H9.394l1.228-6.018zm-3.61 2.55c.526 0 .872.09 1.05.276.179.188.216.5.122.946-.093.463-.28.802-.553.998-.272.196-.684.294-1.237.294h-.835l.516-2.514h.938zm-3.356 5.064h1.378l.329-1.596h1.18c.526 0 .948-.053 1.285-.16.338-.107.638-.277.919-.526a2.69 2.69 0 00.562-.669c.141-.24.244-.508.3-.802.15-.713.038-1.266-.328-1.667-.365-.402-.947-.598-1.744-.598H4.884l-1.228 6.018zm15.16-4.788c-.178-.187-.525-.276-1.05-.276h-.938l-.515 2.514h.834c.553 0 .966-.098 1.237-.294.272-.196.46-.535.553-.998.094-.446.057-.758-.121-.946zm-3.028 4.788h-1.379l1.228-6.018h2.654c.796 0 1.378.196 1.743.598.366.4.479.954.329 1.667-.057.294-.16.561-.3.802-.141.24-.329.464-.563.669a2.48 2.48 0 01-.919.526c-.337.107-.76.16-1.284.16h-1.181l-.329 1.596z"
    fill="#fff"
  ></path>
</svg>
