<svg viewBox="0 0 24 24" xmlns="http://www.w3.org/2000/svg">
  <path
    d="M13.8.021c5.498-.325 9.858 3.14 10.181 8.506.365 6.105-4.645 12.362-11.194 13.98-2.267.555-4.388.492-6.23-.071-.134-2.41.35-4.92 1.413-6.674 1.733-2.859 4.357-2.614 5.86.543.565 1.188.891 2.62.986 4.095.524-.27 1.034-.575 1.52-.903-1.624-3.825-2.35-8.353 3.468-16.307-1.691-1.314-4.292-1.953-7.539-1.547.48-.544.99-1.087 1.535-1.622z"
    fill="#fff"
  ></path>
  <path
    d="M12.46 6.497c-.47.96-.28 1.75.421 1.765.7.012 1.65-.759 2.121-1.722.471-.96.285-1.751-.417-1.766-.702-.011-1.653.76-2.124 1.723zm-.476-2.726C7.066 9.622 4.978 17.222 5.27 24 2.368 22.873.241 20.155.02 16.71v-.04C-.348 10.56 4.673 4.3 11.23 2.687c2.548-.624 4.953-.458 6.962.339-.418 1.156-1.117 2.479-1.81 3.476-1.452 2.094-3.537 3.414-4.657 2.95-1.117-.465-.847-2.541.607-4.638a9.795 9.795 0 011.09-1.314c-.473.064-.953.153-1.44.27z"
    fill="#fff"
  ></path>
</svg>
