<svg viewBox="0 0 24 24" xmlns="http://www.w3.org/2000/svg">
  <path
    d="M18.591 16.979c1.943-.816 3.84-1.61 4.463-1.928.634-.323.943-.576.941-.803v2.334c0 .234-.288.49-.94.822-.624.318-2.522 1.114-4.466 1.93-2.042.856-4.137 1.735-4.86 2.103-1.413.719-2.197.712-3.313.191-.54-.252-2.47-1.033-4.464-1.84-2.127-.861-4.326-1.751-4.982-2.057-.636-.297-.97-.547-.97-.784v-2.363c0 .239.325.492.97.793.657.306 2.857 1.197 4.985 2.058 1.992.807 3.922 1.588 4.461 1.84 1.116.52 1.9.527 3.313-.192.723-.368 2.819-1.247 4.862-2.104z"
    fill="#fff"
  ></path>
  <path
    d="M0 14.584a.31.31 0 010-.004v.004zM18.592 13.148c1.943-.816 3.838-1.61 4.463-1.928.634-.323.942-.576.94-.803v2.334c0 .234-.288.49-.94.822-.624.318-2.52 1.113-4.463 1.929-2.044.857-4.14 1.736-4.863 2.104-1.413.719-2.197.712-3.313.191-.539-.251-2.466-1.031-4.457-1.837-2.13-.862-4.332-1.754-4.99-2.06-.635-.297-.969-.547-.969-.783v-2.364c0 .239.325.492.97.793.657.307 2.858 1.198 4.987 2.06 1.992.806 3.92 1.586 4.46 1.838 1.115.52 1.9.527 3.312-.192.723-.368 2.82-1.247 4.863-2.104z"
    fill="#fff"
  ></path>
  <path
    d="M0 10.753a.3.3 0 010-.004v.004zM18.589 9.176c1.944-.815 3.841-1.611 4.466-1.929.633-.323.942-.576.94-.803v2.334c0 .234-.288.49-.94.822-.624.318-2.519 1.113-4.461 1.928-2.044.857-4.141 1.737-4.865 2.105-1.413.719-2.197.712-3.313.191-.54-.251-2.47-1.032-4.462-1.84-2.128-.86-4.328-1.75-4.984-2.057C.334 9.63 0 9.38 0 9.144V6.776c-.003.24.321.495.97.797.656.306 2.854 1.196 4.98 2.057 1.994.807 3.926 1.589 4.466 1.84 1.116.521 1.9.528 3.313-.19.723-.369 2.817-1.247 4.86-2.104z"
    fill="#fff"
  ></path>
  <path
    d="M14.93 4.944l-2.063.209-.462 1.085-.746-1.21-2.382-.21 1.777-.626-.533-.96 1.664.635 1.57-.501-.425.993 1.6.585zm-2.648 5.262l-3.85-1.558 5.516-.827-1.666 2.385zm-5.338-4.66c1.628 0 2.949.5 2.949 1.116 0 .617-1.32 1.116-2.95 1.116-1.628 0-2.948-.5-2.948-1.116 0-.616 1.32-1.115 2.949-1.115zM17.368 5.24l3.265 1.26-3.262 1.258-.003-2.518z"
    fill="#fff"
  ></path>
  <path
    d="M13.755 6.635l3.613-1.395.003 2.518-.354.135-3.261-1.258z"
    fill="#fff"
  ></path>
</svg>
