<svg viewBox="0 0 24 24" xmlns="http://www.w3.org/2000/svg">
  <path
    d="M21 7.902a7.963 7.963 0 00-1.002-3.886c-1.694-1.779-5.379-2.19-6.294-.008-.94 2.237 1.58 4.726 2.68 4.529 1.401-.253-.248-3.533-.248-3.533 2.144 4.121 1.649 2.86-2.225 6.645-3.875 3.784-7.832 11.77-8.409 12.106a.475.475 0 01-.078.042H20.62c.268 0 .44-.29.321-.534L16.97 15.24a.371.371 0 01.14-.484A7.923 7.923 0 0021 7.902z"
    fill="#fff"
  ></path>
  <path
    d="M6.656 13.242c5.54-10.39 6.265-11.438 9.15-11.438 1.517 0 3.047.698 4.036 1.939C18.494 1.527 16.108.043 13.375 0h-9.41a.363.363 0 00-.359.366v19.352c.56-1.476 1.513-3.587 3.05-6.476z"
    fill="#fff"
  ></path>
</svg>
