<svg viewBox="0 0 24 24" xmlns="http://www.w3.org/2000/svg">
  <path
    d="M22.663 22.78l-1.525-10.554-4.154 5.5 5.679 5.054zM22.663 22.78l-5.68-5.054L11 22l11.663.78z"
    fill="#fff"
  ></path>
  <path
    d="M21.138 12.226l1.525 10.554L24 5a21.48 21.48 0 01-.968 3.909L23 9l-1.862 3.226z"
    fill="#fff"
  ></path>
  <path
    d="M22.683 22.78l-11.172-.879-6.56 2.076 17.732-1.197zM1.628 16.188L.235 12.226c.956-1.803 2.95-5.582 3.063-5.64.116-.057 3.307-3.093 4.952-4.627L13.471 0l3.07 2.174-1.95 6.212-6.91 6.44-6.053 1.362z"
    fill="#fff"
  ></path>
  <path
    d="M5.126 5.108c3.565-3.545 8.161-5.639 9.925-3.854 1.762 1.784-.107 6.12-3.672 9.664-3.565 3.543-8.104 5.753-9.866 3.968-1.764-1.783.048-6.235 3.613-9.778zM4.966 23.976l2.77-9.198 9.224 2.963c-3.325 3.126-7.051 5.77-11.994 6.235zM14.604 8.368l2.36 9.377c2.778-2.928 5.271-6.077 6.492-9.97l-8.852.593z"
    fill="#fff"
  ></path>
  <path
    d="M23.432 7.821C24.377 4.962 24.595.86 20.139.098l-3.655 2.025 6.948 5.698zM0 19.162c.13 4.72 3.526 4.79 4.972 4.83l-3.34-7.823L0 19.162zM14.617 8.383c2.134 1.315 6.436 3.957 6.523 4.006.136.076 1.855-2.907 2.245-4.593l-8.768.587zM7.732 14.778l3.702 7.162c2.189-1.19 3.903-2.64 5.473-4.195l-9.175-2.967z"
    fill="#fff"
  ></path>
  <path
    d="M1.617 16.179l-.524 6.263c.99 1.355 2.35 1.473 3.779 1.367-1.033-2.579-3.097-7.735-3.255-7.63zM16.462 2.14l7.354 1.034C23.423 1.506 22.218.43 20.164.094l-3.702 2.045z"
    fill="#fff"
  ></path>
</svg>
