<svg viewBox="0 0 24 24" xmlns="http://www.w3.org/2000/svg">
  <path
    d="M23.836 11.706l-1.008-.624a13.373 13.373 0 00-.029-.294l.866-.807a.346.346 0 00-.115-.579l-1.107-.414a12.712 12.712 0 00-.086-.285l.69-.96a.347.347 0 00-.225-.544l-1.168-.19a10.117 10.117 0 00-.14-.262l.49-1.077a.345.345 0 00-.327-.49l-1.184.041a9.351 9.351 0 00-.188-.227l.273-1.154a.346.346 0 00-.417-.417l-1.154.272a6.866 6.866 0 00-.228-.187l.042-1.185a.345.345 0 00-.49-.328l-1.077.491a12.33 12.33 0 00-.262-.14l-.19-1.168a.347.347 0 00-.545-.225l-.96.69c-.094-.03-.189-.059-.285-.087L14.598.45a.346.346 0 00-.578-.115l-.807.867a10.37 10.37 0 00-.294-.029L12.295.164a.347.347 0 00-.59 0l-.623 1.008a9.745 9.745 0 00-.294.029L9.981.334a.348.348 0 00-.579.115l-.414 1.107-.285.087-.96-.69a.346.346 0 00-.545.225l-.19 1.168a9.437 9.437 0 00-.262.14l-1.076-.49a.346.346 0 00-.49.327l.04 1.185c-.076.06-.152.123-.227.187L3.84 3.423a.348.348 0 00-.418.417l.272 1.154c-.063.075-.125.15-.187.227L2.323 5.18a.346.346 0 00-.328.49l.49 1.077c-.047.086-.094.173-.14.262l-1.167.19a.347.347 0 00-.225.545l.69.959c-.03.094-.06.19-.087.285L.45 9.402a.346.346 0 00-.115.579l.866.807c-.01.098-.02.196-.028.294l-1.008.624a.346.346 0 000 .59l1.008.623c.008.098.018.196.028.293l-.866.808a.347.347 0 00.115.578l1.107.414c.028.096.057.191.087.286l-.69.96a.346.346 0 00.225.544l1.167.19.14.262-.49 1.076a.346.346 0 00.328.491l1.184-.042c.062.078.124.153.187.228l-.272 1.154a.345.345 0 00.418.416l1.153-.271c.075.063.151.125.228.186l-.042 1.185a.346.346 0 00.49.328l1.077-.49.262.14.19 1.166a.346.346 0 00.545.226l.96-.69c.094.03.19.059.285.087l.414 1.106a.345.345 0 00.578.115l.808-.866.294.03.624 1.007a.347.347 0 00.59 0l.623-1.008c.098-.008.196-.018.293-.03l.808.867a.346.346 0 00.578-.115l.414-1.106c.096-.028.191-.057.286-.087l.959.69a.347.347 0 00.545-.226l.19-1.166.262-.14 1.076.49a.346.346 0 00.49-.328l-.04-1.185c.076-.06.152-.123.227-.186l1.153.271a.345.345 0 00.417-.416l-.271-1.154c.063-.075.125-.15.186-.228l1.185.042a.345.345 0 00.327-.49l-.49-1.077c.048-.087.095-.174.14-.262l1.167-.19a.345.345 0 00.226-.545l-.69-.959c.03-.095.059-.19.086-.286l1.107-.414a.345.345 0 00.115-.578l-.866-.808.029-.293 1.007-.624a.346.346 0 000-.59zm-6.744 8.358a.714.714 0 01.3-1.396.714.714 0 01-.3 1.396zm-.342-2.316a.65.65 0 00-.772.5l-.358 1.67a8.736 8.736 0 01-3.62.779 8.745 8.745 0 01-3.697-.815l-.357-1.669a.65.65 0 00-.772-.5l-1.473.317a8.752 8.752 0 01-.762-.898h7.17c.082 0 .136-.015.136-.089v-2.536c0-.074-.054-.089-.136-.089h-2.097V12.81h2.268c.208 0 1.107.06 1.395 1.21.09.354.288 1.505.424 1.873.134.413.683 1.239 1.268 1.239h3.573a.763.763 0 00.13-.013c-.248.337-.52.655-.813.953l-1.507-.324zM6.832 20.03a.714.714 0 01-.3-1.396.713.713 0 01.3 1.396zM4.112 9a.714.714 0 11-1.306.578.714.714 0 011.306-.579zm-.836 1.981l1.535-.682a.65.65 0 00.33-.858l-.316-.715H6.07v5.605H3.56a8.784 8.784 0 01-.283-3.35zm6.737-.544V8.784h2.96c.154 0 1.08.177 1.08.87 0 .575-.71.782-1.295.782h-2.745zm10.761 1.487c0 .22-.008.436-.024.651h-.9c-.09 0-.127.06-.127.148v.413c0 .973-.548 1.185-1.029 1.239-.458.051-.966-.192-1.028-.472-.27-1.52-.72-1.844-1.431-2.404.882-.56 1.8-1.387 1.8-2.493 0-1.195-.82-1.947-1.377-2.316-.783-.516-1.65-.62-1.884-.62h-9.31a8.763 8.763 0 014.908-2.77l1.098 1.15c.248.26.659.27.918.022l1.228-1.175a8.782 8.782 0 016.007 4.278l-.84 1.899a.652.652 0 00.33.858l1.619.72c.027.287.042.577.042.871zM11.47 2.32a.712.712 0 11.984 1.032.712.712 0 01-1.007-.023.714.714 0 01.023-1.01zm8.342 6.713a.712.712 0 111.303.579.712.712 0 11-1.303-.579z"
    fill="#fff"
  ></path>
</svg>
