<svg viewBox="0 0 24 24" xmlns="http://www.w3.org/2000/svg">
  <path
    d="M14.96 16.04H1.153C.516 16.04 0 15.53 0 14.9s.516-1.138 1.152-1.138h13.809c.636 0 1.152.51 1.152 1.138 0 .63-.516 1.139-1.152 1.139zm7.887-5.785H9.04c-.637 0-1.153-.51-1.153-1.138 0-.63.516-1.14 1.153-1.14h13.808c.636 0 1.152.51 1.152 1.14 0 .629-.516 1.138-1.152 1.138zm-2.854-5.477c0 .628-.516 1.138-1.153 1.138-.636 0-1.152-.51-1.152-1.138 0-.63.516-1.139 1.152-1.139.637 0 1.153.51 1.153 1.139zM6.312 19.242c0 .629-.516 1.139-1.153 1.139-.636 0-1.152-.51-1.152-1.14 0-.628.516-1.138 1.152-1.138.637 0 1.153.51 1.153 1.139zM11.994 23a11.26 11.26 0 01-3.3-.491 1.136 1.136 0 01-.76-1.424 1.152 1.152 0 011.442-.751 8.92 8.92 0 002.618.39c3.908 0 7.302-2.478 8.445-6.168.09-.289.291-.53.56-.672.27-.141.586-.171.878-.082.608.182.95.82.765 1.42C21.2 19.872 16.922 23 11.994 23zM2.448 10.248c-.366 0-.71-.172-.927-.462a1.127 1.127 0 01-.175-1.01C2.787 4.124 7.066 1 11.994 1c1.125 0 2.235.165 3.3.492.292.089.536.29.678.556.142.267.172.58.081.868a1.14 1.14 0 01-.563.67c-.27.14-.586.17-.878.08a9.01 9.01 0 00-2.618-.387c-3.908 0-7.302 2.478-8.445 6.168a1.151 1.151 0 01-1.101.805v-.005z"
    fill="#fff"
  ></path>
</svg>
