<svg viewBox="0 0 24 24" xmlns="http://www.w3.org/2000/svg">
  <path
    d="M23.15 14.004c-.007.042-.012.084-.02.127l-.041-.243c.022.038.04.077.062.116.123-.676.188-1.368.188-2.06 0-1.533-.3-3.021-.89-4.422a11.312 11.312 0 00-2.43-3.61A11.291 11.291 0 0012.007.583c-.721 0-1.444.068-2.146.204h-.006c.04.021.08.04.119.062L9.735.812l.12-.024A6.704 6.704 0 006.71 0C4.917 0 3.232.7 1.965 1.97A6.691 6.691 0 000 6.726c0 1.143.293 2.267.844 3.26.007-.04.012-.082.02-.124l.041.239-.06-.115c-.113.644-.172 1.301-.172 1.958 0 1.534.3 3.021.892 4.422a11.31 11.31 0 002.427 3.611 11.273 11.273 0 003.603 2.434c1.397.593 2.882.894 4.412.894.665 0 1.333-.06 1.984-.177-.038-.021-.076-.04-.115-.063l.242.043c-.042.008-.084.013-.127.02 1.004.57 2.14.872 3.301.872a6.652 6.652 0 004.743-1.97A6.685 6.685 0 0024 17.276a6.738 6.738 0 00-.85-3.271zM12.053 18.9c-4.026 0-5.827-1.984-5.827-3.47 0-.763.561-1.298 1.336-1.298 1.722 0 1.276 2.48 4.49 2.48 1.647 0 2.555-.896 2.555-1.813 0-.55-.271-1.162-1.355-1.43l-3.58-.896c-2.885-.725-3.408-2.288-3.408-3.757 0-3.05 2.865-4.195 5.556-4.195 2.478 0 5.4 1.373 5.4 3.203 0 .784-.678 1.24-1.452 1.24-1.47 0-1.2-2.04-4.161-2.04-1.47 0-2.284.667-2.284 1.621 0 .953 1.16 1.258 2.169 1.488l2.65.59c2.904.648 3.64 2.347 3.64 3.948 0 2.479-1.898 4.33-5.73 4.33zm1.824 4.173c.039.036.077.067.115.101.043-.012.085-.02.127-.033l-.242-.068zm9.288-8.943c.013-.043.021-.085.033-.127-.033-.039-.063-.078-.099-.116l.066.243zM.886 9.862c-.013.042-.02.083-.032.124.034.038.064.077.098.115l-.066-.239zM9.974.896c-.04-.035-.08-.064-.119-.098l-.12.038.239.06z"
    fill="#fff"
  ></path>
</svg>
