<svg viewBox="0 0 24 24" xmlns="http://www.w3.org/2000/svg">
  <path
    d="M15.564 1.478a2.138 2.138 0 10-4.066 1.321l5.528 17.008a2.138 2.138 0 002.6 1.326c1.135-.327 1.827-1.532 1.465-2.646l-5.527-17.01zM6.998 4.261a2.138 2.138 0 00-4.066 1.321L8.46 22.591a2.138 2.138 0 002.6 1.325c1.135-.326 1.827-1.532 1.465-2.646L6.998 4.26z"
    fill="#fff"
  ></path>
  <path
    d="M22.522 15.564a2.138 2.138 0 10-1.321-4.066L4.193 17.026a2.138 2.138 0 00-1.326 2.6c.327 1.135 1.532 1.827 2.646 1.465l17.01-5.527z"
    fill="#fff"
  ></path>
  <path
    d="M7.738 20.368l4.065-1.32-1.321-4.066-4.066 1.321 1.322 4.065zM16.303 17.585l4.065-1.321-1.32-4.066-4.066 1.321 1.321 4.066zM19.74 6.998a2.138 2.138 0 00-1.322-4.066L1.409 8.46a2.137 2.137 0 00-1.325 2.6c.326 1.135 1.532 1.827 2.646 1.465l17.01-5.527z"
    fill="#fff"
  ></path>
  <path
    d="M4.954 11.803l4.065-1.322L7.7 6.417 3.632 7.738l1.322 4.064zM13.52 9.02l4.065-1.322-1.321-4.066-4.066 1.321 1.321 4.066z"
    fill="#fff"
  ></path>
</svg>
