<svg viewBox="0 0 24 24" xmlns="http://www.w3.org/2000/svg">
  <path
    d="M0 17.896c.014.534.019 1.07.109 1.599.095.56.231 1.106.491 1.615a5.18 5.18 0 001.443 1.744c.438.34.915.611 1.444.782.772.248 1.567.344 2.374.348.504.003 1.007.016 1.511.014 3.659-.015 7.318.026 10.977-.023a8.63 8.63 0 001.44-.152 4.877 4.877 0 002.41-1.173c.805-.717 1.348-1.595 1.594-2.654.16-.693.2-1.395.207-2.1v-.141c0-.055-.02-11.98-.023-12.138a7.34 7.34 0 00-.118-1.289c-.099-.519-.239-1.025-.487-1.495a5.188 5.188 0 00-1-1.332 4.954 4.954 0 00-2.18-1.243C19.436.056 18.664.01 17.886.012c0 0-.004-.008-.004-.012H6.114v.012C5.672.02 5.23.017 4.792.07a6.3 6.3 0 00-1.413.318 4.972 4.972 0 00-1.872 1.228A4.95 4.95 0 00.254 3.804C.053 4.554.009 5.32.008 6.09L0 17.896zm12.11 2.38a2.8 2.8 0 01-.133-.004.994.994 0 01-.087.004c-1.034 0-1.726-.496-2.337-.935-.437-.313-.85-.61-1.334-.69a4.253 4.253 0 00-.702-.061c-.41 0-.736.065-.973.112a2.13 2.13 0 01-.37.053c-.101 0-.225-.022-.277-.201a6.183 6.183 0 01-.098-.41c-.071-.328-.123-.529-.244-.548-1.298-.203-2.065-.502-2.217-.865a.34.34 0 01-.027-.114.21.21 0 01.174-.22c1.03-.173 1.947-.725 2.724-1.644a6.21 6.21 0 00.934-1.475c.15-.308.18-.575.088-.791-.167-.4-.72-.579-1.087-.697a3.819 3.819 0 01-.246-.084c-.325-.13-.86-.405-.788-.785.052-.277.413-.47.704-.47.081 0 .153.015.214.044.33.156.626.236.88.236.318 0 .471-.123.508-.158a55.51 55.51 0 00-.031-.527c-.075-1.2-.168-2.696.21-3.553 1.128-2.566 3.52-2.766 4.226-2.766.117 0 .234-.002.35-.003.708 0 3.106.2 4.235 2.768.377.857.284 2.354.209 3.556l-.004.058c-.01.163-.02.317-.027.467.035.033.175.145.46.156.243-.009.522-.088.83-.234a.648.648 0 01.272-.055c.108 0 .218.021.31.06l.004.002c.261.094.432.282.436.48.003.183-.131.458-.794.724a3.949 3.949 0 01-.246.085c-.367.118-.92.296-1.088.696-.09.216-.06.483.09.79 0 .004.002.008.004.011.046.11 1.162 2.692 3.653 3.108a.21.21 0 01.174.22.342.342 0 01-.027.116c-.152.36-.919.66-2.217.863-.122.019-.173.219-.243.546-.03.135-.059.267-.1.406-.037.131-.121.195-.256.195h-.02c-.088 0-.213-.016-.37-.047a4.792 4.792 0 00-.973-.105c-.229 0-.465.02-.702.06-.483.082-.896.378-1.333.69-.612.44-1.304.936-2.339.936z"
    fill="#fff"
  ></path>
  <path
    d="M12.175 4.147c.682 0 3.03.181 4.137 2.64.365.81.272 2.277.197 3.455-.012.188-.024.369-.033.542l-.004.074.05.056c.02.022.21.218.631.234h.014c.278-.01.592-.096.933-.254a.46.46 0 01.188-.035.62.62 0 01.236.045l.011.004c.179.062.305.18.307.285.001.06-.044.275-.677.523-.062.025-.144.05-.238.08-.412.13-1.035.325-1.245.815-.118.275-.085.6.096.967.075.173 1.252 2.8 3.899 3.232a.114.114 0 01-.01.042c-.046.104-.33.466-2.106.738-.277.042-.346.35-.424.709a5.638 5.638 0 01-.098.392c-.012.04-.014.043-.058.043h-.02c-.08 0-.199-.017-.337-.044a5.252 5.252 0 00-1.038-.108c-.245 0-.499.021-.753.063-.543.09-.985.4-1.452.727-.629.44-1.278.895-2.268.895a2.57 2.57 0 01-.128-.003h-.023a.855.855 0 01-.073.003c-.991 0-1.64-.455-2.269-.895-.467-.328-.91-.637-1.452-.727a4.642 4.642 0 00-.753-.063c-.44 0-.786.067-1.037.116a2.14 2.14 0 01-.337.05c-.064 0-.066-.004-.08-.05-.04-.134-.068-.267-.097-.395-.079-.36-.147-.67-.424-.712-1.775-.271-2.06-.634-2.105-.738a.127.127 0 01-.011-.043c2.647-.432 3.824-3.059 3.899-3.232.182-.366.214-.691.095-.967-.21-.49-.832-.685-1.244-.815a4.024 4.024 0 01-.238-.08c-.535-.21-.7-.42-.675-.548.028-.147.286-.297.511-.297a.31.31 0 01.128.023c.366.17.7.256.992.256.46 0 .665-.212.687-.236l.05-.056-.004-.074-.033-.54c-.075-1.18-.168-2.645.196-3.455 1.103-2.45 3.44-2.639 4.13-2.639l.317-.003h.04zm0-.423h-.045l-.313.003c-.404 0-1.213.057-2.082.437a4.64 4.64 0 00-1.328.873 4.924 4.924 0 00-1.109 1.58c-.407.904-.31 2.427-.233 3.651v.002l.026.401c-.06.027-.198 0-.341 0-.23 0-.367-.08-.676-.223-.09-.042-.288 0-.402 0-.184 0-.377.053-.545.151-.212.123-.348.297-.385.49-.025.127-.024.38.259.635.155.14.383.27.678.386.077.03.169.059.266.09.337.105.847.266.98.576.068.157.039.364-.086.615l-.01.02a5.949 5.949 0 01-.915 1.41c-.338.39-.71.717-1.107.97a4.09 4.09 0 01-1.553.602.423.423 0 00-.357.44.553.553 0 00.044.185c.088.202.29.374.617.525.4.184 1 .34 1.78.46.04.075.08.262.11.39.029.136.06.275.104.424.048.16.171.353.488.353.12 0 .259-.027.419-.058.234-.045.555-.107.955-.107.222 0 .452.02.683.057.446.074.831.343 1.276.655.651.456 1.389.973 2.515.973.03 0 .062-.001.092-.003.037.001.083.003.132.003 1.127 0 1.864-.517 2.514-.973h.002c.445-.312.829-.581 1.275-.655a4.22 4.22 0 01.683-.057c.382 0 .685.048.955.1.177.035.314.051.419.051h.02a.46.46 0 00.468-.347c.044-.145.074-.282.105-.42.026-.12.069-.312.108-.387.781-.122 1.38-.276 1.78-.46.328-.151.53-.322.617-.523a.54.54 0 00.045-.186.424.424 0 00-.357-.44c-2.434-.398-3.53-2.877-3.576-2.982a.296.296 0 00-.01-.02c-.124-.251-.153-.458-.085-.615.133-.31.643-.47.98-.577.098-.03.19-.06.266-.09.332-.13.57-.27.726-.43.188-.192.224-.375.222-.494-.006-.29-.23-.547-.585-.673a1.053 1.053 0 00-.396-.075c-.095 0-.253-.058-.386.003-.284.132-.484.22-.703.23-.116-.005-.237.025-.29 0l.022-.35.003-.051c.078-1.225.175-2.749-.232-3.654a4.931 4.931 0 00-1.114-1.585 4.654 4.654 0 00-1.332-.872 5.342 5.342 0 00-2.08-.434z"
    fill="#fff"
  ></path>
</svg>
