<svg viewBox="0 0 24 24" xmlns="http://www.w3.org/2000/svg">
  <path
    fill-rule="evenodd"
    clip-rule="evenodd"
    d="M0 12C0 5.372 5.372 0 12 0s12 5.373 12 12c0 6.628-5.372 12-12 12S0 18.628 0 12zm5.156-2.75c3.693-1.12 10.073-.91 13.942 1.387a1.123 1.123 0 001.146-1.93C15.79 6.063 8.743 5.815 4.504 7.102a1.123 1.123 0 00.651 2.148zm13.816 4.79a.936.936 0 01-1.288.308c-3.224-1.982-8.142-2.556-11.957-1.398a.937.937 0 01-1.168-.623.937.937 0 01.624-1.167c4.358-1.323 9.776-.682 13.48 1.594.44.271.58.847.308 1.287zm-1.469 3.267a.748.748 0 01-1.028.249c-2.818-1.722-6.365-2.111-10.542-1.157A.747.747 0 115.6 14.94c4.57-1.044 8.492-.594 11.655 1.338a.748.748 0 01.248 1.029z"
    fill="#fff"
  ></path>
</svg>
