<svg viewBox="0 0 24 24" xmlns="http://www.w3.org/2000/svg">
  <path
    fill-rule="evenodd"
    clip-rule="evenodd"
    d="M16.886.23l-.117 2.72a.175.175 0 00.037.116c.063.08.18.095.262.035l1.097-.802.927.703a.19.19 0 00.122.039.183.183 0 00.18-.186l-.1-2.77 1.375-.083c.69-.041 1.285.464 1.329 1.13l.002.075v21.586C22 23.46 21.44 24 20.747 24l-.056-.001-16.722-.724c-.652-.028-1.172-.532-1.196-1.16L2 2.305c-.026-.654.495-1.209 1.174-1.25L16.885.23zm.534 8.73c-.44.33-3.724.555-3.724.086.07-1.791-.763-1.87-1.226-1.87-.44 0-1.18.128-1.18 1.088 0 .978 1.082 1.53 2.352 2.178 1.803.92 3.986 2.034 3.986 4.838 0 2.687-2.267 4.171-5.158 4.171-2.984 0-5.591-1.163-5.297-5.194.116-.473 3.91-.36 3.91 0-.047 1.664.346 2.153 1.34 2.153.764 0 1.111-.405 1.111-1.088 0-1.032-1.127-1.642-2.424-2.343-1.755-.95-3.821-2.066-3.821-4.63 0-2.56 1.827-4.265 5.088-4.265 3.262 0 5.043 1.68 5.043 4.877z"
    fill="#fff"
  ></path>
</svg>
