<svg viewBox="0 0 24 24" xmlns="http://www.w3.org/2000/svg">
  <path
    d="M1.687 10.919c0-.26.213-.36.566-.36.507 0 1.147.153 1.654.426V9.417a4.391 4.391 0 00-1.654-.308C.9 9.11 0 9.817 0 11c0 1.842 2.533 1.548 2.533 2.343 0 .307-.266.407-.64.407-.553 0-1.26-.227-1.82-.534v1.589c.62.267 1.247.38 1.82.38 1.387 0 2.34-.687 2.34-1.882-.006-1.99-2.546-1.636-2.546-2.383zm4.506-3.145l-1.626.347-.007 5.348c0 .988.74 1.715 1.727 1.715.546 0 .946-.1 1.166-.22v-1.355c-.213.087-1.266.394-1.266-.594v-2.37h1.266V9.223H6.187l.006-1.449zm3.334 1.943l-.107-.494H7.98v5.841h1.667v-3.959c.393-.514 1.06-.42 1.266-.347V9.223c-.213-.08-.993-.227-1.386.494zm1.793-.494h1.673v5.841H11.32V9.223zm0-.507l1.673-.36V7l-1.673.354v1.362zm5.153.393c-.653 0-1.073.308-1.306.521l-.087-.414h-1.467V17l1.667-.354.007-1.889c.24.174.593.42 1.18.42 1.193 0 2.28-.96 2.28-3.077-.007-1.936-1.107-2.99-2.274-2.99zm-.4 4.6c-.393 0-.626-.14-.786-.314l-.007-2.476c.173-.194.413-.328.793-.328.607 0 1.027.681 1.027 1.556 0 .894-.413 1.562-1.027 1.562zM24 12.167c0-1.71-.827-3.058-2.407-3.058-1.586 0-2.546 1.349-2.546 3.044 0 2.01 1.133 3.025 2.76 3.025.793 0 1.393-.18 1.846-.434v-1.335a3.546 3.546 0 01-1.633.367c-.647 0-1.22-.227-1.293-1.015h3.26c0-.087.013-.434.013-.594zm-3.293-.634c0-.755.46-1.068.88-1.068.406 0 .84.313.84 1.068h-1.72z"
    fill="#fff"
  ></path>
</svg>
