<svg viewBox="0 0 24 24" xmlns="http://www.w3.org/2000/svg">
  <path
    d="M12.63.747c.21.162.391.36.591.535 1.81 1.723 3.468 3.627 4.803 5.751 1.291 2.057 2.284 4.33 2.724 6.732.244 1.316.324 2.666.182 3.997-.065.557-.16 1.114-.336 1.645-.247.772-.57 1.522-1.014 2.2a6.21 6.21 0 01-1.412 1.53c-.607.464-1.3.803-2.021 1.036-.897.29-1.837.432-2.774.51-1.12.084-2.244.1-3.36-.043-1.264-.16-2.518-.498-3.643-1.11-1.042-.567-1.957-1.398-2.546-2.443-.681-1.194-.906-2.61-.798-3.975.11-1.447.567-2.85 1.17-4.16a21.078 21.078 0 011.878-3.206A23.888 23.888 0 018.05 7.292c.012-.01.037-.032.052-.04-.012.65.05 1.302.234 1.928.188.637.506 1.238.928 1.751.025.031.043.075.09.08.915-.693 1.78-1.47 2.456-2.407.7-.967 1.168-2.1 1.347-3.285.237-1.533.034-3.129-.527-4.572z"
    fill="#fff"
    stroke="#fff"
    stroke-width=".5"
  ></path>
</svg>
