<svg viewBox="0 0 24 24" xmlns="http://www.w3.org/2000/svg">
  <path
    fill-rule="evenodd"
    clip-rule="evenodd"
    d="M8.6 15.408c-.409-.003-.688-.005-.939.132.007-.018.13-.298.58-.412a1.3 1.3 0 01-.089-.476c-.03-.815.468-1.484.983-1.489.516-.005.876.655.883 1.47.007.769-.372.77-.847.772h-.09a4.902 4.902 0 01-.15.003 3.586 3.586 0 01-.167.001H8.6zm.878-1.473a.265.265 0 01-.256.271.264.264 0 01-.27-.258.264.264 0 11.526-.014zM18.22 15.205c-.004-.02-.113-.347-.592-.29.055-.121.08-.285.062-.51-.063-.814-.533-1.46-1.048-1.442-.516.018-.845.693-.817 1.51.029.814.46.809.976.79.277-.005.504-.043.7-.075.291-.048.511-.085.72.017zm-1.618-1.196a.265.265 0 00.258-.27.263.263 0 10-.526.01.264.264 0 00.268.26z"
    fill="#fff"
  ></path>
  <path
    fill-rule="evenodd"
    clip-rule="evenodd"
    d="M23.898 8.167a5.606 5.606 0 01.093.789 6.726 6.726 0 01-.225 2.098c-.047.17-.102.34-.168.507a4.135 4.135 0 01-.107.251 2.691 2.691 0 01-.138.255l-.09.084c-.06.031-.108.054-.162.08l-.155.07c-.098.043-.197.082-.295.122l-.02.008a5.552 5.552 0 00-.199.08l-.174.665c-.004-.002-.056-.015-.163.031.191.1.567.305.695.411.258.215.276.556.219 1.191-.03.327-.137.962-.286 1.545-.257 1.003-.394 1.122-.57 1.167-.09.023-.228.046-.361.046h-.084c-.26.001-.583.002-.808-.052a12.96 12.96 0 01-.556 1.542c.398-.21 1.124-.533 1.301-.612l.039-.017.677-.297-.347.658c-.008.015-.751 1.425-1.207 2.345-.452.912-1.3 1.11-1.808 1.228-.076.018-.15.036-.208.052-.338.095-.996.255-1.628.407l-.148.036a7.413 7.413 0 01-6.577.666c-.27.035-.627.078-1.102.133a5.407 5.407 0 01-.598.035c-1.592 0-2.435-.816-3.051-1.613-.64-.83-1.42-2.052-1.495-2.169l-.005-.007-.467-.736.79.36c.378.17 1.503.696 1.825.846a1.77 1.77 0 00.032-.01l.045-.012a9.786 9.786 0 01-1.283-2.618c-.265.08-.67.143-.985.143-.116 0-.219-.01-.298-.029-.177-.04-.378-.212-.652-1.184a10.823 10.823 0 01-.313-1.5c-.068-.619-.056-.95.2-1.165.154-.13.673-.404.78-.46l-.023-.192c-1.65.978-2.638 1.841-2.658 1.86L0 16.247l.84-1.337a13 13 0 012.141-2.574 3.15 3.15 0 01-.05-.021l-.035-.015-.156-.07-.01-.005c-.05-.024-.096-.046-.15-.075l-.091-.084a1.134 1.134 0 01-.057-.095l-.02-.036-.012-.024a3.795 3.795 0 01-.157-.351 5.638 5.638 0 01-.169-.507A6.752 6.752 0 011.9 8.43a4.548 4.548 0 01.105-.532l.067-.107c.275-.218.572-.382.874-.528.249-.118.502-.222.757-.316.713-1.996 1.94-3.766 3.551-4.998C8.92.675 10.88 0 12.921 0c2.04 0 4 .675 5.666 1.949 1.612 1.232 2.837 3.002 3.55 4.997.256.095.51.199.758.317.302.146.6.31.874.528l.067.107c.028.097.046.18.062.27zm-.424.07a6.043 6.043 0 01.047.734 7.284 7.284 0 01-.252 1.943c-.043.157-.092.31-.149.46a3.554 3.554 0 01-.142.325l-.019.04-.034.017a3.478 3.478 0 01-.039.02l-.145.069-.148.066-.006.003.256-.981c-.06-.016-.62-.162-1.582-.342l.03-.007.059-.014c.2-.05.396-.111.587-.189.095-.04.189-.084.278-.135a.954.954 0 00.244-.187c-.964.317-2.957.174-4.729-.011a48.133 48.133 0 00-4.875-.281 48.153 48.153 0 00-4.876.28c-1.771.186-3.763.33-4.727.012a.955.955 0 00.244.187c.089.05.182.095.277.135a4.458 4.458 0 00.8.235 22.77 22.77 0 00-1.444.317l.269 1.03-.015.014a13.243 13.243 0 01-.284-.132l-.145-.07-.072-.036-.021-.04a3.939 3.939 0 01-.141-.324 5.149 5.149 0 01-.15-.46 7.25 7.25 0 01-.23-2.435 5.199 5.199 0 01.05-.415c.217-.183.46-.346.716-.493.276-.163.564-.308.858-.443.293-.14.594-.265.896-.388a14.8 14.8 0 01.455-.179c.153-.06.306-.116.461-.172a11.733 11.733 0 00-1.578.39C5.651 2.95 9.125.454 12.92.454c3.794 0 7.269 2.494 8.723 6.324-.205-.065-.41-.125-.617-.178a11.242 11.242 0 00-.962-.211l.025.009c.146.053.291.106.435.163.153.057.305.117.456.179.302.123.603.249.895.388.295.135.584.28.86.443.254.147.499.31.714.492a2.4 2.4 0 01.025.173zm-9.788 2.122h.002a92.403 92.403 0 00-.832-.008c-.408 0-.815.006-1.223.013l-.752.36s-.006.002-.011.006a8.82 8.82 0 00-2.03 1.454c.08-.043.167-.088.256-.133.508-.345 1.864-1.16 3.973-1.698.205.001.411.002.617.006zm4.007.146a90.416 90.416 0 00-1.64-.08 8.6 8.6 0 01-.19.269c-.293.4-.87 1.128-1.611 1.754.557-.178 2.768-.926 3.888-1.916l-.447-.027zm-9.674 0c.348-.02.696-.038 1.045-.054-1.507.32-4.31 1.176-6.866 3.375l-.012.013-.042.05c1.38-1.654 3.374-2.916 3.897-3.23a21.885 21.885 0 01.77-.073c.402-.031.805-.059 1.208-.081zm12.611 8.989l-.046.024c-.256.136-.592.202-1.026.202-.259 0-.512-.022-.793-.047a68.937 68.937 0 01-1.52-.167l-.073-.007-.058-.047a339.518 339.518 0 00-1.547-1.236l-.04-.033c-.07-.06-.07-.06-.113-.06-.214 0-.834.193-2.188.615l-.027.009-.084.027-.084-.032-.007-.002a6.362 6.362 0 00-1.982-.337c-.089 0-.177.002-.262.007-.108.005-.715.296-1.492 1.533l-.05.08-.089.029c-.013.004-1.348.439-2.765.847l-.091.026-.088-.04-.268-.125-.821-.382.117.055c.52.452 1.517 1.323 1.627 1.444a.928.928 0 00.063.063l-.076-.09v-.001c.23.22.485.41.765.543.14.066.287.117.436.142a1.4 1.4 0 00.224.018c.077 0 .155-.002.234-.006a30.128 30.128 0 001.878-.17c.313-.033.625-.072.935-.12.155-.023.31-.05.46-.083.074-.018.15-.037.21-.064a.918.918 0 00.175-.127c.116-.1.229-.213.34-.325.112-.112.22-.227.33-.343.107-.113.205-.23.304-.349.07-.083.14-.167.214-.25l.031-.035.039-.042.002.003a9.82 9.82 0 001.597 1.119 1.302 1.302 0 00.24.108.102.102 0 00.027.006l.04.003h.01c.04.001.08 0 .12-.002.162-.012.326-.035.49-.061.33-.052.659-.112.987-.178.328-.063.656-.131.982-.204.327-.07.653-.147.977-.23l.045-.011c.145-.04.29-.079.42-.142a1.8 1.8 0 00.408-.271c.253-.217.466-.486.642-.78V20a3.49 3.49 0 00.221-.505zm.05-2.668a9.475 9.475 0 01-.09.351 18.622 18.622 0 01-.14.424l-.005.016-.001.004a11.97 11.97 0 01-.67 1.571c-.069.005-.14.008-.216.008-.238 0-.48-.02-.747-.046A73.817 73.817 0 0117.378 19a302.185 302.185 0 00-1.502-1.202l-.016-.013c-.1-.085-.214-.183-.446-.183-.21 0-.516.077-1.258.304.385-.29.388-.666.388-.666l.01-.081.008-.077 4.89.56a.166.166 0 00.114-.029l1.114-.787zm-6.118.256l-.356-.04a.167.167 0 01-.14-.12l-.765-2.54a2.662 2.662 0 00-.338-.026c-.097 0-.21.01-.338.027l-.743 2.467a.168.168 0 01-.124.114l-5.211 1.17a.168.168 0 01-.133-.027l-.19-.132-.795-.563a.828.828 0 00.008.026l.005.013.008.026.03.088c.017.048.087.253.213.553.217.515.6 1.314 1.163 2.101.907-.27 1.697-.521 2.002-.619l.046-.014c.538-.837 1.305-1.667 1.85-1.696a5.83 5.83 0 011.046.04.907.907 0 01-.261-.457l-.005-.018-.006-.02s.696.55 1.58.434c.886-.114 1.436-.629 1.436-.629l.018-.158zm.854-6.548c-.038.05-.08.106-.126.163a10.66 10.66 0 01-.935 1.044 45.963 45.963 0 00-3.594.033 17.618 17.618 0 013.494-1.07c.38-.072.767-.13 1.161-.17zM8.431 11.95c.39-.39.791-.712 1.148-.964-1.37.32-2.632.792-3.736 1.304.718-.117 1.59-.239 2.588-.34zm13.347 1.114l-.406 2.864-1.946 1.374-5.074-.581-.764-2.536a.168.168 0 00-.132-.118 3.13 3.13 0 00-.493-.046c-.14 0-.305.016-.494.046a.17.17 0 00-.133.118l-.745 2.474-5.045 1.132-2-1.412-.395-3.215.262-.146c.124-.027.263-.055.417-.085l.372 3.034a.165.165 0 00.07.116l1.375.972a.169.169 0 00.132.026l4.149-.93a.167.167 0 00.123-.115l.747-2.48c.2-.052.714-.174 1.165-.174.45 0 .963.122 1.164.173l.747 2.48a.17.17 0 00.14.118l4.15.476c.04.004.08-.007.113-.03l1.377-.97a.172.172 0 00.069-.115l.367-2.592c.276.054.507.103.688.142zm.155-.43l.357-1.367a34.5 34.5 0 00-2.771-.502c-.664.482-1.39.866-2.104 1.173 2.184.214 3.788.533 4.518.695zm-18.25-1.367l.1.379c.277-.224.532-.409.746-.556-.35.068-.635.13-.846.177zm9.95 10.879c.126-.01.254-.026.382-.046a18.477 18.477 0 01-.429-.466c-.056.13-.131.303-.23.525l.03-.001c.052 0 .107-.004.163-.007l.084-.005zm7.484-5.498a5.35 5.35 0 01-.07.323c.273.064.72.114.933.072.092-.1.21-.448.316-.865a9.94 9.94 0 00.257-1.41c.054-.61.006-.742-.055-.793a4.479 4.479 0 00-.472-.281l-.334 2.355a.173.173 0 01-.07.114l-.477.336a9.026 9.026 0 00-.02.105l-.008.044zm-7.82 6.96a5.944 5.944 0 01-1.977-.214c.055-.01.095-.017.143-.023.024-.002.264-.034.57-.136.39-.13.887-.373 1.183-.816l.05.002.13-.002c.058 0 .114-.003.17-.006l.08-.005c.2-.017.394-.045.585-.084l.025.024.036.038a2.23 2.23 0 001.428.663 7.844 7.844 0 01-2.423.56zm-8.34-6.41l-.013-.043-.013-.042a4.218 4.218 0 01-.018-.064l-.62-.437a.17.17 0 01-.07-.118l-.302-2.473c-.223.12-.482.269-.55.327-.06.05-.106.176-.041.766.049.443.203 1.123.36 1.634.102.327.205.584.281.663.237.041.76-.032 1.016-.108a5.91 5.91 0 01-.03-.105zm8.273-4.565c.22-.134.43-.286.63-.45a45.043 45.043 0 00-4.256.12c-1.034.51-1.665.929-1.68.939l-.992.667.68-.986c.114-.163.233-.319.355-.466-1.144.13-2.096.282-2.809.414l.365 2.98 1.255.885 3.982-.893.745-2.474a.17.17 0 01.113-.113c.023-.007.421-.122.88-.178l.732-.445zm7.532.228l-.359 2.534-1.264.893-3.978-.456-.742-2.464a.168.168 0 00-.113-.113 6.024 6.024 0 00-1.04-.194l.097-.007c.082-.006 1.453-.175 3.091-.744 1.814.14 3.296.364 4.308.55z"
    fill="#fff"
  ></path>
  <path
    d="M16.602 14.01a.265.265 0 00.258-.27.263.263 0 10-.526.009.264.264 0 00.268.26zm1.619 1.195c-.348-.17-.728.045-1.42.058-.515.019-.947.024-.976-.79-.028-.818.301-1.493.817-1.51.515-.019.985.628 1.048 1.443.017.224-.007.388-.062.51.479-.058.588.27.593.29zM9.222 14.207a.265.265 0 00.256-.273.264.264 0 10-.527.014.264.264 0 00.271.258zm.796.427c.008.816-.42.766-.936.772a4.902 4.902 0 01-.152.002 3.586 3.586 0 01-.166.001c-.5-.001-.82-.024-1.103.13.007-.017.13-.297.58-.411a1.3 1.3 0 01-.089-.476c-.03-.815.468-1.484.983-1.489.516-.005.876.655.883 1.47zM19.777 9.024a4.02 4.02 0 01-.014.15 17.66 17.66 0 00-.616-.155c-.68-.15-1.37-.262-2.062-.342l-.072-.008a.249.249 0 00.012-.03c.02-.077.038-.153.056-.23a7.67 7.67 0 00.149-1.973l2.462.706c.134.882.108 1.575.085 1.882zm-3.063-.472a.161.161 0 000 .085c-.258-.027-.516-.05-.773-.072.289-.611.352-1.262.366-1.492a6.79 6.79 0 00.606-.498c.014.438.004 1.233-.199 1.977zm-7.587.084a.166.166 0 000-.084c-.202-.743-.213-1.538-.199-1.977.163.148.384.34.607.498.013.23.076.88.365 1.49a29.23 29.23 0 00-.773.073zm-.372.04c-.345.043-.69.087-1.035.144-.343.06-.686.123-1.026.199-.207.048-.411.1-.616.155a8.341 8.341 0 01.071-2.032l2.462-.706a7.785 7.785 0 00.13 1.884c.022.106.047.212.076.318l.011.03-.073.009zM21.097 9.68l-.062-.03-.103-.051-.004-.002a.639.639 0 01-.064-.037 6.476 6.476 0 00-.79-.293.168.168 0 00.006-.022c.003-.027.064-.484.028-1.203a9.571 9.571 0 00-.114-1.053.163.163 0 00-.115-.13l-.35-.1c-.076-2.738-1.194-4.025-1.23-4.065 1 1.621.99 3.543.974 3.991l-2.176-.623-.006-.001a.205.205 0 00-.027-.004h-.008c-.012-.002-.024 0-.036.002l-.006.002a.12.12 0 00-.028.01l-.01.004-.021.015-.005.003-.005.004-.006.006c-.002.002-.06.06-.151.146a9.89 9.89 0 00-.016-.902l-.007-.111c-.068-.963-.294-2.316-.969-3.5.006.016.073.213.159.544.217.833.56 2.518.373 4.347l-.002.025-.01.007a4.21 4.21 0 01-.257.193.166.166 0 00-.071.132c0 .009-.02.826-.377 1.522-.007.012-.01.023-.014.035a39.285 39.285 0 00-2.676-.088c-.892 0-1.786.025-2.678.086a.241.241 0 00-.012-.033c-.359-.696-.377-1.514-.378-1.522a.165.165 0 00-.07-.132c-.089-.06-.18-.13-.268-.2-.181-1.74.118-3.352.335-4.23.103-.416.189-.668.195-.687-.979 1.718-1.013 3.791-.991 4.514a4.33 4.33 0 01-.152-.146l-.007-.006-.003-.004-.006-.003a.204.204 0 00-.021-.014l-.01-.006a.078.078 0 00-.027-.008l-.007-.003a.144.144 0 00-.036-.003h-.009a.206.206 0 00-.027.005h-.005l-2.175.624c-.018-.448-.027-2.37.972-3.99-.035.04-1.153 1.326-1.229 4.064l-.349.1a.161.161 0 00-.116.13c-.064.39-.097.745-.113 1.052a6.91 6.91 0 00.028 1.204l.005.022-.085.025a6.407 6.407 0 00-.706.269.625.625 0 01-.064.036l-.004.002-.103.05c-.017.01-.035.018-.053.027-.012.007-.023.012-.034.02.16-.065.328-.111.495-.153a9.1 9.1 0 01.504-.111 21.857 21.857 0 012.045-.272c.343-.03.686-.059 1.03-.079a69.75 69.75 0 014.129-.108c1.378.001 2.755.023 4.129.108.343.02.686.049 1.029.078a22.33 22.33 0 012.045.272c.169.033.337.07.504.112.168.042.334.088.496.152l-.027-.015z"
    fill="#fff"
  ></path>
  <path
    d="M14.502 3.918h.577V2.734h-4.226v1.184h.578v-.601h1.195v3.656h-.492v.679h1.664v-.679h-.492V3.317h1.196v.601z"
    fill="#fff"
  ></path>
  <path
    d="M13.306 3.317v3.656h.492v.679h-1.664v-.679h.492V3.317h-1.195v.601h-.578V2.734h4.226v1.184h-.578v-.601h-1.195zm2.209 1.04v-2.06h-5.097v2.06h1.448v-.602h.325v2.78H11.7v1.554h2.533V6.535h-.493v-2.78h.326v.601h1.449z"
    fill="#fff"
  ></path>
</svg>
