<svg viewBox="0 0 24 24" xmlns="http://www.w3.org/2000/svg">
  <path
    fill-rule="evenodd"
    clip-rule="evenodd"
    d="M2.344 0h19.312A2.344 2.344 0 0124 2.344v19.312A2.344 2.344 0 0121.656 24H2.344A2.344 2.344 0 010 21.656V2.344A2.344 2.344 0 012.344 0zm1.901 3.12h5.07c.621 0 1.125.504 1.125 1.125v14.25c0 .621-.504 1.125-1.125 1.125h-5.07a1.125 1.125 0 01-1.125-1.125V4.245c0-.621.504-1.125 1.125-1.125zm10.44 0h5.07c.621 0 1.125.504 1.125 1.125v8.25c0 .621-.504 1.125-1.125 1.125h-5.07a1.125 1.125 0 01-1.125-1.125v-8.25c0-.621.504-1.125 1.125-1.125z"
    fill="#fff"
  ></path>
</svg>
