<svg viewBox="0 0 24 24" xmlns="http://www.w3.org/2000/svg">
  <path
    d="M24 4.366a9.641 9.641 0 01-2.828.795 5.043 5.043 0 002.165-2.792 9.69 9.69 0 01-3.127 1.225A4.86 4.86 0 0016.616 2c-2.718 0-4.923 2.26-4.923 5.048 0 .396.044.781.127 1.151C7.728 7.99 4.1 5.98 1.672 2.925a5.122 5.122 0 00-.666 2.538 5.08 5.08 0 002.19 4.201 4.809 4.809 0 01-2.23-.63v.063c0 2.446 1.696 4.486 3.949 4.95a4.874 4.874 0 01-2.224.088c.626 2.005 2.445 3.465 4.598 3.506A9.723 9.723 0 010 19.73 13.683 13.683 0 007.547 22c9.056 0 14.008-7.693 14.008-14.364 0-.219-.005-.436-.015-.653A10.178 10.178 0 0024 4.366z"
    fill="#fff"
  ></path>
</svg>
