<svg viewBox="0 0 24 24" xmlns="http://www.w3.org/2000/svg">
  <path
    fill-rule="evenodd"
    clip-rule="evenodd"
    d="M0 24V0h24v24H0zm20.867-12.063a2.987 2.987 0 00-1.501-.864c-.416-.103-1.398-.134-1.821-.054-1.303.248-2.206 1.082-2.461 2.278-.073.343-.05 1.193.042 1.532.11.407.377.895.659 1.2.487.526 1.02.857 2.259 1.39 1.082.469 1.463.694 1.65.96.144.21.178.332.178.61a.884.884 0 01-.312.72c-.518.465-1.57.522-2.335.118-.267-.141-.709-.564-.91-.872l-.146-.214-.69.4-.89.515c-.111.064-.21.125-.222.14-.026.046.404.682.625.926.564.625 1.478 1.101 2.442 1.273.442.08 1.417.091 1.829.019 1.33-.225 2.274-.903 2.655-1.901.347-.918.232-2.153-.278-2.926-.457-.693-1.192-1.181-2.91-1.92-.934-.404-1.231-.602-1.391-.933a.88.88 0 01-.103-.45c-.004-.636.465-1.017 1.192-.968.496.035.82.229 1.128.679.103.152.194.251.217.236.633-.393 1.677-1.094 1.669-1.124-.027-.103-.355-.533-.575-.77zM5.3 13.063l.007-.983.012-.98 4.194-.01c2.305-.005 4.206.003 4.217.018.015.012.027.457.027.99v.964h-3.124v8.877h-2.21v-8.877H5.3z"
    fill="#fff"
  ></path>
</svg>
