<svg viewBox="0 0 24 24" xmlns="http://www.w3.org/2000/svg">
  <path
    d="M24 12c0 6.627-5.372 12-12 12S0 18.627 0 12 5.373 0 12 0c6.628 0 12 5.373 12 12zM3.84 10.398a1.602 1.602 0 100 3.204 1.602 1.602 0 000-3.204zm11.44 7.281a1.601 1.601 0 101.6 2.774 1.601 1.601 0 00-1.6-2.774zM7.32 12c0-1.583.787-2.982 1.99-3.829L8.14 6.209a6.975 6.975 0 00-2.878 4.046 2.247 2.247 0 010 3.49 6.97 6.97 0 002.878 4.046l1.17-1.961A4.672 4.672 0 017.32 12zM12 7.32a4.68 4.68 0 014.661 4.265l2.283-.034a6.939 6.939 0 00-2.068-4.514 2.247 2.247 0 01-3.017-1.744A6.98 6.98 0 0012 5.04a6.93 6.93 0 00-3.083.72l1.113 1.995A4.66 4.66 0 0112 7.32zm0 9.36a4.662 4.662 0 01-1.971-.436L8.916 18.24a6.96 6.96 0 004.944.468 2.245 2.245 0 011.095-1.589 2.244 2.244 0 011.921-.155 6.939 6.939 0 002.068-4.515l-2.283-.033A4.679 4.679 0 0112 16.68zm3.279-10.36a1.6 1.6 0 101.602-2.772A1.6 1.6 0 0015.28 6.32z"
    fill="#fff"
  ></path>
</svg>
