<svg viewBox="0 0 24 24" xmlns="http://www.w3.org/2000/svg">
  <path
    fill-rule="evenodd"
    clip-rule="evenodd"
    d="M4.743 5h18.044c.845 0 1.37.636 1.171 1.418l-2.814 11.166C20.946 18.364 20.1 19 19.255 19H1.213C.37 19-.156 18.364.041 17.584L2.857 6.418C3.053 5.636 3.897 5 4.743 5zm.726 3.507c.058.014.24.02.853.014-.004.005-.005.01-.008.02v.005c-.077.23-.524 1.995-.524 1.995l-.05.19v.001c-.108.37-.23.787-.691 1.053-.266.16-.66.246-1.08.246-.327 0-.903-.051-1.105-.396a.767.767 0 01-.095-.395l.074-.531.038-.163.444-1.915s.02-.105.026-.124c.01.014.16.02 1.006.014a.16.16 0 01-.006.025c-.078.225-.513 1.924-.513 1.924l-.082.508.005.086c.026.25.185.382.457.382.169 0 .315-.048.44-.15.22-.173.285-.442.374-.82l.437-1.969zm1.893 1.548c.177-.085.374-.11.482-.11.165 0 .345.044.42.23.071.166.024.37-.07.771l-.048.205c-.096.447-.112.529-.166.836l-.035.026a8.539 8.539 0 00-.756.014L7.175 12l.045-.187.049-.204.043-.178a7.247 7.247 0 00.136-.702c.007-.061.023-.202-.146-.202a.586.586 0 00-.226.07c-.033.115-.093.397-.137.604l-.031.146c-.064.29-.084.393-.105.504l-.027.136-.025.026a8.866 8.866 0 00-.772.014l-.016-.03c.06-.236.118-.475.175-.711a9.81 9.81 0 00.225-1.212l.03-.02.064-.008c.295-.04.391-.054.742-.123l.032.034-.058.204.044-.025c.048-.029.095-.056.145-.081zm2.12.321l.063-.011.006.015.005.017-.046.185c-.019.077-.039.155-.057.233l-.047.196-.053.222-.064.279c-.024.101-.037.16-.047.207-.01.045-.014.078-.023.13l-.023.138L9.18 12l-.015.012-.158-.001a9.131 9.131 0 00-.603.013c-.013 0-.027 0-.042.002l-.009-.015-.01-.016a2.433 2.433 0 01.093-.288c.023-.06.044-.12.085-.292a6.77 6.77 0 00.106-.519c.019-.098.03-.185.043-.276l.014-.1.013-.011.014-.013c.18-.024.295-.04.412-.059.104-.013.209-.033.36-.062zm-.6-.51c.2-.135.497-.166.667-.068.166.096.142.282-.057.417-.198.136-.497.164-.663.07-.169-.1-.146-.287.053-.419zm2.647 1.825c-.264.274-.615.366-.957.366-.134 0-.342-.017-.486-.077-.468-.185-.393-.681-.329-.957.065-.27.17-.553.4-.76.321-.29.731-.306.903-.306.286 0 .562.063.718.258.103.128.185.338.08.789-.032.136-.126.466-.329.687zm-.574-1.275c-.238 0-.331.287-.41.628-.027.118-.05.227-.048.333.002.216.15.216.176.216.084 0 .16-.054.224-.143.092-.12.16-.402.175-.478.083-.343.07-.556-.117-.556zm1.785 1.57l-.026.027a8.795 8.795 0 00-.771.014l-.016-.03c.06-.236.118-.475.175-.71.15-.642.184-.887.226-1.213l.026-.02.073-.01c.288-.039.387-.052.735-.121l.029.034-.054.204a1.2 1.2 0 01.67-.217c.163 0 .344.045.421.231.07.166.022.37-.072.771l-.047.205c-.099.447-.113.529-.166.836l-.036.026a8.468 8.468 0 00-.755.014L13.138 12l.053-.215.043-.176.04-.178c.066-.277.13-.6.136-.698v-.004c.007-.06.024-.202-.144-.202a.569.569 0 00-.225.068l-.003.001c-.03.11-.086.366-.13.568l-.04.183c-.065.308-.083.405-.106.525l-.022.115zm2.71-.69l-.154.73c-.098-.01-.33-.01-.896-.003l.582-2.341.232-1.054.026-.128c.107.013.367.015 1.016.007l.25-.002c.506.002.945.008 1.165.309a.654.654 0 01.117.404c0 .112-.017.223-.04.317-.09.382-.29.697-.585.91-.432.31-.983.31-1.472.31h-.051c-.036.02-.07.067-.07.067-.008.016-.12.475-.12.475zm.522-2.183c.002-.004-.245 1.045-.245 1.045l-.01.053h.133c.208 0 .409-.007.573-.087a.77.77 0 00.407-.525c.058-.255-.025-.451-.226-.527l-.521-.044-.1-.01-.003.041-.008.054zm1.617 2.895c-.465-.177-.39-.673-.325-.945.062-.27.171-.55.398-.756.323-.287.7-.366.86-.305a.512.512 0 01.262.21l.01-.082.028-.022c.36-.05.46-.064.834-.132l.01.031-.202.832c-.132.558-.183.853-.234 1.144l-.006.036-.033.024a12.65 12.65 0 00-.8.011l-.022-.026.033-.125a.695.695 0 01-.397.178.928.928 0 01-.416-.073zm.872-1.547c-.239 0-.33.284-.41.619a1.42 1.42 0 00-.05.333c.005.212.152.212.176.212.084 0 .23-.053.292-.138a.715.715 0 00.088-.173l.019-.075.056-.223.043-.187c.016-.232-.064-.368-.214-.368zm3.664-.52l.029.033s-1.49 2.497-1.687 2.91l-.03.034h.004l-.291.487c-.092.167-.263.292-.535.293l-.463-.008.135-.439h.09a.252.252 0 00.108-.015c.024-.008.04-.026.06-.053l.164-.253-.002-.003c.136-.2.212-.333.3-.486.062-.11.131-.231.232-.394a24.02 24.02 0 00-.082-.735l-.016-.128c-.01-.084-.022-.168-.034-.253a51.045 51.045 0 01-.058-.442 3.245 3.245 0 00-.057-.35l-.002-.005.002-.014c0-.009.002-.017.004-.024l.028-.025c.26-.032.336-.047.508-.081.064-.013.141-.029.247-.048l.032.032.052.974.001.027c0 .009 0 .017.002.028.093-.205.143-.29.193-.378.06-.103.12-.208.258-.52l.002.006.004-.015.024-.025c.34-.045.408-.056.778-.13zm-5.057 5.795h.196l-.152.485h-.194l-.046.15h-.692l.047-.15h-1.405l.14-.449h.143l.737-2.386.147-.48h.706l-.074.241s.188-.132.366-.177c.148-.038.876-.056 1.12-.06v-.002h.753l.008.274c-.005.046.036.068.124.068h.153l-.14.453h-.407c-.352.024-.487-.123-.478-.29l-.007-.27-.077.243h-.24l-.728 2.35zm-.703-1.75s.21-.092.323-.123c.116-.03.289-.04.289-.04l.135-.437h-.56l-.187.6zm.042.783c.116-.026.292-.047.292-.047l.136-.438h-.563l-.193.625s.214-.107.328-.14zm-.585.973h.563l.16-.528h-.56l-.162.528zm2.727-1.458h-.81l.137-.454h2.255l-.14.454h-.756l-.119.368h.76l-.127.403h-.82l-.145.17h.332l.082.507.005.036c.005.031.008.053.02.07.018.017.118.027.176.027h.1l-.153.493h-.256c-.035 0-.085-.002-.153-.005h-.027a.335.335 0 01-.142-.055l-.04-.022a.239.239 0 01-.134-.172l-.08-.506-.373.499a.638.638 0 01-.55.278h-.521l.137-.441h.2a.328.328 0 00.145-.041.222.222 0 00.11-.09l.544-.748h-.718l.123-.403h.821l.117-.368zm-7.465.946l-.19.614c-.022.068.186.077.26.077l.39-.052-.157.506h-.876a.852.852 0 01-.2-.027.208.208 0 01-.139-.099.507.507 0 00-.016-.023c-.029-.041-.06-.085-.031-.175l.252-.814h-.432l.143-.464h.434l.115-.379h-.432l.138-.442h1.902l-.14.442h-.761l-.119.379h.778l-.142.457h-.777zm-.297-1.98l.197-.348h.774l-.136.253h.78l-.141.463h-1.066l-.115.098c-.03.028-.047.032-.07.038-.017.005-.035.01-.062.024a.788.788 0 01-.35.088h-.341l.137-.445h.103c.086 0 .146-.008.176-.026a.405.405 0 00.114-.145zm1.793 2.439c-.028.094-.04.139-.023.164.015.022.05.047.1.047l.456-.042-.156.517h-.51c-.164 0-.282-.004-.365-.01l-.051-.003c-.062-.003-.122-.006-.166-.038l-.017-.015c-.046-.039-.102-.087-.1-.136.004-.05.026-.135.06-.252l.93-3.013h.664l-.097.327s.21-.165.357-.223c.146-.053.477-.1.477-.1l1.075-.007-.366 1.192a1.375 1.375 0 01-.179.396.463.463 0 01-.18.163.689.689 0 01-.25.082c-.071.005-.18.007-.331.009H12.87l-.29.942zm1.568-1.578h-1.089l-.067.214h.943c.075-.009.11-.004.127-.002h.017l.069-.212zm.227-.71h-1.098l-.159.516s.213-.19.578-.252c.083-.014.6-.01.6-.01l.08-.255zm-.315 1.697a.113.113 0 00.043-.066l.065-.202h.507l-.062.287c-.026.09-.049.156-.118.214a.485.485 0 01-.357.123l-.37.015-.002.324c-.003.072.012.081.026.09a.05.05 0 01.01.006c.016.016.031.022.047.029l.118-.006.352-.02-.146.473h-.404c-.283 0-.493-.007-.561-.06-.069-.041-.078-.094-.076-.185l.026-1.262h.645l-.01.258h.156c.053 0 .089-.005.11-.018z"
    fill="#fff"
  ></path>
</svg>
