<svg viewBox="0 0 24 24" xmlns="http://www.w3.org/2000/svg">
  <path
    fill-rule="evenodd"
    clip-rule="evenodd"
    d="M7.842 19.817L12.025 24l2.825-2.837h-1.708a.078.078 0 01-.073-.103l1.45-4.277h-.466a.078.078 0 01-.073-.103l.16-.478a.078.078 0 01.073-.052h1.742c.021 0 .041.009.056.024l.486.504h.73l.459-.518a.078.078 0 01.043-.026h1.149c.021 0 .042.009.057.024l.43.471L24 11.975l-4.31-4.31 4.093-4.198V1.706l-.637-.637h-8.05l-.649.594v.76L12.025 0l-1.417 1.41-.374-.373H2.26l-.627.679v1.85l.605.605h.707v4.873L0 11.975l2.944 2.944v5.803l.89.867h2.28l1.728-1.772zM15.29 2.124l.271-.271h7.118l.271.27v.792l-10.224 10.55h.866c.02 0 .04.008.055.022l.223.223c.02.02.028.05.02.077l-.289.991a.078.078 0 01-.02.034l-.27.273a.078.078 0 01-.056.021h-1.038a.078.078 0 01-.055-.021l-.257-.258a.078.078 0 01-.018-.08l.235-.659-6.55 6.76H4.136l-.238-.238V3.383H2.638l-.242-.24v-1.03l.238-.236h7.253l.26.201v1.007l-.282.283H8.487v9.355l8.293-8.406v-.961h-1.254l-.237-.238v-.994zm-4.635 14.052a.078.078 0 01.06-.057h2.333a.078.078 0 01.073.103l-1.499 4.37h.498c.008 0 .016 0 .024.003a.078.078 0 01.051.097l-.144.465a.078.078 0 01-.075.054H9.77a.078.078 0 01-.073-.103l1.515-4.325H10.6a.078.078 0 01-.075-.097l.128-.51z"
    fill="#fff"
  ></path>
  <path
    d="M17.002 19.003l.413-1.324H15.74l-.925 2.913h.324a.078.078 0 01.073.102l-.055.16 1.845-1.851zM5.58 20.87H4.127l-.25-.25V3.406H2.627l-.254-.254V2.104l.25-.25h7.27l.277.213v1.027l-.296.296H8.51v9.277l8.247-8.36V3.38h-1.24l-.25-.251V2.114l.283-.284h7.138l.284.284v.81l-.006.007L5.58 20.87zm-1.434-.045h1.415l17.366-17.92v-.772l-.258-.257h-7.1l-.257.257v.976l.224.224h1.267v.993l-8.34 8.452V3.345h1.393l.269-.27V2.09l-.246-.19H2.643l-.224.224v1.01l.228.227h1.275V20.6l.224.225z"
    fill="#fff"
  ></path>
  <path
    d="M12.034 15.216c.049.048.113.073.178.073h1.039a.258.258 0 00.189-.076l.27-.272a.26.26 0 00.066-.112l.289-.99a.26.26 0 00-.066-.258l-.226-.226a.255.255 0 00-.183-.073h-.992l-.02.004a.26.26 0 00-.117.058l-.337.289-.004.003a.263.263 0 00-.071.11l-.336.939c-.033.093-.01.2.061.272l.26.26zm1.514-1.568l.148.148-.264.905-.22.222h-.954l-.177-.178.305-.854.283-.243h.88zM22.654 16.565l-.368-.494-.004-.004a.262.262 0 00-.208-.1h-1.402a.26.26 0 00-.192.08l-.392.43h-.613l-.404-.442-.004-.004a.264.264 0 00-.189-.08h-1.127c-.013 0-.027 0-.04.002l-.02.002a.26.26 0 00-.143.084l-.404.456h-.569l-.433-.448a.263.263 0 00-.187-.08h-1.742c-.11 0-.208.07-.245.172l-.162.483a.261.261 0 00.247.344h.211l-1.37 4.036a.261.261 0 00.248.344h1.855c.11 0 .208-.07.246-.175l.143-.418a.261.261 0 00-.247-.345h-.074l.809-2.546h1.292l-.983 3.147a.261.261 0 00.25.337h1.792a.262.262 0 00.239-.16l.161-.387a.261.261 0 00-.241-.357h-.074l.825-2.596h1.21l-.998 3.163a.261.261 0 00.25.337h1.965a.264.264 0 00.246-.167l.16-.42a.261.261 0 00-.244-.35h-.142l1.11-3.607a.26.26 0 00-.038-.237zm-1.568 4.21h.484l-.079.205h-1.75l1.103-3.5h-1.978l-1.057 3.328h.415l-.071.172h-1.577l1.088-3.484h-2.058l-1.042 3.279h.427l-.07.205h-1.632l1.486-4.38H14.2l.09-.267h1.62l.51.528h.89l.48-.544h1.043l.48.526h.937l.465-.51h1.31l.303.408-1.242 4.034zM12.197 20.42a.283.283 0 00-.078-.012h-.242l1.416-4.128a.261.261 0 00-.246-.344h-2.352l-.02.004a.26.26 0 00-.199.191l-.128.511a.262.262 0 00.253.324h.352l-1.43 4.083a.261.261 0 00.247.345h2.206a.262.262 0 00.25-.183l.144-.465a.261.261 0 00-.173-.326zm-2.278.607l1.55-4.427h-.733l.075-.298H12.9l-1.535 4.473h.613l-.079.253H9.92z"
    fill="#fff"
  ></path>
</svg>
