<svg viewBox="0 0 24 24" xmlns="http://www.w3.org/2000/svg">
  <path
    d="M23.988 6.627c-.106 2.25-1.738 5.333-4.894 9.244C15.83 19.957 13.07 22 10.812 22c-1.399 0-2.583-1.244-3.55-3.733l-1.937-6.843c-.719-2.487-1.489-3.732-2.312-3.732-.18 0-.808.364-1.884 1.089L0 7.379A301.808 301.808 0 003.503 4.37c1.58-1.315 2.765-2.007 3.555-2.076 1.868-.173 3.018 1.057 3.45 3.69.466 2.84.788 4.608.97 5.3.538 2.356 1.13 3.533 1.778 3.533.502 0 1.257-.764 2.263-2.293 1.005-1.529 1.543-2.692 1.616-3.491.143-1.32-.396-1.981-1.616-1.981-.575 0-1.167.127-1.777.379 1.18-3.722 3.433-5.53 6.76-5.427 2.466.07 3.629 1.61 3.486 4.623z"
    fill="#fff"
  ></path>
</svg>
