<svg viewBox="0 0 24 24" xmlns="http://www.w3.org/2000/svg">
  <path
    d="M22.323 18.498L12.434 24v-4.285l6.162-3.334 3.727 2.117zm.677-.603V6.39l-3.619 2.054v7.396L23 17.895zm-21.324.603L11.566 24v-4.285L5.404 16.38l-3.728 2.117zM1 17.895V6.39l3.619 2.054v7.396L1 17.895zm.423-12.25L11.566 0v4.143L5.068 7.66l-.05.028-3.595-2.043zm21.154 0L12.434 0v4.143l6.498 3.516.05.028 3.595-2.043zM11.566 18.74l-6.079-3.287V8.938l6.08 3.453v6.349zm.868 0l6.08-3.287V8.938l-6.08 3.453v6.349zM5.9 8.185L12 4.883l6.103 3.302-6.103 3.466L5.9 8.185z"
    fill="#fff"
  ></path>
</svg>
