<svg viewBox="0 0 24 24" xmlns="http://www.w3.org/2000/svg">
  <path
    fill-rule="evenodd"
    clip-rule="evenodd"
    d="M22.07 3.396L20.888.487 15.3 0l-.879.841-1.108-.428-3.526 1.875L6 .038 0 2.513l3.225 19.162L16.5 24l.787-4H4V4h16V18.159l4-2.371-2.625-4.913L24 8.137l-1.913-4.762-.016.02zM17.386 19.5H19.5v-15h-15v15h12.885zm-5.835-2.813H5.925v.938h5.625v-.938zm2.512-5.887l-.787.975c.738.62 1.662.977 2.625 1.012 1.312 0 2.25-.712 2.25-1.95 0-1.087-.712-1.537-1.95-1.875-1.05-.262-1.313-.412-1.313-.825 0-.337.3-.562.788-.562a2.857 2.857 0 011.575.6l.712-1.05a3.671 3.671 0 00-2.287-.788c-1.238 0-2.138.75-2.138 1.875v.038c0 1.237.788 1.575 2.025 1.912 1.013.263 1.238.45 1.238.788 0 .375-.338.6-.9.6-.713 0-1.275-.3-1.838-.75zm-2.925-.75l.938-3.6h1.463l-1.8 6.225h-1.163l-1.013-3.6-1.012 3.6H7.387l-1.8-6.225H7.05l.937 3.6 1.05-3.6h1.05l1.05 3.6z"
    fill="#fff"
  ></path>
</svg>
