<svg viewBox="0 0 24 24" xmlns="http://www.w3.org/2000/svg">
  <path
    fill-rule="evenodd"
    clip-rule="evenodd"
    d="M2.227 5h19.536C22.999 5 24 5.98 24 7.192V14.5c0 1.211-1 2.192-2.237 2.192h-7.006L15.72 19l-4.23-2.308H2.238C1.001 16.692 0 15.712 0 14.5V7.192C-.01 5.99.991 5 2.227 5zm-.86 1.998c.136-.181.341-.277.614-.296.498-.038.78.191.85.688.302 1.998.633 3.69.984 5.077L5.952 8.48c.195-.363.44-.554.732-.574.43-.028.692.24.8.804.244 1.271.556 2.351.927 3.27.253-2.43.683-4.179 1.287-5.26a.75.75 0 01.644-.42.86.86 0 01.615.191.745.745 0 01.302.545.816.816 0 01-.097.46c-.38.688-.693 1.845-.947 3.45-.243 1.56-.331 2.773-.273 3.643.02.24-.02.45-.117.631a.63.63 0 01-.517.345c-.253.019-.517-.096-.77-.354-.908-.908-1.63-2.266-2.157-4.073a178.165 178.165 0 00-1.405 2.753c-.575 1.08-1.063 1.635-1.473 1.664-.263.02-.488-.2-.683-.66-.497-1.252-1.034-3.671-1.61-7.256a.802.802 0 01.157-.64zM22.333 8.5c-.352-.602-.869-.965-1.561-1.109a2.612 2.612 0 00-.527-.057c-.937 0-1.698.478-2.293 1.434a4.99 4.99 0 00-.76 2.696c0 .736.155 1.367.467 1.893.352.602.869.966 1.561 1.11.186.037.361.056.527.056.947 0 1.707-.478 2.293-1.434.507-.822.76-1.72.76-2.705.01-.746-.155-1.368-.467-1.884zm-1.23 2.649c-.136.63-.38 1.099-.741 1.415-.283.248-.546.353-.79.305-.235-.047-.43-.248-.576-.621a2.384 2.384 0 01-.176-.87c0-.239.02-.478.069-.698.088-.392.253-.774.517-1.138.322-.468.663-.66 1.014-.592.234.047.43.248.576.621.117.296.176.593.176.87 0 .249-.02.488-.069.708zm-4.878-2.649c-.351-.602-.878-.965-1.56-1.109a2.612 2.612 0 00-.528-.057c-.936 0-1.697.478-2.292 1.434a4.99 4.99 0 00-.761 2.696c0 .736.156 1.367.468 1.893.351.602.868.966 1.561 1.11.185.037.361.056.527.056.946 0 1.707-.478 2.293-1.434.507-.822.76-1.72.76-2.705 0-.746-.156-1.368-.468-1.884zm-1.239 2.649c-.136.63-.38 1.099-.741 1.415-.283.248-.547.353-.79.305-.235-.047-.43-.248-.576-.621a2.384 2.384 0 01-.176-.87c0-.239.02-.478.069-.698a3.06 3.06 0 01.517-1.138c.322-.468.663-.66 1.014-.592.234.047.43.248.576.621.117.296.176.593.176.87.01.249-.02.488-.069.708z"
    fill="#fff"
  ></path>
</svg>
