<svg viewBox="0 0 24 24" xmlns="http://www.w3.org/2000/svg">
  <path
    d="M15 12.005c0 .892-.164 1.745-.46 2.534a7.194 7.194 0 01-2.535.461h-.01a7.191 7.191 0 01-2.534-.46 7.177 7.177 0 01-.46-2.535v-.01c0-.892.163-1.746.46-2.533A7.171 7.171 0 0111.994 9h.01a7.17 7.17 0 012.534.462 7.16 7.16 0 01.46 2.533v.01zM23.833 10H16.83l4.952-4.953a12.091 12.091 0 00-2.829-2.828L14 7.172V.167A12.058 12.058 0 0012.006 0h-.012c-.68 0-1.345.058-1.994.167v7.005L5.047 2.219c-.547.389-1.06.822-1.532 1.296l-.002.001c-.473.473-.906.985-1.295 1.531L7.172 10H.167S0 11.316 0 11.996v.008c0 .68.058 1.347.167 1.996h7.005l-4.954 4.953a12.085 12.085 0 002.829 2.829L10 16.828v7.005c.648.109 1.313.166 1.991.167h.017c.679 0 1.345-.058 1.992-.167v-7.005l4.953 4.954a12.09 12.09 0 001.532-1.296l.001-.001c.473-.473.907-.986 1.295-1.532L16.828 14h7.005c.11-.648.166-1.313.167-1.991v-.018c0-.678-.058-1.343-.167-1.99z"
    fill="#fff"
  ></path>
</svg>
