<svg viewBox="0 0 24 24" xmlns="http://www.w3.org/2000/svg">
  <path
    fill-rule="evenodd"
    clip-rule="evenodd"
    d="M15.934 17.824v-.008l-.035.013c-1.183-1.24-2.487-2.902-3.728-4.757-.09-.135-.18-.27-.268-.405-.016-.168-.03-.336-.045-.506-.188-2.254-.21-4.403-.067-6.148 5.511-2.062 10.868-1.119 11.997 2.126.928 2.668-1.262 6.032-5.09 8.333v-.003c-.038.023-.054.03-.071.038a.914.914 0 00-.075.04l-.287.167.003.009c-.727.409-1.508.78-2.334 1.101zm-.524.196c-1.088-1.163-2.265-2.66-3.398-4.32.22 1.883.54 3.616.928 5.007-.157.032-.315.06-.47.087-.453-1.632-.811-3.713-1.028-5.95-1.21-1.86-2.214-3.696-2.873-5.251.136-.085.275-.169.415-.25.558 1.328 1.379 2.87 2.368 4.461-.153-2.035-.17-3.975-.053-5.599a18.628 18.628 0 01.492-.192c.021-.258.046-.507.075-.747.238-2 .664-2.74.957-2.767h.019c.187 0 .425.247.67.698.264.487.53 1.196.775 2.068l.478-.096C14.033 2.56 13.318 2 12.843 2a.645.645 0 00-.061.003c-.676.062-1.143 1.139-1.388 3.202-.013.103-.024.209-.035.316-1.53-1.536-2.368-1.864-2.806-1.864a.722.722 0 00-.436.134c-.556.408-.446 1.585.328 3.5.04.1.081.2.124.302-3.517 2.193-5.577 5.29-4.977 7.829-.278-1.179.016-2.478.764-3.751L0 13.331l2.444 2.937-.068 3.894 4.346-1.656c1.566.549 3.575.66 5.747.288.028.103.057.203.086.302.566 1.927 1.185 2.904 1.84 2.904.02 0 .04 0 .059-.003.862-.079 1.248-1.83 1.42-3.495l.214.212c1.129 1.097 2.001 1.654 2.592 1.654a.726.726 0 00.439-.135c.726-.533.172-2.332-.42-3.748v-.013c-.142.085-.285.168-.43.25.831 1.992.83 2.917.577 3.103a.288.288 0 01-.174.047c-.208 0-.846-.148-2.26-1.523a19.169 19.169 0 01-.481-.486l.003-.039a15.46 15.46 0 01-.524.196zM11.299 6.205c-.82.334-1.596.717-2.315 1.137a18.775 18.775 0 01-.101-.245c-.75-1.856-.734-2.721-.493-2.898a.282.282 0 01.17-.045c.248 0 1.012.197 2.742 2.006l-.003.045zm4.11 11.815c-.832.296-1.66.524-2.469.687l.07.243c.236.802.494 1.462.747 1.91.234.414.46.642.637.642h.018c.279-.026.801-.786 1.026-3.452l-.028-.03z"
    fill="#fff"
  ></path>
</svg>
